<?xml version="1.0" encoding="UTF-8" standalone="no"?>
<!DOCTYPE svg PUBLIC "-//W3C//DTD SVG 1.1//EN"
 "http://www.w3.org/Graphics/SVG/1.1/DTD/svg11.dtd">
<!-- Generated by graphviz version 12.2.1 (20241206.2353)
 -->
<!-- Title: Congradq Pages: 1 -->
<svg width="289pt" height="138pt"
 viewBox="0.00 0.00 289.25 138.25" xmlns="http://www.w3.org/2000/svg" xmlns:xlink="http://www.w3.org/1999/xlink">
<g id="graph0" class="graph" transform="scale(1 1) rotate(0) translate(4 134.25)">
<title>Congradq</title>
<!-- Node1 -->
<g id="Node000001" class="node">
<title>Node1</title>
<g id="a_Node000001"><a xlink:title="Matrix Inversion via Conjugate Gradient (up/down flavour partitioning). Solves &#160;Implements up/down pa...">
<polygon fill="#999999" stroke="#666666" points="57.25,-74.25 0,-74.25 0,-55 57.25,-55 57.25,-74.25"/>
<text text-anchor="middle" x="28.62" y="-60.75" font-family="IBMPlexSans-Regular" font-size="10.00">Congradq</text>
</a>
</g>
</g>
<!-- Node2 -->
<g id="Node000002" class="node">
<title>Node2</title>
<g id="a_Node000002"><a xlink:href="matrices_8c.html#a68e018d0a9d3c7ae5e175f87da75d881" target="_top" xlink:title="Evaluates &#160;in single precision.">
<polygon fill="white" stroke="#666666" points="156.12,-130.25 95.88,-130.25 95.88,-111 156.12,-111 156.12,-130.25"/>
<text text-anchor="middle" x="126" y="-116.75" font-family="IBMPlexSans-Regular" font-size="10.00">Hdslash_f</text>
</a>
</g>
</g>
<!-- Node1&#45;&gt;Node2 -->
<g id="edge1_Node000001_Node000002" class="edge">
<title>Node1&#45;&gt;Node2</title>
<g id="a_edge1_Node000001_Node000002"><a xlink:title=" ">
<path fill="none" stroke="#63b8ff" d="M46.31,-74.73C59.11,-82.45 77.24,-93.31 93.25,-102.62 94.65,-103.44 96.09,-104.28 97.55,-105.11"/>
<polygon fill="#63b8ff" stroke="#63b8ff" points="95.43,-107.93 105.85,-109.85 98.9,-101.85 95.43,-107.93"/>
</a>
</g>
</g>
<!-- Node4 -->
<g id="Node000004" class="node">
<title>Node4</title>
<g id="a_Node000004"><a xlink:href="matrices_8c.html#a01fdbe29f8890534b19e20de5af344aa" target="_top" xlink:title="Evaluates &#160;in single precision.">
<polygon fill="white" stroke="#666666" points="158.75,-93.25 93.25,-93.25 93.25,-74 158.75,-74 158.75,-93.25"/>
<text text-anchor="middle" x="126" y="-79.75" font-family="IBMPlexSans-Regular" font-size="10.00">Hdslashd_f</text>
</a>
</g>
</g>
<!-- Node1&#45;&gt;Node4 -->
<g id="edge3_Node000001_Node000004" class="edge">
<title>Node1&#45;&gt;Node4</title>
<g id="a_edge3_Node000001_Node000004"><a xlink:title=" ">
<path fill="none" stroke="#63b8ff" d="M57.72,-70.22C65.36,-71.74 73.8,-73.42 82.05,-75.07"/>
<polygon fill="#63b8ff" stroke="#63b8ff" points="81.11,-78.45 91.6,-76.97 82.48,-71.58 81.11,-78.45"/>
</a>
</g>
</g>
<!-- Node5 -->
<g id="Node000005" class="node">
<title>Node5</title>
<g id="a_Node000005"><a xlink:href="par__mpi_8h.html#aecfe9840e5f8dfd693b813b750d81a0c" target="_top" xlink:title="Performs a reduction on a double dval to get a sum which is then distributed to all ranks.">
<polygon fill="white" stroke="#666666" points="156.12,-56.25 95.88,-56.25 95.88,-37 156.12,-37 156.12,-56.25"/>
<text text-anchor="middle" x="126" y="-42.75" font-family="IBMPlexSans-Regular" font-size="10.00">Par_dsum</text>
</a>
</g>
</g>
<!-- Node1&#45;&gt;Node5 -->
<g id="edge5_Node000001_Node000005" class="edge">
<title>Node1&#45;&gt;Node5</title>
<g id="a_edge5_Node000001_Node000005"><a xlink:title=" ">
<path fill="none" stroke="#63b8ff" d="M57.72,-59.32C66.07,-57.75 75.38,-55.99 84.36,-54.3"/>
<polygon fill="#63b8ff" stroke="#63b8ff" points="84.78,-57.78 93.96,-52.48 83.48,-50.9 84.78,-57.78"/>
</a>
</g>
</g>
<!-- Node6 -->
<g id="Node000006" class="node">
<title>Node6</title>
<g id="a_Node000006"><a xlink:href="par__mpi_8h.html#a4e2e85b06c5b05c5181729cc5ebdd05b" target="_top" xlink:title="Performs a reduction on a float dval to get a sum which is then distributed to all ranks.">
<polygon fill="white" stroke="#666666" points="155,-19.25 97,-19.25 97,0 155,0 155,-19.25"/>
<text text-anchor="middle" x="126" y="-5.75" font-family="IBMPlexSans-Regular" font-size="10.00">Par_fsum</text>
</a>
</g>
</g>
<!-- Node1&#45;&gt;Node6 -->
<g id="edge6_Node000001_Node000006" class="edge">
<title>Node1&#45;&gt;Node6</title>
<g id="a_edge6_Node000001_Node000006"><a xlink:title=" ">
<path fill="none" stroke="#63b8ff" d="M46.88,-54.52C59.66,-47.06 77.51,-36.66 93.25,-27.62 94.66,-26.82 96.1,-25.99 97.56,-25.16"/>
<polygon fill="#63b8ff" stroke="#63b8ff" points="98.9,-28.42 105.87,-20.43 95.44,-22.33 98.9,-28.42"/>
</a>
</g>
</g>
<!-- Node3 -->
<g id="Node000003" class="node">
<title>Node3</title>
<g id="a_Node000003"><a xlink:href="par__mpi_8h.html#a14b1a550ef4f44a9e4d7dd06c9427993" target="_top" xlink:title="Calls the functions to send data to both the up and down halos.">
<polygon fill="white" stroke="#666666" points="281.25,-111.25 194.75,-111.25 194.75,-92 281.25,-92 281.25,-111.25"/>
<text text-anchor="middle" x="238" y="-97.75" font-family="IBMPlexSans-Regular" font-size="10.00">CHalo_swap_all</text>
</a>
</g>
</g>
<!-- Node2&#45;&gt;Node3 -->
<g id="edge2_Node000002_Node000003" class="edge">
<title>Node2&#45;&gt;Node3</title>
<g id="a_edge2_Node000002_Node000003"><a xlink:title=" ">
<path fill="none" stroke="#63b8ff" d="M156.48,-115.53C164.8,-114.1 174.13,-112.48 183.4,-110.88"/>
<polygon fill="#63b8ff" stroke="#63b8ff" points="183.87,-114.35 193.13,-109.2 182.68,-107.46 183.87,-114.35"/>
</a>
</g>
</g>
<!-- Node4&#45;&gt;Node3 -->
<g id="edge4_Node000004_Node000003" class="edge">
<title>Node4&#45;&gt;Node3</title>
<g id="a_edge4_Node000004_Node000003"><a xlink:title=" ">
<path fill="none" stroke="#63b8ff" d="M159.11,-88.88C166.7,-90.12 174.99,-91.48 183.25,-92.83"/>
<polygon fill="#63b8ff" stroke="#63b8ff" points="182.48,-96.25 192.92,-94.41 183.61,-89.34 182.48,-96.25"/>
</a>
</g>
</g>
</g>
</svg>
