<?xml version="1.0" encoding="UTF-8" standalone="no"?>
<!DOCTYPE svg PUBLIC "-//W3C//DTD SVG 1.1//EN"
 "http://www.w3.org/Graphics/SVG/1.1/DTD/svg11.dtd">
<!-- Generated by graphviz version 12.2.1 (20241206.2353)
 -->
<!-- Title: Congradp Pages: 1 -->
<svg width="284pt" height="138pt"
 viewBox="0.00 0.00 284.00 138.25" xmlns="http://www.w3.org/2000/svg" xmlns:xlink="http://www.w3.org/1999/xlink">
<g id="graph0" class="graph" transform="scale(1 1) rotate(0) translate(4 134.25)">
<title>Congradp</title>
<!-- Node1 -->
<g id="Node000001" class="node">
<title>Node1</title>
<g id="a_Node000001"><a xlink:title="Matrix Inversion via Conjugate Gradient (no up/down flavour partitioning). Solves &#160;The matrix multipl...">
<polygon fill="#999999" stroke="#666666" points="57.25,-74.25 0,-74.25 0,-55 57.25,-55 57.25,-74.25"/>
<text text-anchor="middle" x="28.62" y="-60.75" font-family="IBMPlexSans-Regular" font-size="10.00">Congradp</text>
</a>
</g>
</g>
<!-- Node2 -->
<g id="Node000002" class="node">
<title>Node2</title>
<g id="a_Node000002"><a xlink:href="matrices_8c.html#a40434b5c9baa7bb374ac7faf436acc56" target="_top" xlink:title="Evaluates &#160;in single precision.">
<polygon fill="white" stroke="#666666" points="150.5,-130.25 96.25,-130.25 96.25,-111 150.5,-111 150.5,-130.25"/>
<text text-anchor="middle" x="123.38" y="-116.75" font-family="IBMPlexSans-Regular" font-size="10.00">Dslash_f</text>
</a>
</g>
</g>
<!-- Node1&#45;&gt;Node2 -->
<g id="edge1_Node000001_Node000002" class="edge">
<title>Node1&#45;&gt;Node2</title>
<g id="a_edge1_Node000001_Node000002"><a xlink:title=" ">
<path fill="none" stroke="#63b8ff" d="M46.21,-74.64C59.97,-82.95 79.8,-94.92 95.78,-104.57"/>
<polygon fill="#63b8ff" stroke="#63b8ff" points="93.96,-107.56 104.33,-109.73 97.58,-101.56 93.96,-107.56"/>
</a>
</g>
</g>
<!-- Node4 -->
<g id="Node000004" class="node">
<title>Node4</title>
<g id="a_Node000004"><a xlink:href="matrices_8c.html#ad8f7378919117970073d06cbb243f9a4" target="_top" xlink:title="Evaluates &#160;in single precision.">
<polygon fill="white" stroke="#666666" points="153.12,-93.25 93.62,-93.25 93.62,-74 153.12,-74 153.12,-93.25"/>
<text text-anchor="middle" x="123.38" y="-79.75" font-family="IBMPlexSans-Regular" font-size="10.00">Dslashd_f</text>
</a>
</g>
</g>
<!-- Node1&#45;&gt;Node4 -->
<g id="edge3_Node000001_Node000004" class="edge">
<title>Node1&#45;&gt;Node4</title>
<g id="a_edge3_Node000001_Node000004"><a xlink:title=" ">
<path fill="none" stroke="#63b8ff" d="M57.7,-70.38C65.48,-71.97 74.06,-73.73 82.37,-75.43"/>
<polygon fill="#63b8ff" stroke="#63b8ff" points="81.45,-78.81 91.94,-77.39 82.85,-71.96 81.45,-78.81"/>
</a>
</g>
</g>
<!-- Node5 -->
<g id="Node000005" class="node">
<title>Node5</title>
<g id="a_Node000005"><a xlink:href="par__mpi_8h.html#aecfe9840e5f8dfd693b813b750d81a0c" target="_top" xlink:title="Performs a reduction on a double dval to get a sum which is then distributed to all ranks.">
<polygon fill="white" stroke="#666666" points="153.5,-56.25 93.25,-56.25 93.25,-37 153.5,-37 153.5,-56.25"/>
<text text-anchor="middle" x="123.38" y="-42.75" font-family="IBMPlexSans-Regular" font-size="10.00">Par_dsum</text>
</a>
</g>
</g>
<!-- Node1&#45;&gt;Node5 -->
<g id="edge5_Node000001_Node000005" class="edge">
<title>Node1&#45;&gt;Node5</title>
<g id="a_edge5_Node000001_Node000005"><a xlink:title=" ">
<path fill="none" stroke="#63b8ff" d="M57.7,-59.18C65.24,-57.71 73.55,-56.1 81.62,-54.53"/>
<polygon fill="#63b8ff" stroke="#63b8ff" points="82.15,-58 91.3,-52.66 80.81,-51.13 82.15,-58"/>
</a>
</g>
</g>
<!-- Node6 -->
<g id="Node000006" class="node">
<title>Node6</title>
<g id="a_Node000006"><a xlink:href="par__mpi_8h.html#a4e2e85b06c5b05c5181729cc5ebdd05b" target="_top" xlink:title="Performs a reduction on a float dval to get a sum which is then distributed to all ranks.">
<polygon fill="white" stroke="#666666" points="152.38,-19.25 94.38,-19.25 94.38,0 152.38,0 152.38,-19.25"/>
<text text-anchor="middle" x="123.38" y="-5.75" font-family="IBMPlexSans-Regular" font-size="10.00">Par_fsum</text>
</a>
</g>
</g>
<!-- Node1&#45;&gt;Node6 -->
<g id="edge6_Node000001_Node000006" class="edge">
<title>Node1&#45;&gt;Node6</title>
<g id="a_edge6_Node000001_Node000006"><a xlink:title=" ">
<path fill="none" stroke="#63b8ff" d="M46.64,-54.54C60.36,-46.4 79.92,-34.8 95.73,-25.43"/>
<polygon fill="#63b8ff" stroke="#63b8ff" points="97.35,-28.53 104.17,-20.42 93.78,-22.51 97.35,-28.53"/>
</a>
</g>
</g>
<!-- Node3 -->
<g id="Node000003" class="node">
<title>Node3</title>
<g id="a_Node000003"><a xlink:href="par__mpi_8h.html#a14b1a550ef4f44a9e4d7dd06c9427993" target="_top" xlink:title="Calls the functions to send data to both the up and down halos.">
<polygon fill="white" stroke="#666666" points="276,-111.25 189.5,-111.25 189.5,-92 276,-92 276,-111.25"/>
<text text-anchor="middle" x="232.75" y="-97.75" font-family="IBMPlexSans-Regular" font-size="10.00">CHalo_swap_all</text>
</a>
</g>
</g>
<!-- Node2&#45;&gt;Node3 -->
<g id="edge2_Node000002_Node000003" class="edge">
<title>Node2&#45;&gt;Node3</title>
<g id="a_edge2_Node000002_Node000003"><a xlink:title=" ">
<path fill="none" stroke="#63b8ff" d="M150.92,-115.93C159.22,-114.46 168.7,-112.78 178.17,-111.11"/>
<polygon fill="#63b8ff" stroke="#63b8ff" points="178.49,-114.6 187.73,-109.41 177.27,-107.71 178.49,-114.6"/>
</a>
</g>
</g>
<!-- Node4&#45;&gt;Node3 -->
<g id="edge4_Node000004_Node000003" class="edge">
<title>Node4&#45;&gt;Node3</title>
<g id="a_edge4_Node000004_Node000003"><a xlink:title=" ">
<path fill="none" stroke="#63b8ff" d="M153.43,-88.5C161.12,-89.78 169.67,-91.22 178.21,-92.65"/>
<polygon fill="#63b8ff" stroke="#63b8ff" points="177.43,-96.07 187.87,-94.27 178.59,-89.16 177.43,-96.07"/>
</a>
</g>
</g>
</g>
</svg>
