<?xml version="1.0" encoding="UTF-8" standalone="no"?>
<!DOCTYPE svg PUBLIC "-//W3C//DTD SVG 1.1//EN"
 "http://www.w3.org/Graphics/SVG/1.1/DTD/svg11.dtd">
<!-- Generated by graphviz version 12.2.1 (20241206.2353)
 -->
<!-- Title: production_c/coord.c Pages: 1 -->
<svg width="491pt" height="248pt"
 viewBox="0.00 0.00 491.00 248.25" xmlns="http://www.w3.org/2000/svg" xmlns:xlink="http://www.w3.org/1999/xlink">
<g id="graph0" class="graph" transform="scale(1 1) rotate(0) translate(4 244.25)">
<title>production_c/coord.c</title>
<!-- Node1 -->
<g id="Node000001" class="node">
<title>Node1</title>
<g id="a_Node000001"><a xlink:title="functions for dealing with lattice and MPI coordinates">
<polygon fill="#999999" stroke="#666666" points="241.62,-240.25 135.62,-240.25 135.62,-221 241.62,-221 241.62,-240.25"/>
<text text-anchor="middle" x="188.62" y="-226.75" font-family="IBMPlexSans-Regular" font-size="10.00">production_c/coord.c</text>
</a>
</g>
</g>
<!-- Node2 -->
<g id="Node000002" class="node">
<title>Node2</title>
<g id="a_Node000002"><a xlink:href="coord_8h.html" target="_top" xlink:title="Header for routines related to lattice sites.">
<polygon fill="white" stroke="#666666" points="52.38,-129.75 4.88,-129.75 4.88,-110.5 52.38,-110.5 52.38,-129.75"/>
<text text-anchor="middle" x="28.62" y="-116.25" font-family="IBMPlexSans-Regular" font-size="10.00">coord.h</text>
</a>
</g>
</g>
<!-- Node1&#45;&gt;Node2 -->
<g id="edge1_Node000001_Node000002" class="edge">
<title>Node1&#45;&gt;Node2</title>
<g id="a_edge1_Node000001_Node000002"><a xlink:title=" ">
<path fill="none" stroke="#63b8ff" d="M141.94,-220.51C117.45,-213.88 88.15,-202.85 66.62,-185 52.35,-173.16 42.12,-154.48 35.9,-140.37"/>
<polygon fill="#63b8ff" stroke="#63b8ff" points="39.2,-139.19 32.19,-131.25 32.72,-141.83 39.2,-139.19"/>
</a>
</g>
</g>
<!-- Node4 -->
<g id="Node000004" class="node">
<title>Node4</title>
<g id="a_Node000004"><a xlink:href="sizes_8h.html" target="_top" xlink:title="Defines the constants of the code and other parameters for loop dimensions. Each subroutine includes ...">
<polygon fill="white" stroke="#666666" points="109.62,-74.5 63.62,-74.5 63.62,-55.25 109.62,-55.25 109.62,-74.5"/>
<text text-anchor="middle" x="86.62" y="-61" font-family="IBMPlexSans-Regular" font-size="10.00">sizes.h</text>
</a>
</g>
</g>
<!-- Node1&#45;&gt;Node4 -->
<g id="edge14_Node000001_Node000004" class="edge">
<title>Node1&#45;&gt;Node4</title>
<g id="a_edge14_Node000001_Node000004"><a xlink:title=" ">
<path fill="none" stroke="#63b8ff" d="M177.57,-220.75C158.42,-204.73 119.28,-169 99.62,-129.75 92.78,-116.09 89.54,-99.07 88.01,-86.04"/>
<polygon fill="#63b8ff" stroke="#63b8ff" points="91.5,-85.76 87.11,-76.11 84.52,-86.39 91.5,-85.76"/>
</a>
</g>
</g>
<!-- Node6 -->
<g id="Node000006" class="node">
<title>Node6</title>
<g id="a_Node000006"><a xlink:href="errorcodes_8h.html" target="_top" xlink:title="This header is intended to be a useful reference for error codes and their meanings.">
<polygon fill="white" stroke="#666666" points="178.25,-129.75 109,-129.75 109,-110.5 178.25,-110.5 178.25,-129.75"/>
<text text-anchor="middle" x="143.62" y="-116.25" font-family="IBMPlexSans-Regular" font-size="10.00">errorcodes.h</text>
</a>
</g>
</g>
<!-- Node1&#45;&gt;Node6 -->
<g id="edge5_Node000001_Node000006" class="edge">
<title>Node1&#45;&gt;Node6</title>
<g id="a_edge5_Node000001_Node000006"><a xlink:title=" ">
<path fill="none" stroke="#63b8ff" d="M184.94,-220.75C177.72,-203.34 161.56,-164.37 151.73,-140.66"/>
<polygon fill="#63b8ff" stroke="#63b8ff" points="155,-139.42 147.94,-131.52 148.54,-142.1 155,-139.42"/>
</a>
</g>
</g>
<!-- Node7 -->
<g id="Node000007" class="node">
<title>Node7</title>
<g id="a_Node000007"><a xlink:href="par__mpi_8h.html" target="_top" xlink:title="MPI headers.">
<polygon fill="white" stroke="#666666" points="258.62,-185 200.62,-185 200.62,-165.75 258.62,-165.75 258.62,-185"/>
<text text-anchor="middle" x="229.62" y="-171.5" font-family="IBMPlexSans-Regular" font-size="10.00">par_mpi.h</text>
</a>
</g>
</g>
<!-- Node1&#45;&gt;Node7 -->
<g id="edge6_Node000001_Node000007" class="edge">
<title>Node1&#45;&gt;Node7</title>
<g id="a_edge6_Node000001_Node000007"><a xlink:title=" ">
<path fill="none" stroke="#63b8ff" d="M195.4,-220.83C200.94,-213.63 208.97,-203.21 215.85,-194.26"/>
<polygon fill="#63b8ff" stroke="#63b8ff" points="218.46,-196.62 221.78,-186.56 212.91,-192.35 218.46,-196.62"/>
</a>
</g>
</g>
<!-- Node9 -->
<g id="Node000009" class="node">
<title>Node9</title>
<g id="a_Node000009"><a xlink:title=" ">
<polygon fill="#e0e0e0" stroke="#999999" points="417.88,-129.75 373.38,-129.75 373.38,-110.5 417.88,-110.5 417.88,-129.75"/>
<text text-anchor="middle" x="395.62" y="-116.25" font-family="IBMPlexSans-Regular" font-size="10.00">stdio.h</text>
</a>
</g>
</g>
<!-- Node1&#45;&gt;Node9 -->
<g id="edge16_Node000001_Node000009" class="edge">
<title>Node1&#45;&gt;Node9</title>
<g id="a_edge16_Node000001_Node000009"><a xlink:title=" ">
<path fill="none" stroke="#63b8ff" d="M205.92,-220.56C241.84,-201.73 324.78,-158.26 368.12,-135.54"/>
<polygon fill="#63b8ff" stroke="#63b8ff" points="369.66,-138.68 376.9,-130.94 366.41,-132.48 369.66,-138.68"/>
</a>
</g>
</g>
<!-- Node10 -->
<g id="Node000010" class="node">
<title>Node10</title>
<g id="a_Node000010"><a xlink:title=" ">
<polygon fill="#e0e0e0" stroke="#999999" points="483,-129.75 436.25,-129.75 436.25,-110.5 483,-110.5 483,-129.75"/>
<text text-anchor="middle" x="459.62" y="-116.25" font-family="IBMPlexSans-Regular" font-size="10.00">stdlib.h</text>
</a>
</g>
</g>
<!-- Node1&#45;&gt;Node10 -->
<g id="edge15_Node000001_Node000010" class="edge">
<title>Node1&#45;&gt;Node10</title>
<g id="a_edge15_Node000001_Node000010"><a xlink:title=" ">
<path fill="none" stroke="#63b8ff" d="M213.13,-220.64C237.06,-211.79 274.47,-197.79 306.62,-185 348.79,-168.23 397.04,-147.89 427.9,-134.74"/>
<polygon fill="#63b8ff" stroke="#63b8ff" points="429.22,-137.98 437.04,-130.83 426.47,-131.54 429.22,-137.98"/>
</a>
</g>
</g>
<!-- Node3 -->
<g id="Node000003" class="node">
<title>Node3</title>
<g id="a_Node000003"><a xlink:title=" ">
<polygon fill="#e0e0e0" stroke="#999999" points="45.25,-74.5 0,-74.5 0,-55.25 45.25,-55.25 45.25,-74.5"/>
<text text-anchor="middle" x="22.62" y="-61" font-family="IBMPlexSans-Regular" font-size="10.00">math.h</text>
</a>
</g>
</g>
<!-- Node2&#45;&gt;Node3 -->
<g id="edge2_Node000002_Node000003" class="edge">
<title>Node2&#45;&gt;Node3</title>
<g id="a_edge2_Node000002_Node000003"><a xlink:title=" ">
<path fill="none" stroke="#63b8ff" d="M27.63,-110.33C26.89,-103.74 25.85,-94.46 24.9,-86.07"/>
<polygon fill="#63b8ff" stroke="#63b8ff" points="28.4,-85.91 23.81,-76.36 21.45,-86.69 28.4,-85.91"/>
</a>
</g>
</g>
<!-- Node2&#45;&gt;Node4 -->
<g id="edge3_Node000002_Node000004" class="edge">
<title>Node2&#45;&gt;Node4</title>
<g id="a_edge3_Node000002_Node000004"><a xlink:title=" ">
<path fill="none" stroke="#63b8ff" d="M38.46,-110.09C46.68,-102.55 58.61,-91.6 68.54,-82.48"/>
<polygon fill="#63b8ff" stroke="#63b8ff" points="70.82,-85.14 75.82,-75.8 66.08,-79.98 70.82,-85.14"/>
</a>
</g>
</g>
<!-- Node5 -->
<g id="Node000005" class="node">
<title>Node5</title>
<g id="a_Node000005"><a xlink:title=" ">
<polygon fill="#e0e0e0" stroke="#999999" points="116.38,-19.25 56.88,-19.25 56.88,0 116.38,0 116.38,-19.25"/>
<text text-anchor="middle" x="86.62" y="-5.75" font-family="IBMPlexSans-Regular" font-size="10.00">complex.h</text>
</a>
</g>
</g>
<!-- Node4&#45;&gt;Node5 -->
<g id="edge4_Node000004_Node000005" class="edge">
<title>Node4&#45;&gt;Node5</title>
<g id="a_edge4_Node000004_Node000005"><a xlink:title=" ">
<path fill="none" stroke="#63b8ff" d="M86.62,-55.08C86.62,-48.57 86.62,-39.42 86.62,-31.12"/>
<polygon fill="#63b8ff" stroke="#63b8ff" points="90.13,-31.12 86.63,-21.12 83.13,-31.12 90.13,-31.12"/>
</a>
</g>
</g>
<!-- Node7&#45;&gt;Node2 -->
<g id="edge7_Node000007_Node000002" class="edge">
<title>Node7&#45;&gt;Node2</title>
<g id="a_edge7_Node000007_Node000002"><a xlink:title=" ">
<path fill="none" stroke="#63b8ff" d="M200.4,-166.63C164.13,-157.02 102.34,-140.65 63.59,-130.39"/>
<polygon fill="#63b8ff" stroke="#63b8ff" points="64.87,-127.11 54.3,-127.93 63.07,-133.87 64.87,-127.11"/>
</a>
</g>
</g>
<!-- Node7&#45;&gt;Node4 -->
<g id="edge9_Node000007_Node000004" class="edge">
<title>Node7&#45;&gt;Node4</title>
<g id="a_edge9_Node000007_Node000004"><a xlink:title=" ">
<path fill="none" stroke="#63b8ff" d="M225.75,-165.36C219.51,-151.81 206.06,-126.11 187.62,-110.5 168.16,-94.01 141.63,-82.61 120.65,-75.46"/>
<polygon fill="#63b8ff" stroke="#63b8ff" points="121.98,-72.21 111.39,-72.47 119.84,-78.87 121.98,-72.21"/>
</a>
</g>
</g>
<!-- Node7&#45;&gt;Node6 -->
<g id="edge8_Node000007_Node000006" class="edge">
<title>Node7&#45;&gt;Node6</title>
<g id="a_edge8_Node000007_Node000006"><a xlink:title=" ">
<path fill="none" stroke="#63b8ff" d="M215.04,-165.34C202.19,-157.39 183.21,-145.64 168.05,-136.25"/>
<polygon fill="#63b8ff" stroke="#63b8ff" points="169.92,-133.29 159.57,-131 166.23,-139.24 169.92,-133.29"/>
</a>
</g>
</g>
<!-- Node8 -->
<g id="Node000008" class="node">
<title>Node8</title>
<g id="a_Node000008"><a xlink:title=" ">
<polygon fill="#e0e0e0" stroke="#999999" points="290.12,-129.75 235.12,-129.75 235.12,-110.5 290.12,-110.5 290.12,-129.75"/>
<text text-anchor="middle" x="262.62" y="-116.25" font-family="IBMPlexSans-Regular" font-size="10.00">stdbool.h</text>
</a>
</g>
</g>
<!-- Node7&#45;&gt;Node8 -->
<g id="edge10_Node000007_Node000008" class="edge">
<title>Node7&#45;&gt;Node8</title>
<g id="a_edge10_Node000007_Node000008"><a xlink:title=" ">
<path fill="none" stroke="#63b8ff" d="M235.07,-165.58C239.4,-158.61 245.59,-148.62 251.01,-139.87"/>
<polygon fill="#63b8ff" stroke="#63b8ff" points="253.97,-141.74 256.26,-131.4 248.02,-138.05 253.97,-141.74"/>
</a>
</g>
</g>
<!-- Node7&#45;&gt;Node9 -->
<g id="edge11_Node000007_Node000009" class="edge">
<title>Node7&#45;&gt;Node9</title>
<g id="a_edge11_Node000007_Node000009"><a xlink:title=" ">
<path fill="none" stroke="#63b8ff" d="M257.78,-165.34C286.7,-156.07 331.69,-141.63 362.35,-131.8"/>
<polygon fill="#63b8ff" stroke="#63b8ff" points="363.04,-135.25 371.5,-128.86 360.91,-128.59 363.04,-135.25"/>
</a>
</g>
</g>
<!-- Node7&#45;&gt;Node10 -->
<g id="edge12_Node000007_Node000010" class="edge">
<title>Node7&#45;&gt;Node10</title>
<g id="a_edge12_Node000007_Node000010"><a xlink:title=" ">
<path fill="none" stroke="#63b8ff" d="M259.07,-168.02C295.61,-160.07 360.08,-145.81 425.01,-130.08"/>
<polygon fill="#63b8ff" stroke="#63b8ff" points="425.5,-133.56 434.39,-127.8 423.84,-126.76 425.5,-133.56"/>
</a>
</g>
</g>
<!-- Node11 -->
<g id="Node000011" class="node">
<title>Node11</title>
<g id="a_Node000011"><a xlink:title=" ">
<polygon fill="#e0e0e0" stroke="#999999" points="355.38,-129.75 307.88,-129.75 307.88,-110.5 355.38,-110.5 355.38,-129.75"/>
<text text-anchor="middle" x="331.62" y="-116.25" font-family="IBMPlexSans-Regular" font-size="10.00">string.h</text>
</a>
</g>
</g>
<!-- Node7&#45;&gt;Node11 -->
<g id="edge13_Node000007_Node000011" class="edge">
<title>Node7&#45;&gt;Node11</title>
<g id="a_edge13_Node000007_Node000011"><a xlink:title=" ">
<path fill="none" stroke="#63b8ff" d="M246.93,-165.34C262.61,-157.16 285.98,-144.96 304.2,-135.44"/>
<polygon fill="#63b8ff" stroke="#63b8ff" points="305.65,-138.63 312.9,-130.9 302.41,-132.43 305.65,-138.63"/>
</a>
</g>
</g>
</g>
</svg>
