<?xml version="1.0" encoding="UTF-8" standalone="no"?>
<!DOCTYPE svg PUBLIC "-//W3C//DTD SVG 1.1//EN"
 "http://www.w3.org/Graphics/SVG/1.1/DTD/svg11.dtd">
<!-- Generated by graphviz version 12.2.1 (20241206.2353)
 -->
<!-- Title: ia Pages: 1 -->
<svg width="253pt" height="27pt"
 viewBox="0.00 0.00 252.80 27.25" xmlns="http://www.w3.org/2000/svg" xmlns:xlink="http://www.w3.org/1999/xlink">
<g id="graph0" class="graph" transform="scale(1 1) rotate(0) translate(4 23.25)">
<title>ia</title>
<!-- Node1 -->
<g id="Node000001" class="node">
<title>Node1</title>
<g id="a_Node000001"><a xlink:title="Described as a 21st Century address calculator, it gets the memory address of an array entry.">
<polygon fill="#999999" stroke="#666666" points="244.8,-19.25 216,-19.25 216,0 244.8,0 244.8,-19.25"/>
<text text-anchor="middle" x="230.4" y="-5.75" font-family="IBMPlexSans-Regular" font-size="10.00">ia</text>
</a>
</g>
</g>
<!-- Node2 -->
<g id="Node000002" class="node">
<title>Node2</title>
<g id="a_Node000002"><a xlink:href="coord_8c.html#a460e6b3f5574cd514a0c73b9cf6fc124" target="_top" xlink:title="Loads the addresses required during the update.">
<polygon fill="white" stroke="#666666" points="180,-19.25 138.5,-19.25 138.5,0 180,0 180,-19.25"/>
<text text-anchor="middle" x="159.25" y="-5.75" font-family="IBMPlexSans-Regular" font-size="10.00">Addrc</text>
</a>
</g>
</g>
<!-- Node1&#45;&gt;Node2 -->
<g id="edge1_Node000001_Node000002" class="edge">
<title>Node1&#45;&gt;Node2</title>
<g id="a_edge1_Node000001_Node000002"><a xlink:title=" ">
<path fill="none" stroke="#63b8ff" d="M204.26,-9.62C196.42,-9.62 187.89,-9.62 180.44,-9.62"/>
<polygon fill="#63b8ff" stroke="#63b8ff" points="204.22,-13.13 214.22,-9.63 204.22,-6.13 204.22,-13.13"/>
</a>
</g>
</g>
<!-- Node3 -->
<g id="Node000003" class="node">
<title>Node3</title>
<g id="a_Node000003"><a xlink:href="su2hmc_8c.html#a84f252348f913fcc70ce5de0aab6f8bf" target="_top" xlink:title="Initialises the system.">
<polygon fill="white" stroke="#666666" points="102.5,-19.25 73,-19.25 73,0 102.5,0 102.5,-19.25"/>
<text text-anchor="middle" x="87.75" y="-5.75" font-family="IBMPlexSans-Regular" font-size="10.00">Init</text>
</a>
</g>
</g>
<!-- Node2&#45;&gt;Node3 -->
<g id="edge2_Node000002_Node000003" class="edge">
<title>Node2&#45;&gt;Node3</title>
<g id="a_edge2_Node000002_Node000003"><a xlink:title=" ">
<path fill="none" stroke="#63b8ff" d="M126.92,-9.62C118.41,-9.62 109.63,-9.62 102.64,-9.62"/>
<polygon fill="#63b8ff" stroke="#63b8ff" points="126.63,-13.13 136.63,-9.63 126.63,-6.13 126.63,-13.13"/>
</a>
</g>
</g>
<!-- Node4 -->
<g id="Node000004" class="node">
<title>Node4</title>
<g id="a_Node000004"><a xlink:href="main_8c.html#a0ddf1224851353fc92bfbff6f499fa97" target="_top" xlink:title=" ">
<polygon fill="white" stroke="#666666" points="37,-19.25 0,-19.25 0,0 37,0 37,-19.25"/>
<text text-anchor="middle" x="18.5" y="-5.75" font-family="IBMPlexSans-Regular" font-size="10.00">main</text>
</a>
</g>
</g>
<!-- Node3&#45;&gt;Node4 -->
<g id="edge3_Node000003_Node000004" class="edge">
<title>Node3&#45;&gt;Node4</title>
<g id="a_edge3_Node000003_Node000004"><a xlink:title=" ">
<path fill="none" stroke="#63b8ff" d="M61.39,-9.62C53.35,-9.62 44.64,-9.62 37.26,-9.62"/>
<polygon fill="#63b8ff" stroke="#63b8ff" points="61.3,-13.13 71.3,-9.63 61.3,-6.13 61.3,-13.13"/>
</a>
</g>
</g>
</g>
</svg>
