<?xml version="1.0" encoding="UTF-8" standalone="no"?>
<!DOCTYPE svg PUBLIC "-//W3C//DTD SVG 1.1//EN"
 "http://www.w3.org/Graphics/SVG/1.1/DTD/svg11.dtd">
<!-- Generated by graphviz version 12.2.1 (20241206.2353)
 -->
<!-- Title: INCLUDE/coord.h Pages: 1 -->
<svg width="1024pt" height="359pt"
 viewBox="0.00 0.00 1024.00 358.75" xmlns="http://www.w3.org/2000/svg" xmlns:xlink="http://www.w3.org/1999/xlink">
<g id="graph0" class="graph" transform="scale(1 1) rotate(0) translate(4 354.75)">
<title>INCLUDE/coord.h</title>
<!-- Node1 -->
<g id="Node000001" class="node">
<title>Node1</title>
<g id="a_Node000001"><a xlink:title="Header for routines related to lattice sites.">
<polygon fill="#999999" stroke="#666666" points="944,-350.75 850,-350.75 850,-331.5 944,-331.5 944,-350.75"/>
<text text-anchor="middle" x="897" y="-337.25" font-family="IBMPlexSans-Regular" font-size="10.00">INCLUDE/coord.h</text>
</a>
</g>
</g>
<!-- Node2 -->
<g id="Node000002" class="node">
<title>Node2</title>
<g id="a_Node000002"><a xlink:href="par__mpi_8h.html" target="_top" xlink:title="MPI headers.">
<polygon fill="white" stroke="#666666" points="792.25,-295.5 687.75,-295.5 687.75,-276.25 792.25,-276.25 792.25,-295.5"/>
<text text-anchor="middle" x="740" y="-282" font-family="IBMPlexSans-Regular" font-size="10.00">INCLUDE/par_mpi.h</text>
</a>
</g>
</g>
<!-- Node1&#45;&gt;Node2 -->
<g id="edge1_Node000001_Node000002" class="edge">
<title>Node1&#45;&gt;Node2</title>
<g id="a_edge1_Node000001_Node000002"><a xlink:title=" ">
<path fill="none" stroke="#63b8ff" d="M859.57,-327.43C830.99,-317.74 792.3,-304.61 766.76,-295.95"/>
<polygon fill="#63b8ff" stroke="#63b8ff" points="858.34,-330.71 868.93,-330.61 860.59,-324.08 858.34,-330.71"/>
</a>
</g>
</g>
<!-- Node4 -->
<g id="Node000004" class="node">
<title>Node4</title>
<g id="a_Node000004"><a xlink:href="main_8c.html" target="_top" xlink:title="Hybrid Monte Carlo algorithm for Two Colour QCD with Wilson&#45;Gor&#39;kov fermions based on the algorithm o...">
<polygon fill="white" stroke="#666666" points="87.25,-19.25 42.75,-19.25 42.75,0 87.25,0 87.25,-19.25"/>
<text text-anchor="middle" x="65" y="-5.75" font-family="IBMPlexSans-Regular" font-size="10.00">main.c</text>
</a>
</g>
</g>
<!-- Node1&#45;&gt;Node4 -->
<g id="edge30_Node000001_Node000004" class="edge">
<title>Node1&#45;&gt;Node4</title>
<g id="a_edge30_Node000001_Node000004"><a xlink:title=" ">
<path fill="none" stroke="#63b8ff" d="M838.34,-339.21C639.01,-335.35 0,-316.36 0,-231.62 0,-231.62 0,-231.62 0,-119.12 0,-76.96 36.56,-37.01 54.84,-19.67"/>
<polygon fill="#63b8ff" stroke="#63b8ff" points="838.14,-342.71 848.21,-339.4 838.28,-335.71 838.14,-342.71"/>
</a>
</g>
</g>
<!-- Node9 -->
<g id="Node000009" class="node">
<title>Node9</title>
<g id="a_Node000009"><a xlink:href="su2hmc_8c.html" target="_top" xlink:title="An ecclectic collection of functions used in the HMC.">
<polygon fill="white" stroke="#666666" points="755.25,-19.25 638.75,-19.25 638.75,0 755.25,0 755.25,-19.25"/>
<text text-anchor="middle" x="697" y="-5.75" font-family="IBMPlexSans-Regular" font-size="10.00">production_c/su2hmc.c</text>
</a>
</g>
</g>
<!-- Node1&#45;&gt;Node9 -->
<g id="edge33_Node000001_Node000009" class="edge">
<title>Node1&#45;&gt;Node9</title>
<g id="a_edge33_Node000001_Node000009"><a xlink:title=" ">
<path fill="none" stroke="#63b8ff" d="M931.17,-326.35C966.33,-309.64 1016,-277.86 1016,-231.62 1016,-231.62 1016,-231.62 1016,-119.12 1016,-64.72 847.6,-32.1 755.51,-18.32"/>
<polygon fill="#63b8ff" stroke="#63b8ff" points="929.84,-323.11 922.17,-330.42 932.73,-329.48 929.84,-323.11"/>
</a>
</g>
</g>
<!-- Node16 -->
<g id="Node000016" class="node">
<title>Node16</title>
<g id="a_Node000016"><a xlink:href="random_8c.html" target="_top" xlink:title="Random number generator related routines.">
<polygon fill="white" stroke="#666666" points="882.12,-185 767.88,-185 767.88,-165.75 882.12,-165.75 882.12,-185"/>
<text text-anchor="middle" x="825" y="-171.5" font-family="IBMPlexSans-Regular" font-size="10.00">production_c/random.c</text>
</a>
</g>
</g>
<!-- Node1&#45;&gt;Node16 -->
<g id="edge32_Node000001_Node000016" class="edge">
<title>Node1&#45;&gt;Node16</title>
<g id="a_edge32_Node000001_Node000016"><a xlink:title=" ">
<path fill="none" stroke="#63b8ff" d="M916.73,-323.78C943.01,-300.01 983.52,-255 959,-221 941.51,-196.73 910.25,-185.46 882.33,-180.31"/>
<polygon fill="#63b8ff" stroke="#63b8ff" points="914.53,-321.05 909.29,-330.26 919.13,-326.33 914.53,-321.05"/>
</a>
</g>
</g>
<!-- Node17 -->
<g id="Node000017" class="node">
<title>Node17</title>
<g id="a_Node000017"><a xlink:href="coord_8c.html" target="_top" xlink:title="functions for dealing with lattice and MPI coordinates">
<polygon fill="white" stroke="#666666" points="950,-240.25 844,-240.25 844,-221 950,-221 950,-240.25"/>
<text text-anchor="middle" x="897" y="-226.75" font-family="IBMPlexSans-Regular" font-size="10.00">production_c/coord.c</text>
</a>
</g>
</g>
<!-- Node1&#45;&gt;Node17 -->
<g id="edge31_Node000001_Node000017" class="edge">
<title>Node1&#45;&gt;Node17</title>
<g id="a_edge31_Node000001_Node000017"><a xlink:title=" ">
<path fill="none" stroke="#63b8ff" d="M897,-319.78C897,-296.05 897,-257.89 897,-240.63"/>
<polygon fill="#63b8ff" stroke="#63b8ff" points="893.5,-319.73 897,-329.73 900.5,-319.73 893.5,-319.73"/>
</a>
</g>
</g>
<!-- Node3 -->
<g id="Node000003" class="node">
<title>Node3</title>
<g id="a_Node000003"><a xlink:href="matrices_8h.html" target="_top" xlink:title="Matrix multiplication and related declarations.">
<polygon fill="white" stroke="#666666" points="383.75,-74.5 276.25,-74.5 276.25,-55.25 383.75,-55.25 383.75,-74.5"/>
<text text-anchor="middle" x="330" y="-61" font-family="IBMPlexSans-Regular" font-size="10.00">INCLUDE/matrices.h</text>
</a>
</g>
</g>
<!-- Node2&#45;&gt;Node3 -->
<g id="edge2_Node000002_Node000003" class="edge">
<title>Node2&#45;&gt;Node3</title>
<g id="a_edge2_Node000002_Node000003"><a xlink:title=" ">
<path fill="none" stroke="#63b8ff" d="M686.77,-273.16C628.09,-258.65 532.41,-230.16 460,-185 407.27,-152.12 356.42,-96.48 337.63,-74.85"/>
<polygon fill="#63b8ff" stroke="#63b8ff" points="685.63,-276.48 696.17,-275.44 687.27,-269.68 685.63,-276.48"/>
</a>
</g>
</g>
<!-- Node2&#45;&gt;Node4 -->
<g id="edge24_Node000002_Node000004" class="edge">
<title>Node2&#45;&gt;Node4</title>
<g id="a_edge24_Node000002_Node000004"><a xlink:title=" ">
<path fill="none" stroke="#63b8ff" d="M676.06,-281.67C502.94,-272.15 38,-240.61 38,-176.38 38,-176.38 38,-176.38 38,-119.12 38,-81.27 53.67,-38.13 61.13,-19.72"/>
<polygon fill="#63b8ff" stroke="#63b8ff" points="675.84,-285.16 686.01,-282.21 676.22,-278.18 675.84,-285.16"/>
</a>
</g>
</g>
<!-- Node2&#45;&gt;Node9 -->
<g id="edge29_Node000002_Node000009" class="edge">
<title>Node2&#45;&gt;Node9</title>
<g id="a_edge29_Node000002_Node000009"><a xlink:title=" ">
<path fill="none" stroke="#63b8ff" d="M762.55,-269.52C781.74,-256.5 810.08,-237.38 835,-221 859.72,-204.74 876.82,-210.97 891,-185 895.1,-177.49 893.49,-173.94 891,-165.75 873.81,-109.2 863.39,-91.88 817,-55.25 794.67,-37.62 764.67,-26.46 740.25,-19.71"/>
<polygon fill="#63b8ff" stroke="#63b8ff" points="760.72,-266.54 754.41,-275.05 764.65,-272.33 760.72,-266.54"/>
</a>
</g>
</g>
<!-- Node10 -->
<g id="Node000010" class="node">
<title>Node10</title>
<g id="a_Node000010"><a xlink:href="random_8h.html" target="_top" xlink:title="Header for random number configuration.">
<polygon fill="white" stroke="#666666" points="712.12,-240.25 609.88,-240.25 609.88,-221 712.12,-221 712.12,-240.25"/>
<text text-anchor="middle" x="661" y="-226.75" font-family="IBMPlexSans-Regular" font-size="10.00">INCLUDE/random.h</text>
</a>
</g>
</g>
<!-- Node2&#45;&gt;Node10 -->
<g id="edge9_Node000002_Node000010" class="edge">
<title>Node2&#45;&gt;Node10</title>
<g id="a_edge9_Node000002_Node000010"><a xlink:title=" ">
<path fill="none" stroke="#63b8ff" d="M717.24,-269.53C703.39,-260.2 686.18,-248.6 674.47,-240.7"/>
<polygon fill="#63b8ff" stroke="#63b8ff" points="715.1,-272.31 725.34,-275 719.01,-266.5 715.1,-272.31"/>
</a>
</g>
</g>
<!-- Node13 -->
<g id="Node000013" class="node">
<title>Node13</title>
<g id="a_Node000013"><a xlink:href="bosonic_8c.html" target="_top" xlink:title="Code for bosonic observables, Basically polyakov loop and Plaquette routines.">
<polygon fill="white" stroke="#666666" points="219.88,-74.5 104.12,-74.5 104.12,-55.25 219.88,-55.25 219.88,-74.5"/>
<text text-anchor="middle" x="162" y="-61" font-family="IBMPlexSans-Regular" font-size="10.00">production_c/bosonic.c</text>
</a>
</g>
</g>
<!-- Node2&#45;&gt;Node13 -->
<g id="edge25_Node000002_Node000013" class="edge">
<title>Node2&#45;&gt;Node13</title>
<g id="a_edge25_Node000002_Node000013"><a xlink:title=" ">
<path fill="none" stroke="#63b8ff" d="M676.32,-275.53C633.67,-268.29 576.63,-256.69 528,-240.25 385.98,-192.23 226.92,-103.4 177.49,-74.92"/>
<polygon fill="#63b8ff" stroke="#63b8ff" points="675.74,-278.98 686.18,-277.16 676.89,-272.08 675.74,-278.98"/>
</a>
</g>
</g>
<!-- Node15 -->
<g id="Node000015" class="node">
<title>Node15</title>
<g id="a_Node000015"><a xlink:href="par__mpi_8c.html" target="_top" xlink:title="MPI routines.">
<polygon fill="white" stroke="#666666" points="808.25,-74.5 691.75,-74.5 691.75,-55.25 808.25,-55.25 808.25,-74.5"/>
<text text-anchor="middle" x="750" y="-61" font-family="IBMPlexSans-Regular" font-size="10.00">production_c/par_mpi.c</text>
</a>
</g>
</g>
<!-- Node2&#45;&gt;Node15 -->
<g id="edge27_Node000002_Node000015" class="edge">
<title>Node2&#45;&gt;Node15</title>
<g id="a_edge27_Node000002_Node000015"><a xlink:title=" ">
<path fill="none" stroke="#63b8ff" d="M740.93,-264.61C743.04,-218.38 748.14,-106.65 749.6,-74.6"/>
<polygon fill="#63b8ff" stroke="#63b8ff" points="737.43,-264.36 740.47,-274.51 744.43,-264.68 737.43,-264.36"/>
</a>
</g>
</g>
<!-- Node2&#45;&gt;Node16 -->
<g id="edge28_Node000002_Node000016" class="edge">
<title>Node2&#45;&gt;Node16</title>
<g id="a_edge28_Node000002_Node000016"><a xlink:title=" ">
<path fill="none" stroke="#63b8ff" d="M753.93,-267.1C772.29,-243.66 803.92,-203.28 817.95,-185.38"/>
<polygon fill="#63b8ff" stroke="#63b8ff" points="751.3,-264.77 747.89,-274.8 756.81,-269.09 751.3,-264.77"/>
</a>
</g>
</g>
<!-- Node2&#45;&gt;Node17 -->
<g id="edge26_Node000002_Node000017" class="edge">
<title>Node2&#45;&gt;Node17</title>
<g id="a_edge26_Node000002_Node000017"><a xlink:title=" ">
<path fill="none" stroke="#63b8ff" d="M777.43,-272.18C806.01,-262.49 844.7,-249.36 870.24,-240.7"/>
<polygon fill="#63b8ff" stroke="#63b8ff" points="776.41,-268.83 768.07,-275.36 778.66,-275.46 776.41,-268.83"/>
</a>
</g>
</g>
<!-- Node3&#45;&gt;Node4 -->
<g id="edge3_Node000003_Node000004" class="edge">
<title>Node3&#45;&gt;Node4</title>
<g id="a_edge3_Node000003_Node000004"><a xlink:title=" ">
<path fill="none" stroke="#63b8ff" d="M264.56,-52.89C217.46,-44.63 152.55,-32.48 96,-19.25 93.28,-18.61 90.44,-17.9 87.63,-17.15"/>
<polygon fill="#63b8ff" stroke="#63b8ff" points="263.88,-56.33 274.34,-54.6 265.08,-49.43 263.88,-56.33"/>
</a>
</g>
</g>
<!-- Node5 -->
<g id="Node000005" class="node">
<title>Node5</title>
<g id="a_Node000005"><a xlink:href="congrad_8c.html" target="_top" xlink:title="Conjugate gradients. Congradq for the solver and Congradp for the inversion.">
<polygon fill="white" stroke="#666666" points="359.25,-19.25 242.75,-19.25 242.75,0 359.25,0 359.25,-19.25"/>
<text text-anchor="middle" x="301" y="-5.75" font-family="IBMPlexSans-Regular" font-size="10.00">production_c/congrad.c</text>
</a>
</g>
</g>
<!-- Node3&#45;&gt;Node5 -->
<g id="edge4_Node000003_Node000005" class="edge">
<title>Node3&#45;&gt;Node5</title>
<g id="a_edge4_Node000003_Node000005"><a xlink:title=" ">
<path fill="none" stroke="#63b8ff" d="M319.76,-45.08C315.05,-36.42 309.68,-26.56 305.89,-19.61"/>
<polygon fill="#63b8ff" stroke="#63b8ff" points="316.63,-46.64 324.49,-53.75 322.78,-43.3 316.63,-46.64"/>
</a>
</g>
</g>
<!-- Node6 -->
<g id="Node000006" class="node">
<title>Node6</title>
<g id="a_Node000006"><a xlink:href="fermionic_8c.html" target="_top" xlink:title="Code for fermionic observables.">
<polygon fill="white" stroke="#666666" points="620.88,-19.25 499.12,-19.25 499.12,0 620.88,0 620.88,-19.25"/>
<text text-anchor="middle" x="560" y="-5.75" font-family="IBMPlexSans-Regular" font-size="10.00">production_c/fermionic.c</text>
</a>
</g>
</g>
<!-- Node3&#45;&gt;Node6 -->
<g id="edge5_Node000003_Node000006" class="edge">
<title>Node3&#45;&gt;Node6</title>
<g id="a_edge5_Node000003_Node000006"><a xlink:title=" ">
<path fill="none" stroke="#63b8ff" d="M380.44,-52.2C422.69,-42.41 482.16,-28.65 520.88,-19.68"/>
<polygon fill="#63b8ff" stroke="#63b8ff" points="379.7,-48.77 370.75,-54.44 381.28,-55.59 379.7,-48.77"/>
</a>
</g>
</g>
<!-- Node7 -->
<g id="Node000007" class="node">
<title>Node7</title>
<g id="a_Node000007"><a xlink:href="force_8c.html" target="_top" xlink:title="Code for force calculations.">
<polygon fill="white" stroke="#666666" points="480.88,-19.25 377.12,-19.25 377.12,0 480.88,0 480.88,-19.25"/>
<text text-anchor="middle" x="429" y="-5.75" font-family="IBMPlexSans-Regular" font-size="10.00">production_c/force.c</text>
</a>
</g>
</g>
<!-- Node3&#45;&gt;Node7 -->
<g id="edge6_Node000003_Node000007" class="edge">
<title>Node3&#45;&gt;Node7</title>
<g id="a_edge6_Node000003_Node000007"><a xlink:title=" ">
<path fill="none" stroke="#63b8ff" d="M356.52,-49.61C374.19,-40.11 396.88,-27.9 412.12,-19.7"/>
<polygon fill="#63b8ff" stroke="#63b8ff" points="355.28,-46.31 348.13,-54.12 358.59,-52.47 355.28,-46.31"/>
</a>
</g>
</g>
<!-- Node8 -->
<g id="Node000008" class="node">
<title>Node8</title>
<g id="a_Node000008"><a xlink:href="matrices_8c.html" target="_top" xlink:title="Matrix multiplication and related routines.">
<polygon fill="white" stroke="#666666" points="224.75,-19.25 105.25,-19.25 105.25,0 224.75,0 224.75,-19.25"/>
<text text-anchor="middle" x="165" y="-5.75" font-family="IBMPlexSans-Regular" font-size="10.00">production_c/matrices.c</text>
</a>
</g>
</g>
<!-- Node3&#45;&gt;Node8 -->
<g id="edge7_Node000003_Node000008" class="edge">
<title>Node3&#45;&gt;Node8</title>
<g id="a_edge7_Node000003_Node000008"><a xlink:title=" ">
<path fill="none" stroke="#63b8ff" d="M291.06,-51.31C260.99,-41.6 220.08,-28.4 193.13,-19.7"/>
<polygon fill="#63b8ff" stroke="#63b8ff" points="289.98,-54.64 300.57,-54.38 292.13,-47.97 289.98,-54.64"/>
</a>
</g>
</g>
<!-- Node3&#45;&gt;Node9 -->
<g id="edge8_Node000003_Node000009" class="edge">
<title>Node3&#45;&gt;Node9</title>
<g id="a_edge8_Node000003_Node000009"><a xlink:title=" ">
<path fill="none" stroke="#63b8ff" d="M395.3,-54.4C464.27,-44.39 572.03,-28.76 638.37,-19.13"/>
<polygon fill="#63b8ff" stroke="#63b8ff" points="395.04,-50.9 385.65,-55.8 396.05,-57.83 395.04,-50.9"/>
</a>
</g>
</g>
<!-- Node10&#45;&gt;Node4 -->
<g id="edge19_Node000010_Node000004" class="edge">
<title>Node10&#45;&gt;Node4</title>
<g id="a_edge19_Node000010_Node000004"><a xlink:title=" ">
<path fill="none" stroke="#63b8ff" d="M604.42,-218.25C563.99,-209.84 508.41,-197.68 460,-185 296.04,-142.05 223.22,-185.35 95,-74.5 77.95,-59.76 69.91,-33.21 66.74,-19.44"/>
<polygon fill="#63b8ff" stroke="#63b8ff" points="603.68,-221.68 614.18,-220.27 605.1,-214.82 603.68,-221.68"/>
</a>
</g>
</g>
<!-- Node10&#45;&gt;Node6 -->
<g id="edge20_Node000010_Node000006" class="edge">
<title>Node10&#45;&gt;Node6</title>
<g id="a_edge20_Node000010_Node000006"><a xlink:title=" ">
<path fill="none" stroke="#63b8ff" d="M652.19,-210.53C631.22,-165.05 578.93,-51.67 564.02,-19.35"/>
<polygon fill="#63b8ff" stroke="#63b8ff" points="648.92,-211.78 656.28,-219.39 655.27,-208.85 648.92,-211.78"/>
</a>
</g>
</g>
<!-- Node10&#45;&gt;Node9 -->
<g id="edge23_Node000010_Node000009" class="edge">
<title>Node10&#45;&gt;Node9</title>
<g id="a_edge23_Node000010_Node000009"><a xlink:title=" ">
<path fill="none" stroke="#63b8ff" d="M662.35,-209.76C664.81,-177.19 670.94,-110.52 683,-55.25 685.73,-42.72 690.43,-28.65 693.62,-19.73"/>
<polygon fill="#63b8ff" stroke="#63b8ff" points="658.89,-209.09 661.66,-219.31 665.87,-209.59 658.89,-209.09"/>
</a>
</g>
</g>
<!-- Node11 -->
<g id="Node000011" class="node">
<title>Node11</title>
<g id="a_Node000011"><a xlink:href="integrate_8h.html" target="_top" xlink:title="Integrators for the HMC.">
<polygon fill="white" stroke="#666666" points="576.75,-185 469.25,-185 469.25,-165.75 576.75,-165.75 576.75,-185"/>
<text text-anchor="middle" x="523" y="-171.5" font-family="IBMPlexSans-Regular" font-size="10.00">INCLUDE/integrate.h</text>
</a>
</g>
</g>
<!-- Node10&#45;&gt;Node11 -->
<g id="edge10_Node000010_Node000011" class="edge">
<title>Node10&#45;&gt;Node11</title>
<g id="a_edge10_Node000010_Node000011"><a xlink:title=" ">
<path fill="none" stroke="#63b8ff" d="M627.1,-216.54C602.08,-206.89 568.67,-194 546.52,-185.45"/>
<polygon fill="#63b8ff" stroke="#63b8ff" points="625.59,-219.71 636.18,-220.05 628.11,-213.18 625.59,-219.71"/>
</a>
</g>
</g>
<!-- Node10&#45;&gt;Node15 -->
<g id="edge21_Node000010_Node000015" class="edge">
<title>Node10&#45;&gt;Node15</title>
<g id="a_edge21_Node000010_Node000015"><a xlink:title=" ">
<path fill="none" stroke="#63b8ff" d="M671.2,-210.87C690.39,-175.55 731.22,-100.43 745.19,-74.72"/>
<polygon fill="#63b8ff" stroke="#63b8ff" points="668.21,-209.03 666.51,-219.49 674.36,-212.38 668.21,-209.03"/>
</a>
</g>
</g>
<!-- Node10&#45;&gt;Node16 -->
<g id="edge22_Node000010_Node000016" class="edge">
<title>Node10&#45;&gt;Node16</title>
<g id="a_edge22_Node000010_Node000016"><a xlink:title=" ">
<path fill="none" stroke="#63b8ff" d="M699.7,-217.06C729.59,-207.35 770.25,-194.15 797.04,-185.45"/>
<polygon fill="#63b8ff" stroke="#63b8ff" points="698.69,-213.71 690.26,-220.12 700.85,-220.37 698.69,-213.71"/>
</a>
</g>
</g>
<!-- Node12 -->
<g id="Node000012" class="node">
<title>Node12</title>
<g id="a_Node000012"><a xlink:href="su2hmc_8h.html" target="_top" xlink:title="Function declarations for most of the routines.">
<polygon fill="white" stroke="#666666" points="534.25,-129.75 429.75,-129.75 429.75,-110.5 534.25,-110.5 534.25,-129.75"/>
<text text-anchor="middle" x="482" y="-116.25" font-family="IBMPlexSans-Regular" font-size="10.00">INCLUDE/su2hmc.h</text>
</a>
</g>
</g>
<!-- Node11&#45;&gt;Node12 -->
<g id="edge11_Node000011_Node000012" class="edge">
<title>Node11&#45;&gt;Node12</title>
<g id="a_edge11_Node000011_Node000012"><a xlink:title=" ">
<path fill="none" stroke="#63b8ff" d="M509.41,-156.72C502.54,-147.81 494.51,-137.37 488.92,-130.11"/>
<polygon fill="#63b8ff" stroke="#63b8ff" points="506.43,-158.59 515.31,-164.38 511.98,-154.32 506.43,-158.59"/>
</a>
</g>
</g>
<!-- Node12&#45;&gt;Node3 -->
<g id="edge12_Node000012_Node000003" class="edge">
<title>Node12&#45;&gt;Node3</title>
<g id="a_edge12_Node000012_Node000003"><a xlink:title=" ">
<path fill="none" stroke="#63b8ff" d="M445.4,-106.3C417.76,-96.62 380.52,-83.57 355.91,-74.95"/>
<polygon fill="#63b8ff" stroke="#63b8ff" points="444.19,-109.59 454.79,-109.59 446.51,-102.98 444.19,-109.59"/>
</a>
</g>
</g>
<!-- Node12&#45;&gt;Node4 -->
<g id="edge13_Node000012_Node000004" class="edge">
<title>Node12&#45;&gt;Node4</title>
<g id="a_edge13_Node000012_Node000004"><a xlink:title=" ">
<path fill="none" stroke="#63b8ff" d="M418,-110.39C374.6,-103.36 316.38,-91.79 267,-74.5 249.13,-68.24 246.67,-62.04 229,-55.25 171.83,-33.3 155.05,-35.46 96,-19.25 93.31,-18.51 90.48,-17.73 87.68,-16.96"/>
<polygon fill="#63b8ff" stroke="#63b8ff" points="417.34,-113.83 427.76,-111.92 418.43,-106.91 417.34,-113.83"/>
</a>
</g>
</g>
<!-- Node12&#45;&gt;Node6 -->
<g id="edge15_Node000012_Node000006" class="edge">
<title>Node12&#45;&gt;Node6</title>
<g id="a_edge15_Node000012_Node000006"><a xlink:title=" ">
<path fill="none" stroke="#63b8ff" d="M503.38,-102.96C512.72,-95.11 523.28,-85.11 531,-74.5 543.9,-56.78 553,-32.4 557.26,-19.48"/>
<polygon fill="#63b8ff" stroke="#63b8ff" points="501.38,-100.07 495.77,-109.07 505.76,-105.53 501.38,-100.07"/>
</a>
</g>
</g>
<!-- Node12&#45;&gt;Node9 -->
<g id="edge18_Node000012_Node000009" class="edge">
<title>Node12&#45;&gt;Node9</title>
<g id="a_edge18_Node000012_Node000009"><a xlink:title=" ">
<path fill="none" stroke="#63b8ff" d="M510.16,-104.91C555.02,-82.28 641.46,-38.65 678.94,-19.74"/>
<polygon fill="#63b8ff" stroke="#63b8ff" points="508.66,-101.75 501.31,-109.38 511.82,-108 508.66,-101.75"/>
</a>
</g>
</g>
<!-- Node12&#45;&gt;Node13 -->
<g id="edge14_Node000012_Node000013" class="edge">
<title>Node12&#45;&gt;Node13</title>
<g id="a_edge14_Node000012_Node000013"><a xlink:title=" ">
<path fill="none" stroke="#63b8ff" d="M418.48,-108.55C359.5,-98.74 272.61,-84.28 216.66,-74.97"/>
<polygon fill="#63b8ff" stroke="#63b8ff" points="417.58,-111.95 428.02,-110.14 418.73,-105.05 417.58,-111.95"/>
</a>
</g>
</g>
<!-- Node14 -->
<g id="Node000014" class="node">
<title>Node14</title>
<g id="a_Node000014"><a xlink:href="integrate_8c.html" target="_top" xlink:title="Symplectic integrator code.">
<polygon fill="white" stroke="#666666" points="521.75,-74.5 402.25,-74.5 402.25,-55.25 521.75,-55.25 521.75,-74.5"/>
<text text-anchor="middle" x="462" y="-61" font-family="IBMPlexSans-Regular" font-size="10.00">production_c/integrate.c</text>
</a>
</g>
</g>
<!-- Node12&#45;&gt;Node14 -->
<g id="edge16_Node000012_Node000014" class="edge">
<title>Node12&#45;&gt;Node14</title>
<g id="a_edge16_Node000012_Node000014"><a xlink:title=" ">
<path fill="none" stroke="#63b8ff" d="M474.72,-99.75C471.53,-91.24 467.93,-81.65 465.37,-74.86"/>
<polygon fill="#63b8ff" stroke="#63b8ff" points="471.37,-100.78 478.17,-108.91 477.93,-98.32 471.37,-100.78"/>
</a>
</g>
</g>
<!-- Node12&#45;&gt;Node15 -->
<g id="edge17_Node000012_Node000015" class="edge">
<title>Node12&#45;&gt;Node15</title>
<g id="a_edge17_Node000012_Node000015"><a xlink:title=" ">
<path fill="none" stroke="#63b8ff" d="M538.89,-107.82C588.23,-98.02 658.72,-84.01 704.42,-74.93"/>
<polygon fill="#63b8ff" stroke="#63b8ff" points="538.38,-104.35 529.25,-109.74 539.74,-111.22 538.38,-104.35"/>
</a>
</g>
</g>
</g>
</svg>
