<?xml version="1.0" encoding="UTF-8" standalone="no"?>
<!DOCTYPE svg PUBLIC "-//W3C//DTD SVG 1.1//EN"
 "http://www.w3.org/Graphics/SVG/1.1/DTD/svg11.dtd">
<!-- Generated by graphviz version 12.2.1 (20241206.2353)
 -->
<!-- Title: Coord2gindex Pages: 1 -->
<svg width="350pt" height="65pt"
 viewBox="0.00 0.00 350.25 65.25" xmlns="http://www.w3.org/2000/svg" xmlns:xlink="http://www.w3.org/1999/xlink">
<g id="graph0" class="graph" transform="scale(1 1) rotate(0) translate(4 61.25)">
<title>Coord2gindex</title>
<!-- Node1 -->
<g id="Node000001" class="node">
<title>Node1</title>
<g id="a_Node000001"><a xlink:title="Converts the coordinates of a global lattice point to its index in the computer memory.">
<polygon fill="#999999" stroke="#666666" points="342.25,-38.25 267.75,-38.25 267.75,-19 342.25,-19 342.25,-38.25"/>
<text text-anchor="middle" x="305" y="-24.75" font-family="IBMPlexSans-Regular" font-size="10.00">Coord2gindex</text>
</a>
</g>
</g>
<!-- Node2 -->
<g id="Node000002" class="node">
<title>Node2</title>
<g id="a_Node000002"><a xlink:href="par__mpi_8c.html#a605623b5fff3d5970f2965e0d140b171" target="_top" xlink:title="Reads and assigns the gauges from file.">
<polygon fill="white" stroke="#666666" points="231.75,-57.25 171.5,-57.25 171.5,-38 231.75,-38 231.75,-57.25"/>
<text text-anchor="middle" x="201.62" y="-43.75" font-family="IBMPlexSans-Regular" font-size="10.00">Par_sread</text>
</a>
</g>
</g>
<!-- Node1&#45;&gt;Node2 -->
<g id="edge1_Node000001_Node000002" class="edge">
<title>Node1&#45;&gt;Node2</title>
<g id="a_edge1_Node000001_Node000002"><a xlink:title=" ">
<path fill="none" stroke="#63b8ff" d="M256.32,-37.56C248.09,-39.1 239.76,-40.67 232.19,-42.08"/>
<polygon fill="#63b8ff" stroke="#63b8ff" points="256.73,-41.05 265.91,-35.76 255.44,-34.17 256.73,-41.05"/>
</a>
</g>
</g>
<!-- Node5 -->
<g id="Node000005" class="node">
<title>Node5</title>
<g id="a_Node000005"><a xlink:href="par__mpi_8c.html#a1539b6a5eca3dfc3934cfb37d850ad9d" target="_top" xlink:title="Copies u11 and u12 into arrays without halos which then get written to output.">
<polygon fill="white" stroke="#666666" points="135.5,-19.25 73,-19.25 73,0 135.5,0 135.5,-19.25"/>
<text text-anchor="middle" x="104.25" y="-5.75" font-family="IBMPlexSans-Regular" font-size="10.00">Par_swrite</text>
</a>
</g>
</g>
<!-- Node1&#45;&gt;Node5 -->
<g id="edge4_Node000001_Node000005" class="edge">
<title>Node1&#45;&gt;Node5</title>
<g id="a_edge4_Node000001_Node000005"><a xlink:title=" ">
<path fill="none" stroke="#63b8ff" d="M256.42,-24.08C219.04,-20.5 168.09,-15.63 135.93,-12.56"/>
<polygon fill="#63b8ff" stroke="#63b8ff" points="255.75,-27.53 266.04,-25 256.42,-20.56 255.75,-27.53"/>
</a>
</g>
</g>
<!-- Node3 -->
<g id="Node000003" class="node">
<title>Node3</title>
<g id="a_Node000003"><a xlink:href="su2hmc_8c.html#a84f252348f913fcc70ce5de0aab6f8bf" target="_top" xlink:title="Initialises the system.">
<polygon fill="white" stroke="#666666" points="119,-56.25 89.5,-56.25 89.5,-37 119,-37 119,-56.25"/>
<text text-anchor="middle" x="104.25" y="-42.75" font-family="IBMPlexSans-Regular" font-size="10.00">Init</text>
</a>
</g>
</g>
<!-- Node2&#45;&gt;Node3 -->
<g id="edge2_Node000002_Node000003" class="edge">
<title>Node2&#45;&gt;Node3</title>
<g id="a_edge2_Node000002_Node000003"><a xlink:title=" ">
<path fill="none" stroke="#63b8ff" d="M159.89,-47.2C145.37,-47.05 129.99,-46.88 119.25,-46.77"/>
<polygon fill="#63b8ff" stroke="#63b8ff" points="159.68,-50.7 169.72,-47.3 159.75,-43.7 159.68,-50.7"/>
</a>
</g>
</g>
<!-- Node4 -->
<g id="Node000004" class="node">
<title>Node4</title>
<g id="a_Node000004"><a xlink:href="main_8c.html#a0ddf1224851353fc92bfbff6f499fa97" target="_top" xlink:title=" ">
<polygon fill="white" stroke="#666666" points="37,-37.25 0,-37.25 0,-18 37,-18 37,-37.25"/>
<text text-anchor="middle" x="18.5" y="-23.75" font-family="IBMPlexSans-Regular" font-size="10.00">main</text>
</a>
</g>
</g>
<!-- Node3&#45;&gt;Node4 -->
<g id="edge3_Node000003_Node000004" class="edge">
<title>Node3&#45;&gt;Node4</title>
<g id="a_edge3_Node000003_Node000004"><a xlink:title=" ">
<path fill="none" stroke="#63b8ff" d="M77.91,-40.88C64.79,-37.9 49.09,-34.34 37.28,-31.66"/>
<polygon fill="#63b8ff" stroke="#63b8ff" points="77.04,-44.27 87.57,-43.07 78.59,-37.44 77.04,-44.27"/>
</a>
</g>
</g>
<!-- Node5&#45;&gt;Node4 -->
<g id="edge5_Node000005_Node000004" class="edge">
<title>Node5&#45;&gt;Node4</title>
<g id="a_edge5_Node000005_Node000004"><a xlink:title=" ">
<path fill="none" stroke="#63b8ff" d="M61.37,-18.63C52.79,-20.47 44.2,-22.32 37.06,-23.85"/>
<polygon fill="#63b8ff" stroke="#63b8ff" points="62.02,-22.07 71.06,-16.54 60.55,-15.22 62.02,-22.07"/>
</a>
</g>
</g>
</g>
</svg>
