<?xml version="1.0" encoding="UTF-8" standalone="no"?>
<!DOCTYPE svg PUBLIC "-//W3C//DTD SVG 1.1//EN"
 "http://www.w3.org/Graphics/SVG/1.1/DTD/svg11.dtd">
<!-- Generated by graphviz version 12.2.1 (20241206.2353)
 -->
<!-- Title: INCLUDE/coord.h Pages: 1 -->
<svg width="124pt" height="138pt"
 viewBox="0.00 0.00 124.38 137.75" xmlns="http://www.w3.org/2000/svg" xmlns:xlink="http://www.w3.org/1999/xlink">
<g id="graph0" class="graph" transform="scale(1 1) rotate(0) translate(4 133.75)">
<title>INCLUDE/coord.h</title>
<!-- Node1 -->
<g id="Node000001" class="node">
<title>Node1</title>
<g id="a_Node000001"><a xlink:title="Header for routines related to lattice sites.">
<polygon fill="#999999" stroke="#666666" points="101.62,-129.75 7.62,-129.75 7.62,-110.5 101.62,-110.5 101.62,-129.75"/>
<text text-anchor="middle" x="54.62" y="-116.25" font-family="IBMPlexSans-Regular" font-size="10.00">INCLUDE/coord.h</text>
</a>
</g>
</g>
<!-- Node2 -->
<g id="Node000002" class="node">
<title>Node2</title>
<g id="a_Node000002"><a xlink:title=" ">
<polygon fill="#e0e0e0" stroke="#999999" points="45.25,-74.5 0,-74.5 0,-55.25 45.25,-55.25 45.25,-74.5"/>
<text text-anchor="middle" x="22.62" y="-61" font-family="IBMPlexSans-Regular" font-size="10.00">math.h</text>
</a>
</g>
</g>
<!-- Node1&#45;&gt;Node2 -->
<g id="edge1_Node000001_Node000002" class="edge">
<title>Node1&#45;&gt;Node2</title>
<g id="a_edge1_Node000001_Node000002"><a xlink:title=" ">
<path fill="none" stroke="#63b8ff" d="M49.34,-110.33C45.15,-103.36 39.15,-93.37 33.89,-84.62"/>
<polygon fill="#63b8ff" stroke="#63b8ff" points="36.95,-82.93 28.8,-76.16 30.95,-86.53 36.95,-82.93"/>
</a>
</g>
</g>
<!-- Node3 -->
<g id="Node000003" class="node">
<title>Node3</title>
<g id="a_Node000003"><a xlink:href="sizes_8h.html" target="_top" xlink:title="Defines the constants of the code and other parameters for loop dimensions. Each subroutine includes ...">
<polygon fill="white" stroke="#666666" points="109.62,-74.5 63.62,-74.5 63.62,-55.25 109.62,-55.25 109.62,-74.5"/>
<text text-anchor="middle" x="86.62" y="-61" font-family="IBMPlexSans-Regular" font-size="10.00">sizes.h</text>
</a>
</g>
</g>
<!-- Node1&#45;&gt;Node3 -->
<g id="edge2_Node000001_Node000003" class="edge">
<title>Node1&#45;&gt;Node3</title>
<g id="a_edge2_Node000001_Node000003"><a xlink:title=" ">
<path fill="none" stroke="#63b8ff" d="M59.91,-110.33C64.1,-103.36 70.1,-93.37 75.36,-84.62"/>
<polygon fill="#63b8ff" stroke="#63b8ff" points="78.3,-86.53 80.45,-76.16 72.3,-82.93 78.3,-86.53"/>
</a>
</g>
</g>
<!-- Node4 -->
<g id="Node000004" class="node">
<title>Node4</title>
<g id="a_Node000004"><a xlink:title=" ">
<polygon fill="#e0e0e0" stroke="#999999" points="116.38,-19.25 56.88,-19.25 56.88,0 116.38,0 116.38,-19.25"/>
<text text-anchor="middle" x="86.62" y="-5.75" font-family="IBMPlexSans-Regular" font-size="10.00">complex.h</text>
</a>
</g>
</g>
<!-- Node3&#45;&gt;Node4 -->
<g id="edge3_Node000003_Node000004" class="edge">
<title>Node3&#45;&gt;Node4</title>
<g id="a_edge3_Node000003_Node000004"><a xlink:title=" ">
<path fill="none" stroke="#63b8ff" d="M86.62,-55.08C86.62,-48.57 86.62,-39.42 86.62,-31.12"/>
<polygon fill="#63b8ff" stroke="#63b8ff" points="90.13,-31.12 86.63,-21.12 83.13,-31.12 90.13,-31.12"/>
</a>
</g>
</g>
</g>
</svg>
