<?xml version="1.0" encoding="UTF-8" standalone="no"?>
<!DOCTYPE svg PUBLIC "-//W3C//DTD SVG 1.1//EN"
 "http://www.w3.org/Graphics/SVG/1.1/DTD/svg11.dtd">
<!-- Generated by graphviz version 12.1.2 (20240928.0832)
 -->
<!-- Title: Coord2gindex Pages: 1 -->
<svg width="320pt" height="64pt"
 viewBox="0.00 0.00 319.50 64.25" xmlns="http://www.w3.org/2000/svg" xmlns:xlink="http://www.w3.org/1999/xlink">
<g id="graph0" class="graph" transform="scale(1 1) rotate(0) translate(4 60.25)">
<title>Coord2gindex</title>
<!-- Node1 -->
<g id="Node000001" class="node">
<title>Node1</title>
<g id="a_Node000001"><a xlink:title="Converts the coordinates of a global lattice point to its index in the computer memory.">
<polygon fill="#999999" stroke="#666666" points="311.5,-37.25 237,-37.25 237,-18 311.5,-18 311.5,-37.25"/>
<text text-anchor="middle" x="274.25" y="-23.75" font-family="IBMPlexSans-Regular" font-size="10.00">Coord2gindex</text>
</a>
</g>
</g>
<!-- Node2 -->
<g id="Node000002" class="node">
<title>Node2</title>
<g id="a_Node000002"><a xlink:href="par__mpi_8c.html#a605623b5fff3d5970f2965e0d140b171" target="_top" xlink:title="Reads and assigns the gauges from file.">
<polygon fill="white" stroke="#666666" points="199.88,-56.25 139.62,-56.25 139.62,-37 199.88,-37 199.88,-56.25"/>
<text text-anchor="middle" x="169.75" y="-42.75" font-family="IBMPlexSans-Regular" font-size="10.00">Par_sread</text>
</a>
</g>
</g>
<!-- Node1&#45;&gt;Node2 -->
<g id="edge1_Node000001_Node000002" class="edge">
<title>Node1&#45;&gt;Node2</title>
<g id="a_edge1_Node000001_Node000002"><a xlink:title=" ">
<path fill="none" stroke="#63b8ff" d="M225.38,-36.5C216.77,-38.09 208.03,-39.71 200.15,-41.18"/>
<polygon fill="#63b8ff" stroke="#63b8ff" points="225.85,-39.97 235.05,-34.71 224.58,-33.09 225.85,-39.97"/>
</a>
</g>
</g>
<!-- Node5 -->
<g id="Node000005" class="node">
<title>Node5</title>
<g id="a_Node000005"><a xlink:href="par__mpi_8c.html#a1539b6a5eca3dfc3934cfb37d850ad9d" target="_top" xlink:title="Copies u11 and u12 into arrays without halos which then get written to output.">
<polygon fill="white" stroke="#666666" points="201,-19.25 138.5,-19.25 138.5,0 201,0 201,-19.25"/>
<text text-anchor="middle" x="169.75" y="-5.75" font-family="IBMPlexSans-Regular" font-size="10.00">Par_swrite</text>
</a>
</g>
</g>
<!-- Node1&#45;&gt;Node5 -->
<g id="edge4_Node000001_Node000005" class="edge">
<title>Node1&#45;&gt;Node5</title>
<g id="a_edge4_Node000001_Node000005"><a xlink:title=" ">
<path fill="none" stroke="#63b8ff" d="M225.25,-19.2C217.16,-17.78 208.96,-16.34 201.46,-15.02"/>
<polygon fill="#63b8ff" stroke="#63b8ff" points="224.59,-22.63 235.04,-20.92 225.8,-15.74 224.59,-22.63"/>
</a>
</g>
</g>
<!-- Node3 -->
<g id="Node000003" class="node">
<title>Node3</title>
<g id="a_Node000003"><a xlink:href="su2hmc_8c.html#a1fbc1cb0a07d63c39d8cff966a534d09" target="_top" xlink:title="Initialises the system.">
<polygon fill="white" stroke="#666666" points="102.5,-56.25 73,-56.25 73,-37 102.5,-37 102.5,-56.25"/>
<text text-anchor="middle" x="87.75" y="-42.75" font-family="IBMPlexSans-Regular" font-size="10.00">Init</text>
</a>
</g>
</g>
<!-- Node2&#45;&gt;Node3 -->
<g id="edge2_Node000002_Node000003" class="edge">
<title>Node2&#45;&gt;Node3</title>
<g id="a_edge2_Node000002_Node000003"><a xlink:title=" ">
<path fill="none" stroke="#63b8ff" d="M128.04,-46.62C118.97,-46.62 109.95,-46.62 102.84,-46.62"/>
<polygon fill="#63b8ff" stroke="#63b8ff" points="127.9,-50.13 137.9,-46.63 127.9,-43.13 127.9,-50.13"/>
</a>
</g>
</g>
<!-- Node4 -->
<g id="Node000004" class="node">
<title>Node4</title>
<g id="a_Node000004"><a xlink:href="main_8c.html#a0ddf1224851353fc92bfbff6f499fa97" target="_top" xlink:title=" ">
<polygon fill="white" stroke="#666666" points="37,-56.25 0,-56.25 0,-37 37,-37 37,-56.25"/>
<text text-anchor="middle" x="18.5" y="-42.75" font-family="IBMPlexSans-Regular" font-size="10.00">main</text>
</a>
</g>
</g>
<!-- Node3&#45;&gt;Node4 -->
<g id="edge3_Node000003_Node000004" class="edge">
<title>Node3&#45;&gt;Node4</title>
<g id="a_edge3_Node000003_Node000004"><a xlink:title=" ">
<path fill="none" stroke="#63b8ff" d="M61.39,-46.62C53.35,-46.62 44.64,-46.62 37.26,-46.62"/>
<polygon fill="#63b8ff" stroke="#63b8ff" points="61.3,-50.13 71.3,-46.63 61.3,-43.13 61.3,-50.13"/>
</a>
</g>
</g>
</g>
</svg>
