<?xml version="1.0" encoding="UTF-8" standalone="no"?>
<!DOCTYPE svg PUBLIC "-//W3C//DTD SVG 1.1//EN"
 "http://www.w3.org/Graphics/SVG/1.1/DTD/svg11.dtd">
<!-- Generated by graphviz version 12.2.1 (20241206.2353)
 -->
<!-- Title: INCLUDE/errorcodes.h Pages: 1 -->
<svg width="948pt" height="359pt"
 viewBox="0.00 0.00 948.12 358.75" xmlns="http://www.w3.org/2000/svg" xmlns:xlink="http://www.w3.org/1999/xlink">
<g id="graph0" class="graph" transform="scale(1 1) rotate(0) translate(4 354.75)">
<title>INCLUDE/errorcodes.h</title>
<!-- Node1 -->
<g id="Node000001" class="node">
<title>Node1</title>
<g id="a_Node000001"><a xlink:title="This header is intended to be a useful reference for error codes and their meanings.">
<polygon fill="#999999" stroke="#666666" points="778.88,-350.75 663.12,-350.75 663.12,-331.5 778.88,-331.5 778.88,-350.75"/>
<text text-anchor="middle" x="721" y="-337.25" font-family="IBMPlexSans-Regular" font-size="10.00">INCLUDE/errorcodes.h</text>
</a>
</g>
</g>
<!-- Node2 -->
<g id="Node000002" class="node">
<title>Node2</title>
<g id="a_Node000002"><a xlink:href="par__mpi_8h.html" target="_top" xlink:title="MPI headers.">
<polygon fill="white" stroke="#666666" points="692.25,-295.5 587.75,-295.5 587.75,-276.25 692.25,-276.25 692.25,-295.5"/>
<text text-anchor="middle" x="640" y="-282" font-family="IBMPlexSans-Regular" font-size="10.00">INCLUDE/par_mpi.h</text>
</a>
</g>
</g>
<!-- Node1&#45;&gt;Node2 -->
<g id="edge1_Node000001_Node000002" class="edge">
<title>Node1&#45;&gt;Node2</title>
<g id="a_edge1_Node000001_Node000002"><a xlink:title=" ">
<path fill="none" stroke="#63b8ff" d="M697.66,-324.78C683.46,-315.45 665.81,-303.85 653.81,-295.95"/>
<polygon fill="#63b8ff" stroke="#63b8ff" points="695.72,-327.69 705.99,-330.26 699.56,-321.84 695.72,-327.69"/>
</a>
</g>
</g>
<!-- Node12 -->
<g id="Node000012" class="node">
<title>Node12</title>
<g id="a_Node000012"><a xlink:href="su2hmc_8h.html" target="_top" xlink:title="Function declarations for most of the routines.">
<polygon fill="white" stroke="#666666" points="438.25,-129.75 333.75,-129.75 333.75,-110.5 438.25,-110.5 438.25,-129.75"/>
<text text-anchor="middle" x="386" y="-116.25" font-family="IBMPlexSans-Regular" font-size="10.00">INCLUDE/su2hmc.h</text>
</a>
</g>
</g>
<!-- Node1&#45;&gt;Node12 -->
<g id="edge30_Node000001_Node000012" class="edge">
<title>Node1&#45;&gt;Node12</title>
<g id="a_edge30_Node000001_Node000012"><a xlink:title=" ">
<path fill="none" stroke="#63b8ff" d="M651.41,-336.13C558.29,-326.57 396.6,-294.22 325,-185 310.54,-162.94 343.05,-141.69 365.94,-130.12"/>
<polygon fill="#63b8ff" stroke="#63b8ff" points="650.9,-339.6 661.18,-337.07 651.56,-332.63 650.9,-339.6"/>
</a>
</g>
</g>
<!-- Node16 -->
<g id="Node000016" class="node">
<title>Node16</title>
<g id="a_Node000016"><a xlink:href="random_8c.html" target="_top" xlink:title="Random number generator related routines.">
<polygon fill="white" stroke="#666666" points="940.12,-185 825.88,-185 825.88,-165.75 940.12,-165.75 940.12,-185"/>
<text text-anchor="middle" x="883" y="-171.5" font-family="IBMPlexSans-Regular" font-size="10.00">production_c/random.c</text>
</a>
</g>
</g>
<!-- Node1&#45;&gt;Node16 -->
<g id="edge32_Node000001_Node000016" class="edge">
<title>Node1&#45;&gt;Node16</title>
<g id="a_edge32_Node000001_Node000016"><a xlink:title=" ">
<path fill="none" stroke="#63b8ff" d="M752.16,-326.16C784.72,-310.01 835.02,-280.4 864,-240.25 876.19,-223.36 880.63,-198.64 882.19,-185.46"/>
<polygon fill="#63b8ff" stroke="#63b8ff" points="750.71,-322.97 743.22,-330.46 753.75,-329.28 750.71,-322.97"/>
</a>
</g>
</g>
<!-- Node17 -->
<g id="Node000017" class="node">
<title>Node17</title>
<g id="a_Node000017"><a xlink:href="coord_8c.html" target="_top" xlink:title="functions for dealing with lattice and MPI coordinates">
<polygon fill="white" stroke="#666666" points="855,-240.25 749,-240.25 749,-221 855,-221 855,-240.25"/>
<text text-anchor="middle" x="802" y="-226.75" font-family="IBMPlexSans-Regular" font-size="10.00">production_c/coord.c</text>
</a>
</g>
</g>
<!-- Node1&#45;&gt;Node17 -->
<g id="edge31_Node000001_Node000017" class="edge">
<title>Node1&#45;&gt;Node17</title>
<g id="a_edge31_Node000001_Node000017"><a xlink:title=" ">
<path fill="none" stroke="#63b8ff" d="M734.5,-322.04C752.04,-298.55 781.97,-258.45 795.28,-240.63"/>
<polygon fill="#63b8ff" stroke="#63b8ff" points="731.71,-319.93 728.53,-330.03 737.32,-324.11 731.71,-319.93"/>
</a>
</g>
</g>
<!-- Node3 -->
<g id="Node000003" class="node">
<title>Node3</title>
<g id="a_Node000003"><a xlink:href="matrices_8h.html" target="_top" xlink:title="Matrix multiplication and related declarations.">
<polygon fill="white" stroke="#666666" points="693.75,-74.5 586.25,-74.5 586.25,-55.25 693.75,-55.25 693.75,-74.5"/>
<text text-anchor="middle" x="640" y="-61" font-family="IBMPlexSans-Regular" font-size="10.00">INCLUDE/matrices.h</text>
</a>
</g>
</g>
<!-- Node2&#45;&gt;Node3 -->
<g id="edge2_Node000002_Node000003" class="edge">
<title>Node2&#45;&gt;Node3</title>
<g id="a_edge2_Node000002_Node000003"><a xlink:title=" ">
<path fill="none" stroke="#63b8ff" d="M640,-264.61C640,-218.38 640,-106.65 640,-74.6"/>
<polygon fill="#63b8ff" stroke="#63b8ff" points="636.5,-264.51 640,-274.51 643.5,-264.51 636.5,-264.51"/>
</a>
</g>
</g>
<!-- Node4 -->
<g id="Node000004" class="node">
<title>Node4</title>
<g id="a_Node000004"><a xlink:href="main_8c.html" target="_top" xlink:title="Hybrid Monte Carlo algorithm for Two Colour QCD with Wilson&#45;Gor&#39;kov fermions based on the algorithm o...">
<polygon fill="white" stroke="#666666" points="858.25,-19.25 813.75,-19.25 813.75,0 858.25,0 858.25,-19.25"/>
<text text-anchor="middle" x="836" y="-5.75" font-family="IBMPlexSans-Regular" font-size="10.00">main.c</text>
</a>
</g>
</g>
<!-- Node2&#45;&gt;Node4 -->
<g id="edge24_Node000002_Node000004" class="edge">
<title>Node2&#45;&gt;Node4</title>
<g id="a_edge24_Node000002_Node000004"><a xlink:title=" ">
<path fill="none" stroke="#63b8ff" d="M653.18,-266.43C691.51,-212.8 801.97,-58.24 829.65,-19.51"/>
<polygon fill="#63b8ff" stroke="#63b8ff" points="650.37,-264.35 647.4,-274.52 656.06,-268.42 650.37,-264.35"/>
</a>
</g>
</g>
<!-- Node9 -->
<g id="Node000009" class="node">
<title>Node9</title>
<g id="a_Node000009"><a xlink:href="su2hmc_8c.html" target="_top" xlink:title="An ecclectic collection of functions used in the HMC.">
<polygon fill="white" stroke="#666666" points="198.25,-19.25 81.75,-19.25 81.75,0 198.25,0 198.25,-19.25"/>
<text text-anchor="middle" x="140" y="-5.75" font-family="IBMPlexSans-Regular" font-size="10.00">production_c/su2hmc.c</text>
</a>
</g>
</g>
<!-- Node2&#45;&gt;Node9 -->
<g id="edge29_Node000002_Node000009" class="edge">
<title>Node2&#45;&gt;Node9</title>
<g id="a_edge29_Node000002_Node000009"><a xlink:title=" ">
<path fill="none" stroke="#63b8ff" d="M576.14,-280.71C414.14,-269.28 0,-234.39 0,-176.38 0,-176.38 0,-176.38 0,-119.12 0,-64.7 66.93,-33.67 108.23,-19.7"/>
<polygon fill="#63b8ff" stroke="#63b8ff" points="575.63,-284.18 585.84,-281.38 576.11,-277.2 575.63,-284.18"/>
</a>
</g>
</g>
<!-- Node10 -->
<g id="Node000010" class="node">
<title>Node10</title>
<g id="a_Node000010"><a xlink:href="random_8h.html" target="_top" xlink:title="Header for random number configuration.">
<polygon fill="white" stroke="#666666" points="609.12,-240.25 506.88,-240.25 506.88,-221 609.12,-221 609.12,-240.25"/>
<text text-anchor="middle" x="558" y="-226.75" font-family="IBMPlexSans-Regular" font-size="10.00">INCLUDE/random.h</text>
</a>
</g>
</g>
<!-- Node2&#45;&gt;Node10 -->
<g id="edge9_Node000002_Node000010" class="edge">
<title>Node2&#45;&gt;Node10</title>
<g id="a_edge9_Node000002_Node000010"><a xlink:title=" ">
<path fill="none" stroke="#63b8ff" d="M616.79,-269.8C602.35,-260.42 584.25,-248.67 571.98,-240.7"/>
<polygon fill="#63b8ff" stroke="#63b8ff" points="614.53,-272.51 624.82,-275.02 618.34,-266.64 614.53,-272.51"/>
</a>
</g>
</g>
<!-- Node13 -->
<g id="Node000013" class="node">
<title>Node13</title>
<g id="a_Node000013"><a xlink:href="bosonic_8c.html" target="_top" xlink:title="Code for bosonic observables, Basically polyakov loop and Plaquette routines.">
<polygon fill="white" stroke="#666666" points="181.88,-74.5 66.12,-74.5 66.12,-55.25 181.88,-55.25 181.88,-74.5"/>
<text text-anchor="middle" x="124" y="-61" font-family="IBMPlexSans-Regular" font-size="10.00">production_c/bosonic.c</text>
</a>
</g>
</g>
<!-- Node2&#45;&gt;Node13 -->
<g id="edge25_Node000002_Node000013" class="edge">
<title>Node2&#45;&gt;Node13</title>
<g id="a_edge25_Node000002_Node000013"><a xlink:title=" ">
<path fill="none" stroke="#63b8ff" d="M594.89,-272.95C563.17,-264.36 519.8,-252.23 482,-240.25 411.48,-217.91 392.03,-216.29 325,-185 250.75,-150.34 168.53,-96.21 137.15,-74.91"/>
<polygon fill="#63b8ff" stroke="#63b8ff" points="593.58,-276.22 604.14,-275.44 595.4,-269.46 593.58,-276.22"/>
</a>
</g>
</g>
<!-- Node15 -->
<g id="Node000015" class="node">
<title>Node15</title>
<g id="a_Node000015"><a xlink:href="par__mpi_8c.html" target="_top" xlink:title="MPI routines.">
<polygon fill="white" stroke="#666666" points="530.25,-74.5 413.75,-74.5 413.75,-55.25 530.25,-55.25 530.25,-74.5"/>
<text text-anchor="middle" x="472" y="-61" font-family="IBMPlexSans-Regular" font-size="10.00">production_c/par_mpi.c</text>
</a>
</g>
</g>
<!-- Node2&#45;&gt;Node15 -->
<g id="edge27_Node000002_Node000015" class="edge">
<title>Node2&#45;&gt;Node15</title>
<g id="a_edge27_Node000002_Node000015"><a xlink:title=" ">
<path fill="none" stroke="#63b8ff" d="M576.58,-279.89C548.5,-274.35 517.49,-263.06 498,-240.25 455.64,-190.69 465.77,-102.88 470.37,-74.79"/>
<polygon fill="#63b8ff" stroke="#63b8ff" points="575.63,-283.28 586.08,-281.55 576.83,-276.38 575.63,-283.28"/>
</a>
</g>
</g>
<!-- Node2&#45;&gt;Node16 -->
<g id="edge28_Node000002_Node000016" class="edge">
<title>Node2&#45;&gt;Node16</title>
<g id="a_edge28_Node000002_Node000016"><a xlink:title=" ">
<path fill="none" stroke="#63b8ff" d="M660.9,-269.18C680.5,-255.04 711.05,-234.47 740,-221 773.96,-205.2 814.96,-193.06 844.33,-185.45"/>
<polygon fill="#63b8ff" stroke="#63b8ff" points="658.93,-266.28 652.94,-275.02 663.07,-271.93 658.93,-266.28"/>
</a>
</g>
</g>
<!-- Node2&#45;&gt;Node17 -->
<g id="edge26_Node000002_Node000017" class="edge">
<title>Node2&#45;&gt;Node17</title>
<g id="a_edge26_Node000002_Node000017"><a xlink:title=" ">
<path fill="none" stroke="#63b8ff" d="M678.23,-272.31C707.76,-262.6 747.92,-249.4 774.38,-240.7"/>
<polygon fill="#63b8ff" stroke="#63b8ff" points="677.33,-268.92 668.92,-275.37 679.51,-275.57 677.33,-268.92"/>
</a>
</g>
</g>
<!-- Node3&#45;&gt;Node4 -->
<g id="edge3_Node000003_Node000004" class="edge">
<title>Node3&#45;&gt;Node4</title>
<g id="a_edge3_Node000003_Node000004"><a xlink:title=" ">
<path fill="none" stroke="#63b8ff" d="M684.32,-51.83C724.43,-40.94 781.88,-25.33 813.31,-16.79"/>
<polygon fill="#63b8ff" stroke="#63b8ff" points="683.44,-48.45 674.71,-54.45 685.28,-55.2 683.44,-48.45"/>
</a>
</g>
</g>
<!-- Node5 -->
<g id="Node000005" class="node">
<title>Node5</title>
<g id="a_Node000005"><a xlink:href="congrad_8c.html" target="_top" xlink:title="Conjugate gradients. Congradq for the solver and Congradp for the inversion.">
<polygon fill="white" stroke="#666666" points="795.25,-19.25 678.75,-19.25 678.75,0 795.25,0 795.25,-19.25"/>
<text text-anchor="middle" x="737" y="-5.75" font-family="IBMPlexSans-Regular" font-size="10.00">production_c/congrad.c</text>
</a>
</g>
</g>
<!-- Node3&#45;&gt;Node5 -->
<g id="edge4_Node000003_Node000005" class="edge">
<title>Node3&#45;&gt;Node5</title>
<g id="a_edge4_Node000003_Node000005"><a xlink:title=" ">
<path fill="none" stroke="#63b8ff" d="M666.47,-49.34C683.71,-39.88 705.67,-27.83 720.46,-19.7"/>
<polygon fill="#63b8ff" stroke="#63b8ff" points="664.86,-46.23 657.78,-54.11 668.23,-52.37 664.86,-46.23"/>
</a>
</g>
</g>
<!-- Node6 -->
<g id="Node000006" class="node">
<title>Node6</title>
<g id="a_Node000006"><a xlink:href="fermionic_8c.html" target="_top" xlink:title="Code for fermionic observables.">
<polygon fill="white" stroke="#666666" points="400.88,-19.25 279.12,-19.25 279.12,0 400.88,0 400.88,-19.25"/>
<text text-anchor="middle" x="340" y="-5.75" font-family="IBMPlexSans-Regular" font-size="10.00">production_c/fermionic.c</text>
</a>
</g>
</g>
<!-- Node3&#45;&gt;Node6 -->
<g id="edge5_Node000003_Node000006" class="edge">
<title>Node3&#45;&gt;Node6</title>
<g id="a_edge5_Node000003_Node000006"><a xlink:title=" ">
<path fill="none" stroke="#63b8ff" d="M577.72,-52.82C522.52,-43.02 442.87,-28.88 391.27,-19.73"/>
<polygon fill="#63b8ff" stroke="#63b8ff" points="576.82,-56.22 587.28,-54.52 578.04,-49.32 576.82,-56.22"/>
</a>
</g>
</g>
<!-- Node7 -->
<g id="Node000007" class="node">
<title>Node7</title>
<g id="a_Node000007"><a xlink:href="force_8c.html" target="_top" xlink:title="Code for force calculations.">
<polygon fill="white" stroke="#666666" points="522.88,-19.25 419.12,-19.25 419.12,0 522.88,0 522.88,-19.25"/>
<text text-anchor="middle" x="471" y="-5.75" font-family="IBMPlexSans-Regular" font-size="10.00">production_c/force.c</text>
</a>
</g>
</g>
<!-- Node3&#45;&gt;Node7 -->
<g id="edge6_Node000003_Node000007" class="edge">
<title>Node3&#45;&gt;Node7</title>
<g id="a_edge6_Node000003_Node000007"><a xlink:title=" ">
<path fill="none" stroke="#63b8ff" d="M600.53,-51.44C569.68,-41.72 527.54,-28.44 499.81,-19.7"/>
<polygon fill="#63b8ff" stroke="#63b8ff" points="599.3,-54.72 609.89,-54.39 601.4,-48.04 599.3,-54.72"/>
</a>
</g>
</g>
<!-- Node8 -->
<g id="Node000008" class="node">
<title>Node8</title>
<g id="a_Node000008"><a xlink:href="matrices_8c.html" target="_top" xlink:title="Matrix multiplication and related routines.">
<polygon fill="white" stroke="#666666" points="660.75,-19.25 541.25,-19.25 541.25,0 660.75,0 660.75,-19.25"/>
<text text-anchor="middle" x="601" y="-5.75" font-family="IBMPlexSans-Regular" font-size="10.00">production_c/matrices.c</text>
</a>
</g>
</g>
<!-- Node3&#45;&gt;Node8 -->
<g id="edge7_Node000003_Node000008" class="edge">
<title>Node3&#45;&gt;Node8</title>
<g id="a_edge7_Node000003_Node000008"><a xlink:title=" ">
<path fill="none" stroke="#63b8ff" d="M626.86,-45.94C620.38,-37.09 612.84,-26.79 607.58,-19.61"/>
<polygon fill="#63b8ff" stroke="#63b8ff" points="623.93,-47.86 632.67,-53.86 629.58,-43.73 623.93,-47.86"/>
</a>
</g>
</g>
<!-- Node3&#45;&gt;Node9 -->
<g id="edge8_Node000003_Node000009" class="edge">
<title>Node3&#45;&gt;Node9</title>
<g id="a_edge8_Node000003_Node000009"><a xlink:title=" ">
<path fill="none" stroke="#63b8ff" d="M574.77,-56.93C476.59,-46.47 292.36,-26.85 198.37,-16.84"/>
<polygon fill="#63b8ff" stroke="#63b8ff" points="574.2,-60.39 584.51,-57.97 574.94,-53.43 574.2,-60.39"/>
</a>
</g>
</g>
<!-- Node10&#45;&gt;Node4 -->
<g id="edge19_Node000010_Node000004" class="edge">
<title>Node10&#45;&gt;Node4</title>
<g id="a_edge19_Node000010_Node000004"><a xlink:title=" ">
<path fill="none" stroke="#63b8ff" d="M577.97,-213.89C632.4,-171.01 782.12,-53.07 824.62,-19.59"/>
<polygon fill="#63b8ff" stroke="#63b8ff" points="576.12,-210.89 570.43,-219.83 580.45,-216.39 576.12,-210.89"/>
</a>
</g>
</g>
<!-- Node10&#45;&gt;Node6 -->
<g id="edge20_Node000010_Node000006" class="edge">
<title>Node10&#45;&gt;Node6</title>
<g id="a_edge20_Node000010_Node000006"><a xlink:title=" ">
<path fill="none" stroke="#63b8ff" d="M562.49,-209.74C569.3,-173.97 577.67,-98.51 539,-55.25 529.37,-44.48 451.1,-29.3 395.64,-19.71"/>
<polygon fill="#63b8ff" stroke="#63b8ff" points="559.15,-208.63 560.54,-219.13 566,-210.05 559.15,-208.63"/>
</a>
</g>
</g>
<!-- Node10&#45;&gt;Node9 -->
<g id="edge23_Node000010_Node000009" class="edge">
<title>Node10&#45;&gt;Node9</title>
<g id="a_edge23_Node000010_Node000009"><a xlink:title=" ">
<path fill="none" stroke="#63b8ff" d="M495.39,-220.09C372.31,-199.88 106.48,-148.43 57,-74.5 40.36,-49.64 79.38,-30.36 109.39,-19.75"/>
<polygon fill="#63b8ff" stroke="#63b8ff" points="494.56,-223.5 504.99,-221.65 495.68,-216.59 494.56,-223.5"/>
</a>
</g>
</g>
<!-- Node11 -->
<g id="Node000011" class="node">
<title>Node11</title>
<g id="a_Node000011"><a xlink:href="integrate_8h.html" target="_top" xlink:title="Integrators for the HMC.">
<polygon fill="white" stroke="#666666" points="441.75,-185 334.25,-185 334.25,-165.75 441.75,-165.75 441.75,-185"/>
<text text-anchor="middle" x="388" y="-171.5" font-family="IBMPlexSans-Regular" font-size="10.00">INCLUDE/integrate.h</text>
</a>
</g>
</g>
<!-- Node10&#45;&gt;Node11 -->
<g id="edge10_Node000010_Node000011" class="edge">
<title>Node10&#45;&gt;Node11</title>
<g id="a_edge10_Node000010_Node000011"><a xlink:title=" ">
<path fill="none" stroke="#63b8ff" d="M518.29,-217.19C487.27,-207.47 444.87,-194.19 416.98,-185.45"/>
<polygon fill="#63b8ff" stroke="#63b8ff" points="517.13,-220.49 527.72,-220.14 519.22,-213.81 517.13,-220.49"/>
</a>
</g>
</g>
<!-- Node10&#45;&gt;Node15 -->
<g id="edge21_Node000010_Node000015" class="edge">
<title>Node10&#45;&gt;Node15</title>
<g id="a_edge21_Node000010_Node000015"><a xlink:title=" ">
<path fill="none" stroke="#63b8ff" d="M548.15,-210.87C529.6,-175.55 490.15,-100.43 476.65,-74.72"/>
<polygon fill="#63b8ff" stroke="#63b8ff" points="544.92,-212.26 552.67,-219.48 551.12,-209 544.92,-212.26"/>
</a>
</g>
</g>
<!-- Node10&#45;&gt;Node16 -->
<g id="edge22_Node000010_Node000016" class="edge">
<title>Node10&#45;&gt;Node16</title>
<g id="a_edge22_Node000010_Node000016"><a xlink:title=" ">
<path fill="none" stroke="#63b8ff" d="M620.69,-219.35C680.58,-209.54 769.98,-194.89 827.39,-185.49"/>
<polygon fill="#63b8ff" stroke="#63b8ff" points="620.29,-215.87 610.99,-220.94 621.43,-222.78 620.29,-215.87"/>
</a>
</g>
</g>
<!-- Node11&#45;&gt;Node12 -->
<g id="edge11_Node000011_Node000012" class="edge">
<title>Node11&#45;&gt;Node12</title>
<g id="a_edge11_Node000011_Node000012"><a xlink:title=" ">
<path fill="none" stroke="#63b8ff" d="M387.24,-154.13C386.93,-145.84 386.58,-136.67 386.34,-130.11"/>
<polygon fill="#63b8ff" stroke="#63b8ff" points="383.74,-154.21 387.61,-164.07 390.74,-153.95 383.74,-154.21"/>
</a>
</g>
</g>
<!-- Node12&#45;&gt;Node3 -->
<g id="edge12_Node000012_Node000003" class="edge">
<title>Node12&#45;&gt;Node3</title>
<g id="a_edge12_Node000012_Node000003"><a xlink:title=" ">
<path fill="none" stroke="#63b8ff" d="M440.51,-107.7C487.25,-97.9 553.67,-83.97 596.8,-74.93"/>
<polygon fill="#63b8ff" stroke="#63b8ff" points="439.93,-104.24 430.86,-109.72 441.36,-111.09 439.93,-104.24"/>
</a>
</g>
</g>
<!-- Node12&#45;&gt;Node4 -->
<g id="edge13_Node000012_Node000004" class="edge">
<title>Node12&#45;&gt;Node4</title>
<g id="a_edge13_Node000012_Node000004"><a xlink:title=" ">
<path fill="none" stroke="#63b8ff" d="M449.94,-115.9C514.86,-111.3 617.69,-100.31 703,-74.5 714.83,-70.92 784.42,-36.43 817.95,-19.68"/>
<polygon fill="#63b8ff" stroke="#63b8ff" points="449.92,-112.39 440.18,-116.56 450.39,-119.38 449.92,-112.39"/>
</a>
</g>
</g>
<!-- Node12&#45;&gt;Node6 -->
<g id="edge15_Node000012_Node000006" class="edge">
<title>Node12&#45;&gt;Node6</title>
<g id="a_edge15_Node000012_Node000006"><a xlink:title=" ">
<path fill="none" stroke="#63b8ff" d="M381.51,-99.35C378.25,-86.49 373.32,-69.52 367,-55.25 361.21,-42.17 352.28,-28.23 346.3,-19.49"/>
<polygon fill="#63b8ff" stroke="#63b8ff" points="378.02,-99.81 383.75,-108.72 384.83,-98.18 378.02,-99.81"/>
</a>
</g>
</g>
<!-- Node12&#45;&gt;Node9 -->
<g id="edge18_Node000012_Node000009" class="edge">
<title>Node12&#45;&gt;Node9</title>
<g id="a_edge18_Node000012_Node000009"><a xlink:title=" ">
<path fill="none" stroke="#63b8ff" d="M327.25,-107.52C296.99,-100.29 260.02,-89.48 229,-74.5 197.66,-59.37 165.64,-33.23 149.94,-19.55"/>
<polygon fill="#63b8ff" stroke="#63b8ff" points="326.07,-110.84 336.6,-109.68 327.65,-104.02 326.07,-110.84"/>
</a>
</g>
</g>
<!-- Node12&#45;&gt;Node13 -->
<g id="edge14_Node000012_Node000013" class="edge">
<title>Node12&#45;&gt;Node13</title>
<g id="a_edge14_Node000012_Node000013"><a xlink:title=" ">
<path fill="none" stroke="#63b8ff" d="M330.08,-107.76C281.86,-97.96 213.14,-83.99 168.56,-74.93"/>
<polygon fill="#63b8ff" stroke="#63b8ff" points="329.28,-111.17 339.78,-109.73 330.67,-104.31 329.28,-111.17"/>
</a>
</g>
</g>
<!-- Node14 -->
<g id="Node000014" class="node">
<title>Node14</title>
<g id="a_Node000014"><a xlink:href="integrate_8c.html" target="_top" xlink:title="Symplectic integrator code.">
<polygon fill="white" stroke="#666666" points="357.75,-74.5 238.25,-74.5 238.25,-55.25 357.75,-55.25 357.75,-74.5"/>
<text text-anchor="middle" x="298" y="-61" font-family="IBMPlexSans-Regular" font-size="10.00">production_c/integrate.c</text>
</a>
</g>
</g>
<!-- Node12&#45;&gt;Node14 -->
<g id="edge16_Node000012_Node000014" class="edge">
<title>Node12&#45;&gt;Node14</title>
<g id="a_edge16_Node000012_Node000014"><a xlink:title=" ">
<path fill="none" stroke="#63b8ff" d="M361.54,-104.32C345.97,-94.9 326.3,-83 313,-74.95"/>
<polygon fill="#63b8ff" stroke="#63b8ff" points="359.41,-107.13 369.78,-109.31 363.03,-101.14 359.41,-107.13"/>
</a>
</g>
</g>
<!-- Node12&#45;&gt;Node15 -->
<g id="edge17_Node000012_Node000015" class="edge">
<title>Node12&#45;&gt;Node15</title>
<g id="a_edge17_Node000012_Node000015"><a xlink:title=" ">
<path fill="none" stroke="#63b8ff" d="M410.34,-104.05C425.49,-94.67 444.47,-82.92 457.34,-74.95"/>
<polygon fill="#63b8ff" stroke="#63b8ff" points="408.54,-101.05 401.88,-109.3 412.22,-107.01 408.54,-101.05"/>
</a>
</g>
</g>
</g>
</svg>
