<?xml version="1.0" encoding="UTF-8" standalone="no"?>
<!DOCTYPE svg PUBLIC "-//W3C//DTD SVG 1.1//EN"
 "http://www.w3.org/Graphics/SVG/1.1/DTD/svg11.dtd">
<!-- Generated by graphviz version 12.2.1 (20241206.2353)
 -->
<!-- Title: production_c/fermionic.c Pages: 1 -->
<svg width="568pt" height="469pt"
 viewBox="0.00 0.00 568.12 469.25" xmlns="http://www.w3.org/2000/svg" xmlns:xlink="http://www.w3.org/1999/xlink">
<g id="graph0" class="graph" transform="scale(1 1) rotate(0) translate(4 465.25)">
<title>production_c/fermionic.c</title>
<!-- Node1 -->
<g id="Node000001" class="node">
<title>Node1</title>
<g id="a_Node000001"><a xlink:title="Code for fermionic observables.">
<polygon fill="#999999" stroke="#666666" points="351.75,-461.25 230,-461.25 230,-442 351.75,-442 351.75,-461.25"/>
<text text-anchor="middle" x="290.88" y="-447.75" font-family="IBMPlexSans-Regular" font-size="10.00">production_c/fermionic.c</text>
</a>
</g>
</g>
<!-- Node2 -->
<g id="Node000002" class="node">
<title>Node2</title>
<g id="a_Node000002"><a xlink:href="matrices_8h.html" target="_top" xlink:title="Matrix multiplication and related declarations.">
<polygon fill="white" stroke="#666666" points="380.38,-406 319.38,-406 319.38,-386.75 380.38,-386.75 380.38,-406"/>
<text text-anchor="middle" x="349.88" y="-392.5" font-family="IBMPlexSans-Regular" font-size="10.00">matrices.h</text>
</a>
</g>
</g>
<!-- Node1&#45;&gt;Node2 -->
<g id="edge1_Node000001_Node000002" class="edge">
<title>Node1&#45;&gt;Node2</title>
<g id="a_edge1_Node000001_Node000002"><a xlink:title=" ">
<path fill="none" stroke="#63b8ff" d="M300.88,-441.59C309.24,-434.05 321.37,-423.1 331.48,-413.98"/>
<polygon fill="#63b8ff" stroke="#63b8ff" points="333.81,-416.59 338.89,-407.29 329.12,-411.39 333.81,-416.59"/>
</a>
</g>
</g>
<!-- Node13 -->
<g id="Node000013" class="node">
<title>Node13</title>
<g id="a_Node000013"><a xlink:href="su2hmc_8h.html" target="_top" xlink:title="Function declarations for most of the routines.">
<polygon fill="white" stroke="#666666" points="349.88,-350.75 291.88,-350.75 291.88,-331.5 349.88,-331.5 349.88,-350.75"/>
<text text-anchor="middle" x="320.88" y="-337.25" font-family="IBMPlexSans-Regular" font-size="10.00">su2hmc.h</text>
</a>
</g>
</g>
<!-- Node1&#45;&gt;Node13 -->
<g id="edge27_Node000001_Node000013" class="edge">
<title>Node1&#45;&gt;Node13</title>
<g id="a_edge27_Node000001_Node000013"><a xlink:title=" ">
<path fill="none" stroke="#63b8ff" d="M293.33,-441.75C298.12,-424.42 308.82,-385.73 315.38,-361.99"/>
<polygon fill="#63b8ff" stroke="#63b8ff" points="318.69,-363.16 317.98,-352.59 311.94,-361.29 318.69,-363.16"/>
</a>
</g>
</g>
<!-- Node15 -->
<g id="Node000015" class="node">
<title>Node15</title>
<g id="a_Node000015"><a xlink:href="random_8h.html" target="_top" xlink:title="Header for random number configuration.">
<polygon fill="white" stroke="#666666" points="55.75,-240.25 0,-240.25 0,-221 55.75,-221 55.75,-240.25"/>
<text text-anchor="middle" x="27.88" y="-226.75" font-family="IBMPlexSans-Regular" font-size="10.00">random.h</text>
</a>
</g>
</g>
<!-- Node1&#45;&gt;Node15 -->
<g id="edge26_Node000001_Node000015" class="edge">
<title>Node1&#45;&gt;Node15</title>
<g id="a_edge26_Node000001_Node000015"><a xlink:title=" ">
<path fill="none" stroke="#63b8ff" d="M265.58,-441.56C215.99,-422.48 105.71,-373.41 46.88,-295.5 37.26,-282.77 32.49,-265.21 30.14,-251.73"/>
<polygon fill="#63b8ff" stroke="#63b8ff" points="33.6,-251.26 28.75,-241.84 26.67,-252.23 33.6,-251.26"/>
</a>
</g>
</g>
<!-- Node3 -->
<g id="Node000003" class="node">
<title>Node3</title>
<g id="a_Node000003"><a xlink:href="par__mpi_8h.html" target="_top" xlink:title="MPI headers.">
<polygon fill="white" stroke="#666666" points="350.88,-185 292.88,-185 292.88,-165.75 350.88,-165.75 350.88,-185"/>
<text text-anchor="middle" x="321.88" y="-171.5" font-family="IBMPlexSans-Regular" font-size="10.00">par_mpi.h</text>
</a>
</g>
</g>
<!-- Node2&#45;&gt;Node3 -->
<g id="edge2_Node000002_Node000003" class="edge">
<title>Node2&#45;&gt;Node3</title>
<g id="a_edge2_Node000002_Node000003"><a xlink:title=" ">
<path fill="none" stroke="#63b8ff" d="M352.64,-386.3C356.06,-373.93 361.18,-351.08 358.88,-331.5 353.05,-281.94 337.08,-225.26 328.15,-196.06"/>
<polygon fill="#63b8ff" stroke="#63b8ff" points="331.57,-195.28 325.25,-186.78 324.89,-197.37 331.57,-195.28"/>
</a>
</g>
</g>
<!-- Node2&#45;&gt;Node13 -->
<g id="edge13_Node000002_Node000013" class="edge">
<title>Node2&#45;&gt;Node13</title>
<g id="a_edge13_Node000002_Node000013"><a xlink:title=" ">
<path fill="none" stroke="#63b8ff" d="M345.09,-386.58C341.33,-379.69 335.97,-369.84 331.24,-361.16"/>
<polygon fill="#63b8ff" stroke="#63b8ff" points="334.35,-359.55 326.49,-352.44 328.2,-362.89 334.35,-359.55"/>
</a>
</g>
</g>
<!-- Node4 -->
<g id="Node000004" class="node">
<title>Node4</title>
<g id="a_Node000004"><a xlink:href="coord_8h.html" target="_top" xlink:title="Header for routines related to lattice sites.">
<polygon fill="white" stroke="#666666" points="279.62,-129.75 232.12,-129.75 232.12,-110.5 279.62,-110.5 279.62,-129.75"/>
<text text-anchor="middle" x="255.88" y="-116.25" font-family="IBMPlexSans-Regular" font-size="10.00">coord.h</text>
</a>
</g>
</g>
<!-- Node3&#45;&gt;Node4 -->
<g id="edge3_Node000003_Node000004" class="edge">
<title>Node3&#45;&gt;Node4</title>
<g id="a_edge3_Node000003_Node000004"><a xlink:title=" ">
<path fill="none" stroke="#63b8ff" d="M310.68,-165.34C301.14,-157.65 287.2,-146.4 275.77,-137.18"/>
<polygon fill="#63b8ff" stroke="#63b8ff" points="278.06,-134.53 268.08,-130.98 273.67,-139.98 278.06,-134.53"/>
</a>
</g>
</g>
<!-- Node6 -->
<g id="Node000006" class="node">
<title>Node6</title>
<g id="a_Node000006"><a xlink:href="sizes_8h.html" target="_top" xlink:title="Defines the constants of the code and other parameters for loop dimensions. Each subroutine includes ...">
<polygon fill="white" stroke="#666666" points="278.88,-74.5 232.88,-74.5 232.88,-55.25 278.88,-55.25 278.88,-74.5"/>
<text text-anchor="middle" x="255.88" y="-61" font-family="IBMPlexSans-Regular" font-size="10.00">sizes.h</text>
</a>
</g>
</g>
<!-- Node3&#45;&gt;Node6 -->
<g id="edge8_Node000003_Node000006" class="edge">
<title>Node3&#45;&gt;Node6</title>
<g id="a_edge8_Node000003_Node000006"><a xlink:title=" ">
<path fill="none" stroke="#63b8ff" d="M332.56,-165.4C346.27,-152.75 366.93,-129.16 354.88,-110.5 340.67,-88.52 312.77,-77.26 290.19,-71.55"/>
<polygon fill="#63b8ff" stroke="#63b8ff" points="290.97,-68.14 280.45,-69.37 289.45,-74.97 290.97,-68.14"/>
</a>
</g>
</g>
<!-- Node8 -->
<g id="Node000008" class="node">
<title>Node8</title>
<g id="a_Node000008"><a xlink:href="errorcodes_8h.html" target="_top" xlink:title="This header is intended to be a useful reference for error codes and their meanings.">
<polygon fill="white" stroke="#666666" points="471.5,-129.75 402.25,-129.75 402.25,-110.5 471.5,-110.5 471.5,-129.75"/>
<text text-anchor="middle" x="436.88" y="-116.25" font-family="IBMPlexSans-Regular" font-size="10.00">errorcodes.h</text>
</a>
</g>
</g>
<!-- Node3&#45;&gt;Node8 -->
<g id="edge7_Node000003_Node000008" class="edge">
<title>Node3&#45;&gt;Node8</title>
<g id="a_edge7_Node000003_Node000008"><a xlink:title=" ">
<path fill="none" stroke="#63b8ff" d="M341.38,-165.34C359.39,-157 386.4,-144.5 407.1,-134.91"/>
<polygon fill="#63b8ff" stroke="#63b8ff" points="408.29,-138.22 415.9,-130.84 405.35,-131.86 408.29,-138.22"/>
</a>
</g>
</g>
<!-- Node9 -->
<g id="Node000009" class="node">
<title>Node9</title>
<g id="a_Node000009"><a xlink:title=" ">
<polygon fill="#e0e0e0" stroke="#999999" points="149.38,-129.75 94.38,-129.75 94.38,-110.5 149.38,-110.5 149.38,-129.75"/>
<text text-anchor="middle" x="121.88" y="-116.25" font-family="IBMPlexSans-Regular" font-size="10.00">stdbool.h</text>
</a>
</g>
</g>
<!-- Node3&#45;&gt;Node9 -->
<g id="edge9_Node000003_Node000009" class="edge">
<title>Node3&#45;&gt;Node9</title>
<g id="a_edge9_Node000003_Node000009"><a xlink:title=" ">
<path fill="none" stroke="#63b8ff" d="M292.79,-166.63C257.89,-157.34 199.23,-141.72 160.54,-131.42"/>
<polygon fill="#63b8ff" stroke="#63b8ff" points="161.73,-128.11 151.16,-128.92 159.93,-134.88 161.73,-128.11"/>
</a>
</g>
</g>
<!-- Node10 -->
<g id="Node000010" class="node">
<title>Node10</title>
<g id="a_Node000010"><a xlink:title=" ">
<polygon fill="#e0e0e0" stroke="#999999" points="534.12,-129.75 489.62,-129.75 489.62,-110.5 534.12,-110.5 534.12,-129.75"/>
<text text-anchor="middle" x="511.88" y="-116.25" font-family="IBMPlexSans-Regular" font-size="10.00">stdio.h</text>
</a>
</g>
</g>
<!-- Node3&#45;&gt;Node10 -->
<g id="edge10_Node000003_Node000010" class="edge">
<title>Node3&#45;&gt;Node10</title>
<g id="a_edge10_Node000003_Node000010"><a xlink:title=" ">
<path fill="none" stroke="#63b8ff" d="M351.15,-166.17C385.43,-156.56 442.12,-140.68 478.2,-130.56"/>
<polygon fill="#63b8ff" stroke="#63b8ff" points="478.99,-133.98 487.67,-127.91 477.1,-127.24 478.99,-133.98"/>
</a>
</g>
</g>
<!-- Node11 -->
<g id="Node000011" class="node">
<title>Node11</title>
<g id="a_Node000011"><a xlink:title=" ">
<polygon fill="#e0e0e0" stroke="#999999" points="214.25,-129.75 167.5,-129.75 167.5,-110.5 214.25,-110.5 214.25,-129.75"/>
<text text-anchor="middle" x="190.88" y="-116.25" font-family="IBMPlexSans-Regular" font-size="10.00">stdlib.h</text>
</a>
</g>
</g>
<!-- Node3&#45;&gt;Node11 -->
<g id="edge11_Node000003_Node000011" class="edge">
<title>Node3&#45;&gt;Node11</title>
<g id="a_edge11_Node000003_Node000011"><a xlink:title=" ">
<path fill="none" stroke="#63b8ff" d="M299.65,-165.34C278.86,-156.89 247.53,-144.15 223.82,-134.52"/>
<polygon fill="#63b8ff" stroke="#63b8ff" points="225.19,-131.3 214.61,-130.77 222.55,-137.78 225.19,-131.3"/>
</a>
</g>
</g>
<!-- Node12 -->
<g id="Node000012" class="node">
<title>Node12</title>
<g id="a_Node000012"><a xlink:title=" ">
<polygon fill="#e0e0e0" stroke="#999999" points="345.62,-129.75 298.12,-129.75 298.12,-110.5 345.62,-110.5 345.62,-129.75"/>
<text text-anchor="middle" x="321.88" y="-116.25" font-family="IBMPlexSans-Regular" font-size="10.00">string.h</text>
</a>
</g>
</g>
<!-- Node3&#45;&gt;Node12 -->
<g id="edge12_Node000003_Node000012" class="edge">
<title>Node3&#45;&gt;Node12</title>
<g id="a_edge12_Node000003_Node000012"><a xlink:title=" ">
<path fill="none" stroke="#63b8ff" d="M321.88,-165.58C321.88,-159.07 321.88,-149.92 321.88,-141.62"/>
<polygon fill="#63b8ff" stroke="#63b8ff" points="325.38,-141.62 321.88,-131.62 318.38,-141.62 325.38,-141.62"/>
</a>
</g>
</g>
<!-- Node5 -->
<g id="Node000005" class="node">
<title>Node5</title>
<g id="a_Node000005"><a xlink:title=" ">
<polygon fill="#e0e0e0" stroke="#999999" points="113.5,-74.5 68.25,-74.5 68.25,-55.25 113.5,-55.25 113.5,-74.5"/>
<text text-anchor="middle" x="90.88" y="-61" font-family="IBMPlexSans-Regular" font-size="10.00">math.h</text>
</a>
</g>
</g>
<!-- Node4&#45;&gt;Node5 -->
<g id="edge4_Node000004_Node000005" class="edge">
<title>Node4&#45;&gt;Node5</title>
<g id="a_edge4_Node000004_Node000005"><a xlink:title=" ">
<path fill="none" stroke="#63b8ff" d="M231.88,-111.38C203.58,-102.25 156.35,-87 124.43,-76.7"/>
<polygon fill="#63b8ff" stroke="#63b8ff" points="125.86,-73.49 115.27,-73.75 123.71,-80.15 125.86,-73.49"/>
</a>
</g>
</g>
<!-- Node4&#45;&gt;Node6 -->
<g id="edge5_Node000004_Node000006" class="edge">
<title>Node4&#45;&gt;Node6</title>
<g id="a_edge5_Node000004_Node000006"><a xlink:title=" ">
<path fill="none" stroke="#63b8ff" d="M255.88,-110.33C255.88,-103.82 255.88,-94.67 255.88,-86.37"/>
<polygon fill="#63b8ff" stroke="#63b8ff" points="259.38,-86.37 255.88,-76.37 252.38,-86.37 259.38,-86.37"/>
</a>
</g>
</g>
<!-- Node7 -->
<g id="Node000007" class="node">
<title>Node7</title>
<g id="a_Node000007"><a xlink:title=" ">
<polygon fill="#e0e0e0" stroke="#999999" points="285.62,-19.25 226.12,-19.25 226.12,0 285.62,0 285.62,-19.25"/>
<text text-anchor="middle" x="255.88" y="-5.75" font-family="IBMPlexSans-Regular" font-size="10.00">complex.h</text>
</a>
</g>
</g>
<!-- Node6&#45;&gt;Node7 -->
<g id="edge6_Node000006_Node000007" class="edge">
<title>Node6&#45;&gt;Node7</title>
<g id="a_edge6_Node000006_Node000007"><a xlink:title=" ">
<path fill="none" stroke="#63b8ff" d="M255.88,-55.08C255.88,-48.57 255.88,-39.42 255.88,-31.12"/>
<polygon fill="#63b8ff" stroke="#63b8ff" points="259.38,-31.12 255.88,-21.12 252.38,-31.12 259.38,-31.12"/>
</a>
</g>
</g>
<!-- Node13&#45;&gt;Node6 -->
<g id="edge22_Node000013_Node000006" class="edge">
<title>Node13&#45;&gt;Node6</title>
<g id="a_edge22_Node000013_Node000006"><a xlink:title=" ">
<path fill="none" stroke="#63b8ff" d="M342.59,-331.1C412.1,-301 620.25,-200.83 542.88,-110.5 510.7,-72.94 359.34,-66.74 290.32,-65.89"/>
<polygon fill="#63b8ff" stroke="#63b8ff" points="290.75,-62.4 280.72,-65.81 290.69,-69.4 290.75,-62.4"/>
</a>
</g>
</g>
<!-- Node13&#45;&gt;Node8 -->
<g id="edge14_Node000013_Node000008" class="edge">
<title>Node13&#45;&gt;Node8</title>
<g id="a_edge14_Node000013_Node000008"><a xlink:title=" ">
<path fill="none" stroke="#63b8ff" d="M325.57,-331.27C342.84,-298.66 403.12,-184.86 427.01,-139.75"/>
<polygon fill="#63b8ff" stroke="#63b8ff" points="429.96,-141.66 431.54,-131.19 423.77,-138.39 429.96,-141.66"/>
</a>
</g>
</g>
<!-- Node13&#45;&gt;Node10 -->
<g id="edge23_Node000013_Node000010" class="edge">
<title>Node13&#45;&gt;Node10</title>
<g id="a_edge23_Node000013_Node000010"><a xlink:title=" ">
<path fill="none" stroke="#63b8ff" d="M350.1,-332.53C397.67,-320.14 486.71,-296.82 487.88,-295.5 526.24,-252.04 520.93,-177.24 515.6,-141.41"/>
<polygon fill="#63b8ff" stroke="#63b8ff" points="519.06,-140.88 513.97,-131.59 512.16,-142.03 519.06,-140.88"/>
</a>
</g>
</g>
<!-- Node13&#45;&gt;Node11 -->
<g id="edge24_Node000013_Node000011" class="edge">
<title>Node13&#45;&gt;Node11</title>
<g id="a_edge24_Node000013_Node000011"><a xlink:title=" ">
<path fill="none" stroke="#63b8ff" d="M315.62,-331.27C296.26,-298.66 228.71,-184.86 201.93,-139.75"/>
<polygon fill="#63b8ff" stroke="#63b8ff" points="204.94,-137.97 196.83,-131.15 198.92,-141.54 204.94,-137.97"/>
</a>
</g>
</g>
<!-- Node14 -->
<g id="Node000014" class="node">
<title>Node14</title>
<g id="a_Node000014"><a xlink:href="integrate_8h.html" target="_top" xlink:title="Integrators for the HMC.">
<polygon fill="white" stroke="#666666" points="177.38,-295.5 116.38,-295.5 116.38,-276.25 177.38,-276.25 177.38,-295.5"/>
<text text-anchor="middle" x="146.88" y="-282" font-family="IBMPlexSans-Regular" font-size="10.00">integrate.h</text>
</a>
</g>
</g>
<!-- Node13&#45;&gt;Node14 -->
<g id="edge15_Node000013_Node000014" class="edge">
<title>Node13&#45;&gt;Node14</title>
<g id="a_edge15_Node000013_Node000014"><a xlink:title=" ">
<path fill="none" stroke="#63b8ff" d="M291.75,-331.21C263.19,-322.47 219.41,-309.07 187.44,-299.29"/>
<polygon fill="#63b8ff" stroke="#63b8ff" points="188.71,-296.02 178.12,-296.44 186.66,-302.71 188.71,-296.02"/>
</a>
</g>
</g>
<!-- Node16 -->
<g id="Node000016" class="node">
<title>Node16</title>
<g id="a_Node000016"><a xlink:title=" ">
<polygon fill="#e0e0e0" stroke="#999999" points="98,-295.5 55.75,-295.5 55.75,-276.25 98,-276.25 98,-295.5"/>
<text text-anchor="middle" x="76.88" y="-282" font-family="IBMPlexSans-Regular" font-size="10.00">time.h</text>
</a>
</g>
</g>
<!-- Node13&#45;&gt;Node16 -->
<g id="edge25_Node000013_Node000016" class="edge">
<title>Node13&#45;&gt;Node16</title>
<g id="a_edge25_Node000013_Node000016"><a xlink:title=" ">
<path fill="none" stroke="#63b8ff" d="M291.45,-334.59C252.25,-327.07 180.49,-312.85 109.15,-295.67"/>
<polygon fill="#63b8ff" stroke="#63b8ff" points="110.19,-292.32 99.64,-293.35 108.53,-299.12 110.19,-292.32"/>
</a>
</g>
</g>
<!-- Node14&#45;&gt;Node6 -->
<g id="edge21_Node000014_Node000006" class="edge">
<title>Node14&#45;&gt;Node6</title>
<g id="a_edge21_Node000014_Node000006"><a xlink:title=" ">
<path fill="none" stroke="#63b8ff" d="M138.41,-275.96C113.43,-248.59 44.35,-164.34 85.88,-110.5 102.3,-89.21 176.69,-76.08 221.44,-69.97"/>
<polygon fill="#63b8ff" stroke="#63b8ff" points="221.71,-73.47 231.17,-68.7 220.8,-66.52 221.71,-73.47"/>
</a>
</g>
</g>
<!-- Node14&#45;&gt;Node9 -->
<g id="edge16_Node000014_Node000009" class="edge">
<title>Node14&#45;&gt;Node9</title>
<g id="a_edge16_Node000014_Node000009"><a xlink:title=" ">
<path fill="none" stroke="#63b8ff" d="M145.53,-276.07C141.66,-250.75 130.44,-177.25 124.96,-141.34"/>
<polygon fill="#63b8ff" stroke="#63b8ff" points="128.42,-140.83 123.45,-131.47 121.5,-141.88 128.42,-140.83"/>
</a>
</g>
</g>
<!-- Node14&#45;&gt;Node15 -->
<g id="edge17_Node000014_Node000015" class="edge">
<title>Node14&#45;&gt;Node15</title>
<g id="a_edge17_Node000014_Node000015"><a xlink:title=" ">
<path fill="none" stroke="#63b8ff" d="M126.69,-275.84C107.97,-267.47 79.85,-254.88 58.39,-245.28"/>
<polygon fill="#63b8ff" stroke="#63b8ff" points="60.1,-242.21 49.54,-241.32 57.24,-248.6 60.1,-242.21"/>
</a>
</g>
</g>
<!-- Node15&#45;&gt;Node3 -->
<g id="edge19_Node000015_Node000003" class="edge">
<title>Node15&#45;&gt;Node3</title>
<g id="a_edge19_Node000015_Node000003"><a xlink:title=" ">
<path fill="none" stroke="#63b8ff" d="M56.06,-224.52C108.45,-215.03 220.97,-194.65 281.45,-183.7"/>
<polygon fill="#63b8ff" stroke="#63b8ff" points="281.76,-187.2 290.98,-181.97 280.51,-180.31 281.76,-187.2"/>
</a>
</g>
</g>
<!-- Node15&#45;&gt;Node5 -->
<g id="edge18_Node000015_Node000005" class="edge">
<title>Node15&#45;&gt;Node5</title>
<g id="a_edge18_Node000015_Node000005"><a xlink:title=" ">
<path fill="none" stroke="#63b8ff" d="M23.32,-220.51C13.53,-199.52 -7.02,-146.77 13.88,-110.5 23.3,-94.14 41.28,-83.23 57.5,-76.29"/>
<polygon fill="#63b8ff" stroke="#63b8ff" points="58.33,-79.72 66.38,-72.84 55.79,-73.2 58.33,-79.72"/>
</a>
</g>
</g>
<!-- Node15&#45;&gt;Node6 -->
<g id="edge20_Node000015_Node000006" class="edge">
<title>Node15&#45;&gt;Node6</title>
<g id="a_edge20_Node000015_Node000006"><a xlink:title=" ">
<path fill="none" stroke="#63b8ff" d="M26.71,-220.67C24.37,-198.61 21.7,-141.18 51.88,-110.5 75.17,-86.82 169.62,-74.18 221.44,-68.9"/>
<polygon fill="#63b8ff" stroke="#63b8ff" points="221.6,-72.4 231.21,-67.95 220.92,-65.44 221.6,-72.4"/>
</a>
</g>
</g>
</g>
</svg>
