<?xml version="1.0" encoding="UTF-8" standalone="no"?>
<!DOCTYPE svg PUBLIC "-//W3C//DTD SVG 1.1//EN"
 "http://www.w3.org/Graphics/SVG/1.1/DTD/svg11.dtd">
<!-- Generated by graphviz version 12.2.1 (20241206.2353)
 -->
<!-- Title: Measure Pages: 1 -->
<svg width="403pt" height="212pt"
 viewBox="0.00 0.00 402.75 212.25" xmlns="http://www.w3.org/2000/svg" xmlns:xlink="http://www.w3.org/1999/xlink">
<g id="graph0" class="graph" transform="scale(1 1) rotate(0) translate(4 208.25)">
<title>Measure</title>
<!-- Node1 -->
<g id="Node000001" class="node">
<title>Node1</title>
<g id="a_Node000001"><a xlink:title="Calculate fermion expectation values via a noisy estimator.">
<polygon fill="#999999" stroke="#666666" points="53.5,-94.25 0,-94.25 0,-75 53.5,-75 53.5,-94.25"/>
<text text-anchor="middle" x="26.75" y="-80.75" font-family="IBMPlexSans-Regular" font-size="10.00">Measure</text>
</a>
</g>
</g>
<!-- Node2 -->
<g id="Node000002" class="node">
<title>Node2</title>
<g id="a_Node000002"><a xlink:href="congrad_8c.html#aa3fde21d836b340202ca6b18bead4510" target="_top" xlink:title="Matrix Inversion via Conjugate Gradient (no up/down flavour partitioning). Solves &#160;The matrix multipl...">
<polygon fill="white" stroke="#666666" points="161.38,-132.25 104.12,-132.25 104.12,-113 161.38,-113 161.38,-132.25"/>
<text text-anchor="middle" x="132.75" y="-118.75" font-family="IBMPlexSans-Regular" font-size="10.00">Congradp</text>
</a>
</g>
</g>
<!-- Node1&#45;&gt;Node2 -->
<g id="edge1_Node000001_Node000002" class="edge">
<title>Node1&#45;&gt;Node2</title>
<g id="a_edge1_Node000001_Node000002"><a xlink:title=" ">
<path fill="none" stroke="#63b8ff" d="M53.99,-94.21C65.93,-98.58 80.3,-103.83 93.42,-108.62"/>
<polygon fill="#63b8ff" stroke="#63b8ff" points="92.04,-111.84 102.64,-111.99 94.45,-105.27 92.04,-111.84"/>
</a>
</g>
</g>
<!-- Node5 -->
<g id="Node000005" class="node">
<title>Node5</title>
<g id="a_Node000005"><a xlink:href="matrices_8c.html#ad8f7378919117970073d06cbb243f9a4" target="_top" xlink:title="Evaluates &#160;in single precision.">
<polygon fill="white" stroke="#666666" points="271.88,-204.25 212.38,-204.25 212.38,-185 271.88,-185 271.88,-204.25"/>
<text text-anchor="middle" x="242.12" y="-190.75" font-family="IBMPlexSans-Regular" font-size="10.00">Dslashd_f</text>
</a>
</g>
</g>
<!-- Node1&#45;&gt;Node5 -->
<g id="edge8_Node000001_Node000005" class="edge">
<title>Node1&#45;&gt;Node5</title>
<g id="a_edge8_Node000001_Node000005"><a xlink:title=" ">
<path fill="none" stroke="#63b8ff" d="M36,-94.4C47.03,-106.92 67.74,-128.55 89.5,-141.62 124.52,-162.66 169.12,-176.98 200.86,-185.38"/>
<polygon fill="#63b8ff" stroke="#63b8ff" points="199.91,-188.75 210.47,-187.83 201.64,-181.96 199.91,-188.75"/>
</a>
</g>
</g>
<!-- Node6 -->
<g id="Node000006" class="node">
<title>Node6</title>
<g id="a_Node000006"><a xlink:href="par__mpi_8h.html#aecfe9840e5f8dfd693b813b750d81a0c" target="_top" xlink:title="Performs a reduction on a double dval to get a sum which is then distributed to all ranks.">
<polygon fill="white" stroke="#666666" points="272.25,-93.25 212,-93.25 212,-74 272.25,-74 272.25,-93.25"/>
<text text-anchor="middle" x="242.12" y="-79.75" font-family="IBMPlexSans-Regular" font-size="10.00">Par_dsum</text>
</a>
</g>
</g>
<!-- Node1&#45;&gt;Node6 -->
<g id="edge11_Node000001_Node000006" class="edge">
<title>Node1&#45;&gt;Node6</title>
<g id="a_edge11_Node000001_Node000006"><a xlink:title=" ">
<path fill="none" stroke="#63b8ff" d="M53.91,-84.5C90.43,-84.33 157.04,-84.02 200.17,-83.82"/>
<polygon fill="#63b8ff" stroke="#63b8ff" points="200.17,-87.32 210.15,-83.77 200.14,-80.32 200.17,-87.32"/>
</a>
</g>
</g>
<!-- Node8 -->
<g id="Node000008" class="node">
<title>Node8</title>
<g id="a_Node000008"><a xlink:href="random_8c.html#a859e92fda23ce37dad2971362f72a50d" target="_top" xlink:title="Generates a vector of normally distributed random single precision complex numbers using the Box&#45;Mull...">
<polygon fill="white" stroke="#666666" points="160.25,-56.25 105.25,-56.25 105.25,-37 160.25,-37 160.25,-56.25"/>
<text text-anchor="middle" x="132.75" y="-42.75" font-family="IBMPlexSans-Regular" font-size="10.00">Gauss_c</text>
</a>
</g>
</g>
<!-- Node1&#45;&gt;Node8 -->
<g id="edge9_Node000001_Node000008" class="edge">
<title>Node1&#45;&gt;Node8</title>
<g id="a_edge9_Node000001_Node000008"><a xlink:title=" ">
<path fill="none" stroke="#63b8ff" d="M53.99,-75.04C66.12,-70.6 80.75,-65.26 94.03,-60.41"/>
<polygon fill="#63b8ff" stroke="#63b8ff" points="95.18,-63.71 103.37,-57 92.77,-57.14 95.18,-63.71"/>
</a>
</g>
</g>
<!-- Node10 -->
<g id="Node000010" class="node">
<title>Node10</title>
<g id="a_Node000010"><a xlink:href="par__mpi_8h.html#a893a7c85fb77e355d4cec6bc35711b98" target="_top" xlink:title="Swaps the halos along the axis given by idir in the direction given by layer.">
<polygon fill="white" stroke="#666666" points="176,-19.25 89.5,-19.25 89.5,0 176,0 176,-19.25"/>
<text text-anchor="middle" x="132.75" y="-5.75" font-family="IBMPlexSans-Regular" font-size="10.00">ZHalo_swap_dir</text>
</a>
</g>
</g>
<!-- Node1&#45;&gt;Node10 -->
<g id="edge12_Node000001_Node000010" class="edge">
<title>Node1&#45;&gt;Node10</title>
<g id="a_edge12_Node000001_Node000010"><a xlink:title=" ">
<path fill="none" stroke="#63b8ff" d="M36.53,-74.64C47.8,-62.3 68.43,-41.25 89.5,-27.62 91.06,-26.61 92.7,-25.64 94.37,-24.7"/>
<polygon fill="#63b8ff" stroke="#63b8ff" points="95.52,-28.03 102.87,-20.41 92.37,-21.78 95.52,-28.03"/>
</a>
</g>
</g>
<!-- Node3 -->
<g id="Node000003" class="node">
<title>Node3</title>
<g id="a_Node000003"><a xlink:href="matrices_8c.html#a40434b5c9baa7bb374ac7faf436acc56" target="_top" xlink:title="Evaluates &#160;in single precision.">
<polygon fill="white" stroke="#666666" points="269.25,-167.25 215,-167.25 215,-148 269.25,-148 269.25,-167.25"/>
<text text-anchor="middle" x="242.12" y="-153.75" font-family="IBMPlexSans-Regular" font-size="10.00">Dslash_f</text>
</a>
</g>
</g>
<!-- Node2&#45;&gt;Node3 -->
<g id="edge2_Node000002_Node000003" class="edge">
<title>Node2&#45;&gt;Node3</title>
<g id="a_edge2_Node000002_Node000003"><a xlink:title=" ">
<path fill="none" stroke="#63b8ff" d="M161.68,-131.73C174.63,-135.95 190.19,-141.02 204.09,-145.55"/>
<polygon fill="#63b8ff" stroke="#63b8ff" points="202.78,-148.81 213.37,-148.58 204.95,-142.15 202.78,-148.81"/>
</a>
</g>
</g>
<!-- Node2&#45;&gt;Node5 -->
<g id="edge4_Node000002_Node000005" class="edge">
<title>Node2&#45;&gt;Node5</title>
<g id="a_edge4_Node000002_Node000005"><a xlink:title=" ">
<path fill="none" stroke="#63b8ff" d="M147.74,-132.6C163.28,-143.6 189.2,-161.73 212,-176.62 213.02,-177.29 214.06,-177.97 215.12,-178.65"/>
<polygon fill="#63b8ff" stroke="#63b8ff" points="213.1,-181.51 223.42,-183.87 216.83,-175.58 213.1,-181.51"/>
</a>
</g>
</g>
<!-- Node2&#45;&gt;Node6 -->
<g id="edge6_Node000002_Node000006" class="edge">
<title>Node2&#45;&gt;Node6</title>
<g id="a_edge6_Node000002_Node000006"><a xlink:title=" ">
<path fill="none" stroke="#63b8ff" d="M161.4,-112.58C174.05,-107.99 189.25,-102.47 202.96,-97.49"/>
<polygon fill="#63b8ff" stroke="#63b8ff" points="203.94,-100.85 212.14,-94.15 201.55,-94.28 203.94,-100.85"/>
</a>
</g>
</g>
<!-- Node7 -->
<g id="Node000007" class="node">
<title>Node7</title>
<g id="a_Node000007"><a xlink:href="par__mpi_8h.html#a4e2e85b06c5b05c5181729cc5ebdd05b" target="_top" xlink:title="Performs a reduction on a float dval to get a sum which is then distributed to all ranks.">
<polygon fill="white" stroke="#666666" points="271.12,-130.25 213.12,-130.25 213.12,-111 271.12,-111 271.12,-130.25"/>
<text text-anchor="middle" x="242.12" y="-116.75" font-family="IBMPlexSans-Regular" font-size="10.00">Par_fsum</text>
</a>
</g>
</g>
<!-- Node2&#45;&gt;Node7 -->
<g id="edge7_Node000002_Node000007" class="edge">
<title>Node2&#45;&gt;Node7</title>
<g id="a_edge7_Node000002_Node000007"><a xlink:title=" ">
<path fill="none" stroke="#63b8ff" d="M161.68,-122.1C173.89,-121.88 188.42,-121.61 201.7,-121.36"/>
<polygon fill="#63b8ff" stroke="#63b8ff" points="201.51,-124.86 211.45,-121.18 201.38,-117.86 201.51,-124.86"/>
</a>
</g>
</g>
<!-- Node4 -->
<g id="Node000004" class="node">
<title>Node4</title>
<g id="a_Node000004"><a xlink:href="par__mpi_8h.html#a14b1a550ef4f44a9e4d7dd06c9427993" target="_top" xlink:title="Calls the functions to send data to both the up and down halos.">
<polygon fill="white" stroke="#666666" points="394.75,-185.25 308.25,-185.25 308.25,-166 394.75,-166 394.75,-185.25"/>
<text text-anchor="middle" x="351.5" y="-171.75" font-family="IBMPlexSans-Regular" font-size="10.00">CHalo_swap_all</text>
</a>
</g>
</g>
<!-- Node3&#45;&gt;Node4 -->
<g id="edge3_Node000003_Node000004" class="edge">
<title>Node3&#45;&gt;Node4</title>
<g id="a_edge3_Node000003_Node000004"><a xlink:title=" ">
<path fill="none" stroke="#63b8ff" d="M269.67,-162.07C277.97,-163.47 287.45,-165.06 296.92,-166.64"/>
<polygon fill="#63b8ff" stroke="#63b8ff" points="296.03,-170.04 306.48,-168.24 297.19,-163.14 296.03,-170.04"/>
</a>
</g>
</g>
<!-- Node5&#45;&gt;Node4 -->
<g id="edge5_Node000005_Node000004" class="edge">
<title>Node5&#45;&gt;Node4</title>
<g id="a_edge5_Node000005_Node000004"><a xlink:title=" ">
<path fill="none" stroke="#63b8ff" d="M272.18,-189.48C279.87,-188.12 288.42,-186.61 296.96,-185.1"/>
<polygon fill="#63b8ff" stroke="#63b8ff" points="297.38,-188.58 306.62,-183.39 296.16,-181.69 297.38,-188.58"/>
</a>
</g>
</g>
<!-- Node9 -->
<g id="Node000009" class="node">
<title>Node9</title>
<g id="a_Node000009"><a xlink:href="random_8c.html#afba975c2629ded7c68cb21cfbeb4b496" target="_top" xlink:title="Generates uniformly distributed random double between zero and one as described in numerical recipes....">
<polygon fill="white" stroke="#666666" points="259.5,-56.25 224.75,-56.25 224.75,-37 259.5,-37 259.5,-56.25"/>
<text text-anchor="middle" x="242.12" y="-42.75" font-family="IBMPlexSans-Regular" font-size="10.00">ran2</text>
</a>
</g>
</g>
<!-- Node8&#45;&gt;Node9 -->
<g id="edge10_Node000008_Node000009" class="edge">
<title>Node8&#45;&gt;Node9</title>
<g id="a_edge10_Node000008_Node000009"><a xlink:title=" ">
<path fill="none" stroke="#63b8ff" d="M160.57,-46.62C176.51,-46.62 196.7,-46.62 212.89,-46.62"/>
<polygon fill="#63b8ff" stroke="#63b8ff" points="212.83,-50.13 222.83,-46.63 212.83,-43.13 212.83,-50.13"/>
</a>
</g>
</g>
</g>
</svg>
