<?xml version="1.0" encoding="UTF-8" standalone="no"?>
<!DOCTYPE svg PUBLIC "-//W3C//DTD SVG 1.1//EN"
 "http://www.w3.org/Graphics/SVG/1.1/DTD/svg11.dtd">
<!-- Generated by graphviz version 12.2.1 (20241206.2353)
 -->
<!-- Title: Force Pages: 1 -->
<svg width="417pt" height="249pt"
 viewBox="0.00 0.00 417.00 249.25" xmlns="http://www.w3.org/2000/svg" xmlns:xlink="http://www.w3.org/1999/xlink">
<g id="graph0" class="graph" transform="scale(1 1) rotate(0) translate(4 245.25)">
<title>Force</title>
<!-- Node1 -->
<g id="Node000001" class="node">
<title>Node1</title>
<g id="a_Node000001"><a xlink:title="Calculates the force &#160;at each intermediate time.">
<polygon fill="#999999" stroke="#666666" points="40.75,-111.25 0,-111.25 0,-92 40.75,-92 40.75,-111.25"/>
<text text-anchor="middle" x="20.38" y="-97.75" font-family="IBMPlexSans-Regular" font-size="10.00">Force</text>
</a>
</g>
</g>
<!-- Node2 -->
<g id="Node000002" class="node">
<title>Node2</title>
<g id="a_Node000002"><a xlink:href="congrad_8c.html#a4b97a088fd74bb3b25ce4f965dc26281" target="_top" xlink:title="Matrix Inversion via Conjugate Gradient (up/down flavour partitioning). Solves &#160;Implements up/down pa...">
<polygon fill="white" stroke="#666666" points="148.62,-167.25 91.38,-167.25 91.38,-148 148.62,-148 148.62,-167.25"/>
<text text-anchor="middle" x="120" y="-153.75" font-family="IBMPlexSans-Regular" font-size="10.00">Congradq</text>
</a>
</g>
</g>
<!-- Node1&#45;&gt;Node2 -->
<g id="edge1_Node000001_Node000002" class="edge">
<title>Node1&#45;&gt;Node2</title>
<g id="a_edge1_Node000001_Node000002"><a xlink:title=" ">
<path fill="none" stroke="#63b8ff" d="M34.11,-111.45C45.04,-119.61 61.42,-131.21 76.75,-139.62 78.69,-140.69 80.7,-141.74 82.76,-142.75"/>
<polygon fill="#63b8ff" stroke="#63b8ff" points="81.22,-145.9 91.77,-146.94 84.17,-139.55 81.22,-145.9"/>
</a>
</g>
</g>
<!-- Node3 -->
<g id="Node000003" class="node">
<title>Node3</title>
<g id="a_Node000003"><a xlink:href="matrices_8c.html#a68e018d0a9d3c7ae5e175f87da75d881" target="_top" xlink:title="Evaluates &#160;in single precision.">
<polygon fill="white" stroke="#666666" points="273,-241.25 212.75,-241.25 212.75,-222 273,-222 273,-241.25"/>
<text text-anchor="middle" x="242.88" y="-227.75" font-family="IBMPlexSans-Regular" font-size="10.00">Hdslash_f</text>
</a>
</g>
</g>
<!-- Node1&#45;&gt;Node3 -->
<g id="edge14_Node000001_Node000003" class="edge">
<title>Node1&#45;&gt;Node3</title>
<g id="a_edge14_Node000001_Node000003"><a xlink:title=" ">
<path fill="none" stroke="#63b8ff" d="M26.2,-111.67C34.39,-127.7 52.52,-159.03 76.75,-176.62 114.14,-203.78 165.8,-218.12 201.32,-225.27"/>
<polygon fill="#63b8ff" stroke="#63b8ff" points="200.29,-228.63 210.76,-227.06 201.59,-221.75 200.29,-228.63"/>
</a>
</g>
</g>
<!-- Node8 -->
<g id="Node000008" class="node">
<title>Node8</title>
<g id="a_Node000008"><a xlink:href="su2hmc_8c.html#ad4816b4c3599a65d212f34e10c83055f" target="_top" xlink:title=" ">
<polygon fill="white" stroke="#666666" points="159.12,-130.25 80.88,-130.25 80.88,-111 159.12,-111 159.12,-130.25"/>
<text text-anchor="middle" x="120" y="-116.75" font-family="IBMPlexSans-Regular" font-size="10.00">Fill_Small_Phi</text>
</a>
</g>
</g>
<!-- Node1&#45;&gt;Node8 -->
<g id="edge8_Node000001_Node000008" class="edge">
<title>Node1&#45;&gt;Node8</title>
<g id="a_edge8_Node000001_Node000008"><a xlink:title=" ">
<path fill="none" stroke="#63b8ff" d="M41.13,-105.47C49.39,-107.08 59.39,-109.02 69.44,-110.98"/>
<polygon fill="#63b8ff" stroke="#63b8ff" points="68.73,-114.41 79.22,-112.88 70.07,-107.54 68.73,-114.41"/>
</a>
</g>
</g>
<!-- Node9 -->
<g id="Node000009" class="node">
<title>Node9</title>
<g id="a_Node000009"><a xlink:href="force_8c.html#ab8975ff11cde008308f4d18a8f25425e" target="_top" xlink:title="Calculates the gauge force due to the Wilson Action at each intermediate time.">
<polygon fill="white" stroke="#666666" points="155.75,-93.25 84.25,-93.25 84.25,-74 155.75,-74 155.75,-93.25"/>
<text text-anchor="middle" x="120" y="-79.75" font-family="IBMPlexSans-Regular" font-size="10.00">Gauge_force</text>
</a>
</g>
</g>
<!-- Node1&#45;&gt;Node9 -->
<g id="edge9_Node000001_Node000009" class="edge">
<title>Node1&#45;&gt;Node9</title>
<g id="a_edge9_Node000001_Node000009"><a xlink:title=" ">
<path fill="none" stroke="#63b8ff" d="M41.13,-97.98C50.32,-96.29 61.68,-94.19 72.85,-92.13"/>
<polygon fill="#63b8ff" stroke="#63b8ff" points="73.18,-95.63 82.38,-90.38 71.91,-88.75 73.18,-95.63"/>
</a>
</g>
</g>
<!-- Node12 -->
<g id="Node000012" class="node">
<title>Node12</title>
<g id="a_Node000012"><a xlink:href="matrices_8c.html#a487c5a84050f8d6fa5754d7d8784b75e" target="_top" xlink:title="Evaluates &#160;in double precision.">
<polygon fill="white" stroke="#666666" points="146,-56.25 94,-56.25 94,-37 146,-37 146,-56.25"/>
<text text-anchor="middle" x="120" y="-42.75" font-family="IBMPlexSans-Regular" font-size="10.00">Hdslash</text>
</a>
</g>
</g>
<!-- Node1&#45;&gt;Node12 -->
<g id="edge12_Node000001_Node000012" class="edge">
<title>Node1&#45;&gt;Node12</title>
<g id="a_edge12_Node000001_Node000012"><a xlink:title=" ">
<path fill="none" stroke="#63b8ff" d="M34.59,-91.77C45.54,-83.86 61.7,-72.77 76.75,-64.62 78.83,-63.5 81,-62.39 83.2,-61.31"/>
<polygon fill="#63b8ff" stroke="#63b8ff" points="84.61,-64.52 92.24,-57.16 81.69,-58.16 84.61,-64.52"/>
</a>
</g>
</g>
<!-- Node14 -->
<g id="Node000014" class="node">
<title>Node14</title>
<g id="a_Node000014"><a xlink:href="par__mpi_8h.html#a893a7c85fb77e355d4cec6bc35711b98" target="_top" xlink:title="Swaps the halos along the axis given by idir in the direction given by layer.">
<polygon fill="white" stroke="#666666" points="163.25,-19.25 76.75,-19.25 76.75,0 163.25,0 163.25,-19.25"/>
<text text-anchor="middle" x="120" y="-5.75" font-family="IBMPlexSans-Regular" font-size="10.00">ZHalo_swap_dir</text>
</a>
</g>
</g>
<!-- Node1&#45;&gt;Node14 -->
<g id="edge15_Node000001_Node000014" class="edge">
<title>Node1&#45;&gt;Node14</title>
<g id="a_edge15_Node000001_Node000014"><a xlink:title=" ">
<path fill="none" stroke="#63b8ff" d="M26.54,-91.68C35.08,-76.11 53.53,-45.86 76.75,-27.62 77.72,-26.86 78.73,-26.13 79.77,-25.41"/>
<polygon fill="#63b8ff" stroke="#63b8ff" points="81.45,-28.49 88.37,-20.47 77.96,-22.42 81.45,-28.49"/>
</a>
</g>
</g>
<!-- Node2&#45;&gt;Node3 -->
<g id="edge2_Node000002_Node000003" class="edge">
<title>Node2&#45;&gt;Node3</title>
<g id="a_edge2_Node000002_Node000003"><a xlink:title=" ">
<path fill="none" stroke="#63b8ff" d="M133.17,-167.64C148.09,-179.61 174.47,-199.75 199.25,-213.62 201.28,-214.76 203.39,-215.87 205.54,-216.94"/>
<polygon fill="#63b8ff" stroke="#63b8ff" points="203.82,-220 214.37,-221.03 206.77,-213.65 203.82,-220"/>
</a>
</g>
</g>
<!-- Node5 -->
<g id="Node000005" class="node">
<title>Node5</title>
<g id="a_Node000005"><a xlink:href="matrices_8c.html#a01fdbe29f8890534b19e20de5af344aa" target="_top" xlink:title="Evaluates &#160;in single precision.">
<polygon fill="white" stroke="#666666" points="275.62,-204.25 210.12,-204.25 210.12,-185 275.62,-185 275.62,-204.25"/>
<text text-anchor="middle" x="242.88" y="-190.75" font-family="IBMPlexSans-Regular" font-size="10.00">Hdslashd_f</text>
</a>
</g>
</g>
<!-- Node2&#45;&gt;Node5 -->
<g id="edge4_Node000002_Node000005" class="edge">
<title>Node2&#45;&gt;Node5</title>
<g id="a_edge4_Node000002_Node000005"><a xlink:title=" ">
<path fill="none" stroke="#63b8ff" d="M149.03,-166.21C163.91,-170.76 182.5,-176.45 199.13,-181.54"/>
<polygon fill="#63b8ff" stroke="#63b8ff" points="197.69,-184.76 208.27,-184.34 199.74,-178.07 197.69,-184.76"/>
</a>
</g>
</g>
<!-- Node6 -->
<g id="Node000006" class="node">
<title>Node6</title>
<g id="a_Node000006"><a xlink:href="par__mpi_8h.html#aecfe9840e5f8dfd693b813b750d81a0c" target="_top" xlink:title="Performs a reduction on a double dval to get a sum which is then distributed to all ranks.">
<polygon fill="white" stroke="#666666" points="273,-167.25 212.75,-167.25 212.75,-148 273,-148 273,-167.25"/>
<text text-anchor="middle" x="242.88" y="-153.75" font-family="IBMPlexSans-Regular" font-size="10.00">Par_dsum</text>
</a>
</g>
</g>
<!-- Node2&#45;&gt;Node6 -->
<g id="edge6_Node000002_Node000006" class="edge">
<title>Node2&#45;&gt;Node6</title>
<g id="a_edge6_Node000002_Node000006"><a xlink:title=" ">
<path fill="none" stroke="#63b8ff" d="M149.03,-157.62C164.45,-157.62 183.85,-157.62 200.93,-157.62"/>
<polygon fill="#63b8ff" stroke="#63b8ff" points="200.79,-161.13 210.79,-157.63 200.79,-154.13 200.79,-161.13"/>
</a>
</g>
</g>
<!-- Node7 -->
<g id="Node000007" class="node">
<title>Node7</title>
<g id="a_Node000007"><a xlink:href="par__mpi_8h.html#a4e2e85b06c5b05c5181729cc5ebdd05b" target="_top" xlink:title="Performs a reduction on a float dval to get a sum which is then distributed to all ranks.">
<polygon fill="white" stroke="#666666" points="271.88,-130.25 213.88,-130.25 213.88,-111 271.88,-111 271.88,-130.25"/>
<text text-anchor="middle" x="242.88" y="-116.75" font-family="IBMPlexSans-Regular" font-size="10.00">Par_fsum</text>
</a>
</g>
</g>
<!-- Node2&#45;&gt;Node7 -->
<g id="edge7_Node000002_Node000007" class="edge">
<title>Node2&#45;&gt;Node7</title>
<g id="a_edge7_Node000002_Node000007"><a xlink:title=" ">
<path fill="none" stroke="#63b8ff" d="M149.03,-149.04C165.09,-144.13 185.48,-137.89 203.06,-132.51"/>
<polygon fill="#63b8ff" stroke="#63b8ff" points="203.59,-136 212.13,-129.73 201.54,-129.31 203.59,-136"/>
</a>
</g>
</g>
<!-- Node4 -->
<g id="Node000004" class="node">
<title>Node4</title>
<g id="a_Node000004"><a xlink:href="par__mpi_8h.html#a14b1a550ef4f44a9e4d7dd06c9427993" target="_top" xlink:title="Calls the functions to send data to both the up and down halos.">
<polygon fill="white" stroke="#666666" points="409,-222.25 322.5,-222.25 322.5,-203 409,-203 409,-222.25"/>
<text text-anchor="middle" x="365.75" y="-208.75" font-family="IBMPlexSans-Regular" font-size="10.00">CHalo_swap_all</text>
</a>
</g>
</g>
<!-- Node3&#45;&gt;Node4 -->
<g id="edge3_Node000003_Node000004" class="edge">
<title>Node3&#45;&gt;Node4</title>
<g id="a_edge3_Node000003_Node000004"><a xlink:title=" ">
<path fill="none" stroke="#63b8ff" d="M273.44,-226.98C284.8,-225.19 298.13,-223.1 311.06,-221.06"/>
<polygon fill="#63b8ff" stroke="#63b8ff" points="311.41,-224.55 320.75,-219.54 310.33,-217.64 311.41,-224.55"/>
</a>
</g>
</g>
<!-- Node5&#45;&gt;Node4 -->
<g id="edge5_Node000005_Node000004" class="edge">
<title>Node5&#45;&gt;Node4</title>
<g id="a_edge5_Node000005_Node000004"><a xlink:title=" ">
<path fill="none" stroke="#63b8ff" d="M275.95,-199.4C286.66,-201 298.9,-202.82 310.8,-204.59"/>
<polygon fill="#63b8ff" stroke="#63b8ff" points="310.14,-208.03 320.55,-206.04 311.18,-201.11 310.14,-208.03"/>
</a>
</g>
</g>
<!-- Node10 -->
<g id="Node000010" class="node">
<title>Node10</title>
<g id="a_Node000010"><a xlink:href="su2hmc_8c.html#af64f1450e29df479f82290bc4f7bdc1f" target="_top" xlink:title="Extracts all the single precision gauge links in the &#160;direction only.">
<polygon fill="white" stroke="#666666" points="270.38,-93.25 215.38,-93.25 215.38,-74 270.38,-74 270.38,-93.25"/>
<text text-anchor="middle" x="242.88" y="-79.75" font-family="IBMPlexSans-Regular" font-size="10.00">C_gather</text>
</a>
</g>
</g>
<!-- Node9&#45;&gt;Node10 -->
<g id="edge10_Node000009_Node000010" class="edge">
<title>Node9&#45;&gt;Node10</title>
<g id="a_edge10_Node000009_Node000010"><a xlink:title=" ">
<path fill="none" stroke="#63b8ff" d="M155.96,-83.62C170.96,-83.62 188.53,-83.62 203.85,-83.62"/>
<polygon fill="#63b8ff" stroke="#63b8ff" points="203.54,-87.13 213.54,-83.63 203.54,-80.13 203.54,-87.13"/>
</a>
</g>
</g>
<!-- Node11 -->
<g id="Node000011" class="node">
<title>Node11</title>
<g id="a_Node000011"><a xlink:href="par__mpi_8h.html#ab73329ce6f65730ba4783a8031edd518" target="_top" xlink:title="Swaps the halos along the axis given by idir in the direction given by layer.">
<polygon fill="white" stroke="#666666" points="286.5,-56.25 199.25,-56.25 199.25,-37 286.5,-37 286.5,-56.25"/>
<text text-anchor="middle" x="242.88" y="-42.75" font-family="IBMPlexSans-Regular" font-size="10.00">CHalo_swap_dir</text>
</a>
</g>
</g>
<!-- Node9&#45;&gt;Node11 -->
<g id="edge11_Node000009_Node000011" class="edge">
<title>Node9&#45;&gt;Node11</title>
<g id="a_edge11_Node000009_Node000011"><a xlink:title=" ">
<path fill="none" stroke="#63b8ff" d="M154.03,-73.51C167.62,-69.35 183.56,-64.48 198.1,-60.02"/>
<polygon fill="#63b8ff" stroke="#63b8ff" points="198.9,-63.44 207.44,-57.17 196.85,-56.75 198.9,-63.44"/>
</a>
</g>
</g>
<!-- Node13 -->
<g id="Node000013" class="node">
<title>Node13</title>
<g id="a_Node000013"><a xlink:href="par__mpi_8h.html#a35d208a5a65e71101e71d3f0248aef03" target="_top" xlink:title="Calls the functions to send data to both the up and down halos.">
<polygon fill="white" stroke="#666666" points="285.75,-19.25 200,-19.25 200,0 285.75,0 285.75,-19.25"/>
<text text-anchor="middle" x="242.88" y="-5.75" font-family="IBMPlexSans-Regular" font-size="10.00">ZHalo_swap_all</text>
</a>
</g>
</g>
<!-- Node12&#45;&gt;Node13 -->
<g id="edge13_Node000012_Node000013" class="edge">
<title>Node12&#45;&gt;Node13</title>
<g id="a_edge13_Node000012_Node000013"><a xlink:title=" ">
<path fill="none" stroke="#63b8ff" d="M146.34,-38.87C161.47,-34.24 181.1,-28.23 198.63,-22.86"/>
<polygon fill="#63b8ff" stroke="#63b8ff" points="199.22,-26.34 207.76,-20.07 197.18,-19.65 199.22,-26.34"/>
</a>
</g>
</g>
</g>
</svg>
