<?xml version="1.0" encoding="UTF-8" standalone="no"?>
<!DOCTYPE svg PUBLIC "-//W3C//DTD SVG 1.1//EN"
 "http://www.w3.org/Graphics/SVG/1.1/DTD/svg11.dtd">
<!-- Generated by graphviz version 12.2.1 (20241206.2353)
 -->
<!-- Title: production_c/force.c Pages: 1 -->
<svg width="590pt" height="469pt"
 viewBox="0.00 0.00 589.62 469.25" xmlns="http://www.w3.org/2000/svg" xmlns:xlink="http://www.w3.org/1999/xlink">
<g id="graph0" class="graph" transform="scale(1 1) rotate(0) translate(4 465.25)">
<title>production_c/force.c</title>
<!-- Node1 -->
<g id="Node000001" class="node">
<title>Node1</title>
<g id="a_Node000001"><a xlink:title="Code for force calculations.">
<polygon fill="#999999" stroke="#666666" points="360.5,-461.25 256.75,-461.25 256.75,-442 360.5,-442 360.5,-461.25"/>
<text text-anchor="middle" x="308.62" y="-447.75" font-family="IBMPlexSans-Regular" font-size="10.00">production_c/force.c</text>
</a>
</g>
</g>
<!-- Node2 -->
<g id="Node000002" class="node">
<title>Node2</title>
<g id="a_Node000002"><a xlink:href="matrices_8h.html" target="_top" xlink:title="Matrix multiplication and related declarations.">
<polygon fill="white" stroke="#666666" points="339.12,-406 278.12,-406 278.12,-386.75 339.12,-386.75 339.12,-406"/>
<text text-anchor="middle" x="308.62" y="-392.5" font-family="IBMPlexSans-Regular" font-size="10.00">matrices.h</text>
</a>
</g>
</g>
<!-- Node1&#45;&gt;Node2 -->
<g id="edge1_Node000001_Node000002" class="edge">
<title>Node1&#45;&gt;Node2</title>
<g id="a_edge1_Node000001_Node000002"><a xlink:title=" ">
<path fill="none" stroke="#63b8ff" d="M308.62,-441.83C308.62,-435.32 308.62,-426.17 308.62,-417.87"/>
<polygon fill="#63b8ff" stroke="#63b8ff" points="312.13,-417.87 308.63,-407.87 305.13,-417.87 312.13,-417.87"/>
</a>
</g>
</g>
<!-- Node3 -->
<g id="Node000003" class="node">
<title>Node3</title>
<g id="a_Node000003"><a xlink:href="par__mpi_8h.html" target="_top" xlink:title="MPI headers.">
<polygon fill="white" stroke="#666666" points="309.62,-185 251.62,-185 251.62,-165.75 309.62,-165.75 309.62,-185"/>
<text text-anchor="middle" x="280.62" y="-171.5" font-family="IBMPlexSans-Regular" font-size="10.00">par_mpi.h</text>
</a>
</g>
</g>
<!-- Node2&#45;&gt;Node3 -->
<g id="edge2_Node000002_Node000003" class="edge">
<title>Node2&#45;&gt;Node3</title>
<g id="a_edge2_Node000002_Node000003"><a xlink:title=" ">
<path fill="none" stroke="#63b8ff" d="M306.59,-386.53C304.59,-377.55 301.56,-363.25 299.62,-350.75 291.02,-295.23 284.95,-229.16 282.23,-196.59"/>
<polygon fill="#63b8ff" stroke="#63b8ff" points="285.75,-196.68 281.45,-187 278.77,-197.25 285.75,-196.68"/>
</a>
</g>
</g>
<!-- Node13 -->
<g id="Node000013" class="node">
<title>Node13</title>
<g id="a_Node000013"><a xlink:href="su2hmc_8h.html" target="_top" xlink:title="Function declarations for most of the routines.">
<polygon fill="white" stroke="#666666" points="366.62,-350.75 308.62,-350.75 308.62,-331.5 366.62,-331.5 366.62,-350.75"/>
<text text-anchor="middle" x="337.62" y="-337.25" font-family="IBMPlexSans-Regular" font-size="10.00">su2hmc.h</text>
</a>
</g>
</g>
<!-- Node2&#45;&gt;Node13 -->
<g id="edge13_Node000002_Node000013" class="edge">
<title>Node2&#45;&gt;Node13</title>
<g id="a_edge13_Node000002_Node000013"><a xlink:title=" ">
<path fill="none" stroke="#63b8ff" d="M313.41,-386.58C317.17,-379.69 322.53,-369.84 327.26,-361.16"/>
<polygon fill="#63b8ff" stroke="#63b8ff" points="330.3,-362.89 332.01,-352.44 324.15,-359.55 330.3,-362.89"/>
</a>
</g>
</g>
<!-- Node4 -->
<g id="Node000004" class="node">
<title>Node4</title>
<g id="a_Node000004"><a xlink:href="coord_8h.html" target="_top" xlink:title="Header for routines related to lattice sites.">
<polygon fill="white" stroke="#666666" points="263.38,-129.75 215.88,-129.75 215.88,-110.5 263.38,-110.5 263.38,-129.75"/>
<text text-anchor="middle" x="239.62" y="-116.25" font-family="IBMPlexSans-Regular" font-size="10.00">coord.h</text>
</a>
</g>
</g>
<!-- Node3&#45;&gt;Node4 -->
<g id="edge3_Node000003_Node000004" class="edge">
<title>Node3&#45;&gt;Node4</title>
<g id="a_edge3_Node000003_Node000004"><a xlink:title=" ">
<path fill="none" stroke="#63b8ff" d="M273.85,-165.58C268.31,-158.38 260.28,-147.96 253.4,-139.01"/>
<polygon fill="#63b8ff" stroke="#63b8ff" points="256.34,-137.1 247.47,-131.31 250.79,-141.37 256.34,-137.1"/>
</a>
</g>
</g>
<!-- Node6 -->
<g id="Node000006" class="node">
<title>Node6</title>
<g id="a_Node000006"><a xlink:href="sizes_8h.html" target="_top" xlink:title="Defines the constants of the code and other parameters for loop dimensions. Each subroutine includes ...">
<polygon fill="white" stroke="#666666" points="528.62,-74.5 482.62,-74.5 482.62,-55.25 528.62,-55.25 528.62,-74.5"/>
<text text-anchor="middle" x="505.62" y="-61" font-family="IBMPlexSans-Regular" font-size="10.00">sizes.h</text>
</a>
</g>
</g>
<!-- Node3&#45;&gt;Node6 -->
<g id="edge8_Node000003_Node000006" class="edge">
<title>Node3&#45;&gt;Node6</title>
<g id="a_edge8_Node000003_Node000006"><a xlink:title=" ">
<path fill="none" stroke="#63b8ff" d="M282.24,-165.42C285.25,-151.45 293.07,-124.65 310.62,-110.5 356.99,-73.13 428.74,-65.8 471.05,-65.04"/>
<polygon fill="#63b8ff" stroke="#63b8ff" points="470.92,-68.54 480.91,-64.98 470.89,-61.54 470.92,-68.54"/>
</a>
</g>
</g>
<!-- Node8 -->
<g id="Node000008" class="node">
<title>Node8</title>
<g id="a_Node000008"><a xlink:href="errorcodes_8h.html" target="_top" xlink:title="This header is intended to be a useful reference for error codes and their meanings.">
<polygon fill="white" stroke="#666666" points="69.25,-129.75 0,-129.75 0,-110.5 69.25,-110.5 69.25,-129.75"/>
<text text-anchor="middle" x="34.62" y="-116.25" font-family="IBMPlexSans-Regular" font-size="10.00">errorcodes.h</text>
</a>
</g>
</g>
<!-- Node3&#45;&gt;Node8 -->
<g id="edge7_Node000003_Node000008" class="edge">
<title>Node3&#45;&gt;Node8</title>
<g id="a_edge7_Node000003_Node000008"><a xlink:title=" ">
<path fill="none" stroke="#63b8ff" d="M251.44,-168.06C209.29,-158.93 130.94,-141.97 80.87,-131.14"/>
<polygon fill="#63b8ff" stroke="#63b8ff" points="81.71,-127.74 71.19,-129.04 80.23,-134.58 81.71,-127.74"/>
</a>
</g>
</g>
<!-- Node9 -->
<g id="Node000009" class="node">
<title>Node9</title>
<g id="a_Node000009"><a xlink:title=" ">
<polygon fill="#e0e0e0" stroke="#999999" points="477.12,-129.75 422.12,-129.75 422.12,-110.5 477.12,-110.5 477.12,-129.75"/>
<text text-anchor="middle" x="449.62" y="-116.25" font-family="IBMPlexSans-Regular" font-size="10.00">stdbool.h</text>
</a>
</g>
</g>
<!-- Node3&#45;&gt;Node9 -->
<g id="edge9_Node000003_Node000009" class="edge">
<title>Node3&#45;&gt;Node9</title>
<g id="a_edge9_Node000003_Node000009"><a xlink:title=" ">
<path fill="none" stroke="#63b8ff" d="M309.29,-165.34C337.22,-156.54 379.88,-143.1 410.84,-133.35"/>
<polygon fill="#63b8ff" stroke="#63b8ff" points="411.73,-136.73 420.22,-130.39 409.63,-130.06 411.73,-136.73"/>
</a>
</g>
</g>
<!-- Node10 -->
<g id="Node000010" class="node">
<title>Node10</title>
<g id="a_Node000010"><a xlink:title=" ">
<polygon fill="#e0e0e0" stroke="#999999" points="131.88,-129.75 87.38,-129.75 87.38,-110.5 131.88,-110.5 131.88,-129.75"/>
<text text-anchor="middle" x="109.62" y="-116.25" font-family="IBMPlexSans-Regular" font-size="10.00">stdio.h</text>
</a>
</g>
</g>
<!-- Node3&#45;&gt;Node10 -->
<g id="edge10_Node000003_Node000010" class="edge">
<title>Node3&#45;&gt;Node10</title>
<g id="a_edge10_Node000003_Node000010"><a xlink:title=" ">
<path fill="none" stroke="#63b8ff" d="M251.62,-165.34C221.57,-155.99 174.69,-141.39 143.1,-131.55"/>
<polygon fill="#63b8ff" stroke="#63b8ff" points="144.24,-128.24 133.65,-128.61 142.16,-134.92 144.24,-128.24"/>
</a>
</g>
</g>
<!-- Node11 -->
<g id="Node000011" class="node">
<title>Node11</title>
<g id="a_Node000011"><a xlink:title=" ">
<polygon fill="#e0e0e0" stroke="#999999" points="366,-129.75 319.25,-129.75 319.25,-110.5 366,-110.5 366,-129.75"/>
<text text-anchor="middle" x="342.62" y="-116.25" font-family="IBMPlexSans-Regular" font-size="10.00">stdlib.h</text>
</a>
</g>
</g>
<!-- Node3&#45;&gt;Node11 -->
<g id="edge11_Node000003_Node000011" class="edge">
<title>Node3&#45;&gt;Node11</title>
<g id="a_edge11_Node000003_Node000011"><a xlink:title=" ">
<path fill="none" stroke="#63b8ff" d="M291.14,-165.34C300.01,-157.72 312.94,-146.62 323.61,-137.45"/>
<polygon fill="#63b8ff" stroke="#63b8ff" points="325.81,-140.18 331.11,-131.01 321.25,-134.87 325.81,-140.18"/>
</a>
</g>
</g>
<!-- Node12 -->
<g id="Node000012" class="node">
<title>Node12</title>
<g id="a_Node000012"><a xlink:title=" ">
<polygon fill="#e0e0e0" stroke="#999999" points="197.38,-129.75 149.88,-129.75 149.88,-110.5 197.38,-110.5 197.38,-129.75"/>
<text text-anchor="middle" x="173.62" y="-116.25" font-family="IBMPlexSans-Regular" font-size="10.00">string.h</text>
</a>
</g>
</g>
<!-- Node3&#45;&gt;Node12 -->
<g id="edge12_Node000003_Node000012" class="edge">
<title>Node3&#45;&gt;Node12</title>
<g id="a_edge12_Node000003_Node000012"><a xlink:title=" ">
<path fill="none" stroke="#63b8ff" d="M262.47,-165.34C245.95,-157.12 221.28,-144.84 202.13,-135.31"/>
<polygon fill="#63b8ff" stroke="#63b8ff" points="203.73,-132.2 193.22,-130.88 200.61,-138.47 203.73,-132.2"/>
</a>
</g>
</g>
<!-- Node5 -->
<g id="Node000005" class="node">
<title>Node5</title>
<g id="a_Node000005"><a xlink:title=" ">
<polygon fill="#e0e0e0" stroke="#999999" points="339.25,-74.5 294,-74.5 294,-55.25 339.25,-55.25 339.25,-74.5"/>
<text text-anchor="middle" x="316.62" y="-61" font-family="IBMPlexSans-Regular" font-size="10.00">math.h</text>
</a>
</g>
</g>
<!-- Node4&#45;&gt;Node5 -->
<g id="edge4_Node000004_Node000005" class="edge">
<title>Node4&#45;&gt;Node5</title>
<g id="a_edge4_Node000004_Node000005"><a xlink:title=" ">
<path fill="none" stroke="#63b8ff" d="M252.69,-110.09C264.08,-102.21 280.85,-90.61 294.36,-81.27"/>
<polygon fill="#63b8ff" stroke="#63b8ff" points="296.02,-84.38 302.25,-75.81 292.04,-78.62 296.02,-84.38"/>
</a>
</g>
</g>
<!-- Node4&#45;&gt;Node6 -->
<g id="edge5_Node000004_Node000006" class="edge">
<title>Node4&#45;&gt;Node6</title>
<g id="a_edge5_Node000004_Node000006"><a xlink:title=" ">
<path fill="none" stroke="#63b8ff" d="M263.72,-113.54C268.33,-112.51 273.12,-111.45 277.62,-110.5 346.09,-96.03 426.48,-80.68 471.18,-72.28"/>
<polygon fill="#63b8ff" stroke="#63b8ff" points="471.6,-75.77 480.79,-70.49 470.31,-68.89 471.6,-75.77"/>
</a>
</g>
</g>
<!-- Node7 -->
<g id="Node000007" class="node">
<title>Node7</title>
<g id="a_Node000007"><a xlink:title=" ">
<polygon fill="#e0e0e0" stroke="#999999" points="535.38,-19.25 475.88,-19.25 475.88,0 535.38,0 535.38,-19.25"/>
<text text-anchor="middle" x="505.62" y="-5.75" font-family="IBMPlexSans-Regular" font-size="10.00">complex.h</text>
</a>
</g>
</g>
<!-- Node6&#45;&gt;Node7 -->
<g id="edge6_Node000006_Node000007" class="edge">
<title>Node6&#45;&gt;Node7</title>
<g id="a_edge6_Node000006_Node000007"><a xlink:title=" ">
<path fill="none" stroke="#63b8ff" d="M505.62,-55.08C505.62,-48.57 505.62,-39.42 505.62,-31.12"/>
<polygon fill="#63b8ff" stroke="#63b8ff" points="509.13,-31.12 505.63,-21.12 502.13,-31.12 509.13,-31.12"/>
</a>
</g>
</g>
<!-- Node13&#45;&gt;Node6 -->
<g id="edge22_Node000013_Node000006" class="edge">
<title>Node13&#45;&gt;Node6</title>
<g id="a_edge22_Node000013_Node000006"><a xlink:title=" ">
<path fill="none" stroke="#63b8ff" d="M367.06,-340.14C431.95,-338.48 581.62,-324.58 581.62,-231.62 581.62,-231.62 581.62,-231.62 581.62,-174.38 581.62,-135.77 548.94,-101.14 526.44,-81.87"/>
<polygon fill="#63b8ff" stroke="#63b8ff" points="528.96,-79.41 519.01,-75.77 524.52,-84.82 528.96,-79.41"/>
</a>
</g>
</g>
<!-- Node13&#45;&gt;Node8 -->
<g id="edge14_Node000013_Node000008" class="edge">
<title>Node13&#45;&gt;Node8</title>
<g id="a_edge14_Node000013_Node000008"><a xlink:title=" ">
<path fill="none" stroke="#63b8ff" d="M322.67,-331.04C308.35,-322.24 286.24,-308.37 267.62,-295.5 187.17,-239.87 95.15,-168.66 55.07,-137.24"/>
<polygon fill="#63b8ff" stroke="#63b8ff" points="57.25,-134.51 47.23,-131.08 52.93,-140.01 57.25,-134.51"/>
</a>
</g>
</g>
<!-- Node13&#45;&gt;Node10 -->
<g id="edge23_Node000013_Node000010" class="edge">
<title>Node13&#45;&gt;Node10</title>
<g id="a_edge23_Node000013_Node000010"><a xlink:title=" ">
<path fill="none" stroke="#63b8ff" d="M328.4,-331.27C293.95,-298.18 172.44,-181.47 126.97,-137.79"/>
<polygon fill="#63b8ff" stroke="#63b8ff" points="129.44,-135.3 119.8,-130.9 124.59,-140.35 129.44,-135.3"/>
</a>
</g>
</g>
<!-- Node13&#45;&gt;Node11 -->
<g id="edge24_Node000013_Node000011" class="edge">
<title>Node13&#45;&gt;Node11</title>
<g id="a_edge24_Node000013_Node000011"><a xlink:title=" ">
<path fill="none" stroke="#63b8ff" d="M337.83,-331.27C338.56,-299.01 341.12,-187.26 342.17,-141.21"/>
<polygon fill="#63b8ff" stroke="#63b8ff" points="345.66,-141.44 342.39,-131.36 338.66,-141.28 345.66,-141.44"/>
</a>
</g>
</g>
<!-- Node14 -->
<g id="Node000014" class="node">
<title>Node14</title>
<g id="a_Node000014"><a xlink:href="integrate_8h.html" target="_top" xlink:title="Integrators for the HMC.">
<polygon fill="white" stroke="#666666" points="427.12,-295.5 366.12,-295.5 366.12,-276.25 427.12,-276.25 427.12,-295.5"/>
<text text-anchor="middle" x="396.62" y="-282" font-family="IBMPlexSans-Regular" font-size="10.00">integrate.h</text>
</a>
</g>
</g>
<!-- Node13&#45;&gt;Node14 -->
<g id="edge15_Node000013_Node000014" class="edge">
<title>Node13&#45;&gt;Node14</title>
<g id="a_edge15_Node000013_Node000014"><a xlink:title=" ">
<path fill="none" stroke="#63b8ff" d="M347.63,-331.09C355.99,-323.55 368.12,-312.6 378.23,-303.48"/>
<polygon fill="#63b8ff" stroke="#63b8ff" points="380.56,-306.09 385.64,-296.79 375.87,-300.89 380.56,-306.09"/>
</a>
</g>
</g>
<!-- Node16 -->
<g id="Node000016" class="node">
<title>Node16</title>
<g id="a_Node000016"><a xlink:title=" ">
<polygon fill="#e0e0e0" stroke="#999999" points="487.75,-295.5 445.5,-295.5 445.5,-276.25 487.75,-276.25 487.75,-295.5"/>
<text text-anchor="middle" x="466.62" y="-282" font-family="IBMPlexSans-Regular" font-size="10.00">time.h</text>
</a>
</g>
</g>
<!-- Node13&#45;&gt;Node16 -->
<g id="edge25_Node000013_Node000016" class="edge">
<title>Node13&#45;&gt;Node16</title>
<g id="a_edge25_Node000013_Node000016"><a xlink:title=" ">
<path fill="none" stroke="#63b8ff" d="M359.51,-331.09C380.11,-322.59 411.21,-309.75 434.6,-300.09"/>
<polygon fill="#63b8ff" stroke="#63b8ff" points="435.76,-303.4 443.67,-296.35 433.09,-296.93 435.76,-303.4"/>
</a>
</g>
</g>
<!-- Node14&#45;&gt;Node6 -->
<g id="edge21_Node000014_Node000006" class="edge">
<title>Node14&#45;&gt;Node6</title>
<g id="a_edge21_Node000014_Node000006"><a xlink:title=" ">
<path fill="none" stroke="#63b8ff" d="M409.14,-276.06C420.27,-267.77 436.46,-254.52 447.62,-240.25 481.68,-196.73 491.17,-183.35 504.62,-129.75 508.23,-115.39 508.35,-98.64 507.63,-85.89"/>
<polygon fill="#63b8ff" stroke="#63b8ff" points="511.15,-85.92 506.86,-76.23 504.17,-86.47 511.15,-85.92"/>
</a>
</g>
</g>
<!-- Node14&#45;&gt;Node9 -->
<g id="edge16_Node000014_Node000009" class="edge">
<title>Node14&#45;&gt;Node9</title>
<g id="a_edge16_Node000014_Node000009"><a xlink:title=" ">
<path fill="none" stroke="#63b8ff" d="M405.7,-275.83C413.62,-267.39 424.72,-254.04 430.62,-240.25 444.6,-207.61 448.4,-165.96 449.37,-141.55"/>
<polygon fill="#63b8ff" stroke="#63b8ff" points="452.86,-141.8 449.62,-131.72 445.87,-141.62 452.86,-141.8"/>
</a>
</g>
</g>
<!-- Node15 -->
<g id="Node000015" class="node">
<title>Node15</title>
<g id="a_Node000015"><a xlink:href="random_8h.html" target="_top" xlink:title="Header for random number configuration.">
<polygon fill="white" stroke="#666666" points="421.5,-240.25 365.75,-240.25 365.75,-221 421.5,-221 421.5,-240.25"/>
<text text-anchor="middle" x="393.62" y="-226.75" font-family="IBMPlexSans-Regular" font-size="10.00">random.h</text>
</a>
</g>
</g>
<!-- Node14&#45;&gt;Node15 -->
<g id="edge17_Node000014_Node000015" class="edge">
<title>Node14&#45;&gt;Node15</title>
<g id="a_edge17_Node000014_Node000015"><a xlink:title=" ">
<path fill="none" stroke="#63b8ff" d="M396.13,-276.08C395.76,-269.49 395.24,-260.21 394.76,-251.82"/>
<polygon fill="#63b8ff" stroke="#63b8ff" points="398.27,-251.91 394.22,-242.12 391.28,-252.3 398.27,-251.91"/>
</a>
</g>
</g>
<!-- Node15&#45;&gt;Node3 -->
<g id="edge19_Node000015_Node000003" class="edge">
<title>Node15&#45;&gt;Node3</title>
<g id="a_edge19_Node000015_Node000003"><a xlink:title=" ">
<path fill="none" stroke="#63b8ff" d="M374.46,-220.59C356.84,-212.29 330.47,-199.86 310.16,-190.29"/>
<polygon fill="#63b8ff" stroke="#63b8ff" points="311.8,-187.19 301.26,-186.1 308.81,-193.53 311.8,-187.19"/>
</a>
</g>
</g>
<!-- Node15&#45;&gt;Node5 -->
<g id="edge18_Node000015_Node000005" class="edge">
<title>Node15&#45;&gt;Node5</title>
<g id="a_edge18_Node000015_Node000005"><a xlink:title=" ">
<path fill="none" stroke="#63b8ff" d="M394.35,-220.5C395.58,-199.48 396.14,-146.68 374.62,-110.5 367.39,-98.34 355.47,-88.31 344.32,-80.87"/>
<polygon fill="#63b8ff" stroke="#63b8ff" points="346.48,-78.09 336.13,-75.79 342.79,-84.04 346.48,-78.09"/>
</a>
</g>
</g>
<!-- Node15&#45;&gt;Node6 -->
<g id="edge20_Node000015_Node000006" class="edge">
<title>Node15&#45;&gt;Node6</title>
<g id="a_edge20_Node000015_Node000006"><a xlink:title=" ">
<path fill="none" stroke="#63b8ff" d="M404.83,-220.67C424.3,-204.54 464.4,-168.62 486.62,-129.75 494.46,-116.05 499.34,-98.81 502.19,-85.7"/>
<polygon fill="#63b8ff" stroke="#63b8ff" points="505.58,-86.61 504.04,-76.13 498.71,-85.28 505.58,-86.61"/>
</a>
</g>
</g>
</g>
</svg>
