<?xml version="1.0" encoding="UTF-8" standalone="no"?>
<!DOCTYPE svg PUBLIC "-//W3C//DTD SVG 1.1//EN"
 "http://www.w3.org/Graphics/SVG/1.1/DTD/svg11.dtd">
<!-- Generated by graphviz version 12.1.2 (20240928.0832)
 -->
<!-- Title: Leapfrog Pages: 1 -->
<svg width="568pt" height="341pt"
 viewBox="0.00 0.00 568.00 341.25" xmlns="http://www.w3.org/2000/svg" xmlns:xlink="http://www.w3.org/1999/xlink">
<g id="graph0" class="graph" transform="scale(1 1) rotate(0) translate(4 337.25)">
<title>Leapfrog</title>
<!-- Node1 -->
<g id="Node000001" class="node">
<title>Node1</title>
<g id="a_Node000001"><a xlink:title="Leapfrog integrator. Each trajectory step takes the form of p&#45;&gt;p+dt/2,u&#45;&gt;u+dt,p&#45;&gt;p+dt/2 In practice t...">
<polygon fill="#999999" stroke="#666666" points="54.25,-74.25 0,-74.25 0,-55 54.25,-55 54.25,-74.25"/>
<text text-anchor="middle" x="27.12" y="-60.75" font-family="IBMPlexSans-Regular" font-size="10.00">Leapfrog</text>
</a>
</g>
</g>
<!-- Node1&#45;&gt;Node1 -->
<g id="edge21_Node000001_Node000001" class="edge">
<title>Node1&#45;&gt;Node1</title>
<g id="a_edge21_Node000001_Node000001"><a xlink:title=" ">
<path fill="none" stroke="#63b8ff" d="M9.3,-74.54C1.17,-83.15 7.11,-92.25 27.12,-92.25 38.07,-92.25 44.81,-89.53 47.34,-85.65"/>
<polygon fill="#63b8ff" stroke="#63b8ff" points="50.79,-85.06 45.27,-76.02 43.95,-86.53 50.79,-85.06"/>
</a>
</g>
</g>
<!-- Node2 -->
<g id="Node000002" class="node">
<title>Node2</title>
<g id="a_Node000002"><a xlink:href="force_8c.html#a40e5951024b2de0086a5f878963c6bae" target="_top" xlink:title="Calculates the force &#160;at each intermediate time.">
<polygon fill="white" stroke="#666666" points="161.38,-166.25 120.62,-166.25 120.62,-147 161.38,-147 161.38,-166.25"/>
<text text-anchor="middle" x="141" y="-152.75" font-family="IBMPlexSans-Regular" font-size="10.00">Force</text>
</a>
</g>
</g>
<!-- Node1&#45;&gt;Node2 -->
<g id="edge1_Node000001_Node000002" class="edge">
<title>Node1&#45;&gt;Node2</title>
<g id="a_edge1_Node000001_Node000002"><a xlink:title=" ">
<path fill="none" stroke="#63b8ff" d="M40.1,-74.47C58.92,-89.95 95.7,-120.19 118.99,-139.35"/>
<polygon fill="#63b8ff" stroke="#63b8ff" points="116.66,-141.96 126.61,-145.61 121.1,-136.55 116.66,-141.96"/>
</a>
</g>
</g>
<!-- Node16 -->
<g id="Node000016" class="node">
<title>Node16</title>
<g id="a_Node000016"><a xlink:href="integrate_8c.html#aad98b6e55d3f033e15cffc5b53b173ee" target="_top" xlink:title="Gauge update for the integration step of the HMC.">
<polygon fill="white" stroke="#666666" points="181.62,-74.25 100.38,-74.25 100.38,-55 181.62,-55 181.62,-74.25"/>
<text text-anchor="middle" x="141" y="-60.75" font-family="IBMPlexSans-Regular" font-size="10.00">Gauge_Update</text>
</a>
</g>
</g>
<!-- Node1&#45;&gt;Node16 -->
<g id="edge16_Node000001_Node000016" class="edge">
<title>Node1&#45;&gt;Node16</title>
<g id="a_edge16_Node000001_Node000016"><a xlink:title=" ">
<path fill="none" stroke="#63b8ff" d="M54.64,-64.62C64.92,-64.62 77.06,-64.62 88.9,-64.62"/>
<polygon fill="#63b8ff" stroke="#63b8ff" points="88.59,-68.13 98.59,-64.63 88.59,-61.13 88.59,-68.13"/>
</a>
</g>
</g>
<!-- Node19 -->
<g id="Node000019" class="node">
<title>Node19</title>
<g id="a_Node000019"><a xlink:href="integrate_8c.html#af1766f80334a88c142c09e8a1eb682f4" target="_top" xlink:title="Wrapper for the momentum update during the integration step of the HMC.">
<polygon fill="white" stroke="#666666" points="191.75,-19.25 90.25,-19.25 90.25,0 191.75,0 191.75,-19.25"/>
<text text-anchor="middle" x="141" y="-5.75" font-family="IBMPlexSans-Regular" font-size="10.00">Momentum_Update</text>
</a>
</g>
</g>
<!-- Node1&#45;&gt;Node19 -->
<g id="edge22_Node000001_Node000019" class="edge">
<title>Node1&#45;&gt;Node19</title>
<g id="a_edge22_Node000001_Node000019"><a xlink:title=" ">
<path fill="none" stroke="#63b8ff" d="M48.64,-54.54C65.68,-46.16 90.15,-34.13 109.48,-24.63"/>
<polygon fill="#63b8ff" stroke="#63b8ff" points="110.82,-27.87 118.25,-20.32 107.73,-21.59 110.82,-27.87"/>
</a>
</g>
</g>
<!-- Node3 -->
<g id="Node000003" class="node">
<title>Node3</title>
<g id="a_Node000003"><a xlink:href="congrad_8c.html#aa32f0774e38a36310209b44a2abae8e6" target="_top" xlink:title="Matrix Inversion via Conjugate Gradient (up/down flavour partitioning). Solves &#160;Implements up/down pa...">
<polygon fill="white" stroke="#666666" points="299.62,-259.25 242.38,-259.25 242.38,-240 299.62,-240 299.62,-259.25"/>
<text text-anchor="middle" x="271" y="-245.75" font-family="IBMPlexSans-Regular" font-size="10.00">Congradq</text>
</a>
</g>
</g>
<!-- Node2&#45;&gt;Node3 -->
<g id="edge2_Node000002_Node000003" class="edge">
<title>Node2&#45;&gt;Node3</title>
<g id="a_edge2_Node000002_Node000003"><a xlink:title=" ">
<path fill="none" stroke="#63b8ff" d="M151.46,-166.75C166.45,-182.32 197.1,-212.38 227.75,-231.62 229.37,-232.65 231.07,-233.63 232.8,-234.58"/>
<polygon fill="#63b8ff" stroke="#63b8ff" points="231.11,-237.65 241.63,-238.96 234.22,-231.38 231.11,-237.65"/>
</a>
</g>
</g>
<!-- Node9 -->
<g id="Node000009" class="node">
<title>Node9</title>
<g id="a_Node000009"><a xlink:href="su2hmc_8c.html#ad4816b4c3599a65d212f34e10c83055f" target="_top" xlink:title=" ">
<polygon fill="white" stroke="#666666" points="310.12,-222.25 231.88,-222.25 231.88,-203 310.12,-203 310.12,-222.25"/>
<text text-anchor="middle" x="271" y="-208.75" font-family="IBMPlexSans-Regular" font-size="10.00">Fill_Small_Phi</text>
</a>
</g>
</g>
<!-- Node2&#45;&gt;Node9 -->
<g id="edge9_Node000002_Node000009" class="edge">
<title>Node2&#45;&gt;Node9</title>
<g id="a_edge9_Node000002_Node000009"><a xlink:title=" ">
<path fill="none" stroke="#63b8ff" d="M161.72,-165.46C179.08,-173.21 205.05,-184.76 227.75,-194.62 230.37,-195.77 233.09,-196.94 235.83,-198.12"/>
<polygon fill="#63b8ff" stroke="#63b8ff" points="234.33,-201.28 244.9,-202 237.08,-194.85 234.33,-201.28"/>
</a>
</g>
</g>
<!-- Node10 -->
<g id="Node000010" class="node">
<title>Node10</title>
<g id="a_Node000010"><a xlink:href="force_8c.html#a45c04d32a0a22833e0ed90db2baf454d" target="_top" xlink:title="Calculates the gauge force due to the Wilson Action at each intermediate time.">
<polygon fill="white" stroke="#666666" points="306.75,-185.25 235.25,-185.25 235.25,-166 306.75,-166 306.75,-185.25"/>
<text text-anchor="middle" x="271" y="-171.75" font-family="IBMPlexSans-Regular" font-size="10.00">Gauge_force</text>
</a>
</g>
</g>
<!-- Node2&#45;&gt;Node10 -->
<g id="edge10_Node000002_Node000010" class="edge">
<title>Node2&#45;&gt;Node10</title>
<g id="a_edge10_Node000002_Node000010"><a xlink:title=" ">
<path fill="none" stroke="#63b8ff" d="M161.72,-159.55C178.19,-162 202.32,-165.58 223.63,-168.74"/>
<polygon fill="#63b8ff" stroke="#63b8ff" points="222.88,-172.17 233.29,-170.18 223.91,-165.24 222.88,-172.17"/>
</a>
</g>
</g>
<!-- Node13 -->
<g id="Node000013" class="node">
<title>Node13</title>
<g id="a_Node000013"><a xlink:href="matrices_8c.html#aa9c3d535a95a3dd48438717eb8d71893" target="_top" xlink:title="Evaluates &#160;in double precision.">
<polygon fill="white" stroke="#666666" points="297,-148.25 245,-148.25 245,-129 297,-129 297,-148.25"/>
<text text-anchor="middle" x="271" y="-134.75" font-family="IBMPlexSans-Regular" font-size="10.00">Hdslash</text>
</a>
</g>
</g>
<!-- Node2&#45;&gt;Node13 -->
<g id="edge13_Node000002_Node000013" class="edge">
<title>Node2&#45;&gt;Node13</title>
<g id="a_edge13_Node000002_Node000013"><a xlink:title=" ">
<path fill="none" stroke="#63b8ff" d="M161.72,-153.85C180.8,-151.17 210.17,-147.04 233.51,-143.76"/>
<polygon fill="#63b8ff" stroke="#63b8ff" points="233.83,-147.25 243.25,-142.39 232.86,-140.31 233.83,-147.25"/>
</a>
</g>
</g>
<!-- Node15 -->
<g id="Node000015" class="node">
<title>Node15</title>
<g id="a_Node000015"><a xlink:href="par__mpi_8h.html#a893a7c85fb77e355d4cec6bc35711b98" target="_top" xlink:title="Swaps the halos along the axis given by idir in the direction given by layer.">
<polygon fill="white" stroke="#666666" points="314.25,-111.25 227.75,-111.25 227.75,-92 314.25,-92 314.25,-111.25"/>
<text text-anchor="middle" x="271" y="-97.75" font-family="IBMPlexSans-Regular" font-size="10.00">ZHalo_swap_dir</text>
</a>
</g>
</g>
<!-- Node2&#45;&gt;Node15 -->
<g id="edge15_Node000002_Node000015" class="edge">
<title>Node2&#45;&gt;Node15</title>
<g id="a_edge15_Node000002_Node000015"><a xlink:title=" ">
<path fill="none" stroke="#63b8ff" d="M161.74,-148.08C179.12,-140.56 205.1,-129.34 227.75,-119.62 230.38,-118.5 233.1,-117.33 235.84,-116.16"/>
<polygon fill="#63b8ff" stroke="#63b8ff" points="237.09,-119.43 244.91,-112.29 234.34,-113 237.09,-119.43"/>
</a>
</g>
</g>
<!-- Node4 -->
<g id="Node000004" class="node">
<title>Node4</title>
<g id="a_Node000004"><a xlink:href="matrices_8c.html#a17eb50d07c881fc5d1585ddf14aa1ff0" target="_top" xlink:title="Evaluates &#160;in single precision.">
<polygon fill="white" stroke="#666666" points="424,-333.25 363.75,-333.25 363.75,-314 424,-314 424,-333.25"/>
<text text-anchor="middle" x="393.88" y="-319.75" font-family="IBMPlexSans-Regular" font-size="10.00">Hdslash_f</text>
</a>
</g>
</g>
<!-- Node3&#45;&gt;Node4 -->
<g id="edge3_Node000003_Node000004" class="edge">
<title>Node3&#45;&gt;Node4</title>
<g id="a_edge3_Node000003_Node000004"><a xlink:title=" ">
<path fill="none" stroke="#63b8ff" d="M284.17,-259.64C299.09,-271.61 325.47,-291.75 350.25,-305.62 352.28,-306.76 354.39,-307.87 356.54,-308.94"/>
<polygon fill="#63b8ff" stroke="#63b8ff" points="354.82,-312 365.37,-313.03 357.77,-305.65 354.82,-312"/>
</a>
</g>
</g>
<!-- Node6 -->
<g id="Node000006" class="node">
<title>Node6</title>
<g id="a_Node000006"><a xlink:href="matrices_8c.html#a87e3179e3c6947eacfa74ada59aaeb0c" target="_top" xlink:title="Evaluates &#160;in single precision.">
<polygon fill="white" stroke="#666666" points="426.62,-296.25 361.12,-296.25 361.12,-277 426.62,-277 426.62,-296.25"/>
<text text-anchor="middle" x="393.88" y="-282.75" font-family="IBMPlexSans-Regular" font-size="10.00">Hdslashd_f</text>
</a>
</g>
</g>
<!-- Node3&#45;&gt;Node6 -->
<g id="edge5_Node000003_Node000006" class="edge">
<title>Node3&#45;&gt;Node6</title>
<g id="a_edge5_Node000003_Node000006"><a xlink:title=" ">
<path fill="none" stroke="#63b8ff" d="M300.03,-258.21C314.91,-262.76 333.5,-268.45 350.13,-273.54"/>
<polygon fill="#63b8ff" stroke="#63b8ff" points="348.69,-276.76 359.27,-276.34 350.74,-270.07 348.69,-276.76"/>
</a>
</g>
</g>
<!-- Node7 -->
<g id="Node000007" class="node">
<title>Node7</title>
<g id="a_Node000007"><a xlink:href="par__mpi_8h.html#aecfe9840e5f8dfd693b813b750d81a0c" target="_top" xlink:title="Performs a reduction on a double dval to get a sum which is then distributed to all ranks.">
<polygon fill="white" stroke="#666666" points="424,-259.25 363.75,-259.25 363.75,-240 424,-240 424,-259.25"/>
<text text-anchor="middle" x="393.88" y="-245.75" font-family="IBMPlexSans-Regular" font-size="10.00">Par_dsum</text>
</a>
</g>
</g>
<!-- Node3&#45;&gt;Node7 -->
<g id="edge7_Node000003_Node000007" class="edge">
<title>Node3&#45;&gt;Node7</title>
<g id="a_edge7_Node000003_Node000007"><a xlink:title=" ">
<path fill="none" stroke="#63b8ff" d="M300.03,-249.62C315.45,-249.62 334.85,-249.62 351.93,-249.62"/>
<polygon fill="#63b8ff" stroke="#63b8ff" points="351.79,-253.13 361.79,-249.63 351.79,-246.13 351.79,-253.13"/>
</a>
</g>
</g>
<!-- Node8 -->
<g id="Node000008" class="node">
<title>Node8</title>
<g id="a_Node000008"><a xlink:href="par__mpi_8h.html#a4e2e85b06c5b05c5181729cc5ebdd05b" target="_top" xlink:title="Performs a reduction on a float dval to get a sum which is then distributed to all ranks.">
<polygon fill="white" stroke="#666666" points="422.88,-222.25 364.88,-222.25 364.88,-203 422.88,-203 422.88,-222.25"/>
<text text-anchor="middle" x="393.88" y="-208.75" font-family="IBMPlexSans-Regular" font-size="10.00">Par_fsum</text>
</a>
</g>
</g>
<!-- Node3&#45;&gt;Node8 -->
<g id="edge8_Node000003_Node000008" class="edge">
<title>Node3&#45;&gt;Node8</title>
<g id="a_edge8_Node000003_Node000008"><a xlink:title=" ">
<path fill="none" stroke="#63b8ff" d="M300.03,-241.04C316.09,-236.13 336.48,-229.89 354.06,-224.51"/>
<polygon fill="#63b8ff" stroke="#63b8ff" points="354.59,-228 363.13,-221.73 352.54,-221.31 354.59,-228"/>
</a>
</g>
</g>
<!-- Node5 -->
<g id="Node000005" class="node">
<title>Node5</title>
<g id="a_Node000005"><a xlink:href="par__mpi_8h.html#a14b1a550ef4f44a9e4d7dd06c9427993" target="_top" xlink:title="Calls the functions to send data to both the up and down halos.">
<polygon fill="white" stroke="#666666" points="560,-314.25 473.5,-314.25 473.5,-295 560,-295 560,-314.25"/>
<text text-anchor="middle" x="516.75" y="-300.75" font-family="IBMPlexSans-Regular" font-size="10.00">CHalo_swap_all</text>
</a>
</g>
</g>
<!-- Node4&#45;&gt;Node5 -->
<g id="edge4_Node000004_Node000005" class="edge">
<title>Node4&#45;&gt;Node5</title>
<g id="a_edge4_Node000004_Node000005"><a xlink:title=" ">
<path fill="none" stroke="#63b8ff" d="M424.44,-318.98C435.8,-317.19 449.13,-315.1 462.06,-313.06"/>
<polygon fill="#63b8ff" stroke="#63b8ff" points="462.41,-316.55 471.75,-311.54 461.33,-309.64 462.41,-316.55"/>
</a>
</g>
</g>
<!-- Node6&#45;&gt;Node5 -->
<g id="edge6_Node000006_Node000005" class="edge">
<title>Node6&#45;&gt;Node5</title>
<g id="a_edge6_Node000006_Node000005"><a xlink:title=" ">
<path fill="none" stroke="#63b8ff" d="M426.95,-291.4C437.66,-293 449.9,-294.82 461.8,-296.59"/>
<polygon fill="#63b8ff" stroke="#63b8ff" points="461.14,-300.03 471.55,-298.04 462.18,-293.11 461.14,-300.03"/>
</a>
</g>
</g>
<!-- Node11 -->
<g id="Node000011" class="node">
<title>Node11</title>
<g id="a_Node000011"><a xlink:href="su2hmc_8c.html#af64f1450e29df479f82290bc4f7bdc1f" target="_top" xlink:title="Extracts all the single precision gauge links in the &#160;direction only.">
<polygon fill="white" stroke="#666666" points="421.38,-185.25 366.38,-185.25 366.38,-166 421.38,-166 421.38,-185.25"/>
<text text-anchor="middle" x="393.88" y="-171.75" font-family="IBMPlexSans-Regular" font-size="10.00">C_gather</text>
</a>
</g>
</g>
<!-- Node10&#45;&gt;Node11 -->
<g id="edge11_Node000010_Node000011" class="edge">
<title>Node10&#45;&gt;Node11</title>
<g id="a_edge11_Node000010_Node000011"><a xlink:title=" ">
<path fill="none" stroke="#63b8ff" d="M306.96,-175.62C321.96,-175.62 339.53,-175.62 354.85,-175.62"/>
<polygon fill="#63b8ff" stroke="#63b8ff" points="354.54,-179.13 364.54,-175.63 354.54,-172.13 354.54,-179.13"/>
</a>
</g>
</g>
<!-- Node12 -->
<g id="Node000012" class="node">
<title>Node12</title>
<g id="a_Node000012"><a xlink:href="par__mpi_8h.html#ab73329ce6f65730ba4783a8031edd518" target="_top" xlink:title="Swaps the halos along the axis given by idir in the direction given by layer.">
<polygon fill="white" stroke="#666666" points="437.5,-148.25 350.25,-148.25 350.25,-129 437.5,-129 437.5,-148.25"/>
<text text-anchor="middle" x="393.88" y="-134.75" font-family="IBMPlexSans-Regular" font-size="10.00">CHalo_swap_dir</text>
</a>
</g>
</g>
<!-- Node10&#45;&gt;Node12 -->
<g id="edge12_Node000010_Node000012" class="edge">
<title>Node10&#45;&gt;Node12</title>
<g id="a_edge12_Node000010_Node000012"><a xlink:title=" ">
<path fill="none" stroke="#63b8ff" d="M305.03,-165.51C318.62,-161.35 334.56,-156.48 349.1,-152.02"/>
<polygon fill="#63b8ff" stroke="#63b8ff" points="349.9,-155.44 358.44,-149.17 347.85,-148.75 349.9,-155.44"/>
</a>
</g>
</g>
<!-- Node14 -->
<g id="Node000014" class="node">
<title>Node14</title>
<g id="a_Node000014"><a xlink:href="par__mpi_8h.html#a35d208a5a65e71101e71d3f0248aef03" target="_top" xlink:title="Calls the functions to send data to both the up and down halos.">
<polygon fill="white" stroke="#666666" points="436.75,-74.25 351,-74.25 351,-55 436.75,-55 436.75,-74.25"/>
<text text-anchor="middle" x="393.88" y="-60.75" font-family="IBMPlexSans-Regular" font-size="10.00">ZHalo_swap_all</text>
</a>
</g>
</g>
<!-- Node13&#45;&gt;Node14 -->
<g id="edge14_Node000013_Node000014" class="edge">
<title>Node13&#45;&gt;Node14</title>
<g id="a_edge14_Node000013_Node000014"><a xlink:title=" ">
<path fill="none" stroke="#63b8ff" d="M297.45,-128.84C303.09,-126.38 308.96,-123.59 314.25,-120.62 334.83,-109.09 356.55,-93.31 371.94,-81.44"/>
<polygon fill="#63b8ff" stroke="#63b8ff" points="373.73,-84.48 379.44,-75.56 369.41,-78.97 373.73,-84.48"/>
</a>
</g>
</g>
<!-- Node16&#45;&gt;Node16 -->
<g id="edge17_Node000016_Node000016" class="edge">
<title>Node16&#45;&gt;Node16</title>
<g id="a_edge17_Node000016_Node000016"><a xlink:title=" ">
<path fill="none" stroke="#63b8ff" d="M123.17,-74.54C115.04,-83.15 120.98,-92.25 141,-92.25 151.95,-92.25 158.68,-89.53 161.21,-85.65"/>
<polygon fill="#63b8ff" stroke="#63b8ff" points="164.67,-85.06 159.15,-76.02 157.82,-86.53 164.67,-85.06"/>
</a>
</g>
</g>
<!-- Node17 -->
<g id="Node000017" class="node">
<title>Node17</title>
<g id="a_Node000017"><a xlink:href="matrices_8c.html#a998120d21faa6bf801710ae86f3d918b" target="_top" xlink:title="Reunitarises u11t and u12t as in conj(u11t[i])*u11t[i]+conj(u12t[i])*u12t[i]=1.">
<polygon fill="white" stroke="#666666" points="303.38,-74.25 238.62,-74.25 238.62,-55 303.38,-55 303.38,-74.25"/>
<text text-anchor="middle" x="271" y="-60.75" font-family="IBMPlexSans-Regular" font-size="10.00">Reunitarise</text>
</a>
</g>
</g>
<!-- Node16&#45;&gt;Node17 -->
<g id="edge18_Node000016_Node000017" class="edge">
<title>Node16&#45;&gt;Node17</title>
<g id="a_edge18_Node000016_Node000017"><a xlink:title=" ">
<path fill="none" stroke="#63b8ff" d="M181.8,-64.62C196.16,-64.62 212.43,-64.62 227.05,-64.62"/>
<polygon fill="#63b8ff" stroke="#63b8ff" points="226.84,-68.13 236.84,-64.63 226.84,-61.13 226.84,-68.13"/>
</a>
</g>
</g>
<!-- Node18 -->
<g id="Node000018" class="node">
<title>Node18</title>
<g id="a_Node000018"><a xlink:href="par__mpi_8c.html#aa988b87ed44e79f217a03e824c9d484e" target="_top" xlink:title="Exchanges the trial fields.">
<polygon fill="white" stroke="#666666" points="312,-37.25 230,-37.25 230,-18 312,-18 312,-37.25"/>
<text text-anchor="middle" x="271" y="-23.75" font-family="IBMPlexSans-Regular" font-size="10.00">Trial_Exchange</text>
</a>
</g>
</g>
<!-- Node16&#45;&gt;Node18 -->
<g id="edge19_Node000016_Node000018" class="edge">
<title>Node16&#45;&gt;Node18</title>
<g id="a_edge19_Node000016_Node000018"><a xlink:title=" ">
<path fill="none" stroke="#63b8ff" d="M176.98,-54.51C191.51,-50.31 208.58,-45.38 224.1,-40.89"/>
<polygon fill="#63b8ff" stroke="#63b8ff" points="224.98,-44.28 233.61,-38.14 223.03,-37.56 224.98,-44.28"/>
</a>
</g>
</g>
<!-- Node18&#45;&gt;Node14 -->
<g id="edge20_Node000018_Node000014" class="edge">
<title>Node18&#45;&gt;Node14</title>
<g id="a_edge20_Node000018_Node000014"><a xlink:title=" ">
<path fill="none" stroke="#63b8ff" d="M305.03,-37.74C318.62,-41.9 334.56,-46.77 349.1,-51.23"/>
<polygon fill="#63b8ff" stroke="#63b8ff" points="347.85,-54.5 358.44,-54.08 349.9,-47.81 347.85,-54.5"/>
</a>
</g>
</g>
<!-- Node19&#45;&gt;Node19 -->
<g id="edge23_Node000019_Node000019" class="edge">
<title>Node19&#45;&gt;Node19</title>
<g id="a_edge23_Node000019_Node000019"><a xlink:title=" ">
<path fill="none" stroke="#63b8ff" d="M123.17,-19.54C115.04,-28.15 120.98,-37.25 141,-37.25 151.95,-37.25 158.68,-34.53 161.21,-30.65"/>
<polygon fill="#63b8ff" stroke="#63b8ff" points="164.67,-30.06 159.15,-21.02 157.82,-31.53 164.67,-30.06"/>
</a>
</g>
</g>
</g>
</svg>
