<?xml version="1.0" encoding="UTF-8" standalone="no"?>
<!DOCTYPE svg PUBLIC "-//W3C//DTD SVG 1.1//EN"
 "http://www.w3.org/Graphics/SVG/1.1/DTD/svg11.dtd">
<!-- Generated by graphviz version 12.1.2 (20240928.0832)
 -->
<!-- Title: Gauge_Update Pages: 1 -->
<svg width="180pt" height="155pt"
 viewBox="0.00 0.00 179.50 155.25" xmlns="http://www.w3.org/2000/svg" xmlns:xlink="http://www.w3.org/1999/xlink">
<g id="graph0" class="graph" transform="scale(1 1) rotate(0) translate(4 151.25)">
<title>Gauge_Update</title>
<!-- Node1 -->
<g id="Node000001" class="node">
<title>Node1</title>
<g id="a_Node000001"><a xlink:title="Gauge update for the integration step of the HMC.">
<polygon fill="#999999" stroke="#666666" points="171.5,-74.25 90.25,-74.25 90.25,-55 171.5,-55 171.5,-74.25"/>
<text text-anchor="middle" x="130.88" y="-60.75" font-family="IBMPlexSans-Regular" font-size="10.00">Gauge_Update</text>
</a>
</g>
</g>
<!-- Node1&#45;&gt;Node1 -->
<g id="edge1_Node000001_Node000001" class="edge">
<title>Node1&#45;&gt;Node1</title>
<g id="a_edge1_Node000001_Node000001"><a xlink:title=" ">
<path fill="none" stroke="#63b8ff" d="M149.29,-85.65C146.99,-89.53 140.85,-92.25 130.88,-92.25 112.64,-92.25 107.22,-83.15 114.63,-74.54"/>
<polygon fill="#63b8ff" stroke="#63b8ff" points="152.76,-85.17 147.41,-76.02 145.89,-86.51 152.76,-85.17"/>
</a>
</g>
</g>
<!-- Node2 -->
<g id="Node000002" class="node">
<title>Node2</title>
<g id="a_Node000002"><a xlink:href="integrate_8c.html#ae4e13e66dc0e7130825c11648f2ad80c" target="_top" xlink:title="Leapfrog integrator. Each trajectory step takes the form of p&#45;&gt;p+dt/2,u&#45;&gt;u+dt,p&#45;&gt;p+dt/2 In practice t...">
<polygon fill="white" stroke="#666666" points="54.25,-129.25 0,-129.25 0,-110 54.25,-110 54.25,-129.25"/>
<text text-anchor="middle" x="27.12" y="-115.75" font-family="IBMPlexSans-Regular" font-size="10.00">Leapfrog</text>
</a>
</g>
</g>
<!-- Node1&#45;&gt;Node2 -->
<g id="edge2_Node000001_Node000002" class="edge">
<title>Node1&#45;&gt;Node2</title>
<g id="a_edge2_Node000001_Node000002"><a xlink:title=" ">
<path fill="none" stroke="#63b8ff" d="M101.49,-79.97C83.97,-89.44 61.98,-101.32 46.67,-109.6"/>
<polygon fill="#63b8ff" stroke="#63b8ff" points="102.75,-83.27 109.88,-75.43 99.42,-77.11 102.75,-83.27"/>
</a>
</g>
</g>
<!-- Node3 -->
<g id="Node000003" class="node">
<title>Node3</title>
<g id="a_Node000003"><a xlink:href="integrate_8c.html#a44f16170b5e3c92646f2e649ee57da3d" target="_top" xlink:title="OMF integrator. Each trajectory step takes the form of p&#45;&gt;p+dt/2,u&#45;&gt;u+dt,p&#45;&gt;p+dt/2 In practice this i...">
<polygon fill="white" stroke="#666666" points="48.62,-74.25 5.62,-74.25 5.62,-55 48.62,-55 48.62,-74.25"/>
<text text-anchor="middle" x="27.12" y="-60.75" font-family="IBMPlexSans-Regular" font-size="10.00">OMF2</text>
</a>
</g>
</g>
<!-- Node1&#45;&gt;Node3 -->
<g id="edge4_Node000001_Node000003" class="edge">
<title>Node1&#45;&gt;Node3</title>
<g id="a_edge4_Node000001_Node000003"><a xlink:title=" ">
<path fill="none" stroke="#63b8ff" d="M78.61,-64.62C68.09,-64.62 57.59,-64.62 48.91,-64.62"/>
<polygon fill="#63b8ff" stroke="#63b8ff" points="78.44,-68.13 88.44,-64.63 78.44,-61.13 78.44,-68.13"/>
</a>
</g>
</g>
<!-- Node4 -->
<g id="Node000004" class="node">
<title>Node4</title>
<g id="a_Node000004"><a xlink:href="integrate_8c.html#a5bbed189bcdd47d814585aa7e842bb8e" target="_top" xlink:title=" ">
<polygon fill="white" stroke="#666666" points="48.62,-19.25 5.62,-19.25 5.62,0 48.62,0 48.62,-19.25"/>
<text text-anchor="middle" x="27.12" y="-5.75" font-family="IBMPlexSans-Regular" font-size="10.00">OMF4</text>
</a>
</g>
</g>
<!-- Node1&#45;&gt;Node4 -->
<g id="edge6_Node000001_Node000004" class="edge">
<title>Node1&#45;&gt;Node4</title>
<g id="a_edge6_Node000001_Node000004"><a xlink:title=" ">
<path fill="none" stroke="#63b8ff" d="M101.49,-49.28C83.97,-39.81 61.98,-27.93 46.67,-19.65"/>
<polygon fill="#63b8ff" stroke="#63b8ff" points="99.42,-52.14 109.88,-53.82 102.75,-45.98 99.42,-52.14"/>
</a>
</g>
</g>
<!-- Node2&#45;&gt;Node2 -->
<g id="edge3_Node000002_Node000002" class="edge">
<title>Node2&#45;&gt;Node2</title>
<g id="a_edge3_Node000002_Node000002"><a xlink:title=" ">
<path fill="none" stroke="#63b8ff" d="M45.54,-140.65C43.24,-144.53 37.1,-147.25 27.12,-147.25 8.89,-147.25 3.47,-138.15 10.88,-129.54"/>
<polygon fill="#63b8ff" stroke="#63b8ff" points="49.01,-140.17 43.66,-131.02 42.14,-141.51 49.01,-140.17"/>
</a>
</g>
</g>
<!-- Node3&#45;&gt;Node3 -->
<g id="edge5_Node000003_Node000003" class="edge">
<title>Node3&#45;&gt;Node3</title>
<g id="a_edge5_Node000003_Node000003"><a xlink:title=" ">
<path fill="none" stroke="#63b8ff" d="M45.54,-85.65C43.24,-89.53 37.1,-92.25 27.12,-92.25 8.89,-92.25 3.47,-83.15 10.88,-74.54"/>
<polygon fill="#63b8ff" stroke="#63b8ff" points="49.01,-85.17 43.66,-76.02 42.14,-86.51 49.01,-85.17"/>
</a>
</g>
</g>
<!-- Node4&#45;&gt;Node4 -->
<g id="edge7_Node000004_Node000004" class="edge">
<title>Node4&#45;&gt;Node4</title>
<g id="a_edge7_Node000004_Node000004"><a xlink:title=" ">
<path fill="none" stroke="#63b8ff" d="M45.54,-30.65C43.24,-34.53 37.1,-37.25 27.12,-37.25 8.89,-37.25 3.47,-28.15 10.88,-19.54"/>
<polygon fill="#63b8ff" stroke="#63b8ff" points="49.01,-30.17 43.66,-21.02 42.14,-31.51 49.01,-30.17"/>
</a>
</g>
</g>
</g>
</svg>
