<?xml version="1.0" encoding="UTF-8" standalone="no"?>
<!DOCTYPE svg PUBLIC "-//W3C//DTD SVG 1.1//EN"
 "http://www.w3.org/Graphics/SVG/1.1/DTD/svg11.dtd">
<!-- Generated by graphviz version 12.2.1 (20241206.2353)
 -->
<!-- Title: Leapfrog Pages: 1 -->
<svg width="568pt" height="323pt"
 viewBox="0.00 0.00 568.00 323.25" xmlns="http://www.w3.org/2000/svg" xmlns:xlink="http://www.w3.org/1999/xlink">
<g id="graph0" class="graph" transform="scale(1 1) rotate(0) translate(4 319.25)">
<title>Leapfrog</title>
<!-- Node1 -->
<g id="Node000001" class="node">
<title>Node1</title>
<g id="a_Node000001"><a xlink:title="Leapfrog integrator. Each trajectory step takes the form of p&#45;&gt;p+dt/2,u&#45;&gt;u+dt,p&#45;&gt;p+dt/2 In practice t...">
<polygon fill="#999999" stroke="#666666" points="54.25,-56.25 0,-56.25 0,-37 54.25,-37 54.25,-56.25"/>
<text text-anchor="middle" x="27.12" y="-42.75" font-family="IBMPlexSans-Regular" font-size="10.00">Leapfrog</text>
</a>
</g>
</g>
<!-- Node2 -->
<g id="Node000002" class="node">
<title>Node2</title>
<g id="a_Node000002"><a xlink:href="force_8c.html#a98a5926c20124e0cea060ad1e47ff3de" target="_top" xlink:title="Calculates the force &#160;at each intermediate time.">
<polygon fill="white" stroke="#666666" points="161.38,-167.25 120.62,-167.25 120.62,-148 161.38,-148 161.38,-167.25"/>
<text text-anchor="middle" x="141" y="-153.75" font-family="IBMPlexSans-Regular" font-size="10.00">Force</text>
</a>
</g>
</g>
<!-- Node1&#45;&gt;Node2 -->
<g id="edge1_Node000001_Node000002" class="edge">
<title>Node1&#45;&gt;Node2</title>
<g id="a_edge1_Node000001_Node000002"><a xlink:title=" ">
<path fill="none" stroke="#63b8ff" d="M38.05,-56.48C56.91,-75.19 98.16,-116.12 122.01,-139.78"/>
<polygon fill="#63b8ff" stroke="#63b8ff" points="119.29,-142.01 128.86,-146.57 124.23,-137.04 119.29,-142.01"/>
</a>
</g>
</g>
<!-- Node16 -->
<g id="Node000016" class="node">
<title>Node16</title>
<g id="a_Node000016"><a xlink:href="integrate_8c.html#ab9fe12be80cd3768ce2adf2be02a1d4b" target="_top" xlink:title="Gauge update for the integration step of the HMC.">
<polygon fill="white" stroke="#666666" points="181.62,-56.25 100.38,-56.25 100.38,-37 181.62,-37 181.62,-56.25"/>
<text text-anchor="middle" x="141" y="-42.75" font-family="IBMPlexSans-Regular" font-size="10.00">Gauge_Update</text>
</a>
</g>
</g>
<!-- Node1&#45;&gt;Node16 -->
<g id="edge17_Node000001_Node000016" class="edge">
<title>Node1&#45;&gt;Node16</title>
<g id="a_edge17_Node000001_Node000016"><a xlink:title=" ">
<path fill="none" stroke="#63b8ff" d="M54.64,-46.62C64.92,-46.62 77.06,-46.62 88.9,-46.62"/>
<polygon fill="#63b8ff" stroke="#63b8ff" points="88.59,-50.13 98.59,-46.63 88.59,-43.13 88.59,-50.13"/>
</a>
</g>
</g>
<!-- Node19 -->
<g id="Node000019" class="node">
<title>Node19</title>
<g id="a_Node000019"><a xlink:href="integrate_8c.html#af1766f80334a88c142c09e8a1eb682f4" target="_top" xlink:title="Wrapper for the momentum update during the integration step of the HMC.">
<polygon fill="white" stroke="#666666" points="191.75,-19.25 90.25,-19.25 90.25,0 191.75,0 191.75,-19.25"/>
<text text-anchor="middle" x="141" y="-5.75" font-family="IBMPlexSans-Regular" font-size="10.00">Momentum_Update</text>
</a>
</g>
</g>
<!-- Node1&#45;&gt;Node19 -->
<g id="edge21_Node000001_Node000019" class="edge">
<title>Node1&#45;&gt;Node19</title>
<g id="a_edge21_Node000001_Node000019"><a xlink:title=" ">
<path fill="none" stroke="#63b8ff" d="M54.64,-37.86C67.82,-33.5 84.05,-28.13 98.8,-23.25"/>
<polygon fill="#63b8ff" stroke="#63b8ff" points="99.89,-26.58 108.29,-20.11 97.69,-19.93 99.89,-26.58"/>
</a>
</g>
</g>
<!-- Node3 -->
<g id="Node000003" class="node">
<title>Node3</title>
<g id="a_Node000003"><a xlink:href="congrad_8c.html#a4b97a088fd74bb3b25ce4f965dc26281" target="_top" xlink:title="Matrix Inversion via Conjugate Gradient (up/down flavour partitioning). Solves &#160;Implements up/down pa...">
<polygon fill="white" stroke="#666666" points="299.62,-241.25 242.38,-241.25 242.38,-222 299.62,-222 299.62,-241.25"/>
<text text-anchor="middle" x="271" y="-227.75" font-family="IBMPlexSans-Regular" font-size="10.00">Congradq</text>
</a>
</g>
</g>
<!-- Node2&#45;&gt;Node3 -->
<g id="edge2_Node000002_Node000003" class="edge">
<title>Node2&#45;&gt;Node3</title>
<g id="a_edge2_Node000002_Node000003"><a xlink:title=" ">
<path fill="none" stroke="#63b8ff" d="M155.8,-167.73C172.36,-179.6 201.25,-199.47 227.75,-213.62 229.84,-214.74 232.01,-215.84 234.22,-216.91"/>
<polygon fill="#63b8ff" stroke="#63b8ff" points="232.71,-220.07 243.26,-221.05 235.62,-213.7 232.71,-220.07"/>
</a>
</g>
</g>
<!-- Node4 -->
<g id="Node000004" class="node">
<title>Node4</title>
<g id="a_Node000004"><a xlink:href="matrices_8c.html#a68e018d0a9d3c7ae5e175f87da75d881" target="_top" xlink:title="Evaluates &#160;in single precision.">
<polygon fill="white" stroke="#666666" points="424,-315.25 363.75,-315.25 363.75,-296 424,-296 424,-315.25"/>
<text text-anchor="middle" x="393.88" y="-301.75" font-family="IBMPlexSans-Regular" font-size="10.00">Hdslash_f</text>
</a>
</g>
</g>
<!-- Node2&#45;&gt;Node4 -->
<g id="edge15_Node000002_Node000004" class="edge">
<title>Node2&#45;&gt;Node4</title>
<g id="a_edge15_Node000002_Node000004"><a xlink:title=" ">
<path fill="none" stroke="#63b8ff" d="M148.56,-167.57C161.49,-186.44 192.15,-227.62 227.75,-250.62 266.28,-275.53 317.19,-290.24 352.25,-298.09"/>
<polygon fill="#63b8ff" stroke="#63b8ff" points="351.49,-301.5 362,-300.17 352.96,-294.66 351.49,-301.5"/>
</a>
</g>
</g>
<!-- Node9 -->
<g id="Node000009" class="node">
<title>Node9</title>
<g id="a_Node000009"><a xlink:href="su2hmc_8c.html#ad4816b4c3599a65d212f34e10c83055f" target="_top" xlink:title=" ">
<polygon fill="white" stroke="#666666" points="310.12,-204.25 231.88,-204.25 231.88,-185 310.12,-185 310.12,-204.25"/>
<text text-anchor="middle" x="271" y="-190.75" font-family="IBMPlexSans-Regular" font-size="10.00">Fill_Small_Phi</text>
</a>
</g>
</g>
<!-- Node2&#45;&gt;Node9 -->
<g id="edge9_Node000002_Node000009" class="edge">
<title>Node2&#45;&gt;Node9</title>
<g id="a_edge9_Node000002_Node000009"><a xlink:title=" ">
<path fill="none" stroke="#63b8ff" d="M161.72,-163.33C178.32,-168.12 202.72,-175.18 224.16,-181.37"/>
<polygon fill="#63b8ff" stroke="#63b8ff" points="223.01,-184.68 233.58,-184.1 224.95,-177.96 223.01,-184.68"/>
</a>
</g>
</g>
<!-- Node10 -->
<g id="Node000010" class="node">
<title>Node10</title>
<g id="a_Node000010"><a xlink:href="force_8c.html#ab8975ff11cde008308f4d18a8f25425e" target="_top" xlink:title="Calculates the gauge force due to the Wilson Action at each intermediate time.">
<polygon fill="white" stroke="#666666" points="306.75,-167.25 235.25,-167.25 235.25,-148 306.75,-148 306.75,-167.25"/>
<text text-anchor="middle" x="271" y="-153.75" font-family="IBMPlexSans-Regular" font-size="10.00">Gauge_force</text>
</a>
</g>
</g>
<!-- Node2&#45;&gt;Node10 -->
<g id="edge10_Node000002_Node000010" class="edge">
<title>Node2&#45;&gt;Node10</title>
<g id="a_edge10_Node000002_Node000010"><a xlink:title=" ">
<path fill="none" stroke="#63b8ff" d="M161.72,-157.62C178.11,-157.62 202.1,-157.62 223.33,-157.62"/>
<polygon fill="#63b8ff" stroke="#63b8ff" points="223.27,-161.13 233.27,-157.63 223.27,-154.13 223.27,-161.13"/>
</a>
</g>
</g>
<!-- Node13 -->
<g id="Node000013" class="node">
<title>Node13</title>
<g id="a_Node000013"><a xlink:href="matrices_8c.html#a487c5a84050f8d6fa5754d7d8784b75e" target="_top" xlink:title="Evaluates &#160;in double precision.">
<polygon fill="white" stroke="#666666" points="297,-130.25 245,-130.25 245,-111 297,-111 297,-130.25"/>
<text text-anchor="middle" x="271" y="-116.75" font-family="IBMPlexSans-Regular" font-size="10.00">Hdslash</text>
</a>
</g>
</g>
<!-- Node2&#45;&gt;Node13 -->
<g id="edge13_Node000002_Node000013" class="edge">
<title>Node2&#45;&gt;Node13</title>
<g id="a_edge13_Node000002_Node000013"><a xlink:title=" ">
<path fill="none" stroke="#63b8ff" d="M161.72,-151.92C180.88,-146.39 210.44,-137.84 233.83,-131.08"/>
<polygon fill="#63b8ff" stroke="#63b8ff" points="234.66,-134.48 243.29,-128.34 232.72,-127.76 234.66,-134.48"/>
</a>
</g>
</g>
<!-- Node15 -->
<g id="Node000015" class="node">
<title>Node15</title>
<g id="a_Node000015"><a xlink:href="par__mpi_8h.html#a893a7c85fb77e355d4cec6bc35711b98" target="_top" xlink:title="Swaps the halos along the axis given by idir in the direction given by layer.">
<polygon fill="white" stroke="#666666" points="314.25,-93.25 227.75,-93.25 227.75,-74 314.25,-74 314.25,-93.25"/>
<text text-anchor="middle" x="271" y="-79.75" font-family="IBMPlexSans-Regular" font-size="10.00">ZHalo_swap_dir</text>
</a>
</g>
</g>
<!-- Node2&#45;&gt;Node15 -->
<g id="edge16_Node000002_Node000015" class="edge">
<title>Node2&#45;&gt;Node15</title>
<g id="a_edge16_Node000002_Node000015"><a xlink:title=" ">
<path fill="none" stroke="#63b8ff" d="M155.8,-147.52C172.36,-135.65 201.25,-115.78 227.75,-101.62 229.84,-100.51 232.01,-99.41 234.22,-98.34"/>
<polygon fill="#63b8ff" stroke="#63b8ff" points="235.62,-101.55 243.26,-94.2 232.71,-95.18 235.62,-101.55"/>
</a>
</g>
</g>
<!-- Node3&#45;&gt;Node4 -->
<g id="edge3_Node000003_Node000004" class="edge">
<title>Node3&#45;&gt;Node4</title>
<g id="a_edge3_Node000003_Node000004"><a xlink:title=" ">
<path fill="none" stroke="#63b8ff" d="M284.17,-241.64C299.09,-253.61 325.47,-273.75 350.25,-287.62 352.28,-288.76 354.39,-289.87 356.54,-290.94"/>
<polygon fill="#63b8ff" stroke="#63b8ff" points="354.82,-294 365.37,-295.03 357.77,-287.65 354.82,-294"/>
</a>
</g>
</g>
<!-- Node6 -->
<g id="Node000006" class="node">
<title>Node6</title>
<g id="a_Node000006"><a xlink:href="matrices_8c.html#a01fdbe29f8890534b19e20de5af344aa" target="_top" xlink:title="Evaluates &#160;in single precision.">
<polygon fill="white" stroke="#666666" points="426.62,-278.25 361.12,-278.25 361.12,-259 426.62,-259 426.62,-278.25"/>
<text text-anchor="middle" x="393.88" y="-264.75" font-family="IBMPlexSans-Regular" font-size="10.00">Hdslashd_f</text>
</a>
</g>
</g>
<!-- Node3&#45;&gt;Node6 -->
<g id="edge5_Node000003_Node000006" class="edge">
<title>Node3&#45;&gt;Node6</title>
<g id="a_edge5_Node000003_Node000006"><a xlink:title=" ">
<path fill="none" stroke="#63b8ff" d="M300.03,-240.21C314.91,-244.76 333.5,-250.45 350.13,-255.54"/>
<polygon fill="#63b8ff" stroke="#63b8ff" points="348.69,-258.76 359.27,-258.34 350.74,-252.07 348.69,-258.76"/>
</a>
</g>
</g>
<!-- Node7 -->
<g id="Node000007" class="node">
<title>Node7</title>
<g id="a_Node000007"><a xlink:href="par__mpi_8h.html#aecfe9840e5f8dfd693b813b750d81a0c" target="_top" xlink:title="Performs a reduction on a double dval to get a sum which is then distributed to all ranks.">
<polygon fill="white" stroke="#666666" points="424,-241.25 363.75,-241.25 363.75,-222 424,-222 424,-241.25"/>
<text text-anchor="middle" x="393.88" y="-227.75" font-family="IBMPlexSans-Regular" font-size="10.00">Par_dsum</text>
</a>
</g>
</g>
<!-- Node3&#45;&gt;Node7 -->
<g id="edge7_Node000003_Node000007" class="edge">
<title>Node3&#45;&gt;Node7</title>
<g id="a_edge7_Node000003_Node000007"><a xlink:title=" ">
<path fill="none" stroke="#63b8ff" d="M300.03,-231.62C315.45,-231.62 334.85,-231.62 351.93,-231.62"/>
<polygon fill="#63b8ff" stroke="#63b8ff" points="351.79,-235.13 361.79,-231.63 351.79,-228.13 351.79,-235.13"/>
</a>
</g>
</g>
<!-- Node8 -->
<g id="Node000008" class="node">
<title>Node8</title>
<g id="a_Node000008"><a xlink:href="par__mpi_8h.html#a4e2e85b06c5b05c5181729cc5ebdd05b" target="_top" xlink:title="Performs a reduction on a float dval to get a sum which is then distributed to all ranks.">
<polygon fill="white" stroke="#666666" points="422.88,-204.25 364.88,-204.25 364.88,-185 422.88,-185 422.88,-204.25"/>
<text text-anchor="middle" x="393.88" y="-190.75" font-family="IBMPlexSans-Regular" font-size="10.00">Par_fsum</text>
</a>
</g>
</g>
<!-- Node3&#45;&gt;Node8 -->
<g id="edge8_Node000003_Node000008" class="edge">
<title>Node3&#45;&gt;Node8</title>
<g id="a_edge8_Node000003_Node000008"><a xlink:title=" ">
<path fill="none" stroke="#63b8ff" d="M300.03,-223.04C316.09,-218.13 336.48,-211.89 354.06,-206.51"/>
<polygon fill="#63b8ff" stroke="#63b8ff" points="354.59,-210 363.13,-203.73 352.54,-203.31 354.59,-210"/>
</a>
</g>
</g>
<!-- Node5 -->
<g id="Node000005" class="node">
<title>Node5</title>
<g id="a_Node000005"><a xlink:href="par__mpi_8h.html#a14b1a550ef4f44a9e4d7dd06c9427993" target="_top" xlink:title="Calls the functions to send data to both the up and down halos.">
<polygon fill="white" stroke="#666666" points="560,-296.25 473.5,-296.25 473.5,-277 560,-277 560,-296.25"/>
<text text-anchor="middle" x="516.75" y="-282.75" font-family="IBMPlexSans-Regular" font-size="10.00">CHalo_swap_all</text>
</a>
</g>
</g>
<!-- Node4&#45;&gt;Node5 -->
<g id="edge4_Node000004_Node000005" class="edge">
<title>Node4&#45;&gt;Node5</title>
<g id="a_edge4_Node000004_Node000005"><a xlink:title=" ">
<path fill="none" stroke="#63b8ff" d="M424.44,-300.98C435.8,-299.19 449.13,-297.1 462.06,-295.06"/>
<polygon fill="#63b8ff" stroke="#63b8ff" points="462.41,-298.55 471.75,-293.54 461.33,-291.64 462.41,-298.55"/>
</a>
</g>
</g>
<!-- Node6&#45;&gt;Node5 -->
<g id="edge6_Node000006_Node000005" class="edge">
<title>Node6&#45;&gt;Node5</title>
<g id="a_edge6_Node000006_Node000005"><a xlink:title=" ">
<path fill="none" stroke="#63b8ff" d="M426.95,-273.4C437.66,-275 449.9,-276.82 461.8,-278.59"/>
<polygon fill="#63b8ff" stroke="#63b8ff" points="461.14,-282.03 471.55,-280.04 462.18,-275.11 461.14,-282.03"/>
</a>
</g>
</g>
<!-- Node11 -->
<g id="Node000011" class="node">
<title>Node11</title>
<g id="a_Node000011"><a xlink:href="su2hmc_8c.html#af64f1450e29df479f82290bc4f7bdc1f" target="_top" xlink:title="Extracts all the single precision gauge links in the &#160;direction only.">
<polygon fill="white" stroke="#666666" points="421.38,-167.25 366.38,-167.25 366.38,-148 421.38,-148 421.38,-167.25"/>
<text text-anchor="middle" x="393.88" y="-153.75" font-family="IBMPlexSans-Regular" font-size="10.00">C_gather</text>
</a>
</g>
</g>
<!-- Node10&#45;&gt;Node11 -->
<g id="edge11_Node000010_Node000011" class="edge">
<title>Node10&#45;&gt;Node11</title>
<g id="a_edge11_Node000010_Node000011"><a xlink:title=" ">
<path fill="none" stroke="#63b8ff" d="M306.96,-157.62C321.96,-157.62 339.53,-157.62 354.85,-157.62"/>
<polygon fill="#63b8ff" stroke="#63b8ff" points="354.54,-161.13 364.54,-157.63 354.54,-154.13 354.54,-161.13"/>
</a>
</g>
</g>
<!-- Node12 -->
<g id="Node000012" class="node">
<title>Node12</title>
<g id="a_Node000012"><a xlink:href="par__mpi_8h.html#ab73329ce6f65730ba4783a8031edd518" target="_top" xlink:title="Swaps the halos along the axis given by idir in the direction given by layer.">
<polygon fill="white" stroke="#666666" points="437.5,-130.25 350.25,-130.25 350.25,-111 437.5,-111 437.5,-130.25"/>
<text text-anchor="middle" x="393.88" y="-116.75" font-family="IBMPlexSans-Regular" font-size="10.00">CHalo_swap_dir</text>
</a>
</g>
</g>
<!-- Node10&#45;&gt;Node12 -->
<g id="edge12_Node000010_Node000012" class="edge">
<title>Node10&#45;&gt;Node12</title>
<g id="a_edge12_Node000010_Node000012"><a xlink:title=" ">
<path fill="none" stroke="#63b8ff" d="M305.03,-147.51C318.62,-143.35 334.56,-138.48 349.1,-134.02"/>
<polygon fill="#63b8ff" stroke="#63b8ff" points="349.9,-137.44 358.44,-131.17 347.85,-130.75 349.9,-137.44"/>
</a>
</g>
</g>
<!-- Node14 -->
<g id="Node000014" class="node">
<title>Node14</title>
<g id="a_Node000014"><a xlink:href="par__mpi_8h.html#a35d208a5a65e71101e71d3f0248aef03" target="_top" xlink:title="Calls the functions to send data to both the up and down halos.">
<polygon fill="white" stroke="#666666" points="436.75,-56.25 351,-56.25 351,-37 436.75,-37 436.75,-56.25"/>
<text text-anchor="middle" x="393.88" y="-42.75" font-family="IBMPlexSans-Regular" font-size="10.00">ZHalo_swap_all</text>
</a>
</g>
</g>
<!-- Node13&#45;&gt;Node14 -->
<g id="edge14_Node000013_Node000014" class="edge">
<title>Node13&#45;&gt;Node14</title>
<g id="a_edge14_Node000013_Node000014"><a xlink:title=" ">
<path fill="none" stroke="#63b8ff" d="M297.45,-110.84C303.09,-108.38 308.96,-105.59 314.25,-102.62 334.83,-91.09 356.55,-75.31 371.94,-63.44"/>
<polygon fill="#63b8ff" stroke="#63b8ff" points="373.73,-66.48 379.44,-57.56 369.41,-60.97 373.73,-66.48"/>
</a>
</g>
</g>
<!-- Node17 -->
<g id="Node000017" class="node">
<title>Node17</title>
<g id="a_Node000017"><a xlink:href="matrices_8c.html#ab3c213bd9acb695d1ed852737e5b750c" target="_top" xlink:title="Reunitarises u11t and u12t as in conj(u11t[i])*u11t[i]+conj(u12t[i])*u12t[i]=1.">
<polygon fill="white" stroke="#666666" points="303.38,-56.25 238.62,-56.25 238.62,-37 303.38,-37 303.38,-56.25"/>
<text text-anchor="middle" x="271" y="-42.75" font-family="IBMPlexSans-Regular" font-size="10.00">Reunitarise</text>
</a>
</g>
</g>
<!-- Node16&#45;&gt;Node17 -->
<g id="edge18_Node000016_Node000017" class="edge">
<title>Node16&#45;&gt;Node17</title>
<g id="a_edge18_Node000016_Node000017"><a xlink:title=" ">
<path fill="none" stroke="#63b8ff" d="M181.8,-46.62C196.16,-46.62 212.43,-46.62 227.05,-46.62"/>
<polygon fill="#63b8ff" stroke="#63b8ff" points="226.84,-50.13 236.84,-46.63 226.84,-43.13 226.84,-50.13"/>
</a>
</g>
</g>
<!-- Node18 -->
<g id="Node000018" class="node">
<title>Node18</title>
<g id="a_Node000018"><a xlink:href="par__mpi_8c.html#abf4867774abbc820eb4aaaeabbee31f4" target="_top" xlink:title="Exchanges the trial fields.">
<polygon fill="white" stroke="#666666" points="312,-19.25 230,-19.25 230,0 312,0 312,-19.25"/>
<text text-anchor="middle" x="271" y="-5.75" font-family="IBMPlexSans-Regular" font-size="10.00">Trial_Exchange</text>
</a>
</g>
</g>
<!-- Node16&#45;&gt;Node18 -->
<g id="edge19_Node000016_Node000018" class="edge">
<title>Node16&#45;&gt;Node18</title>
<g id="a_edge19_Node000016_Node000018"><a xlink:title=" ">
<path fill="none" stroke="#63b8ff" d="M176.98,-36.51C191.51,-32.31 208.58,-27.38 224.1,-22.89"/>
<polygon fill="#63b8ff" stroke="#63b8ff" points="224.98,-26.28 233.61,-20.14 223.03,-19.56 224.98,-26.28"/>
</a>
</g>
</g>
<!-- Node18&#45;&gt;Node14 -->
<g id="edge20_Node000018_Node000014" class="edge">
<title>Node18&#45;&gt;Node14</title>
<g id="a_edge20_Node000018_Node000014"><a xlink:title=" ">
<path fill="none" stroke="#63b8ff" d="M305.03,-19.74C318.62,-23.9 334.56,-28.77 349.1,-33.23"/>
<polygon fill="#63b8ff" stroke="#63b8ff" points="347.85,-36.5 358.44,-36.08 349.9,-29.81 347.85,-36.5"/>
</a>
</g>
</g>
</g>
</svg>
