<?xml version="1.0" encoding="UTF-8" standalone="no"?>
<!DOCTYPE svg PUBLIC "-//W3C//DTD SVG 1.1//EN"
 "http://www.w3.org/Graphics/SVG/1.1/DTD/svg11.dtd">
<!-- Generated by graphviz version 12.2.1 (20241206.2353)
 -->
<!-- Title: Gauge_Update Pages: 1 -->
<svg width="329pt" height="64pt"
 viewBox="0.00 0.00 329.00 64.25" xmlns="http://www.w3.org/2000/svg" xmlns:xlink="http://www.w3.org/1999/xlink">
<g id="graph0" class="graph" transform="scale(1 1) rotate(0) translate(4 60.25)">
<title>Gauge_Update</title>
<!-- Node1 -->
<g id="Node000001" class="node">
<title>Node1</title>
<g id="a_Node000001"><a xlink:title="Gauge update for the integration step of the HMC.">
<polygon fill="#999999" stroke="#666666" points="81.25,-37.25 0,-37.25 0,-18 81.25,-18 81.25,-37.25"/>
<text text-anchor="middle" x="40.62" y="-23.75" font-family="IBMPlexSans-Regular" font-size="10.00">Gauge_Update</text>
</a>
</g>
</g>
<!-- Node2 -->
<g id="Node000002" class="node">
<title>Node2</title>
<g id="a_Node000002"><a xlink:href="matrices_8c.html#ab3c213bd9acb695d1ed852737e5b750c" target="_top" xlink:title="Reunitarises u11t and u12t as in conj(u11t[i])*u11t[i]+conj(u12t[i])*u12t[i]=1.">
<polygon fill="white" stroke="#666666" points="190.62,-56.25 125.88,-56.25 125.88,-37 190.62,-37 190.62,-56.25"/>
<text text-anchor="middle" x="158.25" y="-42.75" font-family="IBMPlexSans-Regular" font-size="10.00">Reunitarise</text>
</a>
</g>
</g>
<!-- Node1&#45;&gt;Node2 -->
<g id="edge1_Node000001_Node000002" class="edge">
<title>Node1&#45;&gt;Node2</title>
<g id="a_edge1_Node000001_Node000002"><a xlink:title=" ">
<path fill="none" stroke="#63b8ff" d="M81.74,-34.22C92.28,-35.95 103.68,-37.82 114.36,-39.58"/>
<polygon fill="#63b8ff" stroke="#63b8ff" points="113.66,-43.01 124.09,-41.18 114.79,-36.1 113.66,-43.01"/>
</a>
</g>
</g>
<!-- Node3 -->
<g id="Node000003" class="node">
<title>Node3</title>
<g id="a_Node000003"><a xlink:href="par__mpi_8c.html#abf4867774abbc820eb4aaaeabbee31f4" target="_top" xlink:title="Exchanges the trial fields.">
<polygon fill="white" stroke="#666666" points="199.25,-19.25 117.25,-19.25 117.25,0 199.25,0 199.25,-19.25"/>
<text text-anchor="middle" x="158.25" y="-5.75" font-family="IBMPlexSans-Regular" font-size="10.00">Trial_Exchange</text>
</a>
</g>
</g>
<!-- Node1&#45;&gt;Node3 -->
<g id="edge2_Node000001_Node000003" class="edge">
<title>Node1&#45;&gt;Node3</title>
<g id="a_edge2_Node000001_Node000003"><a xlink:title=" ">
<path fill="none" stroke="#63b8ff" d="M81.74,-21.38C89.45,-20.18 97.63,-18.91 105.65,-17.66"/>
<polygon fill="#63b8ff" stroke="#63b8ff" points="105.98,-21.15 115.32,-16.15 104.9,-14.23 105.98,-21.15"/>
</a>
</g>
</g>
<!-- Node4 -->
<g id="Node000004" class="node">
<title>Node4</title>
<g id="a_Node000004"><a xlink:href="par__mpi_8h.html#a35d208a5a65e71101e71d3f0248aef03" target="_top" xlink:title="Calls the functions to send data to both the up and down halos.">
<polygon fill="white" stroke="#666666" points="321,-19.25 235.25,-19.25 235.25,0 321,0 321,-19.25"/>
<text text-anchor="middle" x="278.12" y="-5.75" font-family="IBMPlexSans-Regular" font-size="10.00">ZHalo_swap_all</text>
</a>
</g>
</g>
<!-- Node3&#45;&gt;Node4 -->
<g id="edge3_Node000003_Node000004" class="edge">
<title>Node3&#45;&gt;Node4</title>
<g id="a_edge3_Node000003_Node000004"><a xlink:title=" ">
<path fill="none" stroke="#63b8ff" d="M199.49,-9.62C207.28,-9.62 215.57,-9.62 223.71,-9.62"/>
<polygon fill="#63b8ff" stroke="#63b8ff" points="223.55,-13.13 233.55,-9.63 223.55,-6.13 223.55,-13.13"/>
</a>
</g>
</g>
</g>
</svg>
