<?xml version="1.0" encoding="UTF-8" standalone="no"?>
<!DOCTYPE svg PUBLIC "-//W3C//DTD SVG 1.1//EN"
 "http://www.w3.org/Graphics/SVG/1.1/DTD/svg11.dtd">
<!-- Generated by graphviz version 12.2.1 (20241206.2353)
 -->
<!-- Title: Gauge_Update Pages: 1 -->
<svg width="253pt" height="101pt"
 viewBox="0.00 0.00 252.50 101.25" xmlns="http://www.w3.org/2000/svg" xmlns:xlink="http://www.w3.org/1999/xlink">
<g id="graph0" class="graph" transform="scale(1 1) rotate(0) translate(4 97.25)">
<title>Gauge_Update</title>
<!-- Node1 -->
<g id="Node000001" class="node">
<title>Node1</title>
<g id="a_Node000001"><a xlink:title="Gauge update for the integration step of the HMC.">
<polygon fill="#999999" stroke="#666666" points="244.5,-56.25 163.25,-56.25 163.25,-37 244.5,-37 244.5,-56.25"/>
<text text-anchor="middle" x="203.88" y="-42.75" font-family="IBMPlexSans-Regular" font-size="10.00">Gauge_Update</text>
</a>
</g>
</g>
<!-- Node2 -->
<g id="Node000002" class="node">
<title>Node2</title>
<g id="a_Node000002"><a xlink:href="integrate_8c.html#a4d7f64e9f3e98a2953d707f18742d110" target="_top" xlink:title="Leapfrog integrator. Each trajectory step takes the form of p&#45;&gt;p+dt/2,u&#45;&gt;u+dt,p&#45;&gt;p+dt/2 In practice t...">
<polygon fill="white" stroke="#666666" points="127.25,-93.25 73,-93.25 73,-74 127.25,-74 127.25,-93.25"/>
<text text-anchor="middle" x="100.12" y="-79.75" font-family="IBMPlexSans-Regular" font-size="10.00">Leapfrog</text>
</a>
</g>
</g>
<!-- Node1&#45;&gt;Node2 -->
<g id="edge1_Node000001_Node000002" class="edge">
<title>Node1&#45;&gt;Node2</title>
<g id="a_edge1_Node000001_Node000002"><a xlink:title=" ">
<path fill="none" stroke="#63b8ff" d="M164.56,-60.56C152.2,-65.05 138.79,-69.93 127.49,-74.04"/>
<polygon fill="#63b8ff" stroke="#63b8ff" points="165.45,-63.96 173.65,-57.25 163.05,-57.38 165.45,-63.96"/>
</a>
</g>
</g>
<!-- Node4 -->
<g id="Node000004" class="node">
<title>Node4</title>
<g id="a_Node000004"><a xlink:href="integrate_8c.html#a33907d89c4a0709fcf809773de68c3a2" target="_top" xlink:title="OMF second order five step integrator.">
<polygon fill="white" stroke="#666666" points="121.62,-56.25 78.62,-56.25 78.62,-37 121.62,-37 121.62,-56.25"/>
<text text-anchor="middle" x="100.12" y="-42.75" font-family="IBMPlexSans-Regular" font-size="10.00">OMF2</text>
</a>
</g>
</g>
<!-- Node1&#45;&gt;Node4 -->
<g id="edge3_Node000001_Node000004" class="edge">
<title>Node1&#45;&gt;Node4</title>
<g id="a_edge3_Node000001_Node000004"><a xlink:title=" ">
<path fill="none" stroke="#63b8ff" d="M151.61,-46.62C141.09,-46.62 130.59,-46.62 121.91,-46.62"/>
<polygon fill="#63b8ff" stroke="#63b8ff" points="151.44,-50.13 161.44,-46.63 151.44,-43.13 151.44,-50.13"/>
</a>
</g>
</g>
<!-- Node5 -->
<g id="Node000005" class="node">
<title>Node5</title>
<g id="a_Node000005"><a xlink:href="integrate_8c.html#a4e6abc4e61c0131df30fb683569e5d00" target="_top" xlink:title="OMF fourth order eleven step integrator.">
<polygon fill="white" stroke="#666666" points="121.62,-19.25 78.62,-19.25 78.62,0 121.62,0 121.62,-19.25"/>
<text text-anchor="middle" x="100.12" y="-5.75" font-family="IBMPlexSans-Regular" font-size="10.00">OMF4</text>
</a>
</g>
</g>
<!-- Node1&#45;&gt;Node5 -->
<g id="edge5_Node000001_Node000005" class="edge">
<title>Node1&#45;&gt;Node5</title>
<g id="a_edge5_Node000001_Node000005"><a xlink:title=" ">
<path fill="none" stroke="#63b8ff" d="M164.45,-32.65C150.09,-27.43 134.32,-21.7 122.12,-17.26"/>
<polygon fill="#63b8ff" stroke="#63b8ff" points="163.05,-35.87 173.65,-36 165.45,-29.29 163.05,-35.87"/>
</a>
</g>
</g>
<!-- Node3 -->
<g id="Node000003" class="node">
<title>Node3</title>
<g id="a_Node000003"><a xlink:href="main_8c.html#a0ddf1224851353fc92bfbff6f499fa97" target="_top" xlink:title=" ">
<polygon fill="white" stroke="#666666" points="37,-56.25 0,-56.25 0,-37 37,-37 37,-56.25"/>
<text text-anchor="middle" x="18.5" y="-42.75" font-family="IBMPlexSans-Regular" font-size="10.00">main</text>
</a>
</g>
</g>
<!-- Node2&#45;&gt;Node3 -->
<g id="edge2_Node000002_Node000003" class="edge">
<title>Node2&#45;&gt;Node3</title>
<g id="a_edge2_Node000002_Node000003"><a xlink:title=" ">
<path fill="none" stroke="#63b8ff" d="M67.19,-68.79C57.07,-64.08 46.25,-59.05 37.47,-54.97"/>
<polygon fill="#63b8ff" stroke="#63b8ff" points="65.45,-71.84 75.99,-72.88 68.4,-65.49 65.45,-71.84"/>
</a>
</g>
</g>
<!-- Node4&#45;&gt;Node3 -->
<g id="edge4_Node000004_Node000003" class="edge">
<title>Node4&#45;&gt;Node3</title>
<g id="a_edge4_Node000004_Node000003"><a xlink:title=" ">
<path fill="none" stroke="#63b8ff" d="M66.84,-46.62C56.76,-46.62 46.02,-46.62 37.31,-46.62"/>
<polygon fill="#63b8ff" stroke="#63b8ff" points="66.69,-50.13 76.69,-46.63 66.69,-43.13 66.69,-50.13"/>
</a>
</g>
</g>
<!-- Node5&#45;&gt;Node3 -->
<g id="edge6_Node000005_Node000003" class="edge">
<title>Node5&#45;&gt;Node3</title>
<g id="a_edge6_Node000005_Node000003"><a xlink:title=" ">
<path fill="none" stroke="#63b8ff" d="M67.83,-24.17C57.47,-28.98 46.3,-34.17 37.31,-38.35"/>
<polygon fill="#63b8ff" stroke="#63b8ff" points="69.24,-27.37 76.83,-19.98 66.29,-21.02 69.24,-27.37"/>
</a>
</g>
</g>
</g>
</svg>
