<?xml version="1.0" encoding="UTF-8" standalone="no"?>
<!DOCTYPE svg PUBLIC "-//W3C//DTD SVG 1.1//EN"
 "http://www.w3.org/Graphics/SVG/1.1/DTD/svg11.dtd">
<!-- Generated by graphviz version 11.0.0 (20240428.1522)
 -->
<!-- Title: OMF4 Pages: 1 -->
<svg width="557pt" height="397pt"
 viewBox="0.00 0.00 556.75 397.25" xmlns="http://www.w3.org/2000/svg" xmlns:xlink="http://www.w3.org/1999/xlink">
<g id="graph0" class="graph" transform="scale(1 1) rotate(0) translate(4 393.25)">
<title>OMF4</title>
<!-- Node1 -->
<g id="Node000001" class="node">
<title>Node1</title>
<g id="a_Node000001"><a xlink:title=" ">
<polygon fill="#999999" stroke="#666666" points="43,-111.25 0,-111.25 0,-92 43,-92 43,-111.25"/>
<text text-anchor="middle" x="21.5" y="-97.75" font-family="IBMPlexSans-Regular" font-size="10.00">OMF4</text>
</a>
</g>
</g>
<!-- Node2 -->
<g id="Node000002" class="node">
<title>Node2</title>
<g id="a_Node000002"><a xlink:href="force_8c.html#a40e5951024b2de0086a5f878963c6bae" target="_top" xlink:title="Calculates the force &#160;at each intermediate time.">
<polygon fill="white" stroke="#666666" points="150.12,-222.25 109.38,-222.25 109.38,-203 150.12,-203 150.12,-222.25"/>
<text text-anchor="middle" x="129.75" y="-208.75" font-family="IBMPlexSans-Regular" font-size="10.00">Force</text>
</a>
</g>
</g>
<!-- Node1&#45;&gt;Node2 -->
<g id="edge1_Node000001_Node000002" class="edge">
<title>Node1&#45;&gt;Node2</title>
<g id="a_edge1_Node000001_Node000002"><a xlink:title=" ">
<path fill="none" stroke="#63b8ff" d="M31.93,-111.48C49.76,-130.11 88.67,-170.76 111.37,-194.46"/>
<polygon fill="#63b8ff" stroke="#63b8ff" points="108.7,-196.74 118.14,-201.54 113.76,-191.9 108.7,-196.74"/>
</a>
</g>
</g>
<!-- Node16 -->
<g id="Node000016" class="node">
<title>Node16</title>
<g id="a_Node000016"><a xlink:href="integrate_8c.html#aad98b6e55d3f033e15cffc5b53b173ee" target="_top" xlink:title="Gauge update for the integration step of the HMC.">
<polygon fill="white" stroke="#666666" points="170.38,-130.25 89.12,-130.25 89.12,-111 170.38,-111 170.38,-130.25"/>
<text text-anchor="middle" x="129.75" y="-116.75" font-family="IBMPlexSans-Regular" font-size="10.00">Gauge_Update</text>
</a>
</g>
</g>
<!-- Node1&#45;&gt;Node16 -->
<g id="edge16_Node000001_Node000016" class="edge">
<title>Node1&#45;&gt;Node16</title>
<g id="a_edge16_Node000001_Node000016"><a xlink:title=" ">
<path fill="none" stroke="#63b8ff" d="M43.49,-105.38C53.4,-107.15 65.7,-109.35 77.84,-111.52"/>
<polygon fill="#63b8ff" stroke="#63b8ff" points="76.93,-114.91 87.39,-113.23 78.16,-108.02 76.93,-114.91"/>
</a>
</g>
</g>
<!-- Node19 -->
<g id="Node000019" class="node">
<title>Node19</title>
<g id="a_Node000019"><a xlink:href="integrate_8c.html#af1766f80334a88c142c09e8a1eb682f4" target="_top" xlink:title="Wrapper for the momentum update during the integration step of the HMC.">
<polygon fill="white" stroke="#666666" points="180.5,-93.25 79,-93.25 79,-74 180.5,-74 180.5,-93.25"/>
<text text-anchor="middle" x="129.75" y="-79.75" font-family="IBMPlexSans-Regular" font-size="10.00">Momentum_Update</text>
</a>
</g>
</g>
<!-- Node1&#45;&gt;Node19 -->
<g id="edge20_Node000001_Node000019" class="edge">
<title>Node1&#45;&gt;Node19</title>
<g id="a_edge20_Node000001_Node000019"><a xlink:title=" ">
<path fill="none" stroke="#63b8ff" d="M43.49,-98.07C50.64,-96.86 59.02,-95.44 67.7,-93.97"/>
<polygon fill="#63b8ff" stroke="#63b8ff" points="68,-97.47 77.27,-92.35 66.83,-90.57 68,-97.47"/>
</a>
</g>
</g>
<!-- Node20 -->
<g id="Node000020" class="node">
<title>Node20</title>
<g id="a_Node000020"><a xlink:href="random_8c.html#af30389dbea7d2b366abea7a923bb008d" target="_top" xlink:title="Generates a random double which is then sent to the other ranks.">
<polygon fill="white" stroke="#666666" points="158.75,-56.25 100.75,-56.25 100.75,-37 158.75,-37 158.75,-56.25"/>
<text text-anchor="middle" x="129.75" y="-42.75" font-family="IBMPlexSans-Regular" font-size="10.00">Par_granf</text>
</a>
</g>
</g>
<!-- Node1&#45;&gt;Node20 -->
<g id="edge21_Node000001_Node000020" class="edge">
<title>Node1&#45;&gt;Node20</title>
<g id="a_edge21_Node000001_Node000020"><a xlink:title=" ">
<path fill="none" stroke="#63b8ff" d="M35.89,-91.57C47.02,-83.54 63.48,-72.38 79,-64.62 82.47,-62.89 86.16,-61.24 89.89,-59.68"/>
<polygon fill="#63b8ff" stroke="#63b8ff" points="90.92,-63.04 98.97,-56.15 88.38,-56.51 90.92,-63.04"/>
</a>
</g>
</g>
<!-- Node3 -->
<g id="Node000003" class="node">
<title>Node3</title>
<g id="a_Node000003"><a xlink:href="congrad_8c.html#aa32f0774e38a36310209b44a2abae8e6" target="_top" xlink:title="Matrix Inversion via Conjugate Gradient (up/down flavour partitioning). Solves &#160;Implements up/down pa...">
<polygon fill="white" stroke="#666666" points="288.38,-315.25 231.12,-315.25 231.12,-296 288.38,-296 288.38,-315.25"/>
<text text-anchor="middle" x="259.75" y="-301.75" font-family="IBMPlexSans-Regular" font-size="10.00">Congradq</text>
</a>
</g>
</g>
<!-- Node2&#45;&gt;Node3 -->
<g id="edge2_Node000002_Node000003" class="edge">
<title>Node2&#45;&gt;Node3</title>
<g id="a_edge2_Node000002_Node000003"><a xlink:title=" ">
<path fill="none" stroke="#63b8ff" d="M140.21,-222.75C155.2,-238.32 185.85,-268.38 216.5,-287.62 218.12,-288.65 219.82,-289.63 221.55,-290.58"/>
<polygon fill="#63b8ff" stroke="#63b8ff" points="219.86,-293.65 230.38,-294.96 222.97,-287.38 219.86,-293.65"/>
</a>
</g>
</g>
<!-- Node9 -->
<g id="Node000009" class="node">
<title>Node9</title>
<g id="a_Node000009"><a xlink:href="su2hmc_8c.html#ad4816b4c3599a65d212f34e10c83055f" target="_top" xlink:title=" ">
<polygon fill="white" stroke="#666666" points="298.88,-278.25 220.62,-278.25 220.62,-259 298.88,-259 298.88,-278.25"/>
<text text-anchor="middle" x="259.75" y="-264.75" font-family="IBMPlexSans-Regular" font-size="10.00">Fill_Small_Phi</text>
</a>
</g>
</g>
<!-- Node2&#45;&gt;Node9 -->
<g id="edge9_Node000002_Node000009" class="edge">
<title>Node2&#45;&gt;Node9</title>
<g id="a_edge9_Node000002_Node000009"><a xlink:title=" ">
<path fill="none" stroke="#63b8ff" d="M150.47,-221.46C167.83,-229.21 193.8,-240.76 216.5,-250.62 219.12,-251.77 221.84,-252.94 224.58,-254.12"/>
<polygon fill="#63b8ff" stroke="#63b8ff" points="223.08,-257.28 233.65,-258 225.83,-250.85 223.08,-257.28"/>
</a>
</g>
</g>
<!-- Node10 -->
<g id="Node000010" class="node">
<title>Node10</title>
<g id="a_Node000010"><a xlink:href="force_8c.html#a45c04d32a0a22833e0ed90db2baf454d" target="_top" xlink:title="Calculates the gauge force due to the Wilson Action at each intermediate time.">
<polygon fill="white" stroke="#666666" points="295.5,-241.25 224,-241.25 224,-222 295.5,-222 295.5,-241.25"/>
<text text-anchor="middle" x="259.75" y="-227.75" font-family="IBMPlexSans-Regular" font-size="10.00">Gauge_force</text>
</a>
</g>
</g>
<!-- Node2&#45;&gt;Node10 -->
<g id="edge10_Node000002_Node000010" class="edge">
<title>Node2&#45;&gt;Node10</title>
<g id="a_edge10_Node000002_Node000010"><a xlink:title=" ">
<path fill="none" stroke="#63b8ff" d="M150.47,-215.55C166.94,-218 191.07,-221.58 212.38,-224.74"/>
<polygon fill="#63b8ff" stroke="#63b8ff" points="211.63,-228.17 222.04,-226.18 212.66,-221.24 211.63,-228.17"/>
</a>
</g>
</g>
<!-- Node13 -->
<g id="Node000013" class="node">
<title>Node13</title>
<g id="a_Node000013"><a xlink:href="matrices_8c.html#aa9c3d535a95a3dd48438717eb8d71893" target="_top" xlink:title="Evaluates &#160;in double precision.">
<polygon fill="white" stroke="#666666" points="285.75,-204.25 233.75,-204.25 233.75,-185 285.75,-185 285.75,-204.25"/>
<text text-anchor="middle" x="259.75" y="-190.75" font-family="IBMPlexSans-Regular" font-size="10.00">Hdslash</text>
</a>
</g>
</g>
<!-- Node2&#45;&gt;Node13 -->
<g id="edge13_Node000002_Node000013" class="edge">
<title>Node2&#45;&gt;Node13</title>
<g id="a_edge13_Node000002_Node000013"><a xlink:title=" ">
<path fill="none" stroke="#63b8ff" d="M150.47,-209.85C169.55,-207.17 198.92,-203.04 222.26,-199.76"/>
<polygon fill="#63b8ff" stroke="#63b8ff" points="222.58,-203.25 232,-198.39 221.61,-196.31 222.58,-203.25"/>
</a>
</g>
</g>
<!-- Node15 -->
<g id="Node000015" class="node">
<title>Node15</title>
<g id="a_Node000015"><a xlink:href="par__mpi_8h.html#a893a7c85fb77e355d4cec6bc35711b98" target="_top" xlink:title="Swaps the halos along the axis given by idir in the direction given by layer.">
<polygon fill="white" stroke="#666666" points="303,-167.25 216.5,-167.25 216.5,-148 303,-148 303,-167.25"/>
<text text-anchor="middle" x="259.75" y="-153.75" font-family="IBMPlexSans-Regular" font-size="10.00">ZHalo_swap_dir</text>
</a>
</g>
</g>
<!-- Node2&#45;&gt;Node15 -->
<g id="edge15_Node000002_Node000015" class="edge">
<title>Node2&#45;&gt;Node15</title>
<g id="a_edge15_Node000002_Node000015"><a xlink:title=" ">
<path fill="none" stroke="#63b8ff" d="M150.49,-204.08C167.87,-196.56 193.85,-185.34 216.5,-175.62 219.13,-174.5 221.85,-173.33 224.59,-172.16"/>
<polygon fill="#63b8ff" stroke="#63b8ff" points="225.84,-175.43 233.66,-168.29 223.09,-169 225.84,-175.43"/>
</a>
</g>
</g>
<!-- Node4 -->
<g id="Node000004" class="node">
<title>Node4</title>
<g id="a_Node000004"><a xlink:href="matrices_8c.html#a17eb50d07c881fc5d1585ddf14aa1ff0" target="_top" xlink:title="Evaluates &#160;in single precision.">
<polygon fill="white" stroke="#666666" points="412.75,-389.25 352.5,-389.25 352.5,-370 412.75,-370 412.75,-389.25"/>
<text text-anchor="middle" x="382.62" y="-375.75" font-family="IBMPlexSans-Regular" font-size="10.00">Hdslash_f</text>
</a>
</g>
</g>
<!-- Node3&#45;&gt;Node4 -->
<g id="edge3_Node000003_Node000004" class="edge">
<title>Node3&#45;&gt;Node4</title>
<g id="a_edge3_Node000003_Node000004"><a xlink:title=" ">
<path fill="none" stroke="#63b8ff" d="M272.92,-315.64C287.84,-327.61 314.22,-347.75 339,-361.62 341.03,-362.76 343.14,-363.87 345.29,-364.94"/>
<polygon fill="#63b8ff" stroke="#63b8ff" points="343.57,-368 354.12,-369.03 346.52,-361.65 343.57,-368"/>
</a>
</g>
</g>
<!-- Node6 -->
<g id="Node000006" class="node">
<title>Node6</title>
<g id="a_Node000006"><a xlink:href="matrices_8c.html#a87e3179e3c6947eacfa74ada59aaeb0c" target="_top" xlink:title="Evaluates &#160;in single precision.">
<polygon fill="white" stroke="#666666" points="415.38,-352.25 349.88,-352.25 349.88,-333 415.38,-333 415.38,-352.25"/>
<text text-anchor="middle" x="382.62" y="-338.75" font-family="IBMPlexSans-Regular" font-size="10.00">Hdslashd_f</text>
</a>
</g>
</g>
<!-- Node3&#45;&gt;Node6 -->
<g id="edge5_Node000003_Node000006" class="edge">
<title>Node3&#45;&gt;Node6</title>
<g id="a_edge5_Node000003_Node000006"><a xlink:title=" ">
<path fill="none" stroke="#63b8ff" d="M288.78,-314.21C303.66,-318.76 322.25,-324.45 338.88,-329.54"/>
<polygon fill="#63b8ff" stroke="#63b8ff" points="337.44,-332.76 348.02,-332.34 339.49,-326.07 337.44,-332.76"/>
</a>
</g>
</g>
<!-- Node7 -->
<g id="Node000007" class="node">
<title>Node7</title>
<g id="a_Node000007"><a xlink:href="par__mpi_8h.html#aecfe9840e5f8dfd693b813b750d81a0c" target="_top" xlink:title="Performs a reduction on a double dval to get a sum which is then distributed to all ranks.">
<polygon fill="white" stroke="#666666" points="412.75,-315.25 352.5,-315.25 352.5,-296 412.75,-296 412.75,-315.25"/>
<text text-anchor="middle" x="382.62" y="-301.75" font-family="IBMPlexSans-Regular" font-size="10.00">Par_dsum</text>
</a>
</g>
</g>
<!-- Node3&#45;&gt;Node7 -->
<g id="edge7_Node000003_Node000007" class="edge">
<title>Node3&#45;&gt;Node7</title>
<g id="a_edge7_Node000003_Node000007"><a xlink:title=" ">
<path fill="none" stroke="#63b8ff" d="M288.78,-305.62C304.2,-305.62 323.6,-305.62 340.68,-305.62"/>
<polygon fill="#63b8ff" stroke="#63b8ff" points="340.54,-309.13 350.54,-305.63 340.54,-302.13 340.54,-309.13"/>
</a>
</g>
</g>
<!-- Node8 -->
<g id="Node000008" class="node">
<title>Node8</title>
<g id="a_Node000008"><a xlink:href="par__mpi_8h.html#a4e2e85b06c5b05c5181729cc5ebdd05b" target="_top" xlink:title="Performs a reduction on a float dval to get a sum which is then distributed to all ranks.">
<polygon fill="white" stroke="#666666" points="411.62,-278.25 353.62,-278.25 353.62,-259 411.62,-259 411.62,-278.25"/>
<text text-anchor="middle" x="382.62" y="-264.75" font-family="IBMPlexSans-Regular" font-size="10.00">Par_fsum</text>
</a>
</g>
</g>
<!-- Node3&#45;&gt;Node8 -->
<g id="edge8_Node000003_Node000008" class="edge">
<title>Node3&#45;&gt;Node8</title>
<g id="a_edge8_Node000003_Node000008"><a xlink:title=" ">
<path fill="none" stroke="#63b8ff" d="M288.78,-297.04C304.84,-292.13 325.23,-285.89 342.81,-280.51"/>
<polygon fill="#63b8ff" stroke="#63b8ff" points="343.34,-284 351.88,-277.73 341.29,-277.31 343.34,-284"/>
</a>
</g>
</g>
<!-- Node5 -->
<g id="Node000005" class="node">
<title>Node5</title>
<g id="a_Node000005"><a xlink:href="par__mpi_8h.html#a14b1a550ef4f44a9e4d7dd06c9427993" target="_top" xlink:title="Calls the functions to send data to both the up and down halos.">
<polygon fill="white" stroke="#666666" points="548.75,-370.25 462.25,-370.25 462.25,-351 548.75,-351 548.75,-370.25"/>
<text text-anchor="middle" x="505.5" y="-356.75" font-family="IBMPlexSans-Regular" font-size="10.00">CHalo_swap_all</text>
</a>
</g>
</g>
<!-- Node4&#45;&gt;Node5 -->
<g id="edge4_Node000004_Node000005" class="edge">
<title>Node4&#45;&gt;Node5</title>
<g id="a_edge4_Node000004_Node000005"><a xlink:title=" ">
<path fill="none" stroke="#63b8ff" d="M413.19,-374.98C424.55,-373.19 437.88,-371.1 450.81,-369.06"/>
<polygon fill="#63b8ff" stroke="#63b8ff" points="451.16,-372.55 460.5,-367.54 450.08,-365.64 451.16,-372.55"/>
</a>
</g>
</g>
<!-- Node6&#45;&gt;Node5 -->
<g id="edge6_Node000006_Node000005" class="edge">
<title>Node6&#45;&gt;Node5</title>
<g id="a_edge6_Node000006_Node000005"><a xlink:title=" ">
<path fill="none" stroke="#63b8ff" d="M415.7,-347.4C426.41,-349 438.65,-350.82 450.55,-352.59"/>
<polygon fill="#63b8ff" stroke="#63b8ff" points="449.89,-356.03 460.3,-354.04 450.93,-349.11 449.89,-356.03"/>
</a>
</g>
</g>
<!-- Node11 -->
<g id="Node000011" class="node">
<title>Node11</title>
<g id="a_Node000011"><a xlink:href="su2hmc_8c.html#af64f1450e29df479f82290bc4f7bdc1f" target="_top" xlink:title="Extracts all the single precision gauge links in the &#160;direction only.">
<polygon fill="white" stroke="#666666" points="410.12,-241.25 355.12,-241.25 355.12,-222 410.12,-222 410.12,-241.25"/>
<text text-anchor="middle" x="382.62" y="-227.75" font-family="IBMPlexSans-Regular" font-size="10.00">C_gather</text>
</a>
</g>
</g>
<!-- Node10&#45;&gt;Node11 -->
<g id="edge11_Node000010_Node000011" class="edge">
<title>Node10&#45;&gt;Node11</title>
<g id="a_edge11_Node000010_Node000011"><a xlink:title=" ">
<path fill="none" stroke="#63b8ff" d="M295.71,-231.62C310.71,-231.62 328.28,-231.62 343.6,-231.62"/>
<polygon fill="#63b8ff" stroke="#63b8ff" points="343.29,-235.13 353.29,-231.63 343.29,-228.13 343.29,-235.13"/>
</a>
</g>
</g>
<!-- Node12 -->
<g id="Node000012" class="node">
<title>Node12</title>
<g id="a_Node000012"><a xlink:href="par__mpi_8h.html#ab73329ce6f65730ba4783a8031edd518" target="_top" xlink:title="Swaps the halos along the axis given by idir in the direction given by layer.">
<polygon fill="white" stroke="#666666" points="426.25,-204.25 339,-204.25 339,-185 426.25,-185 426.25,-204.25"/>
<text text-anchor="middle" x="382.62" y="-190.75" font-family="IBMPlexSans-Regular" font-size="10.00">CHalo_swap_dir</text>
</a>
</g>
</g>
<!-- Node10&#45;&gt;Node12 -->
<g id="edge12_Node000010_Node000012" class="edge">
<title>Node10&#45;&gt;Node12</title>
<g id="a_edge12_Node000010_Node000012"><a xlink:title=" ">
<path fill="none" stroke="#63b8ff" d="M293.78,-221.51C307.37,-217.35 323.31,-212.48 337.85,-208.02"/>
<polygon fill="#63b8ff" stroke="#63b8ff" points="338.65,-211.44 347.19,-205.17 336.6,-204.75 338.65,-211.44"/>
</a>
</g>
</g>
<!-- Node14 -->
<g id="Node000014" class="node">
<title>Node14</title>
<g id="a_Node000014"><a xlink:href="par__mpi_8h.html#a35d208a5a65e71101e71d3f0248aef03" target="_top" xlink:title="Calls the functions to send data to both the up and down halos.">
<polygon fill="white" stroke="#666666" points="425.5,-130.25 339.75,-130.25 339.75,-111 425.5,-111 425.5,-130.25"/>
<text text-anchor="middle" x="382.62" y="-116.75" font-family="IBMPlexSans-Regular" font-size="10.00">ZHalo_swap_all</text>
</a>
</g>
</g>
<!-- Node13&#45;&gt;Node14 -->
<g id="edge14_Node000013_Node000014" class="edge">
<title>Node13&#45;&gt;Node14</title>
<g id="a_edge14_Node000013_Node000014"><a xlink:title=" ">
<path fill="none" stroke="#63b8ff" d="M286.2,-184.84C291.84,-182.38 297.71,-179.59 303,-176.62 323.58,-165.09 345.3,-149.31 360.69,-137.44"/>
<polygon fill="#63b8ff" stroke="#63b8ff" points="362.48,-140.48 368.19,-131.56 358.16,-134.97 362.48,-140.48"/>
</a>
</g>
</g>
<!-- Node17 -->
<g id="Node000017" class="node">
<title>Node17</title>
<g id="a_Node000017"><a xlink:href="matrices_8c.html#a998120d21faa6bf801710ae86f3d918b" target="_top" xlink:title="Reunitarises u11t and u12t as in conj(u11t[i])*u11t[i]+conj(u12t[i])*u12t[i]=1.">
<polygon fill="white" stroke="#666666" points="292.12,-130.25 227.38,-130.25 227.38,-111 292.12,-111 292.12,-130.25"/>
<text text-anchor="middle" x="259.75" y="-116.75" font-family="IBMPlexSans-Regular" font-size="10.00">Reunitarise</text>
</a>
</g>
</g>
<!-- Node16&#45;&gt;Node17 -->
<g id="edge17_Node000016_Node000017" class="edge">
<title>Node16&#45;&gt;Node17</title>
<g id="a_edge17_Node000016_Node000017"><a xlink:title=" ">
<path fill="none" stroke="#63b8ff" d="M170.55,-120.62C184.91,-120.62 201.18,-120.62 215.8,-120.62"/>
<polygon fill="#63b8ff" stroke="#63b8ff" points="215.59,-124.13 225.59,-120.63 215.59,-117.13 215.59,-124.13"/>
</a>
</g>
</g>
<!-- Node18 -->
<g id="Node000018" class="node">
<title>Node18</title>
<g id="a_Node000018"><a xlink:href="par__mpi_8c.html#aa988b87ed44e79f217a03e824c9d484e" target="_top" xlink:title="Exchanges the trial fields.">
<polygon fill="white" stroke="#666666" points="300.75,-93.25 218.75,-93.25 218.75,-74 300.75,-74 300.75,-93.25"/>
<text text-anchor="middle" x="259.75" y="-79.75" font-family="IBMPlexSans-Regular" font-size="10.00">Trial_Exchange</text>
</a>
</g>
</g>
<!-- Node16&#45;&gt;Node18 -->
<g id="edge18_Node000016_Node000018" class="edge">
<title>Node16&#45;&gt;Node18</title>
<g id="a_edge18_Node000016_Node000018"><a xlink:title=" ">
<path fill="none" stroke="#63b8ff" d="M165.73,-110.51C180.26,-106.31 197.33,-101.38 212.85,-96.89"/>
<polygon fill="#63b8ff" stroke="#63b8ff" points="213.73,-100.28 222.36,-94.14 211.78,-93.56 213.73,-100.28"/>
</a>
</g>
</g>
<!-- Node18&#45;&gt;Node14 -->
<g id="edge19_Node000018_Node000014" class="edge">
<title>Node18&#45;&gt;Node14</title>
<g id="a_edge19_Node000018_Node000014"><a xlink:title=" ">
<path fill="none" stroke="#63b8ff" d="M293.78,-93.74C307.37,-97.9 323.31,-102.77 337.85,-107.23"/>
<polygon fill="#63b8ff" stroke="#63b8ff" points="336.6,-110.5 347.19,-110.08 338.65,-103.81 336.6,-110.5"/>
</a>
</g>
</g>
<!-- Node21 -->
<g id="Node000021" class="node">
<title>Node21</title>
<g id="a_Node000021"><a xlink:href="par__mpi_8h.html#a6067f92fc64a6426e2780a017dc553c7" target="_top" xlink:title="Broadcasts a double to the other processes.">
<polygon fill="white" stroke="#666666" points="290.62,-56.25 228.88,-56.25 228.88,-37 290.62,-37 290.62,-56.25"/>
<text text-anchor="middle" x="259.75" y="-42.75" font-family="IBMPlexSans-Regular" font-size="10.00">Par_dcopy</text>
</a>
</g>
</g>
<!-- Node20&#45;&gt;Node21 -->
<g id="edge22_Node000020_Node000021" class="edge">
<title>Node20&#45;&gt;Node21</title>
<g id="a_edge22_Node000020_Node000021"><a xlink:title=" ">
<path fill="none" stroke="#63b8ff" d="M159.16,-46.62C176.24,-46.62 198.27,-46.62 217.27,-46.62"/>
<polygon fill="#63b8ff" stroke="#63b8ff" points="217.13,-50.13 227.13,-46.63 217.13,-43.13 217.13,-50.13"/>
</a>
</g>
</g>
<!-- Node22 -->
<g id="Node000022" class="node">
<title>Node22</title>
<g id="a_Node000022"><a xlink:href="random_8c.html#afba975c2629ded7c68cb21cfbeb4b496" target="_top" xlink:title="Generates uniformly distributed random double between zero and one as described in numerical recipes....">
<polygon fill="white" stroke="#666666" points="277.12,-19.25 242.38,-19.25 242.38,0 277.12,0 277.12,-19.25"/>
<text text-anchor="middle" x="259.75" y="-5.75" font-family="IBMPlexSans-Regular" font-size="10.00">ran2</text>
</a>
</g>
</g>
<!-- Node20&#45;&gt;Node22 -->
<g id="edge23_Node000020_Node000022" class="edge">
<title>Node20&#45;&gt;Node22</title>
<g id="a_edge23_Node000020_Node000022"><a xlink:title=" ">
<path fill="none" stroke="#63b8ff" d="M159.16,-38.41C180.66,-32.2 210.02,-23.71 231.29,-17.56"/>
<polygon fill="#63b8ff" stroke="#63b8ff" points="232.08,-20.98 240.71,-14.84 230.14,-14.25 232.08,-20.98"/>
</a>
</g>
</g>
</g>
</svg>
