<?xml version="1.0" encoding="UTF-8" standalone="no"?>
<!DOCTYPE svg PUBLIC "-//W3C//DTD SVG 1.1//EN"
 "http://www.w3.org/Graphics/SVG/1.1/DTD/svg11.dtd">
<!-- Generated by graphviz version 12.2.1 (20241206.2353)
 -->
<!-- Title: INCLUDE/integrate.h Pages: 1 -->
<svg width="512pt" height="304pt"
 viewBox="0.00 0.00 512.50 303.50" xmlns="http://www.w3.org/2000/svg" xmlns:xlink="http://www.w3.org/1999/xlink">
<g id="graph0" class="graph" transform="scale(1 1) rotate(0) translate(4 299.5)">
<title>INCLUDE/integrate.h</title>
<!-- Node1 -->
<g id="Node000001" class="node">
<title>Node1</title>
<g id="a_Node000001"><a xlink:title="Integrators for the HMC.">
<polygon fill="#999999" stroke="#666666" points="319.25,-295.5 211.75,-295.5 211.75,-276.25 319.25,-276.25 319.25,-295.5"/>
<text text-anchor="middle" x="265.5" y="-282" font-family="IBMPlexSans-Regular" font-size="10.00">INCLUDE/integrate.h</text>
</a>
</g>
</g>
<!-- Node2 -->
<g id="Node000002" class="node">
<title>Node2</title>
<g id="a_Node000002"><a xlink:title=" ">
<polygon fill="#e0e0e0" stroke="#999999" points="55,-129.75 0,-129.75 0,-110.5 55,-110.5 55,-129.75"/>
<text text-anchor="middle" x="27.5" y="-116.25" font-family="IBMPlexSans-Regular" font-size="10.00">stdbool.h</text>
</a>
</g>
</g>
<!-- Node1&#45;&gt;Node2 -->
<g id="edge1_Node000001_Node000002" class="edge">
<title>Node1&#45;&gt;Node2</title>
<g id="a_edge1_Node000001_Node000002"><a xlink:title=" ">
<path fill="none" stroke="#63b8ff" d="M252.37,-275.84C213.52,-249.11 98.85,-170.21 49.97,-136.59"/>
<polygon fill="#63b8ff" stroke="#63b8ff" points="52.06,-133.78 41.84,-130.99 48.1,-139.54 52.06,-133.78"/>
</a>
</g>
</g>
<!-- Node3 -->
<g id="Node000003" class="node">
<title>Node3</title>
<g id="a_Node000003"><a xlink:href="random_8h.html" target="_top" xlink:title="Header for random number configuration.">
<polygon fill="white" stroke="#666666" points="293.38,-240.25 237.62,-240.25 237.62,-221 293.38,-221 293.38,-240.25"/>
<text text-anchor="middle" x="265.5" y="-226.75" font-family="IBMPlexSans-Regular" font-size="10.00">random.h</text>
</a>
</g>
</g>
<!-- Node1&#45;&gt;Node3 -->
<g id="edge2_Node000001_Node000003" class="edge">
<title>Node1&#45;&gt;Node3</title>
<g id="a_edge2_Node000001_Node000003"><a xlink:title=" ">
<path fill="none" stroke="#63b8ff" d="M265.5,-276.08C265.5,-269.57 265.5,-260.42 265.5,-252.12"/>
<polygon fill="#63b8ff" stroke="#63b8ff" points="269,-252.12 265.5,-242.12 262,-252.12 269,-252.12"/>
</a>
</g>
</g>
<!-- Node7 -->
<g id="Node000007" class="node">
<title>Node7</title>
<g id="a_Node000007"><a xlink:href="sizes_8h.html" target="_top" xlink:title="Defines the constants of the code and other parameters for loop dimensions. Each subroutine includes ...">
<polygon fill="white" stroke="#666666" points="434.5,-74.5 388.5,-74.5 388.5,-55.25 434.5,-55.25 434.5,-74.5"/>
<text text-anchor="middle" x="411.5" y="-61" font-family="IBMPlexSans-Regular" font-size="10.00">sizes.h</text>
</a>
</g>
</g>
<!-- Node1&#45;&gt;Node7 -->
<g id="edge16_Node000001_Node000007" class="edge">
<title>Node1&#45;&gt;Node7</title>
<g id="a_edge16_Node000001_Node000007"><a xlink:title=" ">
<path fill="none" stroke="#63b8ff" d="M300.66,-275.84C358.22,-258.78 469.44,-215.56 502.5,-129.75 513.53,-101.12 475.77,-83.41 445.56,-74.11"/>
<polygon fill="#63b8ff" stroke="#63b8ff" points="446.91,-70.85 436.33,-71.47 444.98,-77.58 446.91,-70.85"/>
</a>
</g>
</g>
<!-- Node4 -->
<g id="Node000004" class="node">
<title>Node4</title>
<g id="a_Node000004"><a xlink:title=" ">
<polygon fill="#e0e0e0" stroke="#999999" points="132.12,-74.5 86.88,-74.5 86.88,-55.25 132.12,-55.25 132.12,-74.5"/>
<text text-anchor="middle" x="109.5" y="-61" font-family="IBMPlexSans-Regular" font-size="10.00">math.h</text>
</a>
</g>
</g>
<!-- Node3&#45;&gt;Node4 -->
<g id="edge3_Node000003_Node000004" class="edge">
<title>Node3&#45;&gt;Node4</title>
<g id="a_edge3_Node000003_Node000004"><a xlink:title=" ">
<path fill="none" stroke="#63b8ff" d="M237.36,-221.81C198.89,-209.44 131.37,-181.29 102.5,-129.75 94.99,-116.34 97.59,-98.85 101.6,-85.57"/>
<polygon fill="#63b8ff" stroke="#63b8ff" points="104.87,-86.81 104.92,-76.22 98.27,-84.47 104.87,-86.81"/>
</a>
</g>
</g>
<!-- Node5 -->
<g id="Node000005" class="node">
<title>Node5</title>
<g id="a_Node000005"><a xlink:href="par__mpi_8h.html" target="_top" xlink:title="MPI headers.">
<polygon fill="white" stroke="#666666" points="294.5,-185 236.5,-185 236.5,-165.75 294.5,-165.75 294.5,-185"/>
<text text-anchor="middle" x="265.5" y="-171.5" font-family="IBMPlexSans-Regular" font-size="10.00">par_mpi.h</text>
</a>
</g>
</g>
<!-- Node3&#45;&gt;Node5 -->
<g id="edge4_Node000003_Node000005" class="edge">
<title>Node3&#45;&gt;Node5</title>
<g id="a_edge4_Node000003_Node000005"><a xlink:title=" ">
<path fill="none" stroke="#63b8ff" d="M265.5,-220.83C265.5,-214.32 265.5,-205.17 265.5,-196.87"/>
<polygon fill="#63b8ff" stroke="#63b8ff" points="269,-196.87 265.5,-186.87 262,-196.87 269,-196.87"/>
</a>
</g>
</g>
<!-- Node3&#45;&gt;Node7 -->
<g id="edge15_Node000003_Node000007" class="edge">
<title>Node3&#45;&gt;Node7</title>
<g id="a_edge15_Node000003_Node000007"><a xlink:title=" ">
<path fill="none" stroke="#63b8ff" d="M293.73,-226.48C342.92,-219.3 443.23,-196.79 486.5,-129.75 500.68,-107.77 471.16,-89.26 445.08,-77.91"/>
<polygon fill="#63b8ff" stroke="#63b8ff" points="446.61,-74.76 436.02,-74.21 443.96,-81.24 446.61,-74.76"/>
</a>
</g>
</g>
<!-- Node5&#45;&gt;Node2 -->
<g id="edge11_Node000005_Node000002" class="edge">
<title>Node5&#45;&gt;Node2</title>
<g id="a_edge11_Node000005_Node000002"><a xlink:title=" ">
<path fill="none" stroke="#63b8ff" d="M236.32,-167.85C193.66,-158.3 114.19,-140.52 66.54,-129.86"/>
<polygon fill="#63b8ff" stroke="#63b8ff" points="67.44,-126.48 56.92,-127.71 65.91,-133.31 67.44,-126.48"/>
</a>
</g>
</g>
<!-- Node6 -->
<g id="Node000006" class="node">
<title>Node6</title>
<g id="a_Node000006"><a xlink:href="coord_8h.html" target="_top" xlink:title="Header for routines related to lattice sites.">
<polygon fill="white" stroke="#666666" points="159.25,-129.75 111.75,-129.75 111.75,-110.5 159.25,-110.5 159.25,-129.75"/>
<text text-anchor="middle" x="135.5" y="-116.25" font-family="IBMPlexSans-Regular" font-size="10.00">coord.h</text>
</a>
</g>
</g>
<!-- Node5&#45;&gt;Node6 -->
<g id="edge5_Node000005_Node000006" class="edge">
<title>Node5&#45;&gt;Node6</title>
<g id="a_edge5_Node000005_Node000006"><a xlink:title=" ">
<path fill="none" stroke="#63b8ff" d="M243.45,-165.34C222.81,-156.89 191.72,-144.15 168.2,-134.52"/>
<polygon fill="#63b8ff" stroke="#63b8ff" points="169.64,-131.33 159.06,-130.78 166.99,-137.81 169.64,-131.33"/>
</a>
</g>
</g>
<!-- Node5&#45;&gt;Node7 -->
<g id="edge10_Node000005_Node000007" class="edge">
<title>Node5&#45;&gt;Node7</title>
<g id="a_edge10_Node000005_Node000007"><a xlink:title=" ">
<path fill="none" stroke="#63b8ff" d="M274.2,-165.51C287.13,-152.59 312.47,-128.2 336.5,-110.5 351.62,-99.37 369.68,-88.56 384.28,-80.36"/>
<polygon fill="#63b8ff" stroke="#63b8ff" points="385.82,-83.51 392.89,-75.62 382.44,-77.38 385.82,-83.51"/>
</a>
</g>
</g>
<!-- Node9 -->
<g id="Node000009" class="node">
<title>Node9</title>
<g id="a_Node000009"><a xlink:href="errorcodes_8h.html" target="_top" xlink:title="This header is intended to be a useful reference for error codes and their meanings.">
<polygon fill="white" stroke="#666666" points="415.12,-129.75 345.88,-129.75 345.88,-110.5 415.12,-110.5 415.12,-129.75"/>
<text text-anchor="middle" x="380.5" y="-116.25" font-family="IBMPlexSans-Regular" font-size="10.00">errorcodes.h</text>
</a>
</g>
</g>
<!-- Node5&#45;&gt;Node9 -->
<g id="edge9_Node000005_Node000009" class="edge">
<title>Node5&#45;&gt;Node9</title>
<g id="a_edge9_Node000005_Node000009"><a xlink:title=" ">
<path fill="none" stroke="#63b8ff" d="M285.01,-165.34C303.02,-157 330.02,-144.5 350.73,-134.91"/>
<polygon fill="#63b8ff" stroke="#63b8ff" points="351.92,-138.22 359.52,-130.84 348.98,-131.86 351.92,-138.22"/>
</a>
</g>
</g>
<!-- Node10 -->
<g id="Node000010" class="node">
<title>Node10</title>
<g id="a_Node000010"><a xlink:title=" ">
<polygon fill="#e0e0e0" stroke="#999999" points="477.75,-129.75 433.25,-129.75 433.25,-110.5 477.75,-110.5 477.75,-129.75"/>
<text text-anchor="middle" x="455.5" y="-116.25" font-family="IBMPlexSans-Regular" font-size="10.00">stdio.h</text>
</a>
</g>
</g>
<!-- Node5&#45;&gt;Node10 -->
<g id="edge12_Node000005_Node000010" class="edge">
<title>Node5&#45;&gt;Node10</title>
<g id="a_edge12_Node000005_Node000010"><a xlink:title=" ">
<path fill="none" stroke="#63b8ff" d="M294.77,-166.17C329.06,-156.56 385.74,-140.68 421.82,-130.56"/>
<polygon fill="#63b8ff" stroke="#63b8ff" points="422.61,-133.98 431.3,-127.91 420.73,-127.24 422.61,-133.98"/>
</a>
</g>
</g>
<!-- Node11 -->
<g id="Node000011" class="node">
<title>Node11</title>
<g id="a_Node000011"><a xlink:title=" ">
<polygon fill="#e0e0e0" stroke="#999999" points="223.88,-129.75 177.12,-129.75 177.12,-110.5 223.88,-110.5 223.88,-129.75"/>
<text text-anchor="middle" x="200.5" y="-116.25" font-family="IBMPlexSans-Regular" font-size="10.00">stdlib.h</text>
</a>
</g>
</g>
<!-- Node5&#45;&gt;Node11 -->
<g id="edge13_Node000005_Node000011" class="edge">
<title>Node5&#45;&gt;Node11</title>
<g id="a_edge13_Node000005_Node000011"><a xlink:title=" ">
<path fill="none" stroke="#63b8ff" d="M254.47,-165.34C245.08,-157.65 231.35,-146.4 220.09,-137.18"/>
<polygon fill="#63b8ff" stroke="#63b8ff" points="222.49,-134.61 212.53,-130.98 218.05,-140.03 222.49,-134.61"/>
</a>
</g>
</g>
<!-- Node12 -->
<g id="Node000012" class="node">
<title>Node12</title>
<g id="a_Node000012"><a xlink:title=" ">
<polygon fill="#e0e0e0" stroke="#999999" points="289.25,-129.75 241.75,-129.75 241.75,-110.5 289.25,-110.5 289.25,-129.75"/>
<text text-anchor="middle" x="265.5" y="-116.25" font-family="IBMPlexSans-Regular" font-size="10.00">string.h</text>
</a>
</g>
</g>
<!-- Node5&#45;&gt;Node12 -->
<g id="edge14_Node000005_Node000012" class="edge">
<title>Node5&#45;&gt;Node12</title>
<g id="a_edge14_Node000005_Node000012"><a xlink:title=" ">
<path fill="none" stroke="#63b8ff" d="M265.5,-165.58C265.5,-159.07 265.5,-149.92 265.5,-141.62"/>
<polygon fill="#63b8ff" stroke="#63b8ff" points="269,-141.62 265.5,-131.62 262,-141.62 269,-141.62"/>
</a>
</g>
</g>
<!-- Node6&#45;&gt;Node4 -->
<g id="edge6_Node000006_Node000004" class="edge">
<title>Node6&#45;&gt;Node4</title>
<g id="a_edge6_Node000006_Node000004"><a xlink:title=" ">
<path fill="none" stroke="#63b8ff" d="M131.21,-110.33C127.88,-103.51 123.14,-93.81 118.94,-85.2"/>
<polygon fill="#63b8ff" stroke="#63b8ff" points="122.08,-83.67 114.55,-76.22 115.79,-86.74 122.08,-83.67"/>
</a>
</g>
</g>
<!-- Node6&#45;&gt;Node7 -->
<g id="edge7_Node000006_Node000007" class="edge">
<title>Node6&#45;&gt;Node7</title>
<g id="a_edge7_Node000006_Node000007"><a xlink:title=" ">
<path fill="none" stroke="#63b8ff" d="M159.6,-112.61C162.59,-111.86 165.61,-111.14 168.5,-110.5 242.42,-94.08 329.95,-79.08 377.16,-71.36"/>
<polygon fill="#63b8ff" stroke="#63b8ff" points="377.46,-74.85 386.77,-69.8 376.34,-67.95 377.46,-74.85"/>
</a>
</g>
</g>
<!-- Node8 -->
<g id="Node000008" class="node">
<title>Node8</title>
<g id="a_Node000008"><a xlink:title=" ">
<polygon fill="#e0e0e0" stroke="#999999" points="441.25,-19.25 381.75,-19.25 381.75,0 441.25,0 441.25,-19.25"/>
<text text-anchor="middle" x="411.5" y="-5.75" font-family="IBMPlexSans-Regular" font-size="10.00">complex.h</text>
</a>
</g>
</g>
<!-- Node7&#45;&gt;Node8 -->
<g id="edge8_Node000007_Node000008" class="edge">
<title>Node7&#45;&gt;Node8</title>
<g id="a_edge8_Node000007_Node000008"><a xlink:title=" ">
<path fill="none" stroke="#63b8ff" d="M411.5,-55.08C411.5,-48.57 411.5,-39.42 411.5,-31.12"/>
<polygon fill="#63b8ff" stroke="#63b8ff" points="415,-31.12 411.5,-21.12 408,-31.12 415,-31.12"/>
</a>
</g>
</g>
</g>
</svg>
