<?xml version="1.0" encoding="UTF-8" standalone="no"?>
<!DOCTYPE svg PUBLIC "-//W3C//DTD SVG 1.1//EN"
 "http://www.w3.org/Graphics/SVG/1.1/DTD/svg11.dtd">
<!-- Generated by graphviz version 11.0.0 (20240428.1522)
 -->
<!-- Title: Leapfrog Pages: 1 -->
<svg width="568pt" height="397pt"
 viewBox="0.00 0.00 568.00 397.25" xmlns="http://www.w3.org/2000/svg" xmlns:xlink="http://www.w3.org/1999/xlink">
<g id="graph0" class="graph" transform="scale(1 1) rotate(0) translate(4 393.25)">
<title>Leapfrog</title>
<!-- Node1 -->
<g id="Node000001" class="node">
<title>Node1</title>
<g id="a_Node000001"><a xlink:title="Leapfrog integrator. Each trajectory step takes the form of p&#45;&gt;p+dt/2,u&#45;&gt;u+dt,p&#45;&gt;p+dt/2 In practice t...">
<polygon fill="#999999" stroke="#666666" points="54.25,-111.25 0,-111.25 0,-92 54.25,-92 54.25,-111.25"/>
<text text-anchor="middle" x="27.12" y="-97.75" font-family="IBMPlexSans-Regular" font-size="10.00">Leapfrog</text>
</a>
</g>
</g>
<!-- Node2 -->
<g id="Node000002" class="node">
<title>Node2</title>
<g id="a_Node000002"><a xlink:href="force_8c.html#a40e5951024b2de0086a5f878963c6bae" target="_top" xlink:title="Calculates the force &#160;at each intermediate time.">
<polygon fill="white" stroke="#666666" points="161.38,-222.25 120.62,-222.25 120.62,-203 161.38,-203 161.38,-222.25"/>
<text text-anchor="middle" x="141" y="-208.75" font-family="IBMPlexSans-Regular" font-size="10.00">Force</text>
</a>
</g>
</g>
<!-- Node1&#45;&gt;Node2 -->
<g id="edge1_Node000001_Node000002" class="edge">
<title>Node1&#45;&gt;Node2</title>
<g id="a_edge1_Node000001_Node000002"><a xlink:title=" ">
<path fill="none" stroke="#63b8ff" d="M38.05,-111.48C56.91,-130.19 98.16,-171.12 122.01,-194.78"/>
<polygon fill="#63b8ff" stroke="#63b8ff" points="119.29,-197.01 128.86,-201.57 124.23,-192.04 119.29,-197.01"/>
</a>
</g>
</g>
<!-- Node16 -->
<g id="Node000016" class="node">
<title>Node16</title>
<g id="a_Node000016"><a xlink:href="integrate_8c.html#aad98b6e55d3f033e15cffc5b53b173ee" target="_top" xlink:title="Gauge update for the integration step of the HMC.">
<polygon fill="white" stroke="#666666" points="181.62,-130.25 100.38,-130.25 100.38,-111 181.62,-111 181.62,-130.25"/>
<text text-anchor="middle" x="141" y="-116.75" font-family="IBMPlexSans-Regular" font-size="10.00">Gauge_Update</text>
</a>
</g>
</g>
<!-- Node1&#45;&gt;Node16 -->
<g id="edge16_Node000001_Node000016" class="edge">
<title>Node1&#45;&gt;Node16</title>
<g id="a_edge16_Node000001_Node000016"><a xlink:title=" ">
<path fill="none" stroke="#63b8ff" d="M54.64,-106.13C64.92,-107.87 77.06,-109.94 88.9,-111.95"/>
<polygon fill="#63b8ff" stroke="#63b8ff" points="88.16,-115.37 98.61,-113.6 89.34,-108.47 88.16,-115.37"/>
</a>
</g>
</g>
<!-- Node19 -->
<g id="Node000019" class="node">
<title>Node19</title>
<g id="a_Node000019"><a xlink:href="integrate_8c.html#af1766f80334a88c142c09e8a1eb682f4" target="_top" xlink:title="Wrapper for the momentum update during the integration step of the HMC.">
<polygon fill="white" stroke="#666666" points="191.75,-93.25 90.25,-93.25 90.25,-74 191.75,-74 191.75,-93.25"/>
<text text-anchor="middle" x="141" y="-79.75" font-family="IBMPlexSans-Regular" font-size="10.00">Momentum_Update</text>
</a>
</g>
</g>
<!-- Node1&#45;&gt;Node19 -->
<g id="edge20_Node000001_Node000019" class="edge">
<title>Node1&#45;&gt;Node19</title>
<g id="a_edge20_Node000001_Node000019"><a xlink:title=" ">
<path fill="none" stroke="#63b8ff" d="M54.64,-97.36C62.01,-96.17 70.33,-94.84 78.81,-93.47"/>
<polygon fill="#63b8ff" stroke="#63b8ff" points="79.18,-96.96 88.49,-91.91 78.06,-90.05 79.18,-96.96"/>
</a>
</g>
</g>
<!-- Node20 -->
<g id="Node000020" class="node">
<title>Node20</title>
<g id="a_Node000020"><a xlink:href="random_8c.html#af30389dbea7d2b366abea7a923bb008d" target="_top" xlink:title="Generates a random double which is then sent to the other ranks.">
<polygon fill="white" stroke="#666666" points="170,-56.25 112,-56.25 112,-37 170,-37 170,-56.25"/>
<text text-anchor="middle" x="141" y="-42.75" font-family="IBMPlexSans-Regular" font-size="10.00">Par_granf</text>
</a>
</g>
</g>
<!-- Node1&#45;&gt;Node20 -->
<g id="edge21_Node000001_Node000020" class="edge">
<title>Node1&#45;&gt;Node20</title>
<g id="a_edge21_Node000001_Node000020"><a xlink:title=" ">
<path fill="none" stroke="#63b8ff" d="M43.25,-91.51C55.56,-83.55 73.57,-72.52 90.25,-64.62 93.76,-62.96 97.47,-61.36 101.21,-59.84"/>
<polygon fill="#63b8ff" stroke="#63b8ff" points="102.23,-63.2 110.31,-56.34 99.72,-56.66 102.23,-63.2"/>
</a>
</g>
</g>
<!-- Node3 -->
<g id="Node000003" class="node">
<title>Node3</title>
<g id="a_Node000003"><a xlink:href="congrad_8c.html#aa32f0774e38a36310209b44a2abae8e6" target="_top" xlink:title="Matrix Inversion via Conjugate Gradient (up/down flavour partitioning). Solves &#160;Implements up/down pa...">
<polygon fill="white" stroke="#666666" points="299.62,-315.25 242.38,-315.25 242.38,-296 299.62,-296 299.62,-315.25"/>
<text text-anchor="middle" x="271" y="-301.75" font-family="IBMPlexSans-Regular" font-size="10.00">Congradq</text>
</a>
</g>
</g>
<!-- Node2&#45;&gt;Node3 -->
<g id="edge2_Node000002_Node000003" class="edge">
<title>Node2&#45;&gt;Node3</title>
<g id="a_edge2_Node000002_Node000003"><a xlink:title=" ">
<path fill="none" stroke="#63b8ff" d="M151.46,-222.75C166.45,-238.32 197.1,-268.38 227.75,-287.62 229.37,-288.65 231.07,-289.63 232.8,-290.58"/>
<polygon fill="#63b8ff" stroke="#63b8ff" points="231.11,-293.65 241.63,-294.96 234.22,-287.38 231.11,-293.65"/>
</a>
</g>
</g>
<!-- Node9 -->
<g id="Node000009" class="node">
<title>Node9</title>
<g id="a_Node000009"><a xlink:href="su2hmc_8c.html#ad4816b4c3599a65d212f34e10c83055f" target="_top" xlink:title=" ">
<polygon fill="white" stroke="#666666" points="310.12,-278.25 231.88,-278.25 231.88,-259 310.12,-259 310.12,-278.25"/>
<text text-anchor="middle" x="271" y="-264.75" font-family="IBMPlexSans-Regular" font-size="10.00">Fill_Small_Phi</text>
</a>
</g>
</g>
<!-- Node2&#45;&gt;Node9 -->
<g id="edge9_Node000002_Node000009" class="edge">
<title>Node2&#45;&gt;Node9</title>
<g id="a_edge9_Node000002_Node000009"><a xlink:title=" ">
<path fill="none" stroke="#63b8ff" d="M161.72,-221.46C179.08,-229.21 205.05,-240.76 227.75,-250.62 230.37,-251.77 233.09,-252.94 235.83,-254.12"/>
<polygon fill="#63b8ff" stroke="#63b8ff" points="234.33,-257.28 244.9,-258 237.08,-250.85 234.33,-257.28"/>
</a>
</g>
</g>
<!-- Node10 -->
<g id="Node000010" class="node">
<title>Node10</title>
<g id="a_Node000010"><a xlink:href="force_8c.html#a45c04d32a0a22833e0ed90db2baf454d" target="_top" xlink:title="Calculates the gauge force due to the Wilson Action at each intermediate time.">
<polygon fill="white" stroke="#666666" points="306.75,-241.25 235.25,-241.25 235.25,-222 306.75,-222 306.75,-241.25"/>
<text text-anchor="middle" x="271" y="-227.75" font-family="IBMPlexSans-Regular" font-size="10.00">Gauge_force</text>
</a>
</g>
</g>
<!-- Node2&#45;&gt;Node10 -->
<g id="edge10_Node000002_Node000010" class="edge">
<title>Node2&#45;&gt;Node10</title>
<g id="a_edge10_Node000002_Node000010"><a xlink:title=" ">
<path fill="none" stroke="#63b8ff" d="M161.72,-215.55C178.19,-218 202.32,-221.58 223.63,-224.74"/>
<polygon fill="#63b8ff" stroke="#63b8ff" points="222.88,-228.17 233.29,-226.18 223.91,-221.24 222.88,-228.17"/>
</a>
</g>
</g>
<!-- Node13 -->
<g id="Node000013" class="node">
<title>Node13</title>
<g id="a_Node000013"><a xlink:href="matrices_8c.html#aa9c3d535a95a3dd48438717eb8d71893" target="_top" xlink:title="Evaluates &#160;in double precision.">
<polygon fill="white" stroke="#666666" points="297,-204.25 245,-204.25 245,-185 297,-185 297,-204.25"/>
<text text-anchor="middle" x="271" y="-190.75" font-family="IBMPlexSans-Regular" font-size="10.00">Hdslash</text>
</a>
</g>
</g>
<!-- Node2&#45;&gt;Node13 -->
<g id="edge13_Node000002_Node000013" class="edge">
<title>Node2&#45;&gt;Node13</title>
<g id="a_edge13_Node000002_Node000013"><a xlink:title=" ">
<path fill="none" stroke="#63b8ff" d="M161.72,-209.85C180.8,-207.17 210.17,-203.04 233.51,-199.76"/>
<polygon fill="#63b8ff" stroke="#63b8ff" points="233.83,-203.25 243.25,-198.39 232.86,-196.31 233.83,-203.25"/>
</a>
</g>
</g>
<!-- Node15 -->
<g id="Node000015" class="node">
<title>Node15</title>
<g id="a_Node000015"><a xlink:href="par__mpi_8h.html#a893a7c85fb77e355d4cec6bc35711b98" target="_top" xlink:title="Swaps the halos along the axis given by idir in the direction given by layer.">
<polygon fill="white" stroke="#666666" points="314.25,-167.25 227.75,-167.25 227.75,-148 314.25,-148 314.25,-167.25"/>
<text text-anchor="middle" x="271" y="-153.75" font-family="IBMPlexSans-Regular" font-size="10.00">ZHalo_swap_dir</text>
</a>
</g>
</g>
<!-- Node2&#45;&gt;Node15 -->
<g id="edge15_Node000002_Node000015" class="edge">
<title>Node2&#45;&gt;Node15</title>
<g id="a_edge15_Node000002_Node000015"><a xlink:title=" ">
<path fill="none" stroke="#63b8ff" d="M161.74,-204.08C179.12,-196.56 205.1,-185.34 227.75,-175.62 230.38,-174.5 233.1,-173.33 235.84,-172.16"/>
<polygon fill="#63b8ff" stroke="#63b8ff" points="237.09,-175.43 244.91,-168.29 234.34,-169 237.09,-175.43"/>
</a>
</g>
</g>
<!-- Node4 -->
<g id="Node000004" class="node">
<title>Node4</title>
<g id="a_Node000004"><a xlink:href="matrices_8c.html#a17eb50d07c881fc5d1585ddf14aa1ff0" target="_top" xlink:title="Evaluates &#160;in single precision.">
<polygon fill="white" stroke="#666666" points="424,-389.25 363.75,-389.25 363.75,-370 424,-370 424,-389.25"/>
<text text-anchor="middle" x="393.88" y="-375.75" font-family="IBMPlexSans-Regular" font-size="10.00">Hdslash_f</text>
</a>
</g>
</g>
<!-- Node3&#45;&gt;Node4 -->
<g id="edge3_Node000003_Node000004" class="edge">
<title>Node3&#45;&gt;Node4</title>
<g id="a_edge3_Node000003_Node000004"><a xlink:title=" ">
<path fill="none" stroke="#63b8ff" d="M284.17,-315.64C299.09,-327.61 325.47,-347.75 350.25,-361.62 352.28,-362.76 354.39,-363.87 356.54,-364.94"/>
<polygon fill="#63b8ff" stroke="#63b8ff" points="354.82,-368 365.37,-369.03 357.77,-361.65 354.82,-368"/>
</a>
</g>
</g>
<!-- Node6 -->
<g id="Node000006" class="node">
<title>Node6</title>
<g id="a_Node000006"><a xlink:href="matrices_8c.html#a87e3179e3c6947eacfa74ada59aaeb0c" target="_top" xlink:title="Evaluates &#160;in single precision.">
<polygon fill="white" stroke="#666666" points="426.62,-352.25 361.12,-352.25 361.12,-333 426.62,-333 426.62,-352.25"/>
<text text-anchor="middle" x="393.88" y="-338.75" font-family="IBMPlexSans-Regular" font-size="10.00">Hdslashd_f</text>
</a>
</g>
</g>
<!-- Node3&#45;&gt;Node6 -->
<g id="edge5_Node000003_Node000006" class="edge">
<title>Node3&#45;&gt;Node6</title>
<g id="a_edge5_Node000003_Node000006"><a xlink:title=" ">
<path fill="none" stroke="#63b8ff" d="M300.03,-314.21C314.91,-318.76 333.5,-324.45 350.13,-329.54"/>
<polygon fill="#63b8ff" stroke="#63b8ff" points="348.69,-332.76 359.27,-332.34 350.74,-326.07 348.69,-332.76"/>
</a>
</g>
</g>
<!-- Node7 -->
<g id="Node000007" class="node">
<title>Node7</title>
<g id="a_Node000007"><a xlink:href="par__mpi_8h.html#aecfe9840e5f8dfd693b813b750d81a0c" target="_top" xlink:title="Performs a reduction on a double dval to get a sum which is then distributed to all ranks.">
<polygon fill="white" stroke="#666666" points="424,-315.25 363.75,-315.25 363.75,-296 424,-296 424,-315.25"/>
<text text-anchor="middle" x="393.88" y="-301.75" font-family="IBMPlexSans-Regular" font-size="10.00">Par_dsum</text>
</a>
</g>
</g>
<!-- Node3&#45;&gt;Node7 -->
<g id="edge7_Node000003_Node000007" class="edge">
<title>Node3&#45;&gt;Node7</title>
<g id="a_edge7_Node000003_Node000007"><a xlink:title=" ">
<path fill="none" stroke="#63b8ff" d="M300.03,-305.62C315.45,-305.62 334.85,-305.62 351.93,-305.62"/>
<polygon fill="#63b8ff" stroke="#63b8ff" points="351.79,-309.13 361.79,-305.63 351.79,-302.13 351.79,-309.13"/>
</a>
</g>
</g>
<!-- Node8 -->
<g id="Node000008" class="node">
<title>Node8</title>
<g id="a_Node000008"><a xlink:href="par__mpi_8h.html#a4e2e85b06c5b05c5181729cc5ebdd05b" target="_top" xlink:title="Performs a reduction on a float dval to get a sum which is then distributed to all ranks.">
<polygon fill="white" stroke="#666666" points="422.88,-278.25 364.88,-278.25 364.88,-259 422.88,-259 422.88,-278.25"/>
<text text-anchor="middle" x="393.88" y="-264.75" font-family="IBMPlexSans-Regular" font-size="10.00">Par_fsum</text>
</a>
</g>
</g>
<!-- Node3&#45;&gt;Node8 -->
<g id="edge8_Node000003_Node000008" class="edge">
<title>Node3&#45;&gt;Node8</title>
<g id="a_edge8_Node000003_Node000008"><a xlink:title=" ">
<path fill="none" stroke="#63b8ff" d="M300.03,-297.04C316.09,-292.13 336.48,-285.89 354.06,-280.51"/>
<polygon fill="#63b8ff" stroke="#63b8ff" points="354.59,-284 363.13,-277.73 352.54,-277.31 354.59,-284"/>
</a>
</g>
</g>
<!-- Node5 -->
<g id="Node000005" class="node">
<title>Node5</title>
<g id="a_Node000005"><a xlink:href="par__mpi_8h.html#a14b1a550ef4f44a9e4d7dd06c9427993" target="_top" xlink:title="Calls the functions to send data to both the up and down halos.">
<polygon fill="white" stroke="#666666" points="560,-370.25 473.5,-370.25 473.5,-351 560,-351 560,-370.25"/>
<text text-anchor="middle" x="516.75" y="-356.75" font-family="IBMPlexSans-Regular" font-size="10.00">CHalo_swap_all</text>
</a>
</g>
</g>
<!-- Node4&#45;&gt;Node5 -->
<g id="edge4_Node000004_Node000005" class="edge">
<title>Node4&#45;&gt;Node5</title>
<g id="a_edge4_Node000004_Node000005"><a xlink:title=" ">
<path fill="none" stroke="#63b8ff" d="M424.44,-374.98C435.8,-373.19 449.13,-371.1 462.06,-369.06"/>
<polygon fill="#63b8ff" stroke="#63b8ff" points="462.41,-372.55 471.75,-367.54 461.33,-365.64 462.41,-372.55"/>
</a>
</g>
</g>
<!-- Node6&#45;&gt;Node5 -->
<g id="edge6_Node000006_Node000005" class="edge">
<title>Node6&#45;&gt;Node5</title>
<g id="a_edge6_Node000006_Node000005"><a xlink:title=" ">
<path fill="none" stroke="#63b8ff" d="M426.95,-347.4C437.66,-349 449.9,-350.82 461.8,-352.59"/>
<polygon fill="#63b8ff" stroke="#63b8ff" points="461.14,-356.03 471.55,-354.04 462.18,-349.11 461.14,-356.03"/>
</a>
</g>
</g>
<!-- Node11 -->
<g id="Node000011" class="node">
<title>Node11</title>
<g id="a_Node000011"><a xlink:href="su2hmc_8c.html#af64f1450e29df479f82290bc4f7bdc1f" target="_top" xlink:title="Extracts all the single precision gauge links in the &#160;direction only.">
<polygon fill="white" stroke="#666666" points="421.38,-241.25 366.38,-241.25 366.38,-222 421.38,-222 421.38,-241.25"/>
<text text-anchor="middle" x="393.88" y="-227.75" font-family="IBMPlexSans-Regular" font-size="10.00">C_gather</text>
</a>
</g>
</g>
<!-- Node10&#45;&gt;Node11 -->
<g id="edge11_Node000010_Node000011" class="edge">
<title>Node10&#45;&gt;Node11</title>
<g id="a_edge11_Node000010_Node000011"><a xlink:title=" ">
<path fill="none" stroke="#63b8ff" d="M306.96,-231.62C321.96,-231.62 339.53,-231.62 354.85,-231.62"/>
<polygon fill="#63b8ff" stroke="#63b8ff" points="354.54,-235.13 364.54,-231.63 354.54,-228.13 354.54,-235.13"/>
</a>
</g>
</g>
<!-- Node12 -->
<g id="Node000012" class="node">
<title>Node12</title>
<g id="a_Node000012"><a xlink:href="par__mpi_8h.html#ab73329ce6f65730ba4783a8031edd518" target="_top" xlink:title="Swaps the halos along the axis given by idir in the direction given by layer.">
<polygon fill="white" stroke="#666666" points="437.5,-204.25 350.25,-204.25 350.25,-185 437.5,-185 437.5,-204.25"/>
<text text-anchor="middle" x="393.88" y="-190.75" font-family="IBMPlexSans-Regular" font-size="10.00">CHalo_swap_dir</text>
</a>
</g>
</g>
<!-- Node10&#45;&gt;Node12 -->
<g id="edge12_Node000010_Node000012" class="edge">
<title>Node10&#45;&gt;Node12</title>
<g id="a_edge12_Node000010_Node000012"><a xlink:title=" ">
<path fill="none" stroke="#63b8ff" d="M305.03,-221.51C318.62,-217.35 334.56,-212.48 349.1,-208.02"/>
<polygon fill="#63b8ff" stroke="#63b8ff" points="349.9,-211.44 358.44,-205.17 347.85,-204.75 349.9,-211.44"/>
</a>
</g>
</g>
<!-- Node14 -->
<g id="Node000014" class="node">
<title>Node14</title>
<g id="a_Node000014"><a xlink:href="par__mpi_8h.html#a35d208a5a65e71101e71d3f0248aef03" target="_top" xlink:title="Calls the functions to send data to both the up and down halos.">
<polygon fill="white" stroke="#666666" points="436.75,-130.25 351,-130.25 351,-111 436.75,-111 436.75,-130.25"/>
<text text-anchor="middle" x="393.88" y="-116.75" font-family="IBMPlexSans-Regular" font-size="10.00">ZHalo_swap_all</text>
</a>
</g>
</g>
<!-- Node13&#45;&gt;Node14 -->
<g id="edge14_Node000013_Node000014" class="edge">
<title>Node13&#45;&gt;Node14</title>
<g id="a_edge14_Node000013_Node000014"><a xlink:title=" ">
<path fill="none" stroke="#63b8ff" d="M297.45,-184.84C303.09,-182.38 308.96,-179.59 314.25,-176.62 334.83,-165.09 356.55,-149.31 371.94,-137.44"/>
<polygon fill="#63b8ff" stroke="#63b8ff" points="373.73,-140.48 379.44,-131.56 369.41,-134.97 373.73,-140.48"/>
</a>
</g>
</g>
<!-- Node17 -->
<g id="Node000017" class="node">
<title>Node17</title>
<g id="a_Node000017"><a xlink:href="matrices_8c.html#a998120d21faa6bf801710ae86f3d918b" target="_top" xlink:title="Reunitarises u11t and u12t as in conj(u11t[i])*u11t[i]+conj(u12t[i])*u12t[i]=1.">
<polygon fill="white" stroke="#666666" points="303.38,-130.25 238.62,-130.25 238.62,-111 303.38,-111 303.38,-130.25"/>
<text text-anchor="middle" x="271" y="-116.75" font-family="IBMPlexSans-Regular" font-size="10.00">Reunitarise</text>
</a>
</g>
</g>
<!-- Node16&#45;&gt;Node17 -->
<g id="edge17_Node000016_Node000017" class="edge">
<title>Node16&#45;&gt;Node17</title>
<g id="a_edge17_Node000016_Node000017"><a xlink:title=" ">
<path fill="none" stroke="#63b8ff" d="M181.8,-120.62C196.16,-120.62 212.43,-120.62 227.05,-120.62"/>
<polygon fill="#63b8ff" stroke="#63b8ff" points="226.84,-124.13 236.84,-120.63 226.84,-117.13 226.84,-124.13"/>
</a>
</g>
</g>
<!-- Node18 -->
<g id="Node000018" class="node">
<title>Node18</title>
<g id="a_Node000018"><a xlink:href="par__mpi_8c.html#aa988b87ed44e79f217a03e824c9d484e" target="_top" xlink:title="Exchanges the trial fields.">
<polygon fill="white" stroke="#666666" points="312,-93.25 230,-93.25 230,-74 312,-74 312,-93.25"/>
<text text-anchor="middle" x="271" y="-79.75" font-family="IBMPlexSans-Regular" font-size="10.00">Trial_Exchange</text>
</a>
</g>
</g>
<!-- Node16&#45;&gt;Node18 -->
<g id="edge18_Node000016_Node000018" class="edge">
<title>Node16&#45;&gt;Node18</title>
<g id="a_edge18_Node000016_Node000018"><a xlink:title=" ">
<path fill="none" stroke="#63b8ff" d="M176.98,-110.51C191.51,-106.31 208.58,-101.38 224.1,-96.89"/>
<polygon fill="#63b8ff" stroke="#63b8ff" points="224.98,-100.28 233.61,-94.14 223.03,-93.56 224.98,-100.28"/>
</a>
</g>
</g>
<!-- Node18&#45;&gt;Node14 -->
<g id="edge19_Node000018_Node000014" class="edge">
<title>Node18&#45;&gt;Node14</title>
<g id="a_edge19_Node000018_Node000014"><a xlink:title=" ">
<path fill="none" stroke="#63b8ff" d="M305.03,-93.74C318.62,-97.9 334.56,-102.77 349.1,-107.23"/>
<polygon fill="#63b8ff" stroke="#63b8ff" points="347.85,-110.5 358.44,-110.08 349.9,-103.81 347.85,-110.5"/>
</a>
</g>
</g>
<!-- Node21 -->
<g id="Node000021" class="node">
<title>Node21</title>
<g id="a_Node000021"><a xlink:href="par__mpi_8h.html#a6067f92fc64a6426e2780a017dc553c7" target="_top" xlink:title="Broadcasts a double to the other processes.">
<polygon fill="white" stroke="#666666" points="301.88,-56.25 240.12,-56.25 240.12,-37 301.88,-37 301.88,-56.25"/>
<text text-anchor="middle" x="271" y="-42.75" font-family="IBMPlexSans-Regular" font-size="10.00">Par_dcopy</text>
</a>
</g>
</g>
<!-- Node20&#45;&gt;Node21 -->
<g id="edge22_Node000020_Node000021" class="edge">
<title>Node20&#45;&gt;Node21</title>
<g id="a_edge22_Node000020_Node000021"><a xlink:title=" ">
<path fill="none" stroke="#63b8ff" d="M170.41,-46.62C187.49,-46.62 209.52,-46.62 228.52,-46.62"/>
<polygon fill="#63b8ff" stroke="#63b8ff" points="228.38,-50.13 238.38,-46.63 228.38,-43.13 228.38,-50.13"/>
</a>
</g>
</g>
<!-- Node22 -->
<g id="Node000022" class="node">
<title>Node22</title>
<g id="a_Node000022"><a xlink:href="random_8c.html#afba975c2629ded7c68cb21cfbeb4b496" target="_top" xlink:title="Generates uniformly distributed random double between zero and one as described in numerical recipes....">
<polygon fill="white" stroke="#666666" points="288.38,-19.25 253.62,-19.25 253.62,0 288.38,0 288.38,-19.25"/>
<text text-anchor="middle" x="271" y="-5.75" font-family="IBMPlexSans-Regular" font-size="10.00">ran2</text>
</a>
</g>
</g>
<!-- Node20&#45;&gt;Node22 -->
<g id="edge23_Node000020_Node000022" class="edge">
<title>Node20&#45;&gt;Node22</title>
<g id="a_edge23_Node000020_Node000022"><a xlink:title=" ">
<path fill="none" stroke="#63b8ff" d="M170.41,-38.41C191.91,-32.2 221.27,-23.71 242.54,-17.56"/>
<polygon fill="#63b8ff" stroke="#63b8ff" points="243.33,-20.98 251.96,-14.84 241.39,-14.25 243.33,-20.98"/>
</a>
</g>
</g>
</g>
</svg>
