<?xml version="1.0" encoding="UTF-8" standalone="no"?>
<!DOCTYPE svg PUBLIC "-//W3C//DTD SVG 1.1//EN"
 "http://www.w3.org/Graphics/SVG/1.1/DTD/svg11.dtd">
<!-- Generated by graphviz version 12.1.2 (20240928.0832)
 -->
<!-- Title: Momentum_Update Pages: 1 -->
<svg width="200pt" height="155pt"
 viewBox="0.00 0.00 199.75 155.25" xmlns="http://www.w3.org/2000/svg" xmlns:xlink="http://www.w3.org/1999/xlink">
<g id="graph0" class="graph" transform="scale(1 1) rotate(0) translate(4 151.25)">
<title>Momentum_Update</title>
<!-- Node1 -->
<g id="Node000001" class="node">
<title>Node1</title>
<g id="a_Node000001"><a xlink:title="Wrapper for the momentum update during the integration step of the HMC.">
<polygon fill="#999999" stroke="#666666" points="191.75,-74.25 90.25,-74.25 90.25,-55 191.75,-55 191.75,-74.25"/>
<text text-anchor="middle" x="141" y="-60.75" font-family="IBMPlexSans-Regular" font-size="10.00">Momentum_Update</text>
</a>
</g>
</g>
<!-- Node1&#45;&gt;Node1 -->
<g id="edge3_Node000001_Node000001" class="edge">
<title>Node1&#45;&gt;Node1</title>
<g id="a_edge3_Node000001_Node000001"><a xlink:title=" ">
<path fill="none" stroke="#63b8ff" d="M161.21,-85.65C158.68,-89.53 151.95,-92.25 141,-92.25 120.98,-92.25 115.04,-83.15 123.17,-74.54"/>
<polygon fill="#63b8ff" stroke="#63b8ff" points="164.67,-85.06 159.15,-76.02 157.82,-86.53 164.67,-85.06"/>
</a>
</g>
</g>
<!-- Node2 -->
<g id="Node000002" class="node">
<title>Node2</title>
<g id="a_Node000002"><a xlink:href="integrate_8c.html#ae4e13e66dc0e7130825c11648f2ad80c" target="_top" xlink:title="Leapfrog integrator. Each trajectory step takes the form of p&#45;&gt;p+dt/2,u&#45;&gt;u+dt,p&#45;&gt;p+dt/2 In practice t...">
<polygon fill="white" stroke="#666666" points="54.25,-129.25 0,-129.25 0,-110 54.25,-110 54.25,-129.25"/>
<text text-anchor="middle" x="27.12" y="-115.75" font-family="IBMPlexSans-Regular" font-size="10.00">Leapfrog</text>
</a>
</g>
</g>
<!-- Node1&#45;&gt;Node2 -->
<g id="edge1_Node000001_Node000002" class="edge">
<title>Node1&#45;&gt;Node2</title>
<g id="a_edge1_Node000001_Node000002"><a xlink:title=" ">
<path fill="none" stroke="#63b8ff" d="M109.33,-79.7C89.98,-89.22 65.51,-101.25 48.51,-109.6"/>
<polygon fill="#63b8ff" stroke="#63b8ff" points="110.69,-82.93 118.12,-75.38 107.6,-76.65 110.69,-82.93"/>
</a>
</g>
</g>
<!-- Node3 -->
<g id="Node000003" class="node">
<title>Node3</title>
<g id="a_Node000003"><a xlink:href="integrate_8c.html#a44f16170b5e3c92646f2e649ee57da3d" target="_top" xlink:title="OMF integrator. Each trajectory step takes the form of p&#45;&gt;p+dt/2,u&#45;&gt;u+dt,p&#45;&gt;p+dt/2 In practice this i...">
<polygon fill="white" stroke="#666666" points="48.62,-74.25 5.62,-74.25 5.62,-55 48.62,-55 48.62,-74.25"/>
<text text-anchor="middle" x="27.12" y="-60.75" font-family="IBMPlexSans-Regular" font-size="10.00">OMF2</text>
</a>
</g>
</g>
<!-- Node1&#45;&gt;Node3 -->
<g id="edge4_Node000001_Node000003" class="edge">
<title>Node1&#45;&gt;Node3</title>
<g id="a_edge4_Node000001_Node000003"><a xlink:title=" ">
<path fill="none" stroke="#63b8ff" d="M78.75,-64.62C68.04,-64.62 57.58,-64.62 48.98,-64.62"/>
<polygon fill="#63b8ff" stroke="#63b8ff" points="78.44,-68.13 88.44,-64.63 78.44,-61.13 78.44,-68.13"/>
</a>
</g>
</g>
<!-- Node4 -->
<g id="Node000004" class="node">
<title>Node4</title>
<g id="a_Node000004"><a xlink:href="integrate_8c.html#a5bbed189bcdd47d814585aa7e842bb8e" target="_top" xlink:title=" ">
<polygon fill="white" stroke="#666666" points="48.62,-19.25 5.62,-19.25 5.62,0 48.62,0 48.62,-19.25"/>
<text text-anchor="middle" x="27.12" y="-5.75" font-family="IBMPlexSans-Regular" font-size="10.00">OMF4</text>
</a>
</g>
</g>
<!-- Node1&#45;&gt;Node4 -->
<g id="edge6_Node000001_Node000004" class="edge">
<title>Node1&#45;&gt;Node4</title>
<g id="a_edge6_Node000001_Node000004"><a xlink:title=" ">
<path fill="none" stroke="#63b8ff" d="M109.33,-49.55C89.98,-40.03 65.51,-28 48.51,-19.65"/>
<polygon fill="#63b8ff" stroke="#63b8ff" points="107.6,-52.6 118.12,-53.87 110.69,-46.32 107.6,-52.6"/>
</a>
</g>
</g>
<!-- Node2&#45;&gt;Node2 -->
<g id="edge2_Node000002_Node000002" class="edge">
<title>Node2&#45;&gt;Node2</title>
<g id="a_edge2_Node000002_Node000002"><a xlink:title=" ">
<path fill="none" stroke="#63b8ff" d="M47.34,-140.65C44.81,-144.53 38.07,-147.25 27.12,-147.25 7.11,-147.25 1.17,-138.15 9.3,-129.54"/>
<polygon fill="#63b8ff" stroke="#63b8ff" points="50.79,-140.06 45.27,-131.02 43.95,-141.53 50.79,-140.06"/>
</a>
</g>
</g>
<!-- Node3&#45;&gt;Node3 -->
<g id="edge5_Node000003_Node000003" class="edge">
<title>Node3&#45;&gt;Node3</title>
<g id="a_edge5_Node000003_Node000003"><a xlink:title=" ">
<path fill="none" stroke="#63b8ff" d="M47.34,-85.65C44.81,-89.53 38.07,-92.25 27.12,-92.25 7.11,-92.25 1.17,-83.15 9.3,-74.54"/>
<polygon fill="#63b8ff" stroke="#63b8ff" points="50.79,-85.06 45.27,-76.02 43.95,-86.53 50.79,-85.06"/>
</a>
</g>
</g>
<!-- Node4&#45;&gt;Node4 -->
<g id="edge7_Node000004_Node000004" class="edge">
<title>Node4&#45;&gt;Node4</title>
<g id="a_edge7_Node000004_Node000004"><a xlink:title=" ">
<path fill="none" stroke="#63b8ff" d="M47.34,-30.65C44.81,-34.53 38.07,-37.25 27.12,-37.25 7.11,-37.25 1.17,-28.15 9.3,-19.54"/>
<polygon fill="#63b8ff" stroke="#63b8ff" points="50.79,-30.06 45.27,-21.02 43.95,-31.53 50.79,-30.06"/>
</a>
</g>
</g>
</g>
</svg>
