<?xml version="1.0" encoding="UTF-8" standalone="no"?>
<!DOCTYPE svg PUBLIC "-//W3C//DTD SVG 1.1//EN"
 "http://www.w3.org/Graphics/SVG/1.1/DTD/svg11.dtd">
<!-- Generated by graphviz version 12.2.1 (20241206.2353)
 -->
<!-- Title: INCLUDE/integrate.h Pages: 1 -->
<svg width="767pt" height="193pt"
 viewBox="0.00 0.00 766.50 193.00" xmlns="http://www.w3.org/2000/svg" xmlns:xlink="http://www.w3.org/1999/xlink">
<g id="graph0" class="graph" transform="scale(1 1) rotate(0) translate(4 189)">
<title>INCLUDE/integrate.h</title>
<!-- Node1 -->
<g id="Node000001" class="node">
<title>Node1</title>
<g id="a_Node000001"><a xlink:title="Integrators for the HMC.">
<polygon fill="#999999" stroke="#666666" points="396,-185 288.5,-185 288.5,-165.75 396,-165.75 396,-185"/>
<text text-anchor="middle" x="342.25" y="-171.5" font-family="IBMPlexSans-Regular" font-size="10.00">INCLUDE/integrate.h</text>
</a>
</g>
</g>
<!-- Node2 -->
<g id="Node000002" class="node">
<title>Node2</title>
<g id="a_Node000002"><a xlink:href="su2hmc_8h.html" target="_top" xlink:title="Function declarations for most of the routines.">
<polygon fill="white" stroke="#666666" points="394.5,-129.75 290,-129.75 290,-110.5 394.5,-110.5 394.5,-129.75"/>
<text text-anchor="middle" x="342.25" y="-116.25" font-family="IBMPlexSans-Regular" font-size="10.00">INCLUDE/su2hmc.h</text>
</a>
</g>
</g>
<!-- Node1&#45;&gt;Node2 -->
<g id="edge1_Node000001_Node000002" class="edge">
<title>Node1&#45;&gt;Node2</title>
<g id="a_edge1_Node000001_Node000002"><a xlink:title=" ">
<path fill="none" stroke="#63b8ff" d="M342.25,-154.13C342.25,-145.84 342.25,-136.67 342.25,-130.11"/>
<polygon fill="#63b8ff" stroke="#63b8ff" points="338.75,-154.07 342.25,-164.07 345.75,-154.07 338.75,-154.07"/>
</a>
</g>
</g>
<!-- Node3 -->
<g id="Node000003" class="node">
<title>Node3</title>
<g id="a_Node000003"><a xlink:href="matrices_8h.html" target="_top" xlink:title="Matrix multiplication and related declarations.">
<polygon fill="white" stroke="#666666" points="314,-74.5 206.5,-74.5 206.5,-55.25 314,-55.25 314,-74.5"/>
<text text-anchor="middle" x="260.25" y="-61" font-family="IBMPlexSans-Regular" font-size="10.00">INCLUDE/matrices.h</text>
</a>
</g>
</g>
<!-- Node2&#45;&gt;Node3 -->
<g id="edge2_Node000002_Node000003" class="edge">
<title>Node2&#45;&gt;Node3</title>
<g id="a_edge2_Node000002_Node000003"><a xlink:title=" ">
<path fill="none" stroke="#63b8ff" d="M319.04,-104.05C304.6,-94.67 286.5,-82.92 274.23,-74.95"/>
<polygon fill="#63b8ff" stroke="#63b8ff" points="316.78,-106.76 327.07,-109.27 320.59,-100.89 316.78,-106.76"/>
</a>
</g>
</g>
<!-- Node4 -->
<g id="Node000004" class="node">
<title>Node4</title>
<g id="a_Node000004"><a xlink:href="main_8c.html" target="_top" xlink:title="Hybrid Monte Carlo algorithm for Two Colour QCD with Wilson&#45;Gor&#39;kov fermions based on the algorithm o...">
<polygon fill="white" stroke="#666666" points="44.5,-19.25 0,-19.25 0,0 44.5,0 44.5,-19.25"/>
<text text-anchor="middle" x="22.25" y="-5.75" font-family="IBMPlexSans-Regular" font-size="10.00">main.c</text>
</a>
</g>
</g>
<!-- Node2&#45;&gt;Node4 -->
<g id="edge9_Node000002_Node000004" class="edge">
<title>Node2&#45;&gt;Node4</title>
<g id="a_edge9_Node000002_Node000004"><a xlink:title=" ">
<path fill="none" stroke="#63b8ff" d="M286.92,-107.62C251.9,-99.73 205.9,-88.21 166.25,-74.5 119.47,-58.32 66.85,-33.09 40.04,-19.69"/>
<polygon fill="#63b8ff" stroke="#63b8ff" points="285.89,-110.98 296.41,-109.73 287.4,-104.15 285.89,-110.98"/>
</a>
</g>
</g>
<!-- Node6 -->
<g id="Node000006" class="node">
<title>Node6</title>
<g id="a_Node000006"><a xlink:href="fermionic_8c.html" target="_top" xlink:title="Code for fermionic observables.">
<polygon fill="white" stroke="#666666" points="184.12,-19.25 62.37,-19.25 62.37,0 184.12,0 184.12,-19.25"/>
<text text-anchor="middle" x="123.25" y="-5.75" font-family="IBMPlexSans-Regular" font-size="10.00">production_c/fermionic.c</text>
</a>
</g>
</g>
<!-- Node2&#45;&gt;Node6 -->
<g id="edge11_Node000002_Node000006" class="edge">
<title>Node2&#45;&gt;Node6</title>
<g id="a_edge11_Node000002_Node000006"><a xlink:title=" ">
<path fill="none" stroke="#63b8ff" d="M284.82,-107.28C257.25,-100.16 224.39,-89.52 197.25,-74.5 169.93,-59.38 143.65,-33 131.03,-19.35"/>
<polygon fill="#63b8ff" stroke="#63b8ff" points="283.87,-110.65 294.42,-109.66 285.55,-103.85 283.87,-110.65"/>
</a>
</g>
</g>
<!-- Node9 -->
<g id="Node000009" class="node">
<title>Node9</title>
<g id="a_Node000009"><a xlink:href="su2hmc_8c.html" target="_top" xlink:title="An ecclectic collection of functions used in the HMC.">
<polygon fill="white" stroke="#666666" points="712.5,-19.25 596,-19.25 596,0 712.5,0 712.5,-19.25"/>
<text text-anchor="middle" x="654.25" y="-5.75" font-family="IBMPlexSans-Regular" font-size="10.00">production_c/su2hmc.c</text>
</a>
</g>
</g>
<!-- Node2&#45;&gt;Node9 -->
<g id="edge14_Node000002_Node000009" class="edge">
<title>Node2&#45;&gt;Node9</title>
<g id="a_edge14_Node000002_Node000009"><a xlink:title=" ">
<path fill="none" stroke="#63b8ff" d="M342.82,-98.92C344.35,-84.59 348.83,-66.06 361.25,-55.25 365.66,-51.41 511.49,-30.53 595.72,-18.74"/>
<polygon fill="#63b8ff" stroke="#63b8ff" points="339.34,-98.41 342.2,-108.62 346.33,-98.86 339.34,-98.41"/>
</a>
</g>
</g>
<!-- Node10 -->
<g id="Node000010" class="node">
<title>Node10</title>
<g id="a_Node000010"><a xlink:href="bosonic_8c.html" target="_top" xlink:title="Code for bosonic observables, Basically polyakov loop and Plaquette routines.">
<polygon fill="white" stroke="#666666" points="486.12,-74.5 370.38,-74.5 370.38,-55.25 486.12,-55.25 486.12,-74.5"/>
<text text-anchor="middle" x="428.25" y="-61" font-family="IBMPlexSans-Regular" font-size="10.00">production_c/bosonic.c</text>
</a>
</g>
</g>
<!-- Node2&#45;&gt;Node10 -->
<g id="edge10_Node000002_Node000010" class="edge">
<title>Node2&#45;&gt;Node10</title>
<g id="a_edge10_Node000002_Node000010"><a xlink:title=" ">
<path fill="none" stroke="#63b8ff" d="M366.59,-104.05C381.74,-94.67 400.72,-82.92 413.59,-74.95"/>
<polygon fill="#63b8ff" stroke="#63b8ff" points="364.79,-101.05 358.13,-109.3 368.47,-107.01 364.79,-101.05"/>
</a>
</g>
</g>
<!-- Node11 -->
<g id="Node000011" class="node">
<title>Node11</title>
<g id="a_Node000011"><a xlink:href="integrate_8c.html" target="_top" xlink:title="Symplectic integrator code.">
<polygon fill="white" stroke="#666666" points="624,-74.5 504.5,-74.5 504.5,-55.25 624,-55.25 624,-74.5"/>
<text text-anchor="middle" x="564.25" y="-61" font-family="IBMPlexSans-Regular" font-size="10.00">production_c/integrate.c</text>
</a>
</g>
</g>
<!-- Node2&#45;&gt;Node11 -->
<g id="edge12_Node000002_Node000011" class="edge">
<title>Node2&#45;&gt;Node11</title>
<g id="a_edge12_Node000002_Node000011"><a xlink:title=" ">
<path fill="none" stroke="#63b8ff" d="M391.19,-107.39C431.97,-97.61 489.2,-83.88 526.5,-74.93"/>
<polygon fill="#63b8ff" stroke="#63b8ff" points="390.54,-103.94 381.63,-109.68 392.17,-110.75 390.54,-103.94"/>
</a>
</g>
</g>
<!-- Node12 -->
<g id="Node000012" class="node">
<title>Node12</title>
<g id="a_Node000012"><a xlink:href="par__mpi_8c.html" target="_top" xlink:title="MPI routines.">
<polygon fill="white" stroke="#666666" points="758.5,-74.5 642,-74.5 642,-55.25 758.5,-55.25 758.5,-74.5"/>
<text text-anchor="middle" x="700.25" y="-61" font-family="IBMPlexSans-Regular" font-size="10.00">production_c/par_mpi.c</text>
</a>
</g>
</g>
<!-- Node2&#45;&gt;Node12 -->
<g id="edge13_Node000002_Node000012" class="edge">
<title>Node2&#45;&gt;Node12</title>
<g id="a_edge13_Node000002_Node000012"><a xlink:title=" ">
<path fill="none" stroke="#63b8ff" d="M405.9,-109.66C472.71,-99.72 576.89,-84.22 641.72,-74.58"/>
<polygon fill="#63b8ff" stroke="#63b8ff" points="405.56,-106.17 396.19,-111.1 406.59,-113.09 405.56,-106.17"/>
</a>
</g>
</g>
<!-- Node3&#45;&gt;Node4 -->
<g id="edge3_Node000003_Node000004" class="edge">
<title>Node3&#45;&gt;Node4</title>
<g id="a_edge3_Node000003_Node000004"><a xlink:title=" ">
<path fill="none" stroke="#63b8ff" d="M203.4,-52.56C161.69,-44.03 103.76,-31.71 53.25,-19.25 50.54,-18.58 47.7,-17.84 44.9,-17.09"/>
<polygon fill="#63b8ff" stroke="#63b8ff" points="202.46,-55.94 212.96,-54.51 203.85,-49.08 202.46,-55.94"/>
</a>
</g>
</g>
<!-- Node5 -->
<g id="Node000005" class="node">
<title>Node5</title>
<g id="a_Node000005"><a xlink:href="congrad_8c.html" target="_top" xlink:title="Conjugate gradients. Congradq for the solver and Congradp for the inversion.">
<polygon fill="white" stroke="#666666" points="318.5,-19.25 202,-19.25 202,0 318.5,0 318.5,-19.25"/>
<text text-anchor="middle" x="260.25" y="-5.75" font-family="IBMPlexSans-Regular" font-size="10.00">production_c/congrad.c</text>
</a>
</g>
</g>
<!-- Node3&#45;&gt;Node5 -->
<g id="edge4_Node000003_Node000005" class="edge">
<title>Node3&#45;&gt;Node5</title>
<g id="a_edge4_Node000003_Node000005"><a xlink:title=" ">
<path fill="none" stroke="#63b8ff" d="M260.25,-43.63C260.25,-35.34 260.25,-26.17 260.25,-19.61"/>
<polygon fill="#63b8ff" stroke="#63b8ff" points="256.75,-43.57 260.25,-53.57 263.75,-43.57 256.75,-43.57"/>
</a>
</g>
</g>
<!-- Node3&#45;&gt;Node6 -->
<g id="edge5_Node000003_Node000006" class="edge">
<title>Node3&#45;&gt;Node6</title>
<g id="a_edge5_Node000003_Node000006"><a xlink:title=" ">
<path fill="none" stroke="#63b8ff" d="M226.59,-50.79C201.76,-41.14 168.59,-28.25 146.6,-19.7"/>
<polygon fill="#63b8ff" stroke="#63b8ff" points="225.01,-53.93 235.6,-54.29 227.55,-47.41 225.01,-53.93"/>
</a>
</g>
</g>
<!-- Node7 -->
<g id="Node000007" class="node">
<title>Node7</title>
<g id="a_Node000007"><a xlink:href="force_8c.html" target="_top" xlink:title="Code for force calculations.">
<polygon fill="white" stroke="#666666" points="440.12,-19.25 336.38,-19.25 336.38,0 440.12,0 440.12,-19.25"/>
<text text-anchor="middle" x="388.25" y="-5.75" font-family="IBMPlexSans-Regular" font-size="10.00">production_c/force.c</text>
</a>
</g>
</g>
<!-- Node3&#45;&gt;Node7 -->
<g id="edge6_Node000003_Node000007" class="edge">
<title>Node3&#45;&gt;Node7</title>
<g id="a_edge6_Node000003_Node000007"><a xlink:title=" ">
<path fill="none" stroke="#63b8ff" d="M292.32,-50.53C315.46,-40.91 346.07,-28.17 366.43,-19.7"/>
<polygon fill="#63b8ff" stroke="#63b8ff" points="291.25,-47.19 283.36,-54.26 293.94,-53.65 291.25,-47.19"/>
</a>
</g>
</g>
<!-- Node8 -->
<g id="Node000008" class="node">
<title>Node8</title>
<g id="a_Node000008"><a xlink:href="matrices_8c.html" target="_top" xlink:title="Matrix multiplication and related routines.">
<polygon fill="white" stroke="#666666" points="578,-19.25 458.5,-19.25 458.5,0 578,0 578,-19.25"/>
<text text-anchor="middle" x="518.25" y="-5.75" font-family="IBMPlexSans-Regular" font-size="10.00">production_c/matrices.c</text>
</a>
</g>
</g>
<!-- Node3&#45;&gt;Node8 -->
<g id="edge7_Node000003_Node000008" class="edge">
<title>Node3&#45;&gt;Node8</title>
<g id="a_edge7_Node000003_Node000008"><a xlink:title=" ">
<path fill="none" stroke="#63b8ff" d="M315.32,-52.51C362.8,-42.71 430.47,-28.74 474.37,-19.68"/>
<polygon fill="#63b8ff" stroke="#63b8ff" points="314.88,-49.03 305.79,-54.48 316.29,-55.88 314.88,-49.03"/>
</a>
</g>
</g>
<!-- Node3&#45;&gt;Node9 -->
<g id="edge8_Node000003_Node000009" class="edge">
<title>Node3&#45;&gt;Node9</title>
<g id="a_edge8_Node000003_Node000009"><a xlink:title=" ">
<path fill="none" stroke="#63b8ff" d="M325.42,-55.07C400.71,-44.89 523.5,-28.3 595.82,-18.52"/>
<polygon fill="#63b8ff" stroke="#63b8ff" points="325.15,-51.57 315.71,-56.38 326.09,-58.51 325.15,-51.57"/>
</a>
</g>
</g>
</g>
</svg>
