<?xml version="1.0" encoding="UTF-8" standalone="no"?>
<!DOCTYPE svg PUBLIC "-//W3C//DTD SVG 1.1//EN"
 "http://www.w3.org/Graphics/SVG/1.1/DTD/svg11.dtd">
<!-- Generated by graphviz version 12.1.2 (20240928.0832)
 -->
<!-- Title: OMF2 Pages: 1 -->
<svg width="557pt" height="341pt"
 viewBox="0.00 0.00 556.75 341.25" xmlns="http://www.w3.org/2000/svg" xmlns:xlink="http://www.w3.org/1999/xlink">
<g id="graph0" class="graph" transform="scale(1 1) rotate(0) translate(4 337.25)">
<title>OMF2</title>
<!-- Node1 -->
<g id="Node000001" class="node">
<title>Node1</title>
<g id="a_Node000001"><a xlink:title="OMF integrator. Each trajectory step takes the form of p&#45;&gt;p+dt/2,u&#45;&gt;u+dt,p&#45;&gt;p+dt/2 In practice this i...">
<polygon fill="#999999" stroke="#666666" points="43,-74.25 0,-74.25 0,-55 43,-55 43,-74.25"/>
<text text-anchor="middle" x="21.5" y="-60.75" font-family="IBMPlexSans-Regular" font-size="10.00">OMF2</text>
</a>
</g>
</g>
<!-- Node1&#45;&gt;Node1 -->
<g id="edge23_Node000001_Node000001" class="edge">
<title>Node1&#45;&gt;Node1</title>
<g id="a_edge23_Node000001_Node000001"><a xlink:title=" ">
<path fill="none" stroke="#63b8ff" d="M4.55,-74.54C-3.18,-83.15 2.47,-92.25 21.5,-92.25 31.91,-92.25 38.31,-89.53 40.71,-85.65"/>
<polygon fill="#63b8ff" stroke="#63b8ff" points="44.18,-85.12 38.75,-76.02 37.32,-86.52 44.18,-85.12"/>
</a>
</g>
</g>
<!-- Node2 -->
<g id="Node000002" class="node">
<title>Node2</title>
<g id="a_Node000002"><a xlink:href="force_8c.html#a40e5951024b2de0086a5f878963c6bae" target="_top" xlink:title="Calculates the force &#160;at each intermediate time.">
<polygon fill="white" stroke="#666666" points="150.12,-166.25 109.38,-166.25 109.38,-147 150.12,-147 150.12,-166.25"/>
<text text-anchor="middle" x="129.75" y="-152.75" font-family="IBMPlexSans-Regular" font-size="10.00">Force</text>
</a>
</g>
</g>
<!-- Node1&#45;&gt;Node2 -->
<g id="edge1_Node000001_Node000002" class="edge">
<title>Node1&#45;&gt;Node2</title>
<g id="a_edge1_Node000001_Node000002"><a xlink:title=" ">
<path fill="none" stroke="#63b8ff" d="M33.87,-74.47C51.67,-89.88 86.37,-119.93 108.51,-139.1"/>
<polygon fill="#63b8ff" stroke="#63b8ff" points="106.14,-141.68 115.99,-145.58 110.73,-136.39 106.14,-141.68"/>
</a>
</g>
</g>
<!-- Node16 -->
<g id="Node000016" class="node">
<title>Node16</title>
<g id="a_Node000016"><a xlink:href="integrate_8c.html#aad98b6e55d3f033e15cffc5b53b173ee" target="_top" xlink:title="Gauge update for the integration step of the HMC.">
<polygon fill="white" stroke="#666666" points="170.38,-74.25 89.12,-74.25 89.12,-55 170.38,-55 170.38,-74.25"/>
<text text-anchor="middle" x="129.75" y="-60.75" font-family="IBMPlexSans-Regular" font-size="10.00">Gauge_Update</text>
</a>
</g>
</g>
<!-- Node1&#45;&gt;Node16 -->
<g id="edge16_Node000001_Node000016" class="edge">
<title>Node1&#45;&gt;Node16</title>
<g id="a_edge16_Node000001_Node000016"><a xlink:title=" ">
<path fill="none" stroke="#63b8ff" d="M43.49,-64.62C53.3,-64.62 65.45,-64.62 77.47,-64.62"/>
<polygon fill="#63b8ff" stroke="#63b8ff" points="77.36,-68.13 87.36,-64.63 77.36,-61.13 77.36,-68.13"/>
</a>
</g>
</g>
<!-- Node19 -->
<g id="Node000019" class="node">
<title>Node19</title>
<g id="a_Node000019"><a xlink:href="integrate_8c.html#af1766f80334a88c142c09e8a1eb682f4" target="_top" xlink:title="Wrapper for the momentum update during the integration step of the HMC.">
<polygon fill="white" stroke="#666666" points="180.5,-19.25 79,-19.25 79,0 180.5,0 180.5,-19.25"/>
<text text-anchor="middle" x="129.75" y="-5.75" font-family="IBMPlexSans-Regular" font-size="10.00">Momentum_Update</text>
</a>
</g>
</g>
<!-- Node1&#45;&gt;Node19 -->
<g id="edge21_Node000001_Node000019" class="edge">
<title>Node1&#45;&gt;Node19</title>
<g id="a_edge21_Node000001_Node000019"><a xlink:title=" ">
<path fill="none" stroke="#63b8ff" d="M41.99,-54.54C58.01,-46.24 80.98,-34.35 99.25,-24.89"/>
<polygon fill="#63b8ff" stroke="#63b8ff" points="100.77,-28.05 108.04,-20.34 97.55,-21.83 100.77,-28.05"/>
</a>
</g>
</g>
<!-- Node3 -->
<g id="Node000003" class="node">
<title>Node3</title>
<g id="a_Node000003"><a xlink:href="congrad_8c.html#aa32f0774e38a36310209b44a2abae8e6" target="_top" xlink:title="Matrix Inversion via Conjugate Gradient (up/down flavour partitioning). Solves &#160;Implements up/down pa...">
<polygon fill="white" stroke="#666666" points="288.38,-259.25 231.12,-259.25 231.12,-240 288.38,-240 288.38,-259.25"/>
<text text-anchor="middle" x="259.75" y="-245.75" font-family="IBMPlexSans-Regular" font-size="10.00">Congradq</text>
</a>
</g>
</g>
<!-- Node2&#45;&gt;Node3 -->
<g id="edge2_Node000002_Node000003" class="edge">
<title>Node2&#45;&gt;Node3</title>
<g id="a_edge2_Node000002_Node000003"><a xlink:title=" ">
<path fill="none" stroke="#63b8ff" d="M140.21,-166.75C155.2,-182.32 185.85,-212.38 216.5,-231.62 218.12,-232.65 219.82,-233.63 221.55,-234.58"/>
<polygon fill="#63b8ff" stroke="#63b8ff" points="219.86,-237.65 230.38,-238.96 222.97,-231.38 219.86,-237.65"/>
</a>
</g>
</g>
<!-- Node9 -->
<g id="Node000009" class="node">
<title>Node9</title>
<g id="a_Node000009"><a xlink:href="su2hmc_8c.html#ad4816b4c3599a65d212f34e10c83055f" target="_top" xlink:title=" ">
<polygon fill="white" stroke="#666666" points="298.88,-222.25 220.62,-222.25 220.62,-203 298.88,-203 298.88,-222.25"/>
<text text-anchor="middle" x="259.75" y="-208.75" font-family="IBMPlexSans-Regular" font-size="10.00">Fill_Small_Phi</text>
</a>
</g>
</g>
<!-- Node2&#45;&gt;Node9 -->
<g id="edge9_Node000002_Node000009" class="edge">
<title>Node2&#45;&gt;Node9</title>
<g id="a_edge9_Node000002_Node000009"><a xlink:title=" ">
<path fill="none" stroke="#63b8ff" d="M150.47,-165.46C167.83,-173.21 193.8,-184.76 216.5,-194.62 219.12,-195.77 221.84,-196.94 224.58,-198.12"/>
<polygon fill="#63b8ff" stroke="#63b8ff" points="223.08,-201.28 233.65,-202 225.83,-194.85 223.08,-201.28"/>
</a>
</g>
</g>
<!-- Node10 -->
<g id="Node000010" class="node">
<title>Node10</title>
<g id="a_Node000010"><a xlink:href="force_8c.html#a45c04d32a0a22833e0ed90db2baf454d" target="_top" xlink:title="Calculates the gauge force due to the Wilson Action at each intermediate time.">
<polygon fill="white" stroke="#666666" points="295.5,-185.25 224,-185.25 224,-166 295.5,-166 295.5,-185.25"/>
<text text-anchor="middle" x="259.75" y="-171.75" font-family="IBMPlexSans-Regular" font-size="10.00">Gauge_force</text>
</a>
</g>
</g>
<!-- Node2&#45;&gt;Node10 -->
<g id="edge10_Node000002_Node000010" class="edge">
<title>Node2&#45;&gt;Node10</title>
<g id="a_edge10_Node000002_Node000010"><a xlink:title=" ">
<path fill="none" stroke="#63b8ff" d="M150.47,-159.55C166.94,-162 191.07,-165.58 212.38,-168.74"/>
<polygon fill="#63b8ff" stroke="#63b8ff" points="211.63,-172.17 222.04,-170.18 212.66,-165.24 211.63,-172.17"/>
</a>
</g>
</g>
<!-- Node13 -->
<g id="Node000013" class="node">
<title>Node13</title>
<g id="a_Node000013"><a xlink:href="matrices_8c.html#aa9c3d535a95a3dd48438717eb8d71893" target="_top" xlink:title="Evaluates &#160;in double precision.">
<polygon fill="white" stroke="#666666" points="285.75,-148.25 233.75,-148.25 233.75,-129 285.75,-129 285.75,-148.25"/>
<text text-anchor="middle" x="259.75" y="-134.75" font-family="IBMPlexSans-Regular" font-size="10.00">Hdslash</text>
</a>
</g>
</g>
<!-- Node2&#45;&gt;Node13 -->
<g id="edge13_Node000002_Node000013" class="edge">
<title>Node2&#45;&gt;Node13</title>
<g id="a_edge13_Node000002_Node000013"><a xlink:title=" ">
<path fill="none" stroke="#63b8ff" d="M150.47,-153.85C169.55,-151.17 198.92,-147.04 222.26,-143.76"/>
<polygon fill="#63b8ff" stroke="#63b8ff" points="222.58,-147.25 232,-142.39 221.61,-140.31 222.58,-147.25"/>
</a>
</g>
</g>
<!-- Node15 -->
<g id="Node000015" class="node">
<title>Node15</title>
<g id="a_Node000015"><a xlink:href="par__mpi_8h.html#a893a7c85fb77e355d4cec6bc35711b98" target="_top" xlink:title="Swaps the halos along the axis given by idir in the direction given by layer.">
<polygon fill="white" stroke="#666666" points="303,-111.25 216.5,-111.25 216.5,-92 303,-92 303,-111.25"/>
<text text-anchor="middle" x="259.75" y="-97.75" font-family="IBMPlexSans-Regular" font-size="10.00">ZHalo_swap_dir</text>
</a>
</g>
</g>
<!-- Node2&#45;&gt;Node15 -->
<g id="edge15_Node000002_Node000015" class="edge">
<title>Node2&#45;&gt;Node15</title>
<g id="a_edge15_Node000002_Node000015"><a xlink:title=" ">
<path fill="none" stroke="#63b8ff" d="M150.49,-148.08C167.87,-140.56 193.85,-129.34 216.5,-119.62 219.13,-118.5 221.85,-117.33 224.59,-116.16"/>
<polygon fill="#63b8ff" stroke="#63b8ff" points="225.84,-119.43 233.66,-112.29 223.09,-113 225.84,-119.43"/>
</a>
</g>
</g>
<!-- Node4 -->
<g id="Node000004" class="node">
<title>Node4</title>
<g id="a_Node000004"><a xlink:href="matrices_8c.html#a17eb50d07c881fc5d1585ddf14aa1ff0" target="_top" xlink:title="Evaluates &#160;in single precision.">
<polygon fill="white" stroke="#666666" points="412.75,-333.25 352.5,-333.25 352.5,-314 412.75,-314 412.75,-333.25"/>
<text text-anchor="middle" x="382.62" y="-319.75" font-family="IBMPlexSans-Regular" font-size="10.00">Hdslash_f</text>
</a>
</g>
</g>
<!-- Node3&#45;&gt;Node4 -->
<g id="edge3_Node000003_Node000004" class="edge">
<title>Node3&#45;&gt;Node4</title>
<g id="a_edge3_Node000003_Node000004"><a xlink:title=" ">
<path fill="none" stroke="#63b8ff" d="M272.92,-259.64C287.84,-271.61 314.22,-291.75 339,-305.62 341.03,-306.76 343.14,-307.87 345.29,-308.94"/>
<polygon fill="#63b8ff" stroke="#63b8ff" points="343.57,-312 354.12,-313.03 346.52,-305.65 343.57,-312"/>
</a>
</g>
</g>
<!-- Node6 -->
<g id="Node000006" class="node">
<title>Node6</title>
<g id="a_Node000006"><a xlink:href="matrices_8c.html#a87e3179e3c6947eacfa74ada59aaeb0c" target="_top" xlink:title="Evaluates &#160;in single precision.">
<polygon fill="white" stroke="#666666" points="415.38,-296.25 349.88,-296.25 349.88,-277 415.38,-277 415.38,-296.25"/>
<text text-anchor="middle" x="382.62" y="-282.75" font-family="IBMPlexSans-Regular" font-size="10.00">Hdslashd_f</text>
</a>
</g>
</g>
<!-- Node3&#45;&gt;Node6 -->
<g id="edge5_Node000003_Node000006" class="edge">
<title>Node3&#45;&gt;Node6</title>
<g id="a_edge5_Node000003_Node000006"><a xlink:title=" ">
<path fill="none" stroke="#63b8ff" d="M288.78,-258.21C303.66,-262.76 322.25,-268.45 338.88,-273.54"/>
<polygon fill="#63b8ff" stroke="#63b8ff" points="337.44,-276.76 348.02,-276.34 339.49,-270.07 337.44,-276.76"/>
</a>
</g>
</g>
<!-- Node7 -->
<g id="Node000007" class="node">
<title>Node7</title>
<g id="a_Node000007"><a xlink:href="par__mpi_8h.html#aecfe9840e5f8dfd693b813b750d81a0c" target="_top" xlink:title="Performs a reduction on a double dval to get a sum which is then distributed to all ranks.">
<polygon fill="white" stroke="#666666" points="412.75,-259.25 352.5,-259.25 352.5,-240 412.75,-240 412.75,-259.25"/>
<text text-anchor="middle" x="382.62" y="-245.75" font-family="IBMPlexSans-Regular" font-size="10.00">Par_dsum</text>
</a>
</g>
</g>
<!-- Node3&#45;&gt;Node7 -->
<g id="edge7_Node000003_Node000007" class="edge">
<title>Node3&#45;&gt;Node7</title>
<g id="a_edge7_Node000003_Node000007"><a xlink:title=" ">
<path fill="none" stroke="#63b8ff" d="M288.78,-249.62C304.2,-249.62 323.6,-249.62 340.68,-249.62"/>
<polygon fill="#63b8ff" stroke="#63b8ff" points="340.54,-253.13 350.54,-249.63 340.54,-246.13 340.54,-253.13"/>
</a>
</g>
</g>
<!-- Node8 -->
<g id="Node000008" class="node">
<title>Node8</title>
<g id="a_Node000008"><a xlink:href="par__mpi_8h.html#a4e2e85b06c5b05c5181729cc5ebdd05b" target="_top" xlink:title="Performs a reduction on a float dval to get a sum which is then distributed to all ranks.">
<polygon fill="white" stroke="#666666" points="411.62,-222.25 353.62,-222.25 353.62,-203 411.62,-203 411.62,-222.25"/>
<text text-anchor="middle" x="382.62" y="-208.75" font-family="IBMPlexSans-Regular" font-size="10.00">Par_fsum</text>
</a>
</g>
</g>
<!-- Node3&#45;&gt;Node8 -->
<g id="edge8_Node000003_Node000008" class="edge">
<title>Node3&#45;&gt;Node8</title>
<g id="a_edge8_Node000003_Node000008"><a xlink:title=" ">
<path fill="none" stroke="#63b8ff" d="M288.78,-241.04C304.84,-236.13 325.23,-229.89 342.81,-224.51"/>
<polygon fill="#63b8ff" stroke="#63b8ff" points="343.34,-228 351.88,-221.73 341.29,-221.31 343.34,-228"/>
</a>
</g>
</g>
<!-- Node5 -->
<g id="Node000005" class="node">
<title>Node5</title>
<g id="a_Node000005"><a xlink:href="par__mpi_8h.html#a14b1a550ef4f44a9e4d7dd06c9427993" target="_top" xlink:title="Calls the functions to send data to both the up and down halos.">
<polygon fill="white" stroke="#666666" points="548.75,-314.25 462.25,-314.25 462.25,-295 548.75,-295 548.75,-314.25"/>
<text text-anchor="middle" x="505.5" y="-300.75" font-family="IBMPlexSans-Regular" font-size="10.00">CHalo_swap_all</text>
</a>
</g>
</g>
<!-- Node4&#45;&gt;Node5 -->
<g id="edge4_Node000004_Node000005" class="edge">
<title>Node4&#45;&gt;Node5</title>
<g id="a_edge4_Node000004_Node000005"><a xlink:title=" ">
<path fill="none" stroke="#63b8ff" d="M413.19,-318.98C424.55,-317.19 437.88,-315.1 450.81,-313.06"/>
<polygon fill="#63b8ff" stroke="#63b8ff" points="451.16,-316.55 460.5,-311.54 450.08,-309.64 451.16,-316.55"/>
</a>
</g>
</g>
<!-- Node6&#45;&gt;Node5 -->
<g id="edge6_Node000006_Node000005" class="edge">
<title>Node6&#45;&gt;Node5</title>
<g id="a_edge6_Node000006_Node000005"><a xlink:title=" ">
<path fill="none" stroke="#63b8ff" d="M415.7,-291.4C426.41,-293 438.65,-294.82 450.55,-296.59"/>
<polygon fill="#63b8ff" stroke="#63b8ff" points="449.89,-300.03 460.3,-298.04 450.93,-293.11 449.89,-300.03"/>
</a>
</g>
</g>
<!-- Node11 -->
<g id="Node000011" class="node">
<title>Node11</title>
<g id="a_Node000011"><a xlink:href="su2hmc_8c.html#af64f1450e29df479f82290bc4f7bdc1f" target="_top" xlink:title="Extracts all the single precision gauge links in the &#160;direction only.">
<polygon fill="white" stroke="#666666" points="410.12,-185.25 355.12,-185.25 355.12,-166 410.12,-166 410.12,-185.25"/>
<text text-anchor="middle" x="382.62" y="-171.75" font-family="IBMPlexSans-Regular" font-size="10.00">C_gather</text>
</a>
</g>
</g>
<!-- Node10&#45;&gt;Node11 -->
<g id="edge11_Node000010_Node000011" class="edge">
<title>Node10&#45;&gt;Node11</title>
<g id="a_edge11_Node000010_Node000011"><a xlink:title=" ">
<path fill="none" stroke="#63b8ff" d="M295.71,-175.62C310.71,-175.62 328.28,-175.62 343.6,-175.62"/>
<polygon fill="#63b8ff" stroke="#63b8ff" points="343.29,-179.13 353.29,-175.63 343.29,-172.13 343.29,-179.13"/>
</a>
</g>
</g>
<!-- Node12 -->
<g id="Node000012" class="node">
<title>Node12</title>
<g id="a_Node000012"><a xlink:href="par__mpi_8h.html#ab73329ce6f65730ba4783a8031edd518" target="_top" xlink:title="Swaps the halos along the axis given by idir in the direction given by layer.">
<polygon fill="white" stroke="#666666" points="426.25,-148.25 339,-148.25 339,-129 426.25,-129 426.25,-148.25"/>
<text text-anchor="middle" x="382.62" y="-134.75" font-family="IBMPlexSans-Regular" font-size="10.00">CHalo_swap_dir</text>
</a>
</g>
</g>
<!-- Node10&#45;&gt;Node12 -->
<g id="edge12_Node000010_Node000012" class="edge">
<title>Node10&#45;&gt;Node12</title>
<g id="a_edge12_Node000010_Node000012"><a xlink:title=" ">
<path fill="none" stroke="#63b8ff" d="M293.78,-165.51C307.37,-161.35 323.31,-156.48 337.85,-152.02"/>
<polygon fill="#63b8ff" stroke="#63b8ff" points="338.65,-155.44 347.19,-149.17 336.6,-148.75 338.65,-155.44"/>
</a>
</g>
</g>
<!-- Node14 -->
<g id="Node000014" class="node">
<title>Node14</title>
<g id="a_Node000014"><a xlink:href="par__mpi_8h.html#a35d208a5a65e71101e71d3f0248aef03" target="_top" xlink:title="Calls the functions to send data to both the up and down halos.">
<polygon fill="white" stroke="#666666" points="425.5,-74.25 339.75,-74.25 339.75,-55 425.5,-55 425.5,-74.25"/>
<text text-anchor="middle" x="382.62" y="-60.75" font-family="IBMPlexSans-Regular" font-size="10.00">ZHalo_swap_all</text>
</a>
</g>
</g>
<!-- Node13&#45;&gt;Node14 -->
<g id="edge14_Node000013_Node000014" class="edge">
<title>Node13&#45;&gt;Node14</title>
<g id="a_edge14_Node000013_Node000014"><a xlink:title=" ">
<path fill="none" stroke="#63b8ff" d="M286.2,-128.84C291.84,-126.38 297.71,-123.59 303,-120.62 323.58,-109.09 345.3,-93.31 360.69,-81.44"/>
<polygon fill="#63b8ff" stroke="#63b8ff" points="362.48,-84.48 368.19,-75.56 358.16,-78.97 362.48,-84.48"/>
</a>
</g>
</g>
<!-- Node16&#45;&gt;Node16 -->
<g id="edge17_Node000016_Node000016" class="edge">
<title>Node16&#45;&gt;Node16</title>
<g id="a_edge17_Node000016_Node000016"><a xlink:title=" ">
<path fill="none" stroke="#63b8ff" d="M112.8,-74.54C105.07,-83.15 110.72,-92.25 129.75,-92.25 140.16,-92.25 146.56,-89.53 148.96,-85.65"/>
<polygon fill="#63b8ff" stroke="#63b8ff" points="152.43,-85.12 147,-76.02 145.57,-86.52 152.43,-85.12"/>
</a>
</g>
</g>
<!-- Node17 -->
<g id="Node000017" class="node">
<title>Node17</title>
<g id="a_Node000017"><a xlink:href="matrices_8c.html#a998120d21faa6bf801710ae86f3d918b" target="_top" xlink:title="Reunitarises u11t and u12t as in conj(u11t[i])*u11t[i]+conj(u12t[i])*u12t[i]=1.">
<polygon fill="white" stroke="#666666" points="292.12,-74.25 227.38,-74.25 227.38,-55 292.12,-55 292.12,-74.25"/>
<text text-anchor="middle" x="259.75" y="-60.75" font-family="IBMPlexSans-Regular" font-size="10.00">Reunitarise</text>
</a>
</g>
</g>
<!-- Node16&#45;&gt;Node17 -->
<g id="edge18_Node000016_Node000017" class="edge">
<title>Node16&#45;&gt;Node17</title>
<g id="a_edge18_Node000016_Node000017"><a xlink:title=" ">
<path fill="none" stroke="#63b8ff" d="M170.55,-64.62C184.91,-64.62 201.18,-64.62 215.8,-64.62"/>
<polygon fill="#63b8ff" stroke="#63b8ff" points="215.59,-68.13 225.59,-64.63 215.59,-61.13 215.59,-68.13"/>
</a>
</g>
</g>
<!-- Node18 -->
<g id="Node000018" class="node">
<title>Node18</title>
<g id="a_Node000018"><a xlink:href="par__mpi_8c.html#aa988b87ed44e79f217a03e824c9d484e" target="_top" xlink:title="Exchanges the trial fields.">
<polygon fill="white" stroke="#666666" points="300.75,-37.25 218.75,-37.25 218.75,-18 300.75,-18 300.75,-37.25"/>
<text text-anchor="middle" x="259.75" y="-23.75" font-family="IBMPlexSans-Regular" font-size="10.00">Trial_Exchange</text>
</a>
</g>
</g>
<!-- Node16&#45;&gt;Node18 -->
<g id="edge19_Node000016_Node000018" class="edge">
<title>Node16&#45;&gt;Node18</title>
<g id="a_edge19_Node000016_Node000018"><a xlink:title=" ">
<path fill="none" stroke="#63b8ff" d="M165.73,-54.51C180.26,-50.31 197.33,-45.38 212.85,-40.89"/>
<polygon fill="#63b8ff" stroke="#63b8ff" points="213.73,-44.28 222.36,-38.14 211.78,-37.56 213.73,-44.28"/>
</a>
</g>
</g>
<!-- Node18&#45;&gt;Node14 -->
<g id="edge20_Node000018_Node000014" class="edge">
<title>Node18&#45;&gt;Node14</title>
<g id="a_edge20_Node000018_Node000014"><a xlink:title=" ">
<path fill="none" stroke="#63b8ff" d="M293.78,-37.74C307.37,-41.9 323.31,-46.77 337.85,-51.23"/>
<polygon fill="#63b8ff" stroke="#63b8ff" points="336.6,-54.5 347.19,-54.08 338.65,-47.81 336.6,-54.5"/>
</a>
</g>
</g>
<!-- Node19&#45;&gt;Node19 -->
<g id="edge22_Node000019_Node000019" class="edge">
<title>Node19&#45;&gt;Node19</title>
<g id="a_edge22_Node000019_Node000019"><a xlink:title=" ">
<path fill="none" stroke="#63b8ff" d="M112.8,-19.54C105.07,-28.15 110.72,-37.25 129.75,-37.25 140.16,-37.25 146.56,-34.53 148.96,-30.65"/>
<polygon fill="#63b8ff" stroke="#63b8ff" points="152.43,-30.12 147,-21.02 145.57,-31.52 152.43,-30.12"/>
</a>
</g>
</g>
</g>
</svg>
