<?xml version="1.0" encoding="UTF-8" standalone="no"?>
<!DOCTYPE svg PUBLIC "-//W3C//DTD SVG 1.1//EN"
 "http://www.w3.org/Graphics/SVG/1.1/DTD/svg11.dtd">
<!-- Generated by graphviz version 12.2.1 (20241206.2353)
 -->
<!-- Title: OMF2 Pages: 1 -->
<svg width="557pt" height="323pt"
 viewBox="0.00 0.00 556.75 323.25" xmlns="http://www.w3.org/2000/svg" xmlns:xlink="http://www.w3.org/1999/xlink">
<g id="graph0" class="graph" transform="scale(1 1) rotate(0) translate(4 319.25)">
<title>OMF2</title>
<!-- Node1 -->
<g id="Node000001" class="node">
<title>Node1</title>
<g id="a_Node000001"><a xlink:title="OMF second order five step integrator.">
<polygon fill="#999999" stroke="#666666" points="43,-56.25 0,-56.25 0,-37 43,-37 43,-56.25"/>
<text text-anchor="middle" x="21.5" y="-42.75" font-family="IBMPlexSans-Regular" font-size="10.00">OMF2</text>
</a>
</g>
</g>
<!-- Node2 -->
<g id="Node000002" class="node">
<title>Node2</title>
<g id="a_Node000002"><a xlink:href="force_8c.html#a98a5926c20124e0cea060ad1e47ff3de" target="_top" xlink:title="Calculates the force &#160;at each intermediate time.">
<polygon fill="white" stroke="#666666" points="150.12,-167.25 109.38,-167.25 109.38,-148 150.12,-148 150.12,-167.25"/>
<text text-anchor="middle" x="129.75" y="-153.75" font-family="IBMPlexSans-Regular" font-size="10.00">Force</text>
</a>
</g>
</g>
<!-- Node1&#45;&gt;Node2 -->
<g id="edge1_Node000001_Node000002" class="edge">
<title>Node1&#45;&gt;Node2</title>
<g id="a_edge1_Node000001_Node000002"><a xlink:title=" ">
<path fill="none" stroke="#63b8ff" d="M31.93,-56.48C49.76,-75.11 88.67,-115.76 111.37,-139.46"/>
<polygon fill="#63b8ff" stroke="#63b8ff" points="108.7,-141.74 118.14,-146.54 113.76,-136.9 108.7,-141.74"/>
</a>
</g>
</g>
<!-- Node16 -->
<g id="Node000016" class="node">
<title>Node16</title>
<g id="a_Node000016"><a xlink:href="integrate_8c.html#ab9fe12be80cd3768ce2adf2be02a1d4b" target="_top" xlink:title="Gauge update for the integration step of the HMC.">
<polygon fill="white" stroke="#666666" points="170.38,-56.25 89.12,-56.25 89.12,-37 170.38,-37 170.38,-56.25"/>
<text text-anchor="middle" x="129.75" y="-42.75" font-family="IBMPlexSans-Regular" font-size="10.00">Gauge_Update</text>
</a>
</g>
</g>
<!-- Node1&#45;&gt;Node16 -->
<g id="edge17_Node000001_Node000016" class="edge">
<title>Node1&#45;&gt;Node16</title>
<g id="a_edge17_Node000001_Node000016"><a xlink:title=" ">
<path fill="none" stroke="#63b8ff" d="M43.49,-46.62C53.3,-46.62 65.45,-46.62 77.47,-46.62"/>
<polygon fill="#63b8ff" stroke="#63b8ff" points="77.36,-50.13 87.36,-46.63 77.36,-43.13 77.36,-50.13"/>
</a>
</g>
</g>
<!-- Node19 -->
<g id="Node000019" class="node">
<title>Node19</title>
<g id="a_Node000019"><a xlink:href="integrate_8c.html#af1766f80334a88c142c09e8a1eb682f4" target="_top" xlink:title="Wrapper for the momentum update during the integration step of the HMC.">
<polygon fill="white" stroke="#666666" points="180.5,-19.25 79,-19.25 79,0 180.5,0 180.5,-19.25"/>
<text text-anchor="middle" x="129.75" y="-5.75" font-family="IBMPlexSans-Regular" font-size="10.00">Momentum_Update</text>
</a>
</g>
</g>
<!-- Node1&#45;&gt;Node19 -->
<g id="edge21_Node000001_Node000019" class="edge">
<title>Node1&#45;&gt;Node19</title>
<g id="a_edge21_Node000001_Node000019"><a xlink:title=" ">
<path fill="none" stroke="#63b8ff" d="M43.49,-39.31C56.44,-34.81 73.46,-28.88 88.89,-23.51"/>
<polygon fill="#63b8ff" stroke="#63b8ff" points="90.04,-26.81 98.33,-20.22 87.73,-20.2 90.04,-26.81"/>
</a>
</g>
</g>
<!-- Node3 -->
<g id="Node000003" class="node">
<title>Node3</title>
<g id="a_Node000003"><a xlink:href="congrad_8c.html#a4b97a088fd74bb3b25ce4f965dc26281" target="_top" xlink:title="Matrix Inversion via Conjugate Gradient (up/down flavour partitioning). Solves &#160;Implements up/down pa...">
<polygon fill="white" stroke="#666666" points="288.38,-241.25 231.12,-241.25 231.12,-222 288.38,-222 288.38,-241.25"/>
<text text-anchor="middle" x="259.75" y="-227.75" font-family="IBMPlexSans-Regular" font-size="10.00">Congradq</text>
</a>
</g>
</g>
<!-- Node2&#45;&gt;Node3 -->
<g id="edge2_Node000002_Node000003" class="edge">
<title>Node2&#45;&gt;Node3</title>
<g id="a_edge2_Node000002_Node000003"><a xlink:title=" ">
<path fill="none" stroke="#63b8ff" d="M144.55,-167.73C161.11,-179.6 190,-199.47 216.5,-213.62 218.59,-214.74 220.76,-215.84 222.97,-216.91"/>
<polygon fill="#63b8ff" stroke="#63b8ff" points="221.46,-220.07 232.01,-221.05 224.37,-213.7 221.46,-220.07"/>
</a>
</g>
</g>
<!-- Node4 -->
<g id="Node000004" class="node">
<title>Node4</title>
<g id="a_Node000004"><a xlink:href="matrices_8c.html#a68e018d0a9d3c7ae5e175f87da75d881" target="_top" xlink:title="Evaluates &#160;in single precision.">
<polygon fill="white" stroke="#666666" points="412.75,-315.25 352.5,-315.25 352.5,-296 412.75,-296 412.75,-315.25"/>
<text text-anchor="middle" x="382.62" y="-301.75" font-family="IBMPlexSans-Regular" font-size="10.00">Hdslash_f</text>
</a>
</g>
</g>
<!-- Node2&#45;&gt;Node4 -->
<g id="edge15_Node000002_Node000004" class="edge">
<title>Node2&#45;&gt;Node4</title>
<g id="a_edge15_Node000002_Node000004"><a xlink:title=" ">
<path fill="none" stroke="#63b8ff" d="M137.31,-167.57C150.24,-186.44 180.9,-227.62 216.5,-250.62 255.03,-275.53 305.94,-290.24 341,-298.09"/>
<polygon fill="#63b8ff" stroke="#63b8ff" points="340.24,-301.5 350.75,-300.17 341.71,-294.66 340.24,-301.5"/>
</a>
</g>
</g>
<!-- Node9 -->
<g id="Node000009" class="node">
<title>Node9</title>
<g id="a_Node000009"><a xlink:href="su2hmc_8c.html#ad4816b4c3599a65d212f34e10c83055f" target="_top" xlink:title=" ">
<polygon fill="white" stroke="#666666" points="298.88,-204.25 220.62,-204.25 220.62,-185 298.88,-185 298.88,-204.25"/>
<text text-anchor="middle" x="259.75" y="-190.75" font-family="IBMPlexSans-Regular" font-size="10.00">Fill_Small_Phi</text>
</a>
</g>
</g>
<!-- Node2&#45;&gt;Node9 -->
<g id="edge9_Node000002_Node000009" class="edge">
<title>Node2&#45;&gt;Node9</title>
<g id="a_edge9_Node000002_Node000009"><a xlink:title=" ">
<path fill="none" stroke="#63b8ff" d="M150.47,-163.33C167.07,-168.12 191.47,-175.18 212.91,-181.37"/>
<polygon fill="#63b8ff" stroke="#63b8ff" points="211.76,-184.68 222.33,-184.1 213.7,-177.96 211.76,-184.68"/>
</a>
</g>
</g>
<!-- Node10 -->
<g id="Node000010" class="node">
<title>Node10</title>
<g id="a_Node000010"><a xlink:href="force_8c.html#ab8975ff11cde008308f4d18a8f25425e" target="_top" xlink:title="Calculates the gauge force due to the Wilson Action at each intermediate time.">
<polygon fill="white" stroke="#666666" points="295.5,-167.25 224,-167.25 224,-148 295.5,-148 295.5,-167.25"/>
<text text-anchor="middle" x="259.75" y="-153.75" font-family="IBMPlexSans-Regular" font-size="10.00">Gauge_force</text>
</a>
</g>
</g>
<!-- Node2&#45;&gt;Node10 -->
<g id="edge10_Node000002_Node000010" class="edge">
<title>Node2&#45;&gt;Node10</title>
<g id="a_edge10_Node000002_Node000010"><a xlink:title=" ">
<path fill="none" stroke="#63b8ff" d="M150.47,-157.62C166.86,-157.62 190.85,-157.62 212.08,-157.62"/>
<polygon fill="#63b8ff" stroke="#63b8ff" points="212.02,-161.13 222.02,-157.63 212.02,-154.13 212.02,-161.13"/>
</a>
</g>
</g>
<!-- Node13 -->
<g id="Node000013" class="node">
<title>Node13</title>
<g id="a_Node000013"><a xlink:href="matrices_8c.html#a487c5a84050f8d6fa5754d7d8784b75e" target="_top" xlink:title="Evaluates &#160;in double precision.">
<polygon fill="white" stroke="#666666" points="285.75,-130.25 233.75,-130.25 233.75,-111 285.75,-111 285.75,-130.25"/>
<text text-anchor="middle" x="259.75" y="-116.75" font-family="IBMPlexSans-Regular" font-size="10.00">Hdslash</text>
</a>
</g>
</g>
<!-- Node2&#45;&gt;Node13 -->
<g id="edge13_Node000002_Node000013" class="edge">
<title>Node2&#45;&gt;Node13</title>
<g id="a_edge13_Node000002_Node000013"><a xlink:title=" ">
<path fill="none" stroke="#63b8ff" d="M150.47,-151.92C169.63,-146.39 199.19,-137.84 222.58,-131.08"/>
<polygon fill="#63b8ff" stroke="#63b8ff" points="223.41,-134.48 232.04,-128.34 221.47,-127.76 223.41,-134.48"/>
</a>
</g>
</g>
<!-- Node15 -->
<g id="Node000015" class="node">
<title>Node15</title>
<g id="a_Node000015"><a xlink:href="par__mpi_8h.html#a893a7c85fb77e355d4cec6bc35711b98" target="_top" xlink:title="Swaps the halos along the axis given by idir in the direction given by layer.">
<polygon fill="white" stroke="#666666" points="303,-93.25 216.5,-93.25 216.5,-74 303,-74 303,-93.25"/>
<text text-anchor="middle" x="259.75" y="-79.75" font-family="IBMPlexSans-Regular" font-size="10.00">ZHalo_swap_dir</text>
</a>
</g>
</g>
<!-- Node2&#45;&gt;Node15 -->
<g id="edge16_Node000002_Node000015" class="edge">
<title>Node2&#45;&gt;Node15</title>
<g id="a_edge16_Node000002_Node000015"><a xlink:title=" ">
<path fill="none" stroke="#63b8ff" d="M144.55,-147.52C161.11,-135.65 190,-115.78 216.5,-101.62 218.59,-100.51 220.76,-99.41 222.97,-98.34"/>
<polygon fill="#63b8ff" stroke="#63b8ff" points="224.37,-101.55 232.01,-94.2 221.46,-95.18 224.37,-101.55"/>
</a>
</g>
</g>
<!-- Node3&#45;&gt;Node4 -->
<g id="edge3_Node000003_Node000004" class="edge">
<title>Node3&#45;&gt;Node4</title>
<g id="a_edge3_Node000003_Node000004"><a xlink:title=" ">
<path fill="none" stroke="#63b8ff" d="M272.92,-241.64C287.84,-253.61 314.22,-273.75 339,-287.62 341.03,-288.76 343.14,-289.87 345.29,-290.94"/>
<polygon fill="#63b8ff" stroke="#63b8ff" points="343.57,-294 354.12,-295.03 346.52,-287.65 343.57,-294"/>
</a>
</g>
</g>
<!-- Node6 -->
<g id="Node000006" class="node">
<title>Node6</title>
<g id="a_Node000006"><a xlink:href="matrices_8c.html#a01fdbe29f8890534b19e20de5af344aa" target="_top" xlink:title="Evaluates &#160;in single precision.">
<polygon fill="white" stroke="#666666" points="415.38,-278.25 349.88,-278.25 349.88,-259 415.38,-259 415.38,-278.25"/>
<text text-anchor="middle" x="382.62" y="-264.75" font-family="IBMPlexSans-Regular" font-size="10.00">Hdslashd_f</text>
</a>
</g>
</g>
<!-- Node3&#45;&gt;Node6 -->
<g id="edge5_Node000003_Node000006" class="edge">
<title>Node3&#45;&gt;Node6</title>
<g id="a_edge5_Node000003_Node000006"><a xlink:title=" ">
<path fill="none" stroke="#63b8ff" d="M288.78,-240.21C303.66,-244.76 322.25,-250.45 338.88,-255.54"/>
<polygon fill="#63b8ff" stroke="#63b8ff" points="337.44,-258.76 348.02,-258.34 339.49,-252.07 337.44,-258.76"/>
</a>
</g>
</g>
<!-- Node7 -->
<g id="Node000007" class="node">
<title>Node7</title>
<g id="a_Node000007"><a xlink:href="par__mpi_8h.html#aecfe9840e5f8dfd693b813b750d81a0c" target="_top" xlink:title="Performs a reduction on a double dval to get a sum which is then distributed to all ranks.">
<polygon fill="white" stroke="#666666" points="412.75,-241.25 352.5,-241.25 352.5,-222 412.75,-222 412.75,-241.25"/>
<text text-anchor="middle" x="382.62" y="-227.75" font-family="IBMPlexSans-Regular" font-size="10.00">Par_dsum</text>
</a>
</g>
</g>
<!-- Node3&#45;&gt;Node7 -->
<g id="edge7_Node000003_Node000007" class="edge">
<title>Node3&#45;&gt;Node7</title>
<g id="a_edge7_Node000003_Node000007"><a xlink:title=" ">
<path fill="none" stroke="#63b8ff" d="M288.78,-231.62C304.2,-231.62 323.6,-231.62 340.68,-231.62"/>
<polygon fill="#63b8ff" stroke="#63b8ff" points="340.54,-235.13 350.54,-231.63 340.54,-228.13 340.54,-235.13"/>
</a>
</g>
</g>
<!-- Node8 -->
<g id="Node000008" class="node">
<title>Node8</title>
<g id="a_Node000008"><a xlink:href="par__mpi_8h.html#a4e2e85b06c5b05c5181729cc5ebdd05b" target="_top" xlink:title="Performs a reduction on a float dval to get a sum which is then distributed to all ranks.">
<polygon fill="white" stroke="#666666" points="411.62,-204.25 353.62,-204.25 353.62,-185 411.62,-185 411.62,-204.25"/>
<text text-anchor="middle" x="382.62" y="-190.75" font-family="IBMPlexSans-Regular" font-size="10.00">Par_fsum</text>
</a>
</g>
</g>
<!-- Node3&#45;&gt;Node8 -->
<g id="edge8_Node000003_Node000008" class="edge">
<title>Node3&#45;&gt;Node8</title>
<g id="a_edge8_Node000003_Node000008"><a xlink:title=" ">
<path fill="none" stroke="#63b8ff" d="M288.78,-223.04C304.84,-218.13 325.23,-211.89 342.81,-206.51"/>
<polygon fill="#63b8ff" stroke="#63b8ff" points="343.34,-210 351.88,-203.73 341.29,-203.31 343.34,-210"/>
</a>
</g>
</g>
<!-- Node5 -->
<g id="Node000005" class="node">
<title>Node5</title>
<g id="a_Node000005"><a xlink:href="par__mpi_8h.html#a14b1a550ef4f44a9e4d7dd06c9427993" target="_top" xlink:title="Calls the functions to send data to both the up and down halos.">
<polygon fill="white" stroke="#666666" points="548.75,-296.25 462.25,-296.25 462.25,-277 548.75,-277 548.75,-296.25"/>
<text text-anchor="middle" x="505.5" y="-282.75" font-family="IBMPlexSans-Regular" font-size="10.00">CHalo_swap_all</text>
</a>
</g>
</g>
<!-- Node4&#45;&gt;Node5 -->
<g id="edge4_Node000004_Node000005" class="edge">
<title>Node4&#45;&gt;Node5</title>
<g id="a_edge4_Node000004_Node000005"><a xlink:title=" ">
<path fill="none" stroke="#63b8ff" d="M413.19,-300.98C424.55,-299.19 437.88,-297.1 450.81,-295.06"/>
<polygon fill="#63b8ff" stroke="#63b8ff" points="451.16,-298.55 460.5,-293.54 450.08,-291.64 451.16,-298.55"/>
</a>
</g>
</g>
<!-- Node6&#45;&gt;Node5 -->
<g id="edge6_Node000006_Node000005" class="edge">
<title>Node6&#45;&gt;Node5</title>
<g id="a_edge6_Node000006_Node000005"><a xlink:title=" ">
<path fill="none" stroke="#63b8ff" d="M415.7,-273.4C426.41,-275 438.65,-276.82 450.55,-278.59"/>
<polygon fill="#63b8ff" stroke="#63b8ff" points="449.89,-282.03 460.3,-280.04 450.93,-275.11 449.89,-282.03"/>
</a>
</g>
</g>
<!-- Node11 -->
<g id="Node000011" class="node">
<title>Node11</title>
<g id="a_Node000011"><a xlink:href="su2hmc_8c.html#af64f1450e29df479f82290bc4f7bdc1f" target="_top" xlink:title="Extracts all the single precision gauge links in the &#160;direction only.">
<polygon fill="white" stroke="#666666" points="410.12,-167.25 355.12,-167.25 355.12,-148 410.12,-148 410.12,-167.25"/>
<text text-anchor="middle" x="382.62" y="-153.75" font-family="IBMPlexSans-Regular" font-size="10.00">C_gather</text>
</a>
</g>
</g>
<!-- Node10&#45;&gt;Node11 -->
<g id="edge11_Node000010_Node000011" class="edge">
<title>Node10&#45;&gt;Node11</title>
<g id="a_edge11_Node000010_Node000011"><a xlink:title=" ">
<path fill="none" stroke="#63b8ff" d="M295.71,-157.62C310.71,-157.62 328.28,-157.62 343.6,-157.62"/>
<polygon fill="#63b8ff" stroke="#63b8ff" points="343.29,-161.13 353.29,-157.63 343.29,-154.13 343.29,-161.13"/>
</a>
</g>
</g>
<!-- Node12 -->
<g id="Node000012" class="node">
<title>Node12</title>
<g id="a_Node000012"><a xlink:href="par__mpi_8h.html#ab73329ce6f65730ba4783a8031edd518" target="_top" xlink:title="Swaps the halos along the axis given by idir in the direction given by layer.">
<polygon fill="white" stroke="#666666" points="426.25,-130.25 339,-130.25 339,-111 426.25,-111 426.25,-130.25"/>
<text text-anchor="middle" x="382.62" y="-116.75" font-family="IBMPlexSans-Regular" font-size="10.00">CHalo_swap_dir</text>
</a>
</g>
</g>
<!-- Node10&#45;&gt;Node12 -->
<g id="edge12_Node000010_Node000012" class="edge">
<title>Node10&#45;&gt;Node12</title>
<g id="a_edge12_Node000010_Node000012"><a xlink:title=" ">
<path fill="none" stroke="#63b8ff" d="M293.78,-147.51C307.37,-143.35 323.31,-138.48 337.85,-134.02"/>
<polygon fill="#63b8ff" stroke="#63b8ff" points="338.65,-137.44 347.19,-131.17 336.6,-130.75 338.65,-137.44"/>
</a>
</g>
</g>
<!-- Node14 -->
<g id="Node000014" class="node">
<title>Node14</title>
<g id="a_Node000014"><a xlink:href="par__mpi_8h.html#a35d208a5a65e71101e71d3f0248aef03" target="_top" xlink:title="Calls the functions to send data to both the up and down halos.">
<polygon fill="white" stroke="#666666" points="425.5,-56.25 339.75,-56.25 339.75,-37 425.5,-37 425.5,-56.25"/>
<text text-anchor="middle" x="382.62" y="-42.75" font-family="IBMPlexSans-Regular" font-size="10.00">ZHalo_swap_all</text>
</a>
</g>
</g>
<!-- Node13&#45;&gt;Node14 -->
<g id="edge14_Node000013_Node000014" class="edge">
<title>Node13&#45;&gt;Node14</title>
<g id="a_edge14_Node000013_Node000014"><a xlink:title=" ">
<path fill="none" stroke="#63b8ff" d="M286.2,-110.84C291.84,-108.38 297.71,-105.59 303,-102.62 323.58,-91.09 345.3,-75.31 360.69,-63.44"/>
<polygon fill="#63b8ff" stroke="#63b8ff" points="362.48,-66.48 368.19,-57.56 358.16,-60.97 362.48,-66.48"/>
</a>
</g>
</g>
<!-- Node17 -->
<g id="Node000017" class="node">
<title>Node17</title>
<g id="a_Node000017"><a xlink:href="matrices_8c.html#ab3c213bd9acb695d1ed852737e5b750c" target="_top" xlink:title="Reunitarises u11t and u12t as in conj(u11t[i])*u11t[i]+conj(u12t[i])*u12t[i]=1.">
<polygon fill="white" stroke="#666666" points="292.12,-56.25 227.38,-56.25 227.38,-37 292.12,-37 292.12,-56.25"/>
<text text-anchor="middle" x="259.75" y="-42.75" font-family="IBMPlexSans-Regular" font-size="10.00">Reunitarise</text>
</a>
</g>
</g>
<!-- Node16&#45;&gt;Node17 -->
<g id="edge18_Node000016_Node000017" class="edge">
<title>Node16&#45;&gt;Node17</title>
<g id="a_edge18_Node000016_Node000017"><a xlink:title=" ">
<path fill="none" stroke="#63b8ff" d="M170.55,-46.62C184.91,-46.62 201.18,-46.62 215.8,-46.62"/>
<polygon fill="#63b8ff" stroke="#63b8ff" points="215.59,-50.13 225.59,-46.63 215.59,-43.13 215.59,-50.13"/>
</a>
</g>
</g>
<!-- Node18 -->
<g id="Node000018" class="node">
<title>Node18</title>
<g id="a_Node000018"><a xlink:href="par__mpi_8c.html#abf4867774abbc820eb4aaaeabbee31f4" target="_top" xlink:title="Exchanges the trial fields.">
<polygon fill="white" stroke="#666666" points="300.75,-19.25 218.75,-19.25 218.75,0 300.75,0 300.75,-19.25"/>
<text text-anchor="middle" x="259.75" y="-5.75" font-family="IBMPlexSans-Regular" font-size="10.00">Trial_Exchange</text>
</a>
</g>
</g>
<!-- Node16&#45;&gt;Node18 -->
<g id="edge19_Node000016_Node000018" class="edge">
<title>Node16&#45;&gt;Node18</title>
<g id="a_edge19_Node000016_Node000018"><a xlink:title=" ">
<path fill="none" stroke="#63b8ff" d="M165.73,-36.51C180.26,-32.31 197.33,-27.38 212.85,-22.89"/>
<polygon fill="#63b8ff" stroke="#63b8ff" points="213.73,-26.28 222.36,-20.14 211.78,-19.56 213.73,-26.28"/>
</a>
</g>
</g>
<!-- Node18&#45;&gt;Node14 -->
<g id="edge20_Node000018_Node000014" class="edge">
<title>Node18&#45;&gt;Node14</title>
<g id="a_edge20_Node000018_Node000014"><a xlink:title=" ">
<path fill="none" stroke="#63b8ff" d="M293.78,-19.74C307.37,-23.9 323.31,-28.77 337.85,-33.23"/>
<polygon fill="#63b8ff" stroke="#63b8ff" points="336.6,-36.5 347.19,-36.08 338.65,-29.81 336.6,-36.5"/>
</a>
</g>
</g>
</g>
</svg>
