<?xml version="1.0" encoding="UTF-8" standalone="no"?>
<!DOCTYPE svg PUBLIC "-//W3C//DTD SVG 1.1//EN"
 "http://www.w3.org/Graphics/SVG/1.1/DTD/svg11.dtd">
<!-- Generated by graphviz version 12.2.1 (20241206.2353)
 -->
<!-- Title: main.c Pages: 1 -->
<svg width="705pt" height="469pt"
 viewBox="0.00 0.00 705.00 469.25" xmlns="http://www.w3.org/2000/svg" xmlns:xlink="http://www.w3.org/1999/xlink">
<g id="graph0" class="graph" transform="scale(1 1) rotate(0) translate(4 465.25)">
<title>main.c</title>
<!-- Node1 -->
<g id="Node000001" class="node">
<title>Node1</title>
<g id="a_Node000001"><a xlink:title="Hybrid Monte Carlo algorithm for Two Colour QCD with Wilson&#45;Gor&#39;kov fermions based on the algorithm o...">
<polygon fill="#999999" stroke="#666666" points="304.5,-461.25 260,-461.25 260,-442 304.5,-442 304.5,-461.25"/>
<text text-anchor="middle" x="282.25" y="-447.75" font-family="IBMPlexSans-Regular" font-size="10.00">main.c</text>
</a>
</g>
</g>
<!-- Node2 -->
<g id="Node000002" class="node">
<title>Node2</title>
<g id="a_Node000002"><a xlink:title=" ">
<polygon fill="#e0e0e0" stroke="#999999" points="50.5,-406 0,-406 0,-386.75 50.5,-386.75 50.5,-406"/>
<text text-anchor="middle" x="25.25" y="-392.5" font-family="IBMPlexSans-Regular" font-size="10.00">assert.h</text>
</a>
</g>
</g>
<!-- Node1&#45;&gt;Node2 -->
<g id="edge1_Node000001_Node000002" class="edge">
<title>Node1&#45;&gt;Node2</title>
<g id="a_edge1_Node000001_Node000002"><a xlink:title=" ">
<path fill="none" stroke="#63b8ff" d="M259.63,-446.12C220.01,-438.19 135.47,-421.16 64.25,-406 63.44,-405.83 62.61,-405.65 61.78,-405.47"/>
<polygon fill="#63b8ff" stroke="#63b8ff" points="62.83,-402.12 52.31,-403.41 61.34,-408.96 62.83,-402.12"/>
</a>
</g>
</g>
<!-- Node3 -->
<g id="Node000003" class="node">
<title>Node3</title>
<g id="a_Node000003"><a xlink:href="coord_8h.html" target="_top" xlink:title="Header for routines related to lattice sites.">
<polygon fill="white" stroke="#666666" points="192,-129.75 144.5,-129.75 144.5,-110.5 192,-110.5 192,-129.75"/>
<text text-anchor="middle" x="168.25" y="-116.25" font-family="IBMPlexSans-Regular" font-size="10.00">coord.h</text>
</a>
</g>
</g>
<!-- Node1&#45;&gt;Node3 -->
<g id="edge2_Node000001_Node000003" class="edge">
<title>Node1&#45;&gt;Node3</title>
<g id="a_edge2_Node000001_Node000003"><a xlink:title=" ">
<path fill="none" stroke="#63b8ff" d="M259.52,-446.73C214.05,-437.5 116.25,-409.78 116.25,-342.12 116.25,-342.12 116.25,-342.12 116.25,-229.62 116.25,-194.8 138.3,-159.32 153.69,-138.8"/>
<polygon fill="#63b8ff" stroke="#63b8ff" points="156.23,-141.23 159.64,-131.2 150.72,-136.91 156.23,-141.23"/>
</a>
</g>
</g>
<!-- Node4 -->
<g id="Node000004" class="node">
<title>Node4</title>
<g id="a_Node000004"><a xlink:title=" ">
<polygon fill="#e0e0e0" stroke="#999999" points="138.88,-74.5 93.62,-74.5 93.62,-55.25 138.88,-55.25 138.88,-74.5"/>
<text text-anchor="middle" x="116.25" y="-61" font-family="IBMPlexSans-Regular" font-size="10.00">math.h</text>
</a>
</g>
</g>
<!-- Node1&#45;&gt;Node4 -->
<g id="edge6_Node000001_Node000004" class="edge">
<title>Node1&#45;&gt;Node4</title>
<g id="a_edge6_Node000001_Node000004"><a xlink:title=" ">
<path fill="none" stroke="#63b8ff" d="M259.64,-449.07C206.53,-444.07 78.25,-423.56 78.25,-342.12 78.25,-342.12 78.25,-342.12 78.25,-174.38 78.25,-141.38 94.09,-105.76 105.32,-84.66"/>
<polygon fill="#63b8ff" stroke="#63b8ff" points="108.27,-86.55 110.07,-76.11 102.15,-83.15 108.27,-86.55"/>
</a>
</g>
</g>
<!-- Node7 -->
<g id="Node000007" class="node">
<title>Node7</title>
<g id="a_Node000007"><a xlink:href="matrices_8h.html" target="_top" xlink:title="Matrix multiplication and related declarations.">
<polygon fill="white" stroke="#666666" points="406.75,-406 345.75,-406 345.75,-386.75 406.75,-386.75 406.75,-406"/>
<text text-anchor="middle" x="376.25" y="-392.5" font-family="IBMPlexSans-Regular" font-size="10.00">matrices.h</text>
</a>
</g>
</g>
<!-- Node1&#45;&gt;Node7 -->
<g id="edge7_Node000001_Node000007" class="edge">
<title>Node1&#45;&gt;Node7</title>
<g id="a_edge7_Node000001_Node000007"><a xlink:title=" ">
<path fill="none" stroke="#63b8ff" d="M298.2,-441.59C312.51,-433.48 333.78,-421.43 350.5,-411.96"/>
<polygon fill="#63b8ff" stroke="#63b8ff" points="351.93,-415.17 358.91,-407.2 348.48,-409.08 351.93,-415.17"/>
</a>
</g>
</g>
<!-- Node8 -->
<g id="Node000008" class="node">
<title>Node8</title>
<g id="a_Node000008"><a xlink:href="par__mpi_8h.html" target="_top" xlink:title="MPI headers.">
<polygon fill="white" stroke="#666666" points="549.25,-185 491.25,-185 491.25,-165.75 549.25,-165.75 549.25,-185"/>
<text text-anchor="middle" x="520.25" y="-171.5" font-family="IBMPlexSans-Regular" font-size="10.00">par_mpi.h</text>
</a>
</g>
</g>
<!-- Node1&#45;&gt;Node8 -->
<g id="edge29_Node000001_Node000008" class="edge">
<title>Node1&#45;&gt;Node8</title>
<g id="a_edge29_Node000001_Node000008"><a xlink:title=" ">
<path fill="none" stroke="#63b8ff" d="M304.91,-447.31C373.99,-436.59 577.25,-400.11 577.25,-342.12 577.25,-342.12 577.25,-342.12 577.25,-284.88 577.25,-249.42 553.11,-214.16 536.24,-193.85"/>
<polygon fill="#63b8ff" stroke="#63b8ff" points="539.09,-191.8 529.9,-186.54 533.81,-196.38 539.09,-191.8"/>
</a>
</g>
</g>
<!-- Node13 -->
<g id="Node000013" class="node">
<title>Node13</title>
<g id="a_Node000013"><a xlink:title=" ">
<polygon fill="#e0e0e0" stroke="#999999" points="697,-129.75 649.5,-129.75 649.5,-110.5 697,-110.5 697,-129.75"/>
<text text-anchor="middle" x="673.25" y="-116.25" font-family="IBMPlexSans-Regular" font-size="10.00">string.h</text>
</a>
</g>
</g>
<!-- Node1&#45;&gt;Node13 -->
<g id="edge31_Node000001_Node000013" class="edge">
<title>Node1&#45;&gt;Node13</title>
<g id="a_edge31_Node000001_Node000013"><a xlink:title=" ">
<path fill="none" stroke="#63b8ff" d="M304.81,-448.86C384.39,-442 647.25,-413.94 647.25,-342.12 647.25,-342.12 647.25,-342.12 647.25,-229.62 647.25,-197.9 657.89,-162.36 665.56,-140.87"/>
<polygon fill="#63b8ff" stroke="#63b8ff" points="668.78,-142.25 669,-131.65 662.22,-139.8 668.78,-142.25"/>
</a>
</g>
</g>
<!-- Node14 -->
<g id="Node000014" class="node">
<title>Node14</title>
<g id="a_Node000014"><a xlink:href="su2hmc_8h.html" target="_top" xlink:title="Function declarations for most of the routines.">
<polygon fill="white" stroke="#666666" points="405.25,-350.75 347.25,-350.75 347.25,-331.5 405.25,-331.5 405.25,-350.75"/>
<text text-anchor="middle" x="376.25" y="-337.25" font-family="IBMPlexSans-Regular" font-size="10.00">su2hmc.h</text>
</a>
</g>
</g>
<!-- Node1&#45;&gt;Node14 -->
<g id="edge32_Node000001_Node000014" class="edge">
<title>Node1&#45;&gt;Node14</title>
<g id="a_edge32_Node000001_Node000014"><a xlink:title=" ">
<path fill="none" stroke="#63b8ff" d="M290.06,-441.51C300.71,-429.1 320.37,-406.21 337.25,-386.75 345.09,-377.71 353.85,-367.68 361.08,-359.42"/>
<polygon fill="#63b8ff" stroke="#63b8ff" points="363.51,-361.96 367.46,-352.14 358.24,-357.35 363.51,-361.96"/>
</a>
</g>
</g>
<!-- Node16 -->
<g id="Node000016" class="node">
<title>Node16</title>
<g id="a_Node000016"><a xlink:href="random_8h.html" target="_top" xlink:title="Header for random number configuration.">
<polygon fill="white" stroke="#666666" points="286.12,-240.25 230.38,-240.25 230.38,-221 286.12,-221 286.12,-240.25"/>
<text text-anchor="middle" x="258.25" y="-226.75" font-family="IBMPlexSans-Regular" font-size="10.00">random.h</text>
</a>
</g>
</g>
<!-- Node1&#45;&gt;Node16 -->
<g id="edge30_Node000001_Node000016" class="edge">
<title>Node1&#45;&gt;Node16</title>
<g id="a_edge30_Node000001_Node000016"><a xlink:title=" ">
<path fill="none" stroke="#63b8ff" d="M281.28,-441.77C277.74,-409.51 265.5,-297.76 260.45,-251.71"/>
<polygon fill="#63b8ff" stroke="#63b8ff" points="263.94,-251.42 259.37,-241.86 256.98,-252.18 263.94,-251.42"/>
</a>
</g>
</g>
<!-- Node3&#45;&gt;Node4 -->
<g id="edge3_Node000003_Node000004" class="edge">
<title>Node3&#45;&gt;Node4</title>
<g id="a_edge3_Node000003_Node000004"><a xlink:title=" ">
<path fill="none" stroke="#63b8ff" d="M159.66,-110.33C152.41,-102.9 141.8,-92.04 132.88,-82.91"/>
<polygon fill="#63b8ff" stroke="#63b8ff" points="135.57,-80.65 126.08,-75.94 130.56,-85.54 135.57,-80.65"/>
</a>
</g>
</g>
<!-- Node5 -->
<g id="Node000005" class="node">
<title>Node5</title>
<g id="a_Node000005"><a xlink:href="sizes_8h.html" target="_top" xlink:title="Defines the constants of the code and other parameters for loop dimensions. Each subroutine includes ...">
<polygon fill="white" stroke="#666666" points="281.25,-74.5 235.25,-74.5 235.25,-55.25 281.25,-55.25 281.25,-74.5"/>
<text text-anchor="middle" x="258.25" y="-61" font-family="IBMPlexSans-Regular" font-size="10.00">sizes.h</text>
</a>
</g>
</g>
<!-- Node3&#45;&gt;Node5 -->
<g id="edge4_Node000003_Node000005" class="edge">
<title>Node3&#45;&gt;Node5</title>
<g id="a_edge4_Node000003_Node000005"><a xlink:title=" ">
<path fill="none" stroke="#63b8ff" d="M183.52,-110.09C197.09,-102.06 217.2,-90.16 233.15,-80.73"/>
<polygon fill="#63b8ff" stroke="#63b8ff" points="234.78,-83.83 241.61,-75.72 231.22,-77.8 234.78,-83.83"/>
</a>
</g>
</g>
<!-- Node6 -->
<g id="Node000006" class="node">
<title>Node6</title>
<g id="a_Node000006"><a xlink:title=" ">
<polygon fill="#e0e0e0" stroke="#999999" points="288,-19.25 228.5,-19.25 228.5,0 288,0 288,-19.25"/>
<text text-anchor="middle" x="258.25" y="-5.75" font-family="IBMPlexSans-Regular" font-size="10.00">complex.h</text>
</a>
</g>
</g>
<!-- Node5&#45;&gt;Node6 -->
<g id="edge5_Node000005_Node000006" class="edge">
<title>Node5&#45;&gt;Node6</title>
<g id="a_edge5_Node000005_Node000006"><a xlink:title=" ">
<path fill="none" stroke="#63b8ff" d="M258.25,-55.08C258.25,-48.57 258.25,-39.42 258.25,-31.12"/>
<polygon fill="#63b8ff" stroke="#63b8ff" points="261.75,-31.12 258.25,-21.12 254.75,-31.12 261.75,-31.12"/>
</a>
</g>
</g>
<!-- Node7&#45;&gt;Node8 -->
<g id="edge8_Node000007_Node000008" class="edge">
<title>Node7&#45;&gt;Node8</title>
<g id="a_edge8_Node000007_Node000008"><a xlink:title=" ">
<path fill="none" stroke="#63b8ff" d="M384.55,-386.49C392.56,-377.73 404.83,-363.78 414.25,-350.75 453.23,-296.81 492.08,-228.14 510,-195.4"/>
<polygon fill="#63b8ff" stroke="#63b8ff" points="513.01,-197.19 514.71,-186.73 506.86,-193.85 513.01,-197.19"/>
</a>
</g>
</g>
<!-- Node7&#45;&gt;Node14 -->
<g id="edge16_Node000007_Node000014" class="edge">
<title>Node7&#45;&gt;Node14</title>
<g id="a_edge16_Node000007_Node000014"><a xlink:title=" ">
<path fill="none" stroke="#63b8ff" d="M376.25,-386.58C376.25,-380.07 376.25,-370.92 376.25,-362.62"/>
<polygon fill="#63b8ff" stroke="#63b8ff" points="379.75,-362.62 376.25,-352.62 372.75,-362.62 379.75,-362.62"/>
</a>
</g>
</g>
<!-- Node8&#45;&gt;Node3 -->
<g id="edge9_Node000008_Node000003" class="edge">
<title>Node8&#45;&gt;Node3</title>
<g id="a_edge9_Node000008_Node000003"><a xlink:title=" ">
<path fill="none" stroke="#63b8ff" d="M490.84,-169.93C426.33,-160.17 272.63,-136.92 203.27,-126.42"/>
<polygon fill="#63b8ff" stroke="#63b8ff" points="204.02,-123 193.61,-124.96 202.98,-129.92 204.02,-123"/>
</a>
</g>
</g>
<!-- Node8&#45;&gt;Node5 -->
<g id="edge11_Node000008_Node000005" class="edge">
<title>Node8&#45;&gt;Node5</title>
<g id="a_edge11_Node000008_Node000005"><a xlink:title=" ">
<path fill="none" stroke="#63b8ff" d="M527.3,-165.45C537.02,-152.01 551.86,-126.45 538.25,-110.5 507.05,-73.94 360.53,-67.19 292.77,-66.04"/>
<polygon fill="#63b8ff" stroke="#63b8ff" points="293.02,-62.55 282.98,-65.91 292.93,-69.55 293.02,-62.55"/>
</a>
</g>
</g>
<!-- Node9 -->
<g id="Node000009" class="node">
<title>Node9</title>
<g id="a_Node000009"><a xlink:href="errorcodes_8h.html" target="_top" xlink:title="This header is intended to be a useful reference for error codes and their meanings.">
<polygon fill="white" stroke="#666666" points="466.88,-129.75 397.62,-129.75 397.62,-110.5 466.88,-110.5 466.88,-129.75"/>
<text text-anchor="middle" x="432.25" y="-116.25" font-family="IBMPlexSans-Regular" font-size="10.00">errorcodes.h</text>
</a>
</g>
</g>
<!-- Node8&#45;&gt;Node9 -->
<g id="edge10_Node000008_Node000009" class="edge">
<title>Node8&#45;&gt;Node9</title>
<g id="a_edge10_Node000008_Node000009"><a xlink:title=" ">
<path fill="none" stroke="#63b8ff" d="M505.32,-165.34C492.05,-157.31 472.38,-145.41 456.8,-135.98"/>
<polygon fill="#63b8ff" stroke="#63b8ff" points="458.91,-133.17 448.55,-130.99 455.29,-139.16 458.91,-133.17"/>
</a>
</g>
</g>
<!-- Node10 -->
<g id="Node000010" class="node">
<title>Node10</title>
<g id="a_Node000010"><a xlink:title=" ">
<polygon fill="#e0e0e0" stroke="#999999" points="379.75,-129.75 324.75,-129.75 324.75,-110.5 379.75,-110.5 379.75,-129.75"/>
<text text-anchor="middle" x="352.25" y="-116.25" font-family="IBMPlexSans-Regular" font-size="10.00">stdbool.h</text>
</a>
</g>
</g>
<!-- Node8&#45;&gt;Node10 -->
<g id="edge12_Node000008_Node000010" class="edge">
<title>Node8&#45;&gt;Node10</title>
<g id="a_edge12_Node000008_Node000010"><a xlink:title=" ">
<path fill="none" stroke="#63b8ff" d="M491.75,-165.34C463.99,-156.54 421.58,-143.1 390.81,-133.35"/>
<polygon fill="#63b8ff" stroke="#63b8ff" points="392.08,-130.08 381.49,-130.39 389.97,-136.75 392.08,-130.08"/>
</a>
</g>
</g>
<!-- Node11 -->
<g id="Node000011" class="node">
<title>Node11</title>
<g id="a_Node000011"><a xlink:title=" ">
<polygon fill="#e0e0e0" stroke="#999999" points="529.5,-129.75 485,-129.75 485,-110.5 529.5,-110.5 529.5,-129.75"/>
<text text-anchor="middle" x="507.25" y="-116.25" font-family="IBMPlexSans-Regular" font-size="10.00">stdio.h</text>
</a>
</g>
</g>
<!-- Node8&#45;&gt;Node11 -->
<g id="edge13_Node000008_Node000011" class="edge">
<title>Node8&#45;&gt;Node11</title>
<g id="a_edge13_Node000008_Node000011"><a xlink:title=" ">
<path fill="none" stroke="#63b8ff" d="M518.1,-165.58C516.48,-158.92 514.17,-149.49 512.11,-141.03"/>
<polygon fill="#63b8ff" stroke="#63b8ff" points="515.57,-140.46 509.8,-131.58 508.77,-142.12 515.57,-140.46"/>
</a>
</g>
</g>
<!-- Node12 -->
<g id="Node000012" class="node">
<title>Node12</title>
<g id="a_Node000012"><a xlink:title=" ">
<polygon fill="#e0e0e0" stroke="#999999" points="631.62,-129.75 584.88,-129.75 584.88,-110.5 631.62,-110.5 631.62,-129.75"/>
<text text-anchor="middle" x="608.25" y="-116.25" font-family="IBMPlexSans-Regular" font-size="10.00">stdlib.h</text>
</a>
</g>
</g>
<!-- Node8&#45;&gt;Node12 -->
<g id="edge14_Node000008_Node000012" class="edge">
<title>Node8&#45;&gt;Node12</title>
<g id="a_edge14_Node000008_Node000012"><a xlink:title=" ">
<path fill="none" stroke="#63b8ff" d="M535.18,-165.34C548.45,-157.31 568.12,-145.41 583.7,-135.98"/>
<polygon fill="#63b8ff" stroke="#63b8ff" points="585.21,-139.16 591.95,-130.99 581.59,-133.17 585.21,-139.16"/>
</a>
</g>
</g>
<!-- Node8&#45;&gt;Node13 -->
<g id="edge15_Node000008_Node000013" class="edge">
<title>Node8&#45;&gt;Node13</title>
<g id="a_edge15_Node000008_Node000013"><a xlink:title=" ">
<path fill="none" stroke="#63b8ff" d="M546.2,-165.34C571.64,-156.49 610.58,-142.94 638.65,-133.17"/>
<polygon fill="#63b8ff" stroke="#63b8ff" points="639.47,-136.59 647.76,-130 637.16,-129.98 639.47,-136.59"/>
</a>
</g>
</g>
<!-- Node14&#45;&gt;Node5 -->
<g id="edge25_Node000014_Node000005" class="edge">
<title>Node14&#45;&gt;Node5</title>
<g id="a_edge25_Node000014_Node000005"><a xlink:title=" ">
<path fill="none" stroke="#63b8ff" d="M346.92,-332.78C307.62,-321.03 240.58,-293.68 221.25,-240.25 201.47,-185.58 230.64,-117.25 247.58,-84.75"/>
<polygon fill="#63b8ff" stroke="#63b8ff" points="250.54,-86.61 252.23,-76.15 244.39,-83.28 250.54,-86.61"/>
</a>
</g>
</g>
<!-- Node14&#45;&gt;Node9 -->
<g id="edge17_Node000014_Node000009" class="edge">
<title>Node14&#45;&gt;Node9</title>
<g id="a_edge17_Node000014_Node000009"><a xlink:title=" ">
<path fill="none" stroke="#63b8ff" d="M384,-331.23C391,-322.68 400.98,-309.08 406.25,-295.5 426.77,-242.59 431.2,-174.87 432.09,-141.53"/>
<polygon fill="#63b8ff" stroke="#63b8ff" points="435.59,-141.76 432.26,-131.7 428.59,-141.64 435.59,-141.76"/>
</a>
</g>
</g>
<!-- Node14&#45;&gt;Node11 -->
<g id="edge26_Node000014_Node000011" class="edge">
<title>Node14&#45;&gt;Node11</title>
<g id="a_edge26_Node000014_Node000011"><a xlink:title=" ">
<path fill="none" stroke="#63b8ff" d="M387.9,-331.24C398.23,-322.89 413.2,-309.61 423.25,-295.5 460.01,-243.91 453.63,-222.27 482.25,-165.75 486.56,-157.24 491.65,-148.02 496.11,-140.18"/>
<polygon fill="#63b8ff" stroke="#63b8ff" points="499.13,-141.96 501.09,-131.54 493.06,-138.46 499.13,-141.96"/>
</a>
</g>
</g>
<!-- Node14&#45;&gt;Node12 -->
<g id="edge27_Node000014_Node000012" class="edge">
<title>Node14&#45;&gt;Node12</title>
<g id="a_edge27_Node000014_Node000012"><a xlink:title=" ">
<path fill="none" stroke="#63b8ff" d="M391.42,-331.1C405.36,-322.56 426.36,-309.06 443.25,-295.5 498.52,-251.12 510.73,-237.59 558.25,-185 571.64,-170.18 585.54,-152.17 595.28,-139.06"/>
<polygon fill="#63b8ff" stroke="#63b8ff" points="597.85,-141.48 600.94,-131.34 592.2,-137.34 597.85,-141.48"/>
</a>
</g>
</g>
<!-- Node15 -->
<g id="Node000015" class="node">
<title>Node15</title>
<g id="a_Node000015"><a xlink:href="integrate_8h.html" target="_top" xlink:title="Integrators for the HMC.">
<polygon fill="white" stroke="#666666" points="336.75,-295.5 275.75,-295.5 275.75,-276.25 336.75,-276.25 336.75,-295.5"/>
<text text-anchor="middle" x="306.25" y="-282" font-family="IBMPlexSans-Regular" font-size="10.00">integrate.h</text>
</a>
</g>
</g>
<!-- Node14&#45;&gt;Node15 -->
<g id="edge18_Node000014_Node000015" class="edge">
<title>Node14&#45;&gt;Node15</title>
<g id="a_edge18_Node000014_Node000015"><a xlink:title=" ">
<path fill="none" stroke="#63b8ff" d="M364.38,-331.09C354.16,-323.32 339.18,-311.92 326.99,-302.65"/>
<polygon fill="#63b8ff" stroke="#63b8ff" points="329.23,-299.96 319.15,-296.69 324.99,-305.53 329.23,-299.96"/>
</a>
</g>
</g>
<!-- Node17 -->
<g id="Node000017" class="node">
<title>Node17</title>
<g id="a_Node000017"><a xlink:title=" ">
<polygon fill="#e0e0e0" stroke="#999999" points="397.38,-295.5 355.12,-295.5 355.12,-276.25 397.38,-276.25 397.38,-295.5"/>
<text text-anchor="middle" x="376.25" y="-282" font-family="IBMPlexSans-Regular" font-size="10.00">time.h</text>
</a>
</g>
</g>
<!-- Node14&#45;&gt;Node17 -->
<g id="edge28_Node000014_Node000017" class="edge">
<title>Node14&#45;&gt;Node17</title>
<g id="a_edge28_Node000014_Node000017"><a xlink:title=" ">
<path fill="none" stroke="#63b8ff" d="M376.25,-331.33C376.25,-324.82 376.25,-315.67 376.25,-307.37"/>
<polygon fill="#63b8ff" stroke="#63b8ff" points="379.75,-307.37 376.25,-297.37 372.75,-307.37 379.75,-307.37"/>
</a>
</g>
</g>
<!-- Node15&#45;&gt;Node5 -->
<g id="edge24_Node000015_Node000005" class="edge">
<title>Node15&#45;&gt;Node5</title>
<g id="a_edge24_Node000015_Node000005"><a xlink:title=" ">
<path fill="none" stroke="#63b8ff" d="M304.93,-276.08C300.99,-250.37 288.56,-173.18 272.25,-110.5 270.1,-102.25 267.36,-93.26 264.88,-85.52"/>
<polygon fill="#63b8ff" stroke="#63b8ff" points="268.23,-84.53 261.77,-76.13 261.58,-86.72 268.23,-84.53"/>
</a>
</g>
</g>
<!-- Node15&#45;&gt;Node10 -->
<g id="edge19_Node000015_Node000010" class="edge">
<title>Node15&#45;&gt;Node10</title>
<g id="a_edge19_Node000015_Node000010"><a xlink:title=" ">
<path fill="none" stroke="#63b8ff" d="M311.52,-275.94C316.5,-267.14 323.85,-253.17 328.25,-240.25 339.79,-206.4 346.57,-165.14 349.83,-141.13"/>
<polygon fill="#63b8ff" stroke="#63b8ff" points="353.27,-141.86 351.07,-131.5 346.32,-140.97 353.27,-141.86"/>
</a>
</g>
</g>
<!-- Node15&#45;&gt;Node16 -->
<g id="edge20_Node000015_Node000016" class="edge">
<title>Node15&#45;&gt;Node16</title>
<g id="a_edge20_Node000015_Node000016"><a xlink:title=" ">
<path fill="none" stroke="#63b8ff" d="M298.32,-276.08C291.69,-268.73 282.03,-258.01 273.86,-248.94"/>
<polygon fill="#63b8ff" stroke="#63b8ff" points="276.66,-246.82 267.36,-241.73 271.46,-251.5 276.66,-246.82"/>
</a>
</g>
</g>
<!-- Node16&#45;&gt;Node4 -->
<g id="edge21_Node000016_Node000004" class="edge">
<title>Node16&#45;&gt;Node4</title>
<g id="a_edge21_Node000016_Node000004"><a xlink:title=" ">
<path fill="none" stroke="#63b8ff" d="M241.64,-220.6C215.16,-205.38 163.52,-172.07 135.25,-129.75 126.48,-116.63 121.66,-99.35 119.08,-86.08"/>
<polygon fill="#63b8ff" stroke="#63b8ff" points="122.55,-85.63 117.47,-76.34 115.64,-86.77 122.55,-85.63"/>
</a>
</g>
</g>
<!-- Node16&#45;&gt;Node5 -->
<g id="edge23_Node000016_Node000005" class="edge">
<title>Node16&#45;&gt;Node5</title>
<g id="a_edge23_Node000016_Node000005"><a xlink:title=" ">
<path fill="none" stroke="#63b8ff" d="M258.25,-220.82C258.25,-195.5 258.25,-122 258.25,-86.09"/>
<polygon fill="#63b8ff" stroke="#63b8ff" points="261.75,-86.24 258.25,-76.24 254.75,-86.24 261.75,-86.24"/>
</a>
</g>
</g>
<!-- Node16&#45;&gt;Node8 -->
<g id="edge22_Node000016_Node000008" class="edge">
<title>Node16&#45;&gt;Node8</title>
<g id="a_edge22_Node000016_Node000008"><a xlink:title=" ">
<path fill="none" stroke="#63b8ff" d="M286.54,-223.88C333.14,-214.41 426.2,-195.49 479.76,-184.6"/>
<polygon fill="#63b8ff" stroke="#63b8ff" points="480.3,-188.07 489.4,-182.65 478.9,-181.21 480.3,-188.07"/>
</a>
</g>
</g>
</g>
</svg>
