<?xml version="1.0" encoding="UTF-8" standalone="no"?>
<!DOCTYPE svg PUBLIC "-//W3C//DTD SVG 1.1//EN"
 "http://www.w3.org/Graphics/SVG/1.1/DTD/svg11.dtd">
<!-- Generated by graphviz version 11.0.0 (20240428.1522)
 -->
<!-- Title: main Pages: 1 -->
<svg width="531pt" height="553pt"
 viewBox="0.00 0.00 530.50 553.25" xmlns="http://www.w3.org/2000/svg" xmlns:xlink="http://www.w3.org/1999/xlink">
<g id="graph0" class="graph" transform="scale(1 1) rotate(0) translate(4 549.25)">
<title>main</title>
<!-- Node1 -->
<g id="Node000001" class="node">
<title>Node1</title>
<g id="a_Node000001"><a xlink:title=" ">
<polygon fill="#999999" stroke="#666666" points="37,-243.25 0,-243.25 0,-224 37,-224 37,-243.25"/>
<text text-anchor="middle" x="18.5" y="-229.75" font-family="IBMPlexSans-Regular" font-size="10.00">main</text>
</a>
</g>
</g>
<!-- Node2 -->
<g id="Node000002" class="node">
<title>Node2</title>
<g id="a_Node000002"><a xlink:href="bosonic_8c.html#a8549b8b092dcf706901258557a84f42b" target="_top" xlink:title="Calculates the gauge action using new (how new?) lookup table.">
<polygon fill="white" stroke="#666666" points="289.5,-545.25 191,-545.25 191,-526 289.5,-526 289.5,-545.25"/>
<text text-anchor="middle" x="240.25" y="-531.75" font-family="IBMPlexSans-Regular" font-size="10.00">Average_Plaquette</text>
</a>
</g>
</g>
<!-- Node1&#45;&gt;Node2 -->
<g id="edge1_Node000001_Node000002" class="edge">
<title>Node1&#45;&gt;Node2</title>
<g id="a_edge1_Node000001_Node000002"><a xlink:title=" ">
<path fill="none" stroke="#63b8ff" d="M20.11,-243.46C23.01,-286.68 36.73,-459.26 73,-496.62 100.3,-524.75 143.73,-534.22 179.36,-536.81"/>
<polygon fill="#63b8ff" stroke="#63b8ff" points="178.94,-540.3 189.11,-537.35 179.32,-533.31 178.94,-540.3"/>
</a>
</g>
</g>
<!-- Node5 -->
<g id="Node000005" class="node">
<title>Node5</title>
<g id="a_Node000005"><a xlink:href="matrices_8c.html#aba7f4f08e497d2b0b94f3e2526ca0a31" target="_top" xlink:title="Evaluates &#160;in single precision.">
<polygon fill="white" stroke="#666666" points="392.5,-329.25 333,-329.25 333,-310 392.5,-310 392.5,-329.25"/>
<text text-anchor="middle" x="362.75" y="-315.75" font-family="IBMPlexSans-Regular" font-size="10.00">Dslashd_f</text>
</a>
</g>
</g>
<!-- Node1&#45;&gt;Node5 -->
<g id="edge4_Node000001_Node000005" class="edge">
<title>Node1&#45;&gt;Node5</title>
<g id="a_edge4_Node000001_Node000005"><a xlink:title=" ">
<path fill="none" stroke="#63b8ff" d="M21.73,-243.54C26.83,-263.54 41.4,-308.35 73,-326.62 151.5,-372.03 263.19,-349.79 322,-332.82"/>
<polygon fill="#63b8ff" stroke="#63b8ff" points="322.66,-336.28 331.24,-330.06 320.66,-329.57 322.66,-336.28"/>
</a>
</g>
</g>
<!-- Node7 -->
<g id="Node000007" class="node">
<title>Node7</title>
<g id="a_Node000007"><a xlink:href="random_8c.html#a859e92fda23ce37dad2971362f72a50d" target="_top" xlink:title="Generates a vector of normally distributed random single precision complex numbers using the Box&#45;Mull...">
<polygon fill="white" stroke="#666666" points="141.5,-280.25 86.5,-280.25 86.5,-261 141.5,-261 141.5,-280.25"/>
<text text-anchor="middle" x="114" y="-266.75" font-family="IBMPlexSans-Regular" font-size="10.00">Gauss_c</text>
</a>
</g>
</g>
<!-- Node1&#45;&gt;Node7 -->
<g id="edge6_Node000001_Node000007" class="edge">
<title>Node1&#45;&gt;Node7</title>
<g id="a_edge6_Node000001_Node000007"><a xlink:title=" ">
<path fill="none" stroke="#63b8ff" d="M37.09,-240.58C48.36,-245.04 63.39,-250.99 77.11,-256.42"/>
<polygon fill="#63b8ff" stroke="#63b8ff" points="75.73,-259.64 86.32,-260.07 78.31,-253.13 75.73,-259.64"/>
</a>
</g>
</g>
<!-- Node9 -->
<g id="Node000009" class="node">
<title>Node9</title>
<g id="a_Node000009"><a xlink:href="random_8c.html#aaaabdcbfe66bb65cb57139509f6ea496" target="_top" xlink:title="Generates a vector of normally distributed random double precision numbers using the Box&#45;Muller Metho...">
<polygon fill="white" stroke="#666666" points="141.5,-317.25 86.5,-317.25 86.5,-298 141.5,-298 141.5,-317.25"/>
<text text-anchor="middle" x="114" y="-303.75" font-family="IBMPlexSans-Regular" font-size="10.00">Gauss_d</text>
</a>
</g>
</g>
<!-- Node1&#45;&gt;Node9 -->
<g id="edge8_Node000001_Node000009" class="edge">
<title>Node1&#45;&gt;Node9</title>
<g id="a_edge8_Node000001_Node000009"><a xlink:title=" ">
<path fill="none" stroke="#63b8ff" d="M26.9,-243.44C36.46,-255.58 54.12,-276.27 73,-289.62 74.32,-290.56 75.7,-291.46 77.11,-292.33"/>
<polygon fill="#63b8ff" stroke="#63b8ff" points="75.02,-295.18 85.48,-296.88 78.36,-289.03 75.02,-295.18"/>
</a>
</g>
</g>
<!-- Node10 -->
<g id="Node000010" class="node">
<title>Node10</title>
<g id="a_Node000010"><a xlink:href="su2hmc_8c.html#a73e6186c40491d6f550404b8e975adff" target="_top" xlink:title="Calculate the Hamiltonian.">
<polygon fill="white" stroke="#666666" points="141.5,-431.25 86.5,-431.25 86.5,-412 141.5,-412 141.5,-431.25"/>
<text text-anchor="middle" x="114" y="-417.75" font-family="IBMPlexSans-Regular" font-size="10.00">Hamilton</text>
</a>
</g>
</g>
<!-- Node1&#45;&gt;Node10 -->
<g id="edge10_Node000001_Node000010" class="edge">
<title>Node1&#45;&gt;Node10</title>
<g id="a_edge10_Node000001_Node000010"><a xlink:title=" ">
<path fill="none" stroke="#63b8ff" d="M23.1,-243.69C31.01,-265.41 50.97,-318.05 73,-359.62 80.89,-374.51 91.22,-390.46 99.41,-402.45"/>
<polygon fill="#63b8ff" stroke="#63b8ff" points="96.5,-404.39 105.08,-410.61 102.25,-400.4 96.5,-404.39"/>
</a>
</g>
</g>
<!-- Node16 -->
<g id="Node000016" class="node">
<title>Node16</title>
<g id="a_Node000016"><a xlink:href="su2hmc_8c.html#a1fbc1cb0a07d63c39d8cff966a534d09" target="_top" xlink:title="Initialises the system.">
<polygon fill="white" stroke="#666666" points="128.75,-243.25 99.25,-243.25 99.25,-224 128.75,-224 128.75,-243.25"/>
<text text-anchor="middle" x="114" y="-229.75" font-family="IBMPlexSans-Regular" font-size="10.00">Init</text>
</a>
</g>
</g>
<!-- Node1&#45;&gt;Node16 -->
<g id="edge21_Node000001_Node000016" class="edge">
<title>Node1&#45;&gt;Node16</title>
<g id="a_edge21_Node000001_Node000016"><a xlink:title=" ">
<path fill="none" stroke="#63b8ff" d="M37.09,-233.62C51.33,-233.62 71.6,-233.62 87.61,-233.62"/>
<polygon fill="#63b8ff" stroke="#63b8ff" points="87.34,-237.13 97.34,-233.63 87.34,-230.13 87.34,-237.13"/>
</a>
</g>
</g>
<!-- Node25 -->
<g id="Node000025" class="node">
<title>Node25</title>
<g id="a_Node000025"><a xlink:href="matrices_8c.html#a998120d21faa6bf801710ae86f3d918b" target="_top" xlink:title="Reunitarises u11t and u12t as in conj(u11t[i])*u11t[i]+conj(u12t[i])*u12t[i]=1.">
<polygon fill="white" stroke="#666666" points="272.62,-95.25 207.88,-95.25 207.88,-76 272.62,-76 272.62,-95.25"/>
<text text-anchor="middle" x="240.25" y="-81.75" font-family="IBMPlexSans-Regular" font-size="10.00">Reunitarise</text>
</a>
</g>
</g>
<!-- Node1&#45;&gt;Node25 -->
<g id="edge37_Node000001_Node000025" class="edge">
<title>Node1&#45;&gt;Node25</title>
<g id="a_edge37_Node000001_Node000025"><a xlink:title=" ">
<path fill="none" stroke="#63b8ff" d="M37.37,-226.91C72.06,-213.76 145.94,-185.15 155,-176.62 181.33,-151.82 164.16,-127.88 191,-103.62 192.99,-101.83 195.17,-100.21 197.47,-98.74"/>
<polygon fill="#63b8ff" stroke="#63b8ff" points="198.84,-101.98 206.11,-94.27 195.62,-95.76 198.84,-101.98"/>
</a>
</g>
</g>
<!-- Node26 -->
<g id="Node000026" class="node">
<title>Node26</title>
<g id="a_Node000026"><a xlink:href="par__mpi_8c.html#a6f500abd59b184cac1dbcf47b04c185a" target="_top" xlink:title="Initialises the MPI configuration.">
<polygon fill="white" stroke="#666666" points="143.75,-167.25 84.25,-167.25 84.25,-148 143.75,-148 143.75,-167.25"/>
<text text-anchor="middle" x="114" y="-153.75" font-family="IBMPlexSans-Regular" font-size="10.00">Par_begin</text>
</a>
</g>
</g>
<!-- Node1&#45;&gt;Node26 -->
<g id="edge32_Node000001_Node000026" class="edge">
<title>Node1&#45;&gt;Node26</title>
<g id="a_edge32_Node000001_Node000026"><a xlink:title=" ">
<path fill="none" stroke="#63b8ff" d="M28.37,-223.72C38.52,-212.71 55.96,-194.74 73,-181.62 76.65,-178.82 80.65,-176.07 84.67,-173.5"/>
<polygon fill="#63b8ff" stroke="#63b8ff" points="86.48,-176.5 93.21,-168.31 82.84,-170.51 86.48,-176.5"/>
</a>
</g>
</g>
<!-- Node27 -->
<g id="Node000027" class="node">
<title>Node27</title>
<g id="a_Node000027"><a xlink:href="par__mpi_8h.html#a31e5f4f36c6e583903e8dd06dbf76fc6" target="_top" xlink:title="Broadcasts a float to the other processes.">
<polygon fill="white" stroke="#666666" points="143.75,-130.25 84.25,-130.25 84.25,-111 143.75,-111 143.75,-130.25"/>
<text text-anchor="middle" x="114" y="-116.75" font-family="IBMPlexSans-Regular" font-size="10.00">Par_fcopy</text>
</a>
</g>
</g>
<!-- Node1&#45;&gt;Node27 -->
<g id="edge33_Node000001_Node000027" class="edge">
<title>Node1&#45;&gt;Node27</title>
<g id="a_edge33_Node000001_Node000027"><a xlink:title=" ">
<path fill="none" stroke="#63b8ff" d="M22.73,-223.67C29.32,-204.75 46.03,-163.27 73,-138.62 73.63,-138.05 74.29,-137.49 74.96,-136.94"/>
<polygon fill="#63b8ff" stroke="#63b8ff" points="76.77,-139.93 83.23,-131.53 72.94,-134.08 76.77,-139.93"/>
</a>
</g>
</g>
<!-- Node28 -->
<g id="Node000028" class="node">
<title>Node28</title>
<g id="a_Node000028"><a xlink:href="par__mpi_8h.html#a82049c8a7fcf726d3b222e4fedf6f674" target="_top" xlink:title="Broadcasts an integer to the other processes.">
<polygon fill="white" stroke="#666666" points="143.38,-93.25 84.62,-93.25 84.62,-74 143.38,-74 143.38,-93.25"/>
<text text-anchor="middle" x="114" y="-79.75" font-family="IBMPlexSans-Regular" font-size="10.00">Par_icopy</text>
</a>
</g>
</g>
<!-- Node1&#45;&gt;Node28 -->
<g id="edge34_Node000001_Node000028" class="edge">
<title>Node1&#45;&gt;Node28</title>
<g id="a_edge34_Node000001_Node000028"><a xlink:title=" ">
<path fill="none" stroke="#63b8ff" d="M20.95,-223.64C24.94,-199.6 38.18,-137.78 73,-101.62 73.59,-101.01 74.21,-100.41 74.85,-99.83"/>
<polygon fill="#63b8ff" stroke="#63b8ff" points="76.71,-102.8 82.9,-94.2 72.7,-97.07 76.71,-102.8"/>
</a>
</g>
</g>
<!-- Node29 -->
<g id="Node000029" class="node">
<title>Node29</title>
<g id="a_Node000029"><a xlink:href="bosonic_8c.html#abc8424ac85b82a4f8f1e067be367680f" target="_top" xlink:title="Calculate the Polyakov loop (no prizes for guessing that one...)">
<polygon fill="white" stroke="#666666" points="141.88,-487.25 86.12,-487.25 86.12,-468 141.88,-468 141.88,-487.25"/>
<text text-anchor="middle" x="114" y="-473.75" font-family="IBMPlexSans-Regular" font-size="10.00">Polyakov</text>
</a>
</g>
</g>
<!-- Node1&#45;&gt;Node29 -->
<g id="edge35_Node000001_Node000029" class="edge">
<title>Node1&#45;&gt;Node29</title>
<g id="a_edge35_Node000001_Node000029"><a xlink:title=" ">
<path fill="none" stroke="#63b8ff" d="M20.09,-243.44C22.34,-274.52 32.44,-372.76 73,-440.62 77.4,-447.99 83.71,-454.79 90.02,-460.49"/>
<polygon fill="#63b8ff" stroke="#63b8ff" points="87.37,-462.83 97.28,-466.57 91.86,-457.46 87.37,-462.83"/>
</a>
</g>
</g>
<!-- Node30 -->
<g id="Node000030" class="node">
<title>Node30</title>
<g id="a_Node000030"><a xlink:href="par__mpi_8c.html#aa988b87ed44e79f217a03e824c9d484e" target="_top" xlink:title="Exchanges the trial fields.">
<polygon fill="white" stroke="#666666" points="155,-56.25 73,-56.25 73,-37 155,-37 155,-56.25"/>
<text text-anchor="middle" x="114" y="-42.75" font-family="IBMPlexSans-Regular" font-size="10.00">Trial_Exchange</text>
</a>
</g>
</g>
<!-- Node1&#45;&gt;Node30 -->
<g id="edge38_Node000001_Node000030" class="edge">
<title>Node1&#45;&gt;Node30</title>
<g id="a_edge38_Node000001_Node000030"><a xlink:title=" ">
<path fill="none" stroke="#63b8ff" d="M19.9,-223.89C21.56,-195.7 30.03,-112.9 73,-64.62 73.35,-64.23 73.72,-63.84 74.09,-63.46"/>
<polygon fill="#63b8ff" stroke="#63b8ff" points="76.07,-66.35 81.89,-57.5 71.82,-60.79 76.07,-66.35"/>
</a>
</g>
</g>
<!-- Node32 -->
<g id="Node000032" class="node">
<title>Node32</title>
<g id="a_Node000032"><a xlink:href="su2hmc_8c.html#aab2288cdd3101c094e7aa66caa552b9d" target="_top" xlink:title=" ">
<polygon fill="white" stroke="#666666" points="149.75,-19.25 78.25,-19.25 78.25,0 149.75,0 149.75,-19.25"/>
<text text-anchor="middle" x="114" y="-5.75" font-family="IBMPlexSans-Regular" font-size="10.00">UpDownPart</text>
</a>
</g>
</g>
<!-- Node1&#45;&gt;Node32 -->
<g id="edge40_Node000001_Node000032" class="edge">
<title>Node1&#45;&gt;Node32</title>
<g id="a_edge40_Node000001_Node000032"><a xlink:title=" ">
<path fill="none" stroke="#63b8ff" d="M19.23,-223.69C18.88,-191.4 22,-88.05 73,-27.62 73.25,-27.33 73.5,-27.04 73.76,-26.75"/>
<polygon fill="#63b8ff" stroke="#63b8ff" points="75.77,-29.64 81.36,-20.64 71.38,-24.18 75.77,-29.64"/>
</a>
</g>
</g>
<!-- Node3 -->
<g id="Node000003" class="node">
<title>Node3</title>
<g id="a_Node000003"><a xlink:href="par__mpi_8h.html#aecfe9840e5f8dfd693b813b750d81a0c" target="_top" xlink:title="Performs a reduction on a double dval to get a sum which is then distributed to all ranks.">
<polygon fill="white" stroke="#666666" points="392.88,-487.25 332.62,-487.25 332.62,-468 392.88,-468 392.88,-487.25"/>
<text text-anchor="middle" x="362.75" y="-473.75" font-family="IBMPlexSans-Regular" font-size="10.00">Par_dsum</text>
</a>
</g>
</g>
<!-- Node2&#45;&gt;Node3 -->
<g id="edge2_Node000002_Node000003" class="edge">
<title>Node2&#45;&gt;Node3</title>
<g id="a_edge2_Node000002_Node000003"><a xlink:title=" ">
<path fill="none" stroke="#63b8ff" d="M262.24,-525.52C281.16,-516.42 309.23,-502.9 330.74,-492.55"/>
<polygon fill="#63b8ff" stroke="#63b8ff" points="332.14,-495.76 339.64,-488.27 329.11,-489.45 332.14,-495.76"/>
</a>
</g>
</g>
<!-- Node4 -->
<g id="Node000004" class="node">
<title>Node4</title>
<g id="a_Node000004"><a xlink:href="bosonic_8c.html#a96417aed91b2527e56ed421753760414" target="_top" xlink:title="Calculates the plaquette at site i in the &#160;direction.">
<polygon fill="white" stroke="#666666" points="389.5,-545.25 336,-545.25 336,-526 389.5,-526 389.5,-545.25"/>
<text text-anchor="middle" x="362.75" y="-531.75" font-family="IBMPlexSans-Regular" font-size="10.00">SU2plaq</text>
</a>
</g>
</g>
<!-- Node2&#45;&gt;Node4 -->
<g id="edge3_Node000002_Node000004" class="edge">
<title>Node2&#45;&gt;Node4</title>
<g id="a_edge3_Node000002_Node000004"><a xlink:title=" ">
<path fill="none" stroke="#63b8ff" d="M289.91,-535.62C301.43,-535.62 313.53,-535.62 324.44,-535.62"/>
<polygon fill="#63b8ff" stroke="#63b8ff" points="324.23,-539.13 334.23,-535.63 324.23,-532.13 324.23,-539.13"/>
</a>
</g>
</g>
<!-- Node6 -->
<g id="Node000006" class="node">
<title>Node6</title>
<g id="a_Node000006"><a xlink:href="par__mpi_8h.html#a14b1a550ef4f44a9e4d7dd06c9427993" target="_top" xlink:title="Calls the functions to send data to both the up and down halos.">
<polygon fill="white" stroke="#666666" points="522.5,-366.25 436,-366.25 436,-347 522.5,-347 522.5,-366.25"/>
<text text-anchor="middle" x="479.25" y="-352.75" font-family="IBMPlexSans-Regular" font-size="10.00">CHalo_swap_all</text>
</a>
</g>
</g>
<!-- Node5&#45;&gt;Node6 -->
<g id="edge5_Node000005_Node000006" class="edge">
<title>Node5&#45;&gt;Node6</title>
<g id="a_edge5_Node000005_Node000006"><a xlink:title=" ">
<path fill="none" stroke="#63b8ff" d="M392.94,-329.06C406.14,-333.32 421.98,-338.44 436.41,-343.11"/>
<polygon fill="#63b8ff" stroke="#63b8ff" points="435.08,-346.35 445.67,-346.1 437.23,-339.69 435.08,-346.35"/>
</a>
</g>
</g>
<!-- Node8 -->
<g id="Node000008" class="node">
<title>Node8</title>
<g id="a_Node000008"><a xlink:href="random_8c.html#afba975c2629ded7c68cb21cfbeb4b496" target="_top" xlink:title="Generates uniformly distributed random double between zero and one as described in numerical recipes....">
<polygon fill="white" stroke="#666666" points="257.62,-317.25 222.88,-317.25 222.88,-298 257.62,-298 257.62,-317.25"/>
<text text-anchor="middle" x="240.25" y="-303.75" font-family="IBMPlexSans-Regular" font-size="10.00">ran2</text>
</a>
</g>
</g>
<!-- Node7&#45;&gt;Node8 -->
<g id="edge7_Node000007_Node000008" class="edge">
<title>Node7&#45;&gt;Node8</title>
<g id="a_edge7_Node000007_Node000008"><a xlink:title=" ">
<path fill="none" stroke="#63b8ff" d="M141.96,-278.65C162.58,-284.79 190.91,-293.23 211.68,-299.41"/>
<polygon fill="#63b8ff" stroke="#63b8ff" points="210.6,-302.74 221.18,-302.24 212.59,-296.04 210.6,-302.74"/>
</a>
</g>
</g>
<!-- Node9&#45;&gt;Node8 -->
<g id="edge9_Node000009_Node000008" class="edge">
<title>Node9&#45;&gt;Node8</title>
<g id="a_edge9_Node000009_Node000008"><a xlink:title=" ">
<path fill="none" stroke="#63b8ff" d="M141.96,-307.62C162.48,-307.62 190.64,-307.62 211.39,-307.62"/>
<polygon fill="#63b8ff" stroke="#63b8ff" points="211.12,-311.13 221.12,-307.63 211.12,-304.13 211.12,-311.13"/>
</a>
</g>
</g>
<!-- Node10&#45;&gt;Node2 -->
<g id="edge11_Node000010_Node000002" class="edge">
<title>Node10&#45;&gt;Node2</title>
<g id="a_edge11_Node000010_Node000002"><a xlink:title=" ">
<path fill="none" stroke="#63b8ff" d="M126.03,-431.74C147.17,-451.14 193.66,-493.79 220.02,-517.98"/>
<polygon fill="#63b8ff" stroke="#63b8ff" points="217.58,-520.49 227.31,-524.67 222.31,-515.33 217.58,-520.49"/>
</a>
</g>
</g>
<!-- Node10&#45;&gt;Node3 -->
<g id="edge20_Node000010_Node000003" class="edge">
<title>Node10&#45;&gt;Node3</title>
<g id="a_edge20_Node000010_Node000003"><a xlink:title=" ">
<path fill="none" stroke="#63b8ff" d="M141.91,-421.55C176.7,-422.12 238.85,-425.46 289.5,-440.62 306.07,-445.58 323.35,-454.29 336.86,-462.01"/>
<polygon fill="#63b8ff" stroke="#63b8ff" points="334.69,-464.8 345.08,-466.88 338.26,-458.77 334.69,-464.8"/>
</a>
</g>
</g>
<!-- Node11 -->
<g id="Node000011" class="node">
<title>Node11</title>
<g id="a_Node000011"><a xlink:href="congrad_8c.html#aa32f0774e38a36310209b44a2abae8e6" target="_top" xlink:title="Matrix Inversion via Conjugate Gradient (up/down flavour partitioning). Solves &#160;Implements up/down pa...">
<polygon fill="white" stroke="#666666" points="268.88,-393.25 211.62,-393.25 211.62,-374 268.88,-374 268.88,-393.25"/>
<text text-anchor="middle" x="240.25" y="-379.75" font-family="IBMPlexSans-Regular" font-size="10.00">Congradq</text>
</a>
</g>
</g>
<!-- Node10&#45;&gt;Node11 -->
<g id="edge12_Node000010_Node000011" class="edge">
<title>Node10&#45;&gt;Node11</title>
<g id="a_edge12_Node000010_Node000011"><a xlink:title=" ">
<path fill="none" stroke="#63b8ff" d="M141.96,-413.38C159.14,-408.12 181.68,-401.23 200.73,-395.41"/>
<polygon fill="#63b8ff" stroke="#63b8ff" points="201.5,-398.83 210.03,-392.56 199.45,-392.14 201.5,-398.83"/>
</a>
</g>
</g>
<!-- Node15 -->
<g id="Node000015" class="node">
<title>Node15</title>
<g id="a_Node000015"><a xlink:href="su2hmc_8c.html#ad4816b4c3599a65d212f34e10c83055f" target="_top" xlink:title=" ">
<polygon fill="white" stroke="#666666" points="279.38,-469.25 201.12,-469.25 201.12,-450 279.38,-450 279.38,-469.25"/>
<text text-anchor="middle" x="240.25" y="-455.75" font-family="IBMPlexSans-Regular" font-size="10.00">Fill_Small_Phi</text>
</a>
</g>
</g>
<!-- Node10&#45;&gt;Node15 -->
<g id="edge19_Node000010_Node000015" class="edge">
<title>Node10&#45;&gt;Node15</title>
<g id="a_edge19_Node000010_Node000015"><a xlink:title=" ">
<path fill="none" stroke="#63b8ff" d="M141.96,-429.87C157.49,-434.62 177.39,-440.71 195.15,-446.14"/>
<polygon fill="#63b8ff" stroke="#63b8ff" points="194.11,-449.48 204.7,-449.06 196.16,-442.79 194.11,-449.48"/>
</a>
</g>
</g>
<!-- Node11&#45;&gt;Node3 -->
<g id="edge17_Node000011_Node000003" class="edge">
<title>Node11&#45;&gt;Node3</title>
<g id="a_edge17_Node000011_Node000003"><a xlink:title=" ">
<path fill="none" stroke="#63b8ff" d="M265.93,-393.56C273.86,-397.35 282.41,-402.1 289.5,-407.62 308.89,-422.74 307.68,-432.69 325.5,-449.62 329.54,-453.46 334.08,-457.3 338.55,-460.84"/>
<polygon fill="#63b8ff" stroke="#63b8ff" points="336.16,-463.42 346.23,-466.7 340.41,-457.86 336.16,-463.42"/>
</a>
</g>
</g>
<!-- Node12 -->
<g id="Node000012" class="node">
<title>Node12</title>
<g id="a_Node000012"><a xlink:href="matrices_8c.html#a17eb50d07c881fc5d1585ddf14aa1ff0" target="_top" xlink:title="Evaluates &#160;in single precision.">
<polygon fill="white" stroke="#666666" points="392.88,-366.25 332.62,-366.25 332.62,-347 392.88,-347 392.88,-366.25"/>
<text text-anchor="middle" x="362.75" y="-352.75" font-family="IBMPlexSans-Regular" font-size="10.00">Hdslash_f</text>
</a>
</g>
</g>
<!-- Node11&#45;&gt;Node12 -->
<g id="edge13_Node000011_Node000012" class="edge">
<title>Node11&#45;&gt;Node12</title>
<g id="a_edge13_Node000011_Node000012"><a xlink:title=" ">
<path fill="none" stroke="#63b8ff" d="M269.2,-377.36C284.71,-373.89 304.28,-369.5 321.42,-365.66"/>
<polygon fill="#63b8ff" stroke="#63b8ff" points="321.8,-369.16 330.8,-363.56 320.27,-362.33 321.8,-369.16"/>
</a>
</g>
</g>
<!-- Node13 -->
<g id="Node000013" class="node">
<title>Node13</title>
<g id="a_Node000013"><a xlink:href="matrices_8c.html#a87e3179e3c6947eacfa74ada59aaeb0c" target="_top" xlink:title="Evaluates &#160;in single precision.">
<polygon fill="white" stroke="#666666" points="395.5,-440.25 330,-440.25 330,-421 395.5,-421 395.5,-440.25"/>
<text text-anchor="middle" x="362.75" y="-426.75" font-family="IBMPlexSans-Regular" font-size="10.00">Hdslashd_f</text>
</a>
</g>
</g>
<!-- Node11&#45;&gt;Node13 -->
<g id="edge15_Node000011_Node000013" class="edge">
<title>Node11&#45;&gt;Node13</title>
<g id="a_edge15_Node000011_Node000013"><a xlink:title=" ">
<path fill="none" stroke="#63b8ff" d="M267.1,-393.71C284.1,-400.34 306.58,-409.11 325.38,-416.44"/>
<polygon fill="#63b8ff" stroke="#63b8ff" points="323.94,-419.64 334.53,-420.01 326.49,-413.11 323.94,-419.64"/>
</a>
</g>
</g>
<!-- Node14 -->
<g id="Node000014" class="node">
<title>Node14</title>
<g id="a_Node000014"><a xlink:href="par__mpi_8h.html#a4e2e85b06c5b05c5181729cc5ebdd05b" target="_top" xlink:title="Performs a reduction on a float dval to get a sum which is then distributed to all ranks.">
<polygon fill="white" stroke="#666666" points="391.75,-403.25 333.75,-403.25 333.75,-384 391.75,-384 391.75,-403.25"/>
<text text-anchor="middle" x="362.75" y="-389.75" font-family="IBMPlexSans-Regular" font-size="10.00">Par_fsum</text>
</a>
</g>
</g>
<!-- Node11&#45;&gt;Node14 -->
<g id="edge18_Node000011_Node000014" class="edge">
<title>Node11&#45;&gt;Node14</title>
<g id="a_edge18_Node000011_Node000014"><a xlink:title=" ">
<path fill="none" stroke="#63b8ff" d="M269.2,-385.94C285.05,-387.26 305.15,-388.93 322.55,-390.37"/>
<polygon fill="#63b8ff" stroke="#63b8ff" points="321.77,-393.82 332.03,-391.16 322.35,-386.84 321.77,-393.82"/>
</a>
</g>
</g>
<!-- Node12&#45;&gt;Node6 -->
<g id="edge14_Node000012_Node000006" class="edge">
<title>Node12&#45;&gt;Node6</title>
<g id="a_edge14_Node000012_Node000006"><a xlink:title=" ">
<path fill="none" stroke="#63b8ff" d="M393.24,-356.62C402.77,-356.62 413.67,-356.62 424.4,-356.62"/>
<polygon fill="#63b8ff" stroke="#63b8ff" points="424.4,-360.13 434.4,-356.63 424.4,-353.13 424.4,-360.13"/>
</a>
</g>
</g>
<!-- Node13&#45;&gt;Node6 -->
<g id="edge16_Node000013_Node000006" class="edge">
<title>Node13&#45;&gt;Node6</title>
<g id="a_edge16_Node000013_Node000006"><a xlink:title=" ">
<path fill="none" stroke="#63b8ff" d="M385.52,-420.52C390.37,-418.08 395.42,-415.38 400,-412.62 420.04,-400.58 441.56,-384.97 456.94,-373.29"/>
<polygon fill="#63b8ff" stroke="#63b8ff" points="458.67,-376.38 464.46,-367.52 454.4,-370.83 458.67,-376.38"/>
</a>
</g>
</g>
<!-- Node16&#45;&gt;Node8 -->
<g id="edge30_Node000016_Node000008" class="edge">
<title>Node16&#45;&gt;Node8</title>
<g id="a_edge30_Node000016_Node000008"><a xlink:title=" ">
<path fill="none" stroke="#63b8ff" d="M129.04,-238.39C137.05,-241.48 147.05,-245.98 155,-251.62 173.97,-265.1 171.6,-276.78 191,-289.62 197.36,-293.84 204.84,-297.24 211.99,-299.9"/>
<polygon fill="#63b8ff" stroke="#63b8ff" points="210.7,-303.17 221.3,-303.02 212.92,-296.53 210.7,-303.17"/>
</a>
</g>
</g>
<!-- Node17 -->
<g id="Node000017" class="node">
<title>Node17</title>
<g id="a_Node000017"><a xlink:href="coord_8c.html#a460e6b3f5574cd514a0c73b9cf6fc124" target="_top" xlink:title="Loads the addresses required during the update.">
<polygon fill="white" stroke="#666666" points="261,-243.25 219.5,-243.25 219.5,-224 261,-224 261,-243.25"/>
<text text-anchor="middle" x="240.25" y="-229.75" font-family="IBMPlexSans-Regular" font-size="10.00">Addrc</text>
</a>
</g>
</g>
<!-- Node16&#45;&gt;Node17 -->
<g id="edge22_Node000016_Node000017" class="edge">
<title>Node16&#45;&gt;Node17</title>
<g id="a_edge22_Node000016_Node000017"><a xlink:title=" ">
<path fill="none" stroke="#63b8ff" d="M128.77,-233.62C147.75,-233.62 182.5,-233.62 207.97,-233.62"/>
<polygon fill="#63b8ff" stroke="#63b8ff" points="207.76,-237.13 217.76,-233.63 207.76,-230.13 207.76,-237.13"/>
</a>
</g>
</g>
<!-- Node19 -->
<g id="Node000019" class="node">
<title>Node19</title>
<g id="a_Node000019"><a xlink:href="coord_8c.html#a3b2eb1dbecc1a6aebeb7e43dec42a859" target="_top" xlink:title=" ">
<polygon fill="white" stroke="#666666" points="274.12,-206.25 206.38,-206.25 206.38,-187 274.12,-187 274.12,-206.25"/>
<text text-anchor="middle" x="240.25" y="-192.75" font-family="IBMPlexSans-Regular" font-size="10.00">Check_addr</text>
</a>
</g>
</g>
<!-- Node16&#45;&gt;Node19 -->
<g id="edge24_Node000016_Node000019" class="edge">
<title>Node16&#45;&gt;Node19</title>
<g id="a_edge24_Node000016_Node000019"><a xlink:title=" ">
<path fill="none" stroke="#63b8ff" d="M128.77,-229.52C144.75,-224.76 171.91,-216.68 195.3,-209.71"/>
<polygon fill="#63b8ff" stroke="#63b8ff" points="196.03,-213.15 204.61,-206.94 194.03,-206.44 196.03,-213.15"/>
</a>
</g>
</g>
<!-- Node20 -->
<g id="Node000020" class="node">
<title>Node20</title>
<g id="a_Node000020"><a xlink:href="par__mpi_8h.html#adf20d64741e5d091b74c19a5fa066efb" target="_top" xlink:title="Swaps the halos along the axis given by idir in the direction given by layer.">
<polygon fill="white" stroke="#666666" points="283.88,-169.25 196.62,-169.25 196.62,-150 283.88,-150 283.88,-169.25"/>
<text text-anchor="middle" x="240.25" y="-155.75" font-family="IBMPlexSans-Regular" font-size="10.00">DHalo_swap_dir</text>
</a>
</g>
</g>
<!-- Node16&#45;&gt;Node20 -->
<g id="edge25_Node000016_Node000020" class="edge">
<title>Node16&#45;&gt;Node20</title>
<g id="a_edge25_Node000016_Node000020"><a xlink:title=" ">
<path fill="none" stroke="#63b8ff" d="M129.11,-226.02C136.96,-221.57 146.78,-215.67 155,-209.62 172.25,-196.95 172.66,-188.67 191,-177.62 192.87,-176.5 194.82,-175.43 196.81,-174.41"/>
<polygon fill="#63b8ff" stroke="#63b8ff" points="198.05,-177.69 205.69,-170.36 195.14,-171.32 198.05,-177.69"/>
</a>
</g>
</g>
<!-- Node21 -->
<g id="Node000021" class="node">
<title>Node21</title>
<g id="a_Node000021"><a xlink:href="random_8c.html#ac776a562469ba6266eb4f7ab2050b32a" target="_top" xlink:title="Uses the rank to get a new seed. Copying from the FORTRAN description here c create new seeds in rang...">
<polygon fill="white" stroke="#666666" points="271.88,-132.25 208.62,-132.25 208.62,-113 271.88,-113 271.88,-132.25"/>
<text text-anchor="middle" x="240.25" y="-118.75" font-family="IBMPlexSans-Regular" font-size="10.00">Par_ranset</text>
</a>
</g>
</g>
<!-- Node16&#45;&gt;Node21 -->
<g id="edge26_Node000016_Node000021" class="edge">
<title>Node16&#45;&gt;Node21</title>
<g id="a_edge26_Node000016_Node000021"><a xlink:title=" ">
<path fill="none" stroke="#63b8ff" d="M128.9,-227.66C137.26,-223.54 147.67,-217.41 155,-209.62 178.72,-184.45 165.07,-163.52 191,-140.62 193.17,-138.71 195.56,-136.99 198.09,-135.45"/>
<polygon fill="#63b8ff" stroke="#63b8ff" points="199.56,-138.63 206.93,-131.02 196.42,-132.37 199.56,-138.63"/>
</a>
</g>
</g>
<!-- Node23 -->
<g id="Node000023" class="node">
<title>Node23</title>
<g id="a_Node000023"><a xlink:href="par__mpi_8c.html#a605623b5fff3d5970f2965e0d140b171" target="_top" xlink:title="Reads and assigns the gauges from file.">
<polygon fill="white" stroke="#666666" points="270.38,-280.25 210.12,-280.25 210.12,-261 270.38,-261 270.38,-280.25"/>
<text text-anchor="middle" x="240.25" y="-266.75" font-family="IBMPlexSans-Regular" font-size="10.00">Par_sread</text>
</a>
</g>
</g>
<!-- Node16&#45;&gt;Node23 -->
<g id="edge28_Node000016_Node000023" class="edge">
<title>Node16&#45;&gt;Node23</title>
<g id="a_edge28_Node000016_Node000023"><a xlink:title=" ">
<path fill="none" stroke="#63b8ff" d="M128.77,-237.73C145.52,-242.71 174.53,-251.35 198.62,-258.53"/>
<polygon fill="#63b8ff" stroke="#63b8ff" points="197.59,-261.87 208.18,-261.37 199.59,-255.16 197.59,-261.87"/>
</a>
</g>
</g>
<!-- Node16&#45;&gt;Node25 -->
<g id="edge31_Node000016_Node000025" class="edge">
<title>Node16&#45;&gt;Node25</title>
<g id="a_edge31_Node000016_Node000025"><a xlink:title=" ">
<path fill="none" stroke="#63b8ff" d="M128.95,-228.22C137.55,-224.25 148.19,-218.07 155,-209.62 186.24,-170.9 156.34,-139.32 191,-103.62 192.92,-101.65 195.07,-99.89 197.38,-98.32"/>
<polygon fill="#63b8ff" stroke="#63b8ff" points="199.01,-101.42 206.17,-93.61 195.7,-95.25 199.01,-101.42"/>
</a>
</g>
</g>
<!-- Node18 -->
<g id="Node000018" class="node">
<title>Node18</title>
<g id="a_Node000018"><a xlink:href="coord_8c.html#a48a7c6d65b938e96e9fb363cdda2798b" target="_top" xlink:title="Described as a 21st Century address calculator, it gets the memory address of an array entry.">
<polygon fill="white" stroke="#666666" points="377.15,-243.25 348.35,-243.25 348.35,-224 377.15,-224 377.15,-243.25"/>
<text text-anchor="middle" x="362.75" y="-229.75" font-family="IBMPlexSans-Regular" font-size="10.00">ia</text>
</a>
</g>
</g>
<!-- Node17&#45;&gt;Node18 -->
<g id="edge23_Node000017_Node000018" class="edge">
<title>Node17&#45;&gt;Node18</title>
<g id="a_edge23_Node000017_Node000018"><a xlink:title=" ">
<path fill="none" stroke="#63b8ff" d="M261.42,-233.62C282.11,-233.62 314.34,-233.62 336.66,-233.62"/>
<polygon fill="#63b8ff" stroke="#63b8ff" points="336.4,-237.13 346.4,-233.63 336.4,-230.13 336.4,-237.13"/>
</a>
</g>
</g>
<!-- Node22 -->
<g id="Node000022" class="node">
<title>Node22</title>
<g id="a_Node000022"><a xlink:href="random_8c.html#a307bf51d68dba98763c1339095b11a12" target="_top" xlink:title="Dummy seed the ran2 generator.">
<polygon fill="white" stroke="#666666" points="384.25,-132.25 341.25,-132.25 341.25,-113 384.25,-113 384.25,-132.25"/>
<text text-anchor="middle" x="362.75" y="-118.75" font-family="IBMPlexSans-Regular" font-size="10.00">ranset</text>
</a>
</g>
</g>
<!-- Node21&#45;&gt;Node22 -->
<g id="edge27_Node000021_Node000022" class="edge">
<title>Node21&#45;&gt;Node22</title>
<g id="a_edge27_Node000021_Node000022"><a xlink:title=" ">
<path fill="none" stroke="#63b8ff" d="M272.28,-122.62C289.93,-122.62 311.99,-122.62 329.79,-122.62"/>
<polygon fill="#63b8ff" stroke="#63b8ff" points="329.54,-126.13 339.54,-122.63 329.54,-119.13 329.54,-126.13"/>
</a>
</g>
</g>
<!-- Node24 -->
<g id="Node000024" class="node">
<title>Node24</title>
<g id="a_Node000024"><a xlink:href="coord_8c.html#a1dcdfd7cd0256b5cf00f97af96d695d4" target="_top" xlink:title="Converts the coordinates of a global lattice point to its index in the computer memory.">
<polygon fill="white" stroke="#666666" points="400,-280.25 325.5,-280.25 325.5,-261 400,-261 400,-280.25"/>
<text text-anchor="middle" x="362.75" y="-266.75" font-family="IBMPlexSans-Regular" font-size="10.00">Coord2gindex</text>
</a>
</g>
</g>
<!-- Node23&#45;&gt;Node24 -->
<g id="edge29_Node000023_Node000024" class="edge">
<title>Node23&#45;&gt;Node24</title>
<g id="a_edge29_Node000023_Node000024"><a xlink:title=" ">
<path fill="none" stroke="#63b8ff" d="M270.73,-270.62C283.7,-270.62 299.28,-270.62 313.85,-270.62"/>
<polygon fill="#63b8ff" stroke="#63b8ff" points="313.74,-274.13 323.74,-270.63 313.74,-267.13 313.74,-274.13"/>
</a>
</g>
</g>
<!-- Node29&#45;&gt;Node3 -->
<g id="edge36_Node000029_Node000003" class="edge">
<title>Node29&#45;&gt;Node3</title>
<g id="a_edge36_Node000029_Node000003"><a xlink:title=" ">
<path fill="none" stroke="#63b8ff" d="M142.08,-478.07C156.59,-478.28 174.77,-478.52 191,-478.62 234.78,-478.91 245.72,-478.93 289.5,-478.62 299.71,-478.55 310.73,-478.43 321.01,-478.29"/>
<polygon fill="#63b8ff" stroke="#63b8ff" points="320.76,-481.79 330.71,-478.15 320.66,-474.79 320.76,-481.79"/>
</a>
</g>
</g>
<!-- Node31 -->
<g id="Node000031" class="node">
<title>Node31</title>
<g id="a_Node000031"><a xlink:href="par__mpi_8h.html#a35d208a5a65e71101e71d3f0248aef03" target="_top" xlink:title="Calls the functions to send data to both the up and down halos.">
<polygon fill="white" stroke="#666666" points="283.12,-56.25 197.38,-56.25 197.38,-37 283.12,-37 283.12,-56.25"/>
<text text-anchor="middle" x="240.25" y="-42.75" font-family="IBMPlexSans-Regular" font-size="10.00">ZHalo_swap_all</text>
</a>
</g>
</g>
<!-- Node30&#45;&gt;Node31 -->
<g id="edge39_Node000030_Node000031" class="edge">
<title>Node30&#45;&gt;Node31</title>
<g id="a_edge39_Node000030_Node000031"><a xlink:title=" ">
<path fill="none" stroke="#63b8ff" d="M155.34,-46.62C165.02,-46.62 175.51,-46.62 185.68,-46.62"/>
<polygon fill="#63b8ff" stroke="#63b8ff" points="185.46,-50.13 195.46,-46.63 185.46,-43.13 185.46,-50.13"/>
</a>
</g>
</g>
</g>
</svg>
