<?xml version="1.0" encoding="UTF-8" standalone="no"?>
<!DOCTYPE svg PUBLIC "-//W3C//DTD SVG 1.1//EN"
 "http://www.w3.org/Graphics/SVG/1.1/DTD/svg11.dtd">
<!-- Generated by graphviz version 12.1.2 (20240928.0832)
 -->
<!-- Title: main Pages: 1 -->
<svg width="531pt" height="516pt"
 viewBox="0.00 0.00 530.50 516.25" xmlns="http://www.w3.org/2000/svg" xmlns:xlink="http://www.w3.org/1999/xlink">
<g id="graph0" class="graph" transform="scale(1 1) rotate(0) translate(4 512.25)">
<title>main</title>
<!-- Node1 -->
<g id="Node000001" class="node">
<title>Node1</title>
<g id="a_Node000001"><a xlink:title=" ">
<polygon fill="#999999" stroke="#666666" points="37,-224.25 0,-224.25 0,-205 37,-205 37,-224.25"/>
<text text-anchor="middle" x="18.5" y="-210.75" font-family="IBMPlexSans-Regular" font-size="10.00">main</text>
</a>
</g>
</g>
<!-- Node2 -->
<g id="Node000002" class="node">
<title>Node2</title>
<g id="a_Node000002"><a xlink:href="bosonic_8c.html#a8549b8b092dcf706901258557a84f42b" target="_top" xlink:title="Calculates the gauge action using new (how new?) lookup table.">
<polygon fill="white" stroke="#666666" points="289.5,-508.25 191,-508.25 191,-489 289.5,-489 289.5,-508.25"/>
<text text-anchor="middle" x="240.25" y="-494.75" font-family="IBMPlexSans-Regular" font-size="10.00">Average_Plaquette</text>
</a>
</g>
</g>
<!-- Node1&#45;&gt;Node2 -->
<g id="edge1_Node000001_Node000002" class="edge">
<title>Node1&#45;&gt;Node2</title>
<g id="a_edge1_Node000001_Node000002"><a xlink:title=" ">
<path fill="none" stroke="#63b8ff" d="M20.57,-224.6C25,-264.04 43.03,-408.54 73,-441.62 100.17,-471.62 143.82,-485.84 179.57,-492.57"/>
<polygon fill="#63b8ff" stroke="#63b8ff" points="178.93,-496.01 189.38,-494.25 180.12,-489.11 178.93,-496.01"/>
</a>
</g>
</g>
<!-- Node5 -->
<g id="Node000005" class="node">
<title>Node5</title>
<g id="a_Node000005"><a xlink:href="matrices_8c.html#aba7f4f08e497d2b0b94f3e2526ca0a31" target="_top" xlink:title="Evaluates &#160;in single precision.">
<polygon fill="white" stroke="#666666" points="392.5,-292.25 333,-292.25 333,-273 392.5,-273 392.5,-292.25"/>
<text text-anchor="middle" x="362.75" y="-278.75" font-family="IBMPlexSans-Regular" font-size="10.00">Dslashd_f</text>
</a>
</g>
</g>
<!-- Node1&#45;&gt;Node5 -->
<g id="edge4_Node000001_Node000005" class="edge">
<title>Node1&#45;&gt;Node5</title>
<g id="a_edge4_Node000001_Node000005"><a xlink:title=" ">
<path fill="none" stroke="#63b8ff" d="M23.05,-224.5C29.77,-241.5 46.13,-275.78 73,-289.62 153.24,-330.95 263.4,-310.7 321.73,-295.04"/>
<polygon fill="#63b8ff" stroke="#63b8ff" points="322.53,-298.45 331.22,-292.39 320.65,-291.7 322.53,-298.45"/>
</a>
</g>
</g>
<!-- Node7 -->
<g id="Node000007" class="node">
<title>Node7</title>
<g id="a_Node000007"><a xlink:href="random_8c.html#a859e92fda23ce37dad2971362f72a50d" target="_top" xlink:title="Generates a vector of normally distributed random single precision complex numbers using the Box&#45;Mull...">
<polygon fill="white" stroke="#666666" points="141.5,-280.25 86.5,-280.25 86.5,-261 141.5,-261 141.5,-280.25"/>
<text text-anchor="middle" x="114" y="-266.75" font-family="IBMPlexSans-Regular" font-size="10.00">Gauss_c</text>
</a>
</g>
</g>
<!-- Node1&#45;&gt;Node7 -->
<g id="edge6_Node000001_Node000007" class="edge">
<title>Node1&#45;&gt;Node7</title>
<g id="a_edge6_Node000001_Node000007"><a xlink:title=" ">
<path fill="none" stroke="#63b8ff" d="M32.22,-224.73C42.77,-232.85 58.37,-244.24 73,-252.62 74.68,-253.59 76.42,-254.54 78.2,-255.47"/>
<polygon fill="#63b8ff" stroke="#63b8ff" points="76.63,-258.6 87.15,-259.85 79.71,-252.31 76.63,-258.6"/>
</a>
</g>
</g>
<!-- Node9 -->
<g id="Node000009" class="node">
<title>Node9</title>
<g id="a_Node000009"><a xlink:href="random_8c.html#aaaabdcbfe66bb65cb57139509f6ea496" target="_top" xlink:title="Generates a vector of normally distributed random double precision numbers using the Box&#45;Muller Metho...">
<polygon fill="white" stroke="#666666" points="141.5,-243.25 86.5,-243.25 86.5,-224 141.5,-224 141.5,-243.25"/>
<text text-anchor="middle" x="114" y="-229.75" font-family="IBMPlexSans-Regular" font-size="10.00">Gauss_d</text>
</a>
</g>
</g>
<!-- Node1&#45;&gt;Node9 -->
<g id="edge8_Node000001_Node000009" class="edge">
<title>Node1&#45;&gt;Node9</title>
<g id="a_edge8_Node000001_Node000009"><a xlink:title=" ">
<path fill="none" stroke="#63b8ff" d="M37.09,-218.2C47.81,-220.38 61.93,-223.25 75.09,-225.92"/>
<polygon fill="#63b8ff" stroke="#63b8ff" points="74.31,-229.33 84.81,-227.9 75.7,-222.47 74.31,-229.33"/>
</a>
</g>
</g>
<!-- Node10 -->
<g id="Node000010" class="node">
<title>Node10</title>
<g id="a_Node000010"><a xlink:href="su2hmc_8c.html#a73e6186c40491d6f550404b8e975adff" target="_top" xlink:title="Calculate the Hamiltonian.">
<polygon fill="white" stroke="#666666" points="141.5,-432.25 86.5,-432.25 86.5,-413 141.5,-413 141.5,-432.25"/>
<text text-anchor="middle" x="114" y="-418.75" font-family="IBMPlexSans-Regular" font-size="10.00">Hamilton</text>
</a>
</g>
</g>
<!-- Node1&#45;&gt;Node10 -->
<g id="edge10_Node000001_Node000010" class="edge">
<title>Node1&#45;&gt;Node10</title>
<g id="a_edge10_Node000001_Node000010"><a xlink:title=" ">
<path fill="none" stroke="#63b8ff" d="M20.84,-224.56C24.9,-251.92 38.93,-330.03 73,-384.62 77.74,-392.22 84.36,-399.34 90.84,-405.31"/>
<polygon fill="#63b8ff" stroke="#63b8ff" points="88.41,-407.84 98.27,-411.7 92.97,-402.53 88.41,-407.84"/>
</a>
</g>
</g>
<!-- Node16 -->
<g id="Node000016" class="node">
<title>Node16</title>
<g id="a_Node000016"><a xlink:href="su2hmc_8c.html#a1fbc1cb0a07d63c39d8cff966a534d09" target="_top" xlink:title="Initialises the system.">
<polygon fill="white" stroke="#666666" points="128.75,-206.25 99.25,-206.25 99.25,-187 128.75,-187 128.75,-206.25"/>
<text text-anchor="middle" x="114" y="-192.75" font-family="IBMPlexSans-Regular" font-size="10.00">Init</text>
</a>
</g>
</g>
<!-- Node1&#45;&gt;Node16 -->
<g id="edge21_Node000001_Node000016" class="edge">
<title>Node1&#45;&gt;Node16</title>
<g id="a_edge21_Node000001_Node000016"><a xlink:title=" ">
<path fill="none" stroke="#63b8ff" d="M37.09,-211.24C51.33,-208.5 71.6,-204.59 87.61,-201.51"/>
<polygon fill="#63b8ff" stroke="#63b8ff" points="88.21,-204.96 97.37,-199.63 86.88,-198.09 88.21,-204.96"/>
</a>
</g>
</g>
<!-- Node25 -->
<g id="Node000025" class="node">
<title>Node25</title>
<g id="a_Node000025"><a xlink:href="matrices_8c.html#a998120d21faa6bf801710ae86f3d918b" target="_top" xlink:title="Reunitarises u11t and u12t as in conj(u11t[i])*u11t[i]+conj(u12t[i])*u12t[i]=1.">
<polygon fill="white" stroke="#666666" points="272.62,-58.25 207.88,-58.25 207.88,-39 272.62,-39 272.62,-58.25"/>
<text text-anchor="middle" x="240.25" y="-44.75" font-family="IBMPlexSans-Regular" font-size="10.00">Reunitarise</text>
</a>
</g>
</g>
<!-- Node1&#45;&gt;Node25 -->
<g id="edge37_Node000001_Node000025" class="edge">
<title>Node1&#45;&gt;Node25</title>
<g id="a_edge37_Node000001_Node000025"><a xlink:title=" ">
<path fill="none" stroke="#63b8ff" d="M32.72,-204.54C43.3,-196.69 58.69,-185.81 73,-177.62 107.87,-157.68 126.26,-167.68 155,-139.62 180.89,-114.36 164.16,-90.88 191,-66.62 192.99,-64.83 195.17,-63.21 197.47,-61.74"/>
<polygon fill="#63b8ff" stroke="#63b8ff" points="198.84,-64.98 206.11,-57.27 195.62,-58.76 198.84,-64.98"/>
</a>
</g>
</g>
<!-- Node26 -->
<g id="Node000026" class="node">
<title>Node26</title>
<g id="a_Node000026"><a xlink:href="par__mpi_8c.html#a6f500abd59b184cac1dbcf47b04c185a" target="_top" xlink:title="Initialises the MPI configuration.">
<polygon fill="white" stroke="#666666" points="143.75,-130.25 84.25,-130.25 84.25,-111 143.75,-111 143.75,-130.25"/>
<text text-anchor="middle" x="114" y="-116.75" font-family="IBMPlexSans-Regular" font-size="10.00">Par_begin</text>
</a>
</g>
</g>
<!-- Node1&#45;&gt;Node26 -->
<g id="edge32_Node000001_Node000026" class="edge">
<title>Node1&#45;&gt;Node26</title>
<g id="a_edge32_Node000001_Node000026"><a xlink:title=" ">
<path fill="none" stroke="#63b8ff" d="M25.42,-204.63C34.36,-190.13 52.47,-162.97 73,-144.62 76.14,-141.82 79.66,-139.16 83.28,-136.7"/>
<polygon fill="#63b8ff" stroke="#63b8ff" points="84.94,-139.79 91.58,-131.52 81.24,-133.85 84.94,-139.79"/>
</a>
</g>
</g>
<!-- Node27 -->
<g id="Node000027" class="node">
<title>Node27</title>
<g id="a_Node000027"><a xlink:href="par__mpi_8h.html#a31e5f4f36c6e583903e8dd06dbf76fc6" target="_top" xlink:title="Broadcasts a float to the other processes.">
<polygon fill="white" stroke="#666666" points="143.75,-93.25 84.25,-93.25 84.25,-74 143.75,-74 143.75,-93.25"/>
<text text-anchor="middle" x="114" y="-79.75" font-family="IBMPlexSans-Regular" font-size="10.00">Par_fcopy</text>
</a>
</g>
</g>
<!-- Node1&#45;&gt;Node27 -->
<g id="edge33_Node000001_Node000027" class="edge">
<title>Node1&#45;&gt;Node27</title>
<g id="a_edge33_Node000001_Node000027"><a xlink:title=" ">
<path fill="none" stroke="#63b8ff" d="M21.69,-204.81C26.94,-183.38 42.16,-131.87 73,-101.62 73.49,-101.14 74,-100.67 74.52,-100.21"/>
<polygon fill="#63b8ff" stroke="#63b8ff" points="76.42,-103.16 82.64,-94.58 72.43,-97.4 76.42,-103.16"/>
</a>
</g>
</g>
<!-- Node28 -->
<g id="Node000028" class="node">
<title>Node28</title>
<g id="a_Node000028"><a xlink:href="par__mpi_8h.html#a82049c8a7fcf726d3b222e4fedf6f674" target="_top" xlink:title="Broadcasts an integer to the other processes.">
<polygon fill="white" stroke="#666666" points="143.38,-56.25 84.62,-56.25 84.62,-37 143.38,-37 143.38,-56.25"/>
<text text-anchor="middle" x="114" y="-42.75" font-family="IBMPlexSans-Regular" font-size="10.00">Par_icopy</text>
</a>
</g>
</g>
<!-- Node1&#45;&gt;Node28 -->
<g id="edge34_Node000001_Node000028" class="edge">
<title>Node1&#45;&gt;Node28</title>
<g id="a_edge34_Node000001_Node000028"><a xlink:title=" ">
<path fill="none" stroke="#63b8ff" d="M20.36,-204.87C23.16,-178.8 34.19,-106.69 73,-64.62 73.7,-63.87 74.44,-63.14 75.21,-62.44"/>
<polygon fill="#63b8ff" stroke="#63b8ff" points="76.99,-65.46 83.18,-56.86 72.98,-59.73 76.99,-65.46"/>
</a>
</g>
</g>
<!-- Node29 -->
<g id="Node000029" class="node">
<title>Node29</title>
<g id="a_Node000029"><a xlink:href="bosonic_8c.html#abc8424ac85b82a4f8f1e067be367680f" target="_top" xlink:title="Calculate the Polyakov loop (no prizes for guessing that one...)">
<polygon fill="white" stroke="#666666" points="141.88,-375.25 86.12,-375.25 86.12,-356 141.88,-356 141.88,-375.25"/>
<text text-anchor="middle" x="114" y="-361.75" font-family="IBMPlexSans-Regular" font-size="10.00">Polyakov</text>
</a>
</g>
</g>
<!-- Node1&#45;&gt;Node29 -->
<g id="edge35_Node000001_Node000029" class="edge">
<title>Node1&#45;&gt;Node29</title>
<g id="a_edge35_Node000001_Node000029"><a xlink:title=" ">
<path fill="none" stroke="#63b8ff" d="M23.33,-224.68C31.1,-244.43 49.93,-289.23 73,-322.62 79.17,-331.55 87.11,-340.48 94.3,-347.87"/>
<polygon fill="#63b8ff" stroke="#63b8ff" points="91.59,-350.12 101.16,-354.69 96.53,-345.15 91.59,-350.12"/>
</a>
</g>
</g>
<!-- Node30 -->
<g id="Node000030" class="node">
<title>Node30</title>
<g id="a_Node000030"><a xlink:href="par__mpi_8c.html#aa988b87ed44e79f217a03e824c9d484e" target="_top" xlink:title="Exchanges the trial fields.">
<polygon fill="white" stroke="#666666" points="155,-19.25 73,-19.25 73,0 155,0 155,-19.25"/>
<text text-anchor="middle" x="114" y="-5.75" font-family="IBMPlexSans-Regular" font-size="10.00">Trial_Exchange</text>
</a>
</g>
</g>
<!-- Node1&#45;&gt;Node30 -->
<g id="edge38_Node000001_Node000030" class="edge">
<title>Node1&#45;&gt;Node30</title>
<g id="a_edge38_Node000001_Node000030"><a xlink:title=" ">
<path fill="none" stroke="#63b8ff" d="M19.55,-204.75C20.21,-174.48 26.16,-81.76 73,-27.62 73.35,-27.22 73.71,-26.83 74.08,-26.44"/>
<polygon fill="#63b8ff" stroke="#63b8ff" points="76.06,-29.33 81.82,-20.44 71.77,-23.8 76.06,-29.33"/>
</a>
</g>
</g>
<!-- Node3 -->
<g id="Node000003" class="node">
<title>Node3</title>
<g id="a_Node000003"><a xlink:href="par__mpi_8h.html#aecfe9840e5f8dfd693b813b750d81a0c" target="_top" xlink:title="Performs a reduction on a double dval to get a sum which is then distributed to all ranks.">
<polygon fill="white" stroke="#666666" points="392.88,-450.25 332.62,-450.25 332.62,-431 392.88,-431 392.88,-450.25"/>
<text text-anchor="middle" x="362.75" y="-436.75" font-family="IBMPlexSans-Regular" font-size="10.00">Par_dsum</text>
</a>
</g>
</g>
<!-- Node2&#45;&gt;Node3 -->
<g id="edge2_Node000002_Node000003" class="edge">
<title>Node2&#45;&gt;Node3</title>
<g id="a_edge2_Node000002_Node000003"><a xlink:title=" ">
<path fill="none" stroke="#63b8ff" d="M262.24,-488.52C281.16,-479.42 309.23,-465.9 330.74,-455.55"/>
<polygon fill="#63b8ff" stroke="#63b8ff" points="332.14,-458.76 339.64,-451.27 329.11,-452.45 332.14,-458.76"/>
</a>
</g>
</g>
<!-- Node4 -->
<g id="Node000004" class="node">
<title>Node4</title>
<g id="a_Node000004"><a xlink:href="bosonic_8c.html#a96417aed91b2527e56ed421753760414" target="_top" xlink:title="Calculates the plaquette at site i in the &#160;direction.">
<polygon fill="white" stroke="#666666" points="389.5,-508.25 336,-508.25 336,-489 389.5,-489 389.5,-508.25"/>
<text text-anchor="middle" x="362.75" y="-494.75" font-family="IBMPlexSans-Regular" font-size="10.00">SU2plaq</text>
</a>
</g>
</g>
<!-- Node2&#45;&gt;Node4 -->
<g id="edge3_Node000002_Node000004" class="edge">
<title>Node2&#45;&gt;Node4</title>
<g id="a_edge3_Node000002_Node000004"><a xlink:title=" ">
<path fill="none" stroke="#63b8ff" d="M289.91,-498.62C301.43,-498.62 313.53,-498.62 324.44,-498.62"/>
<polygon fill="#63b8ff" stroke="#63b8ff" points="324.23,-502.13 334.23,-498.63 324.23,-495.13 324.23,-502.13"/>
</a>
</g>
</g>
<!-- Node6 -->
<g id="Node000006" class="node">
<title>Node6</title>
<g id="a_Node000006"><a xlink:href="par__mpi_8h.html#a14b1a550ef4f44a9e4d7dd06c9427993" target="_top" xlink:title="Calls the functions to send data to both the up and down halos.">
<polygon fill="white" stroke="#666666" points="522.5,-329.25 436,-329.25 436,-310 522.5,-310 522.5,-329.25"/>
<text text-anchor="middle" x="479.25" y="-315.75" font-family="IBMPlexSans-Regular" font-size="10.00">CHalo_swap_all</text>
</a>
</g>
</g>
<!-- Node5&#45;&gt;Node6 -->
<g id="edge5_Node000005_Node000006" class="edge">
<title>Node5&#45;&gt;Node6</title>
<g id="a_edge5_Node000005_Node000006"><a xlink:title=" ">
<path fill="none" stroke="#63b8ff" d="M392.94,-292.06C406.14,-296.32 421.98,-301.44 436.41,-306.11"/>
<polygon fill="#63b8ff" stroke="#63b8ff" points="435.08,-309.35 445.67,-309.1 437.23,-302.69 435.08,-309.35"/>
</a>
</g>
</g>
<!-- Node8 -->
<g id="Node000008" class="node">
<title>Node8</title>
<g id="a_Node000008"><a xlink:href="random_8c.html#afba975c2629ded7c68cb21cfbeb4b496" target="_top" xlink:title="Generates uniformly distributed random double between zero and one as described in numerical recipes....">
<polygon fill="white" stroke="#666666" points="257.62,-280.25 222.88,-280.25 222.88,-261 257.62,-261 257.62,-280.25"/>
<text text-anchor="middle" x="240.25" y="-266.75" font-family="IBMPlexSans-Regular" font-size="10.00">ran2</text>
</a>
</g>
</g>
<!-- Node7&#45;&gt;Node8 -->
<g id="edge7_Node000007_Node000008" class="edge">
<title>Node7&#45;&gt;Node8</title>
<g id="a_edge7_Node000007_Node000008"><a xlink:title=" ">
<path fill="none" stroke="#63b8ff" d="M141.96,-270.62C162.48,-270.62 190.64,-270.62 211.39,-270.62"/>
<polygon fill="#63b8ff" stroke="#63b8ff" points="211.12,-274.13 221.12,-270.63 211.12,-267.13 211.12,-274.13"/>
</a>
</g>
</g>
<!-- Node9&#45;&gt;Node8 -->
<g id="edge9_Node000009_Node000008" class="edge">
<title>Node9&#45;&gt;Node8</title>
<g id="a_edge9_Node000009_Node000008"><a xlink:title=" ">
<path fill="none" stroke="#63b8ff" d="M141.96,-241.65C162.58,-247.79 190.91,-256.23 211.68,-262.41"/>
<polygon fill="#63b8ff" stroke="#63b8ff" points="210.6,-265.74 221.18,-265.24 212.59,-259.04 210.6,-265.74"/>
</a>
</g>
</g>
<!-- Node10&#45;&gt;Node2 -->
<g id="edge11_Node000010_Node000002" class="edge">
<title>Node10&#45;&gt;Node2</title>
<g id="a_edge11_Node000010_Node000002"><a xlink:title=" ">
<path fill="none" stroke="#63b8ff" d="M128.36,-432.6C143.25,-443.53 168.25,-461.27 191,-474.62 196.35,-477.76 202.16,-480.88 207.83,-483.79"/>
<polygon fill="#63b8ff" stroke="#63b8ff" points="205.91,-486.74 216.42,-488.06 209.03,-480.47 205.91,-486.74"/>
</a>
</g>
</g>
<!-- Node10&#45;&gt;Node3 -->
<g id="edge20_Node000010_Node000003" class="edge">
<title>Node10&#45;&gt;Node3</title>
<g id="a_edge20_Node000010_Node000003"><a xlink:title=" ">
<path fill="none" stroke="#63b8ff" d="M141.78,-431.03C156.2,-435.12 174.4,-439.58 191,-441.62 235.28,-447.08 286.5,-445.77 321.21,-443.77"/>
<polygon fill="#63b8ff" stroke="#63b8ff" points="321.04,-447.29 330.8,-443.17 320.6,-440.3 321.04,-447.29"/>
</a>
</g>
</g>
<!-- Node11 -->
<g id="Node000011" class="node">
<title>Node11</title>
<g id="a_Node000011"><a xlink:href="congrad_8c.html#aa32f0774e38a36310209b44a2abae8e6" target="_top" xlink:title="Matrix Inversion via Conjugate Gradient (up/down flavour partitioning). Solves &#160;Implements up/down pa...">
<polygon fill="white" stroke="#666666" points="268.88,-356.25 211.62,-356.25 211.62,-337 268.88,-337 268.88,-356.25"/>
<text text-anchor="middle" x="240.25" y="-342.75" font-family="IBMPlexSans-Regular" font-size="10.00">Congradq</text>
</a>
</g>
</g>
<!-- Node10&#45;&gt;Node11 -->
<g id="edge12_Node000010_Node000011" class="edge">
<title>Node10&#45;&gt;Node11</title>
<g id="a_edge12_Node000010_Node000011"><a xlink:title=" ">
<path fill="none" stroke="#63b8ff" d="M131.5,-412.53C152.41,-399.74 188.69,-377.55 213.31,-362.49"/>
<polygon fill="#63b8ff" stroke="#63b8ff" points="215.08,-365.51 221.79,-357.31 211.43,-359.54 215.08,-365.51"/>
</a>
</g>
</g>
<!-- Node15 -->
<g id="Node000015" class="node">
<title>Node15</title>
<g id="a_Node000015"><a xlink:href="su2hmc_8c.html#ad4816b4c3599a65d212f34e10c83055f" target="_top" xlink:title=" ">
<polygon fill="white" stroke="#666666" points="279.38,-432.25 201.12,-432.25 201.12,-413 279.38,-413 279.38,-432.25"/>
<text text-anchor="middle" x="240.25" y="-418.75" font-family="IBMPlexSans-Regular" font-size="10.00">Fill_Small_Phi</text>
</a>
</g>
</g>
<!-- Node10&#45;&gt;Node15 -->
<g id="edge19_Node000010_Node000015" class="edge">
<title>Node10&#45;&gt;Node15</title>
<g id="a_edge19_Node000010_Node000015"><a xlink:title=" ">
<path fill="none" stroke="#63b8ff" d="M141.96,-422.62C155.99,-422.62 173.6,-422.62 189.96,-422.62"/>
<polygon fill="#63b8ff" stroke="#63b8ff" points="189.52,-426.13 199.52,-422.63 189.51,-419.13 189.52,-426.13"/>
</a>
</g>
</g>
<!-- Node11&#45;&gt;Node3 -->
<g id="edge17_Node000011_Node000003" class="edge">
<title>Node11&#45;&gt;Node3</title>
<g id="a_edge17_Node000011_Node000003"><a xlink:title=" ">
<path fill="none" stroke="#63b8ff" d="M265.93,-356.56C273.86,-360.35 282.41,-365.1 289.5,-370.62 308.89,-385.74 307.68,-395.69 325.5,-412.62 329.54,-416.46 334.08,-420.3 338.55,-423.84"/>
<polygon fill="#63b8ff" stroke="#63b8ff" points="336.16,-426.42 346.23,-429.7 340.41,-420.86 336.16,-426.42"/>
</a>
</g>
</g>
<!-- Node12 -->
<g id="Node000012" class="node">
<title>Node12</title>
<g id="a_Node000012"><a xlink:href="matrices_8c.html#a17eb50d07c881fc5d1585ddf14aa1ff0" target="_top" xlink:title="Evaluates &#160;in single precision.">
<polygon fill="white" stroke="#666666" points="392.88,-329.25 332.62,-329.25 332.62,-310 392.88,-310 392.88,-329.25"/>
<text text-anchor="middle" x="362.75" y="-315.75" font-family="IBMPlexSans-Regular" font-size="10.00">Hdslash_f</text>
</a>
</g>
</g>
<!-- Node11&#45;&gt;Node12 -->
<g id="edge13_Node000011_Node000012" class="edge">
<title>Node11&#45;&gt;Node12</title>
<g id="a_edge13_Node000011_Node000012"><a xlink:title=" ">
<path fill="none" stroke="#63b8ff" d="M269.2,-340.36C284.71,-336.89 304.28,-332.5 321.42,-328.66"/>
<polygon fill="#63b8ff" stroke="#63b8ff" points="321.8,-332.16 330.8,-326.56 320.27,-325.33 321.8,-332.16"/>
</a>
</g>
</g>
<!-- Node13 -->
<g id="Node000013" class="node">
<title>Node13</title>
<g id="a_Node000013"><a xlink:href="matrices_8c.html#a87e3179e3c6947eacfa74ada59aaeb0c" target="_top" xlink:title="Evaluates &#160;in single precision.">
<polygon fill="white" stroke="#666666" points="395.5,-403.25 330,-403.25 330,-384 395.5,-384 395.5,-403.25"/>
<text text-anchor="middle" x="362.75" y="-389.75" font-family="IBMPlexSans-Regular" font-size="10.00">Hdslashd_f</text>
</a>
</g>
</g>
<!-- Node11&#45;&gt;Node13 -->
<g id="edge15_Node000011_Node000013" class="edge">
<title>Node11&#45;&gt;Node13</title>
<g id="a_edge15_Node000011_Node000013"><a xlink:title=" ">
<path fill="none" stroke="#63b8ff" d="M267.1,-356.71C284.1,-363.34 306.58,-372.11 325.38,-379.44"/>
<polygon fill="#63b8ff" stroke="#63b8ff" points="323.94,-382.64 334.53,-383.01 326.49,-376.11 323.94,-382.64"/>
</a>
</g>
</g>
<!-- Node14 -->
<g id="Node000014" class="node">
<title>Node14</title>
<g id="a_Node000014"><a xlink:href="par__mpi_8h.html#a4e2e85b06c5b05c5181729cc5ebdd05b" target="_top" xlink:title="Performs a reduction on a float dval to get a sum which is then distributed to all ranks.">
<polygon fill="white" stroke="#666666" points="391.75,-366.25 333.75,-366.25 333.75,-347 391.75,-347 391.75,-366.25"/>
<text text-anchor="middle" x="362.75" y="-352.75" font-family="IBMPlexSans-Regular" font-size="10.00">Par_fsum</text>
</a>
</g>
</g>
<!-- Node11&#45;&gt;Node14 -->
<g id="edge18_Node000011_Node000014" class="edge">
<title>Node11&#45;&gt;Node14</title>
<g id="a_edge18_Node000011_Node000014"><a xlink:title=" ">
<path fill="none" stroke="#63b8ff" d="M269.2,-348.94C285.05,-350.26 305.15,-351.93 322.55,-353.37"/>
<polygon fill="#63b8ff" stroke="#63b8ff" points="321.77,-356.82 332.03,-354.16 322.35,-349.84 321.77,-356.82"/>
</a>
</g>
</g>
<!-- Node12&#45;&gt;Node6 -->
<g id="edge14_Node000012_Node000006" class="edge">
<title>Node12&#45;&gt;Node6</title>
<g id="a_edge14_Node000012_Node000006"><a xlink:title=" ">
<path fill="none" stroke="#63b8ff" d="M393.24,-319.62C402.77,-319.62 413.67,-319.62 424.4,-319.62"/>
<polygon fill="#63b8ff" stroke="#63b8ff" points="424.4,-323.13 434.4,-319.63 424.4,-316.13 424.4,-323.13"/>
</a>
</g>
</g>
<!-- Node13&#45;&gt;Node6 -->
<g id="edge16_Node000013_Node000006" class="edge">
<title>Node13&#45;&gt;Node6</title>
<g id="a_edge16_Node000013_Node000006"><a xlink:title=" ">
<path fill="none" stroke="#63b8ff" d="M385.52,-383.52C390.37,-381.08 395.42,-378.38 400,-375.62 420.04,-363.58 441.56,-347.97 456.94,-336.29"/>
<polygon fill="#63b8ff" stroke="#63b8ff" points="458.67,-339.38 464.46,-330.52 454.4,-333.83 458.67,-339.38"/>
</a>
</g>
</g>
<!-- Node16&#45;&gt;Node8 -->
<g id="edge30_Node000016_Node000008" class="edge">
<title>Node16&#45;&gt;Node8</title>
<g id="a_edge30_Node000016_Node000008"><a xlink:title=" ">
<path fill="none" stroke="#63b8ff" d="M129.04,-201.39C137.05,-204.48 147.05,-208.98 155,-214.62 173.97,-228.1 171.6,-239.78 191,-252.62 197.36,-256.84 204.84,-260.24 211.99,-262.9"/>
<polygon fill="#63b8ff" stroke="#63b8ff" points="210.7,-266.17 221.3,-266.02 212.92,-259.53 210.7,-266.17"/>
</a>
</g>
</g>
<!-- Node17 -->
<g id="Node000017" class="node">
<title>Node17</title>
<g id="a_Node000017"><a xlink:href="coord_8c.html#a460e6b3f5574cd514a0c73b9cf6fc124" target="_top" xlink:title="Loads the addresses required during the update.">
<polygon fill="white" stroke="#666666" points="261,-169.25 219.5,-169.25 219.5,-150 261,-150 261,-169.25"/>
<text text-anchor="middle" x="240.25" y="-155.75" font-family="IBMPlexSans-Regular" font-size="10.00">Addrc</text>
</a>
</g>
</g>
<!-- Node16&#45;&gt;Node17 -->
<g id="edge22_Node000016_Node000017" class="edge">
<title>Node16&#45;&gt;Node17</title>
<g id="a_edge22_Node000016_Node000017"><a xlink:title=" ">
<path fill="none" stroke="#63b8ff" d="M128.77,-192.52C147.84,-186.85 182.81,-176.43 208.31,-168.84"/>
<polygon fill="#63b8ff" stroke="#63b8ff" points="209.24,-172.21 217.82,-166.01 207.24,-165.51 209.24,-172.21"/>
</a>
</g>
</g>
<!-- Node19 -->
<g id="Node000019" class="node">
<title>Node19</title>
<g id="a_Node000019"><a xlink:href="coord_8c.html#a3b2eb1dbecc1a6aebeb7e43dec42a859" target="_top" xlink:title=" ">
<polygon fill="white" stroke="#666666" points="274.12,-132.25 206.38,-132.25 206.38,-113 274.12,-113 274.12,-132.25"/>
<text text-anchor="middle" x="240.25" y="-118.75" font-family="IBMPlexSans-Regular" font-size="10.00">Check_addr</text>
</a>
</g>
</g>
<!-- Node16&#45;&gt;Node19 -->
<g id="edge24_Node000016_Node000019" class="edge">
<title>Node16&#45;&gt;Node19</title>
<g id="a_edge24_Node000016_Node000019"><a xlink:title=" ">
<path fill="none" stroke="#63b8ff" d="M129.11,-189.02C136.96,-184.57 146.78,-178.67 155,-172.62 172.25,-159.95 172.66,-151.67 191,-140.62 192.87,-139.5 194.82,-138.43 196.81,-137.41"/>
<polygon fill="#63b8ff" stroke="#63b8ff" points="198.05,-140.69 205.69,-133.36 195.14,-134.32 198.05,-140.69"/>
</a>
</g>
</g>
<!-- Node20 -->
<g id="Node000020" class="node">
<title>Node20</title>
<g id="a_Node000020"><a xlink:href="par__mpi_8h.html#adf20d64741e5d091b74c19a5fa066efb" target="_top" xlink:title="Swaps the halos along the axis given by idir in the direction given by layer.">
<polygon fill="white" stroke="#666666" points="283.88,-95.25 196.62,-95.25 196.62,-76 283.88,-76 283.88,-95.25"/>
<text text-anchor="middle" x="240.25" y="-81.75" font-family="IBMPlexSans-Regular" font-size="10.00">DHalo_swap_dir</text>
</a>
</g>
</g>
<!-- Node16&#45;&gt;Node20 -->
<g id="edge25_Node000016_Node000020" class="edge">
<title>Node16&#45;&gt;Node20</title>
<g id="a_edge25_Node000016_Node000020"><a xlink:title=" ">
<path fill="none" stroke="#63b8ff" d="M128.9,-190.66C137.26,-186.54 147.67,-180.41 155,-172.62 178.72,-147.45 165.07,-126.52 191,-103.62 191.9,-102.83 192.85,-102.06 193.82,-101.33"/>
<polygon fill="#63b8ff" stroke="#63b8ff" points="195.26,-104.55 202,-96.37 191.63,-98.56 195.26,-104.55"/>
</a>
</g>
</g>
<!-- Node21 -->
<g id="Node000021" class="node">
<title>Node21</title>
<g id="a_Node000021"><a xlink:href="random_8c.html#ac776a562469ba6266eb4f7ab2050b32a" target="_top" xlink:title="Uses the rank to get a new seed. Copying from the FORTRAN description here c create new seeds in rang...">
<polygon fill="white" stroke="#666666" points="271.88,-243.25 208.62,-243.25 208.62,-224 271.88,-224 271.88,-243.25"/>
<text text-anchor="middle" x="240.25" y="-229.75" font-family="IBMPlexSans-Regular" font-size="10.00">Par_ranset</text>
</a>
</g>
</g>
<!-- Node16&#45;&gt;Node21 -->
<g id="edge26_Node000016_Node000021" class="edge">
<title>Node16&#45;&gt;Node21</title>
<g id="a_edge26_Node000016_Node000021"><a xlink:title=" ">
<path fill="none" stroke="#63b8ff" d="M128.77,-200.73C145.24,-205.63 173.59,-214.07 197.44,-221.17"/>
<polygon fill="#63b8ff" stroke="#63b8ff" points="196.34,-224.5 206.92,-224 198.33,-217.79 196.34,-224.5"/>
</a>
</g>
</g>
<!-- Node23 -->
<g id="Node000023" class="node">
<title>Node23</title>
<g id="a_Node000023"><a xlink:href="par__mpi_8c.html#a605623b5fff3d5970f2965e0d140b171" target="_top" xlink:title="Reads and assigns the gauges from file.">
<polygon fill="white" stroke="#666666" points="270.38,-206.25 210.12,-206.25 210.12,-187 270.38,-187 270.38,-206.25"/>
<text text-anchor="middle" x="240.25" y="-192.75" font-family="IBMPlexSans-Regular" font-size="10.00">Par_sread</text>
</a>
</g>
</g>
<!-- Node16&#45;&gt;Node23 -->
<g id="edge28_Node000016_Node000023" class="edge">
<title>Node16&#45;&gt;Node23</title>
<g id="a_edge28_Node000016_Node000023"><a xlink:title=" ">
<path fill="none" stroke="#63b8ff" d="M128.77,-196.62C145.44,-196.62 174.27,-196.62 198.29,-196.62"/>
<polygon fill="#63b8ff" stroke="#63b8ff" points="198.11,-200.13 208.11,-196.63 198.11,-193.13 198.11,-200.13"/>
</a>
</g>
</g>
<!-- Node16&#45;&gt;Node25 -->
<g id="edge31_Node000016_Node000025" class="edge">
<title>Node16&#45;&gt;Node25</title>
<g id="a_edge31_Node000016_Node000025"><a xlink:title=" ">
<path fill="none" stroke="#63b8ff" d="M128.95,-191.22C137.55,-187.25 148.19,-181.07 155,-172.62 186.24,-133.9 156.34,-102.32 191,-66.62 192.92,-64.65 195.07,-62.89 197.38,-61.32"/>
<polygon fill="#63b8ff" stroke="#63b8ff" points="199.01,-64.42 206.17,-56.61 195.7,-58.25 199.01,-64.42"/>
</a>
</g>
</g>
<!-- Node18 -->
<g id="Node000018" class="node">
<title>Node18</title>
<g id="a_Node000018"><a xlink:href="coord_8c.html#a48a7c6d65b938e96e9fb363cdda2798b" target="_top" xlink:title="Described as a 21st Century address calculator, it gets the memory address of an array entry.">
<polygon fill="white" stroke="#666666" points="377.15,-169.25 348.35,-169.25 348.35,-150 377.15,-150 377.15,-169.25"/>
<text text-anchor="middle" x="362.75" y="-155.75" font-family="IBMPlexSans-Regular" font-size="10.00">ia</text>
</a>
</g>
</g>
<!-- Node17&#45;&gt;Node18 -->
<g id="edge23_Node000017_Node000018" class="edge">
<title>Node17&#45;&gt;Node18</title>
<g id="a_edge23_Node000017_Node000018"><a xlink:title=" ">
<path fill="none" stroke="#63b8ff" d="M261.42,-159.62C282.11,-159.62 314.34,-159.62 336.66,-159.62"/>
<polygon fill="#63b8ff" stroke="#63b8ff" points="336.4,-163.13 346.4,-159.63 336.4,-156.13 336.4,-163.13"/>
</a>
</g>
</g>
<!-- Node22 -->
<g id="Node000022" class="node">
<title>Node22</title>
<g id="a_Node000022"><a xlink:href="random_8c.html#a307bf51d68dba98763c1339095b11a12" target="_top" xlink:title="Dummy seed the ran2 generator.">
<polygon fill="white" stroke="#666666" points="384.25,-243.25 341.25,-243.25 341.25,-224 384.25,-224 384.25,-243.25"/>
<text text-anchor="middle" x="362.75" y="-229.75" font-family="IBMPlexSans-Regular" font-size="10.00">ranset</text>
</a>
</g>
</g>
<!-- Node21&#45;&gt;Node22 -->
<g id="edge27_Node000021_Node000022" class="edge">
<title>Node21&#45;&gt;Node22</title>
<g id="a_edge27_Node000021_Node000022"><a xlink:title=" ">
<path fill="none" stroke="#63b8ff" d="M272.28,-233.62C289.93,-233.62 311.99,-233.62 329.79,-233.62"/>
<polygon fill="#63b8ff" stroke="#63b8ff" points="329.54,-237.13 339.54,-233.63 329.54,-230.13 329.54,-237.13"/>
</a>
</g>
</g>
<!-- Node24 -->
<g id="Node000024" class="node">
<title>Node24</title>
<g id="a_Node000024"><a xlink:href="coord_8c.html#a1dcdfd7cd0256b5cf00f97af96d695d4" target="_top" xlink:title="Converts the coordinates of a global lattice point to its index in the computer memory.">
<polygon fill="white" stroke="#666666" points="400,-206.25 325.5,-206.25 325.5,-187 400,-187 400,-206.25"/>
<text text-anchor="middle" x="362.75" y="-192.75" font-family="IBMPlexSans-Regular" font-size="10.00">Coord2gindex</text>
</a>
</g>
</g>
<!-- Node23&#45;&gt;Node24 -->
<g id="edge29_Node000023_Node000024" class="edge">
<title>Node23&#45;&gt;Node24</title>
<g id="a_edge29_Node000023_Node000024"><a xlink:title=" ">
<path fill="none" stroke="#63b8ff" d="M270.73,-196.62C283.7,-196.62 299.28,-196.62 313.85,-196.62"/>
<polygon fill="#63b8ff" stroke="#63b8ff" points="313.74,-200.13 323.74,-196.63 313.74,-193.13 313.74,-200.13"/>
</a>
</g>
</g>
<!-- Node29&#45;&gt;Node3 -->
<g id="edge36_Node000029_Node000003" class="edge">
<title>Node29&#45;&gt;Node3</title>
<g id="a_edge36_Node000029_Node000003"><a xlink:title=" ">
<path fill="none" stroke="#63b8ff" d="M142.21,-369.32C177.06,-374.55 239,-385.54 289.5,-403.62 305.2,-409.25 321.83,-417.58 335.17,-424.92"/>
<polygon fill="#63b8ff" stroke="#63b8ff" points="333.34,-427.9 343.76,-429.77 336.78,-421.8 333.34,-427.9"/>
</a>
</g>
</g>
<!-- Node31 -->
<g id="Node000031" class="node">
<title>Node31</title>
<g id="a_Node000031"><a xlink:href="par__mpi_8h.html#a35d208a5a65e71101e71d3f0248aef03" target="_top" xlink:title="Calls the functions to send data to both the up and down halos.">
<polygon fill="white" stroke="#666666" points="283.12,-19.25 197.38,-19.25 197.38,0 283.12,0 283.12,-19.25"/>
<text text-anchor="middle" x="240.25" y="-5.75" font-family="IBMPlexSans-Regular" font-size="10.00">ZHalo_swap_all</text>
</a>
</g>
</g>
<!-- Node30&#45;&gt;Node31 -->
<g id="edge39_Node000030_Node000031" class="edge">
<title>Node30&#45;&gt;Node31</title>
<g id="a_edge39_Node000030_Node000031"><a xlink:title=" ">
<path fill="none" stroke="#63b8ff" d="M155.34,-9.62C165.02,-9.62 175.51,-9.62 185.68,-9.62"/>
<polygon fill="#63b8ff" stroke="#63b8ff" points="185.46,-13.13 195.46,-9.63 185.46,-6.13 185.46,-13.13"/>
</a>
</g>
</g>
</g>
</svg>
