<?xml version="1.0" encoding="UTF-8" standalone="no"?>
<!DOCTYPE svg PUBLIC "-//W3C//DTD SVG 1.1//EN"
 "http://www.w3.org/Graphics/SVG/1.1/DTD/svg11.dtd">
<!-- Generated by graphviz version 12.2.1 (20241206.2353)
 -->
<!-- Title: production_c/matrices.c Pages: 1 -->
<svg width="703pt" height="469pt"
 viewBox="0.00 0.00 702.62 469.25" xmlns="http://www.w3.org/2000/svg" xmlns:xlink="http://www.w3.org/1999/xlink">
<g id="graph0" class="graph" transform="scale(1 1) rotate(0) translate(4 465.25)">
<title>production_c/matrices.c</title>
<!-- Node1 -->
<g id="Node000001" class="node">
<title>Node1</title>
<g id="a_Node000001"><a xlink:title="Matrix multiplication and related routines.">
<polygon fill="#999999" stroke="#666666" points="578.75,-461.25 459.25,-461.25 459.25,-442 578.75,-442 578.75,-461.25"/>
<text text-anchor="middle" x="519" y="-447.75" font-family="IBMPlexSans-Regular" font-size="10.00">production_c/matrices.c</text>
</a>
</g>
</g>
<!-- Node2 -->
<g id="Node000002" class="node">
<title>Node2</title>
<g id="a_Node000002"><a xlink:title=" ">
<polygon fill="#e0e0e0" stroke="#999999" points="379.25,-406 328.75,-406 328.75,-386.75 379.25,-386.75 379.25,-406"/>
<text text-anchor="middle" x="354" y="-392.5" font-family="IBMPlexSans-Regular" font-size="10.00">assert.h</text>
</a>
</g>
</g>
<!-- Node1&#45;&gt;Node2 -->
<g id="edge1_Node000001_Node000002" class="edge">
<title>Node1&#45;&gt;Node2</title>
<g id="a_edge1_Node000001_Node000002"><a xlink:title=" ">
<path fill="none" stroke="#63b8ff" d="M491.01,-441.59C463.25,-432.63 420.59,-418.86 390.25,-409.07"/>
<polygon fill="#63b8ff" stroke="#63b8ff" points="391.71,-405.87 381.12,-406.13 389.56,-412.53 391.71,-405.87"/>
</a>
</g>
</g>
<!-- Node3 -->
<g id="Node000003" class="node">
<title>Node3</title>
<g id="a_Node000003"><a xlink:title=" ">
<polygon fill="#e0e0e0" stroke="#999999" points="466.75,-19.25 407.25,-19.25 407.25,0 466.75,0 466.75,-19.25"/>
<text text-anchor="middle" x="437" y="-5.75" font-family="IBMPlexSans-Regular" font-size="10.00">complex.h</text>
</a>
</g>
</g>
<!-- Node1&#45;&gt;Node3 -->
<g id="edge2_Node000001_Node000003" class="edge">
<title>Node1&#45;&gt;Node3</title>
<g id="a_edge2_Node000001_Node000003"><a xlink:title=" ">
<path fill="none" stroke="#63b8ff" d="M534.27,-441.72C559.94,-425.48 609,-388.38 609,-342.12 609,-342.12 609,-342.12 609,-119.12 609,-57.42 528.83,-29.39 477.95,-17.82"/>
<polygon fill="#63b8ff" stroke="#63b8ff" points="478.95,-14.46 468.44,-15.79 477.49,-21.3 478.95,-14.46"/>
</a>
</g>
</g>
<!-- Node4 -->
<g id="Node000004" class="node">
<title>Node4</title>
<g id="a_Node000004"><a xlink:href="matrices_8h.html" target="_top" xlink:title="Matrix multiplication and related declarations.">
<polygon fill="white" stroke="#666666" points="458.5,-406 397.5,-406 397.5,-386.75 458.5,-386.75 458.5,-406"/>
<text text-anchor="middle" x="428" y="-392.5" font-family="IBMPlexSans-Regular" font-size="10.00">matrices.h</text>
</a>
</g>
</g>
<!-- Node1&#45;&gt;Node4 -->
<g id="edge3_Node000001_Node000004" class="edge">
<title>Node1&#45;&gt;Node4</title>
<g id="a_edge3_Node000001_Node000004"><a xlink:title=" ">
<path fill="none" stroke="#63b8ff" d="M503.56,-441.59C489.84,-433.56 469.5,-421.66 453.38,-412.23"/>
<polygon fill="#63b8ff" stroke="#63b8ff" points="455.22,-409.25 444.82,-407.22 451.68,-415.29 455.22,-409.25"/>
</a>
</g>
</g>
<!-- Node13 -->
<g id="Node000013" class="node">
<title>Node13</title>
<g id="a_Node000013"><a xlink:title=" ">
<polygon fill="#e0e0e0" stroke="#999999" points="542.75,-129.75 495.25,-129.75 495.25,-110.5 542.75,-110.5 542.75,-129.75"/>
<text text-anchor="middle" x="519" y="-116.25" font-family="IBMPlexSans-Regular" font-size="10.00">string.h</text>
</a>
</g>
</g>
<!-- Node1&#45;&gt;Node13 -->
<g id="edge28_Node000001_Node000013" class="edge">
<title>Node1&#45;&gt;Node13</title>
<g id="a_edge28_Node000001_Node000013"><a xlink:title=" ">
<path fill="none" stroke="#63b8ff" d="M519,-441.62C519,-423.03 519,-379.05 519,-342.12 519,-342.12 519,-342.12 519,-229.62 519,-198.91 519,-163.3 519,-141.49"/>
<polygon fill="#63b8ff" stroke="#63b8ff" points="522.5,-141.64 519,-131.64 515.5,-141.64 522.5,-141.64"/>
</a>
</g>
</g>
<!-- Node18 -->
<g id="Node000018" class="node">
<title>Node18</title>
<g id="a_Node000018"><a xlink:title=" ">
<polygon fill="#e0e0e0" stroke="#999999" points="694.62,-406 637.38,-406 637.38,-386.75 694.62,-386.75 694.62,-406"/>
<text text-anchor="middle" x="666" y="-392.5" font-family="IBMPlexSans-Regular" font-size="10.00">stdalign.h</text>
</a>
</g>
</g>
<!-- Node1&#45;&gt;Node18 -->
<g id="edge29_Node000001_Node000018" class="edge">
<title>Node1&#45;&gt;Node18</title>
<g id="a_edge29_Node000001_Node000018"><a xlink:title=" ">
<path fill="none" stroke="#63b8ff" d="M543.94,-441.59C567.69,-432.99 603.71,-419.94 630.46,-410.25"/>
<polygon fill="#63b8ff" stroke="#63b8ff" points="631.31,-413.66 639.52,-406.97 628.92,-407.08 631.31,-413.66"/>
</a>
</g>
</g>
<!-- Node5 -->
<g id="Node000005" class="node">
<title>Node5</title>
<g id="a_Node000005"><a xlink:href="par__mpi_8h.html" target="_top" xlink:title="MPI headers.">
<polygon fill="white" stroke="#666666" points="345,-185 287,-185 287,-165.75 345,-165.75 345,-185"/>
<text text-anchor="middle" x="316" y="-171.5" font-family="IBMPlexSans-Regular" font-size="10.00">par_mpi.h</text>
</a>
</g>
</g>
<!-- Node4&#45;&gt;Node5 -->
<g id="edge4_Node000004_Node000005" class="edge">
<title>Node4&#45;&gt;Node5</title>
<g id="a_edge4_Node000004_Node000005"><a xlink:title=" ">
<path fill="none" stroke="#63b8ff" d="M425.23,-386.6C416.71,-360.31 389.3,-280.31 353,-221 347.11,-211.38 339.28,-201.62 332.34,-193.7"/>
<polygon fill="#63b8ff" stroke="#63b8ff" points="335.1,-191.53 325.79,-186.47 329.92,-196.23 335.1,-191.53"/>
</a>
</g>
</g>
<!-- Node14 -->
<g id="Node000014" class="node">
<title>Node14</title>
<g id="a_Node000014"><a xlink:href="su2hmc_8h.html" target="_top" xlink:title="Function declarations for most of the routines.">
<polygon fill="white" stroke="#666666" points="230,-350.75 172,-350.75 172,-331.5 230,-331.5 230,-350.75"/>
<text text-anchor="middle" x="201" y="-337.25" font-family="IBMPlexSans-Regular" font-size="10.00">su2hmc.h</text>
</a>
</g>
</g>
<!-- Node4&#45;&gt;Node14 -->
<g id="edge15_Node000004_Node000014" class="edge">
<title>Node4&#45;&gt;Node14</title>
<g id="a_edge15_Node000004_Node000014"><a xlink:title=" ">
<path fill="none" stroke="#63b8ff" d="M397.39,-388.19C357.09,-378.74 286.13,-362.09 241.45,-351.61"/>
<polygon fill="#63b8ff" stroke="#63b8ff" points="242.42,-348.25 231.88,-349.37 240.82,-355.06 242.42,-348.25"/>
</a>
</g>
</g>
<!-- Node6 -->
<g id="Node000006" class="node">
<title>Node6</title>
<g id="a_Node000006"><a xlink:href="coord_8h.html" target="_top" xlink:title="Header for routines related to lattice sites.">
<polygon fill="white" stroke="#666666" points="390.75,-129.75 343.25,-129.75 343.25,-110.5 390.75,-110.5 390.75,-129.75"/>
<text text-anchor="middle" x="367" y="-116.25" font-family="IBMPlexSans-Regular" font-size="10.00">coord.h</text>
</a>
</g>
</g>
<!-- Node5&#45;&gt;Node6 -->
<g id="edge5_Node000005_Node000006" class="edge">
<title>Node5&#45;&gt;Node6</title>
<g id="a_edge5_Node000005_Node000006"><a xlink:title=" ">
<path fill="none" stroke="#63b8ff" d="M324.42,-165.58C331.54,-158.15 341.94,-147.29 350.69,-138.16"/>
<polygon fill="#63b8ff" stroke="#63b8ff" points="352.96,-140.85 357.35,-131.2 347.9,-136 352.96,-140.85"/>
</a>
</g>
</g>
<!-- Node8 -->
<g id="Node000008" class="node">
<title>Node8</title>
<g id="a_Node000008"><a xlink:href="sizes_8h.html" target="_top" xlink:title="Defines the constants of the code and other parameters for loop dimensions. Each subroutine includes ...">
<polygon fill="white" stroke="#666666" points="307,-74.5 261,-74.5 261,-55.25 307,-55.25 307,-74.5"/>
<text text-anchor="middle" x="284" y="-61" font-family="IBMPlexSans-Regular" font-size="10.00">sizes.h</text>
</a>
</g>
</g>
<!-- Node5&#45;&gt;Node8 -->
<g id="edge10_Node000005_Node000008" class="edge">
<title>Node5&#45;&gt;Node8</title>
<g id="a_edge10_Node000005_Node000008"><a xlink:title=" ">
<path fill="none" stroke="#63b8ff" d="M313.38,-165.5C308.27,-148.17 296.86,-109.48 289.86,-85.74"/>
<polygon fill="#63b8ff" stroke="#63b8ff" points="293.27,-84.93 287.08,-76.33 286.55,-86.91 293.27,-84.93"/>
</a>
</g>
</g>
<!-- Node9 -->
<g id="Node000009" class="node">
<title>Node9</title>
<g id="a_Node000009"><a xlink:href="errorcodes_8h.html" target="_top" xlink:title="This header is intended to be a useful reference for error codes and their meanings.">
<polygon fill="white" stroke="#666666" points="477.62,-129.75 408.38,-129.75 408.38,-110.5 477.62,-110.5 477.62,-129.75"/>
<text text-anchor="middle" x="443" y="-116.25" font-family="IBMPlexSans-Regular" font-size="10.00">errorcodes.h</text>
</a>
</g>
</g>
<!-- Node5&#45;&gt;Node9 -->
<g id="edge9_Node000005_Node000009" class="edge">
<title>Node5&#45;&gt;Node9</title>
<g id="a_edge9_Node000005_Node000009"><a xlink:title=" ">
<path fill="none" stroke="#63b8ff" d="M337.54,-165.34C357.61,-156.93 387.8,-144.27 410.75,-134.65"/>
<polygon fill="#63b8ff" stroke="#63b8ff" points="412.09,-137.88 419.95,-130.79 409.38,-131.43 412.09,-137.88"/>
</a>
</g>
</g>
<!-- Node10 -->
<g id="Node000010" class="node">
<title>Node10</title>
<g id="a_Node000010"><a xlink:title=" ">
<polygon fill="#e0e0e0" stroke="#999999" points="286.5,-129.75 231.5,-129.75 231.5,-110.5 286.5,-110.5 286.5,-129.75"/>
<text text-anchor="middle" x="259" y="-116.25" font-family="IBMPlexSans-Regular" font-size="10.00">stdbool.h</text>
</a>
</g>
</g>
<!-- Node5&#45;&gt;Node10 -->
<g id="edge11_Node000005_Node000010" class="edge">
<title>Node5&#45;&gt;Node10</title>
<g id="a_edge11_Node000005_Node000010"><a xlink:title=" ">
<path fill="none" stroke="#63b8ff" d="M306.33,-165.34C298.26,-157.8 286.53,-146.85 276.78,-137.73"/>
<polygon fill="#63b8ff" stroke="#63b8ff" points="279.33,-135.33 269.63,-131.06 274.55,-140.44 279.33,-135.33"/>
</a>
</g>
</g>
<!-- Node11 -->
<g id="Node000011" class="node">
<title>Node11</title>
<g id="a_Node000011"><a xlink:title=" ">
<polygon fill="#e0e0e0" stroke="#999999" points="110.25,-129.75 65.75,-129.75 65.75,-110.5 110.25,-110.5 110.25,-129.75"/>
<text text-anchor="middle" x="88" y="-116.25" font-family="IBMPlexSans-Regular" font-size="10.00">stdio.h</text>
</a>
</g>
</g>
<!-- Node5&#45;&gt;Node11 -->
<g id="edge12_Node000005_Node000011" class="edge">
<title>Node5&#45;&gt;Node11</title>
<g id="a_edge12_Node000005_Node000011"><a xlink:title=" ">
<path fill="none" stroke="#63b8ff" d="M286.69,-168.08C250.32,-160.19 186.16,-145.99 121.5,-130.04"/>
<polygon fill="#63b8ff" stroke="#63b8ff" points="122.71,-126.74 112.17,-127.73 121.03,-133.53 122.71,-126.74"/>
</a>
</g>
</g>
<!-- Node12 -->
<g id="Node000012" class="node">
<title>Node12</title>
<g id="a_Node000012"><a xlink:title=" ">
<polygon fill="#e0e0e0" stroke="#999999" points="175.38,-129.75 128.62,-129.75 128.62,-110.5 175.38,-110.5 175.38,-129.75"/>
<text text-anchor="middle" x="152" y="-116.25" font-family="IBMPlexSans-Regular" font-size="10.00">stdlib.h</text>
</a>
</g>
</g>
<!-- Node5&#45;&gt;Node12 -->
<g id="edge13_Node000005_Node000012" class="edge">
<title>Node5&#45;&gt;Node12</title>
<g id="a_edge13_Node000005_Node000012"><a xlink:title=" ">
<path fill="none" stroke="#63b8ff" d="M288.18,-165.34C260.14,-156.24 216.81,-142.17 186.58,-132.35"/>
<polygon fill="#63b8ff" stroke="#63b8ff" points="187.72,-129.04 177.13,-129.28 185.56,-135.7 187.72,-129.04"/>
</a>
</g>
</g>
<!-- Node5&#45;&gt;Node13 -->
<g id="edge14_Node000005_Node000013" class="edge">
<title>Node5&#45;&gt;Node13</title>
<g id="a_edge14_Node000005_Node000013"><a xlink:title=" ">
<path fill="none" stroke="#63b8ff" d="M345.37,-166.79C377.25,-158.53 429.96,-144.84 483.76,-130.59"/>
<polygon fill="#63b8ff" stroke="#63b8ff" points="484.66,-133.98 493.43,-128.03 482.87,-127.21 484.66,-133.98"/>
</a>
</g>
</g>
<!-- Node7 -->
<g id="Node000007" class="node">
<title>Node7</title>
<g id="a_Node000007"><a xlink:title=" ">
<polygon fill="#e0e0e0" stroke="#999999" points="420.62,-74.5 375.38,-74.5 375.38,-55.25 420.62,-55.25 420.62,-74.5"/>
<text text-anchor="middle" x="398" y="-61" font-family="IBMPlexSans-Regular" font-size="10.00">math.h</text>
</a>
</g>
</g>
<!-- Node6&#45;&gt;Node7 -->
<g id="edge6_Node000006_Node000007" class="edge">
<title>Node6&#45;&gt;Node7</title>
<g id="a_edge6_Node000006_Node000007"><a xlink:title=" ">
<path fill="none" stroke="#63b8ff" d="M372.12,-110.33C376.18,-103.36 381.99,-93.37 387.09,-84.62"/>
<polygon fill="#63b8ff" stroke="#63b8ff" points="390,-86.57 392.01,-76.17 383.95,-83.05 390,-86.57"/>
</a>
</g>
</g>
<!-- Node6&#45;&gt;Node8 -->
<g id="edge7_Node000006_Node000008" class="edge">
<title>Node6&#45;&gt;Node8</title>
<g id="a_edge7_Node000006_Node000008"><a xlink:title=" ">
<path fill="none" stroke="#63b8ff" d="M352.92,-110.09C340.52,-102.14 322.21,-90.39 307.57,-81"/>
<polygon fill="#63b8ff" stroke="#63b8ff" points="309.73,-78.22 299.42,-75.77 305.95,-84.12 309.73,-78.22"/>
</a>
</g>
</g>
<!-- Node8&#45;&gt;Node3 -->
<g id="edge8_Node000008_Node000003" class="edge">
<title>Node8&#45;&gt;Node3</title>
<g id="a_edge8_Node000008_Node000003"><a xlink:title=" ">
<path fill="none" stroke="#63b8ff" d="M307.24,-55.79C332,-47.17 371.53,-33.41 400.46,-23.34"/>
<polygon fill="#63b8ff" stroke="#63b8ff" points="401.25,-26.77 409.55,-20.18 398.95,-20.16 401.25,-26.77"/>
</a>
</g>
</g>
<!-- Node14&#45;&gt;Node8 -->
<g id="edge24_Node000014_Node000008" class="edge">
<title>Node14&#45;&gt;Node8</title>
<g id="a_edge24_Node000014_Node000008"><a xlink:title=" ">
<path fill="none" stroke="#63b8ff" d="M171.77,-337.7C116.03,-331.31 0,-308.75 0,-231.62 0,-231.62 0,-231.62 0,-174.38 0,-140.4 13.69,-129.28 42,-110.5 75.56,-88.24 190.92,-74.56 249.41,-68.9"/>
<polygon fill="#63b8ff" stroke="#63b8ff" points="249.51,-72.41 259.14,-67.99 248.85,-65.44 249.51,-72.41"/>
</a>
</g>
</g>
<!-- Node14&#45;&gt;Node9 -->
<g id="edge16_Node000014_Node000009" class="edge">
<title>Node14&#45;&gt;Node9</title>
<g id="a_edge16_Node000014_Node000009"><a xlink:title=" ">
<path fill="none" stroke="#63b8ff" d="M230.43,-332.62C253.67,-325.68 286.05,-313.67 310,-295.5 368.3,-251.27 414.03,-175.16 433.2,-139.98"/>
<polygon fill="#63b8ff" stroke="#63b8ff" points="436.15,-141.89 437.76,-131.42 429.97,-138.6 436.15,-141.89"/>
</a>
</g>
</g>
<!-- Node14&#45;&gt;Node11 -->
<g id="edge25_Node000014_Node000011" class="edge">
<title>Node14&#45;&gt;Node11</title>
<g id="a_edge25_Node000014_Node000011"><a xlink:title=" ">
<path fill="none" stroke="#63b8ff" d="M191.43,-331.3C182.63,-322.79 169.67,-309.22 161,-295.5 128.19,-243.59 104.35,-174.42 93.89,-140.94"/>
<polygon fill="#63b8ff" stroke="#63b8ff" points="97.25,-139.96 90.99,-131.42 90.55,-142 97.25,-139.96"/>
</a>
</g>
</g>
<!-- Node14&#45;&gt;Node12 -->
<g id="edge26_Node000014_Node000012" class="edge">
<title>Node14&#45;&gt;Node12</title>
<g id="a_edge26_Node000014_Node000012"><a xlink:title=" ">
<path fill="none" stroke="#63b8ff" d="M193.13,-331.28C186.04,-322.76 176,-309.18 171,-295.5 151.63,-242.47 150.35,-174.8 151.12,-141.5"/>
<polygon fill="#63b8ff" stroke="#63b8ff" points="154.61,-141.8 151.44,-131.69 147.61,-141.56 154.61,-141.8"/>
</a>
</g>
</g>
<!-- Node15 -->
<g id="Node000015" class="node">
<title>Node15</title>
<g id="a_Node000015"><a xlink:href="integrate_8h.html" target="_top" xlink:title="Integrators for the HMC.">
<polygon fill="white" stroke="#666666" points="301.5,-295.5 240.5,-295.5 240.5,-276.25 301.5,-276.25 301.5,-295.5"/>
<text text-anchor="middle" x="271" y="-282" font-family="IBMPlexSans-Regular" font-size="10.00">integrate.h</text>
</a>
</g>
</g>
<!-- Node14&#45;&gt;Node15 -->
<g id="edge17_Node000014_Node000015" class="edge">
<title>Node14&#45;&gt;Node15</title>
<g id="a_edge17_Node000014_Node000015"><a xlink:title=" ">
<path fill="none" stroke="#63b8ff" d="M212.87,-331.09C223.09,-323.32 238.07,-311.92 250.26,-302.65"/>
<polygon fill="#63b8ff" stroke="#63b8ff" points="252.26,-305.53 258.1,-296.69 248.02,-299.96 252.26,-305.53"/>
</a>
</g>
</g>
<!-- Node17 -->
<g id="Node000017" class="node">
<title>Node17</title>
<g id="a_Node000017"><a xlink:title=" ">
<polygon fill="#e0e0e0" stroke="#999999" points="222.12,-295.5 179.88,-295.5 179.88,-276.25 222.12,-276.25 222.12,-295.5"/>
<text text-anchor="middle" x="201" y="-282" font-family="IBMPlexSans-Regular" font-size="10.00">time.h</text>
</a>
</g>
</g>
<!-- Node14&#45;&gt;Node17 -->
<g id="edge27_Node000014_Node000017" class="edge">
<title>Node14&#45;&gt;Node17</title>
<g id="a_edge27_Node000014_Node000017"><a xlink:title=" ">
<path fill="none" stroke="#63b8ff" d="M201,-331.33C201,-324.82 201,-315.67 201,-307.37"/>
<polygon fill="#63b8ff" stroke="#63b8ff" points="204.5,-307.37 201,-297.37 197.5,-307.37 204.5,-307.37"/>
</a>
</g>
</g>
<!-- Node15&#45;&gt;Node8 -->
<g id="edge23_Node000015_Node000008" class="edge">
<title>Node15&#45;&gt;Node8</title>
<g id="a_edge23_Node000015_Node000008"><a xlink:title=" ">
<path fill="none" stroke="#63b8ff" d="M241.21,-275.82C168.93,-252.39 -5.34,-186.28 57,-110.5 80.94,-81.4 191.75,-70.98 249.22,-67.5"/>
<polygon fill="#63b8ff" stroke="#63b8ff" points="249.32,-71 259.11,-66.94 248.93,-64.01 249.32,-71"/>
</a>
</g>
</g>
<!-- Node15&#45;&gt;Node10 -->
<g id="edge18_Node000015_Node000010" class="edge">
<title>Node15&#45;&gt;Node10</title>
<g id="a_edge18_Node000015_Node000010"><a xlink:title=" ">
<path fill="none" stroke="#63b8ff" d="M270.35,-276.07C268.5,-250.75 263.11,-177.25 260.48,-141.34"/>
<polygon fill="#63b8ff" stroke="#63b8ff" points="263.98,-141.2 259.76,-131.48 257,-141.71 263.98,-141.2"/>
</a>
</g>
</g>
<!-- Node16 -->
<g id="Node000016" class="node">
<title>Node16</title>
<g id="a_Node000016"><a xlink:href="random_8h.html" target="_top" xlink:title="Header for random number configuration.">
<polygon fill="white" stroke="#666666" points="343.88,-240.25 288.12,-240.25 288.12,-221 343.88,-221 343.88,-240.25"/>
<text text-anchor="middle" x="316" y="-226.75" font-family="IBMPlexSans-Regular" font-size="10.00">random.h</text>
</a>
</g>
</g>
<!-- Node15&#45;&gt;Node16 -->
<g id="edge19_Node000015_Node000016" class="edge">
<title>Node15&#45;&gt;Node16</title>
<g id="a_edge19_Node000015_Node000016"><a xlink:title=" ">
<path fill="none" stroke="#63b8ff" d="M278.43,-276.08C284.58,-268.8 293.51,-258.23 301.13,-249.23"/>
<polygon fill="#63b8ff" stroke="#63b8ff" points="303.65,-251.66 307.43,-241.77 298.3,-247.14 303.65,-251.66"/>
</a>
</g>
</g>
<!-- Node16&#45;&gt;Node5 -->
<g id="edge21_Node000016_Node000005" class="edge">
<title>Node16&#45;&gt;Node5</title>
<g id="a_edge21_Node000016_Node000005"><a xlink:title=" ">
<path fill="none" stroke="#63b8ff" d="M316,-220.83C316,-214.32 316,-205.17 316,-196.87"/>
<polygon fill="#63b8ff" stroke="#63b8ff" points="319.5,-196.87 316,-186.87 312.5,-196.87 319.5,-196.87"/>
</a>
</g>
</g>
<!-- Node16&#45;&gt;Node7 -->
<g id="edge20_Node000016_Node000007" class="edge">
<title>Node16&#45;&gt;Node7</title>
<g id="a_edge20_Node000016_Node000007"><a xlink:title=" ">
<path fill="none" stroke="#63b8ff" d="M344.03,-227.37C395.66,-221.53 504.81,-200.96 552,-129.75 581.8,-84.77 486.56,-71.43 432.57,-67.5"/>
<polygon fill="#63b8ff" stroke="#63b8ff" points="432.81,-64.01 422.61,-66.86 432.36,-70.99 432.81,-64.01"/>
</a>
</g>
</g>
<!-- Node16&#45;&gt;Node8 -->
<g id="edge22_Node000016_Node000008" class="edge">
<title>Node16&#45;&gt;Node8</title>
<g id="a_edge22_Node000016_Node000008"><a xlink:title=" ">
<path fill="none" stroke="#63b8ff" d="M302.42,-220.54C280.55,-204.99 238.33,-170.92 222,-129.75 218.85,-121.8 218.1,-118.11 222,-110.5 228.61,-97.59 240.89,-87.57 252.79,-80.32"/>
<polygon fill="#63b8ff" stroke="#63b8ff" points="254.2,-83.54 261.24,-75.62 250.8,-77.42 254.2,-83.54"/>
</a>
</g>
</g>
</g>
</svg>
