<?xml version="1.0" encoding="UTF-8" standalone="no"?>
<!DOCTYPE svg PUBLIC "-//W3C//DTD SVG 1.1//EN"
 "http://www.w3.org/Graphics/SVG/1.1/DTD/svg11.dtd">
<!-- Generated by graphviz version 11.0.0 (20240428.1522)
 -->
<!-- Title: Hdslashd_f Pages: 1 -->
<svg width="348pt" height="138pt"
 viewBox="0.00 0.00 348.00 138.25" xmlns="http://www.w3.org/2000/svg" xmlns:xlink="http://www.w3.org/1999/xlink">
<g id="graph0" class="graph" transform="scale(1 1) rotate(0) translate(4 134.25)">
<title>Hdslashd_f</title>
<!-- Node1 -->
<g id="Node000001" class="node">
<title>Node1</title>
<g id="a_Node000001"><a xlink:title="Evaluates &#160;in single precision.">
<polygon fill="#999999" stroke="#666666" points="340,-55.25 274.5,-55.25 274.5,-36 340,-36 340,-55.25"/>
<text text-anchor="middle" x="307.25" y="-41.75" font-family="IBMPlexSans-Regular" font-size="10.00">Hdslashd_f</text>
</a>
</g>
</g>
<!-- Node2 -->
<g id="Node000002" class="node">
<title>Node2</title>
<g id="a_Node000002"><a xlink:href="congrad_8c.html#aa32f0774e38a36310209b44a2abae8e6" target="_top" xlink:title="Matrix Inversion via Conjugate Gradient (up/down flavour partitioning). Solves &#160;Implements up/down pa...">
<polygon fill="white" stroke="#666666" points="238.5,-55.25 181.25,-55.25 181.25,-36 238.5,-36 238.5,-55.25"/>
<text text-anchor="middle" x="209.88" y="-41.75" font-family="IBMPlexSans-Regular" font-size="10.00">Congradq</text>
</a>
</g>
</g>
<!-- Node1&#45;&gt;Node2 -->
<g id="edge1_Node000001_Node000002" class="edge">
<title>Node1&#45;&gt;Node2</title>
<g id="a_edge1_Node000001_Node000002"><a xlink:title=" ">
<path fill="none" stroke="#63b8ff" d="M262.88,-45.62C254.71,-45.62 246.36,-45.62 238.82,-45.62"/>
<polygon fill="#63b8ff" stroke="#63b8ff" points="262.71,-49.13 272.71,-45.63 262.71,-42.13 262.71,-49.13"/>
</a>
</g>
</g>
<!-- Node3 -->
<g id="Node000003" class="node">
<title>Node3</title>
<g id="a_Node000003"><a xlink:href="force_8c.html#a40e5951024b2de0086a5f878963c6bae" target="_top" xlink:title="Calculates the force &#160;at each intermediate time.">
<polygon fill="white" stroke="#666666" points="138.12,-83.25 97.38,-83.25 97.38,-64 138.12,-64 138.12,-83.25"/>
<text text-anchor="middle" x="117.75" y="-69.75" font-family="IBMPlexSans-Regular" font-size="10.00">Force</text>
</a>
</g>
</g>
<!-- Node2&#45;&gt;Node3 -->
<g id="edge2_Node000002_Node000003" class="edge">
<title>Node2&#45;&gt;Node3</title>
<g id="a_edge2_Node000002_Node000003"><a xlink:title=" ">
<path fill="none" stroke="#63b8ff" d="M170.18,-57.65C159.23,-61.05 147.78,-64.61 138.46,-67.5"/>
<polygon fill="#63b8ff" stroke="#63b8ff" points="170.9,-61.09 179.41,-54.78 168.82,-54.4 170.9,-61.09"/>
</a>
</g>
</g>
<!-- Node7 -->
<g id="Node000007" class="node">
<title>Node7</title>
<g id="a_Node000007"><a xlink:href="su2hmc_8c.html#a73e6186c40491d6f550404b8e975adff" target="_top" xlink:title="Calculate the Hamiltonian.">
<polygon fill="white" stroke="#666666" points="145.25,-37.25 90.25,-37.25 90.25,-18 145.25,-18 145.25,-37.25"/>
<text text-anchor="middle" x="117.75" y="-23.75" font-family="IBMPlexSans-Regular" font-size="10.00">Hamilton</text>
</a>
</g>
</g>
<!-- Node2&#45;&gt;Node7 -->
<g id="edge6_Node000002_Node000007" class="edge">
<title>Node2&#45;&gt;Node7</title>
<g id="a_edge6_Node000002_Node000007"><a xlink:title=" ">
<path fill="none" stroke="#63b8ff" d="M169.63,-37.79C161.49,-36.16 153.09,-34.48 145.52,-32.97"/>
<polygon fill="#63b8ff" stroke="#63b8ff" points="168.88,-41.21 179.37,-39.73 170.25,-34.34 168.88,-41.21"/>
</a>
</g>
</g>
<!-- Node4 -->
<g id="Node000004" class="node">
<title>Node4</title>
<g id="a_Node000004"><a xlink:href="integrate_8c.html#ae4e13e66dc0e7130825c11648f2ad80c" target="_top" xlink:title="Leapfrog integrator. Each trajectory step takes the form of p&#45;&gt;p+dt/2,u&#45;&gt;u+dt,p&#45;&gt;p+dt/2 In practice t...">
<polygon fill="white" stroke="#666666" points="54.25,-130.25 0,-130.25 0,-111 54.25,-111 54.25,-130.25"/>
<text text-anchor="middle" x="27.12" y="-116.75" font-family="IBMPlexSans-Regular" font-size="10.00">Leapfrog</text>
</a>
</g>
</g>
<!-- Node3&#45;&gt;Node4 -->
<g id="edge3_Node000003_Node000004" class="edge">
<title>Node3&#45;&gt;Node4</title>
<g id="a_edge3_Node000003_Node000004"><a xlink:title=" ">
<path fill="none" stroke="#63b8ff" d="M87.83,-88.96C74.5,-96.03 59.04,-104.23 47.2,-110.51"/>
<polygon fill="#63b8ff" stroke="#63b8ff" points="89.42,-92.08 96.62,-84.3 86.14,-85.89 89.42,-92.08"/>
</a>
</g>
</g>
<!-- Node5 -->
<g id="Node000005" class="node">
<title>Node5</title>
<g id="a_Node000005"><a xlink:href="integrate_8c.html#a44f16170b5e3c92646f2e649ee57da3d" target="_top" xlink:title="OMF integrator. Each trajectory step takes the form of p&#45;&gt;p+dt/2,u&#45;&gt;u+dt,p&#45;&gt;p+dt/2 In practice this i...">
<polygon fill="white" stroke="#666666" points="48.62,-93.25 5.62,-93.25 5.62,-74 48.62,-74 48.62,-93.25"/>
<text text-anchor="middle" x="27.12" y="-79.75" font-family="IBMPlexSans-Regular" font-size="10.00">OMF2</text>
</a>
</g>
</g>
<!-- Node3&#45;&gt;Node5 -->
<g id="edge4_Node000003_Node000005" class="edge">
<title>Node3&#45;&gt;Node5</title>
<g id="a_edge4_Node000003_Node000005"><a xlink:title=" ">
<path fill="none" stroke="#63b8ff" d="M85.96,-77.1C73.74,-78.48 60,-80.03 48.97,-81.27"/>
<polygon fill="#63b8ff" stroke="#63b8ff" points="86.03,-80.61 95.58,-76.01 85.25,-73.66 86.03,-80.61"/>
</a>
</g>
</g>
<!-- Node6 -->
<g id="Node000006" class="node">
<title>Node6</title>
<g id="a_Node000006"><a xlink:href="integrate_8c.html#a5bbed189bcdd47d814585aa7e842bb8e" target="_top" xlink:title=" ">
<polygon fill="white" stroke="#666666" points="48.62,-56.25 5.62,-56.25 5.62,-37 48.62,-37 48.62,-56.25"/>
<text text-anchor="middle" x="27.12" y="-42.75" font-family="IBMPlexSans-Regular" font-size="10.00">OMF4</text>
</a>
</g>
</g>
<!-- Node3&#45;&gt;Node6 -->
<g id="edge5_Node000003_Node000006" class="edge">
<title>Node3&#45;&gt;Node6</title>
<g id="a_edge5_Node000003_Node000006"><a xlink:title=" ">
<path fill="none" stroke="#63b8ff" d="M86.34,-64.36C74.02,-60.61 60.11,-56.37 48.97,-52.98"/>
<polygon fill="#63b8ff" stroke="#63b8ff" points="85.05,-67.63 95.63,-67.19 87.09,-60.93 85.05,-67.63"/>
</a>
</g>
</g>
<!-- Node8 -->
<g id="Node000008" class="node">
<title>Node8</title>
<g id="a_Node000008"><a xlink:href="main_8c.html#a0ddf1224851353fc92bfbff6f499fa97" target="_top" xlink:title=" ">
<polygon fill="white" stroke="#666666" points="45.62,-19.25 8.62,-19.25 8.62,0 45.62,0 45.62,-19.25"/>
<text text-anchor="middle" x="27.12" y="-5.75" font-family="IBMPlexSans-Regular" font-size="10.00">main</text>
</a>
</g>
</g>
<!-- Node7&#45;&gt;Node8 -->
<g id="edge7_Node000007_Node000008" class="edge">
<title>Node7&#45;&gt;Node8</title>
<g id="a_edge7_Node000007_Node000008"><a xlink:title=" ">
<path fill="none" stroke="#63b8ff" d="M79.02,-19.96C67.56,-17.63 55.5,-15.19 46,-13.26"/>
<polygon fill="#63b8ff" stroke="#63b8ff" points="78.18,-23.36 88.68,-21.92 79.57,-16.5 78.18,-23.36"/>
</a>
</g>
</g>
</g>
</svg>
