<?xml version="1.0" encoding="UTF-8" standalone="no"?>
<!DOCTYPE svg PUBLIC "-//W3C//DTD SVG 1.1//EN"
 "http://www.w3.org/Graphics/SVG/1.1/DTD/svg11.dtd">
<!-- Generated by graphviz version 12.1.2 (20240928.0832)
 -->
<!-- Title: Reunitarise Pages: 1 -->
<svg width="280pt" height="192pt"
 viewBox="0.00 0.00 280.25 192.25" xmlns="http://www.w3.org/2000/svg" xmlns:xlink="http://www.w3.org/1999/xlink">
<g id="graph0" class="graph" transform="scale(1 1) rotate(0) translate(4 188.25)">
<title>Reunitarise</title>
<!-- Node1 -->
<g id="Node000001" class="node">
<title>Node1</title>
<g id="a_Node000001"><a xlink:title="Reunitarises u11t and u12t as in conj(u11t[i])*u11t[i]+conj(u12t[i])*u12t[i]=1.">
<polygon fill="#999999" stroke="#666666" points="272.25,-57.25 207.5,-57.25 207.5,-38 272.25,-38 272.25,-57.25"/>
<text text-anchor="middle" x="239.88" y="-43.75" font-family="IBMPlexSans-Regular" font-size="10.00">Reunitarise</text>
</a>
</g>
</g>
<!-- Node2 -->
<g id="Node000002" class="node">
<title>Node2</title>
<g id="a_Node000002"><a xlink:href="integrate_8c.html#aad98b6e55d3f033e15cffc5b53b173ee" target="_top" xlink:title="Gauge update for the integration step of the HMC.">
<polygon fill="white" stroke="#666666" points="171.5,-102.25 90.25,-102.25 90.25,-83 171.5,-83 171.5,-102.25"/>
<text text-anchor="middle" x="130.88" y="-88.75" font-family="IBMPlexSans-Regular" font-size="10.00">Gauge_Update</text>
</a>
</g>
</g>
<!-- Node1&#45;&gt;Node2 -->
<g id="edge1_Node000001_Node000002" class="edge">
<title>Node1&#45;&gt;Node2</title>
<g id="a_edge1_Node000001_Node000002"><a xlink:title=" ">
<path fill="none" stroke="#63b8ff" d="M204.38,-62.13C188.52,-68.8 170.11,-76.54 155.81,-82.56"/>
<polygon fill="#63b8ff" stroke="#63b8ff" points="205.61,-65.41 213.47,-58.31 202.89,-58.96 205.61,-65.41"/>
</a>
</g>
</g>
<!-- Node6 -->
<g id="Node000006" class="node">
<title>Node6</title>
<g id="a_Node000006"><a xlink:href="su2hmc_8c.html#a1fbc1cb0a07d63c39d8cff966a534d09" target="_top" xlink:title="Initialises the system.">
<polygon fill="white" stroke="#666666" points="145.62,-57.25 116.12,-57.25 116.12,-38 145.62,-38 145.62,-57.25"/>
<text text-anchor="middle" x="130.88" y="-43.75" font-family="IBMPlexSans-Regular" font-size="10.00">Init</text>
</a>
</g>
</g>
<!-- Node1&#45;&gt;Node6 -->
<g id="edge9_Node000001_Node000006" class="edge">
<title>Node1&#45;&gt;Node6</title>
<g id="a_edge9_Node000001_Node000006"><a xlink:title=" ">
<path fill="none" stroke="#63b8ff" d="M195.7,-47.62C177.94,-47.62 158.6,-47.62 145.92,-47.62"/>
<polygon fill="#63b8ff" stroke="#63b8ff" points="195.55,-51.13 205.55,-47.63 195.55,-44.13 195.55,-51.13"/>
</a>
</g>
</g>
<!-- Node7 -->
<g id="Node000007" class="node">
<title>Node7</title>
<g id="a_Node000007"><a xlink:href="main_8c.html#a0ddf1224851353fc92bfbff6f499fa97" target="_top" xlink:title=" ">
<polygon fill="white" stroke="#666666" points="45.62,-19.25 8.62,-19.25 8.62,0 45.62,0 45.62,-19.25"/>
<text text-anchor="middle" x="27.12" y="-5.75" font-family="IBMPlexSans-Regular" font-size="10.00">main</text>
</a>
</g>
</g>
<!-- Node1&#45;&gt;Node7 -->
<g id="edge11_Node000001_Node000007" class="edge">
<title>Node1&#45;&gt;Node7</title>
<g id="a_edge11_Node000001_Node000007"><a xlink:title=" ">
<path fill="none" stroke="#63b8ff" d="M196.35,-34.64C188.16,-32.42 179.6,-30.3 171.5,-28.62 126.74,-19.4 73.16,-13.69 45.92,-11.16"/>
<polygon fill="#63b8ff" stroke="#63b8ff" points="195.2,-37.95 205.77,-37.28 197.09,-31.21 195.2,-37.95"/>
</a>
</g>
</g>
<!-- Node2&#45;&gt;Node2 -->
<g id="edge2_Node000002_Node000002" class="edge">
<title>Node2&#45;&gt;Node2</title>
<g id="a_edge2_Node000002_Node000002"><a xlink:title=" ">
<path fill="none" stroke="#63b8ff" d="M149.29,-113.65C146.99,-117.53 140.85,-120.25 130.88,-120.25 112.64,-120.25 107.22,-111.15 114.63,-102.54"/>
<polygon fill="#63b8ff" stroke="#63b8ff" points="152.76,-113.17 147.41,-104.02 145.89,-114.51 152.76,-113.17"/>
</a>
</g>
</g>
<!-- Node3 -->
<g id="Node000003" class="node">
<title>Node3</title>
<g id="a_Node000003"><a xlink:href="integrate_8c.html#ae4e13e66dc0e7130825c11648f2ad80c" target="_top" xlink:title="Leapfrog integrator. Each trajectory step takes the form of p&#45;&gt;p+dt/2,u&#45;&gt;u+dt,p&#45;&gt;p+dt/2 In practice t...">
<polygon fill="white" stroke="#666666" points="54.25,-166.25 0,-166.25 0,-147 54.25,-147 54.25,-166.25"/>
<text text-anchor="middle" x="27.12" y="-152.75" font-family="IBMPlexSans-Regular" font-size="10.00">Leapfrog</text>
</a>
</g>
</g>
<!-- Node2&#45;&gt;Node3 -->
<g id="edge3_Node000002_Node000003" class="edge">
<title>Node2&#45;&gt;Node3</title>
<g id="a_edge3_Node000002_Node000003"><a xlink:title=" ">
<path fill="none" stroke="#63b8ff" d="M104.44,-108.62C85.44,-120.57 60.07,-136.53 43.91,-146.7"/>
<polygon fill="#63b8ff" stroke="#63b8ff" points="106.09,-111.72 112.7,-103.43 102.37,-105.79 106.09,-111.72"/>
</a>
</g>
</g>
<!-- Node4 -->
<g id="Node000004" class="node">
<title>Node4</title>
<g id="a_Node000004"><a xlink:href="integrate_8c.html#a44f16170b5e3c92646f2e649ee57da3d" target="_top" xlink:title="OMF integrator. Each trajectory step takes the form of p&#45;&gt;p+dt/2,u&#45;&gt;u+dt,p&#45;&gt;p+dt/2 In practice this i...">
<polygon fill="white" stroke="#666666" points="48.62,-111.25 5.62,-111.25 5.62,-92 48.62,-92 48.62,-111.25"/>
<text text-anchor="middle" x="27.12" y="-97.75" font-family="IBMPlexSans-Regular" font-size="10.00">OMF2</text>
</a>
</g>
</g>
<!-- Node2&#45;&gt;Node4 -->
<g id="edge5_Node000002_Node000004" class="edge">
<title>Node2&#45;&gt;Node4</title>
<g id="a_edge5_Node000002_Node000004"><a xlink:title=" ">
<path fill="none" stroke="#63b8ff" d="M78.61,-97.16C68.09,-98.09 57.59,-99.02 48.91,-99.79"/>
<polygon fill="#63b8ff" stroke="#63b8ff" points="78.79,-100.66 88.45,-96.29 78.18,-93.68 78.79,-100.66"/>
</a>
</g>
</g>
<!-- Node5 -->
<g id="Node000005" class="node">
<title>Node5</title>
<g id="a_Node000005"><a xlink:href="integrate_8c.html#a5bbed189bcdd47d814585aa7e842bb8e" target="_top" xlink:title=" ">
<polygon fill="white" stroke="#666666" points="48.62,-56.25 5.62,-56.25 5.62,-37 48.62,-37 48.62,-56.25"/>
<text text-anchor="middle" x="27.12" y="-42.75" font-family="IBMPlexSans-Regular" font-size="10.00">OMF4</text>
</a>
</g>
</g>
<!-- Node2&#45;&gt;Node5 -->
<g id="edge7_Node000002_Node000005" class="edge">
<title>Node2&#45;&gt;Node5</title>
<g id="a_edge7_Node000002_Node000005"><a xlink:title=" ">
<path fill="none" stroke="#63b8ff" d="M97.13,-77.82C81.34,-70.68 62.87,-62.33 49.01,-56.07"/>
<polygon fill="#63b8ff" stroke="#63b8ff" points="95.61,-80.98 106.17,-81.91 98.5,-74.6 95.61,-80.98"/>
</a>
</g>
</g>
<!-- Node3&#45;&gt;Node3 -->
<g id="edge4_Node000003_Node000003" class="edge">
<title>Node3&#45;&gt;Node3</title>
<g id="a_edge4_Node000003_Node000003"><a xlink:title=" ">
<path fill="none" stroke="#63b8ff" d="M45.54,-177.65C43.24,-181.53 37.1,-184.25 27.12,-184.25 8.89,-184.25 3.47,-175.15 10.88,-166.54"/>
<polygon fill="#63b8ff" stroke="#63b8ff" points="49.01,-177.17 43.66,-168.02 42.14,-178.51 49.01,-177.17"/>
</a>
</g>
</g>
<!-- Node4&#45;&gt;Node4 -->
<g id="edge6_Node000004_Node000004" class="edge">
<title>Node4&#45;&gt;Node4</title>
<g id="a_edge6_Node000004_Node000004"><a xlink:title=" ">
<path fill="none" stroke="#63b8ff" d="M45.54,-122.65C43.24,-126.53 37.1,-129.25 27.12,-129.25 8.89,-129.25 3.47,-120.15 10.88,-111.54"/>
<polygon fill="#63b8ff" stroke="#63b8ff" points="49.01,-122.17 43.66,-113.02 42.14,-123.51 49.01,-122.17"/>
</a>
</g>
</g>
<!-- Node5&#45;&gt;Node5 -->
<g id="edge8_Node000005_Node000005" class="edge">
<title>Node5&#45;&gt;Node5</title>
<g id="a_edge8_Node000005_Node000005"><a xlink:title=" ">
<path fill="none" stroke="#63b8ff" d="M45.54,-67.65C43.24,-71.53 37.1,-74.25 27.12,-74.25 8.89,-74.25 3.47,-65.15 10.88,-56.54"/>
<polygon fill="#63b8ff" stroke="#63b8ff" points="49.01,-67.17 43.66,-58.02 42.14,-68.51 49.01,-67.17"/>
</a>
</g>
</g>
<!-- Node6&#45;&gt;Node7 -->
<g id="edge10_Node000006_Node000007" class="edge">
<title>Node6&#45;&gt;Node7</title>
<g id="a_edge10_Node000006_Node000007"><a xlink:title=" ">
<path fill="none" stroke="#63b8ff" d="M105,-38.33C86.7,-31.5 62.28,-22.38 45.91,-16.27"/>
<polygon fill="#63b8ff" stroke="#63b8ff" points="103.72,-41.59 114.31,-41.81 106.17,-35.03 103.72,-41.59"/>
</a>
</g>
</g>
</g>
</svg>
