<?xml version="1.0" encoding="UTF-8" standalone="no"?>
<!DOCTYPE svg PUBLIC "-//W3C//DTD SVG 1.1//EN"
 "http://www.w3.org/Graphics/SVG/1.1/DTD/svg11.dtd">
<!-- Generated by graphviz version 12.2.1 (20241206.2353)
 -->
<!-- Title: INCLUDE/matrices.h Pages: 1 -->
<svg width="722pt" height="83pt"
 viewBox="0.00 0.00 721.50 82.50" xmlns="http://www.w3.org/2000/svg" xmlns:xlink="http://www.w3.org/1999/xlink">
<g id="graph0" class="graph" transform="scale(1 1) rotate(0) translate(4 78.5)">
<title>INCLUDE/matrices.h</title>
<!-- Node1 -->
<g id="Node000001" class="node">
<title>Node1</title>
<g id="a_Node000001"><a xlink:title="Matrix multiplication and related declarations.">
<polygon fill="#999999" stroke="#666666" points="377,-74.5 269.5,-74.5 269.5,-55.25 377,-55.25 377,-74.5"/>
<text text-anchor="middle" x="323.25" y="-61" font-family="IBMPlexSans-Regular" font-size="10.00">INCLUDE/matrices.h</text>
</a>
</g>
</g>
<!-- Node2 -->
<g id="Node000002" class="node">
<title>Node2</title>
<g id="a_Node000002"><a xlink:href="main_8c.html" target="_top" xlink:title="Hybrid Monte Carlo algorithm for Two Colour QCD with Wilson&#45;Gor&#39;kov fermions based on the algorithm o...">
<polygon fill="white" stroke="#666666" points="44.5,-19.25 0,-19.25 0,0 44.5,0 44.5,-19.25"/>
<text text-anchor="middle" x="22.25" y="-5.75" font-family="IBMPlexSans-Regular" font-size="10.00">main.c</text>
</a>
</g>
</g>
<!-- Node1&#45;&gt;Node2 -->
<g id="edge1_Node000001_Node000002" class="edge">
<title>Node1&#45;&gt;Node2</title>
<g id="a_edge1_Node000001_Node000002"><a xlink:title=" ">
<path fill="none" stroke="#63b8ff" d="M257.83,-54.87C203.15,-46.9 123.25,-34.23 54.25,-19.25 51.21,-18.59 48.03,-17.83 44.91,-17.03"/>
<polygon fill="#63b8ff" stroke="#63b8ff" points="257.21,-58.32 267.61,-56.28 258.21,-51.39 257.21,-58.32"/>
</a>
</g>
</g>
<!-- Node3 -->
<g id="Node000003" class="node">
<title>Node3</title>
<g id="a_Node000003"><a xlink:href="congrad_8c.html" target="_top" xlink:title="Conjugate gradients. Congradq for the solver and Congradp for the inversion.">
<polygon fill="white" stroke="#666666" points="179.5,-19.25 63,-19.25 63,0 179.5,0 179.5,-19.25"/>
<text text-anchor="middle" x="121.25" y="-5.75" font-family="IBMPlexSans-Regular" font-size="10.00">production_c/congrad.c</text>
</a>
</g>
</g>
<!-- Node1&#45;&gt;Node3 -->
<g id="edge2_Node000001_Node000003" class="edge">
<title>Node1&#45;&gt;Node3</title>
<g id="a_edge2_Node000001_Node000003"><a xlink:title=" ">
<path fill="none" stroke="#63b8ff" d="M278,-51.95C240.98,-42.19 189.41,-28.59 155.68,-19.7"/>
<polygon fill="#63b8ff" stroke="#63b8ff" points="276.96,-55.29 287.52,-54.46 278.74,-48.52 276.96,-55.29"/>
</a>
</g>
</g>
<!-- Node4 -->
<g id="Node000004" class="node">
<title>Node4</title>
<g id="a_Node000004"><a xlink:href="fermionic_8c.html" target="_top" xlink:title="Code for fermionic observables.">
<polygon fill="white" stroke="#666666" points="319.12,-19.25 197.38,-19.25 197.38,0 319.12,0 319.12,-19.25"/>
<text text-anchor="middle" x="258.25" y="-5.75" font-family="IBMPlexSans-Regular" font-size="10.00">production_c/fermionic.c</text>
</a>
</g>
</g>
<!-- Node1&#45;&gt;Node4 -->
<g id="edge3_Node000001_Node000004" class="edge">
<title>Node1&#45;&gt;Node4</title>
<g id="a_edge3_Node000001_Node000004"><a xlink:title=" ">
<path fill="none" stroke="#63b8ff" d="M303.46,-47.66C292.17,-38.42 278.46,-27.18 269.11,-19.52"/>
<polygon fill="#63b8ff" stroke="#63b8ff" points="301.1,-50.25 311.05,-53.88 305.54,-44.84 301.1,-50.25"/>
</a>
</g>
</g>
<!-- Node5 -->
<g id="Node000005" class="node">
<title>Node5</title>
<g id="a_Node000005"><a xlink:href="force_8c.html" target="_top" xlink:title="Code for force calculations.">
<polygon fill="white" stroke="#666666" points="441.12,-19.25 337.38,-19.25 337.38,0 441.12,0 441.12,-19.25"/>
<text text-anchor="middle" x="389.25" y="-5.75" font-family="IBMPlexSans-Regular" font-size="10.00">production_c/force.c</text>
</a>
</g>
</g>
<!-- Node1&#45;&gt;Node5 -->
<g id="edge4_Node000001_Node000005" class="edge">
<title>Node1&#45;&gt;Node5</title>
<g id="a_edge4_Node000001_Node000005"><a xlink:title=" ">
<path fill="none" stroke="#63b8ff" d="M343.34,-47.66C354.8,-38.42 368.73,-27.18 378.22,-19.52"/>
<polygon fill="#63b8ff" stroke="#63b8ff" points="341.21,-44.89 335.62,-53.89 345.6,-50.34 341.21,-44.89"/>
</a>
</g>
</g>
<!-- Node6 -->
<g id="Node000006" class="node">
<title>Node6</title>
<g id="a_Node000006"><a xlink:href="matrices_8c.html" target="_top" xlink:title="Matrix multiplication and related routines.">
<polygon fill="white" stroke="#666666" points="579,-19.25 459.5,-19.25 459.5,0 579,0 579,-19.25"/>
<text text-anchor="middle" x="519.25" y="-5.75" font-family="IBMPlexSans-Regular" font-size="10.00">production_c/matrices.c</text>
</a>
</g>
</g>
<!-- Node1&#45;&gt;Node6 -->
<g id="edge5_Node000001_Node000006" class="edge">
<title>Node1&#45;&gt;Node6</title>
<g id="a_edge5_Node000001_Node000006"><a xlink:title=" ">
<path fill="none" stroke="#63b8ff" d="M367.16,-51.95C403.08,-42.19 453.12,-28.59 485.84,-19.7"/>
<polygon fill="#63b8ff" stroke="#63b8ff" points="366.69,-48.45 357.96,-54.45 368.53,-55.2 366.69,-48.45"/>
</a>
</g>
</g>
<!-- Node7 -->
<g id="Node000007" class="node">
<title>Node7</title>
<g id="a_Node000007"><a xlink:href="su2hmc_8c.html" target="_top" xlink:title="An ecclectic collection of functions used in the HMC.">
<polygon fill="white" stroke="#666666" points="713.5,-19.25 597,-19.25 597,0 713.5,0 713.5,-19.25"/>
<text text-anchor="middle" x="655.25" y="-5.75" font-family="IBMPlexSans-Regular" font-size="10.00">production_c/su2hmc.c</text>
</a>
</g>
</g>
<!-- Node1&#45;&gt;Node7 -->
<g id="edge6_Node000001_Node000007" class="edge">
<title>Node1&#45;&gt;Node7</title>
<g id="a_edge6_Node000001_Node000007"><a xlink:title=" ">
<path fill="none" stroke="#63b8ff" d="M388.39,-53.43C449.55,-43.62 540.11,-29.09 598.41,-19.74"/>
<polygon fill="#63b8ff" stroke="#63b8ff" points="388.14,-49.92 378.82,-54.96 389.25,-56.83 388.14,-49.92"/>
</a>
</g>
</g>
</g>
</svg>
