<?xml version="1.0" encoding="UTF-8" standalone="no"?>
<!DOCTYPE svg PUBLIC "-//W3C//DTD SVG 1.1//EN"
 "http://www.w3.org/Graphics/SVG/1.1/DTD/svg11.dtd">
<!-- Generated by graphviz version 11.0.0 (20240428.1522)
 -->
<!-- Title: Dslashd_f Pages: 1 -->
<svg width="250pt" height="103pt"
 viewBox="0.00 0.00 250.25 103.25" xmlns="http://www.w3.org/2000/svg" xmlns:xlink="http://www.w3.org/1999/xlink">
<g id="graph0" class="graph" transform="scale(1 1) rotate(0) translate(4 99.25)">
<title>Dslashd_f</title>
<!-- Node1 -->
<g id="Node000001" class="node">
<title>Node1</title>
<g id="a_Node000001"><a xlink:title="Evaluates &#160;in single precision.">
<polygon fill="#999999" stroke="#666666" points="242.25,-57.25 182.75,-57.25 182.75,-38 242.25,-38 242.25,-57.25"/>
<text text-anchor="middle" x="212.5" y="-43.75" font-family="IBMPlexSans-Regular" font-size="10.00">Dslashd_f</text>
</a>
</g>
</g>
<!-- Node2 -->
<g id="Node000002" class="node">
<title>Node2</title>
<g id="a_Node000002"><a xlink:href="congrad_8c.html#afe0b99f1475067a37a8f3d4ce2b2de7f" target="_top" xlink:title="Matrix Inversion via Conjugate Gradient (no up/down flavour partitioning). Solves &#160;The matrix multipl...">
<polygon fill="white" stroke="#666666" points="146.75,-95.25 89.5,-95.25 89.5,-76 146.75,-76 146.75,-95.25"/>
<text text-anchor="middle" x="118.12" y="-81.75" font-family="IBMPlexSans-Regular" font-size="10.00">Congradp</text>
</a>
</g>
</g>
<!-- Node1&#45;&gt;Node2 -->
<g id="edge1_Node000001_Node000002" class="edge">
<title>Node1&#45;&gt;Node2</title>
<g id="a_edge1_Node000001_Node000002"><a xlink:title=" ">
<path fill="none" stroke="#63b8ff" d="M176.62,-61.97C165.61,-66.5 153.68,-71.41 143.55,-75.58"/>
<polygon fill="#63b8ff" stroke="#63b8ff" points="177.91,-65.23 185.83,-58.18 175.25,-58.75 177.91,-65.23"/>
</a>
</g>
</g>
<!-- Node3 -->
<g id="Node000003" class="node">
<title>Node3</title>
<g id="a_Node000003"><a xlink:href="fermionic_8c.html#a38464140ca960a533faa9e49b6ee6131" target="_top" xlink:title="Calculate fermion expectation values via a noisy estimator.">
<polygon fill="white" stroke="#666666" points="53.5,-76.25 0,-76.25 0,-57 53.5,-57 53.5,-76.25"/>
<text text-anchor="middle" x="26.75" y="-62.75" font-family="IBMPlexSans-Regular" font-size="10.00">Measure</text>
</a>
</g>
</g>
<!-- Node1&#45;&gt;Node3 -->
<g id="edge4_Node000001_Node000003" class="edge">
<title>Node1&#45;&gt;Node3</title>
<g id="a_edge4_Node000001_Node000003"><a xlink:title=" ">
<path fill="none" stroke="#63b8ff" d="M171.37,-51.77C135.63,-55.47 84.39,-60.77 53.76,-63.94"/>
<polygon fill="#63b8ff" stroke="#63b8ff" points="171.29,-55.3 180.88,-50.79 170.57,-48.34 171.29,-55.3"/>
</a>
</g>
</g>
<!-- Node4 -->
<g id="Node000004" class="node">
<title>Node4</title>
<g id="a_Node000004"><a xlink:href="main_8c.html#a0ddf1224851353fc92bfbff6f499fa97" target="_top" xlink:title=" ">
<polygon fill="white" stroke="#666666" points="136.62,-19.25 99.62,-19.25 99.62,0 136.62,0 136.62,-19.25"/>
<text text-anchor="middle" x="118.12" y="-5.75" font-family="IBMPlexSans-Regular" font-size="10.00">main</text>
</a>
</g>
</g>
<!-- Node1&#45;&gt;Node4 -->
<g id="edge3_Node000001_Node000004" class="edge">
<title>Node1&#45;&gt;Node4</title>
<g id="a_edge3_Node000001_Node000004"><a xlink:title=" ">
<path fill="none" stroke="#63b8ff" d="M176.79,-33.35C163.28,-27.79 148.38,-21.66 137.1,-17.02"/>
<polygon fill="#63b8ff" stroke="#63b8ff" points="175.25,-36.5 185.83,-37.07 177.91,-30.02 175.25,-36.5"/>
</a>
</g>
</g>
<!-- Node2&#45;&gt;Node3 -->
<g id="edge2_Node000002_Node000003" class="edge">
<title>Node2&#45;&gt;Node3</title>
<g id="a_edge2_Node000002_Node000003"><a xlink:title=" ">
<path fill="none" stroke="#63b8ff" d="M78.1,-77.33C69.95,-75.6 61.55,-73.81 54,-72.2"/>
<polygon fill="#63b8ff" stroke="#63b8ff" points="77.35,-80.75 87.86,-79.4 78.8,-73.9 77.35,-80.75"/>
</a>
</g>
</g>
</g>
</svg>
