<?xml version="1.0" encoding="UTF-8" standalone="no"?>
<!DOCTYPE svg PUBLIC "-//W3C//DTD SVG 1.1//EN"
 "http://www.w3.org/Graphics/SVG/1.1/DTD/svg11.dtd">
<!-- Generated by graphviz version 11.0.0 (20240428.1522)
 -->
<!-- Title: Dslash_f Pages: 1 -->
<svg width="245pt" height="27pt"
 viewBox="0.00 0.00 245.00 27.25" xmlns="http://www.w3.org/2000/svg" xmlns:xlink="http://www.w3.org/1999/xlink">
<g id="graph0" class="graph" transform="scale(1 1) rotate(0) translate(4 23.25)">
<title>Dslash_f</title>
<!-- Node1 -->
<g id="Node000001" class="node">
<title>Node1</title>
<g id="a_Node000001"><a xlink:title="Evaluates &#160;in single precision.">
<polygon fill="#999999" stroke="#666666" points="237,-19.25 182.75,-19.25 182.75,0 237,0 237,-19.25"/>
<text text-anchor="middle" x="209.88" y="-5.75" font-family="IBMPlexSans-Regular" font-size="10.00">Dslash_f</text>
</a>
</g>
</g>
<!-- Node2 -->
<g id="Node000002" class="node">
<title>Node2</title>
<g id="a_Node000002"><a xlink:href="congrad_8c.html#afe0b99f1475067a37a8f3d4ce2b2de7f" target="_top" xlink:title="Matrix Inversion via Conjugate Gradient (no up/down flavour partitioning). Solves &#160;The matrix multipl...">
<polygon fill="white" stroke="#666666" points="146.75,-19.25 89.5,-19.25 89.5,0 146.75,0 146.75,-19.25"/>
<text text-anchor="middle" x="118.12" y="-5.75" font-family="IBMPlexSans-Regular" font-size="10.00">Congradp</text>
</a>
</g>
</g>
<!-- Node1&#45;&gt;Node2 -->
<g id="edge1_Node000001_Node000002" class="edge">
<title>Node1&#45;&gt;Node2</title>
<g id="a_edge1_Node000001_Node000002"><a xlink:title=" ">
<path fill="none" stroke="#63b8ff" d="M170.97,-9.62C162.91,-9.62 154.54,-9.62 146.94,-9.62"/>
<polygon fill="#63b8ff" stroke="#63b8ff" points="170.92,-13.13 180.92,-9.63 170.92,-6.13 170.92,-13.13"/>
</a>
</g>
</g>
<!-- Node3 -->
<g id="Node000003" class="node">
<title>Node3</title>
<g id="a_Node000003"><a xlink:href="fermionic_8c.html#a38464140ca960a533faa9e49b6ee6131" target="_top" xlink:title="Calculate fermion expectation values via a noisy estimator.">
<polygon fill="white" stroke="#666666" points="53.5,-19.25 0,-19.25 0,0 53.5,0 53.5,-19.25"/>
<text text-anchor="middle" x="26.75" y="-5.75" font-family="IBMPlexSans-Regular" font-size="10.00">Measure</text>
</a>
</g>
</g>
<!-- Node2&#45;&gt;Node3 -->
<g id="edge2_Node000002_Node000003" class="edge">
<title>Node2&#45;&gt;Node3</title>
<g id="a_edge2_Node000002_Node000003"><a xlink:title=" ">
<path fill="none" stroke="#63b8ff" d="M78.1,-9.62C69.95,-9.62 61.55,-9.62 54,-9.62"/>
<polygon fill="#63b8ff" stroke="#63b8ff" points="77.82,-13.13 87.82,-9.63 77.82,-6.13 77.82,-13.13"/>
</a>
</g>
</g>
</g>
</svg>
