<?xml version="1.0" encoding="UTF-8" standalone="no"?>
<!DOCTYPE svg PUBLIC "-//W3C//DTD SVG 1.1//EN"
 "http://www.w3.org/Graphics/SVG/1.1/DTD/svg11.dtd">
<!-- Generated by graphviz version 12.2.1 (20241206.2353)
 -->
<!-- Title: Dslashd_f Pages: 1 -->
<svg width="323pt" height="84pt"
 viewBox="0.00 0.00 323.25 84.25" xmlns="http://www.w3.org/2000/svg" xmlns:xlink="http://www.w3.org/1999/xlink">
<g id="graph0" class="graph" transform="scale(1 1) rotate(0) translate(4 80.25)">
<title>Dslashd_f</title>
<!-- Node1 -->
<g id="Node000001" class="node">
<title>Node1</title>
<g id="a_Node000001"><a xlink:title="Evaluates &#160;in single precision.">
<polygon fill="#999999" stroke="#666666" points="315.25,-38.25 255.75,-38.25 255.75,-19 315.25,-19 315.25,-38.25"/>
<text text-anchor="middle" x="285.5" y="-24.75" font-family="IBMPlexSans-Regular" font-size="10.00">Dslashd_f</text>
</a>
</g>
</g>
<!-- Node2 -->
<g id="Node000002" class="node">
<title>Node2</title>
<g id="a_Node000002"><a xlink:href="congrad_8c.html#aa3fde21d836b340202ca6b18bead4510" target="_top" xlink:title="Matrix Inversion via Conjugate Gradient (no up/down flavour partitioning). Solves &#160;The matrix multipl...">
<polygon fill="white" stroke="#666666" points="219.75,-76.25 162.5,-76.25 162.5,-57 219.75,-57 219.75,-76.25"/>
<text text-anchor="middle" x="191.12" y="-62.75" font-family="IBMPlexSans-Regular" font-size="10.00">Congradp</text>
</a>
</g>
</g>
<!-- Node1&#45;&gt;Node2 -->
<g id="edge1_Node000001_Node000002" class="edge">
<title>Node1&#45;&gt;Node2</title>
<g id="a_edge1_Node000001_Node000002"><a xlink:title=" ">
<path fill="none" stroke="#63b8ff" d="M249.62,-42.97C238.61,-47.5 226.68,-52.41 216.55,-56.58"/>
<polygon fill="#63b8ff" stroke="#63b8ff" points="250.91,-46.23 258.83,-39.18 248.25,-39.75 250.91,-46.23"/>
</a>
</g>
</g>
<!-- Node3 -->
<g id="Node000003" class="node">
<title>Node3</title>
<g id="a_Node000003"><a xlink:href="fermionic_8c.html#a4f76ed3be4902e11205760b4222665c8" target="_top" xlink:title="Calculate fermion expectation values via a noisy estimator.">
<polygon fill="white" stroke="#666666" points="126.5,-38.25 73,-38.25 73,-19 126.5,-19 126.5,-38.25"/>
<text text-anchor="middle" x="99.75" y="-24.75" font-family="IBMPlexSans-Regular" font-size="10.00">Measure</text>
</a>
</g>
</g>
<!-- Node1&#45;&gt;Node3 -->
<g id="edge5_Node000001_Node000003" class="edge">
<title>Node1&#45;&gt;Node3</title>
<g id="a_edge5_Node000001_Node000003"><a xlink:title=" ">
<path fill="none" stroke="#63b8ff" d="M243.91,-28.62C208.19,-28.62 157.26,-28.62 126.76,-28.62"/>
<polygon fill="#63b8ff" stroke="#63b8ff" points="243.87,-32.13 253.87,-28.63 243.87,-25.13 243.87,-32.13"/>
</a>
</g>
</g>
<!-- Node4 -->
<g id="Node000004" class="node">
<title>Node4</title>
<g id="a_Node000004"><a xlink:href="main_8c.html#a0ddf1224851353fc92bfbff6f499fa97" target="_top" xlink:title=" ">
<polygon fill="white" stroke="#666666" points="37,-19.25 0,-19.25 0,0 37,0 37,-19.25"/>
<text text-anchor="middle" x="18.5" y="-5.75" font-family="IBMPlexSans-Regular" font-size="10.00">main</text>
</a>
</g>
</g>
<!-- Node1&#45;&gt;Node4 -->
<g id="edge4_Node000001_Node000004" class="edge">
<title>Node1&#45;&gt;Node4</title>
<g id="a_edge4_Node000001_Node000004"><a xlink:title=" ">
<path fill="none" stroke="#63b8ff" d="M244.4,-22.46C212.53,-17.88 166.78,-12.04 126.5,-9.62 95.16,-7.75 58.57,-8.35 37.32,-8.97"/>
<polygon fill="#63b8ff" stroke="#63b8ff" points="243.57,-25.87 253.98,-23.86 244.59,-18.95 243.57,-25.87"/>
</a>
</g>
</g>
<!-- Node2&#45;&gt;Node3 -->
<g id="edge2_Node000002_Node000003" class="edge">
<title>Node2&#45;&gt;Node3</title>
<g id="a_edge2_Node000002_Node000003"><a xlink:title=" ">
<path fill="none" stroke="#63b8ff" d="M156.38,-52.28C145.72,-47.75 134.18,-42.84 124.39,-38.67"/>
<polygon fill="#63b8ff" stroke="#63b8ff" points="154.68,-55.36 165.25,-56.05 157.42,-48.91 154.68,-55.36"/>
</a>
</g>
</g>
<!-- Node3&#45;&gt;Node4 -->
<g id="edge3_Node000003_Node000004" class="edge">
<title>Node3&#45;&gt;Node4</title>
<g id="a_edge3_Node000003_Node000004"><a xlink:title=" ">
<path fill="none" stroke="#63b8ff" d="M61.88,-19.78C53.39,-17.75 44.74,-15.68 37.48,-13.94"/>
<polygon fill="#63b8ff" stroke="#63b8ff" points="60.79,-23.12 71.33,-22.05 62.42,-16.32 60.79,-23.12"/>
</a>
</g>
</g>
</g>
</svg>
