<?xml version="1.0" encoding="UTF-8" standalone="no"?>
<!DOCTYPE svg PUBLIC "-//W3C//DTD SVG 1.1//EN"
 "http://www.w3.org/Graphics/SVG/1.1/DTD/svg11.dtd">
<!-- Generated by graphviz version 12.2.1 (20241206.2353)
 -->
<!-- Title: Hdslash_f Pages: 1 -->
<svg width="416pt" height="121pt"
 viewBox="0.00 0.00 415.75 121.25" xmlns="http://www.w3.org/2000/svg" xmlns:xlink="http://www.w3.org/1999/xlink">
<g id="graph0" class="graph" transform="scale(1 1) rotate(0) translate(4 117.25)">
<title>Hdslash_f</title>
<!-- Node1 -->
<g id="Node000001" class="node">
<title>Node1</title>
<g id="a_Node000001"><a xlink:title="Evaluates &#160;in single precision.">
<polygon fill="#999999" stroke="#666666" points="407.75,-38.25 347.5,-38.25 347.5,-19 407.75,-19 407.75,-38.25"/>
<text text-anchor="middle" x="377.62" y="-24.75" font-family="IBMPlexSans-Regular" font-size="10.00">Hdslash_f</text>
</a>
</g>
</g>
<!-- Node2 -->
<g id="Node000002" class="node">
<title>Node2</title>
<g id="a_Node000002"><a xlink:href="congrad_8c.html#a4b97a088fd74bb3b25ce4f965dc26281" target="_top" xlink:title="Matrix Inversion via Conjugate Gradient (up/down flavour partitioning). Solves &#160;Implements up/down pa...">
<polygon fill="white" stroke="#666666" points="311.5,-19.25 254.25,-19.25 254.25,0 311.5,0 311.5,-19.25"/>
<text text-anchor="middle" x="282.88" y="-5.75" font-family="IBMPlexSans-Regular" font-size="10.00">Congradq</text>
</a>
</g>
</g>
<!-- Node1&#45;&gt;Node2 -->
<g id="edge1_Node000001_Node000002" class="edge">
<title>Node1&#45;&gt;Node2</title>
<g id="a_edge1_Node000001_Node000002"><a xlink:title=" ">
<path fill="none" stroke="#63b8ff" d="M335.86,-20.27C327.78,-18.62 319.47,-16.92 311.93,-15.37"/>
<polygon fill="#63b8ff" stroke="#63b8ff" points="335.04,-23.68 345.54,-22.26 336.45,-16.82 335.04,-23.68"/>
</a>
</g>
</g>
<!-- Node3 -->
<g id="Node000003" class="node">
<title>Node3</title>
<g id="a_Node000003"><a xlink:href="force_8c.html#a98a5926c20124e0cea060ad1e47ff3de" target="_top" xlink:title="Calculates the force &#160;at each intermediate time.">
<polygon fill="white" stroke="#666666" points="211.12,-57.25 170.38,-57.25 170.38,-38 211.12,-38 211.12,-57.25"/>
<text text-anchor="middle" x="190.75" y="-43.75" font-family="IBMPlexSans-Regular" font-size="10.00">Force</text>
</a>
</g>
</g>
<!-- Node1&#45;&gt;Node3 -->
<g id="edge11_Node000001_Node000003" class="edge">
<title>Node1&#45;&gt;Node3</title>
<g id="a_edge11_Node000001_Node000003"><a xlink:title=" ">
<path fill="none" stroke="#63b8ff" d="M335.98,-32.8C297.41,-36.77 241.08,-42.56 211.53,-45.59"/>
<polygon fill="#63b8ff" stroke="#63b8ff" points="336.24,-36.29 345.83,-31.79 335.52,-29.33 336.24,-36.29"/>
</a>
</g>
</g>
<!-- Node2&#45;&gt;Node3 -->
<g id="edge2_Node000002_Node000003" class="edge">
<title>Node2&#45;&gt;Node3</title>
<g id="a_edge2_Node000002_Node000003"><a xlink:title=" ">
<path fill="none" stroke="#63b8ff" d="M247.85,-23.97C235.62,-29.13 222.24,-34.77 211.62,-39.25"/>
<polygon fill="#63b8ff" stroke="#63b8ff" points="248.95,-27.31 256.8,-20.2 246.23,-20.86 248.95,-27.31"/>
</a>
</g>
</g>
<!-- Node8 -->
<g id="Node000008" class="node">
<title>Node8</title>
<g id="a_Node000008"><a xlink:href="su2hmc_8c.html#aad654cdd6107120818d5485ce1620d81" target="_top" xlink:title="Calculate the Hamiltonian.">
<polygon fill="white" stroke="#666666" points="218.25,-19.25 163.25,-19.25 163.25,0 218.25,0 218.25,-19.25"/>
<text text-anchor="middle" x="190.75" y="-5.75" font-family="IBMPlexSans-Regular" font-size="10.00">Hamilton</text>
</a>
</g>
</g>
<!-- Node2&#45;&gt;Node8 -->
<g id="edge9_Node000002_Node000008" class="edge">
<title>Node2&#45;&gt;Node8</title>
<g id="a_edge9_Node000002_Node000008"><a xlink:title=" ">
<path fill="none" stroke="#63b8ff" d="M242.35,-9.62C234.3,-9.62 226,-9.62 218.52,-9.62"/>
<polygon fill="#63b8ff" stroke="#63b8ff" points="242.34,-13.13 252.34,-9.63 242.34,-6.13 242.34,-13.13"/>
</a>
</g>
</g>
<!-- Node4 -->
<g id="Node000004" class="node">
<title>Node4</title>
<g id="a_Node000004"><a xlink:href="integrate_8c.html#a4d7f64e9f3e98a2953d707f18742d110" target="_top" xlink:title="Leapfrog integrator. Each trajectory step takes the form of p&#45;&gt;p+dt/2,u&#45;&gt;u+dt,p&#45;&gt;p+dt/2 In practice t...">
<polygon fill="white" stroke="#666666" points="127.25,-113.25 73,-113.25 73,-94 127.25,-94 127.25,-113.25"/>
<text text-anchor="middle" x="100.12" y="-99.75" font-family="IBMPlexSans-Regular" font-size="10.00">Leapfrog</text>
</a>
</g>
</g>
<!-- Node3&#45;&gt;Node4 -->
<g id="edge3_Node000003_Node000004" class="edge">
<title>Node3&#45;&gt;Node4</title>
<g id="a_edge3_Node000003_Node000004"><a xlink:title=" ">
<path fill="none" stroke="#63b8ff" d="M164.53,-63.56C149.29,-73.19 130.33,-85.17 117.13,-93.51"/>
<polygon fill="#63b8ff" stroke="#63b8ff" points="166.04,-66.75 172.63,-58.45 162.3,-60.83 166.04,-66.75"/>
</a>
</g>
</g>
<!-- Node6 -->
<g id="Node000006" class="node">
<title>Node6</title>
<g id="a_Node000006"><a xlink:href="integrate_8c.html#a33907d89c4a0709fcf809773de68c3a2" target="_top" xlink:title="OMF second order five step integrator.">
<polygon fill="white" stroke="#666666" points="121.62,-76.25 78.62,-76.25 78.62,-57 121.62,-57 121.62,-76.25"/>
<text text-anchor="middle" x="100.12" y="-62.75" font-family="IBMPlexSans-Regular" font-size="10.00">OMF2</text>
</a>
</g>
</g>
<!-- Node3&#45;&gt;Node6 -->
<g id="edge5_Node000003_Node000006" class="edge">
<title>Node3&#45;&gt;Node6</title>
<g id="a_edge5_Node000003_Node000006"><a xlink:title=" ">
<path fill="none" stroke="#63b8ff" d="M158.96,-54.22C146.74,-56.85 133,-59.79 121.97,-62.16"/>
<polygon fill="#63b8ff" stroke="#63b8ff" points="159.56,-57.68 168.6,-52.16 158.09,-50.83 159.56,-57.68"/>
</a>
</g>
</g>
<!-- Node7 -->
<g id="Node000007" class="node">
<title>Node7</title>
<g id="a_Node000007"><a xlink:href="integrate_8c.html#a4e6abc4e61c0131df30fb683569e5d00" target="_top" xlink:title="OMF fourth order eleven step integrator.">
<polygon fill="white" stroke="#666666" points="121.62,-39.25 78.62,-39.25 78.62,-20 121.62,-20 121.62,-39.25"/>
<text text-anchor="middle" x="100.12" y="-25.75" font-family="IBMPlexSans-Regular" font-size="10.00">OMF4</text>
</a>
</g>
</g>
<!-- Node3&#45;&gt;Node7 -->
<g id="edge7_Node000003_Node000007" class="edge">
<title>Node3&#45;&gt;Node7</title>
<g id="a_edge7_Node000003_Node000007"><a xlink:title=" ">
<path fill="none" stroke="#63b8ff" d="M158.96,-41.37C146.74,-38.89 133,-36.1 121.97,-33.86"/>
<polygon fill="#63b8ff" stroke="#63b8ff" points="158.1,-44.77 168.6,-43.33 159.49,-37.91 158.1,-44.77"/>
</a>
</g>
</g>
<!-- Node5 -->
<g id="Node000005" class="node">
<title>Node5</title>
<g id="a_Node000005"><a xlink:href="main_8c.html#a0ddf1224851353fc92bfbff6f499fa97" target="_top" xlink:title=" ">
<polygon fill="white" stroke="#666666" points="37,-57.25 0,-57.25 0,-38 37,-38 37,-57.25"/>
<text text-anchor="middle" x="18.5" y="-43.75" font-family="IBMPlexSans-Regular" font-size="10.00">main</text>
</a>
</g>
</g>
<!-- Node4&#45;&gt;Node5 -->
<g id="edge4_Node000004_Node000005" class="edge">
<title>Node4&#45;&gt;Node5</title>
<g id="a_edge4_Node000004_Node000005"><a xlink:title=" ">
<path fill="none" stroke="#63b8ff" d="M75.11,-87.1C74.4,-86.6 73.69,-86.11 73,-85.62 59.56,-76.22 44.31,-65.37 33.54,-57.68"/>
<polygon fill="#63b8ff" stroke="#63b8ff" points="73,-89.89 83.21,-92.71 76.98,-84.14 73,-89.89"/>
</a>
</g>
</g>
<!-- Node6&#45;&gt;Node5 -->
<g id="edge6_Node000006_Node000005" class="edge">
<title>Node6&#45;&gt;Node5</title>
<g id="a_edge6_Node000006_Node000005"><a xlink:title=" ">
<path fill="none" stroke="#63b8ff" d="M67.17,-59C57,-56.57 46.11,-53.97 37.31,-51.88"/>
<polygon fill="#63b8ff" stroke="#63b8ff" points="66.19,-62.36 76.73,-61.28 67.82,-55.56 66.19,-62.36"/>
</a>
</g>
</g>
<!-- Node7&#45;&gt;Node5 -->
<g id="edge8_Node000007_Node000005" class="edge">
<title>Node7&#45;&gt;Node5</title>
<g id="a_edge8_Node000007_Node000005"><a xlink:title=" ">
<path fill="none" stroke="#63b8ff" d="M67.17,-36.85C57,-39.15 46.11,-41.61 37.31,-43.6"/>
<polygon fill="#63b8ff" stroke="#63b8ff" points="67.75,-40.31 76.73,-34.69 66.2,-33.48 67.75,-40.31"/>
</a>
</g>
</g>
<!-- Node8&#45;&gt;Node5 -->
<g id="edge10_Node000008_Node000005" class="edge">
<title>Node8&#45;&gt;Node5</title>
<g id="a_edge10_Node000008_Node000005"><a xlink:title=" ">
<path fill="none" stroke="#63b8ff" d="M151.93,-4.4C128.63,-2.53 98.46,-2.56 73,-10.62 56.21,-15.95 40.01,-28.52 29.92,-37.53"/>
<polygon fill="#63b8ff" stroke="#63b8ff" points="151.29,-7.86 161.58,-5.34 151.97,-0.89 151.29,-7.86"/>
</a>
</g>
</g>
</g>
</svg>
