<?xml version="1.0" encoding="UTF-8" standalone="no"?>
<!DOCTYPE svg PUBLIC "-//W3C//DTD SVG 1.1//EN"
 "http://www.w3.org/Graphics/SVG/1.1/DTD/svg11.dtd">
<!-- Generated by graphviz version 12.1.2 (20240928.0832)
 -->
<!-- Title: production_c/matrices.c Pages: 1 -->
<svg width="618pt" height="469pt"
 viewBox="0.00 0.00 618.00 469.25" xmlns="http://www.w3.org/2000/svg" xmlns:xlink="http://www.w3.org/1999/xlink">
<g id="graph0" class="graph" transform="scale(1 1) rotate(0) translate(4 465.25)">
<title>production_c/matrices.c</title>
<!-- Node1 -->
<g id="Node000001" class="node">
<title>Node1</title>
<g id="a_Node000001"><a xlink:title="Matrix multiplication and related routines.">
<polygon fill="#999999" stroke="#666666" points="584.75,-461.25 465.25,-461.25 465.25,-442 584.75,-442 584.75,-461.25"/>
<text text-anchor="middle" x="525" y="-447.75" font-family="IBMPlexSans-Regular" font-size="10.00">production_c/matrices.c</text>
</a>
</g>
</g>
<!-- Node2 -->
<g id="Node000002" class="node">
<title>Node2</title>
<g id="a_Node000002"><a xlink:title=" ">
<polygon fill="#e0e0e0" stroke="#999999" points="446.25,-406 395.75,-406 395.75,-386.75 446.25,-386.75 446.25,-406"/>
<text text-anchor="middle" x="421" y="-392.5" font-family="IBMPlexSans-Regular" font-size="10.00">assert.h</text>
</a>
</g>
</g>
<!-- Node1&#45;&gt;Node2 -->
<g id="edge1_Node000001_Node000002" class="edge">
<title>Node1&#45;&gt;Node2</title>
<g id="a_edge1_Node000001_Node000002"><a xlink:title=" ">
<path fill="none" stroke="#63b8ff" d="M507.36,-441.59C491.37,-433.41 467.54,-421.21 448.96,-411.69"/>
<polygon fill="#63b8ff" stroke="#63b8ff" points="450.57,-408.58 440.08,-407.14 447.38,-414.82 450.57,-408.58"/>
</a>
</g>
</g>
<!-- Node3 -->
<g id="Node000003" class="node">
<title>Node3</title>
<g id="a_Node000003"><a xlink:title=" ">
<polygon fill="#e0e0e0" stroke="#999999" points="417.75,-19.25 358.25,-19.25 358.25,0 417.75,0 417.75,-19.25"/>
<text text-anchor="middle" x="388" y="-5.75" font-family="IBMPlexSans-Regular" font-size="10.00">complex.h</text>
</a>
</g>
</g>
<!-- Node1&#45;&gt;Node3 -->
<g id="edge2_Node000001_Node000003" class="edge">
<title>Node1&#45;&gt;Node3</title>
<g id="a_edge2_Node000001_Node000003"><a xlink:title=" ">
<path fill="none" stroke="#63b8ff" d="M539.42,-441.51C563.67,-424.94 610,-387.35 610,-342.12 610,-342.12 610,-342.12 610,-119.12 610,-39.57 493.49,-18.34 429.28,-12.68"/>
<polygon fill="#63b8ff" stroke="#63b8ff" points="429.69,-9.2 419.45,-11.91 429.15,-16.18 429.69,-9.2"/>
</a>
</g>
</g>
<!-- Node4 -->
<g id="Node000004" class="node">
<title>Node4</title>
<g id="a_Node000004"><a xlink:href="matrices_8h.html" target="_top" xlink:title="Matrix multiplication and related declarations.">
<polygon fill="white" stroke="#666666" points="525.5,-406 464.5,-406 464.5,-386.75 525.5,-386.75 525.5,-406"/>
<text text-anchor="middle" x="495" y="-392.5" font-family="IBMPlexSans-Regular" font-size="10.00">matrices.h</text>
</a>
</g>
</g>
<!-- Node1&#45;&gt;Node4 -->
<g id="edge3_Node000001_Node000004" class="edge">
<title>Node1&#45;&gt;Node4</title>
<g id="a_edge3_Node000001_Node000004"><a xlink:title=" ">
<path fill="none" stroke="#63b8ff" d="M520.05,-441.83C516.12,-434.86 510.49,-424.87 505.56,-416.12"/>
<polygon fill="#63b8ff" stroke="#63b8ff" points="508.76,-414.67 500.8,-407.68 502.66,-418.11 508.76,-414.67"/>
</a>
</g>
</g>
<!-- Node13 -->
<g id="Node000013" class="node">
<title>Node13</title>
<g id="a_Node000013"><a xlink:title=" ">
<polygon fill="#e0e0e0" stroke="#999999" points="581.75,-129.75 534.25,-129.75 534.25,-110.5 581.75,-110.5 581.75,-129.75"/>
<text text-anchor="middle" x="558" y="-116.25" font-family="IBMPlexSans-Regular" font-size="10.00">string.h</text>
</a>
</g>
</g>
<!-- Node1&#45;&gt;Node13 -->
<g id="edge28_Node000001_Node000013" class="edge">
<title>Node1&#45;&gt;Node13</title>
<g id="a_edge28_Node000001_Node000013"><a xlink:title=" ">
<path fill="none" stroke="#63b8ff" d="M529.3,-441.57C537.59,-423.24 555,-380.24 555,-342.12 555,-342.12 555,-342.12 555,-229.62 555,-198.89 556.22,-163.29 557.1,-141.49"/>
<polygon fill="#63b8ff" stroke="#63b8ff" points="560.59,-141.78 557.52,-131.64 553.6,-141.48 560.59,-141.78"/>
</a>
</g>
</g>
<!-- Node5 -->
<g id="Node000005" class="node">
<title>Node5</title>
<g id="a_Node000005"><a xlink:href="par__mpi_8h.html" target="_top" xlink:title="MPI headers.">
<polygon fill="white" stroke="#666666" points="389,-185 331,-185 331,-165.75 389,-165.75 389,-185"/>
<text text-anchor="middle" x="360" y="-171.5" font-family="IBMPlexSans-Regular" font-size="10.00">par_mpi.h</text>
</a>
</g>
</g>
<!-- Node4&#45;&gt;Node5 -->
<g id="edge4_Node000004_Node000005" class="edge">
<title>Node4&#45;&gt;Node5</title>
<g id="a_edge4_Node000004_Node000005"><a xlink:title=" ">
<path fill="none" stroke="#63b8ff" d="M489.54,-386.52C469.4,-353.84 398.99,-239.63 371.3,-194.71"/>
<polygon fill="#63b8ff" stroke="#63b8ff" points="374.4,-193.07 366.17,-186.39 368.44,-196.74 374.4,-193.07"/>
</a>
</g>
</g>
<!-- Node14 -->
<g id="Node000014" class="node">
<title>Node14</title>
<g id="a_Node000014"><a xlink:href="su2hmc_8h.html" target="_top" xlink:title="Function declarations for most of the routines.">
<polygon fill="white" stroke="#666666" points="243,-350.75 185,-350.75 185,-331.5 243,-331.5 243,-350.75"/>
<text text-anchor="middle" x="214" y="-337.25" font-family="IBMPlexSans-Regular" font-size="10.00">su2hmc.h</text>
</a>
</g>
</g>
<!-- Node4&#45;&gt;Node14 -->
<g id="edge15_Node000004_Node000014" class="edge">
<title>Node4&#45;&gt;Node14</title>
<g id="a_edge15_Node000004_Node000014"><a xlink:title=" ">
<path fill="none" stroke="#63b8ff" d="M464.01,-388.6C460.97,-387.96 457.93,-387.34 455,-386.75 384.66,-372.66 302.44,-357.77 254.49,-349.25"/>
<polygon fill="#63b8ff" stroke="#63b8ff" points="255.31,-345.84 244.85,-347.54 254.09,-352.73 255.31,-345.84"/>
</a>
</g>
</g>
<!-- Node6 -->
<g id="Node000006" class="node">
<title>Node6</title>
<g id="a_Node000006"><a xlink:href="coord_8h.html" target="_top" xlink:title="Header for routines related to lattice sites.">
<polygon fill="white" stroke="#666666" points="388.75,-129.75 341.25,-129.75 341.25,-110.5 388.75,-110.5 388.75,-129.75"/>
<text text-anchor="middle" x="365" y="-116.25" font-family="IBMPlexSans-Regular" font-size="10.00">coord.h</text>
</a>
</g>
</g>
<!-- Node5&#45;&gt;Node6 -->
<g id="edge5_Node000005_Node000006" class="edge">
<title>Node5&#45;&gt;Node6</title>
<g id="a_edge5_Node000005_Node000006"><a xlink:title=" ">
<path fill="none" stroke="#63b8ff" d="M360.83,-165.58C361.44,-158.99 362.32,-149.71 363.1,-141.32"/>
<polygon fill="#63b8ff" stroke="#63b8ff" points="366.56,-141.9 364.01,-131.62 359.6,-141.25 366.56,-141.9"/>
</a>
</g>
</g>
<!-- Node8 -->
<g id="Node000008" class="node">
<title>Node8</title>
<g id="a_Node000008"><a xlink:href="sizes_8h.html" target="_top" xlink:title="Defines the constants of the code and other parameters for loop dimensions. Each subroutine includes ...">
<polygon fill="white" stroke="#666666" points="212,-74.5 166,-74.5 166,-55.25 212,-55.25 212,-74.5"/>
<text text-anchor="middle" x="189" y="-61" font-family="IBMPlexSans-Regular" font-size="10.00">sizes.h</text>
</a>
</g>
</g>
<!-- Node5&#45;&gt;Node8 -->
<g id="edge10_Node000005_Node000008" class="edge">
<title>Node5&#45;&gt;Node8</title>
<g id="a_edge10_Node000005_Node000008"><a xlink:title=" ">
<path fill="none" stroke="#63b8ff" d="M345.71,-165.31C316.35,-146.68 248.92,-103.9 212.83,-81"/>
<polygon fill="#63b8ff" stroke="#63b8ff" points="214.72,-78.05 204.4,-75.65 210.97,-83.96 214.72,-78.05"/>
</a>
</g>
</g>
<!-- Node9 -->
<g id="Node000009" class="node">
<title>Node9</title>
<g id="a_Node000009"><a xlink:href="errorcodes_8h.html" target="_top" xlink:title="This header is intended to be a useful reference for error codes and their meanings.">
<polygon fill="white" stroke="#666666" points="246.62,-129.75 177.38,-129.75 177.38,-110.5 246.62,-110.5 246.62,-129.75"/>
<text text-anchor="middle" x="212" y="-116.25" font-family="IBMPlexSans-Regular" font-size="10.00">errorcodes.h</text>
</a>
</g>
</g>
<!-- Node5&#45;&gt;Node9 -->
<g id="edge9_Node000005_Node000009" class="edge">
<title>Node5&#45;&gt;Node9</title>
<g id="a_edge9_Node000005_Node000009"><a xlink:title=" ">
<path fill="none" stroke="#63b8ff" d="M334.89,-165.34C310.97,-156.74 274.72,-143.69 247.78,-134"/>
<polygon fill="#63b8ff" stroke="#63b8ff" points="249.25,-130.81 238.65,-130.71 246.88,-137.39 249.25,-130.81"/>
</a>
</g>
</g>
<!-- Node10 -->
<g id="Node000010" class="node">
<title>Node10</title>
<g id="a_Node000010"><a xlink:title=" ">
<polygon fill="#e0e0e0" stroke="#999999" points="159.5,-129.75 104.5,-129.75 104.5,-110.5 159.5,-110.5 159.5,-129.75"/>
<text text-anchor="middle" x="132" y="-116.25" font-family="IBMPlexSans-Regular" font-size="10.00">stdbool.h</text>
</a>
</g>
</g>
<!-- Node5&#45;&gt;Node10 -->
<g id="edge11_Node000005_Node000010" class="edge">
<title>Node5&#45;&gt;Node10</title>
<g id="a_edge11_Node000005_Node000010"><a xlink:title=" ">
<path fill="none" stroke="#63b8ff" d="M330.71,-167.63C295.18,-159.44 233.16,-145.09 171.08,-130.47"/>
<polygon fill="#63b8ff" stroke="#63b8ff" points="171.91,-127.07 161.38,-128.18 170.31,-133.88 171.91,-127.07"/>
</a>
</g>
</g>
<!-- Node11 -->
<g id="Node000011" class="node">
<title>Node11</title>
<g id="a_Node000011"><a xlink:title=" ">
<polygon fill="#e0e0e0" stroke="#999999" points="451.25,-129.75 406.75,-129.75 406.75,-110.5 451.25,-110.5 451.25,-129.75"/>
<text text-anchor="middle" x="429" y="-116.25" font-family="IBMPlexSans-Regular" font-size="10.00">stdio.h</text>
</a>
</g>
</g>
<!-- Node5&#45;&gt;Node11 -->
<g id="edge12_Node000005_Node000011" class="edge">
<title>Node5&#45;&gt;Node11</title>
<g id="a_edge12_Node000005_Node000011"><a xlink:title=" ">
<path fill="none" stroke="#63b8ff" d="M371.7,-165.34C381.78,-157.57 396.54,-146.17 408.56,-136.9"/>
<polygon fill="#63b8ff" stroke="#63b8ff" points="410.49,-139.83 416.27,-130.95 406.21,-134.29 410.49,-139.83"/>
</a>
</g>
</g>
<!-- Node12 -->
<g id="Node000012" class="node">
<title>Node12</title>
<g id="a_Node000012"><a xlink:title=" ">
<polygon fill="#e0e0e0" stroke="#999999" points="516.38,-129.75 469.62,-129.75 469.62,-110.5 516.38,-110.5 516.38,-129.75"/>
<text text-anchor="middle" x="493" y="-116.25" font-family="IBMPlexSans-Regular" font-size="10.00">stdlib.h</text>
</a>
</g>
</g>
<!-- Node5&#45;&gt;Node12 -->
<g id="edge13_Node000005_Node000012" class="edge">
<title>Node5&#45;&gt;Node12</title>
<g id="a_edge13_Node000005_Node000012"><a xlink:title=" ">
<path fill="none" stroke="#63b8ff" d="M382.56,-165.34C403.77,-156.85 435.77,-144.04 459.88,-134.39"/>
<polygon fill="#63b8ff" stroke="#63b8ff" points="460.94,-137.73 468.92,-130.77 458.34,-131.23 460.94,-137.73"/>
</a>
</g>
</g>
<!-- Node5&#45;&gt;Node13 -->
<g id="edge14_Node000005_Node000013" class="edge">
<title>Node5&#45;&gt;Node13</title>
<g id="a_edge14_Node000005_Node000013"><a xlink:title=" ">
<path fill="none" stroke="#63b8ff" d="M389.22,-166.52C424.8,-156.95 484.85,-140.8 522.91,-130.56"/>
<polygon fill="#63b8ff" stroke="#63b8ff" points="523.75,-133.96 532.5,-127.98 521.93,-127.2 523.75,-133.96"/>
</a>
</g>
</g>
<!-- Node7 -->
<g id="Node000007" class="node">
<title>Node7</title>
<g id="a_Node000007"><a xlink:title=" ">
<polygon fill="#e0e0e0" stroke="#999999" points="342.62,-74.5 297.38,-74.5 297.38,-55.25 342.62,-55.25 342.62,-74.5"/>
<text text-anchor="middle" x="320" y="-61" font-family="IBMPlexSans-Regular" font-size="10.00">math.h</text>
</a>
</g>
</g>
<!-- Node6&#45;&gt;Node7 -->
<g id="edge6_Node000006_Node000007" class="edge">
<title>Node6&#45;&gt;Node7</title>
<g id="a_edge6_Node000006_Node000007"><a xlink:title=" ">
<path fill="none" stroke="#63b8ff" d="M357.57,-110.33C351.42,-103.05 342.49,-92.48 334.87,-83.48"/>
<polygon fill="#63b8ff" stroke="#63b8ff" points="337.7,-81.39 328.57,-76.02 332.35,-85.91 337.7,-81.39"/>
</a>
</g>
</g>
<!-- Node6&#45;&gt;Node8 -->
<g id="edge7_Node000006_Node000008" class="edge">
<title>Node6&#45;&gt;Node8</title>
<g id="a_edge7_Node000006_Node000008"><a xlink:title=" ">
<path fill="none" stroke="#63b8ff" d="M340.9,-111.83C310.45,-102.62 257.85,-86.71 223.24,-76.24"/>
<polygon fill="#63b8ff" stroke="#63b8ff" points="224.29,-72.89 213.7,-73.35 222.26,-79.59 224.29,-72.89"/>
</a>
</g>
</g>
<!-- Node8&#45;&gt;Node3 -->
<g id="edge8_Node000008_Node000003" class="edge">
<title>Node8&#45;&gt;Node3</title>
<g id="a_edge8_Node000008_Node000003"><a xlink:title=" ">
<path fill="none" stroke="#63b8ff" d="M212.22,-57.66C245.21,-48.84 306.15,-32.53 346.89,-21.63"/>
<polygon fill="#63b8ff" stroke="#63b8ff" points="347.59,-25.06 356.34,-19.1 345.78,-18.3 347.59,-25.06"/>
</a>
</g>
</g>
<!-- Node14&#45;&gt;Node8 -->
<g id="edge24_Node000014_Node000008" class="edge">
<title>Node14&#45;&gt;Node8</title>
<g id="a_edge24_Node000014_Node000008"><a xlink:title=" ">
<path fill="none" stroke="#63b8ff" d="M184.69,-338.53C126.08,-333.6 0,-313.48 0,-231.62 0,-231.62 0,-231.62 0,-174.38 0,-103.88 100.12,-78.52 154.62,-69.95"/>
<polygon fill="#63b8ff" stroke="#63b8ff" points="154.93,-73.44 164.33,-68.53 153.93,-66.51 154.93,-73.44"/>
</a>
</g>
</g>
<!-- Node14&#45;&gt;Node9 -->
<g id="edge16_Node000014_Node000009" class="edge">
<title>Node14&#45;&gt;Node9</title>
<g id="a_edge16_Node000014_Node000009"><a xlink:title=" ">
<path fill="none" stroke="#63b8ff" d="M213.92,-331.27C213.62,-299.01 212.6,-187.26 212.18,-141.21"/>
<polygon fill="#63b8ff" stroke="#63b8ff" points="215.68,-141.33 212.09,-131.37 208.69,-141.4 215.68,-141.33"/>
</a>
</g>
</g>
<!-- Node14&#45;&gt;Node11 -->
<g id="edge25_Node000014_Node000011" class="edge">
<title>Node14&#45;&gt;Node11</title>
<g id="a_edge25_Node000014_Node000011"><a xlink:title=" ">
<path fill="none" stroke="#63b8ff" d="M228.19,-331.22C261.58,-309.69 346.18,-251.62 398,-185 408.54,-171.45 416.78,-153.75 422.11,-140.42"/>
<polygon fill="#63b8ff" stroke="#63b8ff" points="425.24,-142.05 425.49,-131.46 418.69,-139.58 425.24,-142.05"/>
</a>
</g>
</g>
<!-- Node14&#45;&gt;Node12 -->
<g id="edge26_Node000014_Node000012" class="edge">
<title>Node14&#45;&gt;Node12</title>
<g id="a_edge26_Node000014_Node000012"><a xlink:title=" ">
<path fill="none" stroke="#63b8ff" d="M236.82,-331.04C255.99,-322.94 283.75,-310.13 306,-295.5 377.86,-248.22 448.08,-172.61 477.97,-138.64"/>
<polygon fill="#63b8ff" stroke="#63b8ff" points="480.37,-141.21 484.3,-131.37 475.09,-136.61 480.37,-141.21"/>
</a>
</g>
</g>
<!-- Node15 -->
<g id="Node000015" class="node">
<title>Node15</title>
<g id="a_Node000015"><a xlink:href="integrate_8h.html" target="_top" xlink:title="Integrators for the HMC.">
<polygon fill="white" stroke="#666666" points="185.5,-295.5 124.5,-295.5 124.5,-276.25 185.5,-276.25 185.5,-295.5"/>
<text text-anchor="middle" x="155" y="-282" font-family="IBMPlexSans-Regular" font-size="10.00">integrate.h</text>
</a>
</g>
</g>
<!-- Node14&#45;&gt;Node15 -->
<g id="edge17_Node000014_Node000015" class="edge">
<title>Node14&#45;&gt;Node15</title>
<g id="a_edge17_Node000014_Node000015"><a xlink:title=" ">
<path fill="none" stroke="#63b8ff" d="M203.99,-331.09C195.63,-323.55 183.5,-312.6 173.4,-303.48"/>
<polygon fill="#63b8ff" stroke="#63b8ff" points="175.75,-300.89 165.98,-296.79 171.06,-306.09 175.75,-300.89"/>
</a>
</g>
</g>
<!-- Node17 -->
<g id="Node000017" class="node">
<title>Node17</title>
<g id="a_Node000017"><a xlink:title=" ">
<polygon fill="#e0e0e0" stroke="#999999" points="106.12,-295.5 63.88,-295.5 63.88,-276.25 106.12,-276.25 106.12,-295.5"/>
<text text-anchor="middle" x="85" y="-282" font-family="IBMPlexSans-Regular" font-size="10.00">time.h</text>
</a>
</g>
</g>
<!-- Node14&#45;&gt;Node17 -->
<g id="edge27_Node000014_Node000017" class="edge">
<title>Node14&#45;&gt;Node17</title>
<g id="a_edge27_Node000014_Node000017"><a xlink:title=" ">
<path fill="none" stroke="#63b8ff" d="M192.12,-331.09C171.51,-322.59 140.41,-309.75 117.02,-300.09"/>
<polygon fill="#63b8ff" stroke="#63b8ff" points="118.54,-296.93 107.96,-296.35 115.87,-303.4 118.54,-296.93"/>
</a>
</g>
</g>
<!-- Node15&#45;&gt;Node8 -->
<g id="edge23_Node000015_Node000008" class="edge">
<title>Node15&#45;&gt;Node8</title>
<g id="a_edge23_Node000015_Node000008"><a xlink:title=" ">
<path fill="none" stroke="#63b8ff" d="M145.96,-275.92C120,-249.13 49.47,-167.88 87,-110.5 101.84,-87.8 131.05,-76.58 154.42,-71.07"/>
<polygon fill="#63b8ff" stroke="#63b8ff" points="155.11,-74.51 164.19,-69.05 153.69,-67.65 155.11,-74.51"/>
</a>
</g>
</g>
<!-- Node15&#45;&gt;Node10 -->
<g id="edge18_Node000015_Node000010" class="edge">
<title>Node15&#45;&gt;Node10</title>
<g id="a_edge18_Node000015_Node000010"><a xlink:title=" ">
<path fill="none" stroke="#63b8ff" d="M153.76,-276.07C150.21,-250.75 139.88,-177.25 134.84,-141.34"/>
<polygon fill="#63b8ff" stroke="#63b8ff" points="138.31,-140.89 133.45,-131.47 131.38,-141.86 138.31,-140.89"/>
</a>
</g>
</g>
<!-- Node16 -->
<g id="Node000016" class="node">
<title>Node16</title>
<g id="a_Node000016"><a xlink:href="random_8h.html" target="_top" xlink:title="Header for random number configuration.">
<polygon fill="white" stroke="#666666" points="299.88,-240.25 244.12,-240.25 244.12,-221 299.88,-221 299.88,-240.25"/>
<text text-anchor="middle" x="272" y="-226.75" font-family="IBMPlexSans-Regular" font-size="10.00">random.h</text>
</a>
</g>
</g>
<!-- Node15&#45;&gt;Node16 -->
<g id="edge19_Node000015_Node000016" class="edge">
<title>Node15&#45;&gt;Node16</title>
<g id="a_edge19_Node000015_Node000016"><a xlink:title=" ">
<path fill="none" stroke="#63b8ff" d="M174.85,-275.84C193.17,-267.5 220.65,-255 241.71,-245.41"/>
<polygon fill="#63b8ff" stroke="#63b8ff" points="243.03,-248.66 250.68,-241.33 240.13,-242.29 243.03,-248.66"/>
</a>
</g>
</g>
<!-- Node16&#45;&gt;Node5 -->
<g id="edge21_Node000016_Node000005" class="edge">
<title>Node16&#45;&gt;Node5</title>
<g id="a_edge21_Node000016_Node000005"><a xlink:title=" ">
<path fill="none" stroke="#63b8ff" d="M286.93,-220.59C300.2,-212.56 319.87,-200.66 335.45,-191.23"/>
<polygon fill="#63b8ff" stroke="#63b8ff" points="336.96,-194.41 343.7,-186.24 333.34,-188.42 336.96,-194.41"/>
</a>
</g>
</g>
<!-- Node16&#45;&gt;Node7 -->
<g id="edge20_Node000016_Node000007" class="edge">
<title>Node16&#45;&gt;Node7</title>
<g id="a_edge20_Node000016_Node000007"><a xlink:title=" ">
<path fill="none" stroke="#63b8ff" d="M274.58,-220.82C282.04,-195.39 303.74,-121.35 314.21,-85.62"/>
<polygon fill="#63b8ff" stroke="#63b8ff" points="317.53,-86.76 316.98,-76.17 310.81,-84.79 317.53,-86.76"/>
</a>
</g>
</g>
<!-- Node16&#45;&gt;Node8 -->
<g id="edge22_Node000016_Node000008" class="edge">
<title>Node16&#45;&gt;Node8</title>
<g id="a_edge22_Node000016_Node000008"><a xlink:title=" ">
<path fill="none" stroke="#63b8ff" d="M243.96,-223.22C202.77,-212.14 127.29,-185.05 95,-129.75 78.69,-101.81 121.83,-83.46 154.96,-73.87"/>
<polygon fill="#63b8ff" stroke="#63b8ff" points="155.52,-77.35 164.25,-71.35 153.68,-70.59 155.52,-77.35"/>
</a>
</g>
</g>
</g>
</svg>
