<?xml version="1.0" encoding="UTF-8" standalone="no"?>
<!DOCTYPE svg PUBLIC "-//W3C//DTD SVG 1.1//EN"
 "http://www.w3.org/Graphics/SVG/1.1/DTD/svg11.dtd">
<!-- Generated by graphviz version 12.2.1 (20241206.2353)
 -->
<!-- Title: Dslash_f Pages: 1 -->
<svg width="318pt" height="27pt"
 viewBox="0.00 0.00 318.00 27.25" xmlns="http://www.w3.org/2000/svg" xmlns:xlink="http://www.w3.org/1999/xlink">
<g id="graph0" class="graph" transform="scale(1 1) rotate(0) translate(4 23.25)">
<title>Dslash_f</title>
<!-- Node1 -->
<g id="Node000001" class="node">
<title>Node1</title>
<g id="a_Node000001"><a xlink:title="Evaluates &#160;in single precision.">
<polygon fill="#999999" stroke="#666666" points="310,-19.25 255.75,-19.25 255.75,0 310,0 310,-19.25"/>
<text text-anchor="middle" x="282.88" y="-5.75" font-family="IBMPlexSans-Regular" font-size="10.00">Dslash_f</text>
</a>
</g>
</g>
<!-- Node2 -->
<g id="Node000002" class="node">
<title>Node2</title>
<g id="a_Node000002"><a xlink:href="congrad_8c.html#aa3fde21d836b340202ca6b18bead4510" target="_top" xlink:title="Matrix Inversion via Conjugate Gradient (no up/down flavour partitioning). Solves &#160;The matrix multipl...">
<polygon fill="white" stroke="#666666" points="219.75,-19.25 162.5,-19.25 162.5,0 219.75,0 219.75,-19.25"/>
<text text-anchor="middle" x="191.12" y="-5.75" font-family="IBMPlexSans-Regular" font-size="10.00">Congradp</text>
</a>
</g>
</g>
<!-- Node1&#45;&gt;Node2 -->
<g id="edge1_Node000001_Node000002" class="edge">
<title>Node1&#45;&gt;Node2</title>
<g id="a_edge1_Node000001_Node000002"><a xlink:title=" ">
<path fill="none" stroke="#63b8ff" d="M243.97,-9.62C235.91,-9.62 227.54,-9.62 219.94,-9.62"/>
<polygon fill="#63b8ff" stroke="#63b8ff" points="243.92,-13.13 253.92,-9.63 243.92,-6.13 243.92,-13.13"/>
</a>
</g>
</g>
<!-- Node3 -->
<g id="Node000003" class="node">
<title>Node3</title>
<g id="a_Node000003"><a xlink:href="fermionic_8c.html#a4f76ed3be4902e11205760b4222665c8" target="_top" xlink:title="Calculate fermion expectation values via a noisy estimator.">
<polygon fill="white" stroke="#666666" points="126.5,-19.25 73,-19.25 73,0 126.5,0 126.5,-19.25"/>
<text text-anchor="middle" x="99.75" y="-5.75" font-family="IBMPlexSans-Regular" font-size="10.00">Measure</text>
</a>
</g>
</g>
<!-- Node2&#45;&gt;Node3 -->
<g id="edge2_Node000002_Node000003" class="edge">
<title>Node2&#45;&gt;Node3</title>
<g id="a_edge2_Node000002_Node000003"><a xlink:title=" ">
<path fill="none" stroke="#63b8ff" d="M151.1,-9.62C142.95,-9.62 134.55,-9.62 127,-9.62"/>
<polygon fill="#63b8ff" stroke="#63b8ff" points="150.82,-13.13 160.82,-9.63 150.82,-6.13 150.82,-13.13"/>
</a>
</g>
</g>
<!-- Node4 -->
<g id="Node000004" class="node">
<title>Node4</title>
<g id="a_Node000004"><a xlink:href="main_8c.html#a0ddf1224851353fc92bfbff6f499fa97" target="_top" xlink:title=" ">
<polygon fill="white" stroke="#666666" points="37,-19.25 0,-19.25 0,0 37,0 37,-19.25"/>
<text text-anchor="middle" x="18.5" y="-5.75" font-family="IBMPlexSans-Regular" font-size="10.00">main</text>
</a>
</g>
</g>
<!-- Node3&#45;&gt;Node4 -->
<g id="edge3_Node000003_Node000004" class="edge">
<title>Node3&#45;&gt;Node4</title>
<g id="a_edge3_Node000003_Node000004"><a xlink:title=" ">
<path fill="none" stroke="#63b8ff" d="M61.3,-9.62C53,-9.62 44.58,-9.62 37.48,-9.62"/>
<polygon fill="#63b8ff" stroke="#63b8ff" points="61.29,-13.13 71.29,-9.63 61.29,-6.13 61.29,-13.13"/>
</a>
</g>
</g>
</g>
</svg>
