<?xml version="1.0" encoding="UTF-8" standalone="no"?>
<!DOCTYPE svg PUBLIC "-//W3C//DTD SVG 1.1//EN"
 "http://www.w3.org/Graphics/SVG/1.1/DTD/svg11.dtd">
<!-- Generated by graphviz version 12.1.2 (20240928.0832)
 -->
<!-- Title: CHalo_swap_all Pages: 1 -->
<svg width="471pt" height="268pt"
 viewBox="0.00 0.00 470.50 268.25" xmlns="http://www.w3.org/2000/svg" xmlns:xlink="http://www.w3.org/1999/xlink">
<g id="graph0" class="graph" transform="scale(1 1) rotate(0) translate(4 264.25)">
<title>CHalo_swap_all</title>
<!-- Node1 -->
<g id="Node000001" class="node">
<title>Node1</title>
<g id="a_Node000001"><a xlink:title="Calls the functions to send data to both the up and down halos.">
<polygon fill="#999999" stroke="#666666" points="462.5,-202.25 376,-202.25 376,-183 462.5,-183 462.5,-202.25"/>
<text text-anchor="middle" x="419.25" y="-188.75" font-family="IBMPlexSans-Regular" font-size="10.00">CHalo_swap_all</text>
</a>
</g>
</g>
<!-- Node2 -->
<g id="Node000002" class="node">
<title>Node2</title>
<g id="a_Node000002"><a xlink:href="matrices_8c.html#ac6cc2163c8a92f8029e274926047c256" target="_top" xlink:title="Evaluates &#160;in single precision.">
<polygon fill="white" stroke="#666666" points="334.38,-259.25 280.12,-259.25 280.12,-240 334.38,-240 334.38,-259.25"/>
<text text-anchor="middle" x="307.25" y="-245.75" font-family="IBMPlexSans-Regular" font-size="10.00">Dslash_f</text>
</a>
</g>
</g>
<!-- Node1&#45;&gt;Node2 -->
<g id="edge1_Node000001_Node000002" class="edge">
<title>Node1&#45;&gt;Node2</title>
<g id="a_edge1_Node000001_Node000002"><a xlink:title=" ">
<path fill="none" stroke="#63b8ff" d="M388.68,-207.95C369.25,-218.02 344.37,-230.91 327.47,-239.67"/>
<polygon fill="#63b8ff" stroke="#63b8ff" points="390.23,-211.09 397.49,-203.38 387,-204.87 390.23,-211.09"/>
</a>
</g>
</g>
<!-- Node5 -->
<g id="Node000005" class="node">
<title>Node5</title>
<g id="a_Node000005"><a xlink:href="matrices_8c.html#aba7f4f08e497d2b0b94f3e2526ca0a31" target="_top" xlink:title="Evaluates &#160;in single precision.">
<polygon fill="white" stroke="#666666" points="337,-221.25 277.5,-221.25 277.5,-202 337,-202 337,-221.25"/>
<text text-anchor="middle" x="307.25" y="-207.75" font-family="IBMPlexSans-Regular" font-size="10.00">Dslashd_f</text>
</a>
</g>
</g>
<!-- Node1&#45;&gt;Node5 -->
<g id="edge4_Node000001_Node000005" class="edge">
<title>Node1&#45;&gt;Node5</title>
<g id="a_edge4_Node000001_Node000005"><a xlink:title=" ">
<path fill="none" stroke="#63b8ff" d="M364.44,-201.92C355.11,-203.53 345.74,-205.15 337.4,-206.59"/>
<polygon fill="#63b8ff" stroke="#63b8ff" points="364.97,-205.38 374.23,-200.23 363.78,-198.48 364.97,-205.38"/>
</a>
</g>
</g>
<!-- Node7 -->
<g id="Node000007" class="node">
<title>Node7</title>
<g id="a_Node000007"><a xlink:href="matrices_8c.html#a17eb50d07c881fc5d1585ddf14aa1ff0" target="_top" xlink:title="Evaluates &#160;in single precision.">
<polygon fill="white" stroke="#666666" points="337.38,-184.25 277.12,-184.25 277.12,-165 337.38,-165 337.38,-184.25"/>
<text text-anchor="middle" x="307.25" y="-170.75" font-family="IBMPlexSans-Regular" font-size="10.00">Hdslash_f</text>
</a>
</g>
</g>
<!-- Node1&#45;&gt;Node7 -->
<g id="edge8_Node000001_Node000007" class="edge">
<title>Node1&#45;&gt;Node7</title>
<g id="a_edge8_Node000001_Node000007"><a xlink:title=" ">
<path fill="none" stroke="#63b8ff" d="M364.55,-183.84C355.31,-182.33 346.02,-180.81 337.73,-179.45"/>
<polygon fill="#63b8ff" stroke="#63b8ff" points="363.79,-187.26 374.23,-185.42 364.92,-180.35 363.79,-187.26"/>
</a>
</g>
</g>
<!-- Node14 -->
<g id="Node000014" class="node">
<title>Node14</title>
<g id="a_Node000014"><a xlink:href="matrices_8c.html#a87e3179e3c6947eacfa74ada59aaeb0c" target="_top" xlink:title="Evaluates &#160;in single precision.">
<polygon fill="white" stroke="#666666" points="340,-147.25 274.5,-147.25 274.5,-128 340,-128 340,-147.25"/>
<text text-anchor="middle" x="307.25" y="-133.75" font-family="IBMPlexSans-Regular" font-size="10.00">Hdslashd_f</text>
</a>
</g>
</g>
<!-- Node1&#45;&gt;Node14 -->
<g id="edge19_Node000001_Node000014" class="edge">
<title>Node1&#45;&gt;Node14</title>
<g id="a_edge19_Node000001_Node000014"><a xlink:title=" ">
<path fill="none" stroke="#63b8ff" d="M387.83,-177.42C368.84,-167.92 344.93,-155.96 328.3,-147.65"/>
<polygon fill="#63b8ff" stroke="#63b8ff" points="386.21,-180.52 396.72,-181.86 389.34,-174.26 386.21,-180.52"/>
</a>
</g>
</g>
<!-- Node3 -->
<g id="Node000003" class="node">
<title>Node3</title>
<g id="a_Node000003"><a xlink:href="congrad_8c.html#afe0b99f1475067a37a8f3d4ce2b2de7f" target="_top" xlink:title="Matrix Inversion via Conjugate Gradient (no up/down flavour partitioning). Solves &#160;The matrix multipl...">
<polygon fill="white" stroke="#666666" points="238.5,-260.25 181.25,-260.25 181.25,-241 238.5,-241 238.5,-260.25"/>
<text text-anchor="middle" x="209.88" y="-246.75" font-family="IBMPlexSans-Regular" font-size="10.00">Congradp</text>
</a>
</g>
</g>
<!-- Node2&#45;&gt;Node3 -->
<g id="edge2_Node000002_Node000003" class="edge">
<title>Node2&#45;&gt;Node3</title>
<g id="a_edge2_Node000002_Node000003"><a xlink:title=" ">
<path fill="none" stroke="#63b8ff" d="M268.18,-250.02C258.43,-250.13 248.11,-250.23 238.96,-250.33"/>
<polygon fill="#63b8ff" stroke="#63b8ff" points="268.21,-253.52 278.17,-249.92 268.13,-246.52 268.21,-253.52"/>
</a>
</g>
</g>
<!-- Node4 -->
<g id="Node000004" class="node">
<title>Node4</title>
<g id="a_Node000004"><a xlink:href="fermionic_8c.html#a38464140ca960a533faa9e49b6ee6131" target="_top" xlink:title="Calculate fermion expectation values via a noisy estimator.">
<polygon fill="white" stroke="#666666" points="144.5,-241.25 91,-241.25 91,-222 144.5,-222 144.5,-241.25"/>
<text text-anchor="middle" x="117.75" y="-227.75" font-family="IBMPlexSans-Regular" font-size="10.00">Measure</text>
</a>
</g>
</g>
<!-- Node3&#45;&gt;Node4 -->
<g id="edge3_Node000003_Node000004" class="edge">
<title>Node3&#45;&gt;Node4</title>
<g id="a_edge3_Node000003_Node000004"><a xlink:title=" ">
<path fill="none" stroke="#63b8ff" d="M169.7,-242.37C161.32,-240.6 152.66,-238.77 144.91,-237.14"/>
<polygon fill="#63b8ff" stroke="#63b8ff" points="168.86,-245.77 179.37,-244.41 170.31,-238.92 168.86,-245.77"/>
</a>
</g>
</g>
<!-- Node5&#45;&gt;Node3 -->
<g id="edge5_Node000005_Node000003" class="edge">
<title>Node5&#45;&gt;Node3</title>
<g id="a_edge5_Node000005_Node000003"><a xlink:title=" ">
<path fill="none" stroke="#63b8ff" d="M271.17,-225.97C259.27,-230.83 246.24,-236.16 235.35,-240.62"/>
<polygon fill="#63b8ff" stroke="#63b8ff" points="272.36,-229.27 280.29,-222.24 269.71,-222.79 272.36,-229.27"/>
</a>
</g>
</g>
<!-- Node5&#45;&gt;Node4 -->
<g id="edge7_Node000005_Node000004" class="edge">
<title>Node5&#45;&gt;Node4</title>
<g id="a_edge7_Node000005_Node000004"><a xlink:title=" ">
<path fill="none" stroke="#63b8ff" d="M266.1,-215.91C229.46,-219.82 176.39,-225.48 144.94,-228.83"/>
<polygon fill="#63b8ff" stroke="#63b8ff" points="266.29,-219.41 275.86,-214.87 265.54,-212.45 266.29,-219.41"/>
</a>
</g>
</g>
<!-- Node6 -->
<g id="Node000006" class="node">
<title>Node6</title>
<g id="a_Node000006"><a xlink:href="main_8c.html#a0ddf1224851353fc92bfbff6f499fa97" target="_top" xlink:title=" ">
<polygon fill="white" stroke="#666666" points="45.62,-184.25 8.62,-184.25 8.62,-165 45.62,-165 45.62,-184.25"/>
<text text-anchor="middle" x="27.12" y="-170.75" font-family="IBMPlexSans-Regular" font-size="10.00">main</text>
</a>
</g>
</g>
<!-- Node5&#45;&gt;Node6 -->
<g id="edge6_Node000005_Node000006" class="edge">
<title>Node5&#45;&gt;Node6</title>
<g id="a_edge6_Node000005_Node000006"><a xlink:title=" ">
<path fill="none" stroke="#63b8ff" d="M265.82,-206.25C204.37,-198.07 89.96,-182.85 45.98,-177"/>
<polygon fill="#63b8ff" stroke="#63b8ff" points="265.14,-209.69 275.51,-207.54 266.06,-202.75 265.14,-209.69"/>
</a>
</g>
</g>
<!-- Node8 -->
<g id="Node000008" class="node">
<title>Node8</title>
<g id="a_Node000008"><a xlink:href="congrad_8c.html#aa32f0774e38a36310209b44a2abae8e6" target="_top" xlink:title="Matrix Inversion via Conjugate Gradient (up/down flavour partitioning). Solves &#160;Implements up/down pa...">
<polygon fill="white" stroke="#666666" points="238.5,-146.25 181.25,-146.25 181.25,-127 238.5,-127 238.5,-146.25"/>
<text text-anchor="middle" x="209.88" y="-132.75" font-family="IBMPlexSans-Regular" font-size="10.00">Congradq</text>
</a>
</g>
</g>
<!-- Node7&#45;&gt;Node8 -->
<g id="edge9_Node000007_Node000008" class="edge">
<title>Node7&#45;&gt;Node8</title>
<g id="a_edge9_Node000007_Node000008"><a xlink:title=" ">
<path fill="none" stroke="#63b8ff" d="M270.35,-160.32C258.9,-155.76 246.48,-150.81 235.97,-146.62"/>
<polygon fill="#63b8ff" stroke="#63b8ff" points="268.95,-163.53 279.54,-163.98 271.54,-157.03 268.95,-163.53"/>
</a>
</g>
</g>
<!-- Node9 -->
<g id="Node000009" class="node">
<title>Node9</title>
<g id="a_Node000009"><a xlink:href="force_8c.html#a40e5951024b2de0086a5f878963c6bae" target="_top" xlink:title="Calculates the force &#160;at each intermediate time.">
<polygon fill="white" stroke="#666666" points="138.12,-92.25 97.38,-92.25 97.38,-73 138.12,-73 138.12,-92.25"/>
<text text-anchor="middle" x="117.75" y="-78.75" font-family="IBMPlexSans-Regular" font-size="10.00">Force</text>
</a>
</g>
</g>
<!-- Node8&#45;&gt;Node9 -->
<g id="edge10_Node000008_Node000009" class="edge">
<title>Node8&#45;&gt;Node9</title>
<g id="a_edge10_Node000008_Node000009"><a xlink:title=" ">
<path fill="none" stroke="#63b8ff" d="M182.49,-120.81C167.3,-111.71 148.67,-100.55 135.48,-92.65"/>
<polygon fill="#63b8ff" stroke="#63b8ff" points="180.67,-123.81 191.05,-125.94 184.27,-117.8 180.67,-123.81"/>
</a>
</g>
</g>
<!-- Node13 -->
<g id="Node000013" class="node">
<title>Node13</title>
<g id="a_Node000013"><a xlink:href="su2hmc_8c.html#a73e6186c40491d6f550404b8e975adff" target="_top" xlink:title="Calculate the Hamiltonian.">
<polygon fill="white" stroke="#666666" points="145.25,-146.25 90.25,-146.25 90.25,-127 145.25,-127 145.25,-146.25"/>
<text text-anchor="middle" x="117.75" y="-132.75" font-family="IBMPlexSans-Regular" font-size="10.00">Hamilton</text>
</a>
</g>
</g>
<!-- Node8&#45;&gt;Node13 -->
<g id="edge17_Node000008_Node000013" class="edge">
<title>Node8&#45;&gt;Node13</title>
<g id="a_edge17_Node000008_Node000013"><a xlink:title=" ">
<path fill="none" stroke="#63b8ff" d="M169.35,-136.62C161.3,-136.62 153,-136.62 145.52,-136.62"/>
<polygon fill="#63b8ff" stroke="#63b8ff" points="169.34,-140.13 179.34,-136.63 169.34,-133.13 169.34,-140.13"/>
</a>
</g>
</g>
<!-- Node10 -->
<g id="Node000010" class="node">
<title>Node10</title>
<g id="a_Node000010"><a xlink:href="integrate_8c.html#ae4e13e66dc0e7130825c11648f2ad80c" target="_top" xlink:title="Leapfrog integrator. Each trajectory step takes the form of p&#45;&gt;p+dt/2,u&#45;&gt;u+dt,p&#45;&gt;p+dt/2 In practice t...">
<polygon fill="white" stroke="#666666" points="54.25,-129.25 0,-129.25 0,-110 54.25,-110 54.25,-129.25"/>
<text text-anchor="middle" x="27.12" y="-115.75" font-family="IBMPlexSans-Regular" font-size="10.00">Leapfrog</text>
</a>
</g>
</g>
<!-- Node9&#45;&gt;Node10 -->
<g id="edge11_Node000009_Node000010" class="edge">
<title>Node9&#45;&gt;Node10</title>
<g id="a_edge11_Node000009_Node000010"><a xlink:title=" ">
<path fill="none" stroke="#63b8ff" d="M86.8,-95.13C75.51,-99.84 62.84,-105.13 52.16,-109.59"/>
<polygon fill="#63b8ff" stroke="#63b8ff" points="87.8,-98.5 95.68,-91.42 85.11,-92.04 87.8,-98.5"/>
</a>
</g>
</g>
<!-- Node11 -->
<g id="Node000011" class="node">
<title>Node11</title>
<g id="a_Node000011"><a xlink:href="integrate_8c.html#a44f16170b5e3c92646f2e649ee57da3d" target="_top" xlink:title="OMF integrator. Each trajectory step takes the form of p&#45;&gt;p+dt/2,u&#45;&gt;u+dt,p&#45;&gt;p+dt/2 In practice this i...">
<polygon fill="white" stroke="#666666" points="48.62,-74.25 5.62,-74.25 5.62,-55 48.62,-55 48.62,-74.25"/>
<text text-anchor="middle" x="27.12" y="-60.75" font-family="IBMPlexSans-Regular" font-size="10.00">OMF2</text>
</a>
</g>
</g>
<!-- Node9&#45;&gt;Node11 -->
<g id="edge13_Node000009_Node000011" class="edge">
<title>Node9&#45;&gt;Node11</title>
<g id="a_edge13_Node000009_Node000011"><a xlink:title=" ">
<path fill="none" stroke="#63b8ff" d="M85.96,-76.37C73.74,-73.89 60,-71.1 48.97,-68.86"/>
<polygon fill="#63b8ff" stroke="#63b8ff" points="85.1,-79.77 95.6,-78.33 86.49,-72.91 85.1,-79.77"/>
</a>
</g>
</g>
<!-- Node12 -->
<g id="Node000012" class="node">
<title>Node12</title>
<g id="a_Node000012"><a xlink:href="integrate_8c.html#a5bbed189bcdd47d814585aa7e842bb8e" target="_top" xlink:title=" ">
<polygon fill="white" stroke="#666666" points="48.62,-19.25 5.62,-19.25 5.62,0 48.62,0 48.62,-19.25"/>
<text text-anchor="middle" x="27.12" y="-5.75" font-family="IBMPlexSans-Regular" font-size="10.00">OMF4</text>
</a>
</g>
</g>
<!-- Node9&#45;&gt;Node12 -->
<g id="edge15_Node000009_Node000012" class="edge">
<title>Node9&#45;&gt;Node12</title>
<g id="a_edge15_Node000009_Node000012"><a xlink:title=" ">
<path fill="none" stroke="#63b8ff" d="M95.96,-65.5C78.61,-51.21 54.49,-31.34 40.17,-19.55"/>
<polygon fill="#63b8ff" stroke="#63b8ff" points="93.69,-68.16 103.63,-71.82 98.14,-62.76 93.69,-68.16"/>
</a>
</g>
</g>
<!-- Node10&#45;&gt;Node10 -->
<g id="edge12_Node000010_Node000010" class="edge">
<title>Node10&#45;&gt;Node10</title>
<g id="a_edge12_Node000010_Node000010"><a xlink:title=" ">
<path fill="none" stroke="#63b8ff" d="M43.21,-140.65C41.2,-144.53 35.84,-147.25 27.12,-147.25 11.19,-147.25 6.47,-138.15 12.94,-129.54"/>
<polygon fill="#63b8ff" stroke="#63b8ff" points="46.7,-140.3 41.57,-131.03 39.8,-141.48 46.7,-140.3"/>
</a>
</g>
</g>
<!-- Node11&#45;&gt;Node11 -->
<g id="edge14_Node000011_Node000011" class="edge">
<title>Node11&#45;&gt;Node11</title>
<g id="a_edge14_Node000011_Node000011"><a xlink:title=" ">
<path fill="none" stroke="#63b8ff" d="M43.21,-85.65C41.2,-89.53 35.84,-92.25 27.12,-92.25 11.19,-92.25 6.47,-83.15 12.94,-74.54"/>
<polygon fill="#63b8ff" stroke="#63b8ff" points="46.7,-85.3 41.57,-76.03 39.8,-86.48 46.7,-85.3"/>
</a>
</g>
</g>
<!-- Node12&#45;&gt;Node12 -->
<g id="edge16_Node000012_Node000012" class="edge">
<title>Node12&#45;&gt;Node12</title>
<g id="a_edge16_Node000012_Node000012"><a xlink:title=" ">
<path fill="none" stroke="#63b8ff" d="M43.21,-30.65C41.2,-34.53 35.84,-37.25 27.12,-37.25 11.19,-37.25 6.47,-28.15 12.94,-19.54"/>
<polygon fill="#63b8ff" stroke="#63b8ff" points="46.7,-30.3 41.57,-21.03 39.8,-31.48 46.7,-30.3"/>
</a>
</g>
</g>
<!-- Node13&#45;&gt;Node6 -->
<g id="edge18_Node000013_Node000006" class="edge">
<title>Node13&#45;&gt;Node6</title>
<g id="a_edge18_Node000013_Node000006"><a xlink:title=" ">
<path fill="none" stroke="#63b8ff" d="M83.21,-151C70.54,-156.44 56.62,-162.41 45.94,-166.99"/>
<polygon fill="#63b8ff" stroke="#63b8ff" points="84.26,-154.36 92.07,-147.21 81.5,-147.93 84.26,-154.36"/>
</a>
</g>
</g>
<!-- Node14&#45;&gt;Node8 -->
<g id="edge20_Node000014_Node000008" class="edge">
<title>Node14&#45;&gt;Node8</title>
<g id="a_edge20_Node000014_Node000008"><a xlink:title=" ">
<path fill="none" stroke="#63b8ff" d="M262.88,-137.17C254.71,-137.08 246.36,-137 238.82,-136.92"/>
<polygon fill="#63b8ff" stroke="#63b8ff" points="262.68,-140.67 272.71,-137.27 262.75,-133.67 262.68,-140.67"/>
</a>
</g>
</g>
</g>
</svg>
