<?xml version="1.0" encoding="UTF-8" standalone="no"?>
<!DOCTYPE svg PUBLIC "-//W3C//DTD SVG 1.1//EN"
 "http://www.w3.org/Graphics/SVG/1.1/DTD/svg11.dtd">
<!-- Generated by graphviz version 12.2.1 (20241206.2353)
 -->
<!-- Title: ZHalo_swap_dir Pages: 1 -->
<svg width="347pt" height="120pt"
 viewBox="0.00 0.00 347.25 120.25" xmlns="http://www.w3.org/2000/svg" xmlns:xlink="http://www.w3.org/1999/xlink">
<g id="graph0" class="graph" transform="scale(1 1) rotate(0) translate(4 116.25)">
<title>ZHalo_swap_dir</title>
<!-- Node1 -->
<g id="Node000001" class="node">
<title>Node1</title>
<g id="a_Node000001"><a xlink:title="Swaps the halos along the axis given by idir in the direction given by layer.">
<polygon fill="#999999" stroke="#666666" points="339.25,-37.25 252.75,-37.25 252.75,-18 339.25,-18 339.25,-37.25"/>
<text text-anchor="middle" x="296" y="-23.75" font-family="IBMPlexSans-Regular" font-size="10.00">ZHalo_swap_dir</text>
</a>
</g>
</g>
<!-- Node2 -->
<g id="Node000002" class="node">
<title>Node2</title>
<g id="a_Node000002"><a xlink:href="force_8c.html#a98a5926c20124e0cea060ad1e47ff3de" target="_top" xlink:title="Calculates the force &#160;at each intermediate time.">
<polygon fill="white" stroke="#666666" points="210.38,-56.25 169.62,-56.25 169.62,-37 210.38,-37 210.38,-56.25"/>
<text text-anchor="middle" x="190" y="-42.75" font-family="IBMPlexSans-Regular" font-size="10.00">Force</text>
</a>
</g>
</g>
<!-- Node1&#45;&gt;Node2 -->
<g id="edge1_Node000001_Node000002" class="edge">
<title>Node1&#45;&gt;Node2</title>
<g id="a_edge1_Node000001_Node000002"><a xlink:title=" ">
<path fill="none" stroke="#63b8ff" d="M241.09,-37.47C230.19,-39.47 219.41,-41.44 210.65,-43.03"/>
<polygon fill="#63b8ff" stroke="#63b8ff" points="241.7,-40.92 250.91,-35.68 240.44,-34.03 241.7,-40.92"/>
</a>
</g>
</g>
<!-- Node7 -->
<g id="Node000007" class="node">
<title>Node7</title>
<g id="a_Node000007"><a xlink:href="fermionic_8c.html#a4f76ed3be4902e11205760b4222665c8" target="_top" xlink:title="Calculate fermion expectation values via a noisy estimator.">
<polygon fill="white" stroke="#666666" points="216.75,-19.25 163.25,-19.25 163.25,0 216.75,0 216.75,-19.25"/>
<text text-anchor="middle" x="190" y="-5.75" font-family="IBMPlexSans-Regular" font-size="10.00">Measure</text>
</a>
</g>
</g>
<!-- Node1&#45;&gt;Node7 -->
<g id="edge8_Node000001_Node000007" class="edge">
<title>Node1&#45;&gt;Node7</title>
<g id="a_edge8_Node000001_Node000007"><a xlink:title=" ">
<path fill="none" stroke="#63b8ff" d="M241.31,-18.33C232.84,-16.87 224.44,-15.41 216.99,-14.12"/>
<polygon fill="#63b8ff" stroke="#63b8ff" points="240.46,-21.74 250.91,-19.99 241.65,-14.84 240.46,-21.74"/>
</a>
</g>
</g>
<!-- Node3 -->
<g id="Node000003" class="node">
<title>Node3</title>
<g id="a_Node000003"><a xlink:href="integrate_8c.html#a4d7f64e9f3e98a2953d707f18742d110" target="_top" xlink:title="Leapfrog integrator. Each trajectory step takes the form of p&#45;&gt;p+dt/2,u&#45;&gt;u+dt,p&#45;&gt;p+dt/2 In practice t...">
<polygon fill="white" stroke="#666666" points="127.25,-112.25 73,-112.25 73,-93 127.25,-93 127.25,-112.25"/>
<text text-anchor="middle" x="100.12" y="-98.75" font-family="IBMPlexSans-Regular" font-size="10.00">Leapfrog</text>
</a>
</g>
</g>
<!-- Node2&#45;&gt;Node3 -->
<g id="edge2_Node000002_Node000003" class="edge">
<title>Node2&#45;&gt;Node3</title>
<g id="a_edge2_Node000002_Node000003"><a xlink:title=" ">
<path fill="none" stroke="#63b8ff" d="M163.99,-62.56C148.88,-72.19 130.08,-84.17 117,-92.51"/>
<polygon fill="#63b8ff" stroke="#63b8ff" points="165.46,-65.78 172.01,-57.45 161.7,-59.87 165.46,-65.78"/>
</a>
</g>
</g>
<!-- Node5 -->
<g id="Node000005" class="node">
<title>Node5</title>
<g id="a_Node000005"><a xlink:href="integrate_8c.html#a33907d89c4a0709fcf809773de68c3a2" target="_top" xlink:title="OMF second order five step integrator.">
<polygon fill="white" stroke="#666666" points="121.62,-75.25 78.62,-75.25 78.62,-56 121.62,-56 121.62,-75.25"/>
<text text-anchor="middle" x="100.12" y="-61.75" font-family="IBMPlexSans-Regular" font-size="10.00">OMF2</text>
</a>
</g>
</g>
<!-- Node2&#45;&gt;Node5 -->
<g id="edge4_Node000002_Node000005" class="edge">
<title>Node2&#45;&gt;Node5</title>
<g id="a_edge4_Node000002_Node000005"><a xlink:title=" ">
<path fill="none" stroke="#63b8ff" d="M158.56,-53.21C146.53,-55.81 133.01,-58.73 122.11,-61.09"/>
<polygon fill="#63b8ff" stroke="#63b8ff" points="158.98,-56.7 168.02,-51.16 157.5,-49.85 158.98,-56.7"/>
</a>
</g>
</g>
<!-- Node6 -->
<g id="Node000006" class="node">
<title>Node6</title>
<g id="a_Node000006"><a xlink:href="integrate_8c.html#a4e6abc4e61c0131df30fb683569e5d00" target="_top" xlink:title="OMF fourth order eleven step integrator.">
<polygon fill="white" stroke="#666666" points="121.62,-38.25 78.62,-38.25 78.62,-19 121.62,-19 121.62,-38.25"/>
<text text-anchor="middle" x="100.12" y="-24.75" font-family="IBMPlexSans-Regular" font-size="10.00">OMF4</text>
</a>
</g>
</g>
<!-- Node2&#45;&gt;Node6 -->
<g id="edge6_Node000002_Node000006" class="edge">
<title>Node2&#45;&gt;Node6</title>
<g id="a_edge6_Node000002_Node000006"><a xlink:title=" ">
<path fill="none" stroke="#63b8ff" d="M158.56,-40.39C146.53,-37.93 133.01,-35.16 122.11,-32.92"/>
<polygon fill="#63b8ff" stroke="#63b8ff" points="157.52,-43.75 168.01,-42.33 158.92,-36.89 157.52,-43.75"/>
</a>
</g>
</g>
<!-- Node4 -->
<g id="Node000004" class="node">
<title>Node4</title>
<g id="a_Node000004"><a xlink:href="main_8c.html#a0ddf1224851353fc92bfbff6f499fa97" target="_top" xlink:title=" ">
<polygon fill="white" stroke="#666666" points="37,-56.25 0,-56.25 0,-37 37,-37 37,-56.25"/>
<text text-anchor="middle" x="18.5" y="-42.75" font-family="IBMPlexSans-Regular" font-size="10.00">main</text>
</a>
</g>
</g>
<!-- Node3&#45;&gt;Node4 -->
<g id="edge3_Node000003_Node000004" class="edge">
<title>Node3&#45;&gt;Node4</title>
<g id="a_edge3_Node000003_Node000004"><a xlink:title=" ">
<path fill="none" stroke="#63b8ff" d="M75.11,-86.1C74.4,-85.6 73.69,-85.11 73,-84.62 59.56,-75.22 44.31,-64.37 33.54,-56.68"/>
<polygon fill="#63b8ff" stroke="#63b8ff" points="73,-88.89 83.21,-91.71 76.98,-83.14 73,-88.89"/>
</a>
</g>
</g>
<!-- Node5&#45;&gt;Node4 -->
<g id="edge5_Node000005_Node000004" class="edge">
<title>Node5&#45;&gt;Node4</title>
<g id="a_edge5_Node000005_Node000004"><a xlink:title=" ">
<path fill="none" stroke="#63b8ff" d="M67.17,-58C57,-55.57 46.11,-52.97 37.31,-50.88"/>
<polygon fill="#63b8ff" stroke="#63b8ff" points="66.19,-61.36 76.73,-60.28 67.82,-54.56 66.19,-61.36"/>
</a>
</g>
</g>
<!-- Node6&#45;&gt;Node4 -->
<g id="edge7_Node000006_Node000004" class="edge">
<title>Node6&#45;&gt;Node4</title>
<g id="a_edge7_Node000006_Node000004"><a xlink:title=" ">
<path fill="none" stroke="#63b8ff" d="M67.17,-35.85C57,-38.15 46.11,-40.61 37.31,-42.6"/>
<polygon fill="#63b8ff" stroke="#63b8ff" points="67.75,-39.31 76.73,-33.69 66.2,-32.48 67.75,-39.31"/>
</a>
</g>
</g>
<!-- Node7&#45;&gt;Node4 -->
<g id="edge9_Node000007_Node000004" class="edge">
<title>Node7&#45;&gt;Node4</title>
<g id="a_edge9_Node000007_Node000004"><a xlink:title=" ">
<path fill="none" stroke="#63b8ff" d="M151.57,-4.05C128.42,-1.95 98.37,-1.71 73,-9.62 56.18,-14.87 40,-27.47 29.91,-36.5"/>
<polygon fill="#63b8ff" stroke="#63b8ff" points="151.17,-7.53 161.49,-5.12 151.92,-0.57 151.17,-7.53"/>
</a>
</g>
</g>
</g>
</svg>
