<?xml version="1.0" encoding="UTF-8" standalone="no"?>
<!DOCTYPE svg PUBLIC "-//W3C//DTD SVG 1.1//EN"
 "http://www.w3.org/Graphics/SVG/1.1/DTD/svg11.dtd">
<!-- Generated by graphviz version 12.2.1 (20241206.2353)
 -->
<!-- Title: INCLUDE/par_mpi.h Pages: 1 -->
<svg width="458pt" height="193pt"
 viewBox="0.00 0.00 458.38 193.00" xmlns="http://www.w3.org/2000/svg" xmlns:xlink="http://www.w3.org/1999/xlink">
<g id="graph0" class="graph" transform="scale(1 1) rotate(0) translate(4 189)">
<title>INCLUDE/par_mpi.h</title>
<!-- Node1 -->
<g id="Node000001" class="node">
<title>Node1</title>
<g id="a_Node000001"><a xlink:title="MPI headers.">
<polygon fill="#999999" stroke="#666666" points="281.88,-185 177.38,-185 177.38,-165.75 281.88,-165.75 281.88,-185"/>
<text text-anchor="middle" x="229.62" y="-171.5" font-family="IBMPlexSans-Regular" font-size="10.00">INCLUDE/par_mpi.h</text>
</a>
</g>
</g>
<!-- Node2 -->
<g id="Node000002" class="node">
<title>Node2</title>
<g id="a_Node000002"><a xlink:href="coord_8h.html" target="_top" xlink:title="Header for routines related to lattice sites.">
<polygon fill="white" stroke="#666666" points="58.38,-129.75 10.88,-129.75 10.88,-110.5 58.38,-110.5 58.38,-129.75"/>
<text text-anchor="middle" x="34.62" y="-116.25" font-family="IBMPlexSans-Regular" font-size="10.00">coord.h</text>
</a>
</g>
</g>
<!-- Node1&#45;&gt;Node2 -->
<g id="edge1_Node000001_Node000002" class="edge">
<title>Node1&#45;&gt;Node2</title>
<g id="a_edge1_Node000001_Node000002"><a xlink:title=" ">
<path fill="none" stroke="#63b8ff" d="M196.55,-165.34C161.25,-155.7 105.56,-140.5 69.57,-130.67"/>
<polygon fill="#63b8ff" stroke="#63b8ff" points="70.65,-127.33 60.08,-128.08 68.81,-134.09 70.65,-127.33"/>
</a>
</g>
</g>
<!-- Node4 -->
<g id="Node000004" class="node">
<title>Node4</title>
<g id="a_Node000004"><a xlink:href="sizes_8h.html" target="_top" xlink:title="Defines the constants of the code and other parameters for loop dimensions. Each subroutine includes ...">
<polygon fill="white" stroke="#666666" points="109.62,-74.5 63.62,-74.5 63.62,-55.25 109.62,-55.25 109.62,-74.5"/>
<text text-anchor="middle" x="86.62" y="-61" font-family="IBMPlexSans-Regular" font-size="10.00">sizes.h</text>
</a>
</g>
</g>
<!-- Node1&#45;&gt;Node4 -->
<g id="edge6_Node000001_Node000004" class="edge">
<title>Node1&#45;&gt;Node4</title>
<g id="a_edge6_Node000001_Node000004"><a xlink:title=" ">
<path fill="none" stroke="#63b8ff" d="M177.17,-166.71C152.44,-160.57 124.33,-149.54 105.62,-129.75 94.55,-118.03 89.9,-100.15 87.97,-86.28"/>
<polygon fill="#63b8ff" stroke="#63b8ff" points="91.46,-86.08 86.99,-76.47 84.5,-86.77 91.46,-86.08"/>
</a>
</g>
</g>
<!-- Node6 -->
<g id="Node000006" class="node">
<title>Node6</title>
<g id="a_Node000006"><a xlink:href="errorcodes_8h.html" target="_top" xlink:title="This header is intended to be a useful reference for error codes and their meanings.">
<polygon fill="white" stroke="#666666" points="184.25,-129.75 115,-129.75 115,-110.5 184.25,-110.5 184.25,-129.75"/>
<text text-anchor="middle" x="149.62" y="-116.25" font-family="IBMPlexSans-Regular" font-size="10.00">errorcodes.h</text>
</a>
</g>
</g>
<!-- Node1&#45;&gt;Node6 -->
<g id="edge5_Node000001_Node000006" class="edge">
<title>Node1&#45;&gt;Node6</title>
<g id="a_edge5_Node000001_Node000006"><a xlink:title=" ">
<path fill="none" stroke="#63b8ff" d="M216.05,-165.34C204.22,-157.46 186.79,-145.86 172.75,-136.52"/>
<polygon fill="#63b8ff" stroke="#63b8ff" points="174.79,-133.67 164.52,-131.04 170.91,-139.5 174.79,-133.67"/>
</a>
</g>
</g>
<!-- Node7 -->
<g id="Node000007" class="node">
<title>Node7</title>
<g id="a_Node000007"><a xlink:title=" ">
<polygon fill="#e0e0e0" stroke="#999999" points="257.12,-129.75 202.12,-129.75 202.12,-110.5 257.12,-110.5 257.12,-129.75"/>
<text text-anchor="middle" x="229.62" y="-116.25" font-family="IBMPlexSans-Regular" font-size="10.00">stdbool.h</text>
</a>
</g>
</g>
<!-- Node1&#45;&gt;Node7 -->
<g id="edge7_Node000001_Node000007" class="edge">
<title>Node1&#45;&gt;Node7</title>
<g id="a_edge7_Node000001_Node000007"><a xlink:title=" ">
<path fill="none" stroke="#63b8ff" d="M229.62,-165.58C229.62,-159.07 229.62,-149.92 229.62,-141.62"/>
<polygon fill="#63b8ff" stroke="#63b8ff" points="233.13,-141.62 229.63,-131.62 226.13,-141.62 233.13,-141.62"/>
</a>
</g>
</g>
<!-- Node8 -->
<g id="Node000008" class="node">
<title>Node8</title>
<g id="a_Node000008"><a xlink:title=" ">
<polygon fill="#e0e0e0" stroke="#999999" points="319.88,-129.75 275.38,-129.75 275.38,-110.5 319.88,-110.5 319.88,-129.75"/>
<text text-anchor="middle" x="297.62" y="-116.25" font-family="IBMPlexSans-Regular" font-size="10.00">stdio.h</text>
</a>
</g>
</g>
<!-- Node1&#45;&gt;Node8 -->
<g id="edge8_Node000001_Node000008" class="edge">
<title>Node1&#45;&gt;Node8</title>
<g id="a_edge8_Node000001_Node000008"><a xlink:title=" ">
<path fill="none" stroke="#63b8ff" d="M241.16,-165.34C251.09,-157.57 265.64,-146.17 277.48,-136.9"/>
<polygon fill="#63b8ff" stroke="#63b8ff" points="279.35,-139.88 285.07,-130.96 275.04,-134.37 279.35,-139.88"/>
</a>
</g>
</g>
<!-- Node9 -->
<g id="Node000009" class="node">
<title>Node9</title>
<g id="a_Node000009"><a xlink:title=" ">
<polygon fill="#e0e0e0" stroke="#999999" points="385,-129.75 338.25,-129.75 338.25,-110.5 385,-110.5 385,-129.75"/>
<text text-anchor="middle" x="361.62" y="-116.25" font-family="IBMPlexSans-Regular" font-size="10.00">stdlib.h</text>
</a>
</g>
</g>
<!-- Node1&#45;&gt;Node9 -->
<g id="edge9_Node000001_Node000009" class="edge">
<title>Node1&#45;&gt;Node9</title>
<g id="a_edge9_Node000001_Node000009"><a xlink:title=" ">
<path fill="none" stroke="#63b8ff" d="M252.02,-165.34C273.07,-156.85 304.83,-144.04 328.75,-134.39"/>
<polygon fill="#63b8ff" stroke="#63b8ff" points="329.76,-137.76 337.72,-130.77 327.14,-131.26 329.76,-137.76"/>
</a>
</g>
</g>
<!-- Node10 -->
<g id="Node000010" class="node">
<title>Node10</title>
<g id="a_Node000010"><a xlink:title=" ">
<polygon fill="#e0e0e0" stroke="#999999" points="450.38,-129.75 402.88,-129.75 402.88,-110.5 450.38,-110.5 450.38,-129.75"/>
<text text-anchor="middle" x="426.62" y="-116.25" font-family="IBMPlexSans-Regular" font-size="10.00">string.h</text>
</a>
</g>
</g>
<!-- Node1&#45;&gt;Node10 -->
<g id="edge10_Node000001_Node000010" class="edge">
<title>Node1&#45;&gt;Node10</title>
<g id="a_edge10_Node000001_Node000010"><a xlink:title=" ">
<path fill="none" stroke="#63b8ff" d="M263.04,-165.34C298.7,-155.7 354.96,-140.5 391.33,-130.67"/>
<polygon fill="#63b8ff" stroke="#63b8ff" points="392.18,-134.06 400.92,-128.07 390.35,-127.3 392.18,-134.06"/>
</a>
</g>
</g>
<!-- Node3 -->
<g id="Node000003" class="node">
<title>Node3</title>
<g id="a_Node000003"><a xlink:title=" ">
<polygon fill="#e0e0e0" stroke="#999999" points="45.25,-74.5 0,-74.5 0,-55.25 45.25,-55.25 45.25,-74.5"/>
<text text-anchor="middle" x="22.62" y="-61" font-family="IBMPlexSans-Regular" font-size="10.00">math.h</text>
</a>
</g>
</g>
<!-- Node2&#45;&gt;Node3 -->
<g id="edge2_Node000002_Node000003" class="edge">
<title>Node2&#45;&gt;Node3</title>
<g id="a_edge2_Node000002_Node000003"><a xlink:title=" ">
<path fill="none" stroke="#63b8ff" d="M32.64,-110.33C31.16,-103.74 29.07,-94.46 27.18,-86.07"/>
<polygon fill="#63b8ff" stroke="#63b8ff" points="30.6,-85.32 24.98,-76.34 23.77,-86.86 30.6,-85.32"/>
</a>
</g>
</g>
<!-- Node2&#45;&gt;Node4 -->
<g id="edge3_Node000002_Node000004" class="edge">
<title>Node2&#45;&gt;Node4</title>
<g id="a_edge3_Node000002_Node000004"><a xlink:title=" ">
<path fill="none" stroke="#63b8ff" d="M43.21,-110.33C50.47,-102.9 61.08,-92.04 69.99,-82.91"/>
<polygon fill="#63b8ff" stroke="#63b8ff" points="72.31,-85.54 76.79,-75.94 67.3,-80.65 72.31,-85.54"/>
</a>
</g>
</g>
<!-- Node5 -->
<g id="Node000005" class="node">
<title>Node5</title>
<g id="a_Node000005"><a xlink:title=" ">
<polygon fill="#e0e0e0" stroke="#999999" points="116.38,-19.25 56.88,-19.25 56.88,0 116.38,0 116.38,-19.25"/>
<text text-anchor="middle" x="86.62" y="-5.75" font-family="IBMPlexSans-Regular" font-size="10.00">complex.h</text>
</a>
</g>
</g>
<!-- Node4&#45;&gt;Node5 -->
<g id="edge4_Node000004_Node000005" class="edge">
<title>Node4&#45;&gt;Node5</title>
<g id="a_edge4_Node000004_Node000005"><a xlink:title=" ">
<path fill="none" stroke="#63b8ff" d="M86.62,-55.08C86.62,-48.57 86.62,-39.42 86.62,-31.12"/>
<polygon fill="#63b8ff" stroke="#63b8ff" points="90.13,-31.12 86.63,-21.12 83.13,-31.12 90.13,-31.12"/>
</a>
</g>
</g>
</g>
</svg>
