<?xml version="1.0" encoding="UTF-8" standalone="no"?>
<!DOCTYPE svg PUBLIC "-//W3C//DTD SVG 1.1//EN"
 "http://www.w3.org/Graphics/SVG/1.1/DTD/svg11.dtd">
<!-- Generated by graphviz version 12.2.1 (20241206.2353)
 -->
<!-- Title: production_c/par_mpi.c Pages: 1 -->
<svg width="564pt" height="414pt"
 viewBox="0.00 0.00 564.22 414.00" xmlns="http://www.w3.org/2000/svg" xmlns:xlink="http://www.w3.org/1999/xlink">
<g id="graph0" class="graph" transform="scale(1 1) rotate(0) translate(4 410)">
<title>production_c/par_mpi.c</title>
<!-- Node1 -->
<g id="Node000001" class="node">
<title>Node1</title>
<g id="a_Node000001"><a xlink:title="MPI routines.">
<polygon fill="#999999" stroke="#666666" points="302.47,-406 185.97,-406 185.97,-386.75 302.47,-386.75 302.47,-406"/>
<text text-anchor="middle" x="244.22" y="-392.5" font-family="IBMPlexSans-Regular" font-size="10.00">production_c/par_mpi.c</text>
</a>
</g>
</g>
<!-- Node2 -->
<g id="Node000002" class="node">
<title>Node2</title>
<g id="a_Node000002"><a xlink:href="par__mpi_8h.html" target="_top" xlink:title="MPI headers.">
<polygon fill="white" stroke="#666666" points="271.22,-185 213.22,-185 213.22,-165.75 271.22,-165.75 271.22,-185"/>
<text text-anchor="middle" x="242.22" y="-171.5" font-family="IBMPlexSans-Regular" font-size="10.00">par_mpi.h</text>
</a>
</g>
</g>
<!-- Node1&#45;&gt;Node2 -->
<g id="edge1_Node000001_Node000002" class="edge">
<title>Node1&#45;&gt;Node2</title>
<g id="a_edge1_Node000001_Node000002"><a xlink:title=" ">
<path fill="none" stroke="#63b8ff" d="M239.01,-386.46C224.49,-360.42 186,-282.43 207.22,-221 210.69,-210.94 217.47,-201.43 224.14,-193.78"/>
<polygon fill="#63b8ff" stroke="#63b8ff" points="226.62,-196.25 230.96,-186.58 221.54,-191.44 226.62,-196.25"/>
</a>
</g>
</g>
<!-- Node12 -->
<g id="Node000012" class="node">
<title>Node12</title>
<g id="a_Node000012"><a xlink:href="random_8h.html" target="_top" xlink:title="Header for random number configuration.">
<polygon fill="white" stroke="#666666" points="272.09,-240.25 216.34,-240.25 216.34,-221 272.09,-221 272.09,-240.25"/>
<text text-anchor="middle" x="244.22" y="-226.75" font-family="IBMPlexSans-Regular" font-size="10.00">random.h</text>
</a>
</g>
</g>
<!-- Node1&#45;&gt;Node12 -->
<g id="edge12_Node000001_Node000012" class="edge">
<title>Node1&#45;&gt;Node12</title>
<g id="a_edge12_Node000001_Node000012"><a xlink:title=" ">
<path fill="none" stroke="#63b8ff" d="M244.22,-386.57C244.22,-361.25 244.22,-287.75 244.22,-251.84"/>
<polygon fill="#63b8ff" stroke="#63b8ff" points="247.72,-251.99 244.22,-241.99 240.72,-251.99 247.72,-251.99"/>
</a>
</g>
</g>
<!-- Node13 -->
<g id="Node000013" class="node">
<title>Node13</title>
<g id="a_Node000013"><a xlink:href="su2hmc_8h.html" target="_top" xlink:title="Function declarations for most of the routines.">
<polygon fill="white" stroke="#666666" points="408.22,-350.75 350.22,-350.75 350.22,-331.5 408.22,-331.5 408.22,-350.75"/>
<text text-anchor="middle" x="379.22" y="-337.25" font-family="IBMPlexSans-Regular" font-size="10.00">su2hmc.h</text>
</a>
</g>
</g>
<!-- Node1&#45;&gt;Node13 -->
<g id="edge16_Node000001_Node000013" class="edge">
<title>Node1&#45;&gt;Node13</title>
<g id="a_edge16_Node000001_Node000013"><a xlink:title=" ">
<path fill="none" stroke="#63b8ff" d="M267.12,-386.34C288.64,-377.85 321.13,-365.04 345.59,-355.39"/>
<polygon fill="#63b8ff" stroke="#63b8ff" points="346.78,-358.68 354.79,-351.76 344.21,-352.17 346.78,-358.68"/>
</a>
</g>
</g>
<!-- Node3 -->
<g id="Node000003" class="node">
<title>Node3</title>
<g id="a_Node000003"><a xlink:href="coord_8h.html" target="_top" xlink:title="Header for routines related to lattice sites.">
<polygon fill="white" stroke="#666666" points="213.97,-129.75 166.47,-129.75 166.47,-110.5 213.97,-110.5 213.97,-129.75"/>
<text text-anchor="middle" x="190.22" y="-116.25" font-family="IBMPlexSans-Regular" font-size="10.00">coord.h</text>
</a>
</g>
</g>
<!-- Node2&#45;&gt;Node3 -->
<g id="edge2_Node000002_Node000003" class="edge">
<title>Node2&#45;&gt;Node3</title>
<g id="a_edge2_Node000002_Node000003"><a xlink:title=" ">
<path fill="none" stroke="#63b8ff" d="M233.63,-165.58C226.37,-158.15 215.76,-147.29 206.85,-138.16"/>
<polygon fill="#63b8ff" stroke="#63b8ff" points="209.54,-135.9 200.05,-131.19 204.53,-140.79 209.54,-135.9"/>
</a>
</g>
</g>
<!-- Node5 -->
<g id="Node000005" class="node">
<title>Node5</title>
<g id="a_Node000005"><a xlink:href="sizes_8h.html" target="_top" xlink:title="Defines the constants of the code and other parameters for loop dimensions. Each subroutine includes ...">
<polygon fill="white" stroke="#666666" points="365.22,-74.5 319.22,-74.5 319.22,-55.25 365.22,-55.25 365.22,-74.5"/>
<text text-anchor="middle" x="342.22" y="-61" font-family="IBMPlexSans-Regular" font-size="10.00">sizes.h</text>
</a>
</g>
</g>
<!-- Node2&#45;&gt;Node5 -->
<g id="edge7_Node000002_Node000005" class="edge">
<title>Node2&#45;&gt;Node5</title>
<g id="a_edge7_Node000002_Node000005"><a xlink:title=" ">
<path fill="none" stroke="#63b8ff" d="M242.75,-165.56C243.97,-152.26 248,-126.9 261.22,-110.5 273.36,-95.42 292.04,-84.65 308.4,-77.47"/>
<polygon fill="#63b8ff" stroke="#63b8ff" points="309.38,-80.85 317.32,-73.83 306.74,-74.37 309.38,-80.85"/>
</a>
</g>
</g>
<!-- Node7 -->
<g id="Node000007" class="node">
<title>Node7</title>
<g id="a_Node000007"><a xlink:href="errorcodes_8h.html" target="_top" xlink:title="This header is intended to be a useful reference for error codes and their meanings.">
<polygon fill="white" stroke="#666666" points="82.84,-129.75 13.59,-129.75 13.59,-110.5 82.84,-110.5 82.84,-129.75"/>
<text text-anchor="middle" x="48.22" y="-116.25" font-family="IBMPlexSans-Regular" font-size="10.00">errorcodes.h</text>
</a>
</g>
</g>
<!-- Node2&#45;&gt;Node7 -->
<g id="edge6_Node000002_Node000007" class="edge">
<title>Node2&#45;&gt;Node7</title>
<g id="a_edge6_Node000002_Node000007"><a xlink:title=" ">
<path fill="none" stroke="#63b8ff" d="M212.75,-166.29C180.67,-157.48 129.01,-143.3 92.14,-133.18"/>
<polygon fill="#63b8ff" stroke="#63b8ff" points="93.24,-129.85 82.67,-130.58 91.39,-136.6 93.24,-129.85"/>
</a>
</g>
</g>
<!-- Node8 -->
<g id="Node000008" class="node">
<title>Node8</title>
<g id="a_Node000008"><a xlink:title=" ">
<polygon fill="#e0e0e0" stroke="#999999" points="425.72,-129.75 370.72,-129.75 370.72,-110.5 425.72,-110.5 425.72,-129.75"/>
<text text-anchor="middle" x="398.22" y="-116.25" font-family="IBMPlexSans-Regular" font-size="10.00">stdbool.h</text>
</a>
</g>
</g>
<!-- Node2&#45;&gt;Node8 -->
<g id="edge8_Node000002_Node000008" class="edge">
<title>Node2&#45;&gt;Node8</title>
<g id="a_edge8_Node000002_Node000008"><a xlink:title=" ">
<path fill="none" stroke="#63b8ff" d="M268.68,-165.34C294,-156.7 332.45,-143.57 360.88,-133.87"/>
<polygon fill="#63b8ff" stroke="#63b8ff" points="361.86,-137.23 370.19,-130.69 359.6,-130.61 361.86,-137.23"/>
</a>
</g>
</g>
<!-- Node9 -->
<g id="Node000009" class="node">
<title>Node9</title>
<g id="a_Node000009"><a xlink:title=" ">
<polygon fill="#e0e0e0" stroke="#999999" points="314.47,-129.75 269.97,-129.75 269.97,-110.5 314.47,-110.5 314.47,-129.75"/>
<text text-anchor="middle" x="292.22" y="-116.25" font-family="IBMPlexSans-Regular" font-size="10.00">stdio.h</text>
</a>
</g>
</g>
<!-- Node2&#45;&gt;Node9 -->
<g id="edge9_Node000002_Node000009" class="edge">
<title>Node2&#45;&gt;Node9</title>
<g id="a_edge9_Node000002_Node000009"><a xlink:title=" ">
<path fill="none" stroke="#63b8ff" d="M250.47,-165.58C257.38,-158.23 267.44,-147.51 275.95,-138.44"/>
<polygon fill="#63b8ff" stroke="#63b8ff" points="278.45,-140.9 282.74,-131.21 273.35,-136.11 278.45,-140.9"/>
</a>
</g>
</g>
<!-- Node10 -->
<g id="Node000010" class="node">
<title>Node10</title>
<g id="a_Node000010"><a xlink:title=" ">
<polygon fill="#e0e0e0" stroke="#999999" points="490.59,-129.75 443.84,-129.75 443.84,-110.5 490.59,-110.5 490.59,-129.75"/>
<text text-anchor="middle" x="467.22" y="-116.25" font-family="IBMPlexSans-Regular" font-size="10.00">stdlib.h</text>
</a>
</g>
</g>
<!-- Node2&#45;&gt;Node10 -->
<g id="edge10_Node000002_Node000010" class="edge">
<title>Node2&#45;&gt;Node10</title>
<g id="a_edge10_Node000002_Node000010"><a xlink:title=" ">
<path fill="none" stroke="#63b8ff" d="M271.39,-167.97C307.19,-160.04 369.98,-145.9 432.61,-130.34"/>
<polygon fill="#63b8ff" stroke="#63b8ff" points="433.15,-133.81 442.01,-127.99 431.46,-127.02 433.15,-133.81"/>
</a>
</g>
</g>
<!-- Node11 -->
<g id="Node000011" class="node">
<title>Node11</title>
<g id="a_Node000011"><a xlink:title=" ">
<polygon fill="#e0e0e0" stroke="#999999" points="147.97,-129.75 100.47,-129.75 100.47,-110.5 147.97,-110.5 147.97,-129.75"/>
<text text-anchor="middle" x="124.22" y="-116.25" font-family="IBMPlexSans-Regular" font-size="10.00">string.h</text>
</a>
</g>
</g>
<!-- Node2&#45;&gt;Node11 -->
<g id="edge11_Node000002_Node000011" class="edge">
<title>Node2&#45;&gt;Node11</title>
<g id="a_edge11_Node000002_Node000011"><a xlink:title=" ">
<path fill="none" stroke="#63b8ff" d="M222.2,-165.34C203.72,-157 176.01,-144.5 154.77,-134.91"/>
<polygon fill="#63b8ff" stroke="#63b8ff" points="156.26,-131.75 145.71,-130.83 153.39,-138.13 156.26,-131.75"/>
</a>
</g>
</g>
<!-- Node4 -->
<g id="Node000004" class="node">
<title>Node4</title>
<g id="a_Node000004"><a xlink:title=" ">
<polygon fill="#e0e0e0" stroke="#999999" points="110.84,-74.5 65.59,-74.5 65.59,-55.25 110.84,-55.25 110.84,-74.5"/>
<text text-anchor="middle" x="88.22" y="-61" font-family="IBMPlexSans-Regular" font-size="10.00">math.h</text>
</a>
</g>
</g>
<!-- Node3&#45;&gt;Node4 -->
<g id="edge3_Node000003_Node000004" class="edge">
<title>Node3&#45;&gt;Node4</title>
<g id="a_edge3_Node000003_Node000004"><a xlink:title=" ">
<path fill="none" stroke="#63b8ff" d="M172.91,-110.09C157.23,-101.91 133.86,-89.71 115.64,-80.19"/>
<polygon fill="#63b8ff" stroke="#63b8ff" points="117.43,-77.18 106.94,-75.65 114.19,-83.38 117.43,-77.18"/>
</a>
</g>
</g>
<!-- Node3&#45;&gt;Node5 -->
<g id="edge4_Node000003_Node000005" class="edge">
<title>Node3&#45;&gt;Node5</title>
<g id="a_edge4_Node000003_Node000005"><a xlink:title=" ">
<path fill="none" stroke="#63b8ff" d="M214.3,-110.69C239.57,-101.83 279.52,-87.84 308.05,-77.85"/>
<polygon fill="#63b8ff" stroke="#63b8ff" points="309.03,-81.21 317.31,-74.6 306.72,-74.6 309.03,-81.21"/>
</a>
</g>
</g>
<!-- Node6 -->
<g id="Node000006" class="node">
<title>Node6</title>
<g id="a_Node000006"><a xlink:title=" ">
<polygon fill="#e0e0e0" stroke="#999999" points="371.97,-19.25 312.47,-19.25 312.47,0 371.97,0 371.97,-19.25"/>
<text text-anchor="middle" x="342.22" y="-5.75" font-family="IBMPlexSans-Regular" font-size="10.00">complex.h</text>
</a>
</g>
</g>
<!-- Node5&#45;&gt;Node6 -->
<g id="edge5_Node000005_Node000006" class="edge">
<title>Node5&#45;&gt;Node6</title>
<g id="a_edge5_Node000005_Node000006"><a xlink:title=" ">
<path fill="none" stroke="#63b8ff" d="M342.22,-55.08C342.22,-48.57 342.22,-39.42 342.22,-31.12"/>
<polygon fill="#63b8ff" stroke="#63b8ff" points="345.72,-31.12 342.22,-21.12 338.72,-31.12 345.72,-31.12"/>
</a>
</g>
</g>
<!-- Node12&#45;&gt;Node2 -->
<g id="edge14_Node000012_Node000002" class="edge">
<title>Node12&#45;&gt;Node2</title>
<g id="a_edge14_Node000012_Node000002"><a xlink:title=" ">
<path fill="none" stroke="#63b8ff" d="M243.88,-220.83C243.64,-214.24 243.29,-204.96 242.97,-196.57"/>
<polygon fill="#63b8ff" stroke="#63b8ff" points="246.48,-196.73 242.61,-186.87 239.49,-197 246.48,-196.73"/>
</a>
</g>
</g>
<!-- Node12&#45;&gt;Node4 -->
<g id="edge13_Node000012_Node000004" class="edge">
<title>Node12&#45;&gt;Node4</title>
<g id="a_edge13_Node000012_Node000004"><a xlink:title=" ">
<path fill="none" stroke="#63b8ff" d="M216.14,-227.58C163.83,-222.08 52.42,-202.02 4.22,-129.75 -12.04,-105.38 24.77,-86.54 54.7,-75.82"/>
<polygon fill="#63b8ff" stroke="#63b8ff" points="55.51,-79.24 63.87,-72.73 53.28,-72.61 55.51,-79.24"/>
</a>
</g>
</g>
<!-- Node12&#45;&gt;Node5 -->
<g id="edge15_Node000012_Node000005" class="edge">
<title>Node12&#45;&gt;Node5</title>
<g id="a_edge15_Node000012_Node000005"><a xlink:title=" ">
<path fill="none" stroke="#63b8ff" d="M253.43,-220.58C269.79,-204.02 304,-167.1 323.22,-129.75 330.36,-115.87 335.25,-98.89 338.28,-85.92"/>
<polygon fill="#63b8ff" stroke="#63b8ff" points="341.64,-86.94 340.31,-76.43 334.79,-85.48 341.64,-86.94"/>
</a>
</g>
</g>
<!-- Node13&#45;&gt;Node5 -->
<g id="edge22_Node000013_Node000005" class="edge">
<title>Node13&#45;&gt;Node5</title>
<g id="a_edge22_Node000013_Node000005"><a xlink:title=" ">
<path fill="none" stroke="#63b8ff" d="M408.44,-335.86C458.72,-326.7 556.22,-300.11 556.22,-231.62 556.22,-231.62 556.22,-231.62 556.22,-174.38 556.22,-94.9 437.36,-73.62 376.81,-67.94"/>
<polygon fill="#63b8ff" stroke="#63b8ff" points="377.29,-64.47 367.03,-67.12 376.71,-71.44 377.29,-64.47"/>
</a>
</g>
</g>
<!-- Node13&#45;&gt;Node7 -->
<g id="edge17_Node000013_Node000007" class="edge">
<title>Node13&#45;&gt;Node7</title>
<g id="a_edge17_Node000013_Node000007"><a xlink:title=" ">
<path fill="none" stroke="#63b8ff" d="M362.22,-331.12C330.89,-314.33 262.22,-276.64 207.22,-240.25 155.27,-205.88 97.49,-160.72 67.96,-137.1"/>
<polygon fill="#63b8ff" stroke="#63b8ff" points="70.24,-134.44 60.25,-130.91 65.86,-139.9 70.24,-134.44"/>
</a>
</g>
</g>
<!-- Node13&#45;&gt;Node9 -->
<g id="edge23_Node000013_Node000009" class="edge">
<title>Node13&#45;&gt;Node9</title>
<g id="a_edge23_Node000013_Node000009"><a xlink:title=" ">
<path fill="none" stroke="#63b8ff" d="M369.15,-331.16C360.31,-322.77 347.72,-309.46 340.22,-295.5 312.39,-243.76 299.6,-174.51 294.73,-140.98"/>
<polygon fill="#63b8ff" stroke="#63b8ff" points="298.25,-140.92 293.44,-131.49 291.32,-141.87 298.25,-140.92"/>
</a>
</g>
</g>
<!-- Node13&#45;&gt;Node10 -->
<g id="edge24_Node000013_Node000010" class="edge">
<title>Node13&#45;&gt;Node10</title>
<g id="a_edge24_Node000013_Node000010"><a xlink:title=" ">
<path fill="none" stroke="#63b8ff" d="M408.47,-335.81C432.03,-330.63 463.69,-319.42 479.22,-295.5 510.54,-247.22 488.87,-174.78 475.53,-140.47"/>
<polygon fill="#63b8ff" stroke="#63b8ff" points="478.86,-139.36 471.83,-131.43 472.38,-142.01 478.86,-139.36"/>
</a>
</g>
</g>
<!-- Node14 -->
<g id="Node000014" class="node">
<title>Node14</title>
<g id="a_Node000014"><a xlink:href="integrate_8h.html" target="_top" xlink:title="Integrators for the HMC.">
<polygon fill="white" stroke="#666666" points="409.72,-295.5 348.72,-295.5 348.72,-276.25 409.72,-276.25 409.72,-295.5"/>
<text text-anchor="middle" x="379.22" y="-282" font-family="IBMPlexSans-Regular" font-size="10.00">integrate.h</text>
</a>
</g>
</g>
<!-- Node13&#45;&gt;Node14 -->
<g id="edge18_Node000013_Node000014" class="edge">
<title>Node13&#45;&gt;Node14</title>
<g id="a_edge18_Node000013_Node000014"><a xlink:title=" ">
<path fill="none" stroke="#63b8ff" d="M379.22,-331.33C379.22,-324.82 379.22,-315.67 379.22,-307.37"/>
<polygon fill="#63b8ff" stroke="#63b8ff" points="382.72,-307.37 379.22,-297.37 375.72,-307.37 382.72,-307.37"/>
</a>
</g>
</g>
<!-- Node15 -->
<g id="Node000015" class="node">
<title>Node15</title>
<g id="a_Node000015"><a xlink:title=" ">
<polygon fill="#e0e0e0" stroke="#999999" points="470.34,-295.5 428.09,-295.5 428.09,-276.25 470.34,-276.25 470.34,-295.5"/>
<text text-anchor="middle" x="449.22" y="-282" font-family="IBMPlexSans-Regular" font-size="10.00">time.h</text>
</a>
</g>
</g>
<!-- Node13&#45;&gt;Node15 -->
<g id="edge25_Node000013_Node000015" class="edge">
<title>Node13&#45;&gt;Node15</title>
<g id="a_edge25_Node000013_Node000015"><a xlink:title=" ">
<path fill="none" stroke="#63b8ff" d="M391.09,-331.09C401.31,-323.32 416.29,-311.92 428.48,-302.65"/>
<polygon fill="#63b8ff" stroke="#63b8ff" points="430.47,-305.53 436.31,-296.69 426.23,-299.96 430.47,-305.53"/>
</a>
</g>
</g>
<!-- Node14&#45;&gt;Node5 -->
<g id="edge21_Node000014_Node000005" class="edge">
<title>Node14&#45;&gt;Node5</title>
<g id="a_edge21_Node000014_Node000005"><a xlink:title=" ">
<path fill="none" stroke="#63b8ff" d="M394.25,-275.79C435.71,-249.6 545.62,-171.93 499.22,-110.5 484.49,-91.01 418.41,-77.53 376.81,-70.81"/>
<polygon fill="#63b8ff" stroke="#63b8ff" points="377.45,-67.37 367.03,-69.29 376.37,-74.28 377.45,-67.37"/>
</a>
</g>
</g>
<!-- Node14&#45;&gt;Node8 -->
<g id="edge19_Node000014_Node000008" class="edge">
<title>Node14&#45;&gt;Node8</title>
<g id="a_edge19_Node000014_Node000008"><a xlink:title=" ">
<path fill="none" stroke="#63b8ff" d="M380.24,-276.07C383.17,-250.75 391.7,-177.25 395.87,-141.34"/>
<polygon fill="#63b8ff" stroke="#63b8ff" points="399.34,-141.81 397.01,-131.48 392.38,-141.01 399.34,-141.81"/>
</a>
</g>
</g>
<!-- Node14&#45;&gt;Node12 -->
<g id="edge20_Node000014_Node000012" class="edge">
<title>Node14&#45;&gt;Node12</title>
<g id="a_edge20_Node000014_Node000012"><a xlink:title=" ">
<path fill="none" stroke="#63b8ff" d="M356.31,-275.84C334.79,-267.35 302.3,-254.54 277.84,-244.89"/>
<polygon fill="#63b8ff" stroke="#63b8ff" points="279.22,-241.67 268.64,-241.26 276.65,-248.18 279.22,-241.67"/>
</a>
</g>
</g>
</g>
</svg>
