<?xml version="1.0" encoding="UTF-8" standalone="no"?>
<!DOCTYPE svg PUBLIC "-//W3C//DTD SVG 1.1//EN"
 "http://www.w3.org/Graphics/SVG/1.1/DTD/svg11.dtd">
<!-- Generated by graphviz version 12.2.1 (20241206.2353)
 -->
<!-- Title: Par_dsum Pages: 1 -->
<svg width="458pt" height="258pt"
 viewBox="0.00 0.00 457.75 258.36" xmlns="http://www.w3.org/2000/svg" xmlns:xlink="http://www.w3.org/1999/xlink">
<g id="graph0" class="graph" transform="scale(1 1) rotate(0) translate(4 254.36)">
<title>Par_dsum</title>
<!-- Node1 -->
<g id="Node000001" class="node">
<title>Node1</title>
<g id="a_Node000001"><a xlink:title="Performs a reduction on a double dval to get a sum which is then distributed to all ranks.">
<polygon fill="#999999" stroke="#666666" points="449.75,-145.25 389.5,-145.25 389.5,-126 449.75,-126 449.75,-145.25"/>
<text text-anchor="middle" x="419.62" y="-131.75" font-family="IBMPlexSans-Regular" font-size="10.00">Par_dsum</text>
</a>
</g>
</g>
<!-- Node2 -->
<g id="Node000002" class="node">
<title>Node2</title>
<g id="a_Node000002"><a xlink:href="bosonic_8c.html#a2c38affebb6d51c6132aedeb69e2c46e" target="_top" xlink:title="Calculates the gauge action using new (how new?) lookup table.">
<polygon fill="white" stroke="#666666" points="353.5,-221.25 255,-221.25 255,-202 353.5,-202 353.5,-221.25"/>
<text text-anchor="middle" x="304.25" y="-207.75" font-family="IBMPlexSans-Regular" font-size="10.00">Average_Plaquette</text>
</a>
</g>
</g>
<!-- Node1&#45;&gt;Node2 -->
<g id="edge1_Node000001_Node000002" class="edge">
<title>Node1&#45;&gt;Node2</title>
<g id="a_edge1_Node000001_Node000002"><a xlink:title=" ">
<path fill="none" stroke="#63b8ff" d="M399,-153.11C386.49,-163.79 369.64,-177.33 353.5,-187.62 345.45,-192.76 336.16,-197.61 327.89,-201.59"/>
<polygon fill="#63b8ff" stroke="#63b8ff" points="401.25,-155.79 406.5,-146.59 396.66,-150.51 401.25,-155.79"/>
</a>
</g>
</g>
<!-- Node3 -->
<g id="Node000003" class="node">
<title>Node3</title>
<g id="a_Node000003"><a xlink:href="su2hmc_8c.html#aad654cdd6107120818d5485ce1620d81" target="_top" xlink:title="Calculate the Hamiltonian.">
<polygon fill="white" stroke="#666666" points="218.62,-185.25 163.62,-185.25 163.62,-166 218.62,-166 218.62,-185.25"/>
<text text-anchor="middle" x="191.12" y="-171.75" font-family="IBMPlexSans-Regular" font-size="10.00">Hamilton</text>
</a>
</g>
</g>
<!-- Node1&#45;&gt;Node3 -->
<g id="edge17_Node000001_Node000003" class="edge">
<title>Node1&#45;&gt;Node3</title>
<g id="a_edge17_Node000001_Node000003"><a xlink:title=" ">
<path fill="none" stroke="#63b8ff" d="M377.99,-148.53C369.93,-150.79 361.49,-152.95 353.5,-154.62 306.63,-164.45 251.08,-170.47 218.89,-173.42"/>
<polygon fill="#63b8ff" stroke="#63b8ff" points="378.97,-151.89 387.59,-145.73 377.01,-145.17 378.97,-151.89"/>
</a>
</g>
</g>
<!-- Node4 -->
<g id="Node000004" class="node">
<title>Node4</title>
<g id="a_Node000004"><a xlink:href="main_8c.html#a0ddf1224851353fc92bfbff6f499fa97" target="_top" xlink:title=" ">
<polygon fill="white" stroke="#666666" points="37,-146.25 0,-146.25 0,-127 37,-127 37,-146.25"/>
<text text-anchor="middle" x="18.5" y="-132.75" font-family="IBMPlexSans-Regular" font-size="10.00">main</text>
</a>
</g>
</g>
<!-- Node1&#45;&gt;Node4 -->
<g id="edge18_Node000001_Node000004" class="edge">
<title>Node1&#45;&gt;Node4</title>
<g id="a_edge18_Node000001_Node000004"><a xlink:title=" ">
<path fill="none" stroke="#63b8ff" d="M411.3,-156.09C401.89,-178.97 383.12,-214.88 353.5,-230.62 278.84,-270.32 247.48,-239.03 163.25,-231.62 122.67,-228.06 107.17,-237.8 73,-215.62 46.74,-198.59 30.09,-163.65 23.18,-146.52"/>
<polygon fill="#63b8ff" stroke="#63b8ff" points="414.52,-157.49 414.84,-146.9 407.98,-154.98 414.52,-157.49"/>
</a>
</g>
</g>
<!-- Node5 -->
<g id="Node000005" class="node">
<title>Node5</title>
<g id="a_Node000005"><a xlink:href="congrad_8c.html#aa3fde21d836b340202ca6b18bead4510" target="_top" xlink:title="Matrix Inversion via Conjugate Gradient (no up/down flavour partitioning). Solves &#160;The matrix multipl...">
<polygon fill="white" stroke="#666666" points="332.88,-69.25 275.62,-69.25 275.62,-50 332.88,-50 332.88,-69.25"/>
<text text-anchor="middle" x="304.25" y="-55.75" font-family="IBMPlexSans-Regular" font-size="10.00">Congradp</text>
</a>
</g>
</g>
<!-- Node1&#45;&gt;Node5 -->
<g id="edge5_Node000001_Node000005" class="edge">
<title>Node1&#45;&gt;Node5</title>
<g id="a_edge5_Node000001_Node000005"><a xlink:title=" ">
<path fill="none" stroke="#63b8ff" d="M399,-118.14C386.49,-107.46 369.64,-93.92 353.5,-83.62 345.45,-78.49 336.16,-73.64 327.89,-69.66"/>
<polygon fill="#63b8ff" stroke="#63b8ff" points="396.66,-120.74 406.5,-124.66 401.25,-115.46 396.66,-120.74"/>
</a>
</g>
</g>
<!-- Node6 -->
<g id="Node000006" class="node">
<title>Node6</title>
<g id="a_Node000006"><a xlink:href="fermionic_8c.html#a4f76ed3be4902e11205760b4222665c8" target="_top" xlink:title="Calculate fermion expectation values via a noisy estimator.">
<polygon fill="white" stroke="#666666" points="217.88,-69.25 164.38,-69.25 164.38,-50 217.88,-50 217.88,-69.25"/>
<text text-anchor="middle" x="191.12" y="-55.75" font-family="IBMPlexSans-Regular" font-size="10.00">Measure</text>
</a>
</g>
</g>
<!-- Node1&#45;&gt;Node6 -->
<g id="edge19_Node000001_Node000006" class="edge">
<title>Node1&#45;&gt;Node6</title>
<g id="a_edge19_Node000001_Node000006"><a xlink:title=" ">
<path fill="none" stroke="#63b8ff" d="M378.18,-122.05C331.89,-106.52 257.45,-81.54 218.23,-68.38"/>
<polygon fill="#63b8ff" stroke="#63b8ff" points="376.99,-125.34 387.58,-125.21 379.21,-118.71 376.99,-125.34"/>
</a>
</g>
</g>
<!-- Node7 -->
<g id="Node000007" class="node">
<title>Node7</title>
<g id="a_Node000007"><a xlink:href="congrad_8c.html#a4b97a088fd74bb3b25ce4f965dc26281" target="_top" xlink:title="Matrix Inversion via Conjugate Gradient (up/down flavour partitioning). Solves &#160;Implements up/down pa...">
<polygon fill="white" stroke="#666666" points="332.88,-145.25 275.62,-145.25 275.62,-126 332.88,-126 332.88,-145.25"/>
<text text-anchor="middle" x="304.25" y="-131.75" font-family="IBMPlexSans-Regular" font-size="10.00">Congradq</text>
</a>
</g>
</g>
<!-- Node1&#45;&gt;Node7 -->
<g id="edge8_Node000001_Node000007" class="edge">
<title>Node1&#45;&gt;Node7</title>
<g id="a_edge8_Node000001_Node000007"><a xlink:title=" ">
<path fill="none" stroke="#63b8ff" d="M377.67,-135.62C362.84,-135.62 346.46,-135.62 333.03,-135.62"/>
<polygon fill="#63b8ff" stroke="#63b8ff" points="377.62,-139.13 387.62,-135.63 377.62,-132.13 377.62,-139.13"/>
</a>
</g>
</g>
<!-- Node12 -->
<g id="Node000012" class="node">
<title>Node12</title>
<g id="a_Node000012"><a xlink:href="bosonic_8c.html#a247c28a831d22009693ea8465b3f99cd" target="_top" xlink:title="Calculate the Polyakov loop (no prizes for guessing that one...)">
<polygon fill="white" stroke="#666666" points="219,-19.25 163.25,-19.25 163.25,0 219,0 219,-19.25"/>
<text text-anchor="middle" x="191.12" y="-5.75" font-family="IBMPlexSans-Regular" font-size="10.00">Polyakov</text>
</a>
</g>
</g>
<!-- Node1&#45;&gt;Node12 -->
<g id="edge20_Node000001_Node000012" class="edge">
<title>Node1&#45;&gt;Node12</title>
<g id="a_edge20_Node000001_Node000012"><a xlink:title=" ">
<path fill="none" stroke="#63b8ff" d="M410.3,-115.12C400.24,-93.06 381.15,-58.73 353.5,-40.62 312.33,-13.66 253.37,-8.96 219.29,-8.76"/>
<polygon fill="#63b8ff" stroke="#63b8ff" points="407.08,-116.47 414.25,-124.26 413.5,-113.69 407.08,-116.47"/>
</a>
</g>
</g>
<!-- Node2&#45;&gt;Node3 -->
<g id="edge2_Node000002_Node000003" class="edge">
<title>Node2&#45;&gt;Node3</title>
<g id="a_edge2_Node000002_Node000003"><a xlink:title=" ">
<path fill="none" stroke="#63b8ff" d="M261.44,-198.08C247.23,-193.48 231.73,-188.45 219,-184.33"/>
<polygon fill="#63b8ff" stroke="#63b8ff" points="259.97,-201.28 270.56,-201.03 262.13,-194.62 259.97,-201.28"/>
</a>
</g>
</g>
<!-- Node2&#45;&gt;Node4 -->
<g id="edge4_Node000002_Node000004" class="edge">
<title>Node2&#45;&gt;Node4</title>
<g id="a_edge4_Node000002_Node000004"><a xlink:title=" ">
<path fill="none" stroke="#63b8ff" d="M243.62,-217.98C195.28,-220.55 126.62,-218.21 73,-192.62 51.64,-182.43 34.36,-159.79 25.65,-146.63"/>
<polygon fill="#63b8ff" stroke="#63b8ff" points="243.56,-221.49 253.32,-217.37 243.12,-214.5 243.56,-221.49"/>
</a>
</g>
</g>
<!-- Node3&#45;&gt;Node4 -->
<g id="edge3_Node000003_Node000004" class="edge">
<title>Node3&#45;&gt;Node4</title>
<g id="a_edge3_Node000003_Node000004"><a xlink:title=" ">
<path fill="none" stroke="#63b8ff" d="M152.14,-180.98C128.76,-182.9 98.49,-182.88 73,-174.62 55.87,-169.08 39.51,-155.91 29.49,-146.63"/>
<polygon fill="#63b8ff" stroke="#63b8ff" points="152.24,-184.49 161.84,-180.02 151.55,-177.52 152.24,-184.49"/>
</a>
</g>
</g>
<!-- Node5&#45;&gt;Node6 -->
<g id="edge6_Node000005_Node000006" class="edge">
<title>Node5&#45;&gt;Node6</title>
<g id="a_edge6_Node000005_Node000006"><a xlink:title=" ">
<path fill="none" stroke="#63b8ff" d="M264.03,-59.62C248.85,-59.62 231.89,-59.62 218.25,-59.62"/>
<polygon fill="#63b8ff" stroke="#63b8ff" points="263.69,-63.13 273.69,-59.63 263.69,-56.13 263.69,-63.13"/>
</a>
</g>
</g>
<!-- Node6&#45;&gt;Node4 -->
<g id="edge7_Node000006_Node000004" class="edge">
<title>Node6&#45;&gt;Node4</title>
<g id="a_edge7_Node000006_Node000004"><a xlink:title=" ">
<path fill="none" stroke="#63b8ff" d="M153.06,-52.47C128.9,-49.68 97.43,-49.74 73,-62.62 46.64,-76.53 30.14,-109.92 23.24,-126.68"/>
<polygon fill="#63b8ff" stroke="#63b8ff" points="152.39,-55.91 162.77,-53.81 153.35,-48.97 152.39,-55.91"/>
</a>
</g>
</g>
<!-- Node7&#45;&gt;Node3 -->
<g id="edge16_Node000007_Node000003" class="edge">
<title>Node7&#45;&gt;Node3</title>
<g id="a_edge16_Node000007_Node000003"><a xlink:title=" ">
<path fill="none" stroke="#63b8ff" d="M264.64,-149.52C249.59,-154.94 232.7,-161.02 219.01,-165.95"/>
<polygon fill="#63b8ff" stroke="#63b8ff" points="265.56,-152.91 273.78,-146.23 263.19,-146.33 265.56,-152.91"/>
</a>
</g>
</g>
<!-- Node8 -->
<g id="Node000008" class="node">
<title>Node8</title>
<g id="a_Node000008"><a xlink:href="force_8c.html#a98a5926c20124e0cea060ad1e47ff3de" target="_top" xlink:title="Calculates the force &#160;at each intermediate time.">
<polygon fill="white" stroke="#666666" points="211.5,-136.25 170.75,-136.25 170.75,-117 211.5,-117 211.5,-136.25"/>
<text text-anchor="middle" x="191.12" y="-122.75" font-family="IBMPlexSans-Regular" font-size="10.00">Force</text>
</a>
</g>
</g>
<!-- Node7&#45;&gt;Node8 -->
<g id="edge9_Node000007_Node000008" class="edge">
<title>Node7&#45;&gt;Node8</title>
<g id="a_edge9_Node000007_Node000008"><a xlink:title=" ">
<path fill="none" stroke="#63b8ff" d="M263.76,-132.43C246.13,-131 226.13,-129.38 211.75,-128.21"/>
<polygon fill="#63b8ff" stroke="#63b8ff" points="263.45,-135.91 273.7,-133.23 264.02,-128.94 263.45,-135.91"/>
</a>
</g>
</g>
<!-- Node9 -->
<g id="Node000009" class="node">
<title>Node9</title>
<g id="a_Node000009"><a xlink:href="integrate_8c.html#a4d7f64e9f3e98a2953d707f18742d110" target="_top" xlink:title="Leapfrog integrator. Each trajectory step takes the form of p&#45;&gt;p+dt/2,u&#45;&gt;u+dt,p&#45;&gt;p+dt/2 In practice t...">
<polygon fill="white" stroke="#666666" points="127.25,-91.25 73,-91.25 73,-72 127.25,-72 127.25,-91.25"/>
<text text-anchor="middle" x="100.12" y="-77.75" font-family="IBMPlexSans-Regular" font-size="10.00">Leapfrog</text>
</a>
</g>
</g>
<!-- Node8&#45;&gt;Node9 -->
<g id="edge10_Node000008_Node000009" class="edge">
<title>Node8&#45;&gt;Node9</title>
<g id="a_edge10_Node000008_Node000009"><a xlink:title=" ">
<path fill="none" stroke="#63b8ff" d="M160.12,-111.45C147.27,-104.96 132.62,-97.55 121.13,-91.74"/>
<polygon fill="#63b8ff" stroke="#63b8ff" points="158.52,-114.57 169.02,-115.96 161.68,-108.32 158.52,-114.57"/>
</a>
</g>
</g>
<!-- Node10 -->
<g id="Node000010" class="node">
<title>Node10</title>
<g id="a_Node000010"><a xlink:href="integrate_8c.html#a33907d89c4a0709fcf809773de68c3a2" target="_top" xlink:title="OMF second order five step integrator.">
<polygon fill="white" stroke="#666666" points="121.62,-165.25 78.62,-165.25 78.62,-146 121.62,-146 121.62,-165.25"/>
<text text-anchor="middle" x="100.12" y="-151.75" font-family="IBMPlexSans-Regular" font-size="10.00">OMF2</text>
</a>
</g>
</g>
<!-- Node8&#45;&gt;Node10 -->
<g id="edge12_Node000008_Node000010" class="edge">
<title>Node8&#45;&gt;Node10</title>
<g id="a_edge12_Node000008_Node000010"><a xlink:title=" ">
<path fill="none" stroke="#63b8ff" d="M159.59,-136.58C147.22,-140.61 133.24,-145.16 122.06,-148.8"/>
<polygon fill="#63b8ff" stroke="#63b8ff" points="160.51,-139.96 168.93,-133.53 158.34,-133.3 160.51,-139.96"/>
</a>
</g>
</g>
<!-- Node11 -->
<g id="Node000011" class="node">
<title>Node11</title>
<g id="a_Node000011"><a xlink:href="integrate_8c.html#a4e6abc4e61c0131df30fb683569e5d00" target="_top" xlink:title="OMF fourth order eleven step integrator.">
<polygon fill="white" stroke="#666666" points="121.62,-128.25 78.62,-128.25 78.62,-109 121.62,-109 121.62,-128.25"/>
<text text-anchor="middle" x="100.12" y="-114.75" font-family="IBMPlexSans-Regular" font-size="10.00">OMF4</text>
</a>
</g>
</g>
<!-- Node8&#45;&gt;Node11 -->
<g id="edge14_Node000008_Node000011" class="edge">
<title>Node8&#45;&gt;Node11</title>
<g id="a_edge14_Node000008_Node000011"><a xlink:title=" ">
<path fill="none" stroke="#63b8ff" d="M159.21,-123.85C146.93,-122.74 133.13,-121.5 122.06,-120.51"/>
<polygon fill="#63b8ff" stroke="#63b8ff" points="158.59,-127.3 168.87,-124.71 159.22,-120.33 158.59,-127.3"/>
</a>
</g>
</g>
<!-- Node9&#45;&gt;Node4 -->
<g id="edge11_Node000009_Node000004" class="edge">
<title>Node9&#45;&gt;Node4</title>
<g id="a_edge11_Node000009_Node000004"><a xlink:title=" ">
<path fill="none" stroke="#63b8ff" d="M75.12,-98.16C74.4,-98.66 73.7,-99.14 73,-99.62 59.8,-108.73 44.79,-119.12 34.03,-126.57"/>
<polygon fill="#63b8ff" stroke="#63b8ff" points="76.98,-101.13 83.23,-92.57 73.01,-95.37 76.98,-101.13"/>
</a>
</g>
</g>
<!-- Node10&#45;&gt;Node4 -->
<g id="edge13_Node000010_Node000004" class="edge">
<title>Node10&#45;&gt;Node4</title>
<g id="a_edge13_Node000010_Node000004"><a xlink:title=" ">
<path fill="none" stroke="#63b8ff" d="M67.17,-148C57,-145.57 46.11,-142.97 37.31,-140.88"/>
<polygon fill="#63b8ff" stroke="#63b8ff" points="66.19,-151.36 76.73,-150.28 67.82,-144.56 66.19,-151.36"/>
</a>
</g>
</g>
<!-- Node11&#45;&gt;Node4 -->
<g id="edge15_Node000011_Node000004" class="edge">
<title>Node11&#45;&gt;Node4</title>
<g id="a_edge15_Node000011_Node000004"><a xlink:title=" ">
<path fill="none" stroke="#63b8ff" d="M67.17,-125.85C57,-128.15 46.11,-130.61 37.31,-132.6"/>
<polygon fill="#63b8ff" stroke="#63b8ff" points="67.75,-129.31 76.73,-123.69 66.2,-122.48 67.75,-129.31"/>
</a>
</g>
</g>
<!-- Node12&#45;&gt;Node4 -->
<g id="edge21_Node000012_Node000004" class="edge">
<title>Node12&#45;&gt;Node4</title>
<g id="a_edge21_Node000012_Node000004"><a xlink:title=" ">
<path fill="none" stroke="#63b8ff" d="M151.77,-14.57C127.15,-19.36 95.65,-28.67 73,-46.62 45.65,-68.3 29.23,-108.09 22.73,-126.63"/>
<polygon fill="#63b8ff" stroke="#63b8ff" points="152.16,-18.05 161.4,-12.88 150.95,-11.16 152.16,-18.05"/>
</a>
</g>
</g>
</g>
</svg>
