<?xml version="1.0" encoding="UTF-8" standalone="no"?>
<!DOCTYPE svg PUBLIC "-//W3C//DTD SVG 1.1//EN"
 "http://www.w3.org/Graphics/SVG/1.1/DTD/svg11.dtd">
<!-- Generated by graphviz version 11.0.0 (20240428.1522)
 -->
<!-- Title: CHalo_swap_all Pages: 1 -->
<svg width="471pt" height="215pt"
 viewBox="0.00 0.00 470.50 215.25" xmlns="http://www.w3.org/2000/svg" xmlns:xlink="http://www.w3.org/1999/xlink">
<g id="graph0" class="graph" transform="scale(1 1) rotate(0) translate(4 211.25)">
<title>CHalo_swap_all</title>
<!-- Node1 -->
<g id="Node000001" class="node">
<title>Node1</title>
<g id="a_Node000001"><a xlink:title="Calls the functions to send data to both the up and down halos.">
<polygon fill="#999999" stroke="#666666" points="462.5,-149.25 376,-149.25 376,-130 462.5,-130 462.5,-149.25"/>
<text text-anchor="middle" x="419.25" y="-135.75" font-family="IBMPlexSans-Regular" font-size="10.00">CHalo_swap_all</text>
</a>
</g>
</g>
<!-- Node2 -->
<g id="Node000002" class="node">
<title>Node2</title>
<g id="a_Node000002"><a xlink:href="matrices_8c.html#ac6cc2163c8a92f8029e274926047c256" target="_top" xlink:title="Evaluates &#160;in single precision.">
<polygon fill="white" stroke="#666666" points="334.38,-206.25 280.12,-206.25 280.12,-187 334.38,-187 334.38,-206.25"/>
<text text-anchor="middle" x="307.25" y="-192.75" font-family="IBMPlexSans-Regular" font-size="10.00">Dslash_f</text>
</a>
</g>
</g>
<!-- Node1&#45;&gt;Node2 -->
<g id="edge1_Node000001_Node000002" class="edge">
<title>Node1&#45;&gt;Node2</title>
<g id="a_edge1_Node000001_Node000002"><a xlink:title=" ">
<path fill="none" stroke="#63b8ff" d="M388.68,-154.95C369.25,-165.02 344.37,-177.91 327.47,-186.67"/>
<polygon fill="#63b8ff" stroke="#63b8ff" points="390.23,-158.09 397.49,-150.38 387,-151.87 390.23,-158.09"/>
</a>
</g>
</g>
<!-- Node5 -->
<g id="Node000005" class="node">
<title>Node5</title>
<g id="a_Node000005"><a xlink:href="matrices_8c.html#aba7f4f08e497d2b0b94f3e2526ca0a31" target="_top" xlink:title="Evaluates &#160;in single precision.">
<polygon fill="white" stroke="#666666" points="337,-168.25 277.5,-168.25 277.5,-149 337,-149 337,-168.25"/>
<text text-anchor="middle" x="307.25" y="-154.75" font-family="IBMPlexSans-Regular" font-size="10.00">Dslashd_f</text>
</a>
</g>
</g>
<!-- Node1&#45;&gt;Node5 -->
<g id="edge4_Node000001_Node000005" class="edge">
<title>Node1&#45;&gt;Node5</title>
<g id="a_edge4_Node000001_Node000005"><a xlink:title=" ">
<path fill="none" stroke="#63b8ff" d="M364.44,-148.92C355.11,-150.53 345.74,-152.15 337.4,-153.59"/>
<polygon fill="#63b8ff" stroke="#63b8ff" points="364.97,-152.38 374.23,-147.23 363.78,-145.48 364.97,-152.38"/>
</a>
</g>
</g>
<!-- Node7 -->
<g id="Node000007" class="node">
<title>Node7</title>
<g id="a_Node000007"><a xlink:href="matrices_8c.html#a17eb50d07c881fc5d1585ddf14aa1ff0" target="_top" xlink:title="Evaluates &#160;in single precision.">
<polygon fill="white" stroke="#666666" points="337.38,-131.25 277.12,-131.25 277.12,-112 337.38,-112 337.38,-131.25"/>
<text text-anchor="middle" x="307.25" y="-117.75" font-family="IBMPlexSans-Regular" font-size="10.00">Hdslash_f</text>
</a>
</g>
</g>
<!-- Node1&#45;&gt;Node7 -->
<g id="edge8_Node000001_Node000007" class="edge">
<title>Node1&#45;&gt;Node7</title>
<g id="a_edge8_Node000001_Node000007"><a xlink:title=" ">
<path fill="none" stroke="#63b8ff" d="M364.55,-130.84C355.31,-129.33 346.02,-127.81 337.73,-126.45"/>
<polygon fill="#63b8ff" stroke="#63b8ff" points="363.79,-134.26 374.23,-132.42 364.92,-127.35 363.79,-134.26"/>
</a>
</g>
</g>
<!-- Node14 -->
<g id="Node000014" class="node">
<title>Node14</title>
<g id="a_Node000014"><a xlink:href="matrices_8c.html#a87e3179e3c6947eacfa74ada59aaeb0c" target="_top" xlink:title="Evaluates &#160;in single precision.">
<polygon fill="white" stroke="#666666" points="340,-94.25 274.5,-94.25 274.5,-75 340,-75 340,-94.25"/>
<text text-anchor="middle" x="307.25" y="-80.75" font-family="IBMPlexSans-Regular" font-size="10.00">Hdslashd_f</text>
</a>
</g>
</g>
<!-- Node1&#45;&gt;Node14 -->
<g id="edge16_Node000001_Node000014" class="edge">
<title>Node1&#45;&gt;Node14</title>
<g id="a_edge16_Node000001_Node000014"><a xlink:title=" ">
<path fill="none" stroke="#63b8ff" d="M387.83,-124.42C368.84,-114.92 344.93,-102.96 328.3,-94.65"/>
<polygon fill="#63b8ff" stroke="#63b8ff" points="386.21,-127.52 396.72,-128.86 389.34,-121.26 386.21,-127.52"/>
</a>
</g>
</g>
<!-- Node3 -->
<g id="Node000003" class="node">
<title>Node3</title>
<g id="a_Node000003"><a xlink:href="congrad_8c.html#afe0b99f1475067a37a8f3d4ce2b2de7f" target="_top" xlink:title="Matrix Inversion via Conjugate Gradient (no up/down flavour partitioning). Solves &#160;The matrix multipl...">
<polygon fill="white" stroke="#666666" points="238.5,-207.25 181.25,-207.25 181.25,-188 238.5,-188 238.5,-207.25"/>
<text text-anchor="middle" x="209.88" y="-193.75" font-family="IBMPlexSans-Regular" font-size="10.00">Congradp</text>
</a>
</g>
</g>
<!-- Node2&#45;&gt;Node3 -->
<g id="edge2_Node000002_Node000003" class="edge">
<title>Node2&#45;&gt;Node3</title>
<g id="a_edge2_Node000002_Node000003"><a xlink:title=" ">
<path fill="none" stroke="#63b8ff" d="M268.18,-197.02C258.43,-197.13 248.11,-197.23 238.96,-197.33"/>
<polygon fill="#63b8ff" stroke="#63b8ff" points="268.21,-200.52 278.17,-196.92 268.13,-193.52 268.21,-200.52"/>
</a>
</g>
</g>
<!-- Node4 -->
<g id="Node000004" class="node">
<title>Node4</title>
<g id="a_Node000004"><a xlink:href="fermionic_8c.html#a38464140ca960a533faa9e49b6ee6131" target="_top" xlink:title="Calculate fermion expectation values via a noisy estimator.">
<polygon fill="white" stroke="#666666" points="144.5,-188.25 91,-188.25 91,-169 144.5,-169 144.5,-188.25"/>
<text text-anchor="middle" x="117.75" y="-174.75" font-family="IBMPlexSans-Regular" font-size="10.00">Measure</text>
</a>
</g>
</g>
<!-- Node3&#45;&gt;Node4 -->
<g id="edge3_Node000003_Node000004" class="edge">
<title>Node3&#45;&gt;Node4</title>
<g id="a_edge3_Node000003_Node000004"><a xlink:title=" ">
<path fill="none" stroke="#63b8ff" d="M169.7,-189.37C161.32,-187.6 152.66,-185.77 144.91,-184.14"/>
<polygon fill="#63b8ff" stroke="#63b8ff" points="168.86,-192.77 179.37,-191.41 170.31,-185.92 168.86,-192.77"/>
</a>
</g>
</g>
<!-- Node5&#45;&gt;Node3 -->
<g id="edge5_Node000005_Node000003" class="edge">
<title>Node5&#45;&gt;Node3</title>
<g id="a_edge5_Node000005_Node000003"><a xlink:title=" ">
<path fill="none" stroke="#63b8ff" d="M271.17,-172.97C259.27,-177.83 246.24,-183.16 235.35,-187.62"/>
<polygon fill="#63b8ff" stroke="#63b8ff" points="272.36,-176.27 280.29,-169.24 269.71,-169.79 272.36,-176.27"/>
</a>
</g>
</g>
<!-- Node5&#45;&gt;Node4 -->
<g id="edge7_Node000005_Node000004" class="edge">
<title>Node5&#45;&gt;Node4</title>
<g id="a_edge7_Node000005_Node000004"><a xlink:title=" ">
<path fill="none" stroke="#63b8ff" d="M266.1,-162.91C229.46,-166.82 176.39,-172.48 144.94,-175.83"/>
<polygon fill="#63b8ff" stroke="#63b8ff" points="266.29,-166.41 275.86,-161.87 265.54,-159.45 266.29,-166.41"/>
</a>
</g>
</g>
<!-- Node6 -->
<g id="Node000006" class="node">
<title>Node6</title>
<g id="a_Node000006"><a xlink:href="main_8c.html#a0ddf1224851353fc92bfbff6f499fa97" target="_top" xlink:title=" ">
<polygon fill="white" stroke="#666666" points="45.62,-131.25 8.62,-131.25 8.62,-112 45.62,-112 45.62,-131.25"/>
<text text-anchor="middle" x="27.12" y="-117.75" font-family="IBMPlexSans-Regular" font-size="10.00">main</text>
</a>
</g>
</g>
<!-- Node5&#45;&gt;Node6 -->
<g id="edge6_Node000005_Node000006" class="edge">
<title>Node5&#45;&gt;Node6</title>
<g id="a_edge6_Node000005_Node000006"><a xlink:title=" ">
<path fill="none" stroke="#63b8ff" d="M265.82,-153.25C204.37,-145.07 89.96,-129.85 45.98,-124"/>
<polygon fill="#63b8ff" stroke="#63b8ff" points="265.14,-156.69 275.51,-154.54 266.06,-149.75 265.14,-156.69"/>
</a>
</g>
</g>
<!-- Node8 -->
<g id="Node000008" class="node">
<title>Node8</title>
<g id="a_Node000008"><a xlink:href="congrad_8c.html#aa32f0774e38a36310209b44a2abae8e6" target="_top" xlink:title="Matrix Inversion via Conjugate Gradient (up/down flavour partitioning). Solves &#160;Implements up/down pa...">
<polygon fill="white" stroke="#666666" points="238.5,-93.25 181.25,-93.25 181.25,-74 238.5,-74 238.5,-93.25"/>
<text text-anchor="middle" x="209.88" y="-79.75" font-family="IBMPlexSans-Regular" font-size="10.00">Congradq</text>
</a>
</g>
</g>
<!-- Node7&#45;&gt;Node8 -->
<g id="edge9_Node000007_Node000008" class="edge">
<title>Node7&#45;&gt;Node8</title>
<g id="a_edge9_Node000007_Node000008"><a xlink:title=" ">
<path fill="none" stroke="#63b8ff" d="M270.35,-107.32C258.9,-102.76 246.48,-97.81 235.97,-93.62"/>
<polygon fill="#63b8ff" stroke="#63b8ff" points="268.95,-110.53 279.54,-110.98 271.54,-104.03 268.95,-110.53"/>
</a>
</g>
</g>
<!-- Node9 -->
<g id="Node000009" class="node">
<title>Node9</title>
<g id="a_Node000009"><a xlink:href="force_8c.html#a40e5951024b2de0086a5f878963c6bae" target="_top" xlink:title="Calculates the force &#160;at each intermediate time.">
<polygon fill="white" stroke="#666666" points="138.12,-56.25 97.38,-56.25 97.38,-37 138.12,-37 138.12,-56.25"/>
<text text-anchor="middle" x="117.75" y="-42.75" font-family="IBMPlexSans-Regular" font-size="10.00">Force</text>
</a>
</g>
</g>
<!-- Node8&#45;&gt;Node9 -->
<g id="edge10_Node000008_Node000009" class="edge">
<title>Node8&#45;&gt;Node9</title>
<g id="a_edge10_Node000008_Node000009"><a xlink:title=" ">
<path fill="none" stroke="#63b8ff" d="M173.66,-69.17C161.71,-64.26 148.8,-58.96 138.5,-54.73"/>
<polygon fill="#63b8ff" stroke="#63b8ff" points="172.27,-72.38 182.85,-72.94 174.93,-65.9 172.27,-72.38"/>
</a>
</g>
</g>
<!-- Node13 -->
<g id="Node000013" class="node">
<title>Node13</title>
<g id="a_Node000013"><a xlink:href="su2hmc_8c.html#a73e6186c40491d6f550404b8e975adff" target="_top" xlink:title="Calculate the Hamiltonian.">
<polygon fill="white" stroke="#666666" points="145.25,-93.25 90.25,-93.25 90.25,-74 145.25,-74 145.25,-93.25"/>
<text text-anchor="middle" x="117.75" y="-79.75" font-family="IBMPlexSans-Regular" font-size="10.00">Hamilton</text>
</a>
</g>
</g>
<!-- Node8&#45;&gt;Node13 -->
<g id="edge14_Node000008_Node000013" class="edge">
<title>Node8&#45;&gt;Node13</title>
<g id="a_edge14_Node000008_Node000013"><a xlink:title=" ">
<path fill="none" stroke="#63b8ff" d="M169.35,-83.62C161.3,-83.62 153,-83.62 145.52,-83.62"/>
<polygon fill="#63b8ff" stroke="#63b8ff" points="169.34,-87.13 179.34,-83.63 169.34,-80.13 169.34,-87.13"/>
</a>
</g>
</g>
<!-- Node10 -->
<g id="Node000010" class="node">
<title>Node10</title>
<g id="a_Node000010"><a xlink:href="integrate_8c.html#ae4e13e66dc0e7130825c11648f2ad80c" target="_top" xlink:title="Leapfrog integrator. Each trajectory step takes the form of p&#45;&gt;p+dt/2,u&#45;&gt;u+dt,p&#45;&gt;p+dt/2 In practice t...">
<polygon fill="white" stroke="#666666" points="54.25,-93.25 0,-93.25 0,-74 54.25,-74 54.25,-93.25"/>
<text text-anchor="middle" x="27.12" y="-79.75" font-family="IBMPlexSans-Regular" font-size="10.00">Leapfrog</text>
</a>
</g>
</g>
<!-- Node9&#45;&gt;Node10 -->
<g id="edge11_Node000009_Node000010" class="edge">
<title>Node9&#45;&gt;Node10</title>
<g id="a_edge11_Node000009_Node000010"><a xlink:title=" ">
<path fill="none" stroke="#63b8ff" d="M86.8,-59.13C75.51,-63.84 62.84,-69.13 52.16,-73.59"/>
<polygon fill="#63b8ff" stroke="#63b8ff" points="87.8,-62.5 95.68,-55.42 85.11,-56.04 87.8,-62.5"/>
</a>
</g>
</g>
<!-- Node11 -->
<g id="Node000011" class="node">
<title>Node11</title>
<g id="a_Node000011"><a xlink:href="integrate_8c.html#a44f16170b5e3c92646f2e649ee57da3d" target="_top" xlink:title="OMF integrator. Each trajectory step takes the form of p&#45;&gt;p+dt/2,u&#45;&gt;u+dt,p&#45;&gt;p+dt/2 In practice this i...">
<polygon fill="white" stroke="#666666" points="48.62,-56.25 5.62,-56.25 5.62,-37 48.62,-37 48.62,-56.25"/>
<text text-anchor="middle" x="27.12" y="-42.75" font-family="IBMPlexSans-Regular" font-size="10.00">OMF2</text>
</a>
</g>
</g>
<!-- Node9&#45;&gt;Node11 -->
<g id="edge12_Node000009_Node000011" class="edge">
<title>Node9&#45;&gt;Node11</title>
<g id="a_edge12_Node000009_Node000011"><a xlink:title=" ">
<path fill="none" stroke="#63b8ff" d="M85.59,-46.62C73.46,-46.62 59.88,-46.62 48.97,-46.62"/>
<polygon fill="#63b8ff" stroke="#63b8ff" points="85.57,-50.13 95.57,-46.63 85.57,-43.13 85.57,-50.13"/>
</a>
</g>
</g>
<!-- Node12 -->
<g id="Node000012" class="node">
<title>Node12</title>
<g id="a_Node000012"><a xlink:href="integrate_8c.html#a5bbed189bcdd47d814585aa7e842bb8e" target="_top" xlink:title=" ">
<polygon fill="white" stroke="#666666" points="48.62,-19.25 5.62,-19.25 5.62,0 48.62,0 48.62,-19.25"/>
<text text-anchor="middle" x="27.12" y="-5.75" font-family="IBMPlexSans-Regular" font-size="10.00">OMF4</text>
</a>
</g>
</g>
<!-- Node9&#45;&gt;Node12 -->
<g id="edge13_Node000009_Node000012" class="edge">
<title>Node9&#45;&gt;Node12</title>
<g id="a_edge13_Node000009_Node000012"><a xlink:title=" ">
<path fill="none" stroke="#63b8ff" d="M86.72,-34.09C74.31,-28.91 60.22,-23.03 48.97,-18.33"/>
<polygon fill="#63b8ff" stroke="#63b8ff" points="85.11,-37.21 95.68,-37.83 87.8,-30.75 85.11,-37.21"/>
</a>
</g>
</g>
<!-- Node13&#45;&gt;Node6 -->
<g id="edge15_Node000013_Node000006" class="edge">
<title>Node13&#45;&gt;Node6</title>
<g id="a_edge15_Node000013_Node000006"><a xlink:title=" ">
<path fill="none" stroke="#63b8ff" d="M83.21,-98C70.54,-103.44 56.62,-109.41 45.94,-113.99"/>
<polygon fill="#63b8ff" stroke="#63b8ff" points="84.26,-101.36 92.07,-94.21 81.5,-94.93 84.26,-101.36"/>
</a>
</g>
</g>
<!-- Node14&#45;&gt;Node8 -->
<g id="edge17_Node000014_Node000008" class="edge">
<title>Node14&#45;&gt;Node8</title>
<g id="a_edge17_Node000014_Node000008"><a xlink:title=" ">
<path fill="none" stroke="#63b8ff" d="M262.88,-84.17C254.71,-84.08 246.36,-84 238.82,-83.92"/>
<polygon fill="#63b8ff" stroke="#63b8ff" points="262.68,-87.67 272.71,-84.27 262.75,-80.67 262.68,-87.67"/>
</a>
</g>
</g>
</g>
</svg>
