<?xml version="1.0" encoding="UTF-8" standalone="no"?>
<!DOCTYPE svg PUBLIC "-//W3C//DTD SVG 1.1//EN"
 "http://www.w3.org/Graphics/SVG/1.1/DTD/svg11.dtd">
<!-- Generated by graphviz version 12.1.2 (20240928.0832)
 -->
<!-- Title: Par_fsum Pages: 1 -->
<svg width="341pt" height="192pt"
 viewBox="0.00 0.00 340.50 192.25" xmlns="http://www.w3.org/2000/svg" xmlns:xlink="http://www.w3.org/1999/xlink">
<g id="graph0" class="graph" transform="scale(1 1) rotate(0) translate(4 188.25)">
<title>Par_fsum</title>
<!-- Node1 -->
<g id="Node000001" class="node">
<title>Node1</title>
<g id="a_Node000001"><a xlink:title="Performs a reduction on a float dval to get a sum which is then distributed to all ranks.">
<polygon fill="#999999" stroke="#666666" points="332.5,-115.25 274.5,-115.25 274.5,-96 332.5,-96 332.5,-115.25"/>
<text text-anchor="middle" x="303.5" y="-101.75" font-family="IBMPlexSans-Regular" font-size="10.00">Par_fsum</text>
</a>
</g>
</g>
<!-- Node2 -->
<g id="Node000002" class="node">
<title>Node2</title>
<g id="a_Node000002"><a xlink:href="congrad_8c.html#afe0b99f1475067a37a8f3d4ce2b2de7f" target="_top" xlink:title="Matrix Inversion via Conjugate Gradient (no up/down flavour partitioning). Solves &#160;The matrix multipl...">
<polygon fill="white" stroke="#666666" points="238.5,-134.25 181.25,-134.25 181.25,-115 238.5,-115 238.5,-134.25"/>
<text text-anchor="middle" x="209.88" y="-120.75" font-family="IBMPlexSans-Regular" font-size="10.00">Congradp</text>
</a>
</g>
</g>
<!-- Node1&#45;&gt;Node2 -->
<g id="edge1_Node000001_Node000002" class="edge">
<title>Node1&#45;&gt;Node2</title>
<g id="a_edge1_Node000001_Node000002"><a xlink:title=" ">
<path fill="none" stroke="#63b8ff" d="M262.82,-113.85C254.7,-115.54 246.31,-117.28 238.72,-118.85"/>
<polygon fill="#63b8ff" stroke="#63b8ff" points="263.45,-117.3 272.53,-111.84 262.03,-110.44 263.45,-117.3"/>
</a>
</g>
</g>
<!-- Node4 -->
<g id="Node000004" class="node">
<title>Node4</title>
<g id="a_Node000004"><a xlink:href="congrad_8c.html#aa32f0774e38a36310209b44a2abae8e6" target="_top" xlink:title="Matrix Inversion via Conjugate Gradient (up/down flavour partitioning). Solves &#160;Implements up/down pa...">
<polygon fill="white" stroke="#666666" points="238.5,-97.25 181.25,-97.25 181.25,-78 238.5,-78 238.5,-97.25"/>
<text text-anchor="middle" x="209.88" y="-83.75" font-family="IBMPlexSans-Regular" font-size="10.00">Congradq</text>
</a>
</g>
</g>
<!-- Node1&#45;&gt;Node4 -->
<g id="edge3_Node000001_Node000004" class="edge">
<title>Node1&#45;&gt;Node4</title>
<g id="a_edge3_Node000001_Node000004"><a xlink:title=" ">
<path fill="none" stroke="#63b8ff" d="M262.82,-97.83C254.7,-96.23 246.31,-94.59 238.72,-93.09"/>
<polygon fill="#63b8ff" stroke="#63b8ff" points="262.04,-101.24 272.53,-99.74 263.39,-94.37 262.04,-101.24"/>
</a>
</g>
</g>
<!-- Node3 -->
<g id="Node000003" class="node">
<title>Node3</title>
<g id="a_Node000003"><a xlink:href="fermionic_8c.html#a38464140ca960a533faa9e49b6ee6131" target="_top" xlink:title="Calculate fermion expectation values via a noisy estimator.">
<polygon fill="white" stroke="#666666" points="144.5,-134.25 91,-134.25 91,-115 144.5,-115 144.5,-134.25"/>
<text text-anchor="middle" x="117.75" y="-120.75" font-family="IBMPlexSans-Regular" font-size="10.00">Measure</text>
</a>
</g>
</g>
<!-- Node2&#45;&gt;Node3 -->
<g id="edge2_Node000002_Node000003" class="edge">
<title>Node2&#45;&gt;Node3</title>
<g id="a_edge2_Node000002_Node000003"><a xlink:title=" ">
<path fill="none" stroke="#63b8ff" d="M169.42,-124.62C161.12,-124.62 152.57,-124.62 144.91,-124.62"/>
<polygon fill="#63b8ff" stroke="#63b8ff" points="169.34,-128.13 179.34,-124.63 169.34,-121.13 169.34,-128.13"/>
</a>
</g>
</g>
<!-- Node5 -->
<g id="Node000005" class="node">
<title>Node5</title>
<g id="a_Node000005"><a xlink:href="force_8c.html#a40e5951024b2de0086a5f878963c6bae" target="_top" xlink:title="Calculates the force &#160;at each intermediate time.">
<polygon fill="white" stroke="#666666" points="138.12,-97.25 97.38,-97.25 97.38,-78 138.12,-78 138.12,-97.25"/>
<text text-anchor="middle" x="117.75" y="-83.75" font-family="IBMPlexSans-Regular" font-size="10.00">Force</text>
</a>
</g>
</g>
<!-- Node4&#45;&gt;Node5 -->
<g id="edge4_Node000004_Node000005" class="edge">
<title>Node4&#45;&gt;Node5</title>
<g id="a_edge4_Node000004_Node000005"><a xlink:title=" ">
<path fill="none" stroke="#63b8ff" d="M169.49,-87.62C158.76,-87.62 147.58,-87.62 138.46,-87.62"/>
<polygon fill="#63b8ff" stroke="#63b8ff" points="169.34,-91.13 179.34,-87.63 169.34,-84.13 169.34,-91.13"/>
</a>
</g>
</g>
<!-- Node9 -->
<g id="Node000009" class="node">
<title>Node9</title>
<g id="a_Node000009"><a xlink:href="su2hmc_8c.html#a73e6186c40491d6f550404b8e975adff" target="_top" xlink:title="Calculate the Hamiltonian.">
<polygon fill="white" stroke="#666666" points="145.25,-46.25 90.25,-46.25 90.25,-27 145.25,-27 145.25,-46.25"/>
<text text-anchor="middle" x="117.75" y="-32.75" font-family="IBMPlexSans-Regular" font-size="10.00">Hamilton</text>
</a>
</g>
</g>
<!-- Node4&#45;&gt;Node9 -->
<g id="edge11_Node000004_Node000009" class="edge">
<title>Node4&#45;&gt;Node9</title>
<g id="a_edge11_Node000004_Node000009"><a xlink:title=" ">
<path fill="none" stroke="#63b8ff" d="M181.1,-71.91C166.57,-63.69 149.22,-53.87 136.52,-46.68"/>
<polygon fill="#63b8ff" stroke="#63b8ff" points="179.33,-74.92 189.75,-76.8 182.77,-68.83 179.33,-74.92"/>
</a>
</g>
</g>
<!-- Node6 -->
<g id="Node000006" class="node">
<title>Node6</title>
<g id="a_Node000006"><a xlink:href="integrate_8c.html#ae4e13e66dc0e7130825c11648f2ad80c" target="_top" xlink:title="Leapfrog integrator. Each trajectory step takes the form of p&#45;&gt;p+dt/2,u&#45;&gt;u+dt,p&#45;&gt;p+dt/2 In practice t...">
<polygon fill="white" stroke="#666666" points="54.25,-166.25 0,-166.25 0,-147 54.25,-147 54.25,-166.25"/>
<text text-anchor="middle" x="27.12" y="-152.75" font-family="IBMPlexSans-Regular" font-size="10.00">Leapfrog</text>
</a>
</g>
</g>
<!-- Node5&#45;&gt;Node6 -->
<g id="edge5_Node000005_Node000006" class="edge">
<title>Node5&#45;&gt;Node6</title>
<g id="a_edge5_Node000005_Node000006"><a xlink:title=" ">
<path fill="none" stroke="#63b8ff" d="M91.87,-104.36C91.32,-104.78 90.78,-105.2 90.25,-105.62 73.23,-119.09 71.23,-125.1 54.25,-138.62 50.89,-141.3 47.15,-144.02 43.58,-146.5"/>
<polygon fill="#63b8ff" stroke="#63b8ff" points="93.78,-107.3 99.84,-98.61 89.68,-101.63 93.78,-107.3"/>
</a>
</g>
</g>
<!-- Node7 -->
<g id="Node000007" class="node">
<title>Node7</title>
<g id="a_Node000007"><a xlink:href="integrate_8c.html#a44f16170b5e3c92646f2e649ee57da3d" target="_top" xlink:title="OMF integrator. Each trajectory step takes the form of p&#45;&gt;p+dt/2,u&#45;&gt;u+dt,p&#45;&gt;p+dt/2 In practice this i...">
<polygon fill="white" stroke="#666666" points="48.62,-111.25 5.62,-111.25 5.62,-92 48.62,-92 48.62,-111.25"/>
<text text-anchor="middle" x="27.12" y="-97.75" font-family="IBMPlexSans-Regular" font-size="10.00">OMF2</text>
</a>
</g>
</g>
<!-- Node5&#45;&gt;Node7 -->
<g id="edge7_Node000005_Node000007" class="edge">
<title>Node5&#45;&gt;Node7</title>
<g id="a_edge7_Node000005_Node000007"><a xlink:title=" ">
<path fill="none" stroke="#63b8ff" d="M85.96,-92.49C73.74,-94.42 60,-96.59 48.97,-98.33"/>
<polygon fill="#63b8ff" stroke="#63b8ff" points="86.25,-95.99 95.59,-90.97 85.16,-89.07 86.25,-95.99"/>
</a>
</g>
</g>
<!-- Node8 -->
<g id="Node000008" class="node">
<title>Node8</title>
<g id="a_Node000008"><a xlink:href="integrate_8c.html#a5bbed189bcdd47d814585aa7e842bb8e" target="_top" xlink:title=" ">
<polygon fill="white" stroke="#666666" points="48.62,-56.25 5.62,-56.25 5.62,-37 48.62,-37 48.62,-56.25"/>
<text text-anchor="middle" x="27.12" y="-42.75" font-family="IBMPlexSans-Regular" font-size="10.00">OMF4</text>
</a>
</g>
</g>
<!-- Node5&#45;&gt;Node8 -->
<g id="edge9_Node000005_Node000008" class="edge">
<title>Node5&#45;&gt;Node8</title>
<g id="a_edge9_Node000005_Node000008"><a xlink:title=" ">
<path fill="none" stroke="#63b8ff" d="M86.72,-73.73C74.31,-67.99 60.22,-61.47 48.97,-56.27"/>
<polygon fill="#63b8ff" stroke="#63b8ff" points="85.16,-76.87 95.71,-77.89 88.1,-70.51 85.16,-76.87"/>
</a>
</g>
</g>
<!-- Node6&#45;&gt;Node6 -->
<g id="edge6_Node000006_Node000006" class="edge">
<title>Node6&#45;&gt;Node6</title>
<g id="a_edge6_Node000006_Node000006"><a xlink:title=" ">
<path fill="none" stroke="#63b8ff" d="M43.21,-177.65C41.2,-181.53 35.84,-184.25 27.12,-184.25 11.19,-184.25 6.47,-175.15 12.94,-166.54"/>
<polygon fill="#63b8ff" stroke="#63b8ff" points="46.7,-177.3 41.57,-168.03 39.8,-178.48 46.7,-177.3"/>
</a>
</g>
</g>
<!-- Node7&#45;&gt;Node7 -->
<g id="edge8_Node000007_Node000007" class="edge">
<title>Node7&#45;&gt;Node7</title>
<g id="a_edge8_Node000007_Node000007"><a xlink:title=" ">
<path fill="none" stroke="#63b8ff" d="M43.21,-122.65C41.2,-126.53 35.84,-129.25 27.12,-129.25 11.19,-129.25 6.47,-120.15 12.94,-111.54"/>
<polygon fill="#63b8ff" stroke="#63b8ff" points="46.7,-122.3 41.57,-113.03 39.8,-123.48 46.7,-122.3"/>
</a>
</g>
</g>
<!-- Node8&#45;&gt;Node8 -->
<g id="edge10_Node000008_Node000008" class="edge">
<title>Node8&#45;&gt;Node8</title>
<g id="a_edge10_Node000008_Node000008"><a xlink:title=" ">
<path fill="none" stroke="#63b8ff" d="M43.21,-67.65C41.2,-71.53 35.84,-74.25 27.12,-74.25 11.19,-74.25 6.47,-65.15 12.94,-56.54"/>
<polygon fill="#63b8ff" stroke="#63b8ff" points="46.7,-67.3 41.57,-58.03 39.8,-68.48 46.7,-67.3"/>
</a>
</g>
</g>
<!-- Node10 -->
<g id="Node000010" class="node">
<title>Node10</title>
<g id="a_Node000010"><a xlink:href="main_8c.html#a0ddf1224851353fc92bfbff6f499fa97" target="_top" xlink:title=" ">
<polygon fill="white" stroke="#666666" points="45.62,-19.25 8.62,-19.25 8.62,0 45.62,0 45.62,-19.25"/>
<text text-anchor="middle" x="27.12" y="-5.75" font-family="IBMPlexSans-Regular" font-size="10.00">main</text>
</a>
</g>
</g>
<!-- Node9&#45;&gt;Node10 -->
<g id="edge12_Node000009_Node000010" class="edge">
<title>Node9&#45;&gt;Node10</title>
<g id="a_edge12_Node000009_Node000010"><a xlink:title=" ">
<path fill="none" stroke="#63b8ff" d="M79.38,-25.24C67.81,-21.72 55.6,-18 46,-15.07"/>
<polygon fill="#63b8ff" stroke="#63b8ff" points="78.13,-28.52 88.71,-28.08 80.17,-21.82 78.13,-28.52"/>
</a>
</g>
</g>
</g>
</svg>
