<?xml version="1.0" encoding="UTF-8" standalone="no"?>
<!DOCTYPE svg PUBLIC "-//W3C//DTD SVG 1.1//EN"
 "http://www.w3.org/Graphics/SVG/1.1/DTD/svg11.dtd">
<!-- Generated by graphviz version 11.0.0 (20240428.1522)
 -->
<!-- Title: Par_dcopy Pages: 1 -->
<svg width="265pt" height="101pt"
 viewBox="0.00 0.00 264.50 101.25" xmlns="http://www.w3.org/2000/svg" xmlns:xlink="http://www.w3.org/1999/xlink">
<g id="graph0" class="graph" transform="scale(1 1) rotate(0) translate(4 97.25)">
<title>Par_dcopy</title>
<!-- Node1 -->
<g id="Node000001" class="node">
<title>Node1</title>
<g id="a_Node000001"><a xlink:title="Broadcasts a double to the other processes.">
<polygon fill="#999999" stroke="#666666" points="256.5,-37.25 194.75,-37.25 194.75,-18 256.5,-18 256.5,-37.25"/>
<text text-anchor="middle" x="225.62" y="-23.75" font-family="IBMPlexSans-Regular" font-size="10.00">Par_dcopy</text>
</a>
</g>
</g>
<!-- Node2 -->
<g id="Node000002" class="node">
<title>Node2</title>
<g id="a_Node000002"><a xlink:href="random_8c.html#af30389dbea7d2b366abea7a923bb008d" target="_top" xlink:title="Generates a random double which is then sent to the other ranks.">
<polygon fill="white" stroke="#666666" points="153.5,-56.25 95.5,-56.25 95.5,-37 153.5,-37 153.5,-56.25"/>
<text text-anchor="middle" x="124.5" y="-42.75" font-family="IBMPlexSans-Regular" font-size="10.00">Par_granf</text>
</a>
</g>
</g>
<!-- Node1&#45;&gt;Node2 -->
<g id="edge1_Node000001_Node000002" class="edge">
<title>Node1&#45;&gt;Node2</title>
<g id="a_edge1_Node000001_Node000002"><a xlink:title=" ">
<path fill="none" stroke="#63b8ff" d="M183.1,-35.58C173.26,-37.47 163,-39.44 153.9,-41.18"/>
<polygon fill="#63b8ff" stroke="#63b8ff" points="183.7,-39.03 192.86,-33.71 182.38,-32.16 183.7,-39.03"/>
</a>
</g>
</g>
<!-- Node6 -->
<g id="Node000006" class="node">
<title>Node6</title>
<g id="a_Node000006"><a xlink:href="random_8c.html#a328653cc438367219bad89a935958108" target="_top" xlink:title="Reads ps from a file Since this function is very similar to Par_sread, I&#39;m not really going to commen...">
<polygon fill="white" stroke="#666666" points="158.75,-19.25 90.25,-19.25 90.25,0 158.75,0 158.75,-19.25"/>
<text text-anchor="middle" x="124.5" y="-5.75" font-family="IBMPlexSans-Regular" font-size="10.00">Par_ranread</text>
</a>
</g>
</g>
<!-- Node1&#45;&gt;Node6 -->
<g id="edge5_Node000001_Node000006" class="edge">
<title>Node1&#45;&gt;Node6</title>
<g id="a_edge5_Node000001_Node000006"><a xlink:title=" ">
<path fill="none" stroke="#63b8ff" d="M183.24,-20.11C175.18,-18.65 166.82,-17.13 159.05,-15.72"/>
<polygon fill="#63b8ff" stroke="#63b8ff" points="182.39,-23.51 192.86,-21.86 183.64,-16.63 182.39,-23.51"/>
</a>
</g>
</g>
<!-- Node3 -->
<g id="Node000003" class="node">
<title>Node3</title>
<g id="a_Node000003"><a xlink:href="integrate_8c.html#ae4e13e66dc0e7130825c11648f2ad80c" target="_top" xlink:title="Leapfrog integrator. Each trajectory step takes the form of p&#45;&gt;p+dt/2,u&#45;&gt;u+dt,p&#45;&gt;p+dt/2 In practice t...">
<polygon fill="white" stroke="#666666" points="54.25,-93.25 0,-93.25 0,-74 54.25,-74 54.25,-93.25"/>
<text text-anchor="middle" x="27.12" y="-79.75" font-family="IBMPlexSans-Regular" font-size="10.00">Leapfrog</text>
</a>
</g>
</g>
<!-- Node2&#45;&gt;Node3 -->
<g id="edge2_Node000002_Node000003" class="edge">
<title>Node2&#45;&gt;Node3</title>
<g id="a_edge2_Node000002_Node000003"><a xlink:title=" ">
<path fill="none" stroke="#63b8ff" d="M86.89,-60.83C75.98,-65.06 64.24,-69.61 54.16,-73.53"/>
<polygon fill="#63b8ff" stroke="#63b8ff" points="87.97,-64.16 96.03,-57.28 85.44,-57.64 87.97,-64.16"/>
</a>
</g>
</g>
<!-- Node4 -->
<g id="Node000004" class="node">
<title>Node4</title>
<g id="a_Node000004"><a xlink:href="integrate_8c.html#a44f16170b5e3c92646f2e649ee57da3d" target="_top" xlink:title="OMF integrator. Each trajectory step takes the form of p&#45;&gt;p+dt/2,u&#45;&gt;u+dt,p&#45;&gt;p+dt/2 In practice this i...">
<polygon fill="white" stroke="#666666" points="48.62,-56.25 5.62,-56.25 5.62,-37 48.62,-37 48.62,-56.25"/>
<text text-anchor="middle" x="27.12" y="-42.75" font-family="IBMPlexSans-Regular" font-size="10.00">OMF2</text>
</a>
</g>
</g>
<!-- Node2&#45;&gt;Node4 -->
<g id="edge3_Node000002_Node000004" class="edge">
<title>Node2&#45;&gt;Node4</title>
<g id="a_edge3_Node000002_Node000004"><a xlink:title=" ">
<path fill="none" stroke="#63b8ff" d="M83.95,-46.62C71.93,-46.62 59.21,-46.62 48.95,-46.62"/>
<polygon fill="#63b8ff" stroke="#63b8ff" points="83.63,-50.13 93.63,-46.63 83.63,-43.13 83.63,-50.13"/>
</a>
</g>
</g>
<!-- Node5 -->
<g id="Node000005" class="node">
<title>Node5</title>
<g id="a_Node000005"><a xlink:href="integrate_8c.html#a5bbed189bcdd47d814585aa7e842bb8e" target="_top" xlink:title=" ">
<polygon fill="white" stroke="#666666" points="48.62,-19.25 5.62,-19.25 5.62,0 48.62,0 48.62,-19.25"/>
<text text-anchor="middle" x="27.12" y="-5.75" font-family="IBMPlexSans-Regular" font-size="10.00">OMF4</text>
</a>
</g>
</g>
<!-- Node2&#45;&gt;Node5 -->
<g id="edge4_Node000002_Node000005" class="edge">
<title>Node2&#45;&gt;Node5</title>
<g id="a_edge4_Node000002_Node000005"><a xlink:title=" ">
<path fill="none" stroke="#63b8ff" d="M87,-32.47C74.15,-27.48 60.15,-22.05 49.03,-17.73"/>
<polygon fill="#63b8ff" stroke="#63b8ff" points="85.44,-35.61 96.03,-35.97 87.97,-29.09 85.44,-35.61"/>
</a>
</g>
</g>
</g>
</svg>
