<?xml version="1.0" encoding="UTF-8" standalone="no"?>
<!DOCTYPE svg PUBLIC "-//W3C//DTD SVG 1.1//EN"
 "http://www.w3.org/Graphics/SVG/1.1/DTD/svg11.dtd">
<!-- Generated by graphviz version 12.1.2 (20240928.0832)
 -->
<!-- Title: Par_dsum Pages: 1 -->
<svg width="385pt" height="217pt"
 viewBox="0.00 0.00 384.75 217.25" xmlns="http://www.w3.org/2000/svg" xmlns:xlink="http://www.w3.org/1999/xlink">
<g id="graph0" class="graph" transform="scale(1 1) rotate(0) translate(4 213.25)">
<title>Par_dsum</title>
<!-- Node1 -->
<g id="Node000001" class="node">
<title>Node1</title>
<g id="a_Node000001"><a xlink:title="Performs a reduction on a double dval to get a sum which is then distributed to all ranks.">
<polygon fill="#999999" stroke="#666666" points="376.75,-114.25 316.5,-114.25 316.5,-95 376.75,-95 376.75,-114.25"/>
<text text-anchor="middle" x="346.62" y="-100.75" font-family="IBMPlexSans-Regular" font-size="10.00">Par_dsum</text>
</a>
</g>
</g>
<!-- Node2 -->
<g id="Node000002" class="node">
<title>Node2</title>
<g id="a_Node000002"><a xlink:href="bosonic_8c.html#a8549b8b092dcf706901258557a84f42b" target="_top" xlink:title="Calculates the gauge action using new (how new?) lookup table.">
<polygon fill="white" stroke="#666666" points="280.5,-171.25 182,-171.25 182,-152 280.5,-152 280.5,-171.25"/>
<text text-anchor="middle" x="231.25" y="-157.75" font-family="IBMPlexSans-Regular" font-size="10.00">Average_Plaquette</text>
</a>
</g>
</g>
<!-- Node1&#45;&gt;Node2 -->
<g id="edge1_Node000001_Node000002" class="edge">
<title>Node1&#45;&gt;Node2</title>
<g id="a_edge1_Node000001_Node000002"><a xlink:title=" ">
<path fill="none" stroke="#63b8ff" d="M315.92,-119.74C304.82,-125.37 292.09,-131.81 280.5,-137.62 271.3,-142.24 261.1,-147.32 252.46,-151.62"/>
<polygon fill="#63b8ff" stroke="#63b8ff" points="317.3,-122.96 324.63,-115.31 314.13,-116.72 317.3,-122.96"/>
</a>
</g>
</g>
<!-- Node3 -->
<g id="Node000003" class="node">
<title>Node3</title>
<g id="a_Node000003"><a xlink:href="su2hmc_8c.html#a73e6186c40491d6f550404b8e975adff" target="_top" xlink:title="Calculate the Hamiltonian.">
<polygon fill="white" stroke="#666666" points="145.62,-133.25 90.62,-133.25 90.62,-114 145.62,-114 145.62,-133.25"/>
<text text-anchor="middle" x="118.12" y="-119.75" font-family="IBMPlexSans-Regular" font-size="10.00">Hamilton</text>
</a>
</g>
</g>
<!-- Node1&#45;&gt;Node3 -->
<g id="edge16_Node000001_Node000003" class="edge">
<title>Node1&#45;&gt;Node3</title>
<g id="a_edge16_Node000001_Node000003"><a xlink:title=" ">
<path fill="none" stroke="#63b8ff" d="M304.65,-108.06C258.6,-111.92 185.17,-118.09 145.92,-121.38"/>
<polygon fill="#63b8ff" stroke="#63b8ff" points="304.83,-111.56 314.51,-107.24 304.25,-104.58 304.83,-111.56"/>
</a>
</g>
</g>
<!-- Node5 -->
<g id="Node000005" class="node">
<title>Node5</title>
<g id="a_Node000005"><a xlink:href="congrad_8c.html#afe0b99f1475067a37a8f3d4ce2b2de7f" target="_top" xlink:title="Matrix Inversion via Conjugate Gradient (no up/down flavour partitioning). Solves &#160;The matrix multipl...">
<polygon fill="white" stroke="#666666" points="259.88,-19.25 202.62,-19.25 202.62,0 259.88,0 259.88,-19.25"/>
<text text-anchor="middle" x="231.25" y="-5.75" font-family="IBMPlexSans-Regular" font-size="10.00">Congradp</text>
</a>
</g>
</g>
<!-- Node1&#45;&gt;Node5 -->
<g id="edge5_Node000001_Node000005" class="edge">
<title>Node1&#45;&gt;Node5</title>
<g id="a_edge5_Node000001_Node000005"><a xlink:title=" ">
<path fill="none" stroke="#63b8ff" d="M331.51,-85.73C319.28,-70.29 300.45,-48.64 280.5,-33.62 273.32,-28.22 264.74,-23.5 256.82,-19.7"/>
<polygon fill="#63b8ff" stroke="#63b8ff" points="328.74,-87.86 337.62,-93.65 334.29,-83.59 328.74,-87.86"/>
</a>
</g>
</g>
<!-- Node6 -->
<g id="Node000006" class="node">
<title>Node6</title>
<g id="a_Node000006"><a xlink:href="fermionic_8c.html#a38464140ca960a533faa9e49b6ee6131" target="_top" xlink:title="Calculate fermion expectation values via a noisy estimator.">
<polygon fill="white" stroke="#666666" points="144.88,-38.25 91.38,-38.25 91.38,-19 144.88,-19 144.88,-38.25"/>
<text text-anchor="middle" x="118.12" y="-24.75" font-family="IBMPlexSans-Regular" font-size="10.00">Measure</text>
</a>
</g>
</g>
<!-- Node1&#45;&gt;Node6 -->
<g id="edge17_Node000001_Node000006" class="edge">
<title>Node1&#45;&gt;Node6</title>
<g id="a_edge17_Node000001_Node000006"><a xlink:title=" ">
<path fill="none" stroke="#63b8ff" d="M321.63,-88.31C309.69,-80.81 294.79,-72.33 280.5,-66.62 234.65,-48.33 177.81,-37.49 145.28,-32.33"/>
<polygon fill="#63b8ff" stroke="#63b8ff" points="319.7,-91.23 329.99,-93.73 323.51,-85.36 319.7,-91.23"/>
</a>
</g>
</g>
<!-- Node7 -->
<g id="Node000007" class="node">
<title>Node7</title>
<g id="a_Node000007"><a xlink:href="congrad_8c.html#aa32f0774e38a36310209b44a2abae8e6" target="_top" xlink:title="Matrix Inversion via Conjugate Gradient (up/down flavour partitioning). Solves &#160;Implements up/down pa...">
<polygon fill="white" stroke="#666666" points="259.88,-95.25 202.62,-95.25 202.62,-76 259.88,-76 259.88,-95.25"/>
<text text-anchor="middle" x="231.25" y="-81.75" font-family="IBMPlexSans-Regular" font-size="10.00">Congradq</text>
</a>
</g>
</g>
<!-- Node1&#45;&gt;Node7 -->
<g id="edge7_Node000001_Node000007" class="edge">
<title>Node1&#45;&gt;Node7</title>
<g id="a_edge7_Node000001_Node000007"><a xlink:title=" ">
<path fill="none" stroke="#63b8ff" d="M305.11,-97.83C290.17,-95.33 273.59,-92.55 260.03,-90.28"/>
<polygon fill="#63b8ff" stroke="#63b8ff" points="304.2,-101.23 314.64,-99.43 305.36,-94.33 304.2,-101.23"/>
</a>
</g>
</g>
<!-- Node12 -->
<g id="Node000012" class="node">
<title>Node12</title>
<g id="a_Node000012"><a xlink:href="bosonic_8c.html#abc8424ac85b82a4f8f1e067be367680f" target="_top" xlink:title="Calculate the Polyakov loop (no prizes for guessing that one...)">
<polygon fill="white" stroke="#666666" points="146,-209.25 90.25,-209.25 90.25,-190 146,-190 146,-209.25"/>
<text text-anchor="middle" x="118.12" y="-195.75" font-family="IBMPlexSans-Regular" font-size="10.00">Polyakov</text>
</a>
</g>
</g>
<!-- Node1&#45;&gt;Node12 -->
<g id="edge18_Node000001_Node000012" class="edge">
<title>Node1&#45;&gt;Node12</title>
<g id="a_edge18_Node000001_Node000012"><a xlink:title=" ">
<path fill="none" stroke="#63b8ff" d="M334.62,-124.37C323.47,-142.3 304.48,-167.84 280.5,-180.62 237.81,-203.38 179.89,-204.18 146.31,-202.22"/>
<polygon fill="#63b8ff" stroke="#63b8ff" points="337.54,-126.3 339.61,-115.91 331.51,-122.74 337.54,-126.3"/>
</a>
</g>
</g>
<!-- Node2&#45;&gt;Node3 -->
<g id="edge2_Node000002_Node000003" class="edge">
<title>Node2&#45;&gt;Node3</title>
<g id="a_edge2_Node000002_Node000003"><a xlink:title=" ">
<path fill="none" stroke="#63b8ff" d="M189.97,-147.85C175.38,-142.86 159.26,-137.35 146.08,-132.84"/>
<polygon fill="#63b8ff" stroke="#63b8ff" points="188.74,-151.13 199.33,-151.05 191,-144.5 188.74,-151.13"/>
</a>
</g>
</g>
<!-- Node4 -->
<g id="Node000004" class="node">
<title>Node4</title>
<g id="a_Node000004"><a xlink:href="main_8c.html#a0ddf1224851353fc92bfbff6f499fa97" target="_top" xlink:title=" ">
<polygon fill="white" stroke="#666666" points="45.62,-188.25 8.62,-188.25 8.62,-169 45.62,-169 45.62,-188.25"/>
<text text-anchor="middle" x="27.12" y="-174.75" font-family="IBMPlexSans-Regular" font-size="10.00">main</text>
</a>
</g>
</g>
<!-- Node2&#45;&gt;Node4 -->
<g id="edge4_Node000002_Node000004" class="edge">
<title>Node2&#45;&gt;Node4</title>
<g id="a_edge4_Node000002_Node000004"><a xlink:title=" ">
<path fill="none" stroke="#63b8ff" d="M170.22,-166.67C127.74,-170.25 73.62,-174.8 46.04,-177.12"/>
<polygon fill="#63b8ff" stroke="#63b8ff" points="170.4,-170.17 180.07,-165.85 169.81,-163.2 170.4,-170.17"/>
</a>
</g>
</g>
<!-- Node3&#45;&gt;Node4 -->
<g id="edge3_Node000003_Node000004" class="edge">
<title>Node3&#45;&gt;Node4</title>
<g id="a_edge3_Node000003_Node000004"><a xlink:title=" ">
<path fill="none" stroke="#63b8ff" d="M91.44,-139.5C76.25,-148.88 57.49,-160.48 44.35,-168.6"/>
<polygon fill="#63b8ff" stroke="#63b8ff" points="92.85,-142.74 99.51,-134.51 89.17,-136.79 92.85,-142.74"/>
</a>
</g>
</g>
<!-- Node5&#45;&gt;Node6 -->
<g id="edge6_Node000005_Node000006" class="edge">
<title>Node5&#45;&gt;Node6</title>
<g id="a_edge6_Node000005_Node000006"><a xlink:title=" ">
<path fill="none" stroke="#63b8ff" d="M191.03,-16.33C175.85,-18.93 158.89,-21.83 145.25,-24.16"/>
<polygon fill="#63b8ff" stroke="#63b8ff" points="191.45,-19.81 200.72,-14.67 190.27,-12.91 191.45,-19.81"/>
</a>
</g>
</g>
<!-- Node7&#45;&gt;Node3 -->
<g id="edge15_Node000007_Node000003" class="edge">
<title>Node7&#45;&gt;Node3</title>
<g id="a_edge15_Node000007_Node000003"><a xlink:title=" ">
<path fill="none" stroke="#63b8ff" d="M191.64,-98.83C176.59,-103.97 159.7,-109.75 146.01,-114.43"/>
<polygon fill="#63b8ff" stroke="#63b8ff" points="192.45,-102.25 200.78,-95.7 190.18,-95.63 192.45,-102.25"/>
</a>
</g>
</g>
<!-- Node8 -->
<g id="Node000008" class="node">
<title>Node8</title>
<g id="a_Node000008"><a xlink:href="force_8c.html#a40e5951024b2de0086a5f878963c6bae" target="_top" xlink:title="Calculates the force &#160;at each intermediate time.">
<polygon fill="white" stroke="#666666" points="138.5,-95.25 97.75,-95.25 97.75,-76 138.5,-76 138.5,-95.25"/>
<text text-anchor="middle" x="118.12" y="-81.75" font-family="IBMPlexSans-Regular" font-size="10.00">Force</text>
</a>
</g>
</g>
<!-- Node7&#45;&gt;Node8 -->
<g id="edge8_Node000007_Node000008" class="edge">
<title>Node7&#45;&gt;Node8</title>
<g id="a_edge8_Node000007_Node000008"><a xlink:title=" ">
<path fill="none" stroke="#63b8ff" d="M190.76,-85.62C173.13,-85.62 153.13,-85.62 138.75,-85.62"/>
<polygon fill="#63b8ff" stroke="#63b8ff" points="190.69,-89.13 200.69,-85.63 190.69,-82.13 190.69,-89.13"/>
</a>
</g>
</g>
<!-- Node9 -->
<g id="Node000009" class="node">
<title>Node9</title>
<g id="a_Node000009"><a xlink:href="integrate_8c.html#ae4e13e66dc0e7130825c11648f2ad80c" target="_top" xlink:title="Leapfrog integrator. Each trajectory step takes the form of p&#45;&gt;p+dt/2,u&#45;&gt;u+dt,p&#45;&gt;p+dt/2 In practice t...">
<polygon fill="white" stroke="#666666" points="54.25,-78.25 0,-78.25 0,-59 54.25,-59 54.25,-78.25"/>
<text text-anchor="middle" x="27.12" y="-64.75" font-family="IBMPlexSans-Regular" font-size="10.00">Leapfrog</text>
</a>
</g>
</g>
<!-- Node8&#45;&gt;Node9 -->
<g id="edge9_Node000008_Node000009" class="edge">
<title>Node8&#45;&gt;Node9</title>
<g id="a_edge9_Node000008_Node000009"><a xlink:title=" ">
<path fill="none" stroke="#63b8ff" d="M86.3,-79.74C75.97,-77.76 64.55,-75.58 54.58,-73.68"/>
<polygon fill="#63b8ff" stroke="#63b8ff" points="85.41,-83.13 95.89,-81.57 86.72,-76.25 85.41,-83.13"/>
</a>
</g>
</g>
<!-- Node10 -->
<g id="Node000010" class="node">
<title>Node10</title>
<g id="a_Node000010"><a xlink:href="integrate_8c.html#a44f16170b5e3c92646f2e649ee57da3d" target="_top" xlink:title="OMF integrator. Each trajectory step takes the form of p&#45;&gt;p+dt/2,u&#45;&gt;u+dt,p&#45;&gt;p+dt/2 In practice this i...">
<polygon fill="white" stroke="#666666" points="48.62,-23.25 5.62,-23.25 5.62,-4 48.62,-4 48.62,-23.25"/>
<text text-anchor="middle" x="27.12" y="-9.75" font-family="IBMPlexSans-Regular" font-size="10.00">OMF2</text>
</a>
</g>
</g>
<!-- Node8&#45;&gt;Node10 -->
<g id="edge11_Node000008_Node000010" class="edge">
<title>Node8&#45;&gt;Node10</title>
<g id="a_edge11_Node000008_Node000010"><a xlink:title=" ">
<path fill="none" stroke="#63b8ff" d="M95.9,-68.45C78.57,-54.44 54.7,-35.12 40.39,-23.55"/>
<polygon fill="#63b8ff" stroke="#63b8ff" points="93.6,-71.09 103.57,-74.66 98,-65.65 93.6,-71.09"/>
</a>
</g>
</g>
<!-- Node11 -->
<g id="Node000011" class="node">
<title>Node11</title>
<g id="a_Node000011"><a xlink:href="integrate_8c.html#a5bbed189bcdd47d814585aa7e842bb8e" target="_top" xlink:title=" ">
<polygon fill="white" stroke="#666666" points="48.62,-133.25 5.62,-133.25 5.62,-114 48.62,-114 48.62,-133.25"/>
<text text-anchor="middle" x="27.12" y="-119.75" font-family="IBMPlexSans-Regular" font-size="10.00">OMF4</text>
</a>
</g>
</g>
<!-- Node8&#45;&gt;Node11 -->
<g id="edge13_Node000008_Node000011" class="edge">
<title>Node8&#45;&gt;Node11</title>
<g id="a_edge13_Node000008_Node000011"><a xlink:title=" ">
<path fill="none" stroke="#63b8ff" d="M86.97,-98.5C74.5,-103.82 60.36,-109.86 49.06,-114.69"/>
<polygon fill="#63b8ff" stroke="#63b8ff" points="88.16,-101.8 95.98,-94.65 85.41,-95.36 88.16,-101.8"/>
</a>
</g>
</g>
<!-- Node9&#45;&gt;Node9 -->
<g id="edge10_Node000009_Node000009" class="edge">
<title>Node9&#45;&gt;Node9</title>
<g id="a_edge10_Node000009_Node000009"><a xlink:title=" ">
<path fill="none" stroke="#63b8ff" d="M43.28,-89.65C41.26,-93.53 35.87,-96.25 27.12,-96.25 11.13,-96.25 6.38,-87.15 12.88,-78.54"/>
<polygon fill="#63b8ff" stroke="#63b8ff" points="46.77,-89.29 41.63,-80.03 39.87,-90.48 46.77,-89.29"/>
</a>
</g>
</g>
<!-- Node10&#45;&gt;Node10 -->
<g id="edge12_Node000010_Node000010" class="edge">
<title>Node10&#45;&gt;Node10</title>
<g id="a_edge12_Node000010_Node000010"><a xlink:title=" ">
<path fill="none" stroke="#63b8ff" d="M43.28,-34.65C41.26,-38.53 35.87,-41.25 27.12,-41.25 11.13,-41.25 6.38,-32.15 12.88,-23.54"/>
<polygon fill="#63b8ff" stroke="#63b8ff" points="46.77,-34.29 41.63,-25.03 39.87,-35.48 46.77,-34.29"/>
</a>
</g>
</g>
<!-- Node11&#45;&gt;Node11 -->
<g id="edge14_Node000011_Node000011" class="edge">
<title>Node11&#45;&gt;Node11</title>
<g id="a_edge14_Node000011_Node000011"><a xlink:title=" ">
<path fill="none" stroke="#63b8ff" d="M43.28,-144.65C41.26,-148.53 35.87,-151.25 27.12,-151.25 11.13,-151.25 6.38,-142.15 12.88,-133.54"/>
<polygon fill="#63b8ff" stroke="#63b8ff" points="46.77,-144.29 41.63,-135.03 39.87,-145.48 46.77,-144.29"/>
</a>
</g>
</g>
<!-- Node12&#45;&gt;Node4 -->
<g id="edge19_Node000012_Node000004" class="edge">
<title>Node12&#45;&gt;Node4</title>
<g id="a_edge19_Node000012_Node000004"><a xlink:title=" ">
<path fill="none" stroke="#63b8ff" d="M78.79,-190.58C67.34,-187.88 55.33,-185.04 45.88,-182.81"/>
<polygon fill="#63b8ff" stroke="#63b8ff" points="77.93,-193.97 88.47,-192.86 79.54,-187.16 77.93,-193.97"/>
</a>
</g>
</g>
</g>
</svg>
