<?xml version="1.0" encoding="UTF-8" standalone="no"?>
<!DOCTYPE svg PUBLIC "-//W3C//DTD SVG 1.1//EN"
 "http://www.w3.org/Graphics/SVG/1.1/DTD/svg11.dtd">
<!-- Generated by graphviz version 12.2.1 (20241206.2353)
 -->
<!-- Title: ZHalo_swap_all Pages: 1 -->
<svg width="492pt" height="175pt"
 viewBox="0.00 0.00 492.25 175.25" xmlns="http://www.w3.org/2000/svg" xmlns:xlink="http://www.w3.org/1999/xlink">
<g id="graph0" class="graph" transform="scale(1 1) rotate(0) translate(4 171.25)">
<title>ZHalo_swap_all</title>
<!-- Node1 -->
<g id="Node000001" class="node">
<title>Node1</title>
<g id="a_Node000001"><a xlink:title="Calls the functions to send data to both the up and down halos.">
<polygon fill="#999999" stroke="#666666" points="484.25,-93.25 398.5,-93.25 398.5,-74 484.25,-74 484.25,-93.25"/>
<text text-anchor="middle" x="441.38" y="-79.75" font-family="IBMPlexSans-Regular" font-size="10.00">ZHalo_swap_all</text>
</a>
</g>
</g>
<!-- Node2 -->
<g id="Node000002" class="node">
<title>Node2</title>
<g id="a_Node000002"><a xlink:href="matrices_8c.html#a3bf73559400880606e72700009446849" target="_top" xlink:title="Evaluates &#160;in double precision.">
<polygon fill="white" stroke="#666666" points="344.5,-167.25 298.5,-167.25 298.5,-148 344.5,-148 344.5,-167.25"/>
<text text-anchor="middle" x="321.5" y="-153.75" font-family="IBMPlexSans-Regular" font-size="10.00">Dslash</text>
</a>
</g>
</g>
<!-- Node1&#45;&gt;Node2 -->
<g id="edge1_Node000001_Node000002" class="edge">
<title>Node1&#45;&gt;Node2</title>
<g id="a_edge1_Node000001_Node000002"><a xlink:title=" ">
<path fill="none" stroke="#63b8ff" d="M419.59,-100.33C404.33,-112.15 382.81,-127.91 362.5,-139.62 356.96,-142.82 350.75,-145.86 344.9,-148.5"/>
<polygon fill="#63b8ff" stroke="#63b8ff" points="421.33,-103.42 427.03,-94.48 417,-97.91 421.33,-103.42"/>
</a>
</g>
</g>
<!-- Node3 -->
<g id="Node000003" class="node">
<title>Node3</title>
<g id="a_Node000003"><a xlink:href="matrices_8c.html#a4da2b8a16d0703d183947fb98a70d731" target="_top" xlink:title="Evaluates &#160;in double precision.">
<polygon fill="white" stroke="#666666" points="347.12,-130.25 295.88,-130.25 295.88,-111 347.12,-111 347.12,-130.25"/>
<text text-anchor="middle" x="321.5" y="-116.75" font-family="IBMPlexSans-Regular" font-size="10.00">Dslashd</text>
</a>
</g>
</g>
<!-- Node1&#45;&gt;Node3 -->
<g id="edge2_Node000001_Node000003" class="edge">
<title>Node1&#45;&gt;Node3</title>
<g id="a_edge2_Node000001_Node000003"><a xlink:title=" ">
<path fill="none" stroke="#63b8ff" d="M397.48,-97.09C380.71,-102.35 362.07,-108.2 347.57,-112.76"/>
<polygon fill="#63b8ff" stroke="#63b8ff" points="398.23,-100.52 406.72,-94.19 396.13,-93.84 398.23,-100.52"/>
</a>
</g>
</g>
<!-- Node4 -->
<g id="Node000004" class="node">
<title>Node4</title>
<g id="a_Node000004"><a xlink:href="matrices_8c.html#a487c5a84050f8d6fa5754d7d8784b75e" target="_top" xlink:title="Evaluates &#160;in double precision.">
<polygon fill="white" stroke="#666666" points="347.5,-93.25 295.5,-93.25 295.5,-74 347.5,-74 347.5,-93.25"/>
<text text-anchor="middle" x="321.5" y="-79.75" font-family="IBMPlexSans-Regular" font-size="10.00">Hdslash</text>
</a>
</g>
</g>
<!-- Node1&#45;&gt;Node4 -->
<g id="edge3_Node000001_Node000004" class="edge">
<title>Node1&#45;&gt;Node4</title>
<g id="a_edge3_Node000001_Node000004"><a xlink:title=" ">
<path fill="none" stroke="#63b8ff" d="M386.92,-83.62C373.37,-83.62 359.42,-83.62 347.99,-83.62"/>
<polygon fill="#63b8ff" stroke="#63b8ff" points="386.64,-87.13 396.64,-83.63 386.64,-80.13 386.64,-87.13"/>
</a>
</g>
</g>
<!-- Node10 -->
<g id="Node000010" class="node">
<title>Node10</title>
<g id="a_Node000010"><a xlink:href="matrices_8c.html#afa508c94d2aca3c459021f8a4434471c" target="_top" xlink:title="Evaluates &#160;in double precision.">
<polygon fill="white" stroke="#666666" points="350.12,-19.25 292.88,-19.25 292.88,0 350.12,0 350.12,-19.25"/>
<text text-anchor="middle" x="321.5" y="-5.75" font-family="IBMPlexSans-Regular" font-size="10.00">Hdslashd</text>
</a>
</g>
</g>
<!-- Node1&#45;&gt;Node10 -->
<g id="edge11_Node000001_Node000010" class="edge">
<title>Node1&#45;&gt;Node10</title>
<g id="a_edge11_Node000001_Node000010"><a xlink:title=" ">
<path fill="none" stroke="#63b8ff" d="M419.59,-66.92C404.33,-55.1 382.81,-39.34 362.5,-27.62 357.62,-24.81 352.22,-22.12 347,-19.71"/>
<polygon fill="#63b8ff" stroke="#63b8ff" points="417,-69.34 427.03,-72.77 421.33,-63.83 417,-69.34"/>
</a>
</g>
</g>
<!-- Node11 -->
<g id="Node000011" class="node">
<title>Node11</title>
<g id="a_Node000011"><a xlink:href="par__mpi_8c.html#abf4867774abbc820eb4aaaeabbee31f4" target="_top" xlink:title="Exchanges the trial fields.">
<polygon fill="white" stroke="#666666" points="362.5,-56.25 280.5,-56.25 280.5,-37 362.5,-37 362.5,-56.25"/>
<text text-anchor="middle" x="321.5" y="-42.75" font-family="IBMPlexSans-Regular" font-size="10.00">Trial_Exchange</text>
</a>
</g>
</g>
<!-- Node1&#45;&gt;Node11 -->
<g id="edge12_Node000001_Node000011" class="edge">
<title>Node1&#45;&gt;Node11</title>
<g id="a_edge12_Node000001_Node000011"><a xlink:title=" ">
<path fill="none" stroke="#63b8ff" d="M397.23,-70.08C383.16,-65.66 367.79,-60.84 354.67,-56.72"/>
<polygon fill="#63b8ff" stroke="#63b8ff" points="396.13,-73.41 406.72,-73.06 398.23,-66.73 396.13,-73.41"/>
</a>
</g>
</g>
<!-- Node5 -->
<g id="Node000005" class="node">
<title>Node5</title>
<g id="a_Node000005"><a xlink:href="force_8c.html#a98a5926c20124e0cea060ad1e47ff3de" target="_top" xlink:title="Calculates the force &#160;at each intermediate time.">
<polygon fill="white" stroke="#666666" points="224.25,-93.25 183.5,-93.25 183.5,-74 224.25,-74 224.25,-93.25"/>
<text text-anchor="middle" x="203.88" y="-79.75" font-family="IBMPlexSans-Regular" font-size="10.00">Force</text>
</a>
</g>
</g>
<!-- Node4&#45;&gt;Node5 -->
<g id="edge4_Node000004_Node000005" class="edge">
<title>Node4&#45;&gt;Node5</title>
<g id="a_edge4_Node000004_Node000005"><a xlink:title=" ">
<path fill="none" stroke="#63b8ff" d="M283.76,-83.62C264.09,-83.62 240.65,-83.62 224.46,-83.62"/>
<polygon fill="#63b8ff" stroke="#63b8ff" points="283.61,-87.13 293.61,-83.63 283.61,-80.13 283.61,-87.13"/>
</a>
</g>
</g>
<!-- Node6 -->
<g id="Node000006" class="node">
<title>Node6</title>
<g id="a_Node000006"><a xlink:href="integrate_8c.html#a4d7f64e9f3e98a2953d707f18742d110" target="_top" xlink:title="Leapfrog integrator. Each trajectory step takes the form of p&#45;&gt;p+dt/2,u&#45;&gt;u+dt,p&#45;&gt;p+dt/2 In practice t...">
<polygon fill="white" stroke="#666666" points="127.25,-130.25 73,-130.25 73,-111 127.25,-111 127.25,-130.25"/>
<text text-anchor="middle" x="100.12" y="-116.75" font-family="IBMPlexSans-Regular" font-size="10.00">Leapfrog</text>
</a>
</g>
</g>
<!-- Node5&#45;&gt;Node6 -->
<g id="edge5_Node000005_Node000006" class="edge">
<title>Node5&#45;&gt;Node6</title>
<g id="a_edge5_Node000005_Node000006"><a xlink:title=" ">
<path fill="none" stroke="#63b8ff" d="M172.47,-94.68C158.2,-99.87 141.35,-106 127.61,-110.99"/>
<polygon fill="#63b8ff" stroke="#63b8ff" points="173.63,-97.98 181.83,-91.28 171.24,-91.4 173.63,-97.98"/>
</a>
</g>
</g>
<!-- Node8 -->
<g id="Node000008" class="node">
<title>Node8</title>
<g id="a_Node000008"><a xlink:href="integrate_8c.html#a33907d89c4a0709fcf809773de68c3a2" target="_top" xlink:title="OMF second order five step integrator.">
<polygon fill="white" stroke="#666666" points="121.62,-93.25 78.62,-93.25 78.62,-74 121.62,-74 121.62,-93.25"/>
<text text-anchor="middle" x="100.12" y="-79.75" font-family="IBMPlexSans-Regular" font-size="10.00">OMF2</text>
</a>
</g>
</g>
<!-- Node5&#45;&gt;Node8 -->
<g id="edge7_Node000005_Node000008" class="edge">
<title>Node5&#45;&gt;Node8</title>
<g id="a_edge7_Node000005_Node000008"><a xlink:title=" ">
<path fill="none" stroke="#63b8ff" d="M172.16,-83.62C155.97,-83.62 136.53,-83.62 122.08,-83.62"/>
<polygon fill="#63b8ff" stroke="#63b8ff" points="171.74,-87.13 181.74,-83.63 171.74,-80.13 171.74,-87.13"/>
</a>
</g>
</g>
<!-- Node9 -->
<g id="Node000009" class="node">
<title>Node9</title>
<g id="a_Node000009"><a xlink:href="integrate_8c.html#a4e6abc4e61c0131df30fb683569e5d00" target="_top" xlink:title="OMF fourth order eleven step integrator.">
<polygon fill="white" stroke="#666666" points="121.62,-56.25 78.62,-56.25 78.62,-37 121.62,-37 121.62,-56.25"/>
<text text-anchor="middle" x="100.12" y="-42.75" font-family="IBMPlexSans-Regular" font-size="10.00">OMF4</text>
</a>
</g>
</g>
<!-- Node5&#45;&gt;Node9 -->
<g id="edge9_Node000005_Node000009" class="edge">
<title>Node5&#45;&gt;Node9</title>
<g id="a_edge9_Node000005_Node000009"><a xlink:title=" ">
<path fill="none" stroke="#63b8ff" d="M172.63,-72.63C156.35,-66.71 136.67,-59.55 122.08,-54.25"/>
<polygon fill="#63b8ff" stroke="#63b8ff" points="171.24,-75.85 181.83,-75.97 173.63,-69.27 171.24,-75.85"/>
</a>
</g>
</g>
<!-- Node7 -->
<g id="Node000007" class="node">
<title>Node7</title>
<g id="a_Node000007"><a xlink:href="main_8c.html#a0ddf1224851353fc92bfbff6f499fa97" target="_top" xlink:title=" ">
<polygon fill="white" stroke="#666666" points="37,-74.25 0,-74.25 0,-55 37,-55 37,-74.25"/>
<text text-anchor="middle" x="18.5" y="-60.75" font-family="IBMPlexSans-Regular" font-size="10.00">main</text>
</a>
</g>
</g>
<!-- Node6&#45;&gt;Node7 -->
<g id="edge6_Node000006_Node000007" class="edge">
<title>Node6&#45;&gt;Node7</title>
<g id="a_edge6_Node000006_Node000007"><a xlink:title=" ">
<path fill="none" stroke="#63b8ff" d="M75.11,-104.1C74.4,-103.6 73.69,-103.11 73,-102.62 59.56,-93.22 44.31,-82.37 33.54,-74.68"/>
<polygon fill="#63b8ff" stroke="#63b8ff" points="73,-106.89 83.21,-109.71 76.98,-101.14 73,-106.89"/>
</a>
</g>
</g>
<!-- Node8&#45;&gt;Node7 -->
<g id="edge8_Node000008_Node000007" class="edge">
<title>Node8&#45;&gt;Node7</title>
<g id="a_edge8_Node000008_Node000007"><a xlink:title=" ">
<path fill="none" stroke="#63b8ff" d="M67.17,-76C57,-73.57 46.11,-70.97 37.31,-68.88"/>
<polygon fill="#63b8ff" stroke="#63b8ff" points="66.19,-79.36 76.73,-78.28 67.82,-72.56 66.19,-79.36"/>
</a>
</g>
</g>
<!-- Node9&#45;&gt;Node7 -->
<g id="edge10_Node000009_Node000007" class="edge">
<title>Node9&#45;&gt;Node7</title>
<g id="a_edge10_Node000009_Node000007"><a xlink:title=" ">
<path fill="none" stroke="#63b8ff" d="M67.17,-53.85C57,-56.15 46.11,-58.61 37.31,-60.6"/>
<polygon fill="#63b8ff" stroke="#63b8ff" points="67.75,-57.31 76.73,-51.69 66.2,-50.48 67.75,-57.31"/>
</a>
</g>
</g>
<!-- Node11&#45;&gt;Node7 -->
<g id="edge17_Node000011_Node000007" class="edge">
<title>Node11&#45;&gt;Node7</title>
<g id="a_edge17_Node000011_Node000007"><a xlink:title=" ">
<path fill="none" stroke="#63b8ff" d="M276.88,-33.66C226.55,-20.88 141.89,-6.12 73,-27.62 56.18,-32.87 40,-45.47 29.91,-54.5"/>
<polygon fill="#63b8ff" stroke="#63b8ff" points="275.97,-37.04 286.53,-36.21 277.75,-30.27 275.97,-37.04"/>
</a>
</g>
</g>
<!-- Node12 -->
<g id="Node000012" class="node">
<title>Node12</title>
<g id="a_Node000012"><a xlink:href="integrate_8c.html#ab9fe12be80cd3768ce2adf2be02a1d4b" target="_top" xlink:title="Gauge update for the integration step of the HMC.">
<polygon fill="white" stroke="#666666" points="244.5,-56.25 163.25,-56.25 163.25,-37 244.5,-37 244.5,-56.25"/>
<text text-anchor="middle" x="203.88" y="-42.75" font-family="IBMPlexSans-Regular" font-size="10.00">Gauge_Update</text>
</a>
</g>
</g>
<!-- Node11&#45;&gt;Node12 -->
<g id="edge13_Node000011_Node000012" class="edge">
<title>Node11&#45;&gt;Node12</title>
<g id="a_edge13_Node000011_Node000012"><a xlink:title=" ">
<path fill="none" stroke="#63b8ff" d="M268.8,-46.62C260.72,-46.62 252.47,-46.62 244.71,-46.62"/>
<polygon fill="#63b8ff" stroke="#63b8ff" points="268.55,-50.13 278.55,-46.63 268.55,-43.13 268.55,-50.13"/>
</a>
</g>
</g>
<!-- Node12&#45;&gt;Node6 -->
<g id="edge14_Node000012_Node000006" class="edge">
<title>Node12&#45;&gt;Node6</title>
<g id="a_edge14_Node000012_Node000006"><a xlink:title=" ">
<path fill="none" stroke="#63b8ff" d="M166.9,-62.18C165.65,-62.97 164.43,-63.79 163.25,-64.62 144.31,-78.13 144.93,-87.5 127.25,-102.62 123.99,-105.42 120.29,-108.18 116.72,-110.67"/>
<polygon fill="#63b8ff" stroke="#63b8ff" points="168.53,-65.29 175.6,-57.39 165.15,-59.15 168.53,-65.29"/>
</a>
</g>
</g>
<!-- Node12&#45;&gt;Node8 -->
<g id="edge15_Node000012_Node000008" class="edge">
<title>Node12&#45;&gt;Node8</title>
<g id="a_edge15_Node000012_Node000008"><a xlink:title=" ">
<path fill="none" stroke="#63b8ff" d="M164.45,-60.6C150.09,-65.82 134.32,-71.55 122.12,-75.99"/>
<polygon fill="#63b8ff" stroke="#63b8ff" points="165.45,-63.96 173.65,-57.25 163.05,-57.38 165.45,-63.96"/>
</a>
</g>
</g>
<!-- Node12&#45;&gt;Node9 -->
<g id="edge16_Node000012_Node000009" class="edge">
<title>Node12&#45;&gt;Node9</title>
<g id="a_edge16_Node000012_Node000009"><a xlink:title=" ">
<path fill="none" stroke="#63b8ff" d="M151.61,-46.62C141.09,-46.62 130.59,-46.62 121.91,-46.62"/>
<polygon fill="#63b8ff" stroke="#63b8ff" points="151.44,-50.13 161.44,-46.63 151.44,-43.13 151.44,-50.13"/>
</a>
</g>
</g>
</g>
</svg>
