<?xml version="1.0" encoding="UTF-8" standalone="no"?>
<!DOCTYPE svg PUBLIC "-//W3C//DTD SVG 1.1//EN"
 "http://www.w3.org/Graphics/SVG/1.1/DTD/svg11.dtd">
<!-- Generated by graphviz version 11.0.0 (20240428.1522)
 -->
<!-- Title: ZHalo_swap_dir Pages: 1 -->
<svg width="274pt" height="101pt"
 viewBox="0.00 0.00 274.25 101.25" xmlns="http://www.w3.org/2000/svg" xmlns:xlink="http://www.w3.org/1999/xlink">
<g id="graph0" class="graph" transform="scale(1 1) rotate(0) translate(4 97.25)">
<title>ZHalo_swap_dir</title>
<!-- Node1 -->
<g id="Node000001" class="node">
<title>Node1</title>
<g id="a_Node000001"><a xlink:title="Swaps the halos along the axis given by idir in the direction given by layer.">
<polygon fill="#999999" stroke="#666666" points="266.25,-37.25 179.75,-37.25 179.75,-18 266.25,-18 266.25,-37.25"/>
<text text-anchor="middle" x="223" y="-23.75" font-family="IBMPlexSans-Regular" font-size="10.00">ZHalo_swap_dir</text>
</a>
</g>
</g>
<!-- Node2 -->
<g id="Node000002" class="node">
<title>Node2</title>
<g id="a_Node000002"><a xlink:href="force_8c.html#a40e5951024b2de0086a5f878963c6bae" target="_top" xlink:title="Calculates the force &#160;at each intermediate time.">
<polygon fill="white" stroke="#666666" points="137.38,-56.25 96.62,-56.25 96.62,-37 137.38,-37 137.38,-56.25"/>
<text text-anchor="middle" x="117" y="-42.75" font-family="IBMPlexSans-Regular" font-size="10.00">Force</text>
</a>
</g>
</g>
<!-- Node1&#45;&gt;Node2 -->
<g id="edge1_Node000001_Node000002" class="edge">
<title>Node1&#45;&gt;Node2</title>
<g id="a_edge1_Node000001_Node000002"><a xlink:title=" ">
<path fill="none" stroke="#63b8ff" d="M168.09,-37.47C157.19,-39.47 146.41,-41.44 137.65,-43.03"/>
<polygon fill="#63b8ff" stroke="#63b8ff" points="168.7,-40.92 177.91,-35.68 167.44,-34.03 168.7,-40.92"/>
</a>
</g>
</g>
<!-- Node6 -->
<g id="Node000006" class="node">
<title>Node6</title>
<g id="a_Node000006"><a xlink:href="fermionic_8c.html#a38464140ca960a533faa9e49b6ee6131" target="_top" xlink:title="Calculate fermion expectation values via a noisy estimator.">
<polygon fill="white" stroke="#666666" points="143.75,-19.25 90.25,-19.25 90.25,0 143.75,0 143.75,-19.25"/>
<text text-anchor="middle" x="117" y="-5.75" font-family="IBMPlexSans-Regular" font-size="10.00">Measure</text>
</a>
</g>
</g>
<!-- Node1&#45;&gt;Node6 -->
<g id="edge5_Node000001_Node000006" class="edge">
<title>Node1&#45;&gt;Node6</title>
<g id="a_edge5_Node000001_Node000006"><a xlink:title=" ">
<path fill="none" stroke="#63b8ff" d="M168.31,-18.33C159.84,-16.87 151.44,-15.41 143.99,-14.12"/>
<polygon fill="#63b8ff" stroke="#63b8ff" points="167.46,-21.74 177.91,-19.99 168.65,-14.84 167.46,-21.74"/>
</a>
</g>
</g>
<!-- Node3 -->
<g id="Node000003" class="node">
<title>Node3</title>
<g id="a_Node000003"><a xlink:href="integrate_8c.html#ae4e13e66dc0e7130825c11648f2ad80c" target="_top" xlink:title="Leapfrog integrator. Each trajectory step takes the form of p&#45;&gt;p+dt/2,u&#45;&gt;u+dt,p&#45;&gt;p+dt/2 In practice t...">
<polygon fill="white" stroke="#666666" points="54.25,-93.25 0,-93.25 0,-74 54.25,-74 54.25,-93.25"/>
<text text-anchor="middle" x="27.12" y="-79.75" font-family="IBMPlexSans-Regular" font-size="10.00">Leapfrog</text>
</a>
</g>
</g>
<!-- Node2&#45;&gt;Node3 -->
<g id="edge2_Node000002_Node000003" class="edge">
<title>Node2&#45;&gt;Node3</title>
<g id="a_edge2_Node000002_Node000003"><a xlink:title=" ">
<path fill="none" stroke="#63b8ff" d="M85.96,-59.28C74.85,-63.95 62.43,-69.18 51.96,-73.59"/>
<polygon fill="#63b8ff" stroke="#63b8ff" points="87.24,-62.53 95.1,-55.42 84.53,-56.08 87.24,-62.53"/>
</a>
</g>
</g>
<!-- Node4 -->
<g id="Node000004" class="node">
<title>Node4</title>
<g id="a_Node000004"><a xlink:href="integrate_8c.html#a44f16170b5e3c92646f2e649ee57da3d" target="_top" xlink:title="OMF integrator. Each trajectory step takes the form of p&#45;&gt;p+dt/2,u&#45;&gt;u+dt,p&#45;&gt;p+dt/2 In practice this i...">
<polygon fill="white" stroke="#666666" points="48.62,-56.25 5.62,-56.25 5.62,-37 48.62,-37 48.62,-56.25"/>
<text text-anchor="middle" x="27.12" y="-42.75" font-family="IBMPlexSans-Regular" font-size="10.00">OMF2</text>
</a>
</g>
</g>
<!-- Node2&#45;&gt;Node4 -->
<g id="edge3_Node000002_Node000004" class="edge">
<title>Node2&#45;&gt;Node4</title>
<g id="a_edge3_Node000002_Node000004"><a xlink:title=" ">
<path fill="none" stroke="#63b8ff" d="M85.19,-46.62C73.25,-46.62 59.9,-46.62 49.11,-46.62"/>
<polygon fill="#63b8ff" stroke="#63b8ff" points="84.98,-50.13 94.98,-46.63 84.98,-43.13 84.98,-50.13"/>
</a>
</g>
</g>
<!-- Node5 -->
<g id="Node000005" class="node">
<title>Node5</title>
<g id="a_Node000005"><a xlink:href="integrate_8c.html#a5bbed189bcdd47d814585aa7e842bb8e" target="_top" xlink:title=" ">
<polygon fill="white" stroke="#666666" points="48.62,-19.25 5.62,-19.25 5.62,0 48.62,0 48.62,-19.25"/>
<text text-anchor="middle" x="27.12" y="-5.75" font-family="IBMPlexSans-Regular" font-size="10.00">OMF4</text>
</a>
</g>
</g>
<!-- Node2&#45;&gt;Node5 -->
<g id="edge4_Node000002_Node000005" class="edge">
<title>Node2&#45;&gt;Node5</title>
<g id="a_edge4_Node000002_Node000005"><a xlink:title=" ">
<path fill="none" stroke="#63b8ff" d="M85.93,-33.96C73.81,-28.86 60.12,-23.1 49.11,-18.46"/>
<polygon fill="#63b8ff" stroke="#63b8ff" points="84.53,-37.17 95.1,-37.83 87.24,-30.72 84.53,-37.17"/>
</a>
</g>
</g>
</g>
</svg>
