<?xml version="1.0" encoding="UTF-8" standalone="no"?>
<!DOCTYPE svg PUBLIC "-//W3C//DTD SVG 1.1//EN"
 "http://www.w3.org/Graphics/SVG/1.1/DTD/svg11.dtd">
<!-- Generated by graphviz version 12.1.2 (20240928.0832)
 -->
<!-- Title: Trial_Exchange Pages: 1 -->
<svg width="298pt" height="155pt"
 viewBox="0.00 0.00 297.50 155.25" xmlns="http://www.w3.org/2000/svg" xmlns:xlink="http://www.w3.org/1999/xlink">
<g id="graph0" class="graph" transform="scale(1 1) rotate(0) translate(4 151.25)">
<title>Trial_Exchange</title>
<!-- Node1 -->
<g id="Node000001" class="node">
<title>Node1</title>
<g id="a_Node000001"><a xlink:title="Exchanges the trial fields.">
<polygon fill="#999999" stroke="#666666" points="289.5,-55.25 207.5,-55.25 207.5,-36 289.5,-36 289.5,-55.25"/>
<text text-anchor="middle" x="248.5" y="-41.75" font-family="IBMPlexSans-Regular" font-size="10.00">Trial_Exchange</text>
</a>
</g>
</g>
<!-- Node2 -->
<g id="Node000002" class="node">
<title>Node2</title>
<g id="a_Node000002"><a xlink:href="integrate_8c.html#aad98b6e55d3f033e15cffc5b53b173ee" target="_top" xlink:title="Gauge update for the integration step of the HMC.">
<polygon fill="white" stroke="#666666" points="171.5,-74.25 90.25,-74.25 90.25,-55 171.5,-55 171.5,-74.25"/>
<text text-anchor="middle" x="130.88" y="-60.75" font-family="IBMPlexSans-Regular" font-size="10.00">Gauge_Update</text>
</a>
</g>
</g>
<!-- Node1&#45;&gt;Node2 -->
<g id="edge1_Node000001_Node000002" class="edge">
<title>Node1&#45;&gt;Node2</title>
<g id="a_edge1_Node000001_Node000002"><a xlink:title=" ">
<path fill="none" stroke="#63b8ff" d="M195.8,-54.12C187.72,-55.45 179.47,-56.8 171.71,-58.08"/>
<polygon fill="#63b8ff" stroke="#63b8ff" points="196.27,-57.59 205.57,-52.52 195.13,-50.68 196.27,-57.59"/>
</a>
</g>
</g>
<!-- Node6 -->
<g id="Node000006" class="node">
<title>Node6</title>
<g id="a_Node000006"><a xlink:href="main_8c.html#a0ddf1224851353fc92bfbff6f499fa97" target="_top" xlink:title=" ">
<polygon fill="white" stroke="#666666" points="149.38,-37.25 112.38,-37.25 112.38,-18 149.38,-18 149.38,-37.25"/>
<text text-anchor="middle" x="130.88" y="-23.75" font-family="IBMPlexSans-Regular" font-size="10.00">main</text>
</a>
</g>
</g>
<!-- Node1&#45;&gt;Node6 -->
<g id="edge9_Node000001_Node000006" class="edge">
<title>Node1&#45;&gt;Node6</title>
<g id="a_edge9_Node000001_Node000006"><a xlink:title=" ">
<path fill="none" stroke="#63b8ff" d="M195.83,-37.58C179.36,-35.02 162.21,-32.35 149.82,-30.42"/>
<polygon fill="#63b8ff" stroke="#63b8ff" points="195.15,-41.02 205.56,-39.1 196.22,-34.1 195.15,-41.02"/>
</a>
</g>
</g>
<!-- Node2&#45;&gt;Node2 -->
<g id="edge2_Node000002_Node000002" class="edge">
<title>Node2&#45;&gt;Node2</title>
<g id="a_edge2_Node000002_Node000002"><a xlink:title=" ">
<path fill="none" stroke="#63b8ff" d="M149.29,-85.65C146.99,-89.53 140.85,-92.25 130.88,-92.25 112.64,-92.25 107.22,-83.15 114.63,-74.54"/>
<polygon fill="#63b8ff" stroke="#63b8ff" points="152.76,-85.17 147.41,-76.02 145.89,-86.51 152.76,-85.17"/>
</a>
</g>
</g>
<!-- Node3 -->
<g id="Node000003" class="node">
<title>Node3</title>
<g id="a_Node000003"><a xlink:href="integrate_8c.html#ae4e13e66dc0e7130825c11648f2ad80c" target="_top" xlink:title="Leapfrog integrator. Each trajectory step takes the form of p&#45;&gt;p+dt/2,u&#45;&gt;u+dt,p&#45;&gt;p+dt/2 In practice t...">
<polygon fill="white" stroke="#666666" points="54.25,-129.25 0,-129.25 0,-110 54.25,-110 54.25,-129.25"/>
<text text-anchor="middle" x="27.12" y="-115.75" font-family="IBMPlexSans-Regular" font-size="10.00">Leapfrog</text>
</a>
</g>
</g>
<!-- Node2&#45;&gt;Node3 -->
<g id="edge3_Node000002_Node000003" class="edge">
<title>Node2&#45;&gt;Node3</title>
<g id="a_edge3_Node000002_Node000003"><a xlink:title=" ">
<path fill="none" stroke="#63b8ff" d="M101.49,-79.97C83.97,-89.44 61.98,-101.32 46.67,-109.6"/>
<polygon fill="#63b8ff" stroke="#63b8ff" points="102.75,-83.27 109.88,-75.43 99.42,-77.11 102.75,-83.27"/>
</a>
</g>
</g>
<!-- Node4 -->
<g id="Node000004" class="node">
<title>Node4</title>
<g id="a_Node000004"><a xlink:href="integrate_8c.html#a44f16170b5e3c92646f2e649ee57da3d" target="_top" xlink:title="OMF integrator. Each trajectory step takes the form of p&#45;&gt;p+dt/2,u&#45;&gt;u+dt,p&#45;&gt;p+dt/2 In practice this i...">
<polygon fill="white" stroke="#666666" points="48.62,-74.25 5.62,-74.25 5.62,-55 48.62,-55 48.62,-74.25"/>
<text text-anchor="middle" x="27.12" y="-60.75" font-family="IBMPlexSans-Regular" font-size="10.00">OMF2</text>
</a>
</g>
</g>
<!-- Node2&#45;&gt;Node4 -->
<g id="edge5_Node000002_Node000004" class="edge">
<title>Node2&#45;&gt;Node4</title>
<g id="a_edge5_Node000002_Node000004"><a xlink:title=" ">
<path fill="none" stroke="#63b8ff" d="M78.61,-64.62C68.09,-64.62 57.59,-64.62 48.91,-64.62"/>
<polygon fill="#63b8ff" stroke="#63b8ff" points="78.44,-68.13 88.44,-64.63 78.44,-61.13 78.44,-68.13"/>
</a>
</g>
</g>
<!-- Node5 -->
<g id="Node000005" class="node">
<title>Node5</title>
<g id="a_Node000005"><a xlink:href="integrate_8c.html#a5bbed189bcdd47d814585aa7e842bb8e" target="_top" xlink:title=" ">
<polygon fill="white" stroke="#666666" points="48.62,-19.25 5.62,-19.25 5.62,0 48.62,0 48.62,-19.25"/>
<text text-anchor="middle" x="27.12" y="-5.75" font-family="IBMPlexSans-Regular" font-size="10.00">OMF4</text>
</a>
</g>
</g>
<!-- Node2&#45;&gt;Node5 -->
<g id="edge7_Node000002_Node000005" class="edge">
<title>Node2&#45;&gt;Node5</title>
<g id="a_edge7_Node000002_Node000005"><a xlink:title=" ">
<path fill="none" stroke="#63b8ff" d="M96.29,-49.69C94.24,-48.67 92.21,-47.65 90.25,-46.62 74.12,-38.19 56.33,-27.44 43.94,-19.7"/>
<polygon fill="#63b8ff" stroke="#63b8ff" points="94.72,-52.81 105.25,-53.93 97.71,-46.49 94.72,-52.81"/>
</a>
</g>
</g>
<!-- Node3&#45;&gt;Node3 -->
<g id="edge4_Node000003_Node000003" class="edge">
<title>Node3&#45;&gt;Node3</title>
<g id="a_edge4_Node000003_Node000003"><a xlink:title=" ">
<path fill="none" stroke="#63b8ff" d="M45.54,-140.65C43.24,-144.53 37.1,-147.25 27.12,-147.25 8.89,-147.25 3.47,-138.15 10.88,-129.54"/>
<polygon fill="#63b8ff" stroke="#63b8ff" points="49.01,-140.17 43.66,-131.02 42.14,-141.51 49.01,-140.17"/>
</a>
</g>
</g>
<!-- Node4&#45;&gt;Node4 -->
<g id="edge6_Node000004_Node000004" class="edge">
<title>Node4&#45;&gt;Node4</title>
<g id="a_edge6_Node000004_Node000004"><a xlink:title=" ">
<path fill="none" stroke="#63b8ff" d="M45.54,-85.65C43.24,-89.53 37.1,-92.25 27.12,-92.25 8.89,-92.25 3.47,-83.15 10.88,-74.54"/>
<polygon fill="#63b8ff" stroke="#63b8ff" points="49.01,-85.17 43.66,-76.02 42.14,-86.51 49.01,-85.17"/>
</a>
</g>
</g>
<!-- Node5&#45;&gt;Node5 -->
<g id="edge8_Node000005_Node000005" class="edge">
<title>Node5&#45;&gt;Node5</title>
<g id="a_edge8_Node000005_Node000005"><a xlink:title=" ">
<path fill="none" stroke="#63b8ff" d="M45.54,-30.65C43.24,-34.53 37.1,-37.25 27.12,-37.25 8.89,-37.25 3.47,-28.15 10.88,-19.54"/>
<polygon fill="#63b8ff" stroke="#63b8ff" points="49.01,-30.17 43.66,-21.02 42.14,-31.51 49.01,-30.17"/>
</a>
</g>
</g>
</g>
</svg>
