<?xml version="1.0" encoding="UTF-8" standalone="no"?>
<!DOCTYPE svg PUBLIC "-//W3C//DTD SVG 1.1//EN"
 "http://www.w3.org/Graphics/SVG/1.1/DTD/svg11.dtd">
<!-- Generated by graphviz version 12.1.2 (20240928.0832)
 -->
<!-- Title: ZHalo_swap_all Pages: 1 -->
<svg width="419pt" height="175pt"
 viewBox="0.00 0.00 419.25 175.25" xmlns="http://www.w3.org/2000/svg" xmlns:xlink="http://www.w3.org/1999/xlink">
<g id="graph0" class="graph" transform="scale(1 1) rotate(0) translate(4 171.25)">
<title>ZHalo_swap_all</title>
<!-- Node1 -->
<g id="Node000001" class="node">
<title>Node1</title>
<g id="a_Node000001"><a xlink:title="Calls the functions to send data to both the up and down halos.">
<polygon fill="#999999" stroke="#666666" points="411.25,-93.25 325.5,-93.25 325.5,-74 411.25,-74 411.25,-93.25"/>
<text text-anchor="middle" x="368.38" y="-79.75" font-family="IBMPlexSans-Regular" font-size="10.00">ZHalo_swap_all</text>
</a>
</g>
</g>
<!-- Node2 -->
<g id="Node000002" class="node">
<title>Node2</title>
<g id="a_Node000002"><a xlink:href="matrices_8c.html#a3bf73559400880606e72700009446849" target="_top" xlink:title="Evaluates &#160;in double precision.">
<polygon fill="white" stroke="#666666" points="271.5,-167.25 225.5,-167.25 225.5,-148 271.5,-148 271.5,-167.25"/>
<text text-anchor="middle" x="248.5" y="-153.75" font-family="IBMPlexSans-Regular" font-size="10.00">Dslash</text>
</a>
</g>
</g>
<!-- Node1&#45;&gt;Node2 -->
<g id="edge1_Node000001_Node000002" class="edge">
<title>Node1&#45;&gt;Node2</title>
<g id="a_edge1_Node000001_Node000002"><a xlink:title=" ">
<path fill="none" stroke="#63b8ff" d="M346.59,-100.33C331.33,-112.15 309.81,-127.91 289.5,-139.62 283.96,-142.82 277.75,-145.86 271.9,-148.5"/>
<polygon fill="#63b8ff" stroke="#63b8ff" points="348.33,-103.42 354.03,-94.48 344,-97.91 348.33,-103.42"/>
</a>
</g>
</g>
<!-- Node3 -->
<g id="Node000003" class="node">
<title>Node3</title>
<g id="a_Node000003"><a xlink:href="matrices_8c.html#a4da2b8a16d0703d183947fb98a70d731" target="_top" xlink:title="Evaluates &#160;in double precision.">
<polygon fill="white" stroke="#666666" points="274.12,-130.25 222.88,-130.25 222.88,-111 274.12,-111 274.12,-130.25"/>
<text text-anchor="middle" x="248.5" y="-116.75" font-family="IBMPlexSans-Regular" font-size="10.00">Dslashd</text>
</a>
</g>
</g>
<!-- Node1&#45;&gt;Node3 -->
<g id="edge2_Node000001_Node000003" class="edge">
<title>Node1&#45;&gt;Node3</title>
<g id="a_edge2_Node000001_Node000003"><a xlink:title=" ">
<path fill="none" stroke="#63b8ff" d="M324.48,-97.09C307.71,-102.35 289.07,-108.2 274.57,-112.76"/>
<polygon fill="#63b8ff" stroke="#63b8ff" points="325.23,-100.52 333.72,-94.19 323.13,-93.84 325.23,-100.52"/>
</a>
</g>
</g>
<!-- Node4 -->
<g id="Node000004" class="node">
<title>Node4</title>
<g id="a_Node000004"><a xlink:href="matrices_8c.html#aa9c3d535a95a3dd48438717eb8d71893" target="_top" xlink:title="Evaluates &#160;in double precision.">
<polygon fill="white" stroke="#666666" points="274.5,-56.25 222.5,-56.25 222.5,-37 274.5,-37 274.5,-56.25"/>
<text text-anchor="middle" x="248.5" y="-42.75" font-family="IBMPlexSans-Regular" font-size="10.00">Hdslash</text>
</a>
</g>
</g>
<!-- Node1&#45;&gt;Node4 -->
<g id="edge3_Node000001_Node000004" class="edge">
<title>Node1&#45;&gt;Node4</title>
<g id="a_edge3_Node000001_Node000004"><a xlink:title=" ">
<path fill="none" stroke="#63b8ff" d="M324.56,-70.19C307.92,-64.96 289.42,-59.16 274.95,-54.61"/>
<polygon fill="#63b8ff" stroke="#63b8ff" points="323.13,-73.41 333.72,-73.06 325.23,-66.73 323.13,-73.41"/>
</a>
</g>
</g>
<!-- Node9 -->
<g id="Node000009" class="node">
<title>Node9</title>
<g id="a_Node000009"><a xlink:href="matrices_8c.html#afa508c94d2aca3c459021f8a4434471c" target="_top" xlink:title="Evaluates &#160;in double precision.">
<polygon fill="white" stroke="#666666" points="277.12,-19.25 219.88,-19.25 219.88,0 277.12,0 277.12,-19.25"/>
<text text-anchor="middle" x="248.5" y="-5.75" font-family="IBMPlexSans-Regular" font-size="10.00">Hdslashd</text>
</a>
</g>
</g>
<!-- Node1&#45;&gt;Node9 -->
<g id="edge11_Node000001_Node000009" class="edge">
<title>Node1&#45;&gt;Node9</title>
<g id="a_edge11_Node000001_Node000009"><a xlink:title=" ">
<path fill="none" stroke="#63b8ff" d="M346.59,-66.92C331.33,-55.1 309.81,-39.34 289.5,-27.62 284.62,-24.81 279.22,-22.12 274,-19.71"/>
<polygon fill="#63b8ff" stroke="#63b8ff" points="344,-69.34 354.03,-72.77 348.33,-63.83 344,-69.34"/>
</a>
</g>
</g>
<!-- Node10 -->
<g id="Node000010" class="node">
<title>Node10</title>
<g id="a_Node000010"><a xlink:href="par__mpi_8c.html#aa988b87ed44e79f217a03e824c9d484e" target="_top" xlink:title="Exchanges the trial fields.">
<polygon fill="white" stroke="#666666" points="289.5,-93.25 207.5,-93.25 207.5,-74 289.5,-74 289.5,-93.25"/>
<text text-anchor="middle" x="248.5" y="-79.75" font-family="IBMPlexSans-Regular" font-size="10.00">Trial_Exchange</text>
</a>
</g>
</g>
<!-- Node1&#45;&gt;Node10 -->
<g id="edge12_Node000001_Node000010" class="edge">
<title>Node1&#45;&gt;Node10</title>
<g id="a_edge12_Node000001_Node000010"><a xlink:title=" ">
<path fill="none" stroke="#63b8ff" d="M313.89,-83.62C305.81,-83.62 297.59,-83.62 289.85,-83.62"/>
<polygon fill="#63b8ff" stroke="#63b8ff" points="313.64,-87.13 323.64,-83.63 313.64,-80.13 313.64,-87.13"/>
</a>
</g>
</g>
<!-- Node5 -->
<g id="Node000005" class="node">
<title>Node5</title>
<g id="a_Node000005"><a xlink:href="force_8c.html#a40e5951024b2de0086a5f878963c6bae" target="_top" xlink:title="Calculates the force &#160;at each intermediate time.">
<polygon fill="white" stroke="#666666" points="151.25,-56.25 110.5,-56.25 110.5,-37 151.25,-37 151.25,-56.25"/>
<text text-anchor="middle" x="130.88" y="-42.75" font-family="IBMPlexSans-Regular" font-size="10.00">Force</text>
</a>
</g>
</g>
<!-- Node4&#45;&gt;Node5 -->
<g id="edge4_Node000004_Node000005" class="edge">
<title>Node4&#45;&gt;Node5</title>
<g id="a_edge4_Node000004_Node000005"><a xlink:title=" ">
<path fill="none" stroke="#63b8ff" d="M210.76,-46.62C191.09,-46.62 167.65,-46.62 151.46,-46.62"/>
<polygon fill="#63b8ff" stroke="#63b8ff" points="210.61,-50.13 220.61,-46.63 210.61,-43.13 210.61,-50.13"/>
</a>
</g>
</g>
<!-- Node6 -->
<g id="Node000006" class="node">
<title>Node6</title>
<g id="a_Node000006"><a xlink:href="integrate_8c.html#ae4e13e66dc0e7130825c11648f2ad80c" target="_top" xlink:title="Leapfrog integrator. Each trajectory step takes the form of p&#45;&gt;p+dt/2,u&#45;&gt;u+dt,p&#45;&gt;p+dt/2 In practice t...">
<polygon fill="white" stroke="#666666" points="54.25,-148.25 0,-148.25 0,-129 54.25,-129 54.25,-148.25"/>
<text text-anchor="middle" x="27.12" y="-134.75" font-family="IBMPlexSans-Regular" font-size="10.00">Leapfrog</text>
</a>
</g>
</g>
<!-- Node5&#45;&gt;Node6 -->
<g id="edge5_Node000005_Node000006" class="edge">
<title>Node5&#45;&gt;Node6</title>
<g id="a_edge5_Node000005_Node000006"><a xlink:title=" ">
<path fill="none" stroke="#63b8ff" d="M99.75,-58.03C96.36,-59.96 93.11,-62.15 90.25,-64.62 67.87,-83.98 74.83,-99.37 54.25,-120.62 51.49,-123.47 48.22,-126.14 44.94,-128.51"/>
<polygon fill="#63b8ff" stroke="#63b8ff" points="101.21,-61.21 108.67,-53.69 98.15,-54.92 101.21,-61.21"/>
</a>
</g>
</g>
<!-- Node7 -->
<g id="Node000007" class="node">
<title>Node7</title>
<g id="a_Node000007"><a xlink:href="integrate_8c.html#a44f16170b5e3c92646f2e649ee57da3d" target="_top" xlink:title="OMF integrator. Each trajectory step takes the form of p&#45;&gt;p+dt/2,u&#45;&gt;u+dt,p&#45;&gt;p+dt/2 In practice this i...">
<polygon fill="white" stroke="#666666" points="48.62,-93.25 5.62,-93.25 5.62,-74 48.62,-74 48.62,-93.25"/>
<text text-anchor="middle" x="27.12" y="-79.75" font-family="IBMPlexSans-Regular" font-size="10.00">OMF2</text>
</a>
</g>
</g>
<!-- Node5&#45;&gt;Node7 -->
<g id="edge7_Node000005_Node000007" class="edge">
<title>Node5&#45;&gt;Node7</title>
<g id="a_edge7_Node000005_Node000007"><a xlink:title=" ">
<path fill="none" stroke="#63b8ff" d="M99.63,-57.62C83.35,-63.54 63.67,-70.7 49.08,-76"/>
<polygon fill="#63b8ff" stroke="#63b8ff" points="100.63,-60.98 108.83,-54.28 98.24,-54.4 100.63,-60.98"/>
</a>
</g>
</g>
<!-- Node8 -->
<g id="Node000008" class="node">
<title>Node8</title>
<g id="a_Node000008"><a xlink:href="integrate_8c.html#a5bbed189bcdd47d814585aa7e842bb8e" target="_top" xlink:title=" ">
<polygon fill="white" stroke="#666666" points="48.62,-38.25 5.62,-38.25 5.62,-19 48.62,-19 48.62,-38.25"/>
<text text-anchor="middle" x="27.12" y="-24.75" font-family="IBMPlexSans-Regular" font-size="10.00">OMF4</text>
</a>
</g>
</g>
<!-- Node5&#45;&gt;Node8 -->
<g id="edge9_Node000005_Node000008" class="edge">
<title>Node5&#45;&gt;Node8</title>
<g id="a_edge9_Node000005_Node000008"><a xlink:title=" ">
<path fill="none" stroke="#63b8ff" d="M99.16,-41.19C82.97,-38.33 63.53,-34.89 49.08,-32.33"/>
<polygon fill="#63b8ff" stroke="#63b8ff" points="98.31,-44.6 108.77,-42.89 99.53,-37.7 98.31,-44.6"/>
</a>
</g>
</g>
<!-- Node6&#45;&gt;Node6 -->
<g id="edge6_Node000006_Node000006" class="edge">
<title>Node6&#45;&gt;Node6</title>
<g id="a_edge6_Node000006_Node000006"><a xlink:title=" ">
<path fill="none" stroke="#63b8ff" d="M45.54,-159.65C43.24,-163.53 37.1,-166.25 27.12,-166.25 8.89,-166.25 3.47,-157.15 10.88,-148.54"/>
<polygon fill="#63b8ff" stroke="#63b8ff" points="49.01,-159.17 43.66,-150.02 42.14,-160.51 49.01,-159.17"/>
</a>
</g>
</g>
<!-- Node7&#45;&gt;Node7 -->
<g id="edge8_Node000007_Node000007" class="edge">
<title>Node7&#45;&gt;Node7</title>
<g id="a_edge8_Node000007_Node000007"><a xlink:title=" ">
<path fill="none" stroke="#63b8ff" d="M45.54,-104.65C43.24,-108.53 37.1,-111.25 27.12,-111.25 8.89,-111.25 3.47,-102.15 10.88,-93.54"/>
<polygon fill="#63b8ff" stroke="#63b8ff" points="49.01,-104.17 43.66,-95.02 42.14,-105.51 49.01,-104.17"/>
</a>
</g>
</g>
<!-- Node8&#45;&gt;Node8 -->
<g id="edge10_Node000008_Node000008" class="edge">
<title>Node8&#45;&gt;Node8</title>
<g id="a_edge10_Node000008_Node000008"><a xlink:title=" ">
<path fill="none" stroke="#63b8ff" d="M45.54,-49.65C43.24,-53.53 37.1,-56.25 27.12,-56.25 8.89,-56.25 3.47,-47.15 10.88,-38.54"/>
<polygon fill="#63b8ff" stroke="#63b8ff" points="49.01,-49.17 43.66,-40.02 42.14,-50.51 49.01,-49.17"/>
</a>
</g>
</g>
<!-- Node11 -->
<g id="Node000011" class="node">
<title>Node11</title>
<g id="a_Node000011"><a xlink:href="integrate_8c.html#aad98b6e55d3f033e15cffc5b53b173ee" target="_top" xlink:title="Gauge update for the integration step of the HMC.">
<polygon fill="white" stroke="#666666" points="171.5,-130.25 90.25,-130.25 90.25,-111 171.5,-111 171.5,-130.25"/>
<text text-anchor="middle" x="130.88" y="-116.75" font-family="IBMPlexSans-Regular" font-size="10.00">Gauge_Update</text>
</a>
</g>
</g>
<!-- Node10&#45;&gt;Node11 -->
<g id="edge13_Node000010_Node000011" class="edge">
<title>Node10&#45;&gt;Node11</title>
<g id="a_edge13_Node000010_Node000011"><a xlink:title=" ">
<path fill="none" stroke="#63b8ff" d="M205.18,-97.17C191.37,-101.59 176.3,-106.41 163.43,-110.53"/>
<polygon fill="#63b8ff" stroke="#63b8ff" points="206.01,-100.58 214.46,-94.2 203.87,-93.91 206.01,-100.58"/>
</a>
</g>
</g>
<!-- Node12 -->
<g id="Node000012" class="node">
<title>Node12</title>
<g id="a_Node000012"><a xlink:href="main_8c.html#a0ddf1224851353fc92bfbff6f499fa97" target="_top" xlink:title=" ">
<polygon fill="white" stroke="#666666" points="149.38,-93.25 112.38,-93.25 112.38,-74 149.38,-74 149.38,-93.25"/>
<text text-anchor="middle" x="130.88" y="-79.75" font-family="IBMPlexSans-Regular" font-size="10.00">main</text>
</a>
</g>
</g>
<!-- Node10&#45;&gt;Node12 -->
<g id="edge18_Node000010_Node000012" class="edge">
<title>Node10&#45;&gt;Node12</title>
<g id="a_edge18_Node000010_Node000012"><a xlink:title=" ">
<path fill="none" stroke="#63b8ff" d="M195.83,-83.62C179.36,-83.62 162.21,-83.62 149.82,-83.62"/>
<polygon fill="#63b8ff" stroke="#63b8ff" points="195.55,-87.13 205.55,-83.63 195.55,-80.13 195.55,-87.13"/>
</a>
</g>
</g>
<!-- Node11&#45;&gt;Node6 -->
<g id="edge15_Node000011_Node000006" class="edge">
<title>Node11&#45;&gt;Node6</title>
<g id="a_edge15_Node000011_Node000006"><a xlink:title=" ">
<path fill="none" stroke="#63b8ff" d="M78.62,-129.69C70.26,-131.17 61.9,-132.65 54.47,-133.96"/>
<polygon fill="#63b8ff" stroke="#63b8ff" points="79.22,-133.14 88.46,-127.95 78.01,-126.25 79.22,-133.14"/>
</a>
</g>
</g>
<!-- Node11&#45;&gt;Node7 -->
<g id="edge16_Node000011_Node000007" class="edge">
<title>Node11&#45;&gt;Node7</title>
<g id="a_edge16_Node000011_Node000007"><a xlink:title=" ">
<path fill="none" stroke="#63b8ff" d="M91.45,-106.65C77.09,-101.43 61.32,-95.7 49.12,-91.26"/>
<polygon fill="#63b8ff" stroke="#63b8ff" points="90.05,-109.87 100.65,-110 92.45,-103.29 90.05,-109.87"/>
</a>
</g>
</g>
<!-- Node11&#45;&gt;Node8 -->
<g id="edge17_Node000011_Node000008" class="edge">
<title>Node11&#45;&gt;Node8</title>
<g id="a_edge17_Node000011_Node000008"><a xlink:title=" ">
<path fill="none" stroke="#63b8ff" d="M93.73,-105.08C92.53,-104.29 91.37,-103.47 90.25,-102.62 77.49,-92.94 49.19,-56.51 35.64,-38.64"/>
<polygon fill="#63b8ff" stroke="#63b8ff" points="91.62,-107.91 102.04,-109.83 95.09,-101.83 91.62,-107.91"/>
</a>
</g>
</g>
<!-- Node11&#45;&gt;Node11 -->
<g id="edge14_Node000011_Node000011" class="edge">
<title>Node11&#45;&gt;Node11</title>
<g id="a_edge14_Node000011_Node000011"><a xlink:title=" ">
<path fill="none" stroke="#63b8ff" d="M149.29,-141.65C146.99,-145.53 140.85,-148.25 130.88,-148.25 112.64,-148.25 107.22,-139.15 114.63,-130.54"/>
<polygon fill="#63b8ff" stroke="#63b8ff" points="152.76,-141.17 147.41,-132.02 145.89,-142.51 152.76,-141.17"/>
</a>
</g>
</g>
</g>
</svg>
