<?xml version="1.0" encoding="UTF-8" standalone="no"?>
<!DOCTYPE svg PUBLIC "-//W3C//DTD SVG 1.1//EN"
 "http://www.w3.org/Graphics/SVG/1.1/DTD/svg11.dtd">
<!-- Generated by graphviz version 12.2.1 (20241206.2353)
 -->
<!-- Title: INCLUDE/par_mpi.h Pages: 1 -->
<svg width="1248pt" height="304pt"
 viewBox="0.00 0.00 1248.25 303.50" xmlns="http://www.w3.org/2000/svg" xmlns:xlink="http://www.w3.org/1999/xlink">
<g id="graph0" class="graph" transform="scale(1 1) rotate(0) translate(4 299.5)">
<title>INCLUDE/par_mpi.h</title>
<!-- Node1 -->
<g id="Node000001" class="node">
<title>Node1</title>
<g id="a_Node000001"><a xlink:title="MPI headers.">
<polygon fill="#999999" stroke="#666666" points="973.5,-295.5 869,-295.5 869,-276.25 973.5,-276.25 973.5,-295.5"/>
<text text-anchor="middle" x="921.25" y="-282" font-family="IBMPlexSans-Regular" font-size="10.00">INCLUDE/par_mpi.h</text>
</a>
</g>
</g>
<!-- Node2 -->
<g id="Node000002" class="node">
<title>Node2</title>
<g id="a_Node000002"><a xlink:href="matrices_8h.html" target="_top" xlink:title="Matrix multiplication and related declarations.">
<polygon fill="white" stroke="#666666" points="370,-74.5 262.5,-74.5 262.5,-55.25 370,-55.25 370,-74.5"/>
<text text-anchor="middle" x="316.25" y="-61" font-family="IBMPlexSans-Regular" font-size="10.00">INCLUDE/matrices.h</text>
</a>
</g>
</g>
<!-- Node1&#45;&gt;Node2 -->
<g id="edge1_Node000001_Node000002" class="edge">
<title>Node1&#45;&gt;Node2</title>
<g id="a_edge1_Node000001_Node000002"><a xlink:title=" ">
<path fill="none" stroke="#63b8ff" d="M857.22,-283.32C722.98,-279.52 421.41,-267.97 384.25,-240.25 328.25,-198.48 318.35,-103.88 316.61,-74.65"/>
<polygon fill="#63b8ff" stroke="#63b8ff" points="856.91,-286.81 867,-283.59 857.1,-279.81 856.91,-286.81"/>
</a>
</g>
</g>
<!-- Node3 -->
<g id="Node000003" class="node">
<title>Node3</title>
<g id="a_Node000003"><a xlink:href="main_8c.html" target="_top" xlink:title="Hybrid Monte Carlo algorithm for Two Colour QCD with Wilson&#45;Gor&#39;kov fermions based on the algorithm o...">
<polygon fill="white" stroke="#666666" points="968.5,-19.25 924,-19.25 924,0 968.5,0 968.5,-19.25"/>
<text text-anchor="middle" x="946.25" y="-5.75" font-family="IBMPlexSans-Regular" font-size="10.00">main.c</text>
</a>
</g>
</g>
<!-- Node1&#45;&gt;Node3 -->
<g id="edge23_Node000001_Node000003" class="edge">
<title>Node1&#45;&gt;Node3</title>
<g id="a_edge23_Node000001_Node000003"><a xlink:title=" ">
<path fill="none" stroke="#63b8ff" d="M984.94,-274.48C1038.45,-261.68 1106.25,-234.08 1106.25,-176.38 1106.25,-176.38 1106.25,-176.38 1106.25,-119.12 1106.25,-53.51 1012.94,-24.84 968.83,-14.95"/>
<polygon fill="#63b8ff" stroke="#63b8ff" points="984.23,-271.05 975.25,-276.66 985.77,-277.88 984.23,-271.05"/>
</a>
</g>
</g>
<!-- Node8 -->
<g id="Node000008" class="node">
<title>Node8</title>
<g id="a_Node000008"><a xlink:href="su2hmc_8c.html" target="_top" xlink:title="An ecclectic collection of functions used in the HMC.">
<polygon fill="white" stroke="#666666" points="510.5,-19.25 394,-19.25 394,0 510.5,0 510.5,-19.25"/>
<text text-anchor="middle" x="452.25" y="-5.75" font-family="IBMPlexSans-Regular" font-size="10.00">production_c/su2hmc.c</text>
</a>
</g>
</g>
<!-- Node1&#45;&gt;Node8 -->
<g id="edge28_Node000001_Node000008" class="edge">
<title>Node1&#45;&gt;Node8</title>
<g id="a_edge28_Node000001_Node000008"><a xlink:title=" ">
<path fill="none" stroke="#63b8ff" d="M857.38,-284.89C717.86,-283.19 398.25,-269.16 398.25,-176.38 398.25,-176.38 398.25,-176.38 398.25,-119.12 398.25,-78.52 428.94,-37.47 444.05,-19.73"/>
<polygon fill="#63b8ff" stroke="#63b8ff" points="857.16,-288.38 867.19,-284.99 857.23,-281.38 857.16,-288.38"/>
</a>
</g>
</g>
<!-- Node9 -->
<g id="Node000009" class="node">
<title>Node9</title>
<g id="a_Node000009"><a xlink:href="random_8h.html" target="_top" xlink:title="Header for random number configuration.">
<polygon fill="white" stroke="#666666" points="911.38,-240.25 809.12,-240.25 809.12,-221 911.38,-221 911.38,-240.25"/>
<text text-anchor="middle" x="860.25" y="-226.75" font-family="IBMPlexSans-Regular" font-size="10.00">INCLUDE/random.h</text>
</a>
</g>
</g>
<!-- Node1&#45;&gt;Node9 -->
<g id="edge8_Node000001_Node000009" class="edge">
<title>Node1&#45;&gt;Node9</title>
<g id="a_edge8_Node000001_Node000009"><a xlink:title=" ">
<path fill="none" stroke="#63b8ff" d="M902.36,-268.39C891.83,-259.19 879.13,-248.1 870.44,-240.52"/>
<polygon fill="#63b8ff" stroke="#63b8ff" points="899.93,-270.91 909.76,-274.85 904.53,-265.63 899.93,-270.91"/>
</a>
</g>
</g>
<!-- Node12 -->
<g id="Node000012" class="node">
<title>Node12</title>
<g id="a_Node000012"><a xlink:href="bosonic_8c.html" target="_top" xlink:title="Code for bosonic observables, Basically polyakov loop and Plaquette routines.">
<polygon fill="white" stroke="#666666" points="580.12,-74.5 464.38,-74.5 464.38,-55.25 580.12,-55.25 580.12,-74.5"/>
<text text-anchor="middle" x="522.25" y="-61" font-family="IBMPlexSans-Regular" font-size="10.00">production_c/bosonic.c</text>
</a>
</g>
</g>
<!-- Node1&#45;&gt;Node12 -->
<g id="edge24_Node000001_Node000012" class="edge">
<title>Node1&#45;&gt;Node12</title>
<g id="a_edge24_Node000001_Node000012"><a xlink:title=" ">
<path fill="none" stroke="#63b8ff" d="M863.79,-273.3C803.34,-259.26 707.18,-231.5 635.25,-185 586.41,-153.43 543.65,-96.53 528.3,-74.72"/>
<polygon fill="#63b8ff" stroke="#63b8ff" points="862.65,-276.63 873.17,-275.43 864.2,-269.8 862.65,-276.63"/>
</a>
</g>
</g>
<!-- Node14 -->
<g id="Node000014" class="node">
<title>Node14</title>
<g id="a_Node000014"><a xlink:href="par__mpi_8c.html" target="_top" xlink:title="MPI routines.">
<polygon fill="white" stroke="#666666" points="1004.5,-74.5 888,-74.5 888,-55.25 1004.5,-55.25 1004.5,-74.5"/>
<text text-anchor="middle" x="946.25" y="-61" font-family="IBMPlexSans-Regular" font-size="10.00">production_c/par_mpi.c</text>
</a>
</g>
</g>
<!-- Node1&#45;&gt;Node14 -->
<g id="edge26_Node000001_Node000014" class="edge">
<title>Node1&#45;&gt;Node14</title>
<g id="a_edge26_Node000001_Node000014"><a xlink:title=" ">
<path fill="none" stroke="#63b8ff" d="M952.3,-270.94C983.33,-255.1 1029.23,-226.01 1049.25,-185 1072.58,-137.21 1001,-93.28 965.27,-74.92"/>
<polygon fill="#63b8ff" stroke="#63b8ff" points="950.8,-267.77 943.37,-275.32 953.89,-274.06 950.8,-267.77"/>
</a>
</g>
</g>
<!-- Node15 -->
<g id="Node000015" class="node">
<title>Node15</title>
<g id="a_Node000015"><a xlink:href="random_8c.html" target="_top" xlink:title="Random number generator related routines.">
<polygon fill="white" stroke="#666666" points="1040.38,-185 926.12,-185 926.12,-165.75 1040.38,-165.75 1040.38,-185"/>
<text text-anchor="middle" x="983.25" y="-171.5" font-family="IBMPlexSans-Regular" font-size="10.00">production_c/random.c</text>
</a>
</g>
</g>
<!-- Node1&#45;&gt;Node15 -->
<g id="edge27_Node000001_Node000015" class="edge">
<title>Node1&#45;&gt;Node15</title>
<g id="a_edge27_Node000001_Node000015"><a xlink:title=" ">
<path fill="none" stroke="#63b8ff" d="M931.95,-266.15C945.42,-242.58 968.01,-203.04 978.11,-185.38"/>
<polygon fill="#63b8ff" stroke="#63b8ff" points="929,-264.26 927.07,-274.68 935.07,-267.74 929,-264.26"/>
</a>
</g>
</g>
<!-- Node16 -->
<g id="Node000016" class="node">
<title>Node16</title>
<g id="a_Node000016"><a xlink:href="coord_8c.html" target="_top" xlink:title="functions for dealing with lattice and MPI coordinates">
<polygon fill="white" stroke="#666666" points="1240.25,-240.25 1134.25,-240.25 1134.25,-221 1240.25,-221 1240.25,-240.25"/>
<text text-anchor="middle" x="1187.25" y="-226.75" font-family="IBMPlexSans-Regular" font-size="10.00">production_c/coord.c</text>
</a>
</g>
</g>
<!-- Node1&#45;&gt;Node16 -->
<g id="edge25_Node000001_Node000016" class="edge">
<title>Node1&#45;&gt;Node16</title>
<g id="a_edge25_Node000001_Node000016"><a xlink:title=" ">
<path fill="none" stroke="#63b8ff" d="M977.72,-273.57C1026.69,-263.77 1096.65,-249.76 1142.01,-240.68"/>
<polygon fill="#63b8ff" stroke="#63b8ff" points="977.28,-270.09 968.16,-275.48 978.65,-276.95 977.28,-270.09"/>
</a>
</g>
</g>
<!-- Node2&#45;&gt;Node3 -->
<g id="edge2_Node000002_Node000003" class="edge">
<title>Node2&#45;&gt;Node3</title>
<g id="a_edge2_Node000002_Node000003"><a xlink:title=" ">
<path fill="none" stroke="#63b8ff" d="M381.46,-58.36C519.66,-46.68 836.47,-19.9 923.67,-12.53"/>
<polygon fill="#63b8ff" stroke="#63b8ff" points="381.41,-54.85 371.74,-59.18 382,-61.83 381.41,-54.85"/>
</a>
</g>
</g>
<!-- Node4 -->
<g id="Node000004" class="node">
<title>Node4</title>
<g id="a_Node000004"><a xlink:href="congrad_8c.html" target="_top" xlink:title="Conjugate gradients. Congradq for the solver and Congradp for the inversion.">
<polygon fill="white" stroke="#666666" points="116.5,-19.25 0,-19.25 0,0 116.5,0 116.5,-19.25"/>
<text text-anchor="middle" x="58.25" y="-5.75" font-family="IBMPlexSans-Regular" font-size="10.00">production_c/congrad.c</text>
</a>
</g>
</g>
<!-- Node2&#45;&gt;Node4 -->
<g id="edge3_Node000002_Node000004" class="edge">
<title>Node2&#45;&gt;Node4</title>
<g id="a_edge3_Node000002_Node000004"><a xlink:title=" ">
<path fill="none" stroke="#63b8ff" d="M261.18,-52.51C213.7,-42.71 146.03,-28.74 102.13,-19.68"/>
<polygon fill="#63b8ff" stroke="#63b8ff" points="260.21,-55.88 270.71,-54.48 261.62,-49.03 260.21,-55.88"/>
</a>
</g>
</g>
<!-- Node5 -->
<g id="Node000005" class="node">
<title>Node5</title>
<g id="a_Node000005"><a xlink:href="fermionic_8c.html" target="_top" xlink:title="Code for fermionic observables.">
<polygon fill="white" stroke="#666666" points="707.12,-19.25 585.38,-19.25 585.38,0 707.12,0 707.12,-19.25"/>
<text text-anchor="middle" x="646.25" y="-5.75" font-family="IBMPlexSans-Regular" font-size="10.00">production_c/fermionic.c</text>
</a>
</g>
</g>
<!-- Node2&#45;&gt;Node5 -->
<g id="edge4_Node000002_Node000005" class="edge">
<title>Node2&#45;&gt;Node5</title>
<g id="a_edge4_Node000002_Node000005"><a xlink:title=" ">
<path fill="none" stroke="#63b8ff" d="M381.38,-53.37C442.21,-43.55 532.06,-29.05 589.89,-19.72"/>
<polygon fill="#63b8ff" stroke="#63b8ff" points="381.18,-49.85 371.87,-54.9 382.3,-56.76 381.18,-49.85"/>
</a>
</g>
</g>
<!-- Node6 -->
<g id="Node000006" class="node">
<title>Node6</title>
<g id="a_Node000006"><a xlink:href="force_8c.html" target="_top" xlink:title="Code for force calculations.">
<polygon fill="white" stroke="#666666" points="238.12,-19.25 134.38,-19.25 134.38,0 238.12,0 238.12,-19.25"/>
<text text-anchor="middle" x="186.25" y="-5.75" font-family="IBMPlexSans-Regular" font-size="10.00">production_c/force.c</text>
</a>
</g>
</g>
<!-- Node2&#45;&gt;Node6 -->
<g id="edge5_Node000002_Node000006" class="edge">
<title>Node2&#45;&gt;Node6</title>
<g id="a_edge5_Node000002_Node000006"><a xlink:title=" ">
<path fill="none" stroke="#63b8ff" d="M283.68,-50.53C260.18,-40.91 229.08,-28.17 208.41,-19.7"/>
<polygon fill="#63b8ff" stroke="#63b8ff" points="282.22,-53.72 292.8,-54.27 284.87,-47.24 282.22,-53.72"/>
</a>
</g>
</g>
<!-- Node7 -->
<g id="Node000007" class="node">
<title>Node7</title>
<g id="a_Node000007"><a xlink:href="matrices_8c.html" target="_top" xlink:title="Matrix multiplication and related routines.">
<polygon fill="white" stroke="#666666" points="376,-19.25 256.5,-19.25 256.5,0 376,0 376,-19.25"/>
<text text-anchor="middle" x="316.25" y="-5.75" font-family="IBMPlexSans-Regular" font-size="10.00">production_c/matrices.c</text>
</a>
</g>
</g>
<!-- Node2&#45;&gt;Node7 -->
<g id="edge6_Node000002_Node000007" class="edge">
<title>Node2&#45;&gt;Node7</title>
<g id="a_edge6_Node000002_Node000007"><a xlink:title=" ">
<path fill="none" stroke="#63b8ff" d="M316.25,-43.63C316.25,-35.34 316.25,-26.17 316.25,-19.61"/>
<polygon fill="#63b8ff" stroke="#63b8ff" points="312.75,-43.57 316.25,-53.57 319.75,-43.57 312.75,-43.57"/>
</a>
</g>
</g>
<!-- Node2&#45;&gt;Node8 -->
<g id="edge7_Node000002_Node000008" class="edge">
<title>Node2&#45;&gt;Node8</title>
<g id="a_edge7_Node000002_Node000008"><a xlink:title=" ">
<path fill="none" stroke="#63b8ff" d="M349.99,-50.66C374.61,-41.02 407.34,-28.21 429.07,-19.7"/>
<polygon fill="#63b8ff" stroke="#63b8ff" points="348.77,-47.38 340.73,-54.29 351.32,-53.9 348.77,-47.38"/>
</a>
</g>
</g>
<!-- Node9&#45;&gt;Node3 -->
<g id="edge18_Node000009_Node000003" class="edge">
<title>Node9&#45;&gt;Node3</title>
<g id="a_edge18_Node000009_Node000003"><a xlink:title=" ">
<path fill="none" stroke="#63b8ff" d="M875.06,-212.26C886.35,-199.21 902.44,-181.04 917.25,-165.75 958.21,-123.48 990.04,-128.59 1013.25,-74.5 1023.83,-49.84 992.1,-30.17 968.75,-19.47"/>
<polygon fill="#63b8ff" stroke="#63b8ff" points="872.62,-209.73 868.76,-219.59 877.93,-214.29 872.62,-209.73"/>
</a>
</g>
</g>
<!-- Node9&#45;&gt;Node5 -->
<g id="edge19_Node000009_Node000005" class="edge">
<title>Node9&#45;&gt;Node5</title>
<g id="a_edge19_Node000009_Node000005"><a xlink:title=" ">
<path fill="none" stroke="#63b8ff" d="M859.56,-209.53C857.2,-173.41 847,-97.33 803.25,-55.25 777.72,-30.7 739.69,-19.48 707.45,-14.43"/>
<polygon fill="#63b8ff" stroke="#63b8ff" points="856.05,-209.57 860.04,-219.39 863.05,-209.23 856.05,-209.57"/>
</a>
</g>
</g>
<!-- Node9&#45;&gt;Node8 -->
<g id="edge22_Node000009_Node000008" class="edge">
<title>Node9&#45;&gt;Node8</title>
<g id="a_edge22_Node000009_Node000008"><a xlink:title=" ">
<path fill="none" stroke="#63b8ff" d="M797.43,-223.22C751.35,-217.09 687.9,-205.61 635.25,-185 547.84,-150.78 502.99,-155.32 455.25,-74.5 445.09,-57.29 447.73,-32.71 450.2,-19.62"/>
<polygon fill="#63b8ff" stroke="#63b8ff" points="796.89,-226.68 807.25,-224.47 797.78,-219.74 796.89,-226.68"/>
</a>
</g>
</g>
<!-- Node10 -->
<g id="Node000010" class="node">
<title>Node10</title>
<g id="a_Node000010"><a xlink:href="integrate_8h.html" target="_top" xlink:title="Integrators for the HMC.">
<polygon fill="white" stroke="#666666" points="752,-185 644.5,-185 644.5,-165.75 752,-165.75 752,-185"/>
<text text-anchor="middle" x="698.25" y="-171.5" font-family="IBMPlexSans-Regular" font-size="10.00">INCLUDE/integrate.h</text>
</a>
</g>
</g>
<!-- Node9&#45;&gt;Node10 -->
<g id="edge9_Node000009_Node000010" class="edge">
<title>Node9&#45;&gt;Node10</title>
<g id="a_edge9_Node000009_Node000010"><a xlink:title=" ">
<path fill="none" stroke="#63b8ff" d="M822.02,-217.06C792.49,-207.35 752.33,-194.15 725.87,-185.45"/>
<polygon fill="#63b8ff" stroke="#63b8ff" points="820.74,-220.32 831.33,-220.12 822.92,-213.67 820.74,-220.32"/>
</a>
</g>
</g>
<!-- Node9&#45;&gt;Node14 -->
<g id="edge20_Node000009_Node000014" class="edge">
<title>Node9&#45;&gt;Node14</title>
<g id="a_edge20_Node000009_Node000014"><a xlink:title=" ">
<path fill="none" stroke="#63b8ff" d="M866.54,-209.89C870.91,-197.05 877.19,-180.09 884.25,-165.75 901.56,-130.59 927.78,-91.99 939.81,-74.89"/>
<polygon fill="#63b8ff" stroke="#63b8ff" points="863.25,-208.69 863.46,-219.28 869.9,-210.87 863.25,-208.69"/>
</a>
</g>
</g>
<!-- Node9&#45;&gt;Node15 -->
<g id="edge21_Node000009_Node000015" class="edge">
<title>Node9&#45;&gt;Node15</title>
<g id="a_edge21_Node000009_Node000015"><a xlink:title=" ">
<path fill="none" stroke="#63b8ff" d="M891.67,-216.02C913.83,-206.43 942.9,-193.84 962.28,-185.45"/>
<polygon fill="#63b8ff" stroke="#63b8ff" points="890.29,-212.81 882.5,-219.99 893.07,-219.23 890.29,-212.81"/>
</a>
</g>
</g>
<!-- Node11 -->
<g id="Node000011" class="node">
<title>Node11</title>
<g id="a_Node000011"><a xlink:href="su2hmc_8h.html" target="_top" xlink:title="Function declarations for most of the routines.">
<polygon fill="white" stroke="#666666" points="739.5,-129.75 635,-129.75 635,-110.5 739.5,-110.5 739.5,-129.75"/>
<text text-anchor="middle" x="687.25" y="-116.25" font-family="IBMPlexSans-Regular" font-size="10.00">INCLUDE/su2hmc.h</text>
</a>
</g>
</g>
<!-- Node10&#45;&gt;Node11 -->
<g id="edge10_Node000010_Node000011" class="edge">
<title>Node10&#45;&gt;Node11</title>
<g id="a_edge10_Node000010_Node000011"><a xlink:title=" ">
<path fill="none" stroke="#63b8ff" d="M694.13,-154.42C692.4,-146.05 690.48,-136.75 689.11,-130.11"/>
<polygon fill="#63b8ff" stroke="#63b8ff" points="690.68,-155.01 696.13,-164.1 697.53,-153.6 690.68,-155.01"/>
</a>
</g>
</g>
<!-- Node11&#45;&gt;Node2 -->
<g id="edge11_Node000011_Node000002" class="edge">
<title>Node11&#45;&gt;Node2</title>
<g id="a_edge11_Node000011_Node000002"><a xlink:title=" ">
<path fill="none" stroke="#63b8ff" d="M623.82,-110.02C552.47,-99.78 437.79,-83.32 370.46,-73.66"/>
<polygon fill="#63b8ff" stroke="#63b8ff" points="622.99,-113.44 633.38,-111.39 623.98,-106.51 622.99,-113.44"/>
</a>
</g>
</g>
<!-- Node11&#45;&gt;Node3 -->
<g id="edge12_Node000011_Node000003" class="edge">
<title>Node11&#45;&gt;Node3</title>
<g id="a_edge12_Node000011_Node000003"><a xlink:title=" ">
<path fill="none" stroke="#63b8ff" d="M722.51,-106.11C745.6,-97.46 776.36,-85.67 803.25,-74.5 847.95,-55.94 899.62,-32.31 926.96,-19.63"/>
<polygon fill="#63b8ff" stroke="#63b8ff" points="721.4,-102.79 713.26,-109.57 723.85,-109.35 721.4,-102.79"/>
</a>
</g>
</g>
<!-- Node11&#45;&gt;Node5 -->
<g id="edge14_Node000011_Node000005" class="edge">
<title>Node11&#45;&gt;Node5</title>
<g id="a_edge14_Node000011_Node000005"><a xlink:title=" ">
<path fill="none" stroke="#63b8ff" d="M676.9,-99.93C672.95,-92.17 668.6,-83.04 665.25,-74.5 657.73,-55.33 651.48,-31.94 648.37,-19.46"/>
<polygon fill="#63b8ff" stroke="#63b8ff" points="673.79,-101.53 681.53,-108.76 679.99,-98.28 673.79,-101.53"/>
</a>
</g>
</g>
<!-- Node11&#45;&gt;Node8 -->
<g id="edge17_Node000011_Node000008" class="edge">
<title>Node11&#45;&gt;Node8</title>
<g id="a_edge17_Node000011_Node000008"><a xlink:title=" ">
<path fill="none" stroke="#63b8ff" d="M666.78,-103.48C647.58,-89.38 617.64,-68.83 589.25,-55.25 556.53,-39.6 516.92,-27.36 488.73,-19.69"/>
<polygon fill="#63b8ff" stroke="#63b8ff" points="664.46,-106.12 674.56,-109.29 668.64,-100.51 664.46,-106.12"/>
</a>
</g>
</g>
<!-- Node11&#45;&gt;Node12 -->
<g id="edge13_Node000011_Node000012" class="edge">
<title>Node11&#45;&gt;Node12</title>
<g id="a_edge13_Node000011_Node000012"><a xlink:title=" ">
<path fill="none" stroke="#63b8ff" d="M648.31,-106.56C618.24,-96.85 577.33,-83.65 550.38,-74.95"/>
<polygon fill="#63b8ff" stroke="#63b8ff" points="647.23,-109.89 657.82,-109.63 649.38,-103.22 647.23,-109.89"/>
</a>
</g>
</g>
<!-- Node13 -->
<g id="Node000013" class="node">
<title>Node13</title>
<g id="a_Node000013"><a xlink:href="integrate_8c.html" target="_top" xlink:title="Symplectic integrator code.">
<polygon fill="white" stroke="#666666" points="794,-74.5 674.5,-74.5 674.5,-55.25 794,-55.25 794,-74.5"/>
<text text-anchor="middle" x="734.25" y="-61" font-family="IBMPlexSans-Regular" font-size="10.00">production_c/integrate.c</text>
</a>
</g>
</g>
<!-- Node11&#45;&gt;Node13 -->
<g id="edge15_Node000011_Node000013" class="edge">
<title>Node11&#45;&gt;Node13</title>
<g id="a_edge15_Node000011_Node000013"><a xlink:title=" ">
<path fill="none" stroke="#63b8ff" d="M702.58,-101.76C710.5,-92.78 719.85,-82.2 726.32,-74.86"/>
<polygon fill="#63b8ff" stroke="#63b8ff" points="700.01,-99.38 696.01,-109.2 705.25,-104.02 700.01,-99.38"/>
</a>
</g>
</g>
<!-- Node11&#45;&gt;Node14 -->
<g id="edge16_Node000011_Node000014" class="edge">
<title>Node11&#45;&gt;Node14</title>
<g id="a_edge16_Node000011_Node000014"><a xlink:title=" ">
<path fill="none" stroke="#63b8ff" d="M742.53,-107.76C790.2,-97.96 858.13,-83.99 902.2,-74.93"/>
<polygon fill="#63b8ff" stroke="#63b8ff" points="742.05,-104.28 732.96,-109.73 743.46,-111.14 742.05,-104.28"/>
</a>
</g>
</g>
</g>
</svg>
