<?xml version="1.0" encoding="UTF-8" standalone="no"?>
<!DOCTYPE svg PUBLIC "-//W3C//DTD SVG 1.1//EN"
 "http://www.w3.org/Graphics/SVG/1.1/DTD/svg11.dtd">
<!-- Generated by graphviz version 11.0.0 (20240428.1522)
 -->
<!-- Title: Trial_Exchange Pages: 1 -->
<svg width="298pt" height="101pt"
 viewBox="0.00 0.00 297.50 101.25" xmlns="http://www.w3.org/2000/svg" xmlns:xlink="http://www.w3.org/1999/xlink">
<g id="graph0" class="graph" transform="scale(1 1) rotate(0) translate(4 97.25)">
<title>Trial_Exchange</title>
<!-- Node1 -->
<g id="Node000001" class="node">
<title>Node1</title>
<g id="a_Node000001"><a xlink:title="Exchanges the trial fields.">
<polygon fill="#999999" stroke="#666666" points="289.5,-37.25 207.5,-37.25 207.5,-18 289.5,-18 289.5,-37.25"/>
<text text-anchor="middle" x="248.5" y="-23.75" font-family="IBMPlexSans-Regular" font-size="10.00">Trial_Exchange</text>
</a>
</g>
</g>
<!-- Node2 -->
<g id="Node000002" class="node">
<title>Node2</title>
<g id="a_Node000002"><a xlink:href="integrate_8c.html#aad98b6e55d3f033e15cffc5b53b173ee" target="_top" xlink:title="Gauge update for the integration step of the HMC.">
<polygon fill="white" stroke="#666666" points="171.5,-56.25 90.25,-56.25 90.25,-37 171.5,-37 171.5,-56.25"/>
<text text-anchor="middle" x="130.88" y="-42.75" font-family="IBMPlexSans-Regular" font-size="10.00">Gauge_Update</text>
</a>
</g>
</g>
<!-- Node1&#45;&gt;Node2 -->
<g id="edge1_Node000001_Node000002" class="edge">
<title>Node1&#45;&gt;Node2</title>
<g id="a_edge1_Node000001_Node000002"><a xlink:title=" ">
<path fill="none" stroke="#63b8ff" d="M195.8,-36.12C187.72,-37.45 179.47,-38.8 171.71,-40.08"/>
<polygon fill="#63b8ff" stroke="#63b8ff" points="196.27,-39.59 205.57,-34.52 195.13,-32.68 196.27,-39.59"/>
</a>
</g>
</g>
<!-- Node6 -->
<g id="Node000006" class="node">
<title>Node6</title>
<g id="a_Node000006"><a xlink:href="main_8c.html#a0ddf1224851353fc92bfbff6f499fa97" target="_top" xlink:title=" ">
<polygon fill="white" stroke="#666666" points="149.38,-19.25 112.38,-19.25 112.38,0 149.38,0 149.38,-19.25"/>
<text text-anchor="middle" x="130.88" y="-5.75" font-family="IBMPlexSans-Regular" font-size="10.00">main</text>
</a>
</g>
</g>
<!-- Node1&#45;&gt;Node6 -->
<g id="edge5_Node000001_Node000006" class="edge">
<title>Node1&#45;&gt;Node6</title>
<g id="a_edge5_Node000001_Node000006"><a xlink:title=" ">
<path fill="none" stroke="#63b8ff" d="M195.83,-19.58C179.36,-17.02 162.21,-14.35 149.82,-12.42"/>
<polygon fill="#63b8ff" stroke="#63b8ff" points="195.15,-23.02 205.56,-21.1 196.22,-16.1 195.15,-23.02"/>
</a>
</g>
</g>
<!-- Node3 -->
<g id="Node000003" class="node">
<title>Node3</title>
<g id="a_Node000003"><a xlink:href="integrate_8c.html#ae4e13e66dc0e7130825c11648f2ad80c" target="_top" xlink:title="Leapfrog integrator. Each trajectory step takes the form of p&#45;&gt;p+dt/2,u&#45;&gt;u+dt,p&#45;&gt;p+dt/2 In practice t...">
<polygon fill="white" stroke="#666666" points="54.25,-93.25 0,-93.25 0,-74 54.25,-74 54.25,-93.25"/>
<text text-anchor="middle" x="27.12" y="-79.75" font-family="IBMPlexSans-Regular" font-size="10.00">Leapfrog</text>
</a>
</g>
</g>
<!-- Node2&#45;&gt;Node3 -->
<g id="edge2_Node000002_Node000003" class="edge">
<title>Node2&#45;&gt;Node3</title>
<g id="a_edge2_Node000002_Node000003"><a xlink:title=" ">
<path fill="none" stroke="#63b8ff" d="M91.56,-60.56C79.2,-65.05 65.79,-69.93 54.49,-74.04"/>
<polygon fill="#63b8ff" stroke="#63b8ff" points="92.45,-63.96 100.65,-57.25 90.05,-57.38 92.45,-63.96"/>
</a>
</g>
</g>
<!-- Node4 -->
<g id="Node000004" class="node">
<title>Node4</title>
<g id="a_Node000004"><a xlink:href="integrate_8c.html#a44f16170b5e3c92646f2e649ee57da3d" target="_top" xlink:title="OMF integrator. Each trajectory step takes the form of p&#45;&gt;p+dt/2,u&#45;&gt;u+dt,p&#45;&gt;p+dt/2 In practice this i...">
<polygon fill="white" stroke="#666666" points="48.62,-56.25 5.62,-56.25 5.62,-37 48.62,-37 48.62,-56.25"/>
<text text-anchor="middle" x="27.12" y="-42.75" font-family="IBMPlexSans-Regular" font-size="10.00">OMF2</text>
</a>
</g>
</g>
<!-- Node2&#45;&gt;Node4 -->
<g id="edge3_Node000002_Node000004" class="edge">
<title>Node2&#45;&gt;Node4</title>
<g id="a_edge3_Node000002_Node000004"><a xlink:title=" ">
<path fill="none" stroke="#63b8ff" d="M78.61,-46.62C68.09,-46.62 57.59,-46.62 48.91,-46.62"/>
<polygon fill="#63b8ff" stroke="#63b8ff" points="78.44,-50.13 88.44,-46.63 78.44,-43.13 78.44,-50.13"/>
</a>
</g>
</g>
<!-- Node5 -->
<g id="Node000005" class="node">
<title>Node5</title>
<g id="a_Node000005"><a xlink:href="integrate_8c.html#a5bbed189bcdd47d814585aa7e842bb8e" target="_top" xlink:title=" ">
<polygon fill="white" stroke="#666666" points="48.62,-19.25 5.62,-19.25 5.62,0 48.62,0 48.62,-19.25"/>
<text text-anchor="middle" x="27.12" y="-5.75" font-family="IBMPlexSans-Regular" font-size="10.00">OMF4</text>
</a>
</g>
</g>
<!-- Node2&#45;&gt;Node5 -->
<g id="edge4_Node000002_Node000005" class="edge">
<title>Node2&#45;&gt;Node5</title>
<g id="a_edge4_Node000002_Node000005"><a xlink:title=" ">
<path fill="none" stroke="#63b8ff" d="M91.45,-32.65C77.09,-27.43 61.32,-21.7 49.12,-17.26"/>
<polygon fill="#63b8ff" stroke="#63b8ff" points="90.05,-35.87 100.65,-36 92.45,-29.29 90.05,-35.87"/>
</a>
</g>
</g>
</g>
</svg>
