<?xml version="1.0" encoding="UTF-8" standalone="no"?>
<!DOCTYPE svg PUBLIC "-//W3C//DTD SVG 1.1//EN"
 "http://www.w3.org/Graphics/SVG/1.1/DTD/svg11.dtd">
<!-- Generated by graphviz version 12.1.2 (20240928.0832)
 -->
<!-- Title: Par_dcopy Pages: 1 -->
<svg width="174pt" height="64pt"
 viewBox="0.00 0.00 174.25 64.25" xmlns="http://www.w3.org/2000/svg" xmlns:xlink="http://www.w3.org/1999/xlink">
<g id="graph0" class="graph" transform="scale(1 1) rotate(0) translate(4 60.25)">
<title>Par_dcopy</title>
<!-- Node1 -->
<g id="Node000001" class="node">
<title>Node1</title>
<g id="a_Node000001"><a xlink:title="Broadcasts a double to the other processes.">
<polygon fill="#999999" stroke="#666666" points="166.25,-37.25 104.5,-37.25 104.5,-18 166.25,-18 166.25,-37.25"/>
<text text-anchor="middle" x="135.38" y="-23.75" font-family="IBMPlexSans-Regular" font-size="10.00">Par_dcopy</text>
</a>
</g>
</g>
<!-- Node2 -->
<g id="Node000002" class="node">
<title>Node2</title>
<g id="a_Node000002"><a xlink:href="random_8c.html#af30389dbea7d2b366abea7a923bb008d" target="_top" xlink:title="Generates a random double which is then sent to the other ranks.">
<polygon fill="white" stroke="#666666" points="63.25,-56.25 5.25,-56.25 5.25,-37 63.25,-37 63.25,-56.25"/>
<text text-anchor="middle" x="34.25" y="-42.75" font-family="IBMPlexSans-Regular" font-size="10.00">Par_granf</text>
</a>
</g>
</g>
<!-- Node1&#45;&gt;Node2 -->
<g id="edge1_Node000001_Node000002" class="edge">
<title>Node1&#45;&gt;Node2</title>
<g id="a_edge1_Node000001_Node000002"><a xlink:title=" ">
<path fill="none" stroke="#63b8ff" d="M92.85,-35.58C83.01,-37.47 72.75,-39.44 63.65,-41.18"/>
<polygon fill="#63b8ff" stroke="#63b8ff" points="93.45,-39.03 102.61,-33.71 92.13,-32.16 93.45,-39.03"/>
</a>
</g>
</g>
<!-- Node3 -->
<g id="Node000003" class="node">
<title>Node3</title>
<g id="a_Node000003"><a xlink:href="random_8c.html#a328653cc438367219bad89a935958108" target="_top" xlink:title="Reads ps from a file Since this function is very similar to Par_sread, I&#39;m not really going to commen...">
<polygon fill="white" stroke="#666666" points="68.5,-19.25 0,-19.25 0,0 68.5,0 68.5,-19.25"/>
<text text-anchor="middle" x="34.25" y="-5.75" font-family="IBMPlexSans-Regular" font-size="10.00">Par_ranread</text>
</a>
</g>
</g>
<!-- Node1&#45;&gt;Node3 -->
<g id="edge2_Node000001_Node000003" class="edge">
<title>Node1&#45;&gt;Node3</title>
<g id="a_edge2_Node000001_Node000003"><a xlink:title=" ">
<path fill="none" stroke="#63b8ff" d="M92.99,-20.11C84.93,-18.65 76.57,-17.13 68.8,-15.72"/>
<polygon fill="#63b8ff" stroke="#63b8ff" points="92.14,-23.51 102.61,-21.86 93.39,-16.63 92.14,-23.51"/>
</a>
</g>
</g>
</g>
</svg>
