<?xml version="1.0" encoding="UTF-8" standalone="no"?>
<!DOCTYPE svg PUBLIC "-//W3C//DTD SVG 1.1//EN"
 "http://www.w3.org/Graphics/SVG/1.1/DTD/svg11.dtd">
<!-- Generated by graphviz version 12.2.1 (20241206.2353)
 -->
<!-- Title: DHalo_swap_dir Pages: 1 -->
<svg width="234pt" height="27pt"
 viewBox="0.00 0.00 233.75 27.25" xmlns="http://www.w3.org/2000/svg" xmlns:xlink="http://www.w3.org/1999/xlink">
<g id="graph0" class="graph" transform="scale(1 1) rotate(0) translate(4 23.25)">
<title>DHalo_swap_dir</title>
<!-- Node1 -->
<g id="Node000001" class="node">
<title>Node1</title>
<g id="a_Node000001"><a xlink:title="Swaps the halos along the axis given by idir in the direction given by layer.">
<polygon fill="#999999" stroke="#666666" points="225.75,-19.25 138.5,-19.25 138.5,0 225.75,0 225.75,-19.25"/>
<text text-anchor="middle" x="182.12" y="-5.75" font-family="IBMPlexSans-Regular" font-size="10.00">DHalo_swap_dir</text>
</a>
</g>
</g>
<!-- Node2 -->
<g id="Node000002" class="node">
<title>Node2</title>
<g id="a_Node000002"><a xlink:href="su2hmc_8c.html#a84f252348f913fcc70ce5de0aab6f8bf" target="_top" xlink:title="Initialises the system.">
<polygon fill="white" stroke="#666666" points="102.5,-19.25 73,-19.25 73,0 102.5,0 102.5,-19.25"/>
<text text-anchor="middle" x="87.75" y="-5.75" font-family="IBMPlexSans-Regular" font-size="10.00">Init</text>
</a>
</g>
</g>
<!-- Node1&#45;&gt;Node2 -->
<g id="edge1_Node000001_Node000002" class="edge">
<title>Node1&#45;&gt;Node2</title>
<g id="a_edge1_Node000001_Node000002"><a xlink:title=" ">
<path fill="none" stroke="#63b8ff" d="M126.78,-9.62C117.88,-9.62 109.39,-9.62 102.7,-9.62"/>
<polygon fill="#63b8ff" stroke="#63b8ff" points="126.67,-13.13 136.67,-9.63 126.67,-6.13 126.67,-13.13"/>
</a>
</g>
</g>
<!-- Node3 -->
<g id="Node000003" class="node">
<title>Node3</title>
<g id="a_Node000003"><a xlink:href="main_8c.html#a0ddf1224851353fc92bfbff6f499fa97" target="_top" xlink:title=" ">
<polygon fill="white" stroke="#666666" points="37,-19.25 0,-19.25 0,0 37,0 37,-19.25"/>
<text text-anchor="middle" x="18.5" y="-5.75" font-family="IBMPlexSans-Regular" font-size="10.00">main</text>
</a>
</g>
</g>
<!-- Node2&#45;&gt;Node3 -->
<g id="edge2_Node000002_Node000003" class="edge">
<title>Node2&#45;&gt;Node3</title>
<g id="a_edge2_Node000002_Node000003"><a xlink:title=" ">
<path fill="none" stroke="#63b8ff" d="M61.39,-9.62C53.35,-9.62 44.64,-9.62 37.26,-9.62"/>
<polygon fill="#63b8ff" stroke="#63b8ff" points="61.3,-13.13 71.3,-9.63 61.3,-6.13 61.3,-13.13"/>
</a>
</g>
</g>
</g>
</svg>
