<?xml version="1.0" encoding="UTF-8" standalone="no"?>
<!DOCTYPE svg PUBLIC "-//W3C//DTD SVG 1.1//EN"
 "http://www.w3.org/Graphics/SVG/1.1/DTD/svg11.dtd">
<!-- Generated by graphviz version 12.1.2 (20240928.0832)
 -->
<!-- Title: ZHalo_swap_dir Pages: 1 -->
<svg width="274pt" height="155pt"
 viewBox="0.00 0.00 274.25 155.25" xmlns="http://www.w3.org/2000/svg" xmlns:xlink="http://www.w3.org/1999/xlink">
<g id="graph0" class="graph" transform="scale(1 1) rotate(0) translate(4 151.25)">
<title>ZHalo_swap_dir</title>
<!-- Node1 -->
<g id="Node000001" class="node">
<title>Node1</title>
<g id="a_Node000001"><a xlink:title="Swaps the halos along the axis given by idir in the direction given by layer.">
<polygon fill="#999999" stroke="#666666" points="266.25,-55.25 179.75,-55.25 179.75,-36 266.25,-36 266.25,-55.25"/>
<text text-anchor="middle" x="223" y="-41.75" font-family="IBMPlexSans-Regular" font-size="10.00">ZHalo_swap_dir</text>
</a>
</g>
</g>
<!-- Node2 -->
<g id="Node000002" class="node">
<title>Node2</title>
<g id="a_Node000002"><a xlink:href="force_8c.html#a40e5951024b2de0086a5f878963c6bae" target="_top" xlink:title="Calculates the force &#160;at each intermediate time.">
<polygon fill="white" stroke="#666666" points="137.38,-74.25 96.62,-74.25 96.62,-55 137.38,-55 137.38,-74.25"/>
<text text-anchor="middle" x="117" y="-60.75" font-family="IBMPlexSans-Regular" font-size="10.00">Force</text>
</a>
</g>
</g>
<!-- Node1&#45;&gt;Node2 -->
<g id="edge1_Node000001_Node000002" class="edge">
<title>Node1&#45;&gt;Node2</title>
<g id="a_edge1_Node000001_Node000002"><a xlink:title=" ">
<path fill="none" stroke="#63b8ff" d="M168.09,-55.47C157.19,-57.47 146.41,-59.44 137.65,-61.03"/>
<polygon fill="#63b8ff" stroke="#63b8ff" points="168.7,-58.92 177.91,-53.68 167.44,-52.03 168.7,-58.92"/>
</a>
</g>
</g>
<!-- Node6 -->
<g id="Node000006" class="node">
<title>Node6</title>
<g id="a_Node000006"><a xlink:href="fermionic_8c.html#a38464140ca960a533faa9e49b6ee6131" target="_top" xlink:title="Calculate fermion expectation values via a noisy estimator.">
<polygon fill="white" stroke="#666666" points="143.75,-37.25 90.25,-37.25 90.25,-18 143.75,-18 143.75,-37.25"/>
<text text-anchor="middle" x="117" y="-23.75" font-family="IBMPlexSans-Regular" font-size="10.00">Measure</text>
</a>
</g>
</g>
<!-- Node1&#45;&gt;Node6 -->
<g id="edge8_Node000001_Node000006" class="edge">
<title>Node1&#45;&gt;Node6</title>
<g id="a_edge8_Node000001_Node000006"><a xlink:title=" ">
<path fill="none" stroke="#63b8ff" d="M168.31,-36.33C159.84,-34.87 151.44,-33.41 143.99,-32.12"/>
<polygon fill="#63b8ff" stroke="#63b8ff" points="167.46,-39.74 177.91,-37.99 168.65,-32.84 167.46,-39.74"/>
</a>
</g>
</g>
<!-- Node3 -->
<g id="Node000003" class="node">
<title>Node3</title>
<g id="a_Node000003"><a xlink:href="integrate_8c.html#ae4e13e66dc0e7130825c11648f2ad80c" target="_top" xlink:title="Leapfrog integrator. Each trajectory step takes the form of p&#45;&gt;p+dt/2,u&#45;&gt;u+dt,p&#45;&gt;p+dt/2 In practice t...">
<polygon fill="white" stroke="#666666" points="54.25,-129.25 0,-129.25 0,-110 54.25,-110 54.25,-129.25"/>
<text text-anchor="middle" x="27.12" y="-115.75" font-family="IBMPlexSans-Regular" font-size="10.00">Leapfrog</text>
</a>
</g>
</g>
<!-- Node2&#45;&gt;Node3 -->
<g id="edge2_Node000002_Node000003" class="edge">
<title>Node2&#45;&gt;Node3</title>
<g id="a_edge2_Node000002_Node000003"><a xlink:title=" ">
<path fill="none" stroke="#63b8ff" d="M90.21,-80.77C75.29,-90.1 56.99,-101.56 44.14,-109.6"/>
<polygon fill="#63b8ff" stroke="#63b8ff" points="91.98,-83.79 98.6,-75.52 88.27,-77.85 91.98,-83.79"/>
</a>
</g>
</g>
<!-- Node4 -->
<g id="Node000004" class="node">
<title>Node4</title>
<g id="a_Node000004"><a xlink:href="integrate_8c.html#a44f16170b5e3c92646f2e649ee57da3d" target="_top" xlink:title="OMF integrator. Each trajectory step takes the form of p&#45;&gt;p+dt/2,u&#45;&gt;u+dt,p&#45;&gt;p+dt/2 In practice this i...">
<polygon fill="white" stroke="#666666" points="48.62,-74.25 5.62,-74.25 5.62,-55 48.62,-55 48.62,-74.25"/>
<text text-anchor="middle" x="27.12" y="-60.75" font-family="IBMPlexSans-Regular" font-size="10.00">OMF2</text>
</a>
</g>
</g>
<!-- Node2&#45;&gt;Node4 -->
<g id="edge4_Node000002_Node000004" class="edge">
<title>Node2&#45;&gt;Node4</title>
<g id="a_edge4_Node000002_Node000004"><a xlink:title=" ">
<path fill="none" stroke="#63b8ff" d="M85.19,-64.62C73.25,-64.62 59.9,-64.62 49.11,-64.62"/>
<polygon fill="#63b8ff" stroke="#63b8ff" points="84.98,-68.13 94.98,-64.63 84.98,-61.13 84.98,-68.13"/>
</a>
</g>
</g>
<!-- Node5 -->
<g id="Node000005" class="node">
<title>Node5</title>
<g id="a_Node000005"><a xlink:href="integrate_8c.html#a5bbed189bcdd47d814585aa7e842bb8e" target="_top" xlink:title=" ">
<polygon fill="white" stroke="#666666" points="48.62,-19.25 5.62,-19.25 5.62,0 48.62,0 48.62,-19.25"/>
<text text-anchor="middle" x="27.12" y="-5.75" font-family="IBMPlexSans-Regular" font-size="10.00">OMF4</text>
</a>
</g>
</g>
<!-- Node2&#45;&gt;Node5 -->
<g id="edge6_Node000002_Node000005" class="edge">
<title>Node2&#45;&gt;Node5</title>
<g id="a_edge6_Node000002_Node000005"><a xlink:title=" ">
<path fill="none" stroke="#63b8ff" d="M90.21,-48.48C75.29,-39.15 56.99,-27.69 44.14,-19.65"/>
<polygon fill="#63b8ff" stroke="#63b8ff" points="88.27,-51.4 98.6,-53.73 91.98,-45.46 88.27,-51.4"/>
</a>
</g>
</g>
<!-- Node3&#45;&gt;Node3 -->
<g id="edge3_Node000003_Node000003" class="edge">
<title>Node3&#45;&gt;Node3</title>
<g id="a_edge3_Node000003_Node000003"><a xlink:title=" ">
<path fill="none" stroke="#63b8ff" d="M43.08,-140.65C41.08,-144.53 35.76,-147.25 27.12,-147.25 11.33,-147.25 6.64,-138.15 13.05,-129.54"/>
<polygon fill="#63b8ff" stroke="#63b8ff" points="46.57,-140.31 41.45,-131.03 39.67,-141.47 46.57,-140.31"/>
</a>
</g>
</g>
<!-- Node4&#45;&gt;Node4 -->
<g id="edge5_Node000004_Node000004" class="edge">
<title>Node4&#45;&gt;Node4</title>
<g id="a_edge5_Node000004_Node000004"><a xlink:title=" ">
<path fill="none" stroke="#63b8ff" d="M43.08,-85.65C41.08,-89.53 35.76,-92.25 27.12,-92.25 11.33,-92.25 6.64,-83.15 13.05,-74.54"/>
<polygon fill="#63b8ff" stroke="#63b8ff" points="46.57,-85.31 41.45,-76.03 39.67,-86.47 46.57,-85.31"/>
</a>
</g>
</g>
<!-- Node5&#45;&gt;Node5 -->
<g id="edge7_Node000005_Node000005" class="edge">
<title>Node5&#45;&gt;Node5</title>
<g id="a_edge7_Node000005_Node000005"><a xlink:title=" ">
<path fill="none" stroke="#63b8ff" d="M43.08,-30.65C41.08,-34.53 35.76,-37.25 27.12,-37.25 11.33,-37.25 6.64,-28.15 13.05,-19.54"/>
<polygon fill="#63b8ff" stroke="#63b8ff" points="46.57,-30.31 41.45,-21.03 39.67,-31.47 46.57,-30.31"/>
</a>
</g>
</g>
</g>
</svg>
