<?xml version="1.0" encoding="UTF-8" standalone="no"?>
<!DOCTYPE svg PUBLIC "-//W3C//DTD SVG 1.1//EN"
 "http://www.w3.org/Graphics/SVG/1.1/DTD/svg11.dtd">
<!-- Generated by graphviz version 12.2.1 (20241206.2353)
 -->
<!-- Title: Par_fsum Pages: 1 -->
<svg width="414pt" height="148pt"
 viewBox="0.00 0.00 413.50 148.25" xmlns="http://www.w3.org/2000/svg" xmlns:xlink="http://www.w3.org/1999/xlink">
<g id="graph0" class="graph" transform="scale(1 1) rotate(0) translate(4 144.25)">
<title>Par_fsum</title>
<!-- Node1 -->
<g id="Node000001" class="node">
<title>Node1</title>
<g id="a_Node000001"><a xlink:title="Performs a reduction on a float dval to get a sum which is then distributed to all ranks.">
<polygon fill="#999999" stroke="#666666" points="405.5,-93.25 347.5,-93.25 347.5,-74 405.5,-74 405.5,-93.25"/>
<text text-anchor="middle" x="376.5" y="-79.75" font-family="IBMPlexSans-Regular" font-size="10.00">Par_fsum</text>
</a>
</g>
</g>
<!-- Node2 -->
<g id="Node000002" class="node">
<title>Node2</title>
<g id="a_Node000002"><a xlink:href="congrad_8c.html#aa3fde21d836b340202ca6b18bead4510" target="_top" xlink:title="Matrix Inversion via Conjugate Gradient (no up/down flavour partitioning). Solves &#160;The matrix multipl...">
<polygon fill="white" stroke="#666666" points="311.5,-121.25 254.25,-121.25 254.25,-102 311.5,-102 311.5,-121.25"/>
<text text-anchor="middle" x="282.88" y="-107.75" font-family="IBMPlexSans-Regular" font-size="10.00">Congradp</text>
</a>
</g>
</g>
<!-- Node1&#45;&gt;Node2 -->
<g id="edge1_Node000001_Node000002" class="edge">
<title>Node1&#45;&gt;Node2</title>
<g id="a_edge1_Node000001_Node000002"><a xlink:title=" ">
<path fill="none" stroke="#63b8ff" d="M336.1,-95.67C327.89,-98.17 319.4,-100.77 311.72,-103.12"/>
<polygon fill="#63b8ff" stroke="#63b8ff" points="337.02,-99.04 345.56,-92.77 334.98,-92.35 337.02,-99.04"/>
</a>
</g>
</g>
<!-- Node5 -->
<g id="Node000005" class="node">
<title>Node5</title>
<g id="a_Node000005"><a xlink:href="congrad_8c.html#a4b97a088fd74bb3b25ce4f965dc26281" target="_top" xlink:title="Matrix Inversion via Conjugate Gradient (up/down flavour partitioning). Solves &#160;Implements up/down pa...">
<polygon fill="white" stroke="#666666" points="311.5,-75.25 254.25,-75.25 254.25,-56 311.5,-56 311.5,-75.25"/>
<text text-anchor="middle" x="282.88" y="-61.75" font-family="IBMPlexSans-Regular" font-size="10.00">Congradq</text>
</a>
</g>
</g>
<!-- Node1&#45;&gt;Node5 -->
<g id="edge4_Node000001_Node000005" class="edge">
<title>Node1&#45;&gt;Node5</title>
<g id="a_edge4_Node000001_Node000005"><a xlink:title=" ">
<path fill="none" stroke="#63b8ff" d="M335.82,-75.83C327.7,-74.23 319.31,-72.59 311.72,-71.09"/>
<polygon fill="#63b8ff" stroke="#63b8ff" points="335.04,-79.24 345.53,-77.74 336.39,-72.37 335.04,-79.24"/>
</a>
</g>
</g>
<!-- Node3 -->
<g id="Node000003" class="node">
<title>Node3</title>
<g id="a_Node000003"><a xlink:href="fermionic_8c.html#a4f76ed3be4902e11205760b4222665c8" target="_top" xlink:title="Calculate fermion expectation values via a noisy estimator.">
<polygon fill="white" stroke="#666666" points="217.5,-140.25 164,-140.25 164,-121 217.5,-121 217.5,-140.25"/>
<text text-anchor="middle" x="190.75" y="-126.75" font-family="IBMPlexSans-Regular" font-size="10.00">Measure</text>
</a>
</g>
</g>
<!-- Node2&#45;&gt;Node3 -->
<g id="edge2_Node000002_Node000003" class="edge">
<title>Node2&#45;&gt;Node3</title>
<g id="a_edge2_Node000002_Node000003"><a xlink:title=" ">
<path fill="none" stroke="#63b8ff" d="M242.7,-119.88C234.32,-121.65 225.66,-123.48 217.91,-125.11"/>
<polygon fill="#63b8ff" stroke="#63b8ff" points="243.31,-123.33 252.37,-117.84 241.86,-116.48 243.31,-123.33"/>
</a>
</g>
</g>
<!-- Node4 -->
<g id="Node000004" class="node">
<title>Node4</title>
<g id="a_Node000004"><a xlink:href="main_8c.html#a0ddf1224851353fc92bfbff6f499fa97" target="_top" xlink:title=" ">
<polygon fill="white" stroke="#666666" points="37,-75.25 0,-75.25 0,-56 37,-56 37,-75.25"/>
<text text-anchor="middle" x="18.5" y="-61.75" font-family="IBMPlexSans-Regular" font-size="10.00">main</text>
</a>
</g>
</g>
<!-- Node3&#45;&gt;Node4 -->
<g id="edge3_Node000003_Node000004" class="edge">
<title>Node3&#45;&gt;Node4</title>
<g id="a_edge3_Node000003_Node000004"><a xlink:title=" ">
<path fill="none" stroke="#63b8ff" d="M152.41,-134.38C128.59,-135.22 97.67,-133.32 73,-121.62 51.62,-111.49 34.35,-88.82 25.64,-75.64"/>
<polygon fill="#63b8ff" stroke="#63b8ff" points="152.51,-137.88 162.3,-133.84 152.13,-130.89 152.51,-137.88"/>
</a>
</g>
</g>
<!-- Node6 -->
<g id="Node000006" class="node">
<title>Node6</title>
<g id="a_Node000006"><a xlink:href="force_8c.html#a98a5926c20124e0cea060ad1e47ff3de" target="_top" xlink:title="Calculates the force &#160;at each intermediate time.">
<polygon fill="white" stroke="#666666" points="211.12,-75.25 170.38,-75.25 170.38,-56 211.12,-56 211.12,-75.25"/>
<text text-anchor="middle" x="190.75" y="-61.75" font-family="IBMPlexSans-Regular" font-size="10.00">Force</text>
</a>
</g>
</g>
<!-- Node5&#45;&gt;Node6 -->
<g id="edge5_Node000005_Node000006" class="edge">
<title>Node5&#45;&gt;Node6</title>
<g id="a_edge5_Node000005_Node000006"><a xlink:title=" ">
<path fill="none" stroke="#63b8ff" d="M242.49,-65.62C231.76,-65.62 220.58,-65.62 211.46,-65.62"/>
<polygon fill="#63b8ff" stroke="#63b8ff" points="242.34,-69.13 252.34,-65.63 242.34,-62.13 242.34,-69.13"/>
</a>
</g>
</g>
<!-- Node10 -->
<g id="Node000010" class="node">
<title>Node10</title>
<g id="a_Node000010"><a xlink:href="su2hmc_8c.html#aad654cdd6107120818d5485ce1620d81" target="_top" xlink:title="Calculate the Hamiltonian.">
<polygon fill="white" stroke="#666666" points="218.25,-19.25 163.25,-19.25 163.25,0 218.25,0 218.25,-19.25"/>
<text text-anchor="middle" x="190.75" y="-5.75" font-family="IBMPlexSans-Regular" font-size="10.00">Hamilton</text>
</a>
</g>
</g>
<!-- Node5&#45;&gt;Node10 -->
<g id="edge12_Node000005_Node000010" class="edge">
<title>Node5&#45;&gt;Node10</title>
<g id="a_edge12_Node000005_Node000010"><a xlink:title=" ">
<path fill="none" stroke="#63b8ff" d="M256.23,-49.69C240.73,-40.06 221.45,-28.08 208.03,-19.74"/>
<polygon fill="#63b8ff" stroke="#63b8ff" points="254.14,-52.51 264.48,-54.81 257.83,-46.56 254.14,-52.51"/>
</a>
</g>
</g>
<!-- Node7 -->
<g id="Node000007" class="node">
<title>Node7</title>
<g id="a_Node000007"><a xlink:href="integrate_8c.html#a4d7f64e9f3e98a2953d707f18742d110" target="_top" xlink:title="Leapfrog integrator. Each trajectory step takes the form of p&#45;&gt;p+dt/2,u&#45;&gt;u+dt,p&#45;&gt;p+dt/2 In practice t...">
<polygon fill="white" stroke="#666666" points="127.25,-112.25 73,-112.25 73,-93 127.25,-93 127.25,-112.25"/>
<text text-anchor="middle" x="100.12" y="-98.75" font-family="IBMPlexSans-Regular" font-size="10.00">Leapfrog</text>
</a>
</g>
</g>
<!-- Node6&#45;&gt;Node7 -->
<g id="edge6_Node000006_Node000007" class="edge">
<title>Node6&#45;&gt;Node7</title>
<g id="a_edge6_Node000006_Node000007"><a xlink:title=" ">
<path fill="none" stroke="#63b8ff" d="M159.8,-78.13C148.51,-82.84 135.84,-88.13 125.16,-92.59"/>
<polygon fill="#63b8ff" stroke="#63b8ff" points="160.8,-81.5 168.68,-74.42 158.11,-75.04 160.8,-81.5"/>
</a>
</g>
</g>
<!-- Node8 -->
<g id="Node000008" class="node">
<title>Node8</title>
<g id="a_Node000008"><a xlink:href="integrate_8c.html#a33907d89c4a0709fcf809773de68c3a2" target="_top" xlink:title="OMF second order five step integrator.">
<polygon fill="white" stroke="#666666" points="121.62,-75.25 78.62,-75.25 78.62,-56 121.62,-56 121.62,-75.25"/>
<text text-anchor="middle" x="100.12" y="-61.75" font-family="IBMPlexSans-Regular" font-size="10.00">OMF2</text>
</a>
</g>
</g>
<!-- Node6&#45;&gt;Node8 -->
<g id="edge8_Node000006_Node000008" class="edge">
<title>Node6&#45;&gt;Node8</title>
<g id="a_edge8_Node000006_Node000008"><a xlink:title=" ">
<path fill="none" stroke="#63b8ff" d="M158.59,-65.62C146.46,-65.62 132.88,-65.62 121.97,-65.62"/>
<polygon fill="#63b8ff" stroke="#63b8ff" points="158.57,-69.13 168.57,-65.63 158.57,-62.13 158.57,-69.13"/>
</a>
</g>
</g>
<!-- Node9 -->
<g id="Node000009" class="node">
<title>Node9</title>
<g id="a_Node000009"><a xlink:href="integrate_8c.html#a4e6abc4e61c0131df30fb683569e5d00" target="_top" xlink:title="OMF fourth order eleven step integrator.">
<polygon fill="white" stroke="#666666" points="121.62,-38.25 78.62,-38.25 78.62,-19 121.62,-19 121.62,-38.25"/>
<text text-anchor="middle" x="100.12" y="-24.75" font-family="IBMPlexSans-Regular" font-size="10.00">OMF4</text>
</a>
</g>
</g>
<!-- Node6&#45;&gt;Node9 -->
<g id="edge10_Node000006_Node000009" class="edge">
<title>Node6&#45;&gt;Node9</title>
<g id="a_edge10_Node000006_Node000009"><a xlink:title=" ">
<path fill="none" stroke="#63b8ff" d="M159.72,-53.09C147.31,-47.91 133.22,-42.03 121.97,-37.33"/>
<polygon fill="#63b8ff" stroke="#63b8ff" points="158.11,-56.21 168.68,-56.83 160.8,-49.75 158.11,-56.21"/>
</a>
</g>
</g>
<!-- Node7&#45;&gt;Node4 -->
<g id="edge7_Node000007_Node000004" class="edge">
<title>Node7&#45;&gt;Node4</title>
<g id="a_edge7_Node000007_Node000004"><a xlink:title=" ">
<path fill="none" stroke="#63b8ff" d="M67.19,-87.79C57.07,-83.08 46.25,-78.05 37.47,-73.97"/>
<polygon fill="#63b8ff" stroke="#63b8ff" points="65.45,-90.84 75.99,-91.88 68.4,-84.49 65.45,-90.84"/>
</a>
</g>
</g>
<!-- Node8&#45;&gt;Node4 -->
<g id="edge9_Node000008_Node000004" class="edge">
<title>Node8&#45;&gt;Node4</title>
<g id="a_edge9_Node000008_Node000004"><a xlink:title=" ">
<path fill="none" stroke="#63b8ff" d="M66.84,-65.62C56.76,-65.62 46.02,-65.62 37.31,-65.62"/>
<polygon fill="#63b8ff" stroke="#63b8ff" points="66.69,-69.13 76.69,-65.63 66.69,-62.13 66.69,-69.13"/>
</a>
</g>
</g>
<!-- Node9&#45;&gt;Node4 -->
<g id="edge11_Node000009_Node000004" class="edge">
<title>Node9&#45;&gt;Node4</title>
<g id="a_edge11_Node000009_Node000004"><a xlink:title=" ">
<path fill="none" stroke="#63b8ff" d="M67.83,-43.17C57.47,-47.98 46.3,-53.17 37.31,-57.35"/>
<polygon fill="#63b8ff" stroke="#63b8ff" points="69.24,-46.37 76.83,-38.98 66.29,-40.02 69.24,-46.37"/>
</a>
</g>
</g>
<!-- Node10&#45;&gt;Node4 -->
<g id="edge13_Node000010_Node000004" class="edge">
<title>Node10&#45;&gt;Node4</title>
<g id="a_edge13_Node000010_Node000004"><a xlink:title=" ">
<path fill="none" stroke="#63b8ff" d="M151.74,-2.26C128.15,0.56 97.71,0.94 73,-9.62 50.99,-19.04 33.73,-42.43 25.24,-55.82"/>
<polygon fill="#63b8ff" stroke="#63b8ff" points="151.17,-5.71 161.56,-3.64 152.15,1.22 151.17,-5.71"/>
</a>
</g>
</g>
</g>
</svg>
