<?xml version="1.0" encoding="UTF-8" standalone="no"?>
<!DOCTYPE svg PUBLIC "-//W3C//DTD SVG 1.1//EN"
 "http://www.w3.org/Graphics/SVG/1.1/DTD/svg11.dtd">
<!-- Generated by graphviz version 12.2.1 (20241206.2353)
 -->
<!-- Title: CHalo_swap_all Pages: 1 -->
<svg width="544pt" height="253pt"
 viewBox="0.00 0.00 543.50 253.25" xmlns="http://www.w3.org/2000/svg" xmlns:xlink="http://www.w3.org/1999/xlink">
<g id="graph0" class="graph" transform="scale(1 1) rotate(0) translate(4 249.25)">
<title>CHalo_swap_all</title>
<!-- Node1 -->
<g id="Node000001" class="node">
<title>Node1</title>
<g id="a_Node000001"><a xlink:title="Calls the functions to send data to both the up and down halos.">
<polygon fill="#999999" stroke="#666666" points="535.5,-187.25 449,-187.25 449,-168 535.5,-168 535.5,-187.25"/>
<text text-anchor="middle" x="492.25" y="-173.75" font-family="IBMPlexSans-Regular" font-size="10.00">CHalo_swap_all</text>
</a>
</g>
</g>
<!-- Node2 -->
<g id="Node000002" class="node">
<title>Node2</title>
<g id="a_Node000002"><a xlink:href="matrices_8c.html#a40434b5c9baa7bb374ac7faf436acc56" target="_top" xlink:title="Evaluates &#160;in single precision.">
<polygon fill="white" stroke="#666666" points="407.38,-244.25 353.12,-244.25 353.12,-225 407.38,-225 407.38,-244.25"/>
<text text-anchor="middle" x="380.25" y="-230.75" font-family="IBMPlexSans-Regular" font-size="10.00">Dslash_f</text>
</a>
</g>
</g>
<!-- Node1&#45;&gt;Node2 -->
<g id="edge1_Node000001_Node000002" class="edge">
<title>Node1&#45;&gt;Node2</title>
<g id="a_edge1_Node000001_Node000002"><a xlink:title=" ">
<path fill="none" stroke="#63b8ff" d="M461.68,-192.95C442.25,-203.02 417.37,-215.91 400.47,-224.67"/>
<polygon fill="#63b8ff" stroke="#63b8ff" points="463.23,-196.09 470.49,-188.38 460,-189.87 463.23,-196.09"/>
</a>
</g>
</g>
<!-- Node6 -->
<g id="Node000006" class="node">
<title>Node6</title>
<g id="a_Node000006"><a xlink:href="matrices_8c.html#ad8f7378919117970073d06cbb243f9a4" target="_top" xlink:title="Evaluates &#160;in single precision.">
<polygon fill="white" stroke="#666666" points="410,-206.25 350.5,-206.25 350.5,-187 410,-187 410,-206.25"/>
<text text-anchor="middle" x="380.25" y="-192.75" font-family="IBMPlexSans-Regular" font-size="10.00">Dslashd_f</text>
</a>
</g>
</g>
<!-- Node1&#45;&gt;Node6 -->
<g id="edge5_Node000001_Node000006" class="edge">
<title>Node1&#45;&gt;Node6</title>
<g id="a_edge5_Node000001_Node000006"><a xlink:title=" ">
<path fill="none" stroke="#63b8ff" d="M437.44,-186.92C428.11,-188.53 418.74,-190.15 410.4,-191.59"/>
<polygon fill="#63b8ff" stroke="#63b8ff" points="437.97,-190.38 447.23,-185.23 436.78,-183.48 437.97,-190.38"/>
</a>
</g>
</g>
<!-- Node7 -->
<g id="Node000007" class="node">
<title>Node7</title>
<g id="a_Node000007"><a xlink:href="matrices_8c.html#a68e018d0a9d3c7ae5e175f87da75d881" target="_top" xlink:title="Evaluates &#160;in single precision.">
<polygon fill="white" stroke="#666666" points="410.38,-131.25 350.12,-131.25 350.12,-112 410.38,-112 410.38,-131.25"/>
<text text-anchor="middle" x="380.25" y="-117.75" font-family="IBMPlexSans-Regular" font-size="10.00">Hdslash_f</text>
</a>
</g>
</g>
<!-- Node1&#45;&gt;Node7 -->
<g id="edge9_Node000001_Node000007" class="edge">
<title>Node1&#45;&gt;Node7</title>
<g id="a_edge9_Node000001_Node000007"><a xlink:title=" ">
<path fill="none" stroke="#63b8ff" d="M461.55,-162.51C442.38,-152.75 417.97,-140.32 401.12,-131.74"/>
<polygon fill="#63b8ff" stroke="#63b8ff" points="459.74,-165.51 470.24,-166.93 462.91,-159.27 459.74,-165.51"/>
</a>
</g>
</g>
<!-- Node14 -->
<g id="Node000014" class="node">
<title>Node14</title>
<g id="a_Node000014"><a xlink:href="matrices_8c.html#a01fdbe29f8890534b19e20de5af344aa" target="_top" xlink:title="Evaluates &#160;in single precision.">
<polygon fill="white" stroke="#666666" points="413,-169.25 347.5,-169.25 347.5,-150 413,-150 413,-169.25"/>
<text text-anchor="middle" x="380.25" y="-155.75" font-family="IBMPlexSans-Regular" font-size="10.00">Hdslashd_f</text>
</a>
</g>
</g>
<!-- Node1&#45;&gt;Node14 -->
<g id="edge21_Node000001_Node000014" class="edge">
<title>Node1&#45;&gt;Node14</title>
<g id="a_edge21_Node000001_Node000014"><a xlink:title=" ">
<path fill="none" stroke="#63b8ff" d="M437.56,-168.84C429.31,-167.49 421.02,-166.13 413.43,-164.89"/>
<polygon fill="#63b8ff" stroke="#63b8ff" points="436.79,-172.26 447.23,-170.42 437.92,-165.35 436.79,-172.26"/>
</a>
</g>
</g>
<!-- Node3 -->
<g id="Node000003" class="node">
<title>Node3</title>
<g id="a_Node000003"><a xlink:href="congrad_8c.html#aa3fde21d836b340202ca6b18bead4510" target="_top" xlink:title="Matrix Inversion via Conjugate Gradient (no up/down flavour partitioning). Solves &#160;The matrix multipl...">
<polygon fill="white" stroke="#666666" points="311.5,-245.25 254.25,-245.25 254.25,-226 311.5,-226 311.5,-245.25"/>
<text text-anchor="middle" x="282.88" y="-231.75" font-family="IBMPlexSans-Regular" font-size="10.00">Congradp</text>
</a>
</g>
</g>
<!-- Node2&#45;&gt;Node3 -->
<g id="edge2_Node000002_Node000003" class="edge">
<title>Node2&#45;&gt;Node3</title>
<g id="a_edge2_Node000002_Node000003"><a xlink:title=" ">
<path fill="none" stroke="#63b8ff" d="M341.18,-235.02C331.43,-235.13 321.11,-235.23 311.96,-235.33"/>
<polygon fill="#63b8ff" stroke="#63b8ff" points="341.21,-238.52 351.17,-234.92 341.13,-231.52 341.21,-238.52"/>
</a>
</g>
</g>
<!-- Node4 -->
<g id="Node000004" class="node">
<title>Node4</title>
<g id="a_Node000004"><a xlink:href="fermionic_8c.html#a4f76ed3be4902e11205760b4222665c8" target="_top" xlink:title="Calculate fermion expectation values via a noisy estimator.">
<polygon fill="white" stroke="#666666" points="217.5,-207.25 164,-207.25 164,-188 217.5,-188 217.5,-207.25"/>
<text text-anchor="middle" x="190.75" y="-193.75" font-family="IBMPlexSans-Regular" font-size="10.00">Measure</text>
</a>
</g>
</g>
<!-- Node3&#45;&gt;Node4 -->
<g id="edge3_Node000003_Node000004" class="edge">
<title>Node3&#45;&gt;Node4</title>
<g id="a_edge3_Node000003_Node000004"><a xlink:title=" ">
<path fill="none" stroke="#63b8ff" d="M247.84,-221.28C237.1,-216.75 225.46,-211.84 215.58,-207.67"/>
<polygon fill="#63b8ff" stroke="#63b8ff" points="246.23,-224.39 256.8,-225.05 248.95,-217.94 246.23,-224.39"/>
</a>
</g>
</g>
<!-- Node5 -->
<g id="Node000005" class="node">
<title>Node5</title>
<g id="a_Node000005"><a xlink:href="main_8c.html#a0ddf1224851353fc92bfbff6f499fa97" target="_top" xlink:title=" ">
<polygon fill="white" stroke="#666666" points="37,-112.25 0,-112.25 0,-93 37,-93 37,-112.25"/>
<text text-anchor="middle" x="18.5" y="-98.75" font-family="IBMPlexSans-Regular" font-size="10.00">main</text>
</a>
</g>
</g>
<!-- Node4&#45;&gt;Node5 -->
<g id="edge4_Node000004_Node000005" class="edge">
<title>Node4&#45;&gt;Node5</title>
<g id="a_edge4_Node000004_Node000005"><a xlink:title=" ">
<path fill="none" stroke="#63b8ff" d="M152.4,-196.65C128.15,-194.48 96.75,-188.64 73,-173.62 49,-158.45 31.86,-128.41 24.12,-112.71"/>
<polygon fill="#63b8ff" stroke="#63b8ff" points="151.94,-200.13 162.16,-197.34 152.43,-193.15 151.94,-200.13"/>
</a>
</g>
</g>
<!-- Node6&#45;&gt;Node3 -->
<g id="edge6_Node000006_Node000003" class="edge">
<title>Node6&#45;&gt;Node3</title>
<g id="a_edge6_Node000006_Node000003"><a xlink:title=" ">
<path fill="none" stroke="#63b8ff" d="M344.17,-210.97C332.27,-215.83 319.24,-221.16 308.35,-225.62"/>
<polygon fill="#63b8ff" stroke="#63b8ff" points="345.36,-214.27 353.29,-207.24 342.71,-207.79 345.36,-214.27"/>
</a>
</g>
</g>
<!-- Node6&#45;&gt;Node4 -->
<g id="edge8_Node000006_Node000004" class="edge">
<title>Node6&#45;&gt;Node4</title>
<g id="a_edge8_Node000006_Node000004"><a xlink:title=" ">
<path fill="none" stroke="#63b8ff" d="M339.1,-196.84C302.46,-197.03 249.39,-197.32 217.94,-197.49"/>
<polygon fill="#63b8ff" stroke="#63b8ff" points="338.87,-200.34 348.85,-196.79 338.83,-193.34 338.87,-200.34"/>
</a>
</g>
</g>
<!-- Node6&#45;&gt;Node5 -->
<g id="edge7_Node000006_Node000005" class="edge">
<title>Node6&#45;&gt;Node5</title>
<g id="a_edge7_Node000006_Node000005"><a xlink:title=" ">
<path fill="none" stroke="#63b8ff" d="M338.98,-189.66C279.83,-178.9 166.35,-156.24 73,-125.62 60.7,-121.59 47.33,-115.84 37.03,-111.1"/>
<polygon fill="#63b8ff" stroke="#63b8ff" points="338.12,-193.06 348.58,-191.39 339.36,-186.17 338.12,-193.06"/>
</a>
</g>
</g>
<!-- Node8 -->
<g id="Node000008" class="node">
<title>Node8</title>
<g id="a_Node000008"><a xlink:href="congrad_8c.html#a4b97a088fd74bb3b25ce4f965dc26281" target="_top" xlink:title="Matrix Inversion via Conjugate Gradient (up/down flavour partitioning). Solves &#160;Implements up/down pa...">
<polygon fill="white" stroke="#666666" points="311.5,-131.25 254.25,-131.25 254.25,-112 311.5,-112 311.5,-131.25"/>
<text text-anchor="middle" x="282.88" y="-117.75" font-family="IBMPlexSans-Regular" font-size="10.00">Congradq</text>
</a>
</g>
</g>
<!-- Node7&#45;&gt;Node8 -->
<g id="edge10_Node000007_Node000008" class="edge">
<title>Node7&#45;&gt;Node8</title>
<g id="a_edge10_Node000007_Node000008"><a xlink:title=" ">
<path fill="none" stroke="#63b8ff" d="M338.64,-121.62C329.56,-121.62 320.13,-121.62 311.7,-121.62"/>
<polygon fill="#63b8ff" stroke="#63b8ff" points="338.34,-125.13 348.34,-121.63 338.34,-118.13 338.34,-125.13"/>
</a>
</g>
</g>
<!-- Node9 -->
<g id="Node000009" class="node">
<title>Node9</title>
<g id="a_Node000009"><a xlink:href="force_8c.html#a98a5926c20124e0cea060ad1e47ff3de" target="_top" xlink:title="Calculates the force &#160;at each intermediate time.">
<polygon fill="white" stroke="#666666" points="211.12,-93.25 170.38,-93.25 170.38,-74 211.12,-74 211.12,-93.25"/>
<text text-anchor="middle" x="190.75" y="-79.75" font-family="IBMPlexSans-Regular" font-size="10.00">Force</text>
</a>
</g>
</g>
<!-- Node7&#45;&gt;Node9 -->
<g id="edge20_Node000007_Node000009" class="edge">
<title>Node7&#45;&gt;Node9</title>
<g id="a_edge20_Node000007_Node000009"><a xlink:title=" ">
<path fill="none" stroke="#63b8ff" d="M338.79,-109.45C329.85,-106.99 320.39,-104.57 311.5,-102.62 276.54,-94.98 235.21,-89.11 211.38,-86.03"/>
<polygon fill="#63b8ff" stroke="#63b8ff" points="337.72,-112.79 348.3,-112.14 339.63,-106.05 337.72,-112.79"/>
</a>
</g>
</g>
<!-- Node8&#45;&gt;Node9 -->
<g id="edge11_Node000008_Node000009" class="edge">
<title>Node8&#45;&gt;Node9</title>
<g id="a_edge11_Node000008_Node000009"><a xlink:title=" ">
<path fill="none" stroke="#63b8ff" d="M247.85,-107.28C235.62,-102.12 222.24,-96.48 211.62,-92"/>
<polygon fill="#63b8ff" stroke="#63b8ff" points="246.23,-110.39 256.8,-111.05 248.95,-103.94 246.23,-110.39"/>
</a>
</g>
</g>
<!-- Node13 -->
<g id="Node000013" class="node">
<title>Node13</title>
<g id="a_Node000013"><a xlink:href="su2hmc_8c.html#aad654cdd6107120818d5485ce1620d81" target="_top" xlink:title="Calculate the Hamiltonian.">
<polygon fill="white" stroke="#666666" points="218.25,-131.25 163.25,-131.25 163.25,-112 218.25,-112 218.25,-131.25"/>
<text text-anchor="middle" x="190.75" y="-117.75" font-family="IBMPlexSans-Regular" font-size="10.00">Hamilton</text>
</a>
</g>
</g>
<!-- Node8&#45;&gt;Node13 -->
<g id="edge18_Node000008_Node000013" class="edge">
<title>Node8&#45;&gt;Node13</title>
<g id="a_edge18_Node000008_Node000013"><a xlink:title=" ">
<path fill="none" stroke="#63b8ff" d="M242.35,-121.62C234.3,-121.62 226,-121.62 218.52,-121.62"/>
<polygon fill="#63b8ff" stroke="#63b8ff" points="242.34,-125.13 252.34,-121.63 242.34,-118.13 242.34,-125.13"/>
</a>
</g>
</g>
<!-- Node10 -->
<g id="Node000010" class="node">
<title>Node10</title>
<g id="a_Node000010"><a xlink:href="integrate_8c.html#a4d7f64e9f3e98a2953d707f18742d110" target="_top" xlink:title="Leapfrog integrator. Each trajectory step takes the form of p&#45;&gt;p+dt/2,u&#45;&gt;u+dt,p&#45;&gt;p+dt/2 In practice t...">
<polygon fill="white" stroke="#666666" points="127.25,-19.25 73,-19.25 73,0 127.25,0 127.25,-19.25"/>
<text text-anchor="middle" x="100.12" y="-5.75" font-family="IBMPlexSans-Regular" font-size="10.00">Leapfrog</text>
</a>
</g>
</g>
<!-- Node9&#45;&gt;Node10 -->
<g id="edge12_Node000009_Node000010" class="edge">
<title>Node9&#45;&gt;Node10</title>
<g id="a_edge12_Node000009_Node000010"><a xlink:title=" ">
<path fill="none" stroke="#63b8ff" d="M171.47,-66.12C159.29,-54.74 142.73,-39.81 127.25,-27.62 123.79,-24.9 119.94,-22.12 116.28,-19.59"/>
<polygon fill="#63b8ff" stroke="#63b8ff" points="168.71,-68.33 178.39,-72.65 173.52,-63.24 168.71,-68.33"/>
</a>
</g>
</g>
<!-- Node11 -->
<g id="Node000011" class="node">
<title>Node11</title>
<g id="a_Node000011"><a xlink:href="integrate_8c.html#a33907d89c4a0709fcf809773de68c3a2" target="_top" xlink:title="OMF second order five step integrator.">
<polygon fill="white" stroke="#666666" points="121.62,-93.25 78.62,-93.25 78.62,-74 121.62,-74 121.62,-93.25"/>
<text text-anchor="middle" x="100.12" y="-79.75" font-family="IBMPlexSans-Regular" font-size="10.00">OMF2</text>
</a>
</g>
</g>
<!-- Node9&#45;&gt;Node11 -->
<g id="edge14_Node000009_Node000011" class="edge">
<title>Node9&#45;&gt;Node11</title>
<g id="a_edge14_Node000009_Node000011"><a xlink:title=" ">
<path fill="none" stroke="#63b8ff" d="M158.59,-83.62C146.46,-83.62 132.88,-83.62 121.97,-83.62"/>
<polygon fill="#63b8ff" stroke="#63b8ff" points="158.57,-87.13 168.57,-83.63 158.57,-80.13 158.57,-87.13"/>
</a>
</g>
</g>
<!-- Node12 -->
<g id="Node000012" class="node">
<title>Node12</title>
<g id="a_Node000012"><a xlink:href="integrate_8c.html#a4e6abc4e61c0131df30fb683569e5d00" target="_top" xlink:title="OMF fourth order eleven step integrator.">
<polygon fill="white" stroke="#666666" points="121.62,-56.25 78.62,-56.25 78.62,-37 121.62,-37 121.62,-56.25"/>
<text text-anchor="middle" x="100.12" y="-42.75" font-family="IBMPlexSans-Regular" font-size="10.00">OMF4</text>
</a>
</g>
</g>
<!-- Node9&#45;&gt;Node12 -->
<g id="edge16_Node000009_Node000012" class="edge">
<title>Node9&#45;&gt;Node12</title>
<g id="a_edge16_Node000009_Node000012"><a xlink:title=" ">
<path fill="none" stroke="#63b8ff" d="M159.72,-71.09C147.31,-65.91 133.22,-60.03 121.97,-55.33"/>
<polygon fill="#63b8ff" stroke="#63b8ff" points="158.11,-74.21 168.68,-74.83 160.8,-67.75 158.11,-74.21"/>
</a>
</g>
</g>
<!-- Node10&#45;&gt;Node5 -->
<g id="edge13_Node000010_Node000005" class="edge">
<title>Node10&#45;&gt;Node5</title>
<g id="a_edge13_Node000010_Node000005"><a xlink:title=" ">
<path fill="none" stroke="#63b8ff" d="M73.83,-26.83C73.55,-27.09 73.27,-27.36 73,-27.62 52.25,-48.04 33.96,-77.33 25.12,-92.57"/>
<polygon fill="#63b8ff" stroke="#63b8ff" points="75.95,-29.61 81.52,-20.6 71.54,-24.17 75.95,-29.61"/>
</a>
</g>
</g>
<!-- Node11&#45;&gt;Node5 -->
<g id="edge15_Node000011_Node000005" class="edge">
<title>Node11&#45;&gt;Node5</title>
<g id="a_edge15_Node000011_Node000005"><a xlink:title=" ">
<path fill="none" stroke="#63b8ff" d="M67.17,-91.25C57,-93.68 46.11,-96.28 37.31,-98.37"/>
<polygon fill="#63b8ff" stroke="#63b8ff" points="67.82,-94.69 76.73,-88.97 66.19,-87.89 67.82,-94.69"/>
</a>
</g>
</g>
<!-- Node12&#45;&gt;Node5 -->
<g id="edge17_Node000012_Node000005" class="edge">
<title>Node12&#45;&gt;Node5</title>
<g id="a_edge17_Node000012_Node000005"><a xlink:title=" ">
<path fill="none" stroke="#63b8ff" d="M75.11,-63.15C74.4,-63.65 73.69,-64.14 73,-64.62 59.56,-74.03 44.31,-84.88 33.54,-92.57"/>
<polygon fill="#63b8ff" stroke="#63b8ff" points="76.98,-66.11 83.21,-57.54 73,-60.36 76.98,-66.11"/>
</a>
</g>
</g>
<!-- Node13&#45;&gt;Node5 -->
<g id="edge19_Node000013_Node000005" class="edge">
<title>Node13&#45;&gt;Node5</title>
<g id="a_edge19_Node000013_Node000005"><a xlink:title=" ">
<path fill="none" stroke="#63b8ff" d="M151.37,-117.34C115.77,-113.37 64.38,-107.63 37.47,-104.63"/>
<polygon fill="#63b8ff" stroke="#63b8ff" points="150.94,-120.82 161.27,-118.45 151.72,-113.86 150.94,-120.82"/>
</a>
</g>
</g>
<!-- Node14&#45;&gt;Node8 -->
<g id="edge22_Node000014_Node000008" class="edge">
<title>Node14&#45;&gt;Node8</title>
<g id="a_edge22_Node000014_Node000008"><a xlink:title=" ">
<path fill="none" stroke="#63b8ff" d="M343.35,-145.32C331.9,-140.76 319.48,-135.81 308.97,-131.62"/>
<polygon fill="#63b8ff" stroke="#63b8ff" points="341.95,-148.53 352.54,-148.98 344.54,-142.03 341.95,-148.53"/>
</a>
</g>
</g>
</g>
</svg>
