<?xml version="1.0" encoding="UTF-8" standalone="no"?>
<!DOCTYPE svg PUBLIC "-//W3C//DTD SVG 1.1//EN"
 "http://www.w3.org/Graphics/SVG/1.1/DTD/svg11.dtd">
<!-- Generated by graphviz version 12.2.1 (20241206.2353)
 -->
<!-- Title: Trial_Exchange Pages: 1 -->
<svg width="371pt" height="125pt"
 viewBox="0.00 0.00 370.50 125.38" xmlns="http://www.w3.org/2000/svg" xmlns:xlink="http://www.w3.org/1999/xlink">
<g id="graph0" class="graph" transform="scale(1 1) rotate(0) translate(4 121.38)">
<title>Trial_Exchange</title>
<!-- Node1 -->
<g id="Node000001" class="node">
<title>Node1</title>
<g id="a_Node000001"><a xlink:title="Exchanges the trial fields.">
<polygon fill="#999999" stroke="#666666" points="362.5,-24.38 280.5,-24.38 280.5,-5.13 362.5,-5.13 362.5,-24.38"/>
<text text-anchor="middle" x="321.5" y="-10.88" font-family="IBMPlexSans-Regular" font-size="10.00">Trial_Exchange</text>
</a>
</g>
</g>
<!-- Node2 -->
<g id="Node000002" class="node">
<title>Node2</title>
<g id="a_Node000002"><a xlink:href="integrate_8c.html#ab9fe12be80cd3768ce2adf2be02a1d4b" target="_top" xlink:title="Gauge update for the integration step of the HMC.">
<polygon fill="white" stroke="#666666" points="244.5,-61.38 163.25,-61.38 163.25,-42.13 244.5,-42.13 244.5,-61.38"/>
<text text-anchor="middle" x="203.88" y="-47.88" font-family="IBMPlexSans-Regular" font-size="10.00">Gauge_Update</text>
</a>
</g>
</g>
<!-- Node1&#45;&gt;Node2 -->
<g id="edge1_Node000001_Node000002" class="edge">
<title>Node1&#45;&gt;Node2</title>
<g id="a_edge1_Node000001_Node000002"><a xlink:title=" ">
<path fill="none" stroke="#63b8ff" d="M278.18,-28.3C264.37,-32.71 249.3,-37.54 236.43,-41.65"/>
<polygon fill="#63b8ff" stroke="#63b8ff" points="279.01,-31.71 287.46,-25.32 276.87,-25.04 279.01,-31.71"/>
</a>
</g>
</g>
<!-- Node4 -->
<g id="Node000004" class="node">
<title>Node4</title>
<g id="a_Node000004"><a xlink:href="main_8c.html#a0ddf1224851353fc92bfbff6f499fa97" target="_top" xlink:title=" ">
<polygon fill="white" stroke="#666666" points="37,-61.38 0,-61.38 0,-42.13 37,-42.13 37,-61.38"/>
<text text-anchor="middle" x="18.5" y="-47.88" font-family="IBMPlexSans-Regular" font-size="10.00">main</text>
</a>
</g>
</g>
<!-- Node1&#45;&gt;Node4 -->
<g id="edge8_Node000001_Node000004" class="edge">
<title>Node1&#45;&gt;Node4</title>
<g id="a_edge8_Node000001_Node000004"><a xlink:title=" ">
<path fill="none" stroke="#63b8ff" d="M269.02,-6C218,0.67 138.26,5.62 73,-14.75 56.18,-20 40,-32.59 29.91,-41.63"/>
<polygon fill="#63b8ff" stroke="#63b8ff" points="268.51,-9.46 278.9,-7.37 269.47,-2.53 268.51,-9.46"/>
</a>
</g>
</g>
<!-- Node3 -->
<g id="Node000003" class="node">
<title>Node3</title>
<g id="a_Node000003"><a xlink:href="integrate_8c.html#a4d7f64e9f3e98a2953d707f18742d110" target="_top" xlink:title="Leapfrog integrator. Each trajectory step takes the form of p&#45;&gt;p+dt/2,u&#45;&gt;u+dt,p&#45;&gt;p+dt/2 In practice t...">
<polygon fill="white" stroke="#666666" points="127.25,-117.38 73,-117.38 73,-98.13 127.25,-98.13 127.25,-117.38"/>
<text text-anchor="middle" x="100.12" y="-103.88" font-family="IBMPlexSans-Regular" font-size="10.00">Leapfrog</text>
</a>
</g>
</g>
<!-- Node2&#45;&gt;Node3 -->
<g id="edge2_Node000002_Node000003" class="edge">
<title>Node2&#45;&gt;Node3</title>
<g id="a_edge2_Node000002_Node000003"><a xlink:title=" ">
<path fill="none" stroke="#63b8ff" d="M174.91,-67.14C157.26,-76.86 134.94,-89.14 119.5,-97.64"/>
<polygon fill="#63b8ff" stroke="#63b8ff" points="176.28,-70.38 183.36,-62.49 172.91,-64.25 176.28,-70.38"/>
</a>
</g>
</g>
<!-- Node5 -->
<g id="Node000005" class="node">
<title>Node5</title>
<g id="a_Node000005"><a xlink:href="integrate_8c.html#a33907d89c4a0709fcf809773de68c3a2" target="_top" xlink:title="OMF second order five step integrator.">
<polygon fill="white" stroke="#666666" points="121.62,-80.38 78.62,-80.38 78.62,-61.13 121.62,-61.13 121.62,-80.38"/>
<text text-anchor="middle" x="100.12" y="-66.88" font-family="IBMPlexSans-Regular" font-size="10.00">OMF2</text>
</a>
</g>
</g>
<!-- Node2&#45;&gt;Node5 -->
<g id="edge4_Node000002_Node000005" class="edge">
<title>Node2&#45;&gt;Node5</title>
<g id="a_edge4_Node000002_Node000005"><a xlink:title=" ">
<path fill="none" stroke="#63b8ff" d="M151.95,-61.26C141.31,-63.25 130.68,-65.23 121.91,-66.87"/>
<polygon fill="#63b8ff" stroke="#63b8ff" points="152.28,-64.76 161.46,-59.48 150.99,-57.88 152.28,-64.76"/>
</a>
</g>
</g>
<!-- Node6 -->
<g id="Node000006" class="node">
<title>Node6</title>
<g id="a_Node000006"><a xlink:href="integrate_8c.html#a4e6abc4e61c0131df30fb683569e5d00" target="_top" xlink:title="OMF fourth order eleven step integrator.">
<polygon fill="white" stroke="#666666" points="121.62,-43.38 78.62,-43.38 78.62,-24.13 121.62,-24.13 121.62,-43.38"/>
<text text-anchor="middle" x="100.12" y="-29.88" font-family="IBMPlexSans-Regular" font-size="10.00">OMF4</text>
</a>
</g>
</g>
<!-- Node2&#45;&gt;Node6 -->
<g id="edge6_Node000002_Node000006" class="edge">
<title>Node2&#45;&gt;Node6</title>
<g id="a_edge6_Node000002_Node000006"><a xlink:title=" ">
<path fill="none" stroke="#63b8ff" d="M151.95,-42.74C141.31,-40.86 130.68,-38.98 121.91,-37.43"/>
<polygon fill="#63b8ff" stroke="#63b8ff" points="151.01,-46.13 161.46,-44.43 152.22,-39.24 151.01,-46.13"/>
</a>
</g>
</g>
<!-- Node3&#45;&gt;Node4 -->
<g id="edge3_Node000003_Node000004" class="edge">
<title>Node3&#45;&gt;Node4</title>
<g id="a_edge3_Node000003_Node000004"><a xlink:title=" ">
<path fill="none" stroke="#63b8ff" d="M75.11,-91.23C74.4,-90.73 73.69,-90.24 73,-89.75 59.56,-80.35 44.31,-69.5 33.54,-61.81"/>
<polygon fill="#63b8ff" stroke="#63b8ff" points="73,-94.02 83.21,-96.84 76.98,-88.26 73,-94.02"/>
</a>
</g>
</g>
<!-- Node5&#45;&gt;Node4 -->
<g id="edge5_Node000005_Node000004" class="edge">
<title>Node5&#45;&gt;Node4</title>
<g id="a_edge5_Node000005_Node000004"><a xlink:title=" ">
<path fill="none" stroke="#63b8ff" d="M67.17,-63.13C57,-60.7 46.11,-58.1 37.31,-56"/>
<polygon fill="#63b8ff" stroke="#63b8ff" points="66.19,-66.49 76.73,-65.41 67.82,-59.68 66.19,-66.49"/>
</a>
</g>
</g>
<!-- Node6&#45;&gt;Node4 -->
<g id="edge7_Node000006_Node000004" class="edge">
<title>Node6&#45;&gt;Node4</title>
<g id="a_edge7_Node000006_Node000004"><a xlink:title=" ">
<path fill="none" stroke="#63b8ff" d="M67.17,-40.98C57,-43.28 46.11,-45.74 37.31,-47.73"/>
<polygon fill="#63b8ff" stroke="#63b8ff" points="67.75,-44.43 76.73,-38.82 66.2,-37.61 67.75,-44.43"/>
</a>
</g>
</g>
</g>
</svg>
