<?xml version="1.0" encoding="UTF-8" standalone="no"?>
<!DOCTYPE svg PUBLIC "-//W3C//DTD SVG 1.1//EN"
 "http://www.w3.org/Graphics/SVG/1.1/DTD/svg11.dtd">
<!-- Generated by graphviz version 11.0.0 (20240428.1522)
 -->
<!-- Title: ran2 Pages: 1 -->
<svg width="227pt" height="249pt"
 viewBox="0.00 0.00 227.00 249.25" xmlns="http://www.w3.org/2000/svg" xmlns:xlink="http://www.w3.org/1999/xlink">
<g id="graph0" class="graph" transform="scale(1 1) rotate(0) translate(4 245.25)">
<title>ran2</title>
<!-- Node1 -->
<g id="Node000001" class="node">
<title>Node1</title>
<g id="a_Node000001"><a xlink:title="Generates uniformly distributed random double between zero and one as described in numerical recipes....">
<polygon fill="#999999" stroke="#666666" points="219,-148.25 184.25,-148.25 184.25,-129 219,-129 219,-148.25"/>
<text text-anchor="middle" x="201.62" y="-134.75" font-family="IBMPlexSans-Regular" font-size="10.00">ran2</text>
</a>
</g>
</g>
<!-- Node2 -->
<g id="Node000002" class="node">
<title>Node2</title>
<g id="a_Node000002"><a xlink:href="random_8c.html#a859e92fda23ce37dad2971362f72a50d" target="_top" xlink:title="Generates a vector of normally distributed random single precision complex numbers using the Box&#45;Mull...">
<polygon fill="white" stroke="#666666" points="146.75,-241.25 91.75,-241.25 91.75,-222 146.75,-222 146.75,-241.25"/>
<text text-anchor="middle" x="119.25" y="-227.75" font-family="IBMPlexSans-Regular" font-size="10.00">Gauss_c</text>
</a>
</g>
</g>
<!-- Node1&#45;&gt;Node2 -->
<g id="edge1_Node000001_Node000002" class="edge">
<title>Node1&#45;&gt;Node2</title>
<g id="a_edge1_Node000001_Node000002"><a xlink:title=" ">
<path fill="none" stroke="#63b8ff" d="M189.7,-158.48C180.18,-174.6 165.26,-197.25 148.25,-213.62 145.25,-216.51 141.73,-219.2 138.21,-221.57"/>
<polygon fill="#63b8ff" stroke="#63b8ff" points="192.71,-160.26 194.63,-149.84 186.64,-156.79 192.71,-160.26"/>
</a>
</g>
</g>
<!-- Node5 -->
<g id="Node000005" class="node">
<title>Node5</title>
<g id="a_Node000005"><a xlink:href="random_8c.html#aaaabdcbfe66bb65cb57139509f6ea496" target="_top" xlink:title="Generates a vector of normally distributed random double precision numbers using the Box&#45;Muller Metho...">
<polygon fill="white" stroke="#666666" points="146.75,-204.25 91.75,-204.25 91.75,-185 146.75,-185 146.75,-204.25"/>
<text text-anchor="middle" x="119.25" y="-190.75" font-family="IBMPlexSans-Regular" font-size="10.00">Gauss_d</text>
</a>
</g>
</g>
<!-- Node1&#45;&gt;Node5 -->
<g id="edge4_Node000001_Node000005" class="edge">
<title>Node1&#45;&gt;Node5</title>
<g id="a_edge4_Node000001_Node000005"><a xlink:title=" ">
<path fill="none" stroke="#63b8ff" d="M178.19,-155.32C169,-162.06 158.19,-169.83 148.25,-176.62 144.34,-179.3 140.06,-182.11 136.05,-184.69"/>
<polygon fill="#63b8ff" stroke="#63b8ff" points="180.24,-158.17 186.21,-149.42 176.08,-152.53 180.24,-158.17"/>
</a>
</g>
</g>
<!-- Node6 -->
<g id="Node000006" class="node">
<title>Node6</title>
<g id="a_Node000006"><a xlink:href="random_8c.html#a28ec9196646124383bb0596983c1e368" target="_top" xlink:title="Generates a vector of normally distributed random single precision numbers using the Box&#45;Muller Metho...">
<polygon fill="white" stroke="#666666" points="145.62,-167.25 92.88,-167.25 92.88,-148 145.62,-148 145.62,-167.25"/>
<text text-anchor="middle" x="119.25" y="-153.75" font-family="IBMPlexSans-Regular" font-size="10.00">Gauss_f</text>
</a>
</g>
</g>
<!-- Node1&#45;&gt;Node6 -->
<g id="edge6_Node000001_Node000006" class="edge">
<title>Node1&#45;&gt;Node6</title>
<g id="a_edge6_Node000001_Node000006"><a xlink:title=" ">
<path fill="none" stroke="#63b8ff" d="M172.83,-145.19C164.15,-147.25 154.61,-149.5 146.06,-151.52"/>
<polygon fill="#63b8ff" stroke="#63b8ff" points="173.57,-148.62 182.5,-142.91 171.96,-141.8 173.57,-148.62"/>
</a>
</g>
</g>
<!-- Node7 -->
<g id="Node000007" class="node">
<title>Node7</title>
<g id="a_Node000007"><a xlink:href="random_8c.html#a82551168563b525cb01462c3f61b9383" target="_top" xlink:title="Generates a vector of normally distributed random double precision complex numbers using the Box&#45;Mull...">
<polygon fill="white" stroke="#666666" points="146.38,-130.25 92.12,-130.25 92.12,-111 146.38,-111 146.38,-130.25"/>
<text text-anchor="middle" x="119.25" y="-116.75" font-family="IBMPlexSans-Regular" font-size="10.00">Gauss_z</text>
</a>
</g>
</g>
<!-- Node1&#45;&gt;Node7 -->
<g id="edge7_Node000001_Node000007" class="edge">
<title>Node1&#45;&gt;Node7</title>
<g id="a_edge7_Node000001_Node000007"><a xlink:title=" ">
<path fill="none" stroke="#63b8ff" d="M172.74,-132.38C164.29,-130.49 155.04,-128.42 146.69,-126.55"/>
<polygon fill="#63b8ff" stroke="#63b8ff" points="171.97,-135.79 182.49,-134.56 173.5,-128.96 171.97,-135.79"/>
</a>
</g>
</g>
<!-- Node8 -->
<g id="Node000008" class="node">
<title>Node8</title>
<g id="a_Node000008"><a xlink:href="su2hmc_8c.html#a1fbc1cb0a07d63c39d8cff966a534d09" target="_top" xlink:title="Initialises the system.">
<polygon fill="white" stroke="#666666" points="134,-93.25 104.5,-93.25 104.5,-74 134,-74 134,-93.25"/>
<text text-anchor="middle" x="119.25" y="-79.75" font-family="IBMPlexSans-Regular" font-size="10.00">Init</text>
</a>
</g>
</g>
<!-- Node1&#45;&gt;Node8 -->
<g id="edge8_Node000001_Node000008" class="edge">
<title>Node1&#45;&gt;Node8</title>
<g id="a_edge8_Node000001_Node000008"><a xlink:title=" ">
<path fill="none" stroke="#63b8ff" d="M177.77,-122.15C168.65,-115.66 158.01,-108.21 148.25,-101.62 143.75,-98.59 138.77,-95.35 134.29,-92.48"/>
<polygon fill="#63b8ff" stroke="#63b8ff" points="175.55,-124.87 185.72,-127.84 179.63,-119.18 175.55,-124.87"/>
</a>
</g>
</g>
<!-- Node9 -->
<g id="Node000009" class="node">
<title>Node9</title>
<g id="a_Node000009"><a xlink:href="random_8c.html#af30389dbea7d2b366abea7a923bb008d" target="_top" xlink:title="Generates a random double which is then sent to the other ranks.">
<polygon fill="white" stroke="#666666" points="148.25,-56.25 90.25,-56.25 90.25,-37 148.25,-37 148.25,-56.25"/>
<text text-anchor="middle" x="119.25" y="-42.75" font-family="IBMPlexSans-Regular" font-size="10.00">Par_granf</text>
</a>
</g>
</g>
<!-- Node1&#45;&gt;Node9 -->
<g id="edge10_Node000001_Node000009" class="edge">
<title>Node1&#45;&gt;Node9</title>
<g id="a_edge10_Node000001_Node000009"><a xlink:title=" ">
<path fill="none" stroke="#63b8ff" d="M189.49,-118.78C179.93,-102.91 165.07,-80.71 148.25,-64.62 145.24,-61.75 141.71,-59.07 138.19,-56.7"/>
<polygon fill="#63b8ff" stroke="#63b8ff" points="186.4,-120.43 194.45,-127.31 192.45,-116.9 186.4,-120.43"/>
</a>
</g>
</g>
<!-- Node3 -->
<g id="Node000003" class="node">
<title>Node3</title>
<g id="a_Node000003"><a xlink:href="main_8c.html#a0ddf1224851353fc92bfbff6f499fa97" target="_top" xlink:title=" ">
<polygon fill="white" stroke="#666666" points="45.62,-204.25 8.62,-204.25 8.62,-185 45.62,-185 45.62,-204.25"/>
<text text-anchor="middle" x="27.12" y="-190.75" font-family="IBMPlexSans-Regular" font-size="10.00">main</text>
</a>
</g>
</g>
<!-- Node2&#45;&gt;Node3 -->
<g id="edge2_Node000002_Node000003" class="edge">
<title>Node2&#45;&gt;Node3</title>
<g id="a_edge2_Node000002_Node000003"><a xlink:title=" ">
<path fill="none" stroke="#63b8ff" d="M83.24,-217.25C70.45,-212 56.52,-206.28 45.86,-201.91"/>
<polygon fill="#63b8ff" stroke="#63b8ff" points="81.64,-220.38 92.22,-220.94 84.3,-213.9 81.64,-220.38"/>
</a>
</g>
</g>
<!-- Node4 -->
<g id="Node000004" class="node">
<title>Node4</title>
<g id="a_Node000004"><a xlink:href="fermionic_8c.html#a38464140ca960a533faa9e49b6ee6131" target="_top" xlink:title="Calculate fermion expectation values via a noisy estimator.">
<polygon fill="white" stroke="#666666" points="53.88,-241.25 0.38,-241.25 0.38,-222 53.88,-222 53.88,-241.25"/>
<text text-anchor="middle" x="27.12" y="-227.75" font-family="IBMPlexSans-Regular" font-size="10.00">Measure</text>
</a>
</g>
</g>
<!-- Node2&#45;&gt;Node4 -->
<g id="edge3_Node000002_Node000004" class="edge">
<title>Node2&#45;&gt;Node4</title>
<g id="a_edge3_Node000002_Node000004"><a xlink:title=" ">
<path fill="none" stroke="#63b8ff" d="M80.42,-231.62C71.58,-231.62 62.37,-231.62 54.18,-231.62"/>
<polygon fill="#63b8ff" stroke="#63b8ff" points="80.18,-235.13 90.18,-231.63 80.18,-228.13 80.18,-235.13"/>
</a>
</g>
</g>
<!-- Node5&#45;&gt;Node3 -->
<g id="edge5_Node000005_Node000003" class="edge">
<title>Node5&#45;&gt;Node3</title>
<g id="a_edge5_Node000005_Node000003"><a xlink:title=" ">
<path fill="none" stroke="#63b8ff" d="M80.53,-194.62C68.54,-194.62 55.84,-194.62 45.94,-194.62"/>
<polygon fill="#63b8ff" stroke="#63b8ff" points="80.18,-198.13 90.18,-194.63 80.18,-191.13 80.18,-198.13"/>
</a>
</g>
</g>
<!-- Node8&#45;&gt;Node3 -->
<g id="edge9_Node000008_Node000003" class="edge">
<title>Node8&#45;&gt;Node3</title>
<g id="a_edge9_Node000008_Node000003"><a xlink:title=" ">
<path fill="none" stroke="#63b8ff" d="M94.72,-97.69C93.15,-98.94 91.64,-100.26 90.25,-101.62 63.8,-127.62 42.23,-166.59 32.99,-184.71"/>
<polygon fill="#63b8ff" stroke="#63b8ff" points="96.59,-100.65 102.79,-92.06 92.59,-94.9 96.59,-100.65"/>
</a>
</g>
</g>
<!-- Node10 -->
<g id="Node000010" class="node">
<title>Node10</title>
<g id="a_Node000010"><a xlink:href="integrate_8c.html#ae4e13e66dc0e7130825c11648f2ad80c" target="_top" xlink:title="Leapfrog integrator. Each trajectory step takes the form of p&#45;&gt;p+dt/2,u&#45;&gt;u+dt,p&#45;&gt;p+dt/2 In practice t...">
<polygon fill="white" stroke="#666666" points="54.25,-19.25 0,-19.25 0,0 54.25,0 54.25,-19.25"/>
<text text-anchor="middle" x="27.12" y="-5.75" font-family="IBMPlexSans-Regular" font-size="10.00">Leapfrog</text>
</a>
</g>
</g>
<!-- Node9&#45;&gt;Node10 -->
<g id="edge11_Node000009_Node000010" class="edge">
<title>Node9&#45;&gt;Node10</title>
<g id="a_edge11_Node000009_Node000010"><a xlink:title=" ">
<path fill="none" stroke="#63b8ff" d="M83.01,-32.16C72.88,-28 62.06,-23.56 52.72,-19.72"/>
<polygon fill="#63b8ff" stroke="#63b8ff" points="81.64,-35.38 92.22,-35.94 84.3,-28.9 81.64,-35.38"/>
</a>
</g>
</g>
<!-- Node11 -->
<g id="Node000011" class="node">
<title>Node11</title>
<g id="a_Node000011"><a xlink:href="integrate_8c.html#a44f16170b5e3c92646f2e649ee57da3d" target="_top" xlink:title="OMF integrator. Each trajectory step takes the form of p&#45;&gt;p+dt/2,u&#45;&gt;u+dt,p&#45;&gt;p+dt/2 In practice this i...">
<polygon fill="white" stroke="#666666" points="48.62,-93.25 5.62,-93.25 5.62,-74 48.62,-74 48.62,-93.25"/>
<text text-anchor="middle" x="27.12" y="-79.75" font-family="IBMPlexSans-Regular" font-size="10.00">OMF2</text>
</a>
</g>
</g>
<!-- Node9&#45;&gt;Node11 -->
<g id="edge12_Node000009_Node000011" class="edge">
<title>Node9&#45;&gt;Node11</title>
<g id="a_edge12_Node000009_Node000011"><a xlink:title=" ">
<path fill="none" stroke="#63b8ff" d="M82.99,-61.1C71.51,-65.81 59.14,-70.89 49.06,-75.03"/>
<polygon fill="#63b8ff" stroke="#63b8ff" points="84.3,-64.35 92.22,-57.31 81.64,-57.87 84.3,-64.35"/>
</a>
</g>
</g>
<!-- Node12 -->
<g id="Node000012" class="node">
<title>Node12</title>
<g id="a_Node000012"><a xlink:href="integrate_8c.html#a5bbed189bcdd47d814585aa7e842bb8e" target="_top" xlink:title=" ">
<polygon fill="white" stroke="#666666" points="48.62,-56.25 5.62,-56.25 5.62,-37 48.62,-37 48.62,-56.25"/>
<text text-anchor="middle" x="27.12" y="-42.75" font-family="IBMPlexSans-Regular" font-size="10.00">OMF4</text>
</a>
</g>
</g>
<!-- Node9&#45;&gt;Node12 -->
<g id="edge13_Node000009_Node000012" class="edge">
<title>Node9&#45;&gt;Node12</title>
<g id="a_edge13_Node000009_Node000012"><a xlink:title=" ">
<path fill="none" stroke="#63b8ff" d="M78.89,-46.62C68.58,-46.62 57.88,-46.62 48.97,-46.62"/>
<polygon fill="#63b8ff" stroke="#63b8ff" points="78.71,-50.13 88.71,-46.63 78.71,-43.13 78.71,-50.13"/>
</a>
</g>
</g>
</g>
</svg>
