<?xml version="1.0" encoding="UTF-8" standalone="no"?>
<!DOCTYPE svg PUBLIC "-//W3C//DTD SVG 1.1//EN"
 "http://www.w3.org/Graphics/SVG/1.1/DTD/svg11.dtd">
<!-- Generated by graphviz version 12.2.1 (20241206.2353)
 -->
<!-- Title: ran2 Pages: 1 -->
<svg width="301pt" height="196pt"
 viewBox="0.00 0.00 300.75 196.25" xmlns="http://www.w3.org/2000/svg" xmlns:xlink="http://www.w3.org/1999/xlink">
<g id="graph0" class="graph" transform="scale(1 1) rotate(0) translate(4 192.25)">
<title>ran2</title>
<!-- Node1 -->
<g id="Node000001" class="node">
<title>Node1</title>
<g id="a_Node000001"><a xlink:title="Generates uniformly distributed random double between zero and one as described in numerical recipes....">
<polygon fill="#999999" stroke="#666666" points="292.75,-93.25 258,-93.25 258,-74 292.75,-74 292.75,-93.25"/>
<text text-anchor="middle" x="275.38" y="-79.75" font-family="IBMPlexSans-Regular" font-size="10.00">ran2</text>
</a>
</g>
</g>
<!-- Node2 -->
<g id="Node000002" class="node">
<title>Node2</title>
<g id="a_Node000002"><a xlink:href="random_8c.html#a859e92fda23ce37dad2971362f72a50d" target="_top" xlink:title="Generates a vector of normally distributed random single precision complex numbers using the Box&#45;Mull...">
<polygon fill="white" stroke="#666666" points="222,-188.25 167,-188.25 167,-169 222,-169 222,-188.25"/>
<text text-anchor="middle" x="194.5" y="-174.75" font-family="IBMPlexSans-Regular" font-size="10.00">Gauss_c</text>
</a>
</g>
</g>
<!-- Node1&#45;&gt;Node2 -->
<g id="edge1_Node000001_Node000002" class="edge">
<title>Node1&#45;&gt;Node2</title>
<g id="a_edge1_Node000001_Node000002"><a xlink:title=" ">
<path fill="none" stroke="#63b8ff" d="M262.04,-102.42C251.98,-117.21 237.03,-138.01 222,-154.62 217.59,-159.5 212.28,-164.46 207.59,-168.59"/>
<polygon fill="#63b8ff" stroke="#63b8ff" points="264.66,-104.79 267.32,-94.53 258.84,-100.9 264.66,-104.79"/>
</a>
</g>
</g>
<!-- Node5 -->
<g id="Node000005" class="node">
<title>Node5</title>
<g id="a_Node000005"><a xlink:href="random_8c.html#aaaabdcbfe66bb65cb57139509f6ea496" target="_top" xlink:title="Generates a vector of normally distributed random double precision numbers using the Box&#45;Muller Metho...">
<polygon fill="white" stroke="#666666" points="129.5,-113.25 74.5,-113.25 74.5,-94 129.5,-94 129.5,-113.25"/>
<text text-anchor="middle" x="102" y="-99.75" font-family="IBMPlexSans-Regular" font-size="10.00">Gauss_d</text>
</a>
</g>
</g>
<!-- Node1&#45;&gt;Node5 -->
<g id="edge5_Node000001_Node000005" class="edge">
<title>Node1&#45;&gt;Node5</title>
<g id="a_edge5_Node000001_Node000005"><a xlink:title=" ">
<path fill="none" stroke="#63b8ff" d="M256.24,-101.18C246.82,-109.07 234.66,-117.52 222,-121.62 190.2,-131.95 151.67,-122.33 127.24,-113.67"/>
<polygon fill="#63b8ff" stroke="#63b8ff" points="258.4,-103.94 263.52,-94.67 253.73,-98.72 258.4,-103.94"/>
</a>
</g>
</g>
<!-- Node6 -->
<g id="Node000006" class="node">
<title>Node6</title>
<g id="a_Node000006"><a xlink:href="random_8c.html#a28ec9196646124383bb0596983c1e368" target="_top" xlink:title="Generates a vector of normally distributed random single precision numbers using the Box&#45;Muller Metho...">
<polygon fill="white" stroke="#666666" points="220.88,-112.25 168.12,-112.25 168.12,-93 220.88,-93 220.88,-112.25"/>
<text text-anchor="middle" x="194.5" y="-98.75" font-family="IBMPlexSans-Regular" font-size="10.00">Gauss_f</text>
</a>
</g>
</g>
<!-- Node1&#45;&gt;Node6 -->
<g id="edge7_Node000001_Node000006" class="edge">
<title>Node1&#45;&gt;Node6</title>
<g id="a_edge7_Node000001_Node000006"><a xlink:title=" ">
<path fill="none" stroke="#63b8ff" d="M246.63,-90.31C238.36,-92.3 229.34,-94.47 221.21,-96.43"/>
<polygon fill="#63b8ff" stroke="#63b8ff" points="247.27,-93.75 256.18,-88.01 245.63,-86.95 247.27,-93.75"/>
</a>
</g>
</g>
<!-- Node7 -->
<g id="Node000007" class="node">
<title>Node7</title>
<g id="a_Node000007"><a xlink:href="random_8c.html#a82551168563b525cb01462c3f61b9383" target="_top" xlink:title="Generates a vector of normally distributed random double precision complex numbers using the Box&#45;Mull...">
<polygon fill="white" stroke="#666666" points="221.62,-75.25 167.38,-75.25 167.38,-56 221.62,-56 221.62,-75.25"/>
<text text-anchor="middle" x="194.5" y="-61.75" font-family="IBMPlexSans-Regular" font-size="10.00">Gauss_z</text>
</a>
</g>
</g>
<!-- Node1&#45;&gt;Node7 -->
<g id="edge8_Node000001_Node000007" class="edge">
<title>Node1&#45;&gt;Node7</title>
<g id="a_edge8_Node000001_Node000007"><a xlink:title=" ">
<path fill="none" stroke="#63b8ff" d="M246.55,-77.28C238.51,-75.44 229.77,-73.45 221.83,-71.63"/>
<polygon fill="#63b8ff" stroke="#63b8ff" points="245.64,-80.66 256.17,-79.47 247.2,-73.83 245.64,-80.66"/>
</a>
</g>
</g>
<!-- Node8 -->
<g id="Node000008" class="node">
<title>Node8</title>
<g id="a_Node000008"><a xlink:href="su2hmc_8c.html#a84f252348f913fcc70ce5de0aab6f8bf" target="_top" xlink:title="Initialises the system.">
<polygon fill="white" stroke="#666666" points="116.75,-56.25 87.25,-56.25 87.25,-37 116.75,-37 116.75,-56.25"/>
<text text-anchor="middle" x="102" y="-42.75" font-family="IBMPlexSans-Regular" font-size="10.00">Init</text>
</a>
</g>
</g>
<!-- Node1&#45;&gt;Node8 -->
<g id="edge9_Node000001_Node000008" class="edge">
<title>Node1&#45;&gt;Node8</title>
<g id="a_edge9_Node000001_Node000008"><a xlink:title=" ">
<path fill="none" stroke="#63b8ff" d="M255.51,-66C246.17,-58.47 234.29,-50.53 222,-46.62 185.57,-35.06 139.65,-40.21 116.98,-43.96"/>
<polygon fill="#63b8ff" stroke="#63b8ff" points="253.21,-68.64 263.07,-72.52 257.78,-63.34 253.21,-68.64"/>
</a>
</g>
</g>
<!-- Node9 -->
<g id="Node000009" class="node">
<title>Node9</title>
<g id="a_Node000009"><a xlink:href="random_8c.html#af30389dbea7d2b366abea7a923bb008d" target="_top" xlink:title="Generates a random double which is then sent to the other ranks.">
<polygon fill="white" stroke="#666666" points="131,-19.25 73,-19.25 73,0 131,0 131,-19.25"/>
<text text-anchor="middle" x="102" y="-5.75" font-family="IBMPlexSans-Regular" font-size="10.00">Par_granf</text>
</a>
</g>
</g>
<!-- Node1&#45;&gt;Node9 -->
<g id="edge11_Node000001_Node000009" class="edge">
<title>Node1&#45;&gt;Node9</title>
<g id="a_edge11_Node000001_Node000009"><a xlink:title=" ">
<path fill="none" stroke="#63b8ff" d="M259.13,-65.54C249.5,-55.26 236.23,-43 222,-35.62 193.28,-20.73 156.38,-14.35 131.34,-11.63"/>
<polygon fill="#63b8ff" stroke="#63b8ff" points="256.31,-67.63 265.58,-72.76 261.53,-62.97 256.31,-67.63"/>
</a>
</g>
</g>
<!-- Node3 -->
<g id="Node000003" class="node">
<title>Node3</title>
<g id="a_Node000003"><a xlink:href="main_8c.html#a0ddf1224851353fc92bfbff6f499fa97" target="_top" xlink:title=" ">
<polygon fill="white" stroke="#666666" points="37,-113.25 0,-113.25 0,-94 37,-94 37,-113.25"/>
<text text-anchor="middle" x="18.5" y="-99.75" font-family="IBMPlexSans-Regular" font-size="10.00">main</text>
</a>
</g>
</g>
<!-- Node2&#45;&gt;Node3 -->
<g id="edge2_Node000002_Node000003" class="edge">
<title>Node2&#45;&gt;Node3</title>
<g id="a_edge2_Node000002_Node000003"><a xlink:title=" ">
<path fill="none" stroke="#63b8ff" d="M155.12,-178.79C130.42,-177.44 98.31,-172.88 73,-159.62 52.03,-148.65 34.61,-126.3 25.77,-113.4"/>
<polygon fill="#63b8ff" stroke="#63b8ff" points="154.96,-182.29 165.08,-179.16 155.22,-175.29 154.96,-182.29"/>
</a>
</g>
</g>
<!-- Node4 -->
<g id="Node000004" class="node">
<title>Node4</title>
<g id="a_Node000004"><a xlink:href="fermionic_8c.html#a4f76ed3be4902e11205760b4222665c8" target="_top" xlink:title="Calculate fermion expectation values via a noisy estimator.">
<polygon fill="white" stroke="#666666" points="128.75,-150.25 75.25,-150.25 75.25,-131 128.75,-131 128.75,-150.25"/>
<text text-anchor="middle" x="102" y="-136.75" font-family="IBMPlexSans-Regular" font-size="10.00">Measure</text>
</a>
</g>
</g>
<!-- Node2&#45;&gt;Node4 -->
<g id="edge3_Node000002_Node000004" class="edge">
<title>Node2&#45;&gt;Node4</title>
<g id="a_edge3_Node000002_Node000004"><a xlink:title=" ">
<path fill="none" stroke="#63b8ff" d="M159.33,-164.28C148.54,-159.75 136.85,-154.84 126.93,-150.67"/>
<polygon fill="#63b8ff" stroke="#63b8ff" points="157.75,-167.41 168.33,-168.05 160.46,-160.96 157.75,-167.41"/>
</a>
</g>
</g>
<!-- Node4&#45;&gt;Node3 -->
<g id="edge4_Node000004_Node000003" class="edge">
<title>Node4&#45;&gt;Node3</title>
<g id="a_edge4_Node000004_Node000003"><a xlink:title=" ">
<path fill="none" stroke="#63b8ff" d="M68.49,-125.87C57.88,-121.05 46.49,-115.88 37.36,-111.73"/>
<polygon fill="#63b8ff" stroke="#63b8ff" points="66.8,-128.94 77.35,-129.89 69.69,-122.57 66.8,-128.94"/>
</a>
</g>
</g>
<!-- Node5&#45;&gt;Node3 -->
<g id="edge6_Node000005_Node000003" class="edge">
<title>Node5&#45;&gt;Node3</title>
<g id="a_edge6_Node000005_Node000003"><a xlink:title=" ">
<path fill="none" stroke="#63b8ff" d="M62.9,-103.62C54.04,-103.62 45.01,-103.62 37.49,-103.62"/>
<polygon fill="#63b8ff" stroke="#63b8ff" points="62.8,-107.13 72.8,-103.63 62.8,-100.13 62.8,-107.13"/>
</a>
</g>
</g>
<!-- Node8&#45;&gt;Node3 -->
<g id="edge10_Node000008_Node000003" class="edge">
<title>Node8&#45;&gt;Node3</title>
<g id="a_edge10_Node000008_Node000003"><a xlink:title=" ">
<path fill="none" stroke="#63b8ff" d="M77.67,-62.94C63.52,-72.84 45.92,-85.15 33.81,-93.62"/>
<polygon fill="#63b8ff" stroke="#63b8ff" points="79.37,-66.02 85.56,-57.42 75.36,-60.28 79.37,-66.02"/>
</a>
</g>
</g>
<!-- Node9&#45;&gt;Node3 -->
<g id="edge12_Node000009_Node000003" class="edge">
<title>Node9&#45;&gt;Node3</title>
<g id="a_edge12_Node000009_Node000003"><a xlink:title=" ">
<path fill="none" stroke="#63b8ff" d="M74.15,-26.55C73.76,-26.91 73.38,-27.27 73,-27.62 51.69,-48.06 33.51,-78.12 24.87,-93.6"/>
<polygon fill="#63b8ff" stroke="#63b8ff" points="76.07,-29.49 81.85,-20.62 71.8,-23.95 76.07,-29.49"/>
</a>
</g>
</g>
</g>
</svg>
