<?xml version="1.0" encoding="UTF-8" standalone="no"?>
<!DOCTYPE svg PUBLIC "-//W3C//DTD SVG 1.1//EN"
 "http://www.w3.org/Graphics/SVG/1.1/DTD/svg11.dtd">
<!-- Generated by graphviz version 12.2.1 (20241206.2353)
 -->
<!-- Title: production_c/random.c Pages: 1 -->
<svg width="614pt" height="304pt"
 viewBox="0.00 0.00 613.64 303.50" xmlns="http://www.w3.org/2000/svg" xmlns:xlink="http://www.w3.org/1999/xlink">
<g id="graph0" class="graph" transform="scale(1 1) rotate(0) translate(4 299.5)">
<title>production_c/random.c</title>
<!-- Node1 -->
<g id="Node000001" class="node">
<title>Node1</title>
<g id="a_Node000001"><a xlink:title="Random number generator related routines.">
<polygon fill="#999999" stroke="#666666" points="330.64,-295.5 216.39,-295.5 216.39,-276.25 330.64,-276.25 330.64,-295.5"/>
<text text-anchor="middle" x="273.52" y="-282" font-family="IBMPlexSans-Regular" font-size="10.00">production_c/random.c</text>
</a>
</g>
</g>
<!-- Node2 -->
<g id="Node000002" class="node">
<title>Node2</title>
<g id="a_Node000002"><a xlink:href="coord_8h.html" target="_top" xlink:title="Header for routines related to lattice sites.">
<polygon fill="white" stroke="#666666" points="502.27,-129.75 454.77,-129.75 454.77,-110.5 502.27,-110.5 502.27,-129.75"/>
<text text-anchor="middle" x="478.52" y="-116.25" font-family="IBMPlexSans-Regular" font-size="10.00">coord.h</text>
</a>
</g>
</g>
<!-- Node1&#45;&gt;Node2 -->
<g id="edge1_Node000001_Node000002" class="edge">
<title>Node1&#45;&gt;Node2</title>
<g id="a_edge1_Node000001_Node000002"><a xlink:title=" ">
<path fill="none" stroke="#63b8ff" d="M330.8,-281.8C364.73,-277.14 406.45,-266.07 434.52,-240.25 462.97,-214.08 473.09,-167.89 476.64,-141.37"/>
<polygon fill="#63b8ff" stroke="#63b8ff" points="480.1,-141.94 477.74,-131.61 473.14,-141.15 480.1,-141.94"/>
</a>
</g>
</g>
<!-- Node4 -->
<g id="Node000004" class="node">
<title>Node4</title>
<g id="a_Node000004"><a xlink:href="sizes_8h.html" target="_top" xlink:title="Defines the constants of the code and other parameters for loop dimensions. Each subroutine includes ...">
<polygon fill="white" stroke="#666666" points="381.52,-74.5 335.52,-74.5 335.52,-55.25 381.52,-55.25 381.52,-74.5"/>
<text text-anchor="middle" x="358.52" y="-61" font-family="IBMPlexSans-Regular" font-size="10.00">sizes.h</text>
</a>
</g>
</g>
<!-- Node1&#45;&gt;Node4 -->
<g id="edge18_Node000001_Node000004" class="edge">
<title>Node1&#45;&gt;Node4</title>
<g id="a_edge18_Node000001_Node000004"><a xlink:title=" ">
<path fill="none" stroke="#63b8ff" d="M234.3,-275.82C145.75,-253.68 -56.55,-192.55 15.52,-110.5 35.68,-87.55 240.51,-72.89 323.69,-67.84"/>
<polygon fill="#63b8ff" stroke="#63b8ff" points="323.76,-71.34 333.54,-67.26 323.34,-64.35 323.76,-71.34"/>
</a>
</g>
</g>
<!-- Node6 -->
<g id="Node000006" class="node">
<title>Node6</title>
<g id="a_Node000006"><a xlink:href="errorcodes_8h.html" target="_top" xlink:title="This header is intended to be a useful reference for error codes and their meanings.">
<polygon fill="white" stroke="#666666" points="94.14,-129.75 24.89,-129.75 24.89,-110.5 94.14,-110.5 94.14,-129.75"/>
<text text-anchor="middle" x="59.52" y="-116.25" font-family="IBMPlexSans-Regular" font-size="10.00">errorcodes.h</text>
</a>
</g>
</g>
<!-- Node1&#45;&gt;Node6 -->
<g id="edge5_Node000001_Node000006" class="edge">
<title>Node1&#45;&gt;Node6</title>
<g id="a_edge5_Node000001_Node000006"><a xlink:title=" ">
<path fill="none" stroke="#63b8ff" d="M261.71,-275.84C226.92,-249.22 124.53,-170.87 80.28,-137.01"/>
<polygon fill="#63b8ff" stroke="#63b8ff" points="82.56,-134.35 72.49,-131.05 78.31,-139.91 82.56,-134.35"/>
</a>
</g>
</g>
<!-- Node7 -->
<g id="Node000007" class="node">
<title>Node7</title>
<g id="a_Node000007"><a xlink:href="par__mpi_8h.html" target="_top" xlink:title="MPI headers.">
<polygon fill="white" stroke="#666666" points="302.52,-185 244.52,-185 244.52,-165.75 302.52,-165.75 302.52,-185"/>
<text text-anchor="middle" x="273.52" y="-171.5" font-family="IBMPlexSans-Regular" font-size="10.00">par_mpi.h</text>
</a>
</g>
</g>
<!-- Node1&#45;&gt;Node7 -->
<g id="edge6_Node000001_Node000007" class="edge">
<title>Node1&#45;&gt;Node7</title>
<g id="a_edge6_Node000001_Node000007"><a xlink:title=" ">
<path fill="none" stroke="#63b8ff" d="M273.52,-276C273.52,-258.75 273.52,-220.33 273.52,-196.56"/>
<polygon fill="#63b8ff" stroke="#63b8ff" points="277.02,-196.89 273.52,-186.89 270.02,-196.89 277.02,-196.89"/>
</a>
</g>
</g>
<!-- Node9 -->
<g id="Node000009" class="node">
<title>Node9</title>
<g id="a_Node000009"><a xlink:title=" ">
<polygon fill="#e0e0e0" stroke="#999999" points="156.77,-129.75 112.27,-129.75 112.27,-110.5 156.77,-110.5 156.77,-129.75"/>
<text text-anchor="middle" x="134.52" y="-116.25" font-family="IBMPlexSans-Regular" font-size="10.00">stdio.h</text>
</a>
</g>
</g>
<!-- Node1&#45;&gt;Node9 -->
<g id="edge19_Node000001_Node000009" class="edge">
<title>Node1&#45;&gt;Node9</title>
<g id="a_edge19_Node000001_Node000009"><a xlink:title=" ">
<path fill="none" stroke="#63b8ff" d="M266.05,-276.07C243.98,-250.08 178.85,-173.34 149.34,-138.59"/>
<polygon fill="#63b8ff" stroke="#63b8ff" points="152.15,-136.49 143.01,-131.13 146.81,-141.02 152.15,-136.49"/>
</a>
</g>
</g>
<!-- Node10 -->
<g id="Node000010" class="node">
<title>Node10</title>
<g id="a_Node000010"><a xlink:title=" ">
<polygon fill="#e0e0e0" stroke="#999999" points="221.89,-129.75 175.14,-129.75 175.14,-110.5 221.89,-110.5 221.89,-129.75"/>
<text text-anchor="middle" x="198.52" y="-116.25" font-family="IBMPlexSans-Regular" font-size="10.00">stdlib.h</text>
</a>
</g>
</g>
<!-- Node1&#45;&gt;Node10 -->
<g id="edge20_Node000001_Node000010" class="edge">
<title>Node1&#45;&gt;Node10</title>
<g id="a_edge20_Node000001_Node000010"><a xlink:title=" ">
<path fill="none" stroke="#63b8ff" d="M269.49,-276.07C257.79,-250.53 223.63,-175.95 207.35,-140.4"/>
<polygon fill="#63b8ff" stroke="#63b8ff" points="210.55,-138.98 203.2,-131.35 204.18,-141.9 210.55,-138.98"/>
</a>
</g>
</g>
<!-- Node11 -->
<g id="Node000011" class="node">
<title>Node11</title>
<g id="a_Node000011"><a xlink:title=" ">
<polygon fill="#e0e0e0" stroke="#999999" points="398.27,-129.75 350.77,-129.75 350.77,-110.5 398.27,-110.5 398.27,-129.75"/>
<text text-anchor="middle" x="374.52" y="-116.25" font-family="IBMPlexSans-Regular" font-size="10.00">string.h</text>
</a>
</g>
</g>
<!-- Node1&#45;&gt;Node11 -->
<g id="edge21_Node000001_Node000011" class="edge">
<title>Node1&#45;&gt;Node11</title>
<g id="a_edge21_Node000001_Node000011"><a xlink:title=" ">
<path fill="none" stroke="#63b8ff" d="M278.95,-276.07C294.84,-250.3 341.5,-174.65 363.19,-139.49"/>
<polygon fill="#63b8ff" stroke="#63b8ff" points="366,-141.61 368.27,-131.26 360.04,-137.93 366,-141.61"/>
</a>
</g>
</g>
<!-- Node12 -->
<g id="Node000012" class="node">
<title>Node12</title>
<g id="a_Node000012"><a xlink:href="random_8h.html" target="_top" xlink:title="Header for random number configuration.">
<polygon fill="white" stroke="#666666" points="425.39,-240.25 369.64,-240.25 369.64,-221 425.39,-221 425.39,-240.25"/>
<text text-anchor="middle" x="397.52" y="-226.75" font-family="IBMPlexSans-Regular" font-size="10.00">random.h</text>
</a>
</g>
</g>
<!-- Node1&#45;&gt;Node12 -->
<g id="edge14_Node000001_Node000012" class="edge">
<title>Node1&#45;&gt;Node12</title>
<g id="a_edge14_Node000001_Node000012"><a xlink:title=" ">
<path fill="none" stroke="#63b8ff" d="M294.55,-275.84C314.15,-267.43 343.63,-254.77 366.03,-245.15"/>
<polygon fill="#63b8ff" stroke="#63b8ff" points="367.18,-248.46 374.99,-241.3 364.42,-242.03 367.18,-248.46"/>
</a>
</g>
</g>
<!-- Node13 -->
<g id="Node000013" class="node">
<title>Node13</title>
<g id="a_Node000013"><a xlink:title=" ">
<polygon fill="#e0e0e0" stroke="#999999" points="605.64,-240.25 563.39,-240.25 563.39,-221 605.64,-221 605.64,-240.25"/>
<text text-anchor="middle" x="584.52" y="-226.75" font-family="IBMPlexSans-Regular" font-size="10.00">time.h</text>
</a>
</g>
</g>
<!-- Node1&#45;&gt;Node13 -->
<g id="edge22_Node000001_Node000013" class="edge">
<title>Node1&#45;&gt;Node13</title>
<g id="a_edge22_Node000001_Node000013"><a xlink:title=" ">
<path fill="none" stroke="#63b8ff" d="M331.12,-276.95C387.13,-268.93 474.49,-255.53 549.52,-240.25 550.35,-240.08 551.18,-239.91 552.03,-239.73"/>
<polygon fill="#63b8ff" stroke="#63b8ff" points="552.67,-243.17 561.63,-237.53 551.11,-236.35 552.67,-243.17"/>
</a>
</g>
</g>
<!-- Node3 -->
<g id="Node000003" class="node">
<title>Node3</title>
<g id="a_Node000003"><a xlink:title=" ">
<polygon fill="#e0e0e0" stroke="#999999" points="527.14,-74.5 481.89,-74.5 481.89,-55.25 527.14,-55.25 527.14,-74.5"/>
<text text-anchor="middle" x="504.52" y="-61" font-family="IBMPlexSans-Regular" font-size="10.00">math.h</text>
</a>
</g>
</g>
<!-- Node2&#45;&gt;Node3 -->
<g id="edge2_Node000002_Node000003" class="edge">
<title>Node2&#45;&gt;Node3</title>
<g id="a_edge2_Node000002_Node000003"><a xlink:title=" ">
<path fill="none" stroke="#63b8ff" d="M482.81,-110.33C486.14,-103.51 490.88,-93.81 495.08,-85.2"/>
<polygon fill="#63b8ff" stroke="#63b8ff" points="498.23,-86.74 499.47,-76.22 491.94,-83.67 498.23,-86.74"/>
</a>
</g>
</g>
<!-- Node2&#45;&gt;Node4 -->
<g id="edge3_Node000002_Node000004" class="edge">
<title>Node2&#45;&gt;Node4</title>
<g id="a_edge3_Node000002_Node000004"><a xlink:title=" ">
<path fill="none" stroke="#63b8ff" d="M458.16,-110.09C439.29,-101.72 410.93,-89.13 389.29,-79.53"/>
<polygon fill="#63b8ff" stroke="#63b8ff" points="390.92,-76.42 380.36,-75.57 388.08,-82.82 390.92,-76.42"/>
</a>
</g>
</g>
<!-- Node5 -->
<g id="Node000005" class="node">
<title>Node5</title>
<g id="a_Node000005"><a xlink:title=" ">
<polygon fill="#e0e0e0" stroke="#999999" points="388.27,-19.25 328.77,-19.25 328.77,0 388.27,0 388.27,-19.25"/>
<text text-anchor="middle" x="358.52" y="-5.75" font-family="IBMPlexSans-Regular" font-size="10.00">complex.h</text>
</a>
</g>
</g>
<!-- Node4&#45;&gt;Node5 -->
<g id="edge4_Node000004_Node000005" class="edge">
<title>Node4&#45;&gt;Node5</title>
<g id="a_edge4_Node000004_Node000005"><a xlink:title=" ">
<path fill="none" stroke="#63b8ff" d="M358.52,-55.08C358.52,-48.57 358.52,-39.42 358.52,-31.12"/>
<polygon fill="#63b8ff" stroke="#63b8ff" points="362.02,-31.12 358.52,-21.12 355.02,-31.12 362.02,-31.12"/>
</a>
</g>
</g>
<!-- Node7&#45;&gt;Node2 -->
<g id="edge7_Node000007_Node000002" class="edge">
<title>Node7&#45;&gt;Node2</title>
<g id="a_edge7_Node000007_Node000002"><a xlink:title=" ">
<path fill="none" stroke="#63b8ff" d="M302.89,-166.75C339.97,-157.11 403.7,-140.56 443.34,-130.26"/>
<polygon fill="#63b8ff" stroke="#63b8ff" points="444.06,-133.69 452.86,-127.79 442.3,-126.92 444.06,-133.69"/>
</a>
</g>
</g>
<!-- Node7&#45;&gt;Node4 -->
<g id="edge9_Node000007_Node000004" class="edge">
<title>Node7&#45;&gt;Node4</title>
<g id="a_edge9_Node000007_Node000004"><a xlink:title=" ">
<path fill="none" stroke="#63b8ff" d="M269.89,-165.33C265.26,-152.18 259.01,-127.52 269.52,-110.5 281.49,-91.11 304.74,-79.85 324.47,-73.5"/>
<polygon fill="#63b8ff" stroke="#63b8ff" points="325.19,-76.93 333.82,-70.79 323.25,-70.21 325.19,-76.93"/>
</a>
</g>
</g>
<!-- Node7&#45;&gt;Node6 -->
<g id="edge8_Node000007_Node000006" class="edge">
<title>Node7&#45;&gt;Node6</title>
<g id="a_edge8_Node000007_Node000006"><a xlink:title=" ">
<path fill="none" stroke="#63b8ff" d="M244.21,-167.08C208.46,-158.19 147.58,-143.04 105.55,-132.58"/>
<polygon fill="#63b8ff" stroke="#63b8ff" points="106.52,-129.21 95.97,-130.19 104.83,-136.01 106.52,-129.21"/>
</a>
</g>
</g>
<!-- Node8 -->
<g id="Node000008" class="node">
<title>Node8</title>
<g id="a_Node000008"><a xlink:title=" ">
<polygon fill="#e0e0e0" stroke="#999999" points="333.02,-129.75 278.02,-129.75 278.02,-110.5 333.02,-110.5 333.02,-129.75"/>
<text text-anchor="middle" x="305.52" y="-116.25" font-family="IBMPlexSans-Regular" font-size="10.00">stdbool.h</text>
</a>
</g>
</g>
<!-- Node7&#45;&gt;Node8 -->
<g id="edge10_Node000007_Node000008" class="edge">
<title>Node7&#45;&gt;Node8</title>
<g id="a_edge10_Node000007_Node000008"><a xlink:title=" ">
<path fill="none" stroke="#63b8ff" d="M278.8,-165.58C282.99,-158.61 289,-148.62 294.25,-139.87"/>
<polygon fill="#63b8ff" stroke="#63b8ff" points="297.19,-141.78 299.34,-131.41 291.19,-138.18 297.19,-141.78"/>
</a>
</g>
</g>
<!-- Node7&#45;&gt;Node9 -->
<g id="edge11_Node000007_Node000009" class="edge">
<title>Node7&#45;&gt;Node9</title>
<g id="a_edge11_Node000007_Node000009"><a xlink:title=" ">
<path fill="none" stroke="#63b8ff" d="M249.94,-165.34C227.27,-156.66 192.8,-143.45 167.43,-133.73"/>
<polygon fill="#63b8ff" stroke="#63b8ff" points="168.84,-130.52 158.25,-130.21 166.33,-137.06 168.84,-130.52"/>
</a>
</g>
</g>
<!-- Node7&#45;&gt;Node10 -->
<g id="edge12_Node000007_Node000010" class="edge">
<title>Node7&#45;&gt;Node10</title>
<g id="a_edge12_Node000007_Node000010"><a xlink:title=" ">
<path fill="none" stroke="#63b8ff" d="M260.8,-165.34C249.81,-157.54 233.68,-146.09 220.59,-136.79"/>
<polygon fill="#63b8ff" stroke="#63b8ff" points="222.72,-134.01 212.54,-131.08 218.67,-139.72 222.72,-134.01"/>
</a>
</g>
</g>
<!-- Node7&#45;&gt;Node11 -->
<g id="edge13_Node000007_Node000011" class="edge">
<title>Node7&#45;&gt;Node11</title>
<g id="a_edge13_Node000007_Node000011"><a xlink:title=" ">
<path fill="none" stroke="#63b8ff" d="M290.65,-165.34C306.18,-157.16 329.32,-144.96 347.36,-135.44"/>
<polygon fill="#63b8ff" stroke="#63b8ff" points="348.75,-138.67 355.96,-130.91 345.48,-132.48 348.75,-138.67"/>
</a>
</g>
</g>
<!-- Node12&#45;&gt;Node3 -->
<g id="edge15_Node000012_Node000003" class="edge">
<title>Node12&#45;&gt;Node3</title>
<g id="a_edge15_Node000012_Node000003"><a xlink:title=" ">
<path fill="none" stroke="#63b8ff" d="M415.19,-220.59C441.92,-205.8 491.63,-173.61 511.52,-129.75 517.87,-115.75 515.35,-98.31 511.68,-85.19"/>
<polygon fill="#63b8ff" stroke="#63b8ff" points="515.11,-84.43 508.67,-76.02 508.46,-86.62 515.11,-84.43"/>
</a>
</g>
</g>
<!-- Node12&#45;&gt;Node4 -->
<g id="edge17_Node000012_Node000004" class="edge">
<title>Node12&#45;&gt;Node4</title>
<g id="a_edge17_Node000012_Node000004"><a xlink:title=" ">
<path fill="none" stroke="#63b8ff" d="M401.04,-220.78C408.6,-200.33 424.38,-148.66 407.52,-110.5 402.36,-98.82 392.46,-88.88 382.9,-81.36"/>
<polygon fill="#63b8ff" stroke="#63b8ff" points="385.03,-78.58 374.88,-75.57 380.94,-84.26 385.03,-78.58"/>
</a>
</g>
</g>
<!-- Node12&#45;&gt;Node7 -->
<g id="edge16_Node000012_Node000007" class="edge">
<title>Node12&#45;&gt;Node7</title>
<g id="a_edge16_Node000012_Node000007"><a xlink:title=" ">
<path fill="none" stroke="#63b8ff" d="M376.48,-220.59C356.89,-212.18 327.41,-199.52 305.01,-189.9"/>
<polygon fill="#63b8ff" stroke="#63b8ff" points="306.62,-186.78 296.05,-186.05 303.85,-193.21 306.62,-186.78"/>
</a>
</g>
</g>
</g>
</svg>
