<?xml version="1.0" encoding="UTF-8" standalone="no"?>
<!DOCTYPE svg PUBLIC "-//W3C//DTD SVG 1.1//EN"
 "http://www.w3.org/Graphics/SVG/1.1/DTD/svg11.dtd">
<!-- Generated by graphviz version 12.1.2 (20240928.0832)
 -->
<!-- Title: Gauss_c Pages: 1 -->
<svg width="153pt" height="64pt"
 viewBox="0.00 0.00 152.50 64.25" xmlns="http://www.w3.org/2000/svg" xmlns:xlink="http://www.w3.org/1999/xlink">
<g id="graph0" class="graph" transform="scale(1 1) rotate(0) translate(4 60.25)">
<title>Gauss_c</title>
<!-- Node1 -->
<g id="Node000001" class="node">
<title>Node1</title>
<g id="a_Node000001"><a xlink:title="Generates a vector of normally distributed random single precision complex numbers using the Box&#45;Mull...">
<polygon fill="#999999" stroke="#666666" points="144.5,-37.25 89.5,-37.25 89.5,-18 144.5,-18 144.5,-37.25"/>
<text text-anchor="middle" x="117" y="-23.75" font-family="IBMPlexSans-Regular" font-size="10.00">Gauss_c</text>
</a>
</g>
</g>
<!-- Node2 -->
<g id="Node000002" class="node">
<title>Node2</title>
<g id="a_Node000002"><a xlink:href="main_8c.html#a0ddf1224851353fc92bfbff6f499fa97" target="_top" xlink:title=" ">
<polygon fill="white" stroke="#666666" points="45.25,-56.25 8.25,-56.25 8.25,-37 45.25,-37 45.25,-56.25"/>
<text text-anchor="middle" x="26.75" y="-42.75" font-family="IBMPlexSans-Regular" font-size="10.00">main</text>
</a>
</g>
</g>
<!-- Node1&#45;&gt;Node2 -->
<g id="edge1_Node000001_Node000002" class="edge">
<title>Node1&#45;&gt;Node2</title>
<g id="a_edge1_Node000001_Node000002"><a xlink:title=" ">
<path fill="none" stroke="#63b8ff" d="M78.07,-35.79C66.8,-38.22 54.98,-40.76 45.63,-42.78"/>
<polygon fill="#63b8ff" stroke="#63b8ff" points="78.52,-39.27 87.56,-33.75 77.05,-32.43 78.52,-39.27"/>
</a>
</g>
</g>
<!-- Node3 -->
<g id="Node000003" class="node">
<title>Node3</title>
<g id="a_Node000003"><a xlink:href="fermionic_8c.html#a38464140ca960a533faa9e49b6ee6131" target="_top" xlink:title="Calculate fermion expectation values via a noisy estimator.">
<polygon fill="white" stroke="#666666" points="53.5,-19.25 0,-19.25 0,0 53.5,0 53.5,-19.25"/>
<text text-anchor="middle" x="26.75" y="-5.75" font-family="IBMPlexSans-Regular" font-size="10.00">Measure</text>
</a>
</g>
</g>
<!-- Node1&#45;&gt;Node3 -->
<g id="edge2_Node000001_Node000003" class="edge">
<title>Node1&#45;&gt;Node3</title>
<g id="a_edge2_Node000001_Node000003"><a xlink:title=" ">
<path fill="none" stroke="#63b8ff" d="M77.91,-19.86C69.82,-18.21 61.46,-16.5 53.94,-14.97"/>
<polygon fill="#63b8ff" stroke="#63b8ff" points="77.06,-23.25 87.56,-21.82 78.46,-16.4 77.06,-23.25"/>
</a>
</g>
</g>
</g>
</svg>
