<?xml version="1.0" encoding="UTF-8" standalone="no"?>
<!DOCTYPE svg PUBLIC "-//W3C//DTD SVG 1.1//EN"
 "http://www.w3.org/Graphics/SVG/1.1/DTD/svg11.dtd">
<!-- Generated by graphviz version 11.0.0 (20240428.1522)
 -->
<!-- Title: production_c/random.c Pages: 1 -->
<svg width="614pt" height="304pt"
 viewBox="0.00 0.00 613.53 303.50" xmlns="http://www.w3.org/2000/svg" xmlns:xlink="http://www.w3.org/1999/xlink">
<g id="graph0" class="graph" transform="scale(1 1) rotate(0) translate(4 299.5)">
<title>production_c/random.c</title>
<!-- Node1 -->
<g id="Node000001" class="node">
<title>Node1</title>
<g id="a_Node000001"><a xlink:title="Random number generator related routines.">
<polygon fill="#999999" stroke="#666666" points="326.53,-295.5 212.28,-295.5 212.28,-276.25 326.53,-276.25 326.53,-295.5"/>
<text text-anchor="middle" x="269.4" y="-282" font-family="IBMPlexSans-Regular" font-size="10.00">production_c/random.c</text>
</a>
</g>
</g>
<!-- Node2 -->
<g id="Node000002" class="node">
<title>Node2</title>
<g id="a_Node000002"><a xlink:href="coord_8h.html" target="_top" xlink:title="Header for routines related to lattice sites.">
<polygon fill="white" stroke="#666666" points="502.15,-129.75 454.65,-129.75 454.65,-110.5 502.15,-110.5 502.15,-129.75"/>
<text text-anchor="middle" x="478.4" y="-116.25" font-family="IBMPlexSans-Regular" font-size="10.00">coord.h</text>
</a>
</g>
</g>
<!-- Node1&#45;&gt;Node2 -->
<g id="edge1_Node000001_Node000002" class="edge">
<title>Node1&#45;&gt;Node2</title>
<g id="a_edge1_Node000001_Node000002"><a xlink:title=" ">
<path fill="none" stroke="#63b8ff" d="M326.91,-278.43C376.06,-271.7 441.57,-259.42 459.4,-240.25 484.4,-213.36 484.07,-167.44 481.38,-141.15"/>
<polygon fill="#63b8ff" stroke="#63b8ff" points="484.89,-140.98 480.16,-131.5 477.94,-141.86 484.89,-140.98"/>
</a>
</g>
</g>
<!-- Node4 -->
<g id="Node000004" class="node">
<title>Node4</title>
<g id="a_Node000004"><a xlink:href="sizes_8h.html" target="_top" xlink:title="Defines the constants of the code and other parameters for loop dimensions. Each subroutine includes ...">
<polygon fill="white" stroke="#666666" points="381.4,-74.5 335.4,-74.5 335.4,-55.25 381.4,-55.25 381.4,-74.5"/>
<text text-anchor="middle" x="358.4" y="-61" font-family="IBMPlexSans-Regular" font-size="10.00">sizes.h</text>
</a>
</g>
</g>
<!-- Node1&#45;&gt;Node4 -->
<g id="edge19_Node000001_Node000004" class="edge">
<title>Node1&#45;&gt;Node4</title>
<g id="a_edge19_Node000001_Node000004"><a xlink:title=" ">
<path fill="none" stroke="#63b8ff" d="M231.07,-275.79C143.96,-253.47 -55.99,-191.78 15.4,-110.5 35.56,-87.55 240.4,-72.89 323.57,-67.84"/>
<polygon fill="#63b8ff" stroke="#63b8ff" points="323.64,-71.34 333.42,-67.26 323.23,-64.35 323.64,-71.34"/>
</a>
</g>
</g>
<!-- Node6 -->
<g id="Node000006" class="node">
<title>Node6</title>
<g id="a_Node000006"><a xlink:href="errorcodes_8h.html" target="_top" xlink:title="This header is intended to be a useful reference for error codes and their meanings.">
<polygon fill="white" stroke="#666666" points="94.03,-129.75 24.78,-129.75 24.78,-110.5 94.03,-110.5 94.03,-129.75"/>
<text text-anchor="middle" x="59.4" y="-116.25" font-family="IBMPlexSans-Regular" font-size="10.00">errorcodes.h</text>
</a>
</g>
</g>
<!-- Node1&#45;&gt;Node6 -->
<g id="edge5_Node000001_Node000006" class="edge">
<title>Node1&#45;&gt;Node6</title>
<g id="a_edge5_Node000001_Node000006"><a xlink:title=" ">
<path fill="none" stroke="#63b8ff" d="M227.55,-275.82C202.8,-268.98 171.82,-257.73 148.4,-240.25 111.64,-212.81 83.03,-166.06 68.97,-140.04"/>
<polygon fill="#63b8ff" stroke="#63b8ff" points="72.14,-138.55 64.4,-131.32 65.94,-141.8 72.14,-138.55"/>
</a>
</g>
</g>
<!-- Node7 -->
<g id="Node000007" class="node">
<title>Node7</title>
<g id="a_Node000007"><a xlink:title=" ">
<polygon fill="#e0e0e0" stroke="#999999" points="213.03,-240.25 173.78,-240.25 173.78,-221 213.03,-221 213.03,-240.25"/>
<text text-anchor="middle" x="193.4" y="-226.75" font-family="IBMPlexSans-Regular" font-size="10.00">mpi.h</text>
</a>
</g>
</g>
<!-- Node1&#45;&gt;Node7 -->
<g id="edge6_Node000001_Node000007" class="edge">
<title>Node1&#45;&gt;Node7</title>
<g id="a_edge6_Node000001_Node000007"><a xlink:title=" ">
<path fill="none" stroke="#63b8ff" d="M256.51,-275.84C245.37,-268.04 229.03,-256.59 215.76,-247.29"/>
<polygon fill="#63b8ff" stroke="#63b8ff" points="217.79,-244.44 207.6,-241.57 213.78,-250.18 217.79,-244.44"/>
</a>
</g>
</g>
<!-- Node8 -->
<g id="Node000008" class="node">
<title>Node8</title>
<g id="a_Node000008"><a xlink:href="par__mpi_8h.html" target="_top" xlink:title="MPI headers.">
<polygon fill="white" stroke="#666666" points="327.4,-185 269.4,-185 269.4,-165.75 327.4,-165.75 327.4,-185"/>
<text text-anchor="middle" x="298.4" y="-171.5" font-family="IBMPlexSans-Regular" font-size="10.00">par_mpi.h</text>
</a>
</g>
</g>
<!-- Node1&#45;&gt;Node8 -->
<g id="edge7_Node000001_Node000008" class="edge">
<title>Node1&#45;&gt;Node8</title>
<g id="a_edge7_Node000001_Node000008"><a xlink:title=" ">
<path fill="none" stroke="#63b8ff" d="M271.77,-276C276.4,-258.67 286.75,-219.98 293.09,-196.24"/>
<polygon fill="#63b8ff" stroke="#63b8ff" points="296.4,-197.4 295.6,-186.84 289.64,-195.6 296.4,-197.4"/>
</a>
</g>
</g>
<!-- Node10 -->
<g id="Node000010" class="node">
<title>Node10</title>
<g id="a_Node000010"><a xlink:title=" ">
<polygon fill="#e0e0e0" stroke="#999999" points="156.65,-129.75 112.15,-129.75 112.15,-110.5 156.65,-110.5 156.65,-129.75"/>
<text text-anchor="middle" x="134.4" y="-116.25" font-family="IBMPlexSans-Regular" font-size="10.00">stdio.h</text>
</a>
</g>
</g>
<!-- Node1&#45;&gt;Node10 -->
<g id="edge20_Node000001_Node000010" class="edge">
<title>Node1&#45;&gt;Node10</title>
<g id="a_edge20_Node000001_Node000010"><a xlink:title=" ">
<path fill="none" stroke="#63b8ff" d="M225.07,-275.76C203.89,-269.24 179.85,-258.31 164.4,-240.25 140.32,-212.11 135.1,-167.33 134.24,-141.44"/>
<polygon fill="#63b8ff" stroke="#63b8ff" points="137.74,-141.57 134.12,-131.61 130.74,-141.65 137.74,-141.57"/>
</a>
</g>
</g>
<!-- Node11 -->
<g id="Node000011" class="node">
<title>Node11</title>
<g id="a_Node000011"><a xlink:title=" ">
<polygon fill="#e0e0e0" stroke="#999999" points="221.78,-129.75 175.03,-129.75 175.03,-110.5 221.78,-110.5 221.78,-129.75"/>
<text text-anchor="middle" x="198.4" y="-116.25" font-family="IBMPlexSans-Regular" font-size="10.00">stdlib.h</text>
</a>
</g>
</g>
<!-- Node1&#45;&gt;Node11 -->
<g id="edge21_Node000001_Node000011" class="edge">
<title>Node1&#45;&gt;Node11</title>
<g id="a_edge21_Node000001_Node000011"><a xlink:title=" ">
<path fill="none" stroke="#63b8ff" d="M265.58,-276.07C254.51,-250.53 222.17,-175.95 206.76,-140.4"/>
<polygon fill="#63b8ff" stroke="#63b8ff" points="210.03,-139.14 202.84,-131.36 203.61,-141.93 210.03,-139.14"/>
</a>
</g>
</g>
<!-- Node12 -->
<g id="Node000012" class="node">
<title>Node12</title>
<g id="a_Node000012"><a xlink:title=" ">
<polygon fill="#e0e0e0" stroke="#999999" points="398.15,-129.75 350.65,-129.75 350.65,-110.5 398.15,-110.5 398.15,-129.75"/>
<text text-anchor="middle" x="374.4" y="-116.25" font-family="IBMPlexSans-Regular" font-size="10.00">string.h</text>
</a>
</g>
</g>
<!-- Node1&#45;&gt;Node12 -->
<g id="edge22_Node000001_Node000012" class="edge">
<title>Node1&#45;&gt;Node12</title>
<g id="a_edge22_Node000001_Node000012"><a xlink:title=" ">
<path fill="none" stroke="#63b8ff" d="M275.66,-275.89C287.72,-258.53 314.87,-219.06 336.4,-185 345.89,-169.98 356.17,-152.65 363.63,-139.83"/>
<polygon fill="#63b8ff" stroke="#63b8ff" points="366.64,-141.61 368.63,-131.2 360.59,-138.1 366.64,-141.61"/>
</a>
</g>
</g>
<!-- Node13 -->
<g id="Node000013" class="node">
<title>Node13</title>
<g id="a_Node000013"><a xlink:href="random_8h.html" target="_top" xlink:title="Header for random number configuration.">
<polygon fill="white" stroke="#666666" points="450.28,-240.25 394.53,-240.25 394.53,-221 450.28,-221 450.28,-240.25"/>
<text text-anchor="middle" x="422.4" y="-226.75" font-family="IBMPlexSans-Regular" font-size="10.00">random.h</text>
</a>
</g>
</g>
<!-- Node1&#45;&gt;Node13 -->
<g id="edge15_Node000001_Node000013" class="edge">
<title>Node1&#45;&gt;Node13</title>
<g id="a_edge15_Node000001_Node000013"><a xlink:title=" ">
<path fill="none" stroke="#63b8ff" d="M295.35,-275.84C320.19,-267.2 357.9,-254.07 385.78,-244.37"/>
<polygon fill="#63b8ff" stroke="#63b8ff" points="386.6,-247.79 394.89,-241.2 384.29,-241.18 386.6,-247.79"/>
</a>
</g>
</g>
<!-- Node14 -->
<g id="Node000014" class="node">
<title>Node14</title>
<g id="a_Node000014"><a xlink:title=" ">
<polygon fill="#e0e0e0" stroke="#999999" points="605.53,-240.25 563.28,-240.25 563.28,-221 605.53,-221 605.53,-240.25"/>
<text text-anchor="middle" x="584.4" y="-226.75" font-family="IBMPlexSans-Regular" font-size="10.00">time.h</text>
</a>
</g>
</g>
<!-- Node1&#45;&gt;Node14 -->
<g id="edge23_Node000001_Node000014" class="edge">
<title>Node1&#45;&gt;Node14</title>
<g id="a_edge23_Node000001_Node000014"><a xlink:title=" ">
<path fill="none" stroke="#63b8ff" d="M326.76,-277.16C383.54,-269.2 472.81,-255.76 549.4,-240.25 550.23,-240.08 551.07,-239.91 551.91,-239.73"/>
<polygon fill="#63b8ff" stroke="#63b8ff" points="552.55,-243.17 561.52,-237.54 550.99,-236.35 552.55,-243.17"/>
</a>
</g>
</g>
<!-- Node3 -->
<g id="Node000003" class="node">
<title>Node3</title>
<g id="a_Node000003"><a xlink:title=" ">
<polygon fill="#e0e0e0" stroke="#999999" points="527.03,-74.5 481.78,-74.5 481.78,-55.25 527.03,-55.25 527.03,-74.5"/>
<text text-anchor="middle" x="504.4" y="-61" font-family="IBMPlexSans-Regular" font-size="10.00">math.h</text>
</a>
</g>
</g>
<!-- Node2&#45;&gt;Node3 -->
<g id="edge2_Node000002_Node000003" class="edge">
<title>Node2&#45;&gt;Node3</title>
<g id="a_edge2_Node000002_Node000003"><a xlink:title=" ">
<path fill="none" stroke="#63b8ff" d="M482.69,-110.33C486.02,-103.51 490.76,-93.81 494.96,-85.2"/>
<polygon fill="#63b8ff" stroke="#63b8ff" points="498.11,-86.74 499.35,-76.22 491.82,-83.67 498.11,-86.74"/>
</a>
</g>
</g>
<!-- Node2&#45;&gt;Node4 -->
<g id="edge3_Node000002_Node000004" class="edge">
<title>Node2&#45;&gt;Node4</title>
<g id="a_edge3_Node000002_Node000004"><a xlink:title=" ">
<path fill="none" stroke="#63b8ff" d="M458.04,-110.09C439.17,-101.72 410.81,-89.13 389.17,-79.53"/>
<polygon fill="#63b8ff" stroke="#63b8ff" points="390.8,-76.42 380.24,-75.57 387.96,-82.82 390.8,-76.42"/>
</a>
</g>
</g>
<!-- Node5 -->
<g id="Node000005" class="node">
<title>Node5</title>
<g id="a_Node000005"><a xlink:title=" ">
<polygon fill="#e0e0e0" stroke="#999999" points="388.15,-19.25 328.65,-19.25 328.65,0 388.15,0 388.15,-19.25"/>
<text text-anchor="middle" x="358.4" y="-5.75" font-family="IBMPlexSans-Regular" font-size="10.00">complex.h</text>
</a>
</g>
</g>
<!-- Node4&#45;&gt;Node5 -->
<g id="edge4_Node000004_Node000005" class="edge">
<title>Node4&#45;&gt;Node5</title>
<g id="a_edge4_Node000004_Node000005"><a xlink:title=" ">
<path fill="none" stroke="#63b8ff" d="M358.4,-55.08C358.4,-48.57 358.4,-39.42 358.4,-31.12"/>
<polygon fill="#63b8ff" stroke="#63b8ff" points="361.9,-31.12 358.4,-21.12 354.9,-31.12 361.9,-31.12"/>
</a>
</g>
</g>
<!-- Node8&#45;&gt;Node2 -->
<g id="edge8_Node000008_Node000002" class="edge">
<title>Node8&#45;&gt;Node2</title>
<g id="a_edge8_Node000008_Node000002"><a xlink:title=" ">
<path fill="none" stroke="#63b8ff" d="M327.72,-165.7C359.4,-156.33 409.87,-141.4 443.55,-131.43"/>
<polygon fill="#63b8ff" stroke="#63b8ff" points="444.24,-134.88 452.83,-128.69 442.25,-128.17 444.24,-134.88"/>
</a>
</g>
</g>
<!-- Node8&#45;&gt;Node4 -->
<g id="edge10_Node000008_Node000004" class="edge">
<title>Node8&#45;&gt;Node4</title>
<g id="a_edge10_Node000008_Node000004"><a xlink:title=" ">
<path fill="none" stroke="#63b8ff" d="M288.79,-165.34C276.48,-152.62 258.01,-128.95 269.4,-110.5 281.37,-91.11 304.62,-79.85 324.36,-73.5"/>
<polygon fill="#63b8ff" stroke="#63b8ff" points="325.07,-76.93 333.71,-70.79 323.13,-70.21 325.07,-76.93"/>
</a>
</g>
</g>
<!-- Node8&#45;&gt;Node6 -->
<g id="edge9_Node000008_Node000006" class="edge">
<title>Node8&#45;&gt;Node6</title>
<g id="a_edge9_Node000008_Node000006"><a xlink:title=" ">
<path fill="none" stroke="#63b8ff" d="M269.09,-167.85C228.24,-158.74 153.77,-142.15 105.46,-131.39"/>
<polygon fill="#63b8ff" stroke="#63b8ff" points="106.38,-128.01 95.85,-129.25 104.85,-134.84 106.38,-128.01"/>
</a>
</g>
</g>
<!-- Node9 -->
<g id="Node000009" class="node">
<title>Node9</title>
<g id="a_Node000009"><a xlink:title=" ">
<polygon fill="#e0e0e0" stroke="#999999" points="332.9,-129.75 277.9,-129.75 277.9,-110.5 332.9,-110.5 332.9,-129.75"/>
<text text-anchor="middle" x="305.4" y="-116.25" font-family="IBMPlexSans-Regular" font-size="10.00">stdbool.h</text>
</a>
</g>
</g>
<!-- Node8&#45;&gt;Node9 -->
<g id="edge11_Node000008_Node000009" class="edge">
<title>Node8&#45;&gt;Node9</title>
<g id="a_edge11_Node000008_Node000009"><a xlink:title=" ">
<path fill="none" stroke="#63b8ff" d="M299.56,-165.58C300.42,-158.99 301.64,-149.71 302.74,-141.32"/>
<polygon fill="#63b8ff" stroke="#63b8ff" points="306.19,-141.98 304.02,-131.61 299.25,-141.07 306.19,-141.98"/>
</a>
</g>
</g>
<!-- Node8&#45;&gt;Node10 -->
<g id="edge12_Node000008_Node000010" class="edge">
<title>Node8&#45;&gt;Node10</title>
<g id="a_edge12_Node000008_Node000010"><a xlink:title=" ">
<path fill="none" stroke="#63b8ff" d="M270.58,-165.34C242.22,-156.13 198.2,-141.84 167.93,-132.01"/>
<polygon fill="#63b8ff" stroke="#63b8ff" points="169.1,-128.71 158.51,-128.95 166.94,-135.37 169.1,-128.71"/>
</a>
</g>
</g>
<!-- Node8&#45;&gt;Node11 -->
<g id="edge13_Node000008_Node000011" class="edge">
<title>Node8&#45;&gt;Node11</title>
<g id="a_edge13_Node000008_Node000011"><a xlink:title=" ">
<path fill="none" stroke="#63b8ff" d="M281.44,-165.34C266.14,-157.19 243.37,-145.07 225.54,-135.58"/>
<polygon fill="#63b8ff" stroke="#63b8ff" points="227.25,-132.52 216.78,-130.91 223.96,-138.7 227.25,-132.52"/>
</a>
</g>
</g>
<!-- Node8&#45;&gt;Node12 -->
<g id="edge14_Node000008_Node000012" class="edge">
<title>Node8&#45;&gt;Node12</title>
<g id="a_edge14_Node000008_Node000012"><a xlink:title=" ">
<path fill="none" stroke="#63b8ff" d="M311.29,-165.34C322.43,-157.54 338.77,-146.09 352.04,-136.79"/>
<polygon fill="#63b8ff" stroke="#63b8ff" points="354.02,-139.68 360.21,-131.07 350.01,-133.94 354.02,-139.68"/>
</a>
</g>
</g>
<!-- Node13&#45;&gt;Node3 -->
<g id="edge16_Node000013_Node000003" class="edge">
<title>Node13&#45;&gt;Node3</title>
<g id="a_edge16_Node000013_Node000003"><a xlink:title=" ">
<path fill="none" stroke="#63b8ff" d="M434.94,-220.61C455.58,-204.92 495.94,-170.34 511.4,-129.75 516.76,-115.69 514.52,-98.71 511.21,-85.79"/>
<polygon fill="#63b8ff" stroke="#63b8ff" points="514.6,-84.89 508.36,-76.33 507.9,-86.92 514.6,-84.89"/>
</a>
</g>
</g>
<!-- Node13&#45;&gt;Node4 -->
<g id="edge18_Node000013_Node000004" class="edge">
<title>Node13&#45;&gt;Node4</title>
<g id="a_edge18_Node000013_Node000004"><a xlink:title=" ">
<path fill="none" stroke="#63b8ff" d="M423.29,-220.64C424.94,-199.92 426.7,-147.69 407.4,-110.5 401.52,-99.16 391.52,-89.27 382.09,-81.7"/>
<polygon fill="#63b8ff" stroke="#63b8ff" points="384.34,-79.01 374.23,-75.83 380.15,-84.62 384.34,-79.01"/>
</a>
</g>
</g>
<!-- Node13&#45;&gt;Node8 -->
<g id="edge17_Node000013_Node000008" class="edge">
<title>Node13&#45;&gt;Node8</title>
<g id="a_edge17_Node000013_Node000008"><a xlink:title=" ">
<path fill="none" stroke="#63b8ff" d="M401.37,-220.59C381.77,-212.18 352.29,-199.52 329.89,-189.9"/>
<polygon fill="#63b8ff" stroke="#63b8ff" points="331.5,-186.78 320.93,-186.05 328.74,-193.21 331.5,-186.78"/>
</a>
</g>
</g>
</g>
</svg>
