<?xml version="1.0" encoding="UTF-8" standalone="no"?>
<!DOCTYPE svg PUBLIC "-//W3C//DTD SVG 1.1//EN"
 "http://www.w3.org/Graphics/SVG/1.1/DTD/svg11.dtd">
<!-- Generated by graphviz version 12.2.1 (20241206.2353)
 -->
<!-- Title: Par_granf Pages: 1 -->
<svg width="164pt" height="64pt"
 viewBox="0.00 0.00 163.75 64.25" xmlns="http://www.w3.org/2000/svg" xmlns:xlink="http://www.w3.org/1999/xlink">
<g id="graph0" class="graph" transform="scale(1 1) rotate(0) translate(4 60.25)">
<title>Par_granf</title>
<!-- Node1 -->
<g id="Node000001" class="node">
<title>Node1</title>
<g id="a_Node000001"><a xlink:title="Generates a random double which is then sent to the other ranks.">
<polygon fill="#999999" stroke="#666666" points="58,-37.25 0,-37.25 0,-18 58,-18 58,-37.25"/>
<text text-anchor="middle" x="29" y="-23.75" font-family="IBMPlexSans-Regular" font-size="10.00">Par_granf</text>
</a>
</g>
</g>
<!-- Node2 -->
<g id="Node000002" class="node">
<title>Node2</title>
<g id="a_Node000002"><a xlink:href="par__mpi_8h.html#a6067f92fc64a6426e2780a017dc553c7" target="_top" xlink:title="Broadcasts a double to the other processes.">
<polygon fill="white" stroke="#666666" points="155.75,-56.25 94,-56.25 94,-37 155.75,-37 155.75,-56.25"/>
<text text-anchor="middle" x="124.88" y="-42.75" font-family="IBMPlexSans-Regular" font-size="10.00">Par_dcopy</text>
</a>
</g>
</g>
<!-- Node1&#45;&gt;Node2 -->
<g id="edge1_Node000001_Node000002" class="edge">
<title>Node1&#45;&gt;Node2</title>
<g id="a_edge1_Node000001_Node000002"><a xlink:title=" ">
<path fill="none" stroke="#63b8ff" d="M58.42,-33.38C65.98,-34.91 74.29,-36.59 82.39,-38.23"/>
<polygon fill="#63b8ff" stroke="#63b8ff" points="81.61,-41.64 92.11,-40.2 83,-34.78 81.61,-41.64"/>
</a>
</g>
</g>
<!-- Node3 -->
<g id="Node000003" class="node">
<title>Node3</title>
<g id="a_Node000003"><a xlink:href="random_8c.html#afba975c2629ded7c68cb21cfbeb4b496" target="_top" xlink:title="Generates uniformly distributed random double between zero and one as described in numerical recipes....">
<polygon fill="white" stroke="#666666" points="142.25,-19.25 107.5,-19.25 107.5,0 142.25,0 142.25,-19.25"/>
<text text-anchor="middle" x="124.88" y="-5.75" font-family="IBMPlexSans-Regular" font-size="10.00">ran2</text>
</a>
</g>
</g>
<!-- Node1&#45;&gt;Node3 -->
<g id="edge2_Node000001_Node000003" class="edge">
<title>Node1&#45;&gt;Node3</title>
<g id="a_edge2_Node000001_Node000003"><a xlink:title=" ">
<path fill="none" stroke="#63b8ff" d="M58.42,-22.18C70.32,-19.89 84.11,-17.25 95.95,-14.98"/>
<polygon fill="#63b8ff" stroke="#63b8ff" points="96.36,-18.46 105.52,-13.14 95.04,-11.59 96.36,-18.46"/>
</a>
</g>
</g>
</g>
</svg>
