<?xml version="1.0" encoding="UTF-8" standalone="no"?>
<!DOCTYPE svg PUBLIC "-//W3C//DTD SVG 1.1//EN"
 "http://www.w3.org/Graphics/SVG/1.1/DTD/svg11.dtd">
<!-- Generated by graphviz version 12.2.1 (20241206.2353)
 -->
<!-- Title: INCLUDE/random.h Pages: 1 -->
<svg width="818pt" height="248pt"
 viewBox="0.00 0.00 818.38 248.25" xmlns="http://www.w3.org/2000/svg" xmlns:xlink="http://www.w3.org/1999/xlink">
<g id="graph0" class="graph" transform="scale(1 1) rotate(0) translate(4 244.25)">
<title>INCLUDE/random.h</title>
<!-- Node1 -->
<g id="Node000001" class="node">
<title>Node1</title>
<g id="a_Node000001"><a xlink:title="Header for random number configuration.">
<polygon fill="#999999" stroke="#666666" points="555.38,-240.25 453.12,-240.25 453.12,-221 555.38,-221 555.38,-240.25"/>
<text text-anchor="middle" x="504.25" y="-226.75" font-family="IBMPlexSans-Regular" font-size="10.00">INCLUDE/random.h</text>
</a>
</g>
</g>
<!-- Node2 -->
<g id="Node000002" class="node">
<title>Node2</title>
<g id="a_Node000002"><a xlink:href="integrate_8h.html" target="_top" xlink:title="Integrators for the HMC.">
<polygon fill="white" stroke="#666666" points="433,-185 325.5,-185 325.5,-165.75 433,-165.75 433,-185"/>
<text text-anchor="middle" x="379.25" y="-171.5" font-family="IBMPlexSans-Regular" font-size="10.00">INCLUDE/integrate.h</text>
</a>
</g>
</g>
<!-- Node1&#45;&gt;Node2 -->
<g id="edge1_Node000001_Node000002" class="edge">
<title>Node1&#45;&gt;Node2</title>
<g id="a_edge1_Node000001_Node000002"><a xlink:title=" ">
<path fill="none" stroke="#63b8ff" d="M472.62,-216.15C450.07,-206.54 420.35,-193.88 400.56,-185.45"/>
<polygon fill="#63b8ff" stroke="#63b8ff" points="471.08,-219.3 481.65,-220 473.82,-212.86 471.08,-219.3"/>
</a>
</g>
</g>
<!-- Node5 -->
<g id="Node000005" class="node">
<title>Node5</title>
<g id="a_Node000005"><a xlink:href="main_8c.html" target="_top" xlink:title="Hybrid Monte Carlo algorithm for Two Colour QCD with Wilson&#45;Gor&#39;kov fermions based on the algorithm o...">
<polygon fill="white" stroke="#666666" points="44.5,-19.25 0,-19.25 0,0 44.5,0 44.5,-19.25"/>
<text text-anchor="middle" x="22.25" y="-5.75" font-family="IBMPlexSans-Regular" font-size="10.00">main.c</text>
</a>
</g>
</g>
<!-- Node1&#45;&gt;Node5 -->
<g id="edge16_Node000001_Node000005" class="edge">
<title>Node1&#45;&gt;Node5</title>
<g id="a_edge16_Node000001_Node000005"><a xlink:title=" ">
<path fill="none" stroke="#63b8ff" d="M441.46,-228.99C353.45,-225.16 191.91,-207.1 82.25,-129.75 55.43,-110.83 47.47,-104.08 33.25,-74.5 24.48,-56.24 22.6,-32.08 22.26,-19.34"/>
<polygon fill="#63b8ff" stroke="#63b8ff" points="441.22,-232.48 451.35,-229.36 441.49,-225.49 441.22,-232.48"/>
</a>
</g>
</g>
<!-- Node7 -->
<g id="Node000007" class="node">
<title>Node7</title>
<g id="a_Node000007"><a xlink:href="fermionic_8c.html" target="_top" xlink:title="Code for fermionic observables.">
<polygon fill="white" stroke="#666666" points="198.12,-19.25 76.38,-19.25 76.38,0 198.12,0 198.12,-19.25"/>
<text text-anchor="middle" x="137.25" y="-5.75" font-family="IBMPlexSans-Regular" font-size="10.00">production_c/fermionic.c</text>
</a>
</g>
</g>
<!-- Node1&#45;&gt;Node7 -->
<g id="edge17_Node000001_Node000007" class="edge">
<title>Node1&#45;&gt;Node7</title>
<g id="a_edge17_Node000001_Node000007"><a xlink:title=" ">
<path fill="none" stroke="#63b8ff" d="M442.38,-218.4C327.13,-196.07 87.08,-142.3 41.25,-74.5 23.37,-48.05 65.04,-29.76 98.99,-19.73"/>
<polygon fill="#63b8ff" stroke="#63b8ff" points="441.5,-221.8 451.98,-220.24 442.82,-214.92 441.5,-221.8"/>
</a>
</g>
</g>
<!-- Node10 -->
<g id="Node000010" class="node">
<title>Node10</title>
<g id="a_Node000010"><a xlink:href="su2hmc_8c.html" target="_top" xlink:title="An ecclectic collection of functions used in the HMC.">
<polygon fill="white" stroke="#666666" points="726.5,-19.25 610,-19.25 610,0 726.5,0 726.5,-19.25"/>
<text text-anchor="middle" x="668.25" y="-5.75" font-family="IBMPlexSans-Regular" font-size="10.00">production_c/su2hmc.c</text>
</a>
</g>
</g>
<!-- Node1&#45;&gt;Node10 -->
<g id="edge20_Node000001_Node000010" class="edge">
<title>Node1&#45;&gt;Node10</title>
<g id="a_edge20_Node000001_Node000010"><a xlink:title=" ">
<path fill="none" stroke="#63b8ff" d="M524.22,-213.67C555.39,-187.72 615.53,-133.34 649.25,-74.5 659.6,-56.43 664.79,-32.19 666.96,-19.39"/>
<polygon fill="#63b8ff" stroke="#63b8ff" points="522.23,-210.78 516.71,-219.82 526.66,-216.19 522.23,-210.78"/>
</a>
</g>
</g>
<!-- Node13 -->
<g id="Node000013" class="node">
<title>Node13</title>
<g id="a_Node000013"><a xlink:href="par__mpi_8c.html" target="_top" xlink:title="MPI routines.">
<polygon fill="white" stroke="#666666" points="640.5,-74.5 524,-74.5 524,-55.25 640.5,-55.25 640.5,-74.5"/>
<text text-anchor="middle" x="582.25" y="-61" font-family="IBMPlexSans-Regular" font-size="10.00">production_c/par_mpi.c</text>
</a>
</g>
</g>
<!-- Node1&#45;&gt;Node13 -->
<g id="edge18_Node000001_Node000013" class="edge">
<title>Node1&#45;&gt;Node13</title>
<g id="a_edge18_Node000001_Node000013"><a xlink:title=" ">
<path fill="none" stroke="#63b8ff" d="M513.19,-210.87C530.01,-175.55 565.79,-100.43 578.04,-74.72"/>
<polygon fill="#63b8ff" stroke="#63b8ff" points="510.24,-208.92 509.09,-219.45 516.55,-211.93 510.24,-208.92"/>
</a>
</g>
</g>
<!-- Node14 -->
<g id="Node000014" class="node">
<title>Node14</title>
<g id="a_Node000014"><a xlink:href="random_8c.html" target="_top" xlink:title="Random number generator related routines.">
<polygon fill="white" stroke="#666666" points="810.38,-185 696.12,-185 696.12,-165.75 810.38,-165.75 810.38,-185"/>
<text text-anchor="middle" x="753.25" y="-171.5" font-family="IBMPlexSans-Regular" font-size="10.00">production_c/random.c</text>
</a>
</g>
</g>
<!-- Node1&#45;&gt;Node14 -->
<g id="edge19_Node000001_Node000014" class="edge">
<title>Node1&#45;&gt;Node14</title>
<g id="a_edge19_Node000001_Node000014"><a xlink:title=" ">
<path fill="none" stroke="#63b8ff" d="M557.98,-218.13C603.78,-208.34 668.71,-194.45 710.9,-185.43"/>
<polygon fill="#63b8ff" stroke="#63b8ff" points="557.3,-214.7 548.25,-220.21 558.76,-221.55 557.3,-214.7"/>
</a>
</g>
</g>
<!-- Node3 -->
<g id="Node000003" class="node">
<title>Node3</title>
<g id="a_Node000003"><a xlink:href="su2hmc_8h.html" target="_top" xlink:title="Function declarations for most of the routines.">
<polygon fill="white" stroke="#666666" points="400.5,-129.75 296,-129.75 296,-110.5 400.5,-110.5 400.5,-129.75"/>
<text text-anchor="middle" x="348.25" y="-116.25" font-family="IBMPlexSans-Regular" font-size="10.00">INCLUDE/su2hmc.h</text>
</a>
</g>
</g>
<!-- Node2&#45;&gt;Node3 -->
<g id="edge2_Node000002_Node000003" class="edge">
<title>Node2&#45;&gt;Node3</title>
<g id="a_edge2_Node000002_Node000003"><a xlink:title=" ">
<path fill="none" stroke="#63b8ff" d="M368.47,-155.87C363.4,-147.14 357.57,-137.14 353.48,-130.11"/>
<polygon fill="#63b8ff" stroke="#63b8ff" points="365.31,-157.39 373.37,-164.27 371.36,-153.87 365.31,-157.39"/>
</a>
</g>
</g>
<!-- Node4 -->
<g id="Node000004" class="node">
<title>Node4</title>
<g id="a_Node000004"><a xlink:href="matrices_8h.html" target="_top" xlink:title="Matrix multiplication and related declarations.">
<polygon fill="white" stroke="#666666" points="468,-74.5 360.5,-74.5 360.5,-55.25 468,-55.25 468,-74.5"/>
<text text-anchor="middle" x="414.25" y="-61" font-family="IBMPlexSans-Regular" font-size="10.00">INCLUDE/matrices.h</text>
</a>
</g>
</g>
<!-- Node3&#45;&gt;Node4 -->
<g id="edge3_Node000003_Node000004" class="edge">
<title>Node3&#45;&gt;Node4</title>
<g id="a_edge3_Node000003_Node000004"><a xlink:title=" ">
<path fill="none" stroke="#63b8ff" d="M368.34,-102.91C379.8,-93.67 393.73,-82.43 403.22,-74.77"/>
<polygon fill="#63b8ff" stroke="#63b8ff" points="366.21,-100.14 360.62,-109.14 370.6,-105.59 366.21,-100.14"/>
</a>
</g>
</g>
<!-- Node3&#45;&gt;Node5 -->
<g id="edge10_Node000003_Node000005" class="edge">
<title>Node3&#45;&gt;Node5</title>
<g id="a_edge10_Node000003_Node000005"><a xlink:title=" ">
<path fill="none" stroke="#63b8ff" d="M284.44,-117.74C205.35,-114.72 76.63,-105.1 41.25,-74.5 25.15,-60.58 22.38,-33.67 22.09,-19.64"/>
<polygon fill="#63b8ff" stroke="#63b8ff" points="284.11,-121.23 294.22,-118.09 284.35,-114.24 284.11,-121.23"/>
</a>
</g>
</g>
<!-- Node3&#45;&gt;Node7 -->
<g id="edge12_Node000003_Node000007" class="edge">
<title>Node3&#45;&gt;Node7</title>
<g id="a_edge12_Node000003_Node000007"><a xlink:title=" ">
<path fill="none" stroke="#63b8ff" d="M342.25,-99.47C336.89,-85.15 327.62,-66.38 313.25,-55.25 294.5,-40.73 236.96,-27.86 192.73,-19.72"/>
<polygon fill="#63b8ff" stroke="#63b8ff" points="338.87,-100.4 345.38,-108.76 345.5,-98.16 338.87,-100.4"/>
</a>
</g>
</g>
<!-- Node3&#45;&gt;Node10 -->
<g id="edge15_Node000003_Node000010" class="edge">
<title>Node3&#45;&gt;Node10</title>
<g id="a_edge15_Node000003_Node000010"><a xlink:title=" ">
<path fill="none" stroke="#63b8ff" d="M388.97,-106.61C414.63,-98.34 448.27,-86.79 477.25,-74.5 494.68,-67.11 497.64,-62.21 515.25,-55.25 553.33,-40.2 598.52,-27.64 629.87,-19.71"/>
<polygon fill="#63b8ff" stroke="#63b8ff" points="388.05,-103.23 379.58,-109.6 390.17,-109.9 388.05,-103.23"/>
</a>
</g>
</g>
<!-- Node11 -->
<g id="Node000011" class="node">
<title>Node11</title>
<g id="a_Node000011"><a xlink:href="bosonic_8c.html" target="_top" xlink:title="Code for bosonic observables, Basically polyakov loop and Plaquette routines.">
<polygon fill="white" stroke="#666666" points="166.12,-74.5 50.38,-74.5 50.38,-55.25 166.12,-55.25 166.12,-74.5"/>
<text text-anchor="middle" x="108.25" y="-61" font-family="IBMPlexSans-Regular" font-size="10.00">production_c/bosonic.c</text>
</a>
</g>
</g>
<!-- Node3&#45;&gt;Node11 -->
<g id="edge11_Node000003_Node000011" class="edge">
<title>Node3&#45;&gt;Node11</title>
<g id="a_edge11_Node000003_Node000011"><a xlink:title=" ">
<path fill="none" stroke="#63b8ff" d="M296.18,-107.57C252.05,-97.78 189.65,-83.94 149.07,-74.93"/>
<polygon fill="#63b8ff" stroke="#63b8ff" points="295.27,-110.95 305.79,-109.7 296.78,-104.12 295.27,-110.95"/>
</a>
</g>
</g>
<!-- Node12 -->
<g id="Node000012" class="node">
<title>Node12</title>
<g id="a_Node000012"><a xlink:href="integrate_8c.html" target="_top" xlink:title="Symplectic integrator code.">
<polygon fill="white" stroke="#666666" points="304,-74.5 184.5,-74.5 184.5,-55.25 304,-55.25 304,-74.5"/>
<text text-anchor="middle" x="244.25" y="-61" font-family="IBMPlexSans-Regular" font-size="10.00">production_c/integrate.c</text>
</a>
</g>
</g>
<!-- Node3&#45;&gt;Node12 -->
<g id="edge13_Node000003_Node000012" class="edge">
<title>Node3&#45;&gt;Node12</title>
<g id="a_edge13_Node000003_Node000012"><a xlink:title=" ">
<path fill="none" stroke="#63b8ff" d="M320.39,-104.86C301.83,-95.36 277.99,-83.15 261.98,-74.95"/>
<polygon fill="#63b8ff" stroke="#63b8ff" points="318.76,-107.96 329.26,-109.4 321.95,-101.73 318.76,-107.96"/>
</a>
</g>
</g>
<!-- Node3&#45;&gt;Node13 -->
<g id="edge14_Node000003_Node000013" class="edge">
<title>Node3&#45;&gt;Node13</title>
<g id="a_edge14_Node000003_Node000013"><a xlink:title=" ">
<path fill="none" stroke="#63b8ff" d="M399.29,-107.51C442.3,-97.72 502.97,-83.92 542.45,-74.93"/>
<polygon fill="#63b8ff" stroke="#63b8ff" points="398.66,-104.06 389.69,-109.7 400.21,-110.89 398.66,-104.06"/>
</a>
</g>
</g>
<!-- Node4&#45;&gt;Node5 -->
<g id="edge4_Node000004_Node000005" class="edge">
<title>Node4&#45;&gt;Node5</title>
<g id="a_edge4_Node000004_Node000005"><a xlink:title=" ">
<path fill="none" stroke="#63b8ff" d="M348.75,-56.67C278.86,-48.69 164.97,-34.88 67.25,-19.25 59.87,-18.07 51.84,-16.59 44.63,-15.2"/>
<polygon fill="#63b8ff" stroke="#63b8ff" points="348.17,-60.12 358.5,-57.77 348.96,-53.17 348.17,-60.12"/>
</a>
</g>
</g>
<!-- Node6 -->
<g id="Node000006" class="node">
<title>Node6</title>
<g id="a_Node000006"><a xlink:href="congrad_8c.html" target="_top" xlink:title="Conjugate gradients. Congradq for the solver and Congradp for the inversion.">
<polygon fill="white" stroke="#666666" points="332.5,-19.25 216,-19.25 216,0 332.5,0 332.5,-19.25"/>
<text text-anchor="middle" x="274.25" y="-5.75" font-family="IBMPlexSans-Regular" font-size="10.00">production_c/congrad.c</text>
</a>
</g>
</g>
<!-- Node4&#45;&gt;Node6 -->
<g id="edge5_Node000004_Node000006" class="edge">
<title>Node4&#45;&gt;Node6</title>
<g id="a_edge5_Node000004_Node000006"><a xlink:title=" ">
<path fill="none" stroke="#63b8ff" d="M379.86,-50.79C354.47,-41.14 320.58,-28.25 298.12,-19.7"/>
<polygon fill="#63b8ff" stroke="#63b8ff" points="378.5,-54.02 389.09,-54.3 380.98,-47.48 378.5,-54.02"/>
</a>
</g>
</g>
<!-- Node4&#45;&gt;Node7 -->
<g id="edge6_Node000004_Node000007" class="edge">
<title>Node4&#45;&gt;Node7</title>
<g id="a_edge6_Node000004_Node000007"><a xlink:title=" ">
<path fill="none" stroke="#63b8ff" d="M355.77,-52.63C304.76,-42.83 231.69,-28.78 184.36,-19.68"/>
<polygon fill="#63b8ff" stroke="#63b8ff" points="354.98,-56.04 365.46,-54.5 356.3,-49.17 354.98,-56.04"/>
</a>
</g>
</g>
<!-- Node8 -->
<g id="Node000008" class="node">
<title>Node8</title>
<g id="a_Node000008"><a xlink:href="force_8c.html" target="_top" xlink:title="Code for force calculations.">
<polygon fill="white" stroke="#666666" points="454.12,-19.25 350.38,-19.25 350.38,0 454.12,0 454.12,-19.25"/>
<text text-anchor="middle" x="402.25" y="-5.75" font-family="IBMPlexSans-Regular" font-size="10.00">production_c/force.c</text>
</a>
</g>
</g>
<!-- Node4&#45;&gt;Node8 -->
<g id="edge7_Node000004_Node000008" class="edge">
<title>Node4&#45;&gt;Node8</title>
<g id="a_edge7_Node000004_Node000008"><a xlink:title=" ">
<path fill="none" stroke="#63b8ff" d="M409.75,-43.92C407.87,-35.55 405.77,-26.25 404.27,-19.61"/>
<polygon fill="#63b8ff" stroke="#63b8ff" points="406.32,-44.62 411.94,-53.61 413.15,-43.08 406.32,-44.62"/>
</a>
</g>
</g>
<!-- Node9 -->
<g id="Node000009" class="node">
<title>Node9</title>
<g id="a_Node000009"><a xlink:href="matrices_8c.html" target="_top" xlink:title="Matrix multiplication and related routines.">
<polygon fill="white" stroke="#666666" points="592,-19.25 472.5,-19.25 472.5,0 592,0 592,-19.25"/>
<text text-anchor="middle" x="532.25" y="-5.75" font-family="IBMPlexSans-Regular" font-size="10.00">production_c/matrices.c</text>
</a>
</g>
</g>
<!-- Node4&#45;&gt;Node9 -->
<g id="edge8_Node000004_Node000009" class="edge">
<title>Node4&#45;&gt;Node9</title>
<g id="a_edge8_Node000004_Node000009"><a xlink:title=" ">
<path fill="none" stroke="#63b8ff" d="M444.69,-50.14C465.91,-40.56 493.62,-28.06 512.13,-19.7"/>
<polygon fill="#63b8ff" stroke="#63b8ff" points="443.32,-46.92 435.65,-54.22 446.2,-53.3 443.32,-46.92"/>
</a>
</g>
</g>
<!-- Node4&#45;&gt;Node10 -->
<g id="edge9_Node000004_Node000010" class="edge">
<title>Node4&#45;&gt;Node10</title>
<g id="a_edge9_Node000004_Node000010"><a xlink:title=" ">
<path fill="none" stroke="#63b8ff" d="M468.76,-52.45C515.5,-42.65 581.92,-28.72 625.05,-19.68"/>
<polygon fill="#63b8ff" stroke="#63b8ff" points="468.18,-48.99 459.11,-54.47 469.61,-55.84 468.18,-48.99"/>
</a>
</g>
</g>
</g>
</svg>
