<?xml version="1.0" encoding="UTF-8" standalone="no"?>
<!DOCTYPE svg PUBLIC "-//W3C//DTD SVG 1.1//EN"
 "http://www.w3.org/Graphics/SVG/1.1/DTD/svg11.dtd">
<!-- Generated by graphviz version 12.1.2 (20240928.0832)
 -->
<!-- Title: ran2 Pages: 1 -->
<svg width="226pt" height="212pt"
 viewBox="0.00 0.00 226.25 212.25" xmlns="http://www.w3.org/2000/svg" xmlns:xlink="http://www.w3.org/1999/xlink">
<g id="graph0" class="graph" transform="scale(1 1) rotate(0) translate(4 208.25)">
<title>ran2</title>
<!-- Node1 -->
<g id="Node000001" class="node">
<title>Node1</title>
<g id="a_Node000001"><a xlink:title="Generates uniformly distributed random double between zero and one as described in numerical recipes....">
<polygon fill="#999999" stroke="#666666" points="218.25,-111.25 183.5,-111.25 183.5,-92 218.25,-92 218.25,-111.25"/>
<text text-anchor="middle" x="200.88" y="-97.75" font-family="IBMPlexSans-Regular" font-size="10.00">ran2</text>
</a>
</g>
</g>
<!-- Node2 -->
<g id="Node000002" class="node">
<title>Node2</title>
<g id="a_Node000002"><a xlink:href="random_8c.html#a859e92fda23ce37dad2971362f72a50d" target="_top" xlink:title="Generates a vector of normally distributed random single precision complex numbers using the Box&#45;Mull...">
<polygon fill="white" stroke="#666666" points="146,-56.25 91,-56.25 91,-37 146,-37 146,-56.25"/>
<text text-anchor="middle" x="118.5" y="-42.75" font-family="IBMPlexSans-Regular" font-size="10.00">Gauss_c</text>
</a>
</g>
</g>
<!-- Node1&#45;&gt;Node2 -->
<g id="edge1_Node000001_Node000002" class="edge">
<title>Node1&#45;&gt;Node2</title>
<g id="a_edge1_Node000001_Node000002"><a xlink:title=" ">
<path fill="none" stroke="#63b8ff" d="M177.02,-85.15C167.9,-78.66 157.26,-71.21 147.5,-64.62 143.57,-61.98 139.29,-59.18 135.28,-56.6"/>
<polygon fill="#63b8ff" stroke="#63b8ff" points="174.8,-87.87 184.97,-90.84 178.88,-82.18 174.8,-87.87"/>
</a>
</g>
</g>
<!-- Node5 -->
<g id="Node000005" class="node">
<title>Node5</title>
<g id="a_Node000005"><a xlink:href="random_8c.html#aaaabdcbfe66bb65cb57139509f6ea496" target="_top" xlink:title="Generates a vector of normally distributed random double precision numbers using the Box&#45;Muller Metho...">
<polygon fill="white" stroke="#666666" points="146,-204.25 91,-204.25 91,-185 146,-185 146,-204.25"/>
<text text-anchor="middle" x="118.5" y="-190.75" font-family="IBMPlexSans-Regular" font-size="10.00">Gauss_d</text>
</a>
</g>
</g>
<!-- Node1&#45;&gt;Node5 -->
<g id="edge4_Node000001_Node000005" class="edge">
<title>Node1&#45;&gt;Node5</title>
<g id="a_edge4_Node000001_Node000005"><a xlink:title=" ">
<path fill="none" stroke="#63b8ff" d="M188.95,-121.48C179.43,-137.6 164.51,-160.25 147.5,-176.62 144.5,-179.51 140.98,-182.2 137.46,-184.57"/>
<polygon fill="#63b8ff" stroke="#63b8ff" points="191.96,-123.26 193.88,-112.84 185.89,-119.79 191.96,-123.26"/>
</a>
</g>
</g>
<!-- Node6 -->
<g id="Node000006" class="node">
<title>Node6</title>
<g id="a_Node000006"><a xlink:href="random_8c.html#a28ec9196646124383bb0596983c1e368" target="_top" xlink:title="Generates a vector of normally distributed random single precision numbers using the Box&#45;Muller Metho...">
<polygon fill="white" stroke="#666666" points="144.88,-130.25 92.12,-130.25 92.12,-111 144.88,-111 144.88,-130.25"/>
<text text-anchor="middle" x="118.5" y="-116.75" font-family="IBMPlexSans-Regular" font-size="10.00">Gauss_f</text>
</a>
</g>
</g>
<!-- Node1&#45;&gt;Node6 -->
<g id="edge6_Node000001_Node000006" class="edge">
<title>Node1&#45;&gt;Node6</title>
<g id="a_edge6_Node000001_Node000006"><a xlink:title=" ">
<path fill="none" stroke="#63b8ff" d="M172.08,-108.19C163.4,-110.25 153.86,-112.5 145.31,-114.52"/>
<polygon fill="#63b8ff" stroke="#63b8ff" points="172.82,-111.62 181.75,-105.91 171.21,-104.8 172.82,-111.62"/>
</a>
</g>
</g>
<!-- Node7 -->
<g id="Node000007" class="node">
<title>Node7</title>
<g id="a_Node000007"><a xlink:href="random_8c.html#a82551168563b525cb01462c3f61b9383" target="_top" xlink:title="Generates a vector of normally distributed random double precision complex numbers using the Box&#45;Mull...">
<polygon fill="white" stroke="#666666" points="145.62,-93.25 91.38,-93.25 91.38,-74 145.62,-74 145.62,-93.25"/>
<text text-anchor="middle" x="118.5" y="-79.75" font-family="IBMPlexSans-Regular" font-size="10.00">Gauss_z</text>
</a>
</g>
</g>
<!-- Node1&#45;&gt;Node7 -->
<g id="edge7_Node000001_Node000007" class="edge">
<title>Node1&#45;&gt;Node7</title>
<g id="a_edge7_Node000001_Node000007"><a xlink:title=" ">
<path fill="none" stroke="#63b8ff" d="M171.99,-95.38C163.54,-93.49 154.29,-91.42 145.94,-89.55"/>
<polygon fill="#63b8ff" stroke="#63b8ff" points="171.22,-98.79 181.74,-97.56 172.75,-91.96 171.22,-98.79"/>
</a>
</g>
</g>
<!-- Node8 -->
<g id="Node000008" class="node">
<title>Node8</title>
<g id="a_Node000008"><a xlink:href="su2hmc_8c.html#a1fbc1cb0a07d63c39d8cff966a534d09" target="_top" xlink:title="Initialises the system.">
<polygon fill="white" stroke="#666666" points="133.25,-167.25 103.75,-167.25 103.75,-148 133.25,-148 133.25,-167.25"/>
<text text-anchor="middle" x="118.5" y="-153.75" font-family="IBMPlexSans-Regular" font-size="10.00">Init</text>
</a>
</g>
</g>
<!-- Node1&#45;&gt;Node8 -->
<g id="edge8_Node000001_Node000008" class="edge">
<title>Node1&#45;&gt;Node8</title>
<g id="a_edge8_Node000001_Node000008"><a xlink:title=" ">
<path fill="none" stroke="#63b8ff" d="M177.44,-118.32C168.25,-125.06 157.44,-132.83 147.5,-139.62 143.02,-142.69 138.05,-145.93 133.56,-148.81"/>
<polygon fill="#63b8ff" stroke="#63b8ff" points="179.49,-121.17 185.46,-112.42 175.33,-115.53 179.49,-121.17"/>
</a>
</g>
</g>
<!-- Node9 -->
<g id="Node000009" class="node">
<title>Node9</title>
<g id="a_Node000009"><a xlink:href="random_8c.html#af30389dbea7d2b366abea7a923bb008d" target="_top" xlink:title="Generates a random double which is then sent to the other ranks.">
<polygon fill="white" stroke="#666666" points="147.5,-19.25 89.5,-19.25 89.5,0 147.5,0 147.5,-19.25"/>
<text text-anchor="middle" x="118.5" y="-5.75" font-family="IBMPlexSans-Regular" font-size="10.00">Par_granf</text>
</a>
</g>
</g>
<!-- Node1&#45;&gt;Node9 -->
<g id="edge10_Node000001_Node000009" class="edge">
<title>Node1&#45;&gt;Node9</title>
<g id="a_edge10_Node000001_Node000009"><a xlink:title=" ">
<path fill="none" stroke="#63b8ff" d="M188.74,-81.78C179.18,-65.91 164.32,-43.71 147.5,-27.62 144.49,-24.75 140.96,-22.07 137.44,-19.7"/>
<polygon fill="#63b8ff" stroke="#63b8ff" points="185.65,-83.43 193.7,-90.31 191.7,-79.9 185.65,-83.43"/>
</a>
</g>
</g>
<!-- Node3 -->
<g id="Node000003" class="node">
<title>Node3</title>
<g id="a_Node000003"><a xlink:href="main_8c.html#a0ddf1224851353fc92bfbff6f499fa97" target="_top" xlink:title=" ">
<polygon fill="white" stroke="#666666" points="45.25,-167.25 8.25,-167.25 8.25,-148 45.25,-148 45.25,-167.25"/>
<text text-anchor="middle" x="26.75" y="-153.75" font-family="IBMPlexSans-Regular" font-size="10.00">main</text>
</a>
</g>
</g>
<!-- Node2&#45;&gt;Node3 -->
<g id="edge2_Node000002_Node000003" class="edge">
<title>Node2&#45;&gt;Node3</title>
<g id="a_edge2_Node000002_Node000003"><a xlink:title=" ">
<path fill="none" stroke="#63b8ff" d="M90.64,-63.54C90.25,-63.9 89.87,-64.26 89.5,-64.62 63.13,-90.61 41.74,-129.59 32.57,-147.71"/>
<polygon fill="#63b8ff" stroke="#63b8ff" points="92.57,-66.47 98.3,-57.56 88.26,-60.95 92.57,-66.47"/>
</a>
</g>
</g>
<!-- Node4 -->
<g id="Node000004" class="node">
<title>Node4</title>
<g id="a_Node000004"><a xlink:href="fermionic_8c.html#a38464140ca960a533faa9e49b6ee6131" target="_top" xlink:title="Calculate fermion expectation values via a noisy estimator.">
<polygon fill="white" stroke="#666666" points="53.5,-56.25 0,-56.25 0,-37 53.5,-37 53.5,-56.25"/>
<text text-anchor="middle" x="26.75" y="-42.75" font-family="IBMPlexSans-Regular" font-size="10.00">Measure</text>
</a>
</g>
</g>
<!-- Node2&#45;&gt;Node4 -->
<g id="edge3_Node000002_Node000004" class="edge">
<title>Node2&#45;&gt;Node4</title>
<g id="a_edge3_Node000002_Node000004"><a xlink:title=" ">
<path fill="none" stroke="#63b8ff" d="M79.19,-46.62C70.6,-46.62 61.68,-46.62 53.73,-46.62"/>
<polygon fill="#63b8ff" stroke="#63b8ff" points="79.06,-50.13 89.06,-46.63 79.06,-43.13 79.06,-50.13"/>
</a>
</g>
</g>
<!-- Node5&#45;&gt;Node3 -->
<g id="edge5_Node000005_Node000003" class="edge">
<title>Node5&#45;&gt;Node3</title>
<g id="a_edge5_Node000005_Node000003"><a xlink:title=" ">
<path fill="none" stroke="#63b8ff" d="M82.33,-180.13C69.79,-174.96 56.19,-169.35 45.7,-165.02"/>
<polygon fill="#63b8ff" stroke="#63b8ff" points="81,-183.36 91.58,-183.94 83.66,-176.89 81,-183.36"/>
</a>
</g>
</g>
<!-- Node8&#45;&gt;Node3 -->
<g id="edge9_Node000008_Node000003" class="edge">
<title>Node8&#45;&gt;Node3</title>
<g id="a_edge9_Node000008_Node000003"><a xlink:title=" ">
<path fill="none" stroke="#63b8ff" d="M92.06,-157.62C77.27,-157.62 58.98,-157.62 45.7,-157.62"/>
<polygon fill="#63b8ff" stroke="#63b8ff" points="91.96,-161.13 101.96,-157.63 91.96,-154.13 91.96,-161.13"/>
</a>
</g>
</g>
</g>
</svg>
