<?xml version="1.0" encoding="UTF-8" standalone="no"?>
<!DOCTYPE svg PUBLIC "-//W3C//DTD SVG 1.1//EN"
 "http://www.w3.org/Graphics/SVG/1.1/DTD/svg11.dtd">
<!-- Generated by graphviz version 12.2.1 (20241206.2353)
 -->
<!-- Title: INCLUDE/random.h Pages: 1 -->
<svg width="500pt" height="248pt"
 viewBox="0.00 0.00 500.07 248.25" xmlns="http://www.w3.org/2000/svg" xmlns:xlink="http://www.w3.org/1999/xlink">
<g id="graph0" class="graph" transform="scale(1 1) rotate(0) translate(4 244.25)">
<title>INCLUDE/random.h</title>
<!-- Node1 -->
<g id="Node000001" class="node">
<title>Node1</title>
<g id="a_Node000001"><a xlink:title="Header for random number configuration.">
<polygon fill="#999999" stroke="#666666" points="300.75,-240.25 198.5,-240.25 198.5,-221 300.75,-221 300.75,-240.25"/>
<text text-anchor="middle" x="249.62" y="-226.75" font-family="IBMPlexSans-Regular" font-size="10.00">INCLUDE/random.h</text>
</a>
</g>
</g>
<!-- Node2 -->
<g id="Node000002" class="node">
<title>Node2</title>
<g id="a_Node000002"><a xlink:title=" ">
<polygon fill="#e0e0e0" stroke="#999999" points="45.25,-74.5 0,-74.5 0,-55.25 45.25,-55.25 45.25,-74.5"/>
<text text-anchor="middle" x="22.62" y="-61" font-family="IBMPlexSans-Regular" font-size="10.00">math.h</text>
</a>
</g>
</g>
<!-- Node1&#45;&gt;Node2 -->
<g id="edge1_Node000001_Node000002" class="edge">
<title>Node1&#45;&gt;Node2</title>
<g id="a_edge1_Node000001_Node000002"><a xlink:title=" ">
<path fill="none" stroke="#63b8ff" d="M198.47,-223.36C144.08,-213.67 60.64,-189.43 21.62,-129.75 13.17,-116.81 14.21,-99.04 16.92,-85.52"/>
<polygon fill="#63b8ff" stroke="#63b8ff" points="20.27,-86.58 19.29,-76.03 13.47,-84.89 20.27,-86.58"/>
</a>
</g>
</g>
<!-- Node3 -->
<g id="Node000003" class="node">
<title>Node3</title>
<g id="a_Node000003"><a xlink:href="par__mpi_8h.html" target="_top" xlink:title="MPI headers.">
<polygon fill="white" stroke="#666666" points="278.62,-185 220.62,-185 220.62,-165.75 278.62,-165.75 278.62,-185"/>
<text text-anchor="middle" x="249.62" y="-171.5" font-family="IBMPlexSans-Regular" font-size="10.00">par_mpi.h</text>
</a>
</g>
</g>
<!-- Node1&#45;&gt;Node3 -->
<g id="edge2_Node000001_Node000003" class="edge">
<title>Node1&#45;&gt;Node3</title>
<g id="a_edge2_Node000001_Node000003"><a xlink:title=" ">
<path fill="none" stroke="#63b8ff" d="M249.62,-220.83C249.62,-214.32 249.62,-205.17 249.62,-196.87"/>
<polygon fill="#63b8ff" stroke="#63b8ff" points="253.13,-196.87 249.63,-186.87 246.13,-196.87 253.13,-196.87"/>
</a>
</g>
</g>
<!-- Node5 -->
<g id="Node000005" class="node">
<title>Node5</title>
<g id="a_Node000005"><a xlink:href="sizes_8h.html" target="_top" xlink:title="Defines the constants of the code and other parameters for loop dimensions. Each subroutine includes ...">
<polygon fill="white" stroke="#666666" points="129.62,-74.5 83.62,-74.5 83.62,-55.25 129.62,-55.25 129.62,-74.5"/>
<text text-anchor="middle" x="106.62" y="-61" font-family="IBMPlexSans-Regular" font-size="10.00">sizes.h</text>
</a>
</g>
</g>
<!-- Node1&#45;&gt;Node5 -->
<g id="edge13_Node000001_Node000005" class="edge">
<title>Node1&#45;&gt;Node5</title>
<g id="a_edge13_Node000001_Node000005"><a xlink:title=" ">
<path fill="none" stroke="#63b8ff" d="M301.23,-222.31C385,-208.43 535.82,-173.81 479.62,-110.5 457.33,-85.38 229.32,-71.79 141.16,-67.44"/>
<polygon fill="#63b8ff" stroke="#63b8ff" points="141.6,-63.96 131.44,-66.97 141.26,-70.95 141.6,-63.96"/>
</a>
</g>
</g>
<!-- Node4 -->
<g id="Node000004" class="node">
<title>Node4</title>
<g id="a_Node000004"><a xlink:href="coord_8h.html" target="_top" xlink:title="Header for routines related to lattice sites.">
<polygon fill="white" stroke="#666666" points="78.38,-129.75 30.88,-129.75 30.88,-110.5 78.38,-110.5 78.38,-129.75"/>
<text text-anchor="middle" x="54.62" y="-116.25" font-family="IBMPlexSans-Regular" font-size="10.00">coord.h</text>
</a>
</g>
</g>
<!-- Node3&#45;&gt;Node4 -->
<g id="edge3_Node000003_Node000004" class="edge">
<title>Node3&#45;&gt;Node4</title>
<g id="a_edge3_Node000003_Node000004"><a xlink:title=" ">
<path fill="none" stroke="#63b8ff" d="M220.43,-166.4C185.48,-156.86 126.99,-140.89 89.64,-130.69"/>
<polygon fill="#63b8ff" stroke="#63b8ff" points="90.81,-127.38 80.24,-128.12 88.96,-134.13 90.81,-127.38"/>
</a>
</g>
</g>
<!-- Node3&#45;&gt;Node5 -->
<g id="edge8_Node000003_Node000005" class="edge">
<title>Node3&#45;&gt;Node5</title>
<g id="a_edge8_Node000003_Node000005"><a xlink:title=" ">
<path fill="none" stroke="#63b8ff" d="M220.21,-171.35C192.13,-166.93 150.54,-156.1 125.62,-129.75 114.55,-118.03 109.9,-100.15 107.97,-86.28"/>
<polygon fill="#63b8ff" stroke="#63b8ff" points="111.46,-86.08 106.99,-76.47 104.5,-86.77 111.46,-86.08"/>
</a>
</g>
</g>
<!-- Node7 -->
<g id="Node000007" class="node">
<title>Node7</title>
<g id="a_Node000007"><a xlink:href="errorcodes_8h.html" target="_top" xlink:title="This header is intended to be a useful reference for error codes and their meanings.">
<polygon fill="white" stroke="#666666" points="204.25,-129.75 135,-129.75 135,-110.5 204.25,-110.5 204.25,-129.75"/>
<text text-anchor="middle" x="169.62" y="-116.25" font-family="IBMPlexSans-Regular" font-size="10.00">errorcodes.h</text>
</a>
</g>
</g>
<!-- Node3&#45;&gt;Node7 -->
<g id="edge7_Node000003_Node000007" class="edge">
<title>Node3&#45;&gt;Node7</title>
<g id="a_edge7_Node000003_Node000007"><a xlink:title=" ">
<path fill="none" stroke="#63b8ff" d="M236.05,-165.34C224.22,-157.46 206.79,-145.86 192.75,-136.52"/>
<polygon fill="#63b8ff" stroke="#63b8ff" points="194.79,-133.67 184.52,-131.04 190.91,-139.5 194.79,-133.67"/>
</a>
</g>
</g>
<!-- Node8 -->
<g id="Node000008" class="node">
<title>Node8</title>
<g id="a_Node000008"><a xlink:title=" ">
<polygon fill="#e0e0e0" stroke="#999999" points="277.12,-129.75 222.12,-129.75 222.12,-110.5 277.12,-110.5 277.12,-129.75"/>
<text text-anchor="middle" x="249.62" y="-116.25" font-family="IBMPlexSans-Regular" font-size="10.00">stdbool.h</text>
</a>
</g>
</g>
<!-- Node3&#45;&gt;Node8 -->
<g id="edge9_Node000003_Node000008" class="edge">
<title>Node3&#45;&gt;Node8</title>
<g id="a_edge9_Node000003_Node000008"><a xlink:title=" ">
<path fill="none" stroke="#63b8ff" d="M249.62,-165.58C249.62,-159.07 249.62,-149.92 249.62,-141.62"/>
<polygon fill="#63b8ff" stroke="#63b8ff" points="253.13,-141.62 249.63,-131.62 246.13,-141.62 253.13,-141.62"/>
</a>
</g>
</g>
<!-- Node9 -->
<g id="Node000009" class="node">
<title>Node9</title>
<g id="a_Node000009"><a xlink:title=" ">
<polygon fill="#e0e0e0" stroke="#999999" points="339.88,-129.75 295.38,-129.75 295.38,-110.5 339.88,-110.5 339.88,-129.75"/>
<text text-anchor="middle" x="317.62" y="-116.25" font-family="IBMPlexSans-Regular" font-size="10.00">stdio.h</text>
</a>
</g>
</g>
<!-- Node3&#45;&gt;Node9 -->
<g id="edge10_Node000003_Node000009" class="edge">
<title>Node3&#45;&gt;Node9</title>
<g id="a_edge10_Node000003_Node000009"><a xlink:title=" ">
<path fill="none" stroke="#63b8ff" d="M261.16,-165.34C271.09,-157.57 285.64,-146.17 297.48,-136.9"/>
<polygon fill="#63b8ff" stroke="#63b8ff" points="299.35,-139.88 305.07,-130.96 295.04,-134.37 299.35,-139.88"/>
</a>
</g>
</g>
<!-- Node10 -->
<g id="Node000010" class="node">
<title>Node10</title>
<g id="a_Node000010"><a xlink:title=" ">
<polygon fill="#e0e0e0" stroke="#999999" points="405,-129.75 358.25,-129.75 358.25,-110.5 405,-110.5 405,-129.75"/>
<text text-anchor="middle" x="381.62" y="-116.25" font-family="IBMPlexSans-Regular" font-size="10.00">stdlib.h</text>
</a>
</g>
</g>
<!-- Node3&#45;&gt;Node10 -->
<g id="edge11_Node000003_Node000010" class="edge">
<title>Node3&#45;&gt;Node10</title>
<g id="a_edge11_Node000003_Node000010"><a xlink:title=" ">
<path fill="none" stroke="#63b8ff" d="M272.02,-165.34C293.07,-156.85 324.83,-144.04 348.75,-134.39"/>
<polygon fill="#63b8ff" stroke="#63b8ff" points="349.76,-137.76 357.72,-130.77 347.14,-131.26 349.76,-137.76"/>
</a>
</g>
</g>
<!-- Node11 -->
<g id="Node000011" class="node">
<title>Node11</title>
<g id="a_Node000011"><a xlink:title=" ">
<polygon fill="#e0e0e0" stroke="#999999" points="470.38,-129.75 422.88,-129.75 422.88,-110.5 470.38,-110.5 470.38,-129.75"/>
<text text-anchor="middle" x="446.62" y="-116.25" font-family="IBMPlexSans-Regular" font-size="10.00">string.h</text>
</a>
</g>
</g>
<!-- Node3&#45;&gt;Node11 -->
<g id="edge12_Node000003_Node000011" class="edge">
<title>Node3&#45;&gt;Node11</title>
<g id="a_edge12_Node000003_Node000011"><a xlink:title=" ">
<path fill="none" stroke="#63b8ff" d="M279.12,-166.4C314.53,-156.83 373.84,-140.8 411.56,-130.6"/>
<polygon fill="#63b8ff" stroke="#63b8ff" points="412.32,-134.02 421.06,-128.04 410.49,-127.27 412.32,-134.02"/>
</a>
</g>
</g>
<!-- Node4&#45;&gt;Node2 -->
<g id="edge4_Node000004_Node000002" class="edge">
<title>Node4&#45;&gt;Node2</title>
<g id="a_edge4_Node000004_Node000002"><a xlink:title=" ">
<path fill="none" stroke="#63b8ff" d="M49.34,-110.33C45.15,-103.36 39.15,-93.37 33.89,-84.62"/>
<polygon fill="#63b8ff" stroke="#63b8ff" points="36.95,-82.93 28.8,-76.16 30.95,-86.53 36.95,-82.93"/>
</a>
</g>
</g>
<!-- Node4&#45;&gt;Node5 -->
<g id="edge5_Node000004_Node000005" class="edge">
<title>Node4&#45;&gt;Node5</title>
<g id="a_edge5_Node000004_Node000005"><a xlink:title=" ">
<path fill="none" stroke="#63b8ff" d="M63.21,-110.33C70.47,-102.9 81.08,-92.04 89.99,-82.91"/>
<polygon fill="#63b8ff" stroke="#63b8ff" points="92.31,-85.54 96.79,-75.94 87.3,-80.65 92.31,-85.54"/>
</a>
</g>
</g>
<!-- Node6 -->
<g id="Node000006" class="node">
<title>Node6</title>
<g id="a_Node000006"><a xlink:title=" ">
<polygon fill="#e0e0e0" stroke="#999999" points="136.38,-19.25 76.88,-19.25 76.88,0 136.38,0 136.38,-19.25"/>
<text text-anchor="middle" x="106.62" y="-5.75" font-family="IBMPlexSans-Regular" font-size="10.00">complex.h</text>
</a>
</g>
</g>
<!-- Node5&#45;&gt;Node6 -->
<g id="edge6_Node000005_Node000006" class="edge">
<title>Node5&#45;&gt;Node6</title>
<g id="a_edge6_Node000005_Node000006"><a xlink:title=" ">
<path fill="none" stroke="#63b8ff" d="M106.62,-55.08C106.62,-48.57 106.62,-39.42 106.62,-31.12"/>
<polygon fill="#63b8ff" stroke="#63b8ff" points="110.13,-31.12 106.63,-21.12 103.13,-31.12 110.13,-31.12"/>
</a>
</g>
</g>
</g>
</svg>
