<?xml version="1.0" encoding="UTF-8" standalone="no"?>
<!DOCTYPE svg PUBLIC "-//W3C//DTD SVG 1.1//EN"
 "http://www.w3.org/Graphics/SVG/1.1/DTD/svg11.dtd">
<!-- Generated by graphviz version 12.2.1 (20241206.2353)
 -->
<!-- Title: INCLUDE/sizes.h Pages: 1 -->
<svg width="1110pt" height="414pt"
 viewBox="0.00 0.00 1109.88 414.00" xmlns="http://www.w3.org/2000/svg" xmlns:xlink="http://www.w3.org/1999/xlink">
<g id="graph0" class="graph" transform="scale(1 1) rotate(0) translate(4 410)">
<title>INCLUDE/sizes.h</title>
<!-- Node1 -->
<g id="Node000001" class="node">
<title>Node1</title>
<g id="a_Node000001"><a xlink:title="Defines the constants of the code and other parameters for loop dimensions. Each subroutine includes ...">
<polygon fill="#999999" stroke="#666666" points="796.12,-406 703.62,-406 703.62,-386.75 796.12,-386.75 796.12,-406"/>
<text text-anchor="middle" x="749.88" y="-392.5" font-family="IBMPlexSans-Regular" font-size="10.00">INCLUDE/sizes.h</text>
</a>
</g>
</g>
<!-- Node2 -->
<g id="Node000002" class="node">
<title>Node2</title>
<g id="a_Node000002"><a xlink:href="coord_8h.html" target="_top" xlink:title="Header for routines related to lattice sites.">
<polygon fill="white" stroke="#666666" points="967.88,-350.75 873.88,-350.75 873.88,-331.5 967.88,-331.5 967.88,-350.75"/>
<text text-anchor="middle" x="920.88" y="-337.25" font-family="IBMPlexSans-Regular" font-size="10.00">INCLUDE/coord.h</text>
</a>
</g>
</g>
<!-- Node1&#45;&gt;Node2 -->
<g id="edge1_Node000001_Node000002" class="edge">
<title>Node1&#45;&gt;Node2</title>
<g id="a_edge1_Node000001_Node000002"><a xlink:title=" ">
<path fill="none" stroke="#63b8ff" d="M789.81,-382.94C821.02,-373.22 863.67,-359.94 891.72,-351.2"/>
<polygon fill="#63b8ff" stroke="#63b8ff" points="788.84,-379.58 780.33,-385.89 790.92,-386.26 788.84,-379.58"/>
</a>
</g>
</g>
<!-- Node3 -->
<g id="Node000003" class="node">
<title>Node3</title>
<g id="a_Node000003"><a xlink:href="par__mpi_8h.html" target="_top" xlink:title="MPI headers.">
<polygon fill="white" stroke="#666666" points="802.12,-295.5 697.62,-295.5 697.62,-276.25 802.12,-276.25 802.12,-295.5"/>
<text text-anchor="middle" x="749.88" y="-282" font-family="IBMPlexSans-Regular" font-size="10.00">INCLUDE/par_mpi.h</text>
</a>
</g>
</g>
<!-- Node1&#45;&gt;Node3 -->
<g id="edge36_Node000001_Node000003" class="edge">
<title>Node1&#45;&gt;Node3</title>
<g id="a_edge36_Node000001_Node000003"><a xlink:title=" ">
<path fill="none" stroke="#63b8ff" d="M749.88,-375.03C749.88,-351.3 749.88,-313.14 749.88,-295.88"/>
<polygon fill="#63b8ff" stroke="#63b8ff" points="746.38,-374.98 749.88,-384.98 753.38,-374.98 746.38,-374.98"/>
</a>
</g>
</g>
<!-- Node11 -->
<g id="Node000011" class="node">
<title>Node11</title>
<g id="a_Node000011"><a xlink:href="random_8h.html" target="_top" xlink:title="Header for random number configuration.">
<polygon fill="white" stroke="#666666" points="634,-240.25 531.75,-240.25 531.75,-221 634,-221 634,-240.25"/>
<text text-anchor="middle" x="582.88" y="-226.75" font-family="IBMPlexSans-Regular" font-size="10.00">INCLUDE/random.h</text>
</a>
</g>
</g>
<!-- Node1&#45;&gt;Node11 -->
<g id="edge37_Node000001_Node000011" class="edge">
<title>Node1&#45;&gt;Node11</title>
<g id="a_edge37_Node000001_Node000011"><a xlink:title=" ">
<path fill="none" stroke="#63b8ff" d="M733.03,-378.85C698.07,-344.58 618.69,-266.74 591.9,-240.47"/>
<polygon fill="#63b8ff" stroke="#63b8ff" points="730.22,-381.01 739.82,-385.51 735.13,-376.01 730.22,-381.01"/>
</a>
</g>
</g>
<!-- Node12 -->
<g id="Node000012" class="node">
<title>Node12</title>
<g id="a_Node000012"><a xlink:href="integrate_8h.html" target="_top" xlink:title="Integrators for the HMC.">
<polygon fill="white" stroke="#666666" points="389.62,-185 282.12,-185 282.12,-165.75 389.62,-165.75 389.62,-185"/>
<text text-anchor="middle" x="335.88" y="-171.5" font-family="IBMPlexSans-Regular" font-size="10.00">INCLUDE/integrate.h</text>
</a>
</g>
</g>
<!-- Node1&#45;&gt;Node12 -->
<g id="edge35_Node000001_Node000012" class="edge">
<title>Node1&#45;&gt;Node12</title>
<g id="a_edge35_Node000001_Node000012"><a xlink:title=" ">
<path fill="none" stroke="#63b8ff" d="M722.78,-381.04C644.03,-339.38 416.73,-219.15 352.79,-185.32"/>
<polygon fill="#63b8ff" stroke="#63b8ff" points="721.06,-384.09 731.54,-385.67 724.33,-377.9 721.06,-384.09"/>
</a>
</g>
</g>
<!-- Node13 -->
<g id="Node000013" class="node">
<title>Node13</title>
<g id="a_Node000013"><a xlink:href="su2hmc_8h.html" target="_top" xlink:title="Function declarations for most of the routines.">
<polygon fill="white" stroke="#666666" points="388.12,-129.75 283.62,-129.75 283.62,-110.5 388.12,-110.5 388.12,-129.75"/>
<text text-anchor="middle" x="335.88" y="-116.25" font-family="IBMPlexSans-Regular" font-size="10.00">INCLUDE/su2hmc.h</text>
</a>
</g>
</g>
<!-- Node1&#45;&gt;Node13 -->
<g id="edge38_Node000001_Node000013" class="edge">
<title>Node1&#45;&gt;Node13</title>
<g id="a_edge38_Node000001_Node000013"><a xlink:title=" ">
<path fill="none" stroke="#63b8ff" d="M692.26,-395.71C554.21,-394.95 215.88,-383.26 215.88,-286.88 215.88,-286.88 215.88,-286.88 215.88,-229.62 215.88,-178.37 276.86,-145.05 311.88,-130.14"/>
<polygon fill="#63b8ff" stroke="#63b8ff" points="691.89,-399.2 701.91,-395.74 691.92,-392.2 691.89,-399.2"/>
</a>
</g>
</g>
<!-- Node17 -->
<g id="Node000017" class="node">
<title>Node17</title>
<g id="a_Node000017"><a xlink:href="random_8c.html" target="_top" xlink:title="Random number generator related routines.">
<polygon fill="white" stroke="#666666" points="968,-185 853.75,-185 853.75,-165.75 968,-165.75 968,-185"/>
<text text-anchor="middle" x="910.88" y="-171.5" font-family="IBMPlexSans-Regular" font-size="10.00">production_c/random.c</text>
</a>
</g>
</g>
<!-- Node1&#45;&gt;Node17 -->
<g id="edge40_Node000001_Node000017" class="edge">
<title>Node1&#45;&gt;Node17</title>
<g id="a_edge40_Node000001_Node000017"><a xlink:title=" ">
<path fill="none" stroke="#63b8ff" d="M807.78,-389.9C871.05,-383.06 967.58,-369.9 998.88,-350.75 1051.5,-318.55 1063.18,-298.71 1082.88,-240.25 1099.53,-190.82 1024.5,-178.49 968.27,-176.02"/>
<polygon fill="#63b8ff" stroke="#63b8ff" points="807.46,-386.41 797.88,-390.94 808.19,-393.37 807.46,-386.41"/>
</a>
</g>
</g>
<!-- Node18 -->
<g id="Node000018" class="node">
<title>Node18</title>
<g id="a_Node000018"><a xlink:href="coord_8c.html" target="_top" xlink:title="functions for dealing with lattice and MPI coordinates">
<polygon fill="white" stroke="#666666" points="1073.88,-240.25 967.88,-240.25 967.88,-221 1073.88,-221 1073.88,-240.25"/>
<text text-anchor="middle" x="1020.88" y="-226.75" font-family="IBMPlexSans-Regular" font-size="10.00">production_c/coord.c</text>
</a>
</g>
</g>
<!-- Node1&#45;&gt;Node18 -->
<g id="edge39_Node000001_Node000018" class="edge">
<title>Node1&#45;&gt;Node18</title>
<g id="a_edge39_Node000001_Node000018"><a xlink:title=" ">
<path fill="none" stroke="#63b8ff" d="M807.73,-390.43C866.37,-384.32 951.9,-372.02 976.88,-350.75 1011.28,-321.44 1018.8,-262.68 1020.43,-240.44"/>
<polygon fill="#63b8ff" stroke="#63b8ff" points="807.49,-386.94 797.89,-391.42 808.19,-393.9 807.49,-386.94"/>
</a>
</g>
</g>
<!-- Node2&#45;&gt;Node3 -->
<g id="edge2_Node000002_Node000003" class="edge">
<title>Node2&#45;&gt;Node3</title>
<g id="a_edge2_Node000002_Node000003"><a xlink:title=" ">
<path fill="none" stroke="#63b8ff" d="M880.94,-327.69C849.73,-317.97 807.08,-304.69 779.03,-295.95"/>
<polygon fill="#63b8ff" stroke="#63b8ff" points="879.83,-331.01 890.42,-330.64 881.91,-324.33 879.83,-331.01"/>
</a>
</g>
</g>
<!-- Node5 -->
<g id="Node000005" class="node">
<title>Node5</title>
<g id="a_Node000005"><a xlink:href="main_8c.html" target="_top" xlink:title="Hybrid Monte Carlo algorithm for Two Colour QCD with Wilson&#45;Gor&#39;kov fermions based on the algorithm o...">
<polygon fill="white" stroke="#666666" points="898.12,-19.25 853.62,-19.25 853.62,0 898.12,0 898.12,-19.25"/>
<text text-anchor="middle" x="875.88" y="-5.75" font-family="IBMPlexSans-Regular" font-size="10.00">main.c</text>
</a>
</g>
</g>
<!-- Node2&#45;&gt;Node5 -->
<g id="edge31_Node000002_Node000005" class="edge">
<title>Node2&#45;&gt;Node5</title>
<g id="a_edge31_Node000002_Node000005"><a xlink:title=" ">
<path fill="none" stroke="#63b8ff" d="M956.88,-326.93C993.78,-311.61 1050.23,-282.86 1082.88,-240.25 1100.89,-216.74 1101.88,-205.99 1101.88,-176.38 1101.88,-176.38 1101.88,-176.38 1101.88,-119.12 1101.88,-29.47 955.54,-13.85 898.37,-11.16"/>
<polygon fill="#63b8ff" stroke="#63b8ff" points="955.94,-323.54 947.97,-330.51 958.55,-330.03 955.94,-323.54"/>
</a>
</g>
</g>
<!-- Node10 -->
<g id="Node000010" class="node">
<title>Node10</title>
<g id="a_Node000010"><a xlink:href="su2hmc_8c.html" target="_top" xlink:title="An ecclectic collection of functions used in the HMC.">
<polygon fill="white" stroke="#666666" points="650.12,-19.25 533.62,-19.25 533.62,0 650.12,0 650.12,-19.25"/>
<text text-anchor="middle" x="591.88" y="-5.75" font-family="IBMPlexSans-Regular" font-size="10.00">production_c/su2hmc.c</text>
</a>
</g>
</g>
<!-- Node2&#45;&gt;Node10 -->
<g id="edge34_Node000002_Node000010" class="edge">
<title>Node2&#45;&gt;Node10</title>
<g id="a_edge34_Node000002_Node000010"><a xlink:title=" ">
<path fill="none" stroke="#63b8ff" d="M926.21,-320.2C932.85,-296.27 945.01,-255.09 958.88,-221 968.6,-197.08 989.49,-188.29 976.88,-165.75 912.04,-49.88 741.1,-20.44 650.37,-13.05"/>
<polygon fill="#63b8ff" stroke="#63b8ff" points="922.84,-319.26 923.58,-329.83 929.59,-321.1 922.84,-319.26"/>
</a>
</g>
</g>
<!-- Node2&#45;&gt;Node17 -->
<g id="edge33_Node000002_Node000017" class="edge">
<title>Node2&#45;&gt;Node17</title>
<g id="a_edge33_Node000002_Node000017"><a xlink:title=" ">
<path fill="none" stroke="#63b8ff" d="M919.64,-319.97C917.45,-284.11 912.97,-210.6 911.42,-185.22"/>
<polygon fill="#63b8ff" stroke="#63b8ff" points="916.14,-320.04 920.25,-329.81 923.13,-319.62 916.14,-320.04"/>
</a>
</g>
</g>
<!-- Node2&#45;&gt;Node18 -->
<g id="edge32_Node000002_Node000018" class="edge">
<title>Node2&#45;&gt;Node18</title>
<g id="a_edge32_Node000002_Node000018"><a xlink:title=" ">
<path fill="none" stroke="#63b8ff" d="M936.68,-322.97C958.2,-299.63 995.93,-258.69 1012.58,-240.63"/>
<polygon fill="#63b8ff" stroke="#63b8ff" points="934.29,-320.41 930.08,-330.13 939.44,-325.15 934.29,-320.41"/>
</a>
</g>
</g>
<!-- Node4 -->
<g id="Node000004" class="node">
<title>Node4</title>
<g id="a_Node000004"><a xlink:href="matrices_8h.html" target="_top" xlink:title="Matrix multiplication and related declarations.">
<polygon fill="white" stroke="#666666" points="251.62,-74.5 144.12,-74.5 144.12,-55.25 251.62,-55.25 251.62,-74.5"/>
<text text-anchor="middle" x="197.88" y="-61" font-family="IBMPlexSans-Regular" font-size="10.00">INCLUDE/matrices.h</text>
</a>
</g>
</g>
<!-- Node3&#45;&gt;Node4 -->
<g id="edge3_Node000003_Node000004" class="edge">
<title>Node3&#45;&gt;Node4</title>
<g id="a_edge3_Node000003_Node000004"><a xlink:title=" ">
<path fill="none" stroke="#63b8ff" d="M685.91,-277.81C571.82,-264.19 338.93,-231.49 272.88,-185 231.9,-156.17 208.46,-97.12 200.74,-74.74"/>
<polygon fill="#63b8ff" stroke="#63b8ff" points="685.39,-281.27 695.73,-278.97 686.21,-274.32 685.39,-281.27"/>
</a>
</g>
</g>
<!-- Node3&#45;&gt;Node5 -->
<g id="edge25_Node000003_Node000005" class="edge">
<title>Node3&#45;&gt;Node5</title>
<g id="a_edge25_Node000003_Node000005"><a xlink:title=" ">
<path fill="none" stroke="#63b8ff" d="M758.81,-265.42C783.87,-210.87 854.11,-57.99 871.79,-19.51"/>
<polygon fill="#63b8ff" stroke="#63b8ff" points="755.69,-263.83 754.7,-274.37 762.05,-266.75 755.69,-263.83"/>
</a>
</g>
</g>
<!-- Node3&#45;&gt;Node10 -->
<g id="edge30_Node000003_Node000010" class="edge">
<title>Node3&#45;&gt;Node10</title>
<g id="a_edge30_Node000003_Node000010"><a xlink:title=" ">
<path fill="none" stroke="#63b8ff" d="M754.28,-264.6C765.57,-211.55 793.79,-71.57 780.88,-55.25 764.76,-34.89 699.64,-22.88 650.31,-16.54"/>
<polygon fill="#63b8ff" stroke="#63b8ff" points="750.86,-263.84 752.18,-274.36 757.7,-265.32 750.86,-263.84"/>
</a>
</g>
</g>
<!-- Node3&#45;&gt;Node11 -->
<g id="edge10_Node000003_Node000011" class="edge">
<title>Node3&#45;&gt;Node11</title>
<g id="a_edge10_Node000003_Node000011"><a xlink:title=" ">
<path fill="none" stroke="#63b8ff" d="M710.87,-272.44C680.39,-262.72 638.74,-249.44 611.34,-240.7"/>
<polygon fill="#63b8ff" stroke="#63b8ff" points="709.51,-275.68 720.1,-275.38 711.64,-269.01 709.51,-275.68"/>
</a>
</g>
</g>
<!-- Node14 -->
<g id="Node000014" class="node">
<title>Node14</title>
<g id="a_Node000014"><a xlink:href="bosonic_8c.html" target="_top" xlink:title="Code for bosonic observables, Basically polyakov loop and Plaquette routines.">
<polygon fill="white" stroke="#666666" points="771.75,-74.5 656,-74.5 656,-55.25 771.75,-55.25 771.75,-74.5"/>
<text text-anchor="middle" x="713.88" y="-61" font-family="IBMPlexSans-Regular" font-size="10.00">production_c/bosonic.c</text>
</a>
</g>
</g>
<!-- Node3&#45;&gt;Node14 -->
<g id="edge26_Node000003_Node000014" class="edge">
<title>Node3&#45;&gt;Node14</title>
<g id="a_edge26_Node000003_Node000014"><a xlink:title=" ">
<path fill="none" stroke="#63b8ff" d="M742.81,-265.02C740.31,-257.36 737.67,-248.48 735.88,-240.25 722.22,-177.64 716.16,-100.41 714.43,-74.68"/>
<polygon fill="#63b8ff" stroke="#63b8ff" points="739.45,-266.01 746,-274.34 746.07,-263.75 739.45,-266.01"/>
</a>
</g>
</g>
<!-- Node16 -->
<g id="Node000016" class="node">
<title>Node16</title>
<g id="a_Node000016"><a xlink:href="par__mpi_8c.html" target="_top" xlink:title="MPI routines.">
<polygon fill="white" stroke="#666666" points="638.12,-74.5 521.62,-74.5 521.62,-55.25 638.12,-55.25 638.12,-74.5"/>
<text text-anchor="middle" x="579.88" y="-61" font-family="IBMPlexSans-Regular" font-size="10.00">production_c/par_mpi.c</text>
</a>
</g>
</g>
<!-- Node3&#45;&gt;Node16 -->
<g id="edge28_Node000003_Node000016" class="edge">
<title>Node3&#45;&gt;Node16</title>
<g id="a_edge28_Node000003_Node000016"><a xlink:title=" ">
<path fill="none" stroke="#63b8ff" d="M735.94,-266.93C701.25,-222.23 611.95,-107.2 586.65,-74.6"/>
<polygon fill="#63b8ff" stroke="#63b8ff" points="733.18,-269.07 742.07,-274.82 738.7,-264.78 733.18,-269.07"/>
</a>
</g>
</g>
<!-- Node3&#45;&gt;Node17 -->
<g id="edge29_Node000003_Node000017" class="edge">
<title>Node3&#45;&gt;Node17</title>
<g id="a_edge29_Node000003_Node000017"><a xlink:title=" ">
<path fill="none" stroke="#63b8ff" d="M782.62,-271.25C800.23,-263.29 821.95,-252.42 839.88,-240.25 864.57,-223.49 889.64,-198.72 902.35,-185.49"/>
<polygon fill="#63b8ff" stroke="#63b8ff" points="781.38,-267.97 773.64,-275.21 784.2,-274.38 781.38,-267.97"/>
</a>
</g>
</g>
<!-- Node3&#45;&gt;Node18 -->
<g id="edge27_Node000003_Node000018" class="edge">
<title>Node3&#45;&gt;Node18</title>
<g id="a_edge27_Node000003_Node000018"><a xlink:title=" ">
<path fill="none" stroke="#63b8ff" d="M807.4,-273.57C857.3,-263.77 928.57,-249.76 974.79,-240.68"/>
<polygon fill="#63b8ff" stroke="#63b8ff" points="806.78,-270.13 797.64,-275.49 808.13,-277 806.78,-270.13"/>
</a>
</g>
</g>
<!-- Node4&#45;&gt;Node5 -->
<g id="edge4_Node000004_Node000005" class="edge">
<title>Node4&#45;&gt;Node5</title>
<g id="a_edge4_Node000004_Node000005"><a xlink:title=" ">
<path fill="none" stroke="#63b8ff" d="M263.08,-55.09C500.38,-30.63 773.77,-15.79 853.21,-11.75"/>
<polygon fill="#63b8ff" stroke="#63b8ff" points="262.89,-51.59 253.31,-56.11 263.62,-58.55 262.89,-51.59"/>
</a>
</g>
</g>
<!-- Node6 -->
<g id="Node000006" class="node">
<title>Node6</title>
<g id="a_Node000006"><a xlink:href="congrad_8c.html" target="_top" xlink:title="Conjugate gradients. Congradq for the solver and Congradp for the inversion.">
<polygon fill="white" stroke="#666666" points="256.12,-19.25 139.62,-19.25 139.62,0 256.12,0 256.12,-19.25"/>
<text text-anchor="middle" x="197.88" y="-5.75" font-family="IBMPlexSans-Regular" font-size="10.00">production_c/congrad.c</text>
</a>
</g>
</g>
<!-- Node4&#45;&gt;Node6 -->
<g id="edge5_Node000004_Node000006" class="edge">
<title>Node4&#45;&gt;Node6</title>
<g id="a_edge5_Node000004_Node000006"><a xlink:title=" ">
<path fill="none" stroke="#63b8ff" d="M197.88,-43.63C197.88,-35.34 197.88,-26.17 197.88,-19.61"/>
<polygon fill="#63b8ff" stroke="#63b8ff" points="194.38,-43.57 197.88,-53.57 201.38,-43.57 194.38,-43.57"/>
</a>
</g>
</g>
<!-- Node7 -->
<g id="Node000007" class="node">
<title>Node7</title>
<g id="a_Node000007"><a xlink:href="fermionic_8c.html" target="_top" xlink:title="Code for fermionic observables.">
<polygon fill="white" stroke="#666666" points="121.75,-19.25 0,-19.25 0,0 121.75,0 121.75,-19.25"/>
<text text-anchor="middle" x="60.88" y="-5.75" font-family="IBMPlexSans-Regular" font-size="10.00">production_c/fermionic.c</text>
</a>
</g>
</g>
<!-- Node4&#45;&gt;Node7 -->
<g id="edge6_Node000004_Node000007" class="edge">
<title>Node4&#45;&gt;Node7</title>
<g id="a_edge6_Node000004_Node000007"><a xlink:title=" ">
<path fill="none" stroke="#63b8ff" d="M164.22,-50.79C139.38,-41.14 106.21,-28.25 84.23,-19.7"/>
<polygon fill="#63b8ff" stroke="#63b8ff" points="162.64,-53.93 173.22,-54.29 165.17,-47.41 162.64,-53.93"/>
</a>
</g>
</g>
<!-- Node8 -->
<g id="Node000008" class="node">
<title>Node8</title>
<g id="a_Node000008"><a xlink:href="force_8c.html" target="_top" xlink:title="Code for force calculations.">
<polygon fill="white" stroke="#666666" points="377.75,-19.25 274,-19.25 274,0 377.75,0 377.75,-19.25"/>
<text text-anchor="middle" x="325.88" y="-5.75" font-family="IBMPlexSans-Regular" font-size="10.00">production_c/force.c</text>
</a>
</g>
</g>
<!-- Node4&#45;&gt;Node8 -->
<g id="edge7_Node000004_Node000008" class="edge">
<title>Node4&#45;&gt;Node8</title>
<g id="a_edge7_Node000004_Node000008"><a xlink:title=" ">
<path fill="none" stroke="#63b8ff" d="M229.95,-50.53C253.08,-40.91 283.7,-28.17 304.06,-19.7"/>
<polygon fill="#63b8ff" stroke="#63b8ff" points="228.87,-47.19 220.99,-54.26 231.56,-53.65 228.87,-47.19"/>
</a>
</g>
</g>
<!-- Node9 -->
<g id="Node000009" class="node">
<title>Node9</title>
<g id="a_Node000009"><a xlink:href="matrices_8c.html" target="_top" xlink:title="Matrix multiplication and related routines.">
<polygon fill="white" stroke="#666666" points="515.62,-19.25 396.12,-19.25 396.12,0 515.62,0 515.62,-19.25"/>
<text text-anchor="middle" x="455.88" y="-5.75" font-family="IBMPlexSans-Regular" font-size="10.00">production_c/matrices.c</text>
</a>
</g>
</g>
<!-- Node4&#45;&gt;Node9 -->
<g id="edge8_Node000004_Node000009" class="edge">
<title>Node4&#45;&gt;Node9</title>
<g id="a_edge8_Node000004_Node000009"><a xlink:title=" ">
<path fill="none" stroke="#63b8ff" d="M252.94,-52.51C300.43,-42.71 368.09,-28.74 412,-19.68"/>
<polygon fill="#63b8ff" stroke="#63b8ff" points="252.5,-49.03 243.42,-54.48 253.92,-55.88 252.5,-49.03"/>
</a>
</g>
</g>
<!-- Node4&#45;&gt;Node10 -->
<g id="edge9_Node000004_Node000010" class="edge">
<title>Node4&#45;&gt;Node10</title>
<g id="a_edge9_Node000004_Node000010"><a xlink:title=" ">
<path fill="none" stroke="#63b8ff" d="M263.17,-54.94C364.21,-41.22 469.5,-27.05 533.27,-18.49"/>
<polygon fill="#63b8ff" stroke="#63b8ff" points="262.77,-51.46 253.33,-56.28 263.71,-58.4 262.77,-51.46"/>
</a>
</g>
</g>
<!-- Node11&#45;&gt;Node5 -->
<g id="edge20_Node000011_Node000005" class="edge">
<title>Node11&#45;&gt;Node5</title>
<g id="a_edge20_Node000011_Node000005"><a xlink:title=" ">
<path fill="none" stroke="#63b8ff" d="M608.68,-214.74C652.72,-188.81 744.34,-132.57 813.88,-74.5 835.23,-56.67 857.2,-32.33 868.37,-19.46"/>
<polygon fill="#63b8ff" stroke="#63b8ff" points="606.97,-211.68 600.11,-219.75 610.51,-217.72 606.97,-211.68"/>
</a>
</g>
</g>
<!-- Node11&#45;&gt;Node7 -->
<g id="edge21_Node000011_Node000007" class="edge">
<title>Node11&#45;&gt;Node7</title>
<g id="a_edge21_Node000011_Node000007"><a xlink:title=" ">
<path fill="none" stroke="#63b8ff" d="M547.31,-216.67C510.38,-203.36 450.85,-182.3 398.88,-165.75 267.3,-123.84 211.42,-158.58 101.88,-74.5 82.64,-59.74 69.88,-33.2 64.22,-19.44"/>
<polygon fill="#63b8ff" stroke="#63b8ff" points="545.99,-219.91 556.59,-220.02 548.37,-213.33 545.99,-219.91"/>
</a>
</g>
</g>
<!-- Node11&#45;&gt;Node10 -->
<g id="edge24_Node000011_Node000010" class="edge">
<title>Node11&#45;&gt;Node10</title>
<g id="a_edge24_Node000011_Node000010"><a xlink:title=" ">
<path fill="none" stroke="#63b8ff" d="M566.04,-212.54C536.49,-180.41 481.3,-109.36 512.88,-55.25 523.12,-37.7 543.1,-26.51 560.4,-19.72"/>
<polygon fill="#63b8ff" stroke="#63b8ff" points="563.47,-214.92 572.89,-219.77 568.55,-210.1 563.47,-214.92"/>
</a>
</g>
</g>
<!-- Node11&#45;&gt;Node12 -->
<g id="edge11_Node000011_Node000012" class="edge">
<title>Node11&#45;&gt;Node12</title>
<g id="a_edge11_Node000011_Node000012"><a xlink:title=" ">
<path fill="none" stroke="#63b8ff" d="M529.58,-218.13C484.15,-208.34 419.74,-194.45 377.88,-185.43"/>
<polygon fill="#63b8ff" stroke="#63b8ff" points="528.7,-221.53 539.22,-220.21 530.18,-214.68 528.7,-221.53"/>
</a>
</g>
</g>
<!-- Node11&#45;&gt;Node16 -->
<g id="edge22_Node000011_Node000016" class="edge">
<title>Node11&#45;&gt;Node16</title>
<g id="a_edge22_Node000011_Node000016"><a xlink:title=" ">
<path fill="none" stroke="#63b8ff" d="M582.51,-209.47C581.85,-173.61 580.5,-100.1 580.04,-74.72"/>
<polygon fill="#63b8ff" stroke="#63b8ff" points="579,-209.37 582.69,-219.31 586,-209.25 579,-209.37"/>
</a>
</g>
</g>
<!-- Node11&#45;&gt;Node17 -->
<g id="edge23_Node000011_Node000017" class="edge">
<title>Node11&#45;&gt;Node17</title>
<g id="a_edge23_Node000011_Node000017"><a xlink:title=" ">
<path fill="none" stroke="#63b8ff" d="M645.79,-219.41C706.28,-209.59 796.85,-194.89 854.9,-185.46"/>
<polygon fill="#63b8ff" stroke="#63b8ff" points="645.29,-215.95 635.98,-221 646.41,-222.86 645.29,-215.95"/>
</a>
</g>
</g>
<!-- Node12&#45;&gt;Node13 -->
<g id="edge12_Node000012_Node000013" class="edge">
<title>Node12&#45;&gt;Node13</title>
<g id="a_edge12_Node000012_Node000013"><a xlink:title=" ">
<path fill="none" stroke="#63b8ff" d="M335.88,-154.13C335.88,-145.84 335.88,-136.67 335.88,-130.11"/>
<polygon fill="#63b8ff" stroke="#63b8ff" points="332.38,-154.07 335.88,-164.07 339.38,-154.07 332.38,-154.07"/>
</a>
</g>
</g>
<!-- Node13&#45;&gt;Node4 -->
<g id="edge13_Node000013_Node000004" class="edge">
<title>Node13&#45;&gt;Node4</title>
<g id="a_edge13_Node000013_Node000004"><a xlink:title=" ">
<path fill="none" stroke="#63b8ff" d="M301.97,-106.04C276.95,-96.39 243.54,-83.5 221.4,-74.95"/>
<polygon fill="#63b8ff" stroke="#63b8ff" points="300.46,-109.21 311.05,-109.55 302.98,-102.68 300.46,-109.21"/>
</a>
</g>
</g>
<!-- Node13&#45;&gt;Node5 -->
<g id="edge14_Node000013_Node000005" class="edge">
<title>Node13&#45;&gt;Node5</title>
<g id="a_edge14_Node000013_Node000005"><a xlink:title=" ">
<path fill="none" stroke="#63b8ff" d="M366.83,-105.55C401.66,-90.84 460.26,-67.81 512.88,-55.25 639.48,-25.03 796.09,-14.59 853.47,-11.63"/>
<polygon fill="#63b8ff" stroke="#63b8ff" points="365.61,-102.27 357.78,-109.41 368.36,-108.7 365.61,-102.27"/>
</a>
</g>
</g>
<!-- Node13&#45;&gt;Node7 -->
<g id="edge16_Node000013_Node000007" class="edge">
<title>Node13&#45;&gt;Node7</title>
<g id="a_edge16_Node000013_Node000007"><a xlink:title=" ">
<path fill="none" stroke="#63b8ff" d="M271.94,-113.07C231.04,-107.27 177.8,-96.05 134.88,-74.5 106.97,-60.49 80.95,-33.62 68.52,-19.62"/>
<polygon fill="#63b8ff" stroke="#63b8ff" points="271.25,-116.51 281.63,-114.37 272.18,-109.57 271.25,-116.51"/>
</a>
</g>
</g>
<!-- Node13&#45;&gt;Node10 -->
<g id="edge19_Node000013_Node000010" class="edge">
<title>Node13&#45;&gt;Node10</title>
<g id="a_edge19_Node000013_Node000010"><a xlink:title=" ">
<path fill="none" stroke="#63b8ff" d="M357.56,-103.81C378.39,-89.65 411.13,-68.82 441.88,-55.25 477.67,-39.45 520.65,-27.3 551.42,-19.7"/>
<polygon fill="#63b8ff" stroke="#63b8ff" points="355.85,-100.74 349.6,-109.3 359.82,-106.5 355.85,-100.74"/>
</a>
</g>
</g>
<!-- Node13&#45;&gt;Node14 -->
<g id="edge15_Node000013_Node000014" class="edge">
<title>Node13&#45;&gt;Node14</title>
<g id="a_edge15_Node000013_Node000014"><a xlink:title=" ">
<path fill="none" stroke="#63b8ff" d="M399.53,-110.16C471.08,-100.08 586.28,-83.85 655.56,-74.09"/>
<polygon fill="#63b8ff" stroke="#63b8ff" points="399.35,-106.65 389.93,-111.51 400.32,-113.58 399.35,-106.65"/>
</a>
</g>
</g>
<!-- Node15 -->
<g id="Node000015" class="node">
<title>Node15</title>
<g id="a_Node000015"><a xlink:href="integrate_8c.html" target="_top" xlink:title="Symplectic integrator code.">
<polygon fill="white" stroke="#666666" points="389.62,-74.5 270.12,-74.5 270.12,-55.25 389.62,-55.25 389.62,-74.5"/>
<text text-anchor="middle" x="329.88" y="-61" font-family="IBMPlexSans-Regular" font-size="10.00">production_c/integrate.c</text>
</a>
</g>
</g>
<!-- Node13&#45;&gt;Node15 -->
<g id="edge17_Node000013_Node000015" class="edge">
<title>Node13&#45;&gt;Node15</title>
<g id="a_edge17_Node000013_Node000015"><a xlink:title=" ">
<path fill="none" stroke="#63b8ff" d="M333.63,-99.17C332.68,-90.8 331.64,-81.5 330.89,-74.86"/>
<polygon fill="#63b8ff" stroke="#63b8ff" points="330.12,-99.28 334.71,-108.83 337.07,-98.5 330.12,-99.28"/>
</a>
</g>
</g>
<!-- Node13&#45;&gt;Node16 -->
<g id="edge18_Node000013_Node000016" class="edge">
<title>Node13&#45;&gt;Node16</title>
<g id="a_edge18_Node000013_Node000016"><a xlink:title=" ">
<path fill="none" stroke="#63b8ff" d="M388.52,-107.63C433.4,-97.84 497.03,-83.95 538.38,-74.93"/>
<polygon fill="#63b8ff" stroke="#63b8ff" points="388.05,-104.16 379.02,-109.71 389.54,-111 388.05,-104.16"/>
</a>
</g>
</g>
</g>
</svg>
