<?xml version="1.0" encoding="UTF-8" standalone="no"?>
<!DOCTYPE svg PUBLIC "-//W3C//DTD SVG 1.1//EN"
 "http://www.w3.org/Graphics/SVG/1.1/DTD/svg11.dtd">
<!-- Generated by graphviz version 12.2.1 (20241206.2353)
 -->
<!-- Title: Init Pages: 1 -->
<svg width="271pt" height="249pt"
 viewBox="0.00 0.00 271.25 249.25" xmlns="http://www.w3.org/2000/svg" xmlns:xlink="http://www.w3.org/1999/xlink">
<g id="graph0" class="graph" transform="scale(1 1) rotate(0) translate(4 245.25)">
<title>Init</title>
<!-- Node1 -->
<g id="Node000001" class="node">
<title>Node1</title>
<g id="a_Node000001"><a xlink:title="Initialises the system.">
<polygon fill="#999999" stroke="#666666" points="29.5,-130.25 0,-130.25 0,-111 29.5,-111 29.5,-130.25"/>
<text text-anchor="middle" x="14.75" y="-116.75" font-family="IBMPlexSans-Regular" font-size="10.00">Init</text>
</a>
</g>
</g>
<!-- Node2 -->
<g id="Node000002" class="node">
<title>Node2</title>
<g id="a_Node000002"><a xlink:href="coord_8c.html#a460e6b3f5574cd514a0c73b9cf6fc124" target="_top" xlink:title="Loads the addresses required during the update.">
<polygon fill="white" stroke="#666666" points="129.88,-241.25 88.38,-241.25 88.38,-222 129.88,-222 129.88,-241.25"/>
<text text-anchor="middle" x="109.12" y="-227.75" font-family="IBMPlexSans-Regular" font-size="10.00">Addrc</text>
</a>
</g>
</g>
<!-- Node1&#45;&gt;Node2 -->
<g id="edge1_Node000001_Node000002" class="edge">
<title>Node1&#45;&gt;Node2</title>
<g id="a_edge1_Node000001_Node000002"><a xlink:title=" ">
<path fill="none" stroke="#63b8ff" d="M18.65,-130.71C24.53,-149.47 39.53,-189.93 65.5,-213.62 69.11,-216.91 73.4,-219.66 77.85,-221.92"/>
<polygon fill="#63b8ff" stroke="#63b8ff" points="76.32,-225.08 86.89,-225.8 79.08,-218.64 76.32,-225.08"/>
</a>
</g>
</g>
<!-- Node4 -->
<g id="Node000004" class="node">
<title>Node4</title>
<g id="a_Node000004"><a xlink:href="coord_8c.html#a3b2eb1dbecc1a6aebeb7e43dec42a859" target="_top" xlink:title=" ">
<polygon fill="white" stroke="#666666" points="143,-204.25 75.25,-204.25 75.25,-185 143,-185 143,-204.25"/>
<text text-anchor="middle" x="109.12" y="-190.75" font-family="IBMPlexSans-Regular" font-size="10.00">Check_addr</text>
</a>
</g>
</g>
<!-- Node1&#45;&gt;Node4 -->
<g id="edge3_Node000001_Node000004" class="edge">
<title>Node1&#45;&gt;Node4</title>
<g id="a_edge3_Node000001_Node000004"><a xlink:title=" ">
<path fill="none" stroke="#63b8ff" d="M22.43,-130.55C31.11,-142.79 47.32,-163.59 65.5,-176.62 66.85,-177.59 68.25,-178.52 69.7,-179.4"/>
<polygon fill="#63b8ff" stroke="#63b8ff" points="67.85,-182.39 78.32,-183.99 71.14,-176.21 67.85,-182.39"/>
</a>
</g>
</g>
<!-- Node5 -->
<g id="Node000005" class="node">
<title>Node5</title>
<g id="a_Node000005"><a xlink:href="par__mpi_8h.html#adf20d64741e5d091b74c19a5fa066efb" target="_top" xlink:title="Swaps the halos along the axis given by idir in the direction given by layer.">
<polygon fill="white" stroke="#666666" points="152.75,-167.25 65.5,-167.25 65.5,-148 152.75,-148 152.75,-167.25"/>
<text text-anchor="middle" x="109.12" y="-153.75" font-family="IBMPlexSans-Regular" font-size="10.00">DHalo_swap_dir</text>
</a>
</g>
</g>
<!-- Node1&#45;&gt;Node5 -->
<g id="edge4_Node000001_Node000005" class="edge">
<title>Node1&#45;&gt;Node5</title>
<g id="a_edge4_Node000001_Node000005"><a xlink:title=" ">
<path fill="none" stroke="#63b8ff" d="M29.78,-126.24C41.15,-130.8 57.69,-137.42 72.64,-143.41"/>
<polygon fill="#63b8ff" stroke="#63b8ff" points="71.16,-146.59 81.74,-147.06 73.76,-140.09 71.16,-146.59"/>
</a>
</g>
</g>
<!-- Node6 -->
<g id="Node000006" class="node">
<title>Node6</title>
<g id="a_Node000006"><a xlink:href="random_8c.html#ac776a562469ba6266eb4f7ab2050b32a" target="_top" xlink:title="Uses the rank to get a new seed. Copying from the FORTRAN description here c create new seeds in rang...">
<polygon fill="white" stroke="#666666" points="140.75,-130.25 77.5,-130.25 77.5,-111 140.75,-111 140.75,-130.25"/>
<text text-anchor="middle" x="109.12" y="-116.75" font-family="IBMPlexSans-Regular" font-size="10.00">Par_ranset</text>
</a>
</g>
</g>
<!-- Node1&#45;&gt;Node6 -->
<g id="edge5_Node000001_Node000006" class="edge">
<title>Node1&#45;&gt;Node6</title>
<g id="a_edge5_Node000001_Node000006"><a xlink:title=" ">
<path fill="none" stroke="#63b8ff" d="M29.78,-120.62C39.46,-120.62 52.88,-120.62 65.89,-120.62"/>
<polygon fill="#63b8ff" stroke="#63b8ff" points="65.59,-124.13 75.59,-120.63 65.59,-117.13 65.59,-124.13"/>
</a>
</g>
</g>
<!-- Node8 -->
<g id="Node000008" class="node">
<title>Node8</title>
<g id="a_Node000008"><a xlink:href="par__mpi_8c.html#a605623b5fff3d5970f2965e0d140b171" target="_top" xlink:title="Reads and assigns the gauges from file.">
<polygon fill="white" stroke="#666666" points="139.25,-93.25 79,-93.25 79,-74 139.25,-74 139.25,-93.25"/>
<text text-anchor="middle" x="109.12" y="-79.75" font-family="IBMPlexSans-Regular" font-size="10.00">Par_sread</text>
</a>
</g>
</g>
<!-- Node1&#45;&gt;Node8 -->
<g id="edge7_Node000001_Node000008" class="edge">
<title>Node1&#45;&gt;Node8</title>
<g id="a_edge7_Node000001_Node000008"><a xlink:title=" ">
<path fill="none" stroke="#63b8ff" d="M29.78,-115.01C41.15,-110.45 57.69,-103.83 72.64,-97.84"/>
<polygon fill="#63b8ff" stroke="#63b8ff" points="73.76,-101.16 81.74,-94.19 71.16,-94.66 73.76,-101.16"/>
</a>
</g>
</g>
<!-- Node10 -->
<g id="Node000010" class="node">
<title>Node10</title>
<g id="a_Node000010"><a xlink:href="random_8c.html#afba975c2629ded7c68cb21cfbeb4b496" target="_top" xlink:title="Generates uniformly distributed random double between zero and one as described in numerical recipes....">
<polygon fill="white" stroke="#666666" points="126.5,-56.25 91.75,-56.25 91.75,-37 126.5,-37 126.5,-56.25"/>
<text text-anchor="middle" x="109.12" y="-42.75" font-family="IBMPlexSans-Regular" font-size="10.00">ran2</text>
</a>
</g>
</g>
<!-- Node1&#45;&gt;Node10 -->
<g id="edge9_Node000001_Node000010" class="edge">
<title>Node1&#45;&gt;Node10</title>
<g id="a_edge9_Node000001_Node000010"><a xlink:title=" ">
<path fill="none" stroke="#63b8ff" d="M22.43,-110.7C31.11,-98.46 47.32,-77.66 65.5,-64.62 70.15,-61.29 75.52,-58.42 80.84,-56.01"/>
<polygon fill="#63b8ff" stroke="#63b8ff" points="82.09,-59.28 90.05,-52.28 79.46,-52.79 82.09,-59.28"/>
</a>
</g>
</g>
<!-- Node11 -->
<g id="Node000011" class="node">
<title>Node11</title>
<g id="a_Node000011"><a xlink:href="matrices_8c.html#ab3c213bd9acb695d1ed852737e5b750c" target="_top" xlink:title="Reunitarises u11t and u12t as in conj(u11t[i])*u11t[i]+conj(u12t[i])*u12t[i]=1.">
<polygon fill="white" stroke="#666666" points="141.5,-19.25 76.75,-19.25 76.75,0 141.5,0 141.5,-19.25"/>
<text text-anchor="middle" x="109.12" y="-5.75" font-family="IBMPlexSans-Regular" font-size="10.00">Reunitarise</text>
</a>
</g>
</g>
<!-- Node1&#45;&gt;Node11 -->
<g id="edge10_Node000001_Node000011" class="edge">
<title>Node1&#45;&gt;Node11</title>
<g id="a_edge10_Node000001_Node000011"><a xlink:title=" ">
<path fill="none" stroke="#63b8ff" d="M18.65,-110.54C24.53,-91.78 39.53,-51.32 65.5,-27.62 66.25,-26.94 67.04,-26.28 67.84,-25.64"/>
<polygon fill="#63b8ff" stroke="#63b8ff" points="69.42,-28.78 75.97,-20.45 65.66,-22.88 69.42,-28.78"/>
</a>
</g>
</g>
<!-- Node3 -->
<g id="Node000003" class="node">
<title>Node3</title>
<g id="a_Node000003"><a xlink:href="coord_8c.html#a48a7c6d65b938e96e9fb363cdda2798b" target="_top" xlink:title="Described as a 21st Century address calculator, it gets the memory address of an array entry.">
<polygon fill="white" stroke="#666666" points="240.4,-241.25 211.6,-241.25 211.6,-222 240.4,-222 240.4,-241.25"/>
<text text-anchor="middle" x="226" y="-227.75" font-family="IBMPlexSans-Regular" font-size="10.00">ia</text>
</a>
</g>
</g>
<!-- Node2&#45;&gt;Node3 -->
<g id="edge2_Node000002_Node000003" class="edge">
<title>Node2&#45;&gt;Node3</title>
<g id="a_edge2_Node000002_Node000003"><a xlink:title=" ">
<path fill="none" stroke="#63b8ff" d="M130.13,-231.62C149.5,-231.62 178.91,-231.62 199.84,-231.62"/>
<polygon fill="#63b8ff" stroke="#63b8ff" points="199.82,-235.13 209.82,-231.63 199.82,-228.13 199.82,-235.13"/>
</a>
</g>
</g>
<!-- Node7 -->
<g id="Node000007" class="node">
<title>Node7</title>
<g id="a_Node000007"><a xlink:href="random_8c.html#a307bf51d68dba98763c1339095b11a12" target="_top" xlink:title="Dummy seed the ran2 generator.">
<polygon fill="white" stroke="#666666" points="247.5,-130.25 204.5,-130.25 204.5,-111 247.5,-111 247.5,-130.25"/>
<text text-anchor="middle" x="226" y="-116.75" font-family="IBMPlexSans-Regular" font-size="10.00">ranset</text>
</a>
</g>
</g>
<!-- Node6&#45;&gt;Node7 -->
<g id="edge6_Node000006_Node000007" class="edge">
<title>Node6&#45;&gt;Node7</title>
<g id="a_edge6_Node000006_Node000007"><a xlink:title=" ">
<path fill="none" stroke="#63b8ff" d="M141.21,-120.62C157.25,-120.62 176.79,-120.62 192.97,-120.62"/>
<polygon fill="#63b8ff" stroke="#63b8ff" points="192.54,-124.13 202.54,-120.63 192.54,-117.13 192.54,-124.13"/>
</a>
</g>
</g>
<!-- Node9 -->
<g id="Node000009" class="node">
<title>Node9</title>
<g id="a_Node000009"><a xlink:href="coord_8c.html#a1dcdfd7cd0256b5cf00f97af96d695d4" target="_top" xlink:title="Converts the coordinates of a global lattice point to its index in the computer memory.">
<polygon fill="white" stroke="#666666" points="263.25,-93.25 188.75,-93.25 188.75,-74 263.25,-74 263.25,-93.25"/>
<text text-anchor="middle" x="226" y="-79.75" font-family="IBMPlexSans-Regular" font-size="10.00">Coord2gindex</text>
</a>
</g>
</g>
<!-- Node8&#45;&gt;Node9 -->
<g id="edge8_Node000008_Node000009" class="edge">
<title>Node8&#45;&gt;Node9</title>
<g id="a_edge8_Node000008_Node000009"><a xlink:title=" ">
<path fill="none" stroke="#63b8ff" d="M139.71,-83.62C151.11,-83.62 164.44,-83.62 177.13,-83.62"/>
<polygon fill="#63b8ff" stroke="#63b8ff" points="177.02,-87.13 187.02,-83.63 177.02,-80.13 177.02,-87.13"/>
</a>
</g>
</g>
</g>
</svg>
