<?xml version="1.0" encoding="UTF-8" standalone="no"?>
<!DOCTYPE svg PUBLIC "-//W3C//DTD SVG 1.1//EN"
 "http://www.w3.org/Graphics/SVG/1.1/DTD/svg11.dtd">
<!-- Generated by graphviz version 12.2.1 (20241206.2353)
 -->
<!-- Title: Average_Plaquette Pages: 1 -->
<svg width="271pt" height="46pt"
 viewBox="0.00 0.00 270.50 46.25" xmlns="http://www.w3.org/2000/svg" xmlns:xlink="http://www.w3.org/1999/xlink">
<g id="graph0" class="graph" transform="scale(1 1) rotate(0) translate(4 42.25)">
<title>Average_Plaquette</title>
<!-- Node1 -->
<g id="Node000001" class="node">
<title>Node1</title>
<g id="a_Node000001"><a xlink:title="Calculates the gauge action using new (how new?) lookup table.">
<polygon fill="#999999" stroke="#666666" points="262.5,-19.25 164,-19.25 164,0 262.5,0 262.5,-19.25"/>
<text text-anchor="middle" x="213.25" y="-5.75" font-family="IBMPlexSans-Regular" font-size="10.00">Average_Plaquette</text>
</a>
</g>
</g>
<!-- Node2 -->
<g id="Node000002" class="node">
<title>Node2</title>
<g id="a_Node000002"><a xlink:href="su2hmc_8c.html#aad654cdd6107120818d5485ce1620d81" target="_top" xlink:title="Calculate the Hamiltonian.">
<polygon fill="white" stroke="#666666" points="128,-38.25 73,-38.25 73,-19 128,-19 128,-38.25"/>
<text text-anchor="middle" x="100.5" y="-24.75" font-family="IBMPlexSans-Regular" font-size="10.00">Hamilton</text>
</a>
</g>
</g>
<!-- Node1&#45;&gt;Node2 -->
<g id="edge1_Node000001_Node000002" class="edge">
<title>Node1&#45;&gt;Node2</title>
<g id="a_edge1_Node000001_Node000002"><a xlink:title=" ">
<path fill="none" stroke="#63b8ff" d="M152.57,-19.86C144.13,-21.31 135.82,-22.74 128.44,-24"/>
<polygon fill="#63b8ff" stroke="#63b8ff" points="152.92,-23.36 162.18,-18.21 151.73,-16.46 152.92,-23.36"/>
</a>
</g>
</g>
<!-- Node3 -->
<g id="Node000003" class="node">
<title>Node3</title>
<g id="a_Node000003"><a xlink:href="main_8c.html#a0ddf1224851353fc92bfbff6f499fa97" target="_top" xlink:title=" ">
<polygon fill="white" stroke="#666666" points="37,-19.25 0,-19.25 0,0 37,0 37,-19.25"/>
<text text-anchor="middle" x="18.5" y="-5.75" font-family="IBMPlexSans-Regular" font-size="10.00">main</text>
</a>
</g>
</g>
<!-- Node1&#45;&gt;Node3 -->
<g id="edge3_Node000001_Node000003" class="edge">
<title>Node1&#45;&gt;Node3</title>
<g id="a_edge3_Node000001_Node000003"><a xlink:title=" ">
<path fill="none" stroke="#63b8ff" d="M152.14,-9.62C112.36,-9.62 62.91,-9.62 37.08,-9.62"/>
<polygon fill="#63b8ff" stroke="#63b8ff" points="152.1,-13.13 162.1,-9.63 152.1,-6.13 152.1,-13.13"/>
</a>
</g>
</g>
<!-- Node2&#45;&gt;Node3 -->
<g id="edge2_Node000002_Node000003" class="edge">
<title>Node2&#45;&gt;Node3</title>
<g id="a_edge2_Node000002_Node000003"><a xlink:title=" ">
<path fill="none" stroke="#63b8ff" d="M61.88,-19.69C53.37,-17.67 44.71,-15.61 37.45,-13.89"/>
<polygon fill="#63b8ff" stroke="#63b8ff" points="60.85,-23.04 71.39,-21.95 62.47,-16.23 60.85,-23.04"/>
</a>
</g>
</g>
</g>
</svg>
