<?xml version="1.0" encoding="UTF-8" standalone="no"?>
<!DOCTYPE svg PUBLIC "-//W3C//DTD SVG 1.1//EN"
 "http://www.w3.org/Graphics/SVG/1.1/DTD/svg11.dtd">
<!-- Generated by graphviz version 11.0.0 (20240428.1522)
 -->
<!-- Title: Reunitarise Pages: 1 -->
<svg width="280pt" height="138pt"
 viewBox="0.00 0.00 280.25 138.25" xmlns="http://www.w3.org/2000/svg" xmlns:xlink="http://www.w3.org/1999/xlink">
<g id="graph0" class="graph" transform="scale(1 1) rotate(0) translate(4 134.25)">
<title>Reunitarise</title>
<!-- Node1 -->
<g id="Node000001" class="node">
<title>Node1</title>
<g id="a_Node000001"><a xlink:title="Reunitarises u11t and u12t as in conj(u11t[i])*u11t[i]+conj(u12t[i])*u12t[i]=1.">
<polygon fill="#999999" stroke="#666666" points="272.25,-56.25 207.5,-56.25 207.5,-37 272.25,-37 272.25,-56.25"/>
<text text-anchor="middle" x="239.88" y="-42.75" font-family="IBMPlexSans-Regular" font-size="10.00">Reunitarise</text>
</a>
</g>
</g>
<!-- Node2 -->
<g id="Node000002" class="node">
<title>Node2</title>
<g id="a_Node000002"><a xlink:href="integrate_8c.html#aad98b6e55d3f033e15cffc5b53b173ee" target="_top" xlink:title="Gauge update for the integration step of the HMC.">
<polygon fill="white" stroke="#666666" points="171.5,-93.25 90.25,-93.25 90.25,-74 171.5,-74 171.5,-93.25"/>
<text text-anchor="middle" x="130.88" y="-79.75" font-family="IBMPlexSans-Regular" font-size="10.00">Gauge_Update</text>
</a>
</g>
</g>
<!-- Node1&#45;&gt;Node2 -->
<g id="edge1_Node000001_Node000002" class="edge">
<title>Node1&#45;&gt;Node2</title>
<g id="a_edge1_Node000001_Node000002"><a xlink:title=" ">
<path fill="none" stroke="#63b8ff" d="M198.95,-60.43C186.38,-64.78 172.75,-69.49 161.08,-73.53"/>
<polygon fill="#63b8ff" stroke="#63b8ff" points="199.9,-63.81 208.21,-57.23 197.61,-57.19 199.9,-63.81"/>
</a>
</g>
</g>
<!-- Node6 -->
<g id="Node000006" class="node">
<title>Node6</title>
<g id="a_Node000006"><a xlink:href="su2hmc_8c.html#a1fbc1cb0a07d63c39d8cff966a534d09" target="_top" xlink:title="Initialises the system.">
<polygon fill="white" stroke="#666666" points="145.62,-56.25 116.12,-56.25 116.12,-37 145.62,-37 145.62,-56.25"/>
<text text-anchor="middle" x="130.88" y="-42.75" font-family="IBMPlexSans-Regular" font-size="10.00">Init</text>
</a>
</g>
</g>
<!-- Node1&#45;&gt;Node6 -->
<g id="edge5_Node000001_Node000006" class="edge">
<title>Node1&#45;&gt;Node6</title>
<g id="a_edge5_Node000001_Node000006"><a xlink:title=" ">
<path fill="none" stroke="#63b8ff" d="M195.7,-46.62C177.94,-46.62 158.6,-46.62 145.92,-46.62"/>
<polygon fill="#63b8ff" stroke="#63b8ff" points="195.55,-50.13 205.55,-46.63 195.55,-43.13 195.55,-50.13"/>
</a>
</g>
</g>
<!-- Node7 -->
<g id="Node000007" class="node">
<title>Node7</title>
<g id="a_Node000007"><a xlink:href="main_8c.html#a0ddf1224851353fc92bfbff6f499fa97" target="_top" xlink:title=" ">
<polygon fill="white" stroke="#666666" points="45.62,-19.25 8.62,-19.25 8.62,0 45.62,0 45.62,-19.25"/>
<text text-anchor="middle" x="27.12" y="-5.75" font-family="IBMPlexSans-Regular" font-size="10.00">main</text>
</a>
</g>
</g>
<!-- Node1&#45;&gt;Node7 -->
<g id="edge7_Node000001_Node000007" class="edge">
<title>Node1&#45;&gt;Node7</title>
<g id="a_edge7_Node000001_Node000007"><a xlink:title=" ">
<path fill="none" stroke="#63b8ff" d="M196.36,-33.6C188.17,-31.38 179.61,-29.27 171.5,-27.62 126.75,-18.56 73.16,-13.29 45.92,-11"/>
<polygon fill="#63b8ff" stroke="#63b8ff" points="195.21,-36.91 205.78,-36.24 197.1,-30.17 195.21,-36.91"/>
</a>
</g>
</g>
<!-- Node3 -->
<g id="Node000003" class="node">
<title>Node3</title>
<g id="a_Node000003"><a xlink:href="integrate_8c.html#ae4e13e66dc0e7130825c11648f2ad80c" target="_top" xlink:title="Leapfrog integrator. Each trajectory step takes the form of p&#45;&gt;p+dt/2,u&#45;&gt;u+dt,p&#45;&gt;p+dt/2 In practice t...">
<polygon fill="white" stroke="#666666" points="54.25,-130.25 0,-130.25 0,-111 54.25,-111 54.25,-130.25"/>
<text text-anchor="middle" x="27.12" y="-116.75" font-family="IBMPlexSans-Regular" font-size="10.00">Leapfrog</text>
</a>
</g>
</g>
<!-- Node2&#45;&gt;Node3 -->
<g id="edge2_Node000002_Node000003" class="edge">
<title>Node2&#45;&gt;Node3</title>
<g id="a_edge2_Node000002_Node000003"><a xlink:title=" ">
<path fill="none" stroke="#63b8ff" d="M91.56,-97.56C79.2,-102.05 65.79,-106.93 54.49,-111.04"/>
<polygon fill="#63b8ff" stroke="#63b8ff" points="92.45,-100.96 100.65,-94.25 90.05,-94.38 92.45,-100.96"/>
</a>
</g>
</g>
<!-- Node4 -->
<g id="Node000004" class="node">
<title>Node4</title>
<g id="a_Node000004"><a xlink:href="integrate_8c.html#a44f16170b5e3c92646f2e649ee57da3d" target="_top" xlink:title="OMF integrator. Each trajectory step takes the form of p&#45;&gt;p+dt/2,u&#45;&gt;u+dt,p&#45;&gt;p+dt/2 In practice this i...">
<polygon fill="white" stroke="#666666" points="48.62,-93.25 5.62,-93.25 5.62,-74 48.62,-74 48.62,-93.25"/>
<text text-anchor="middle" x="27.12" y="-79.75" font-family="IBMPlexSans-Regular" font-size="10.00">OMF2</text>
</a>
</g>
</g>
<!-- Node2&#45;&gt;Node4 -->
<g id="edge3_Node000002_Node000004" class="edge">
<title>Node2&#45;&gt;Node4</title>
<g id="a_edge3_Node000002_Node000004"><a xlink:title=" ">
<path fill="none" stroke="#63b8ff" d="M78.61,-83.62C68.09,-83.62 57.59,-83.62 48.91,-83.62"/>
<polygon fill="#63b8ff" stroke="#63b8ff" points="78.44,-87.13 88.44,-83.63 78.44,-80.13 78.44,-87.13"/>
</a>
</g>
</g>
<!-- Node5 -->
<g id="Node000005" class="node">
<title>Node5</title>
<g id="a_Node000005"><a xlink:href="integrate_8c.html#a5bbed189bcdd47d814585aa7e842bb8e" target="_top" xlink:title=" ">
<polygon fill="white" stroke="#666666" points="48.62,-56.25 5.62,-56.25 5.62,-37 48.62,-37 48.62,-56.25"/>
<text text-anchor="middle" x="27.12" y="-42.75" font-family="IBMPlexSans-Regular" font-size="10.00">OMF4</text>
</a>
</g>
</g>
<!-- Node2&#45;&gt;Node5 -->
<g id="edge4_Node000002_Node000005" class="edge">
<title>Node2&#45;&gt;Node5</title>
<g id="a_edge4_Node000002_Node000005"><a xlink:title=" ">
<path fill="none" stroke="#63b8ff" d="M91.45,-69.65C77.09,-64.43 61.32,-58.7 49.12,-54.26"/>
<polygon fill="#63b8ff" stroke="#63b8ff" points="90.05,-72.87 100.65,-73 92.45,-66.29 90.05,-72.87"/>
</a>
</g>
</g>
<!-- Node6&#45;&gt;Node7 -->
<g id="edge6_Node000006_Node000007" class="edge">
<title>Node6&#45;&gt;Node7</title>
<g id="a_edge6_Node000006_Node000007"><a xlink:title=" ">
<path fill="none" stroke="#63b8ff" d="M105,-37.58C86.7,-30.93 62.28,-22.04 45.91,-16.09"/>
<polygon fill="#63b8ff" stroke="#63b8ff" points="103.71,-40.83 114.3,-40.96 106.1,-34.26 103.71,-40.83"/>
</a>
</g>
</g>
</g>
</svg>
