<?xml version="1.0" encoding="UTF-8" standalone="no"?>
<!DOCTYPE svg PUBLIC "-//W3C//DTD SVG 1.1//EN"
 "http://www.w3.org/Graphics/SVG/1.1/DTD/svg11.dtd">
<!-- Generated by graphviz version 12.1.2 (20240928.0832)
 -->
<!-- Title: Force Pages: 1 -->
<svg width="139pt" height="155pt"
 viewBox="0.00 0.00 139.00 155.25" xmlns="http://www.w3.org/2000/svg" xmlns:xlink="http://www.w3.org/1999/xlink">
<g id="graph0" class="graph" transform="scale(1 1) rotate(0) translate(4 151.25)">
<title>Force</title>
<!-- Node1 -->
<g id="Node000001" class="node">
<title>Node1</title>
<g id="a_Node000001"><a xlink:title="Calculates the force &#160;at each intermediate time.">
<polygon fill="#999999" stroke="#666666" points="131,-74.25 90.25,-74.25 90.25,-55 131,-55 131,-74.25"/>
<text text-anchor="middle" x="110.62" y="-60.75" font-family="IBMPlexSans-Regular" font-size="10.00">Force</text>
</a>
</g>
</g>
<!-- Node2 -->
<g id="Node000002" class="node">
<title>Node2</title>
<g id="a_Node000002"><a xlink:href="integrate_8c.html#ae4e13e66dc0e7130825c11648f2ad80c" target="_top" xlink:title="Leapfrog integrator. Each trajectory step takes the form of p&#45;&gt;p+dt/2,u&#45;&gt;u+dt,p&#45;&gt;p+dt/2 In practice t...">
<polygon fill="white" stroke="#666666" points="54.25,-129.25 0,-129.25 0,-110 54.25,-110 54.25,-129.25"/>
<text text-anchor="middle" x="27.12" y="-115.75" font-family="IBMPlexSans-Regular" font-size="10.00">Leapfrog</text>
</a>
</g>
</g>
<!-- Node1&#45;&gt;Node2 -->
<g id="edge1_Node000001_Node000002" class="edge">
<title>Node1&#45;&gt;Node2</title>
<g id="a_edge1_Node000001_Node000002"><a xlink:title=" ">
<path fill="none" stroke="#63b8ff" d="M85.3,-81.04C71.54,-90.32 54.79,-101.63 42.98,-109.6"/>
<polygon fill="#63b8ff" stroke="#63b8ff" points="87.09,-84.05 93.42,-75.56 83.18,-78.25 87.09,-84.05"/>
</a>
</g>
</g>
<!-- Node3 -->
<g id="Node000003" class="node">
<title>Node3</title>
<g id="a_Node000003"><a xlink:href="integrate_8c.html#a44f16170b5e3c92646f2e649ee57da3d" target="_top" xlink:title="OMF integrator. Each trajectory step takes the form of p&#45;&gt;p+dt/2,u&#45;&gt;u+dt,p&#45;&gt;p+dt/2 In practice this i...">
<polygon fill="white" stroke="#666666" points="48.62,-74.25 5.62,-74.25 5.62,-55 48.62,-55 48.62,-74.25"/>
<text text-anchor="middle" x="27.12" y="-60.75" font-family="IBMPlexSans-Regular" font-size="10.00">OMF2</text>
</a>
</g>
</g>
<!-- Node1&#45;&gt;Node3 -->
<g id="edge3_Node000001_Node000003" class="edge">
<title>Node1&#45;&gt;Node3</title>
<g id="a_edge3_Node000001_Node000003"><a xlink:title=" ">
<path fill="none" stroke="#63b8ff" d="M78.47,-64.62C68.65,-64.62 58.03,-64.62 49.1,-64.62"/>
<polygon fill="#63b8ff" stroke="#63b8ff" points="78.38,-68.13 88.38,-64.63 78.38,-61.13 78.38,-68.13"/>
</a>
</g>
</g>
<!-- Node4 -->
<g id="Node000004" class="node">
<title>Node4</title>
<g id="a_Node000004"><a xlink:href="integrate_8c.html#a5bbed189bcdd47d814585aa7e842bb8e" target="_top" xlink:title=" ">
<polygon fill="white" stroke="#666666" points="48.62,-19.25 5.62,-19.25 5.62,0 48.62,0 48.62,-19.25"/>
<text text-anchor="middle" x="27.12" y="-5.75" font-family="IBMPlexSans-Regular" font-size="10.00">OMF4</text>
</a>
</g>
</g>
<!-- Node1&#45;&gt;Node4 -->
<g id="edge5_Node000001_Node000004" class="edge">
<title>Node1&#45;&gt;Node4</title>
<g id="a_edge5_Node000001_Node000004"><a xlink:title=" ">
<path fill="none" stroke="#63b8ff" d="M85.3,-48.21C71.54,-38.93 54.79,-27.62 42.98,-19.65"/>
<polygon fill="#63b8ff" stroke="#63b8ff" points="83.18,-51 93.42,-53.69 87.09,-45.2 83.18,-51"/>
</a>
</g>
</g>
<!-- Node2&#45;&gt;Node2 -->
<g id="edge2_Node000002_Node000002" class="edge">
<title>Node2&#45;&gt;Node2</title>
<g id="a_edge2_Node000002_Node000002"><a xlink:title=" ">
<path fill="none" stroke="#63b8ff" d="M41.95,-140.65C40.09,-144.53 35.15,-147.25 27.12,-147.25 12.45,-147.25 8.09,-138.15 14.05,-129.54"/>
<polygon fill="#63b8ff" stroke="#63b8ff" points="45.44,-140.37 40.43,-131.03 38.53,-141.46 45.44,-140.37"/>
</a>
</g>
</g>
<!-- Node3&#45;&gt;Node3 -->
<g id="edge4_Node000003_Node000003" class="edge">
<title>Node3&#45;&gt;Node3</title>
<g id="a_edge4_Node000003_Node000003"><a xlink:title=" ">
<path fill="none" stroke="#63b8ff" d="M41.95,-85.65C40.09,-89.53 35.15,-92.25 27.12,-92.25 12.45,-92.25 8.09,-83.15 14.05,-74.54"/>
<polygon fill="#63b8ff" stroke="#63b8ff" points="45.44,-85.37 40.43,-76.03 38.53,-86.46 45.44,-85.37"/>
</a>
</g>
</g>
<!-- Node4&#45;&gt;Node4 -->
<g id="edge6_Node000004_Node000004" class="edge">
<title>Node4&#45;&gt;Node4</title>
<g id="a_edge6_Node000004_Node000004"><a xlink:title=" ">
<path fill="none" stroke="#63b8ff" d="M41.95,-30.65C40.09,-34.53 35.15,-37.25 27.12,-37.25 12.45,-37.25 8.09,-28.15 14.05,-19.54"/>
<polygon fill="#63b8ff" stroke="#63b8ff" points="45.44,-30.37 40.43,-21.03 38.53,-31.46 45.44,-30.37"/>
</a>
</g>
</g>
</g>
</svg>
