<?xml version="1.0" encoding="UTF-8" standalone="no"?>
<!DOCTYPE svg PUBLIC "-//W3C//DTD SVG 1.1//EN"
 "http://www.w3.org/Graphics/SVG/1.1/DTD/svg11.dtd">
<!-- Generated by graphviz version 12.2.1 (20241206.2353)
 -->
<!-- Title: production_c/su2hmc.c Pages: 1 -->
<svg width="674pt" height="469pt"
 viewBox="0.00 0.00 674.00 469.25" xmlns="http://www.w3.org/2000/svg" xmlns:xlink="http://www.w3.org/1999/xlink">
<g id="graph0" class="graph" transform="scale(1 1) rotate(0) translate(4 465.25)">
<title>production_c/su2hmc.c</title>
<!-- Node1 -->
<g id="Node000001" class="node">
<title>Node1</title>
<g id="a_Node000001"><a xlink:title="An ecclectic collection of functions used in the HMC.">
<polygon fill="#999999" stroke="#666666" points="370.5,-461.25 254,-461.25 254,-442 370.5,-442 370.5,-461.25"/>
<text text-anchor="middle" x="312.25" y="-447.75" font-family="IBMPlexSans-Regular" font-size="10.00">production_c/su2hmc.c</text>
</a>
</g>
</g>
<!-- Node2 -->
<g id="Node000002" class="node">
<title>Node2</title>
<g id="a_Node000002"><a xlink:title=" ">
<polygon fill="#e0e0e0" stroke="#999999" points="50.5,-406 0,-406 0,-386.75 50.5,-386.75 50.5,-406"/>
<text text-anchor="middle" x="25.25" y="-392.5" font-family="IBMPlexSans-Regular" font-size="10.00">assert.h</text>
</a>
</g>
</g>
<!-- Node1&#45;&gt;Node2 -->
<g id="edge1_Node000001_Node000002" class="edge">
<title>Node1&#45;&gt;Node2</title>
<g id="a_edge1_Node000001_Node000002"><a xlink:title=" ">
<path fill="none" stroke="#63b8ff" d="M258.43,-441.57C208.12,-432.96 130.95,-419.37 64.25,-406 63.43,-405.84 62.61,-405.67 61.78,-405.5"/>
<polygon fill="#63b8ff" stroke="#63b8ff" points="62.8,-402.14 52.29,-403.49 61.35,-408.99 62.8,-402.14"/>
</a>
</g>
</g>
<!-- Node3 -->
<g id="Node000003" class="node">
<title>Node3</title>
<g id="a_Node000003"><a xlink:href="coord_8h.html" target="_top" xlink:title="Header for routines related to lattice sites.">
<polygon fill="white" stroke="#666666" points="159,-129.75 111.5,-129.75 111.5,-110.5 159,-110.5 159,-129.75"/>
<text text-anchor="middle" x="135.25" y="-116.25" font-family="IBMPlexSans-Regular" font-size="10.00">coord.h</text>
</a>
</g>
</g>
<!-- Node1&#45;&gt;Node3 -->
<g id="edge2_Node000001_Node000003" class="edge">
<title>Node1&#45;&gt;Node3</title>
<g id="a_edge2_Node000001_Node000003"><a xlink:title=" ">
<path fill="none" stroke="#63b8ff" d="M253.5,-448.15C184.19,-441.71 78.25,-419.26 78.25,-342.12 78.25,-342.12 78.25,-342.12 78.25,-229.62 78.25,-194.17 102.39,-158.91 119.26,-138.6"/>
<polygon fill="#63b8ff" stroke="#63b8ff" points="121.69,-141.13 125.6,-131.29 116.41,-136.55 121.69,-141.13"/>
</a>
</g>
</g>
<!-- Node7 -->
<g id="Node000007" class="node">
<title>Node7</title>
<g id="a_Node000007"><a xlink:href="matrices_8h.html" target="_top" xlink:title="Matrix multiplication and related declarations.">
<polygon fill="white" stroke="#666666" points="401.75,-406 340.75,-406 340.75,-386.75 401.75,-386.75 401.75,-406"/>
<text text-anchor="middle" x="371.25" y="-392.5" font-family="IBMPlexSans-Regular" font-size="10.00">matrices.h</text>
</a>
</g>
</g>
<!-- Node1&#45;&gt;Node7 -->
<g id="edge6_Node000001_Node000007" class="edge">
<title>Node1&#45;&gt;Node7</title>
<g id="a_edge6_Node000001_Node000007"><a xlink:title=" ">
<path fill="none" stroke="#63b8ff" d="M322.26,-441.59C330.62,-434.05 342.75,-423.1 352.85,-413.98"/>
<polygon fill="#63b8ff" stroke="#63b8ff" points="355.19,-416.59 360.27,-407.29 350.5,-411.39 355.19,-416.59"/>
</a>
</g>
</g>
<!-- Node8 -->
<g id="Node000008" class="node">
<title>Node8</title>
<g id="a_Node000008"><a xlink:href="par__mpi_8h.html" target="_top" xlink:title="MPI headers.">
<polygon fill="white" stroke="#666666" points="369.25,-185 311.25,-185 311.25,-165.75 369.25,-165.75 369.25,-185"/>
<text text-anchor="middle" x="340.25" y="-171.5" font-family="IBMPlexSans-Regular" font-size="10.00">par_mpi.h</text>
</a>
</g>
</g>
<!-- Node1&#45;&gt;Node8 -->
<g id="edge28_Node000001_Node000008" class="edge">
<title>Node1&#45;&gt;Node8</title>
<g id="a_edge28_Node000001_Node000008"><a xlink:title=" ">
<path fill="none" stroke="#63b8ff" d="M312.25,-441.62C312.25,-423.03 312.25,-379.05 312.25,-342.12 312.25,-342.12 312.25,-342.12 312.25,-284.88 312.25,-253.02 323.71,-217.52 331.97,-196.07"/>
<polygon fill="#63b8ff" stroke="#63b8ff" points="335.18,-197.45 335.67,-186.86 328.69,-194.83 335.18,-197.45"/>
</a>
</g>
</g>
<!-- Node13 -->
<g id="Node000013" class="node">
<title>Node13</title>
<g id="a_Node000013"><a xlink:title=" ">
<polygon fill="#e0e0e0" stroke="#999999" points="666,-129.75 618.5,-129.75 618.5,-110.5 666,-110.5 666,-129.75"/>
<text text-anchor="middle" x="642.25" y="-116.25" font-family="IBMPlexSans-Regular" font-size="10.00">string.h</text>
</a>
</g>
</g>
<!-- Node1&#45;&gt;Node13 -->
<g id="edge30_Node000001_Node000013" class="edge">
<title>Node1&#45;&gt;Node13</title>
<g id="a_edge30_Node000001_Node000013"><a xlink:title=" ">
<path fill="none" stroke="#63b8ff" d="M370.74,-443.17C463.82,-429.66 635.25,-397.29 635.25,-342.12 635.25,-342.12 635.25,-342.12 635.25,-229.62 635.25,-198.84 638.09,-163.25 640.15,-141.47"/>
<polygon fill="#63b8ff" stroke="#63b8ff" points="643.63,-141.92 641.13,-131.62 636.66,-141.23 643.63,-141.92"/>
</a>
</g>
</g>
<!-- Node14 -->
<g id="Node000014" class="node">
<title>Node14</title>
<g id="a_Node000014"><a xlink:href="su2hmc_8h.html" target="_top" xlink:title="Function declarations for most of the routines.">
<polygon fill="white" stroke="#666666" points="465.25,-350.75 407.25,-350.75 407.25,-331.5 465.25,-331.5 465.25,-350.75"/>
<text text-anchor="middle" x="436.25" y="-337.25" font-family="IBMPlexSans-Regular" font-size="10.00">su2hmc.h</text>
</a>
</g>
</g>
<!-- Node1&#45;&gt;Node14 -->
<g id="edge31_Node000001_Node000014" class="edge">
<title>Node1&#45;&gt;Node14</title>
<g id="a_edge31_Node000001_Node000014"><a xlink:title=" ">
<path fill="none" stroke="#63b8ff" d="M348.8,-441.59C369.48,-434.82 394.49,-423.63 411.25,-406 422.68,-393.97 429.08,-376.12 432.53,-362.34"/>
<polygon fill="#63b8ff" stroke="#63b8ff" points="435.94,-363.11 434.62,-352.59 429.1,-361.64 435.94,-363.11"/>
</a>
</g>
</g>
<!-- Node16 -->
<g id="Node000016" class="node">
<title>Node16</title>
<g id="a_Node000016"><a xlink:href="random_8h.html" target="_top" xlink:title="Header for random number configuration.">
<polygon fill="white" stroke="#666666" points="200.12,-240.25 144.38,-240.25 144.38,-221 200.12,-221 200.12,-240.25"/>
<text text-anchor="middle" x="172.25" y="-226.75" font-family="IBMPlexSans-Regular" font-size="10.00">random.h</text>
</a>
</g>
</g>
<!-- Node1&#45;&gt;Node16 -->
<g id="edge29_Node000001_Node000016" class="edge">
<title>Node1&#45;&gt;Node16</title>
<g id="a_edge29_Node000001_Node000016"><a xlink:title=" ">
<path fill="none" stroke="#63b8ff" d="M306.24,-441.59C290.44,-417.82 246.56,-351.5 211.25,-295.5 201.61,-280.22 190.94,-262.69 183.2,-249.87"/>
<polygon fill="#63b8ff" stroke="#63b8ff" points="186.41,-248.41 178.25,-241.65 180.41,-252.02 186.41,-248.41"/>
</a>
</g>
</g>
<!-- Node4 -->
<g id="Node000004" class="node">
<title>Node4</title>
<g id="a_Node000004"><a xlink:title=" ">
<polygon fill="#e0e0e0" stroke="#999999" points="131.88,-74.5 86.62,-74.5 86.62,-55.25 131.88,-55.25 131.88,-74.5"/>
<text text-anchor="middle" x="109.25" y="-61" font-family="IBMPlexSans-Regular" font-size="10.00">math.h</text>
</a>
</g>
</g>
<!-- Node3&#45;&gt;Node4 -->
<g id="edge3_Node000003_Node000004" class="edge">
<title>Node3&#45;&gt;Node4</title>
<g id="a_edge3_Node000003_Node000004"><a xlink:title=" ">
<path fill="none" stroke="#63b8ff" d="M130.96,-110.33C127.63,-103.51 122.89,-93.81 118.69,-85.2"/>
<polygon fill="#63b8ff" stroke="#63b8ff" points="121.83,-83.67 114.3,-76.22 115.54,-86.74 121.83,-83.67"/>
</a>
</g>
</g>
<!-- Node5 -->
<g id="Node000005" class="node">
<title>Node5</title>
<g id="a_Node000005"><a xlink:href="sizes_8h.html" target="_top" xlink:title="Defines the constants of the code and other parameters for loop dimensions. Each subroutine includes ...">
<polygon fill="white" stroke="#666666" points="248.25,-74.5 202.25,-74.5 202.25,-55.25 248.25,-55.25 248.25,-74.5"/>
<text text-anchor="middle" x="225.25" y="-61" font-family="IBMPlexSans-Regular" font-size="10.00">sizes.h</text>
</a>
</g>
</g>
<!-- Node3&#45;&gt;Node5 -->
<g id="edge4_Node000003_Node000005" class="edge">
<title>Node3&#45;&gt;Node5</title>
<g id="a_edge4_Node000003_Node000005"><a xlink:title=" ">
<path fill="none" stroke="#63b8ff" d="M150.52,-110.09C164.09,-102.06 184.2,-90.16 200.15,-80.73"/>
<polygon fill="#63b8ff" stroke="#63b8ff" points="201.78,-83.83 208.61,-75.72 198.22,-77.8 201.78,-83.83"/>
</a>
</g>
</g>
<!-- Node6 -->
<g id="Node000006" class="node">
<title>Node6</title>
<g id="a_Node000006"><a xlink:title=" ">
<polygon fill="#e0e0e0" stroke="#999999" points="255,-19.25 195.5,-19.25 195.5,0 255,0 255,-19.25"/>
<text text-anchor="middle" x="225.25" y="-5.75" font-family="IBMPlexSans-Regular" font-size="10.00">complex.h</text>
</a>
</g>
</g>
<!-- Node5&#45;&gt;Node6 -->
<g id="edge5_Node000005_Node000006" class="edge">
<title>Node5&#45;&gt;Node6</title>
<g id="a_edge5_Node000005_Node000006"><a xlink:title=" ">
<path fill="none" stroke="#63b8ff" d="M225.25,-55.08C225.25,-48.57 225.25,-39.42 225.25,-31.12"/>
<polygon fill="#63b8ff" stroke="#63b8ff" points="228.75,-31.12 225.25,-21.12 221.75,-31.12 228.75,-31.12"/>
</a>
</g>
</g>
<!-- Node7&#45;&gt;Node8 -->
<g id="edge7_Node000007_Node000008" class="edge">
<title>Node7&#45;&gt;Node8</title>
<g id="a_edge7_Node000007_Node000008"><a xlink:title=" ">
<path fill="none" stroke="#63b8ff" d="M370,-386.52C365.43,-354.26 349.61,-242.51 343.09,-196.46"/>
<polygon fill="#63b8ff" stroke="#63b8ff" points="346.56,-196.01 341.7,-186.6 339.63,-196.99 346.56,-196.01"/>
</a>
</g>
</g>
<!-- Node7&#45;&gt;Node14 -->
<g id="edge15_Node000007_Node000014" class="edge">
<title>Node7&#45;&gt;Node14</title>
<g id="a_edge15_Node000007_Node000014"><a xlink:title=" ">
<path fill="none" stroke="#63b8ff" d="M382.28,-386.34C391.67,-378.65 405.4,-367.4 416.66,-358.18"/>
<polygon fill="#63b8ff" stroke="#63b8ff" points="418.7,-361.03 424.22,-351.98 414.26,-355.61 418.7,-361.03"/>
</a>
</g>
</g>
<!-- Node8&#45;&gt;Node3 -->
<g id="edge8_Node000008_Node000003" class="edge">
<title>Node8&#45;&gt;Node3</title>
<g id="a_edge8_Node000008_Node000003"><a xlink:title=" ">
<path fill="none" stroke="#63b8ff" d="M310.88,-166.75C273.8,-157.11 210.07,-140.56 170.43,-130.26"/>
<polygon fill="#63b8ff" stroke="#63b8ff" points="171.47,-126.92 160.91,-127.79 169.71,-133.69 171.47,-126.92"/>
</a>
</g>
</g>
<!-- Node8&#45;&gt;Node5 -->
<g id="edge10_Node000008_Node000005" class="edge">
<title>Node8&#45;&gt;Node5</title>
<g id="a_edge10_Node000008_Node000005"><a xlink:title=" ">
<path fill="none" stroke="#63b8ff" d="M339.36,-165.45C337.58,-152 332.45,-126.44 318.25,-110.5 302.75,-93.09 278.96,-81.85 259.33,-75"/>
<polygon fill="#63b8ff" stroke="#63b8ff" points="260.67,-71.76 250.08,-72.02 258.52,-78.42 260.67,-71.76"/>
</a>
</g>
</g>
<!-- Node9 -->
<g id="Node000009" class="node">
<title>Node9</title>
<g id="a_Node000009"><a xlink:href="errorcodes_8h.html" target="_top" xlink:title="This header is intended to be a useful reference for error codes and their meanings.">
<polygon fill="white" stroke="#666666" points="434.88,-129.75 365.62,-129.75 365.62,-110.5 434.88,-110.5 434.88,-129.75"/>
<text text-anchor="middle" x="400.25" y="-116.25" font-family="IBMPlexSans-Regular" font-size="10.00">errorcodes.h</text>
</a>
</g>
</g>
<!-- Node8&#45;&gt;Node9 -->
<g id="edge9_Node000008_Node000009" class="edge">
<title>Node8&#45;&gt;Node9</title>
<g id="a_edge9_Node000008_Node000009"><a xlink:title=" ">
<path fill="none" stroke="#63b8ff" d="M350.43,-165.34C359.01,-157.72 371.52,-146.62 381.85,-137.45"/>
<polygon fill="#63b8ff" stroke="#63b8ff" points="383.93,-140.29 389.09,-131.03 379.29,-135.05 383.93,-140.29"/>
</a>
</g>
</g>
<!-- Node10 -->
<g id="Node000010" class="node">
<title>Node10</title>
<g id="a_Node000010"><a xlink:title=" ">
<polygon fill="#e0e0e0" stroke="#999999" points="308.75,-129.75 253.75,-129.75 253.75,-110.5 308.75,-110.5 308.75,-129.75"/>
<text text-anchor="middle" x="281.25" y="-116.25" font-family="IBMPlexSans-Regular" font-size="10.00">stdbool.h</text>
</a>
</g>
</g>
<!-- Node8&#45;&gt;Node10 -->
<g id="edge11_Node000008_Node000010" class="edge">
<title>Node8&#45;&gt;Node10</title>
<g id="a_edge11_Node000008_Node000010"><a xlink:title=" ">
<path fill="none" stroke="#63b8ff" d="M330.24,-165.34C321.88,-157.8 309.75,-146.85 299.65,-137.73"/>
<polygon fill="#63b8ff" stroke="#63b8ff" points="302,-135.14 292.23,-131.04 297.31,-140.34 302,-135.14"/>
</a>
</g>
</g>
<!-- Node11 -->
<g id="Node000011" class="node">
<title>Node11</title>
<g id="a_Node000011"><a xlink:title=" ">
<polygon fill="#e0e0e0" stroke="#999999" points="497.5,-129.75 453,-129.75 453,-110.5 497.5,-110.5 497.5,-129.75"/>
<text text-anchor="middle" x="475.25" y="-116.25" font-family="IBMPlexSans-Regular" font-size="10.00">stdio.h</text>
</a>
</g>
</g>
<!-- Node8&#45;&gt;Node11 -->
<g id="edge12_Node000008_Node000011" class="edge">
<title>Node8&#45;&gt;Node11</title>
<g id="a_edge12_Node000008_Node000011"><a xlink:title=" ">
<path fill="none" stroke="#63b8ff" d="M363.15,-165.34C384.81,-156.8 417.56,-143.88 442.07,-134.21"/>
<polygon fill="#63b8ff" stroke="#63b8ff" points="443.26,-137.51 451.28,-130.58 440.69,-130.99 443.26,-137.51"/>
</a>
</g>
</g>
<!-- Node12 -->
<g id="Node000012" class="node">
<title>Node12</title>
<g id="a_Node000012"><a xlink:title=" ">
<polygon fill="#e0e0e0" stroke="#999999" points="562.62,-129.75 515.88,-129.75 515.88,-110.5 562.62,-110.5 562.62,-129.75"/>
<text text-anchor="middle" x="539.25" y="-116.25" font-family="IBMPlexSans-Regular" font-size="10.00">stdlib.h</text>
</a>
</g>
</g>
<!-- Node8&#45;&gt;Node12 -->
<g id="edge13_Node000008_Node000012" class="edge">
<title>Node8&#45;&gt;Node12</title>
<g id="a_edge13_Node000008_Node000012"><a xlink:title=" ">
<path fill="none" stroke="#63b8ff" d="M369.61,-166.52C405.47,-156.92 466.06,-140.71 504.29,-130.48"/>
<polygon fill="#63b8ff" stroke="#63b8ff" points="505.17,-133.87 513.93,-127.9 503.36,-127.11 505.17,-133.87"/>
</a>
</g>
</g>
<!-- Node8&#45;&gt;Node13 -->
<g id="edge14_Node000008_Node000013" class="edge">
<title>Node8&#45;&gt;Node13</title>
<g id="a_edge14_Node000008_Node000013"><a xlink:title=" ">
<path fill="none" stroke="#63b8ff" d="M369.48,-169.22C425.27,-159.38 546.72,-137.97 606.94,-127.35"/>
<polygon fill="#63b8ff" stroke="#63b8ff" points="607.4,-130.82 616.64,-125.64 606.18,-123.93 607.4,-130.82"/>
</a>
</g>
</g>
<!-- Node14&#45;&gt;Node5 -->
<g id="edge24_Node000014_Node000005" class="edge">
<title>Node14&#45;&gt;Node5</title>
<g id="a_edge24_Node000014_Node000005"><a xlink:title=" ">
<path fill="none" stroke="#63b8ff" d="M465.58,-333.58C510.26,-321.69 590.25,-291.97 590.25,-231.62 590.25,-231.62 590.25,-231.62 590.25,-174.38 590.25,-144.76 593.81,-129.69 571.25,-110.5 524.85,-71.02 337.71,-66.03 259.68,-65.71"/>
<polygon fill="#63b8ff" stroke="#63b8ff" points="260.08,-62.21 250.07,-65.69 260.07,-69.21 260.08,-62.21"/>
</a>
</g>
</g>
<!-- Node14&#45;&gt;Node9 -->
<g id="edge16_Node000014_Node000009" class="edge">
<title>Node14&#45;&gt;Node9</title>
<g id="a_edge16_Node000014_Node000009"><a xlink:title=" ">
<path fill="none" stroke="#63b8ff" d="M433.53,-331.31C430.85,-322.37 426.8,-308.08 424.25,-295.5 413.01,-239.97 405.46,-173.42 402.15,-140.93"/>
<polygon fill="#63b8ff" stroke="#63b8ff" points="405.68,-141.01 401.21,-131.41 398.71,-141.7 405.68,-141.01"/>
</a>
</g>
</g>
<!-- Node14&#45;&gt;Node11 -->
<g id="edge25_Node000014_Node000011" class="edge">
<title>Node14&#45;&gt;Node11</title>
<g id="a_edge25_Node000014_Node000011"><a xlink:title=" ">
<path fill="none" stroke="#63b8ff" d="M437.83,-331.27C443.58,-298.94 463.56,-186.78 471.73,-140.91"/>
<polygon fill="#63b8ff" stroke="#63b8ff" points="475.12,-141.8 473.43,-131.34 468.23,-140.57 475.12,-141.8"/>
</a>
</g>
</g>
<!-- Node14&#45;&gt;Node12 -->
<g id="edge26_Node000014_Node000012" class="edge">
<title>Node14&#45;&gt;Node12</title>
<g id="a_edge26_Node000014_Node000012"><a xlink:title=" ">
<path fill="none" stroke="#63b8ff" d="M465.67,-331.51C483.54,-324.69 505.17,-313.3 517.25,-295.5 549.47,-248.04 546.23,-176.26 542.24,-141.46"/>
<polygon fill="#63b8ff" stroke="#63b8ff" points="545.71,-141.03 540.94,-131.57 538.77,-141.94 545.71,-141.03"/>
</a>
</g>
</g>
<!-- Node15 -->
<g id="Node000015" class="node">
<title>Node15</title>
<g id="a_Node000015"><a xlink:href="integrate_8h.html" target="_top" xlink:title="Integrators for the HMC.">
<polygon fill="white" stroke="#666666" points="280.75,-295.5 219.75,-295.5 219.75,-276.25 280.75,-276.25 280.75,-295.5"/>
<text text-anchor="middle" x="250.25" y="-282" font-family="IBMPlexSans-Regular" font-size="10.00">integrate.h</text>
</a>
</g>
</g>
<!-- Node14&#45;&gt;Node15 -->
<g id="edge17_Node000014_Node000015" class="edge">
<title>Node14&#45;&gt;Node15</title>
<g id="a_edge17_Node000014_Node000015"><a xlink:title=" ">
<path fill="none" stroke="#63b8ff" d="M406.78,-331.69C375.81,-322.82 326.85,-308.8 291.93,-298.81"/>
<polygon fill="#63b8ff" stroke="#63b8ff" points="293.17,-295.52 282.59,-296.13 291.24,-302.25 293.17,-295.52"/>
</a>
</g>
</g>
<!-- Node17 -->
<g id="Node000017" class="node">
<title>Node17</title>
<g id="a_Node000017"><a xlink:title=" ">
<polygon fill="#e0e0e0" stroke="#999999" points="508.38,-295.5 466.12,-295.5 466.12,-276.25 508.38,-276.25 508.38,-295.5"/>
<text text-anchor="middle" x="487.25" y="-282" font-family="IBMPlexSans-Regular" font-size="10.00">time.h</text>
</a>
</g>
</g>
<!-- Node14&#45;&gt;Node17 -->
<g id="edge27_Node000014_Node000017" class="edge">
<title>Node14&#45;&gt;Node17</title>
<g id="a_edge27_Node000014_Node000017"><a xlink:title=" ">
<path fill="none" stroke="#63b8ff" d="M444.67,-331.33C451.79,-323.9 462.19,-313.04 470.94,-303.91"/>
<polygon fill="#63b8ff" stroke="#63b8ff" points="473.21,-306.6 477.6,-296.95 468.15,-301.75 473.21,-306.6"/>
</a>
</g>
</g>
<!-- Node15&#45;&gt;Node5 -->
<g id="edge23_Node000015_Node000005" class="edge">
<title>Node15&#45;&gt;Node5</title>
<g id="a_edge23_Node000015_Node000005"><a xlink:title=" ">
<path fill="none" stroke="#63b8ff" d="M249.24,-276.02C245.56,-243.76 232.8,-132.01 227.54,-85.96"/>
<polygon fill="#63b8ff" stroke="#63b8ff" points="231.03,-85.64 226.42,-76.11 224.07,-86.44 231.03,-85.64"/>
</a>
</g>
</g>
<!-- Node15&#45;&gt;Node10 -->
<g id="edge18_Node000015_Node000010" class="edge">
<title>Node15&#45;&gt;Node10</title>
<g id="a_edge18_Node000015_Node000010"><a xlink:title=" ">
<path fill="none" stroke="#63b8ff" d="M251.92,-276.07C256.73,-250.64 270.75,-176.6 277.51,-140.87"/>
<polygon fill="#63b8ff" stroke="#63b8ff" points="280.87,-141.94 279.29,-131.46 273.99,-140.63 280.87,-141.94"/>
</a>
</g>
</g>
<!-- Node15&#45;&gt;Node16 -->
<g id="edge19_Node000015_Node000016" class="edge">
<title>Node15&#45;&gt;Node16</title>
<g id="a_edge19_Node000015_Node000016"><a xlink:title=" ">
<path fill="none" stroke="#63b8ff" d="M237.02,-275.84C225.48,-267.96 208.48,-256.36 194.8,-247.02"/>
<polygon fill="#63b8ff" stroke="#63b8ff" points="197.03,-244.3 186.8,-241.56 193.08,-250.08 197.03,-244.3"/>
</a>
</g>
</g>
<!-- Node16&#45;&gt;Node4 -->
<g id="edge20_Node000016_Node000004" class="edge">
<title>Node16&#45;&gt;Node4</title>
<g id="a_edge20_Node000016_Node000004"><a xlink:title=" ">
<path fill="none" stroke="#63b8ff" d="M162.85,-220.52C146.71,-204.16 114.29,-167.91 102.25,-129.75 97.72,-115.4 99.91,-98.44 102.99,-85.6"/>
<polygon fill="#63b8ff" stroke="#63b8ff" points="106.29,-86.81 105.62,-76.23 99.55,-84.91 106.29,-86.81"/>
</a>
</g>
</g>
<!-- Node16&#45;&gt;Node5 -->
<g id="edge22_Node000016_Node000005" class="edge">
<title>Node16&#45;&gt;Node5</title>
<g id="a_edge22_Node000016_Node000005"><a xlink:title=" ">
<path fill="none" stroke="#63b8ff" d="M175.1,-220.82C183.33,-195.39 207.29,-121.35 218.86,-85.62"/>
<polygon fill="#63b8ff" stroke="#63b8ff" points="222.17,-86.75 221.92,-76.16 215.51,-84.6 222.17,-86.75"/>
</a>
</g>
</g>
<!-- Node16&#45;&gt;Node8 -->
<g id="edge21_Node000016_Node000008" class="edge">
<title>Node16&#45;&gt;Node8</title>
<g id="a_edge21_Node000016_Node000008"><a xlink:title=" ">
<path fill="none" stroke="#63b8ff" d="M200.37,-220.71C227.82,-212.01 269.85,-198.69 300.67,-188.92"/>
<polygon fill="#63b8ff" stroke="#63b8ff" points="301.56,-192.31 310.03,-185.95 299.44,-185.64 301.56,-192.31"/>
</a>
</g>
</g>
</g>
</svg>
