<?xml version="1.0" encoding="UTF-8" standalone="no"?>
<!DOCTYPE svg PUBLIC "-//W3C//DTD SVG 1.1//EN"
 "http://www.w3.org/Graphics/SVG/1.1/DTD/svg11.dtd">
<!-- Generated by graphviz version 12.2.1 (20241206.2353)
 -->
<!-- Title: Reunitarise Pages: 1 -->
<svg width="353pt" height="177pt"
 viewBox="0.00 0.00 353.25 177.25" xmlns="http://www.w3.org/2000/svg" xmlns:xlink="http://www.w3.org/1999/xlink">
<g id="graph0" class="graph" transform="scale(1 1) rotate(0) translate(4 173.25)">
<title>Reunitarise</title>
<!-- Node1 -->
<g id="Node000001" class="node">
<title>Node1</title>
<g id="a_Node000001"><a xlink:title="Reunitarises u11t and u12t as in conj(u11t[i])*u11t[i]+conj(u12t[i])*u12t[i]=1.">
<polygon fill="#999999" stroke="#666666" points="345.25,-57.25 280.5,-57.25 280.5,-38 345.25,-38 345.25,-57.25"/>
<text text-anchor="middle" x="312.88" y="-43.75" font-family="IBMPlexSans-Regular" font-size="10.00">Reunitarise</text>
</a>
</g>
</g>
<!-- Node2 -->
<g id="Node000002" class="node">
<title>Node2</title>
<g id="a_Node000002"><a xlink:href="integrate_8c.html#ab9fe12be80cd3768ce2adf2be02a1d4b" target="_top" xlink:title="Gauge update for the integration step of the HMC.">
<polygon fill="white" stroke="#666666" points="244.5,-113.25 163.25,-113.25 163.25,-94 244.5,-94 244.5,-113.25"/>
<text text-anchor="middle" x="203.88" y="-99.75" font-family="IBMPlexSans-Regular" font-size="10.00">Gauge_Update</text>
</a>
</g>
</g>
<!-- Node1&#45;&gt;Node2 -->
<g id="edge1_Node000001_Node000002" class="edge">
<title>Node1&#45;&gt;Node2</title>
<g id="a_edge1_Node000001_Node000002"><a xlink:title=" ">
<path fill="none" stroke="#63b8ff" d="M282.73,-62.88C264.12,-72.62 240.51,-84.97 224.2,-93.51"/>
<polygon fill="#63b8ff" stroke="#63b8ff" points="284.17,-66.08 291.4,-58.34 280.92,-59.87 284.17,-66.08"/>
</a>
</g>
</g>
<!-- Node4 -->
<g id="Node000004" class="node">
<title>Node4</title>
<g id="a_Node000004"><a xlink:href="main_8c.html#a0ddf1224851353fc92bfbff6f499fa97" target="_top" xlink:title=" ">
<polygon fill="white" stroke="#666666" points="37,-95.25 0,-95.25 0,-76 37,-76 37,-95.25"/>
<text text-anchor="middle" x="18.5" y="-81.75" font-family="IBMPlexSans-Regular" font-size="10.00">main</text>
</a>
</g>
</g>
<!-- Node1&#45;&gt;Node4 -->
<g id="edge10_Node000001_Node000004" class="edge">
<title>Node1&#45;&gt;Node4</title>
<g id="a_edge10_Node000001_Node000004"><a xlink:title=" ">
<path fill="none" stroke="#63b8ff" d="M268.95,-47.68C220.76,-48.51 140.47,-52.22 73,-66.62 60.85,-69.22 47.7,-73.86 37.48,-77.91"/>
<polygon fill="#63b8ff" stroke="#63b8ff" points="268.73,-51.18 278.68,-47.54 268.64,-44.18 268.73,-51.18"/>
</a>
</g>
</g>
<!-- Node7 -->
<g id="Node000007" class="node">
<title>Node7</title>
<g id="a_Node000007"><a xlink:href="su2hmc_8c.html#a84f252348f913fcc70ce5de0aab6f8bf" target="_top" xlink:title="Initialises the system.">
<polygon fill="white" stroke="#666666" points="218.62,-19.25 189.12,-19.25 189.12,0 218.62,0 218.62,-19.25"/>
<text text-anchor="middle" x="203.88" y="-5.75" font-family="IBMPlexSans-Regular" font-size="10.00">Init</text>
</a>
</g>
</g>
<!-- Node1&#45;&gt;Node7 -->
<g id="edge8_Node000001_Node000007" class="edge">
<title>Node1&#45;&gt;Node7</title>
<g id="a_edge8_Node000001_Node000007"><a xlink:title=" ">
<path fill="none" stroke="#63b8ff" d="M272.79,-33.74C254,-27.07 232.65,-19.49 218.98,-14.63"/>
<polygon fill="#63b8ff" stroke="#63b8ff" points="271.46,-36.99 282.06,-37.03 273.8,-30.39 271.46,-36.99"/>
</a>
</g>
</g>
<!-- Node3 -->
<g id="Node000003" class="node">
<title>Node3</title>
<g id="a_Node000003"><a xlink:href="integrate_8c.html#a4d7f64e9f3e98a2953d707f18742d110" target="_top" xlink:title="Leapfrog integrator. Each trajectory step takes the form of p&#45;&gt;p+dt/2,u&#45;&gt;u+dt,p&#45;&gt;p+dt/2 In practice t...">
<polygon fill="white" stroke="#666666" points="127.25,-169.25 73,-169.25 73,-150 127.25,-150 127.25,-169.25"/>
<text text-anchor="middle" x="100.12" y="-155.75" font-family="IBMPlexSans-Regular" font-size="10.00">Leapfrog</text>
</a>
</g>
</g>
<!-- Node2&#45;&gt;Node3 -->
<g id="edge2_Node000002_Node000003" class="edge">
<title>Node2&#45;&gt;Node3</title>
<g id="a_edge2_Node000002_Node000003"><a xlink:title=" ">
<path fill="none" stroke="#63b8ff" d="M174.91,-119.01C157.26,-128.73 134.94,-141.01 119.5,-149.51"/>
<polygon fill="#63b8ff" stroke="#63b8ff" points="176.28,-122.25 183.36,-114.37 172.91,-116.12 176.28,-122.25"/>
</a>
</g>
</g>
<!-- Node5 -->
<g id="Node000005" class="node">
<title>Node5</title>
<g id="a_Node000005"><a xlink:href="integrate_8c.html#a33907d89c4a0709fcf809773de68c3a2" target="_top" xlink:title="OMF second order five step integrator.">
<polygon fill="white" stroke="#666666" points="121.62,-132.25 78.62,-132.25 78.62,-113 121.62,-113 121.62,-132.25"/>
<text text-anchor="middle" x="100.12" y="-118.75" font-family="IBMPlexSans-Regular" font-size="10.00">OMF2</text>
</a>
</g>
</g>
<!-- Node2&#45;&gt;Node5 -->
<g id="edge4_Node000002_Node000005" class="edge">
<title>Node2&#45;&gt;Node5</title>
<g id="a_edge4_Node000002_Node000005"><a xlink:title=" ">
<path fill="none" stroke="#63b8ff" d="M151.95,-113.13C141.31,-115.12 130.68,-117.11 121.91,-118.74"/>
<polygon fill="#63b8ff" stroke="#63b8ff" points="152.28,-116.63 161.46,-111.36 150.99,-109.75 152.28,-116.63"/>
</a>
</g>
</g>
<!-- Node6 -->
<g id="Node000006" class="node">
<title>Node6</title>
<g id="a_Node000006"><a xlink:href="integrate_8c.html#a4e6abc4e61c0131df30fb683569e5d00" target="_top" xlink:title="OMF fourth order eleven step integrator.">
<polygon fill="white" stroke="#666666" points="121.62,-95.25 78.62,-95.25 78.62,-76 121.62,-76 121.62,-95.25"/>
<text text-anchor="middle" x="100.12" y="-81.75" font-family="IBMPlexSans-Regular" font-size="10.00">OMF4</text>
</a>
</g>
</g>
<!-- Node2&#45;&gt;Node6 -->
<g id="edge6_Node000002_Node000006" class="edge">
<title>Node2&#45;&gt;Node6</title>
<g id="a_edge6_Node000002_Node000006"><a xlink:title=" ">
<path fill="none" stroke="#63b8ff" d="M151.95,-94.62C141.31,-92.73 130.68,-90.85 121.91,-89.3"/>
<polygon fill="#63b8ff" stroke="#63b8ff" points="151.01,-98 161.46,-96.3 152.22,-91.11 151.01,-98"/>
</a>
</g>
</g>
<!-- Node3&#45;&gt;Node4 -->
<g id="edge3_Node000003_Node000004" class="edge">
<title>Node3&#45;&gt;Node4</title>
<g id="a_edge3_Node000003_Node000004"><a xlink:title=" ">
<path fill="none" stroke="#63b8ff" d="M74.56,-142.93C74.03,-142.5 73.51,-142.06 73,-141.62 55.81,-126.97 38.14,-107.43 28.02,-95.73"/>
<polygon fill="#63b8ff" stroke="#63b8ff" points="72.23,-145.55 82.33,-148.75 76.43,-139.95 72.23,-145.55"/>
</a>
</g>
</g>
<!-- Node5&#45;&gt;Node4 -->
<g id="edge5_Node000005_Node000004" class="edge">
<title>Node5&#45;&gt;Node4</title>
<g id="a_edge5_Node000005_Node000004"><a xlink:title=" ">
<path fill="none" stroke="#63b8ff" d="M67.83,-108.08C57.47,-103.27 46.3,-98.08 37.31,-93.9"/>
<polygon fill="#63b8ff" stroke="#63b8ff" points="66.29,-111.23 76.83,-112.27 69.24,-104.88 66.29,-111.23"/>
</a>
</g>
</g>
<!-- Node6&#45;&gt;Node4 -->
<g id="edge7_Node000006_Node000004" class="edge">
<title>Node6&#45;&gt;Node4</title>
<g id="a_edge7_Node000006_Node000004"><a xlink:title=" ">
<path fill="none" stroke="#63b8ff" d="M66.84,-85.62C56.76,-85.62 46.02,-85.62 37.31,-85.62"/>
<polygon fill="#63b8ff" stroke="#63b8ff" points="66.69,-89.13 76.69,-85.63 66.69,-82.13 66.69,-89.13"/>
</a>
</g>
</g>
<!-- Node7&#45;&gt;Node4 -->
<g id="edge9_Node000007_Node000004" class="edge">
<title>Node7&#45;&gt;Node4</title>
<g id="a_edge9_Node000007_Node000004"><a xlink:title=" ">
<path fill="none" stroke="#63b8ff" d="M177.5,-10.01C150.26,-11.37 106.39,-16.37 73,-33.62 53.21,-43.85 35.86,-63.81 26.61,-75.81"/>
<polygon fill="#63b8ff" stroke="#63b8ff" points="177.37,-13.52 187.24,-9.66 177.12,-6.52 177.37,-13.52"/>
</a>
</g>
</g>
</g>
</svg>
