<?xml version="1.0" encoding="UTF-8" standalone="no"?>
<!DOCTYPE svg PUBLIC "-//W3C//DTD SVG 1.1//EN"
 "http://www.w3.org/Graphics/SVG/1.1/DTD/svg11.dtd">
<!-- Generated by graphviz version 12.2.1 (20241206.2353)
 -->
<!-- Title: INCLUDE/su2hmc.h Pages: 1 -->
<svg width="659pt" height="359pt"
 viewBox="0.00 0.00 658.75 358.75" xmlns="http://www.w3.org/2000/svg" xmlns:xlink="http://www.w3.org/1999/xlink">
<g id="graph0" class="graph" transform="scale(1 1) rotate(0) translate(4 354.75)">
<title>INCLUDE/su2hmc.h</title>
<!-- Node1 -->
<g id="Node000001" class="node">
<title>Node1</title>
<g id="a_Node000001"><a xlink:title="Function declarations for most of the routines.">
<polygon fill="#999999" stroke="#666666" points="536.88,-350.75 432.38,-350.75 432.38,-331.5 536.88,-331.5 536.88,-350.75"/>
<text text-anchor="middle" x="484.62" y="-337.25" font-family="IBMPlexSans-Regular" font-size="10.00">INCLUDE/su2hmc.h</text>
</a>
</g>
</g>
<!-- Node2 -->
<g id="Node000002" class="node">
<title>Node2</title>
<g id="a_Node000002"><a xlink:href="errorcodes_8h.html" target="_top" xlink:title="This header is intended to be a useful reference for error codes and their meanings.">
<polygon fill="white" stroke="#666666" points="69.25,-129.75 0,-129.75 0,-110.5 69.25,-110.5 69.25,-129.75"/>
<text text-anchor="middle" x="34.62" y="-116.25" font-family="IBMPlexSans-Regular" font-size="10.00">errorcodes.h</text>
</a>
</g>
</g>
<!-- Node1&#45;&gt;Node2 -->
<g id="edge1_Node000001_Node000002" class="edge">
<title>Node1&#45;&gt;Node2</title>
<g id="a_edge1_Node000001_Node000002"><a xlink:title=" ">
<path fill="none" stroke="#63b8ff" d="M432.84,-331.01C397.97,-323.84 351.44,-312.23 312.62,-295.5 209.02,-250.84 99.36,-170.93 55,-137.03"/>
<polygon fill="#63b8ff" stroke="#63b8ff" points="57.34,-134.42 47.29,-131.09 53.07,-139.96 57.34,-134.42"/>
</a>
</g>
</g>
<!-- Node3 -->
<g id="Node000003" class="node">
<title>Node3</title>
<g id="a_Node000003"><a xlink:href="integrate_8h.html" target="_top" xlink:title="Integrators for the HMC.">
<polygon fill="white" stroke="#666666" points="383.12,-295.5 322.12,-295.5 322.12,-276.25 383.12,-276.25 383.12,-295.5"/>
<text text-anchor="middle" x="352.62" y="-282" font-family="IBMPlexSans-Regular" font-size="10.00">integrate.h</text>
</a>
</g>
</g>
<!-- Node1&#45;&gt;Node3 -->
<g id="edge2_Node000001_Node000003" class="edge">
<title>Node1&#45;&gt;Node3</title>
<g id="a_edge2_Node000001_Node000003"><a xlink:title=" ">
<path fill="none" stroke="#63b8ff" d="M462.23,-331.09C441.18,-322.6 409.42,-309.79 385.5,-300.14"/>
<polygon fill="#63b8ff" stroke="#63b8ff" points="387.11,-297.01 376.53,-296.52 384.49,-303.51 387.11,-297.01"/>
</a>
</g>
</g>
<!-- Node9 -->
<g id="Node000009" class="node">
<title>Node9</title>
<g id="a_Node000009"><a xlink:href="sizes_8h.html" target="_top" xlink:title="Defines the constants of the code and other parameters for loop dimensions. Each subroutine includes ...">
<polygon fill="white" stroke="#666666" points="401.62,-74.5 355.62,-74.5 355.62,-55.25 401.62,-55.25 401.62,-74.5"/>
<text text-anchor="middle" x="378.62" y="-61" font-family="IBMPlexSans-Regular" font-size="10.00">sizes.h</text>
</a>
</g>
</g>
<!-- Node1&#45;&gt;Node9 -->
<g id="edge19_Node000001_Node000009" class="edge">
<title>Node1&#45;&gt;Node9</title>
<g id="a_edge19_Node000001_Node000009"><a xlink:title=" ">
<path fill="none" stroke="#63b8ff" d="M501.35,-331.23C528.85,-315.26 580.62,-278.91 580.62,-231.62 580.62,-231.62 580.62,-231.62 580.62,-174.38 580.62,-144.76 583.08,-130.91 561.62,-110.5 540.49,-90.4 459.96,-76.64 413.06,-70.15"/>
<polygon fill="#63b8ff" stroke="#63b8ff" points="413.8,-66.72 403.42,-68.86 412.87,-73.66 413.8,-66.72"/>
</a>
</g>
</g>
<!-- Node11 -->
<g id="Node000011" class="node">
<title>Node11</title>
<g id="a_Node000011"><a xlink:title=" ">
<polygon fill="#e0e0e0" stroke="#999999" points="450.88,-129.75 406.38,-129.75 406.38,-110.5 450.88,-110.5 450.88,-129.75"/>
<text text-anchor="middle" x="428.62" y="-116.25" font-family="IBMPlexSans-Regular" font-size="10.00">stdio.h</text>
</a>
</g>
</g>
<!-- Node1&#45;&gt;Node11 -->
<g id="edge20_Node000001_Node000011" class="edge">
<title>Node1&#45;&gt;Node11</title>
<g id="a_edge20_Node000001_Node000011"><a xlink:title=" ">
<path fill="none" stroke="#63b8ff" d="M482.36,-331.27C474.09,-298.94 445.41,-186.78 433.68,-140.91"/>
<polygon fill="#63b8ff" stroke="#63b8ff" points="437.1,-140.14 431.23,-131.32 430.32,-141.87 437.1,-140.14"/>
</a>
</g>
</g>
<!-- Node12 -->
<g id="Node000012" class="node">
<title>Node12</title>
<g id="a_Node000012"><a xlink:title=" ">
<polygon fill="#e0e0e0" stroke="#999999" points="553,-129.75 506.25,-129.75 506.25,-110.5 553,-110.5 553,-129.75"/>
<text text-anchor="middle" x="529.62" y="-116.25" font-family="IBMPlexSans-Regular" font-size="10.00">stdlib.h</text>
</a>
</g>
</g>
<!-- Node1&#45;&gt;Node12 -->
<g id="edge21_Node000001_Node000012" class="edge">
<title>Node1&#45;&gt;Node12</title>
<g id="a_edge21_Node000001_Node000012"><a xlink:title=" ">
<path fill="none" stroke="#63b8ff" d="M486.44,-331.27C493.09,-298.94 516.13,-186.78 525.56,-140.91"/>
<polygon fill="#63b8ff" stroke="#63b8ff" points="528.94,-141.83 527.53,-131.33 522.09,-140.42 528.94,-141.83"/>
</a>
</g>
</g>
<!-- Node14 -->
<g id="Node000014" class="node">
<title>Node14</title>
<g id="a_Node000014"><a xlink:title=" ">
<polygon fill="#e0e0e0" stroke="#999999" points="650.75,-295.5 608.5,-295.5 608.5,-276.25 650.75,-276.25 650.75,-295.5"/>
<text text-anchor="middle" x="629.62" y="-282" font-family="IBMPlexSans-Regular" font-size="10.00">time.h</text>
</a>
</g>
</g>
<!-- Node1&#45;&gt;Node14 -->
<g id="edge22_Node000001_Node000014" class="edge">
<title>Node1&#45;&gt;Node14</title>
<g id="a_edge22_Node000001_Node000014"><a xlink:title=" ">
<path fill="none" stroke="#63b8ff" d="M509.22,-331.09C533.54,-322.16 570.88,-308.45 597.52,-298.66"/>
<polygon fill="#63b8ff" stroke="#63b8ff" points="598.62,-301.99 606.8,-295.26 596.21,-295.42 598.62,-301.99"/>
</a>
</g>
</g>
<!-- Node4 -->
<g id="Node000004" class="node">
<title>Node4</title>
<g id="a_Node000004"><a xlink:title=" ">
<polygon fill="#e0e0e0" stroke="#999999" points="142.12,-129.75 87.12,-129.75 87.12,-110.5 142.12,-110.5 142.12,-129.75"/>
<text text-anchor="middle" x="114.62" y="-116.25" font-family="IBMPlexSans-Regular" font-size="10.00">stdbool.h</text>
</a>
</g>
</g>
<!-- Node3&#45;&gt;Node4 -->
<g id="edge3_Node000003_Node000004" class="edge">
<title>Node3&#45;&gt;Node4</title>
<g id="a_edge3_Node000003_Node000004"><a xlink:title=" ">
<path fill="none" stroke="#63b8ff" d="M338.24,-275.81C324.21,-266.91 302.3,-252.87 283.62,-240.25 229.94,-203.99 167.96,-159.65 136.06,-136.65"/>
<polygon fill="#63b8ff" stroke="#63b8ff" points="138.19,-133.87 128.03,-130.85 134.09,-139.54 138.19,-133.87"/>
</a>
</g>
</g>
<!-- Node5 -->
<g id="Node000005" class="node">
<title>Node5</title>
<g id="a_Node000005"><a xlink:href="random_8h.html" target="_top" xlink:title="Header for random number configuration.">
<polygon fill="white" stroke="#666666" points="348.5,-240.25 292.75,-240.25 292.75,-221 348.5,-221 348.5,-240.25"/>
<text text-anchor="middle" x="320.62" y="-226.75" font-family="IBMPlexSans-Regular" font-size="10.00">random.h</text>
</a>
</g>
</g>
<!-- Node3&#45;&gt;Node5 -->
<g id="edge4_Node000003_Node000005" class="edge">
<title>Node3&#45;&gt;Node5</title>
<g id="a_edge4_Node000003_Node000005"><a xlink:title=" ">
<path fill="none" stroke="#63b8ff" d="M347.34,-276.08C343.15,-269.11 337.15,-259.12 331.89,-250.37"/>
<polygon fill="#63b8ff" stroke="#63b8ff" points="334.95,-248.68 326.8,-241.91 328.95,-252.28 334.95,-248.68"/>
</a>
</g>
</g>
<!-- Node3&#45;&gt;Node9 -->
<g id="edge18_Node000003_Node000009" class="edge">
<title>Node3&#45;&gt;Node9</title>
<g id="a_edge18_Node000003_Node000009"><a xlink:title=" ">
<path fill="none" stroke="#63b8ff" d="M361.95,-275.83C384.17,-253.55 439.88,-193.16 459.62,-129.75 462.17,-121.58 463.98,-117.87 459.62,-110.5 449.41,-93.21 429.85,-82.17 412.51,-75.39"/>
<polygon fill="#63b8ff" stroke="#63b8ff" points="414.12,-72.25 403.53,-72.21 411.79,-78.85 414.12,-72.25"/>
</a>
</g>
</g>
<!-- Node6 -->
<g id="Node000006" class="node">
<title>Node6</title>
<g id="a_Node000006"><a xlink:title=" ">
<polygon fill="#e0e0e0" stroke="#999999" points="219.25,-74.5 174,-74.5 174,-55.25 219.25,-55.25 219.25,-74.5"/>
<text text-anchor="middle" x="196.62" y="-61" font-family="IBMPlexSans-Regular" font-size="10.00">math.h</text>
</a>
</g>
</g>
<!-- Node5&#45;&gt;Node6 -->
<g id="edge5_Node000005_Node000006" class="edge">
<title>Node5&#45;&gt;Node6</title>
<g id="a_edge5_Node000005_Node000006"><a xlink:title=" ">
<path fill="none" stroke="#63b8ff" d="M298.62,-220.52C267.64,-206.35 212.4,-175.76 189.62,-129.75 182.8,-115.97 185.36,-98.52 189.17,-85.34"/>
<polygon fill="#63b8ff" stroke="#63b8ff" points="192.4,-86.69 192.3,-76.1 185.77,-84.44 192.4,-86.69"/>
</a>
</g>
</g>
<!-- Node7 -->
<g id="Node000007" class="node">
<title>Node7</title>
<g id="a_Node000007"><a xlink:href="par__mpi_8h.html" target="_top" xlink:title="MPI headers.">
<polygon fill="white" stroke="#666666" points="333.62,-185 275.62,-185 275.62,-165.75 333.62,-165.75 333.62,-185"/>
<text text-anchor="middle" x="304.62" y="-171.5" font-family="IBMPlexSans-Regular" font-size="10.00">par_mpi.h</text>
</a>
</g>
</g>
<!-- Node5&#45;&gt;Node7 -->
<g id="edge6_Node000005_Node000007" class="edge">
<title>Node5&#45;&gt;Node7</title>
<g id="a_edge6_Node000005_Node000007"><a xlink:title=" ">
<path fill="none" stroke="#63b8ff" d="M317.98,-220.83C315.98,-214.17 313.15,-204.74 310.61,-196.28"/>
<polygon fill="#63b8ff" stroke="#63b8ff" points="313.99,-195.38 307.76,-186.81 307.29,-197.39 313.99,-195.38"/>
</a>
</g>
</g>
<!-- Node5&#45;&gt;Node9 -->
<g id="edge17_Node000005_Node000009" class="edge">
<title>Node5&#45;&gt;Node9</title>
<g id="a_edge17_Node000005_Node000009"><a xlink:title=" ">
<path fill="none" stroke="#63b8ff" d="M325.63,-220.59C330.41,-211.72 337.62,-197.7 342.62,-185 356.07,-150.93 367.49,-109.74 373.68,-85.8"/>
<polygon fill="#63b8ff" stroke="#63b8ff" points="377.05,-86.73 376.12,-76.18 370.27,-85.01 377.05,-86.73"/>
</a>
</g>
</g>
<!-- Node7&#45;&gt;Node2 -->
<g id="edge11_Node000007_Node000002" class="edge">
<title>Node7&#45;&gt;Node2</title>
<g id="a_edge11_Node000007_Node000002"><a xlink:title=" ">
<path fill="none" stroke="#63b8ff" d="M275.23,-168.63C233.98,-160.57 156.27,-145.35 80.51,-130.32"/>
<polygon fill="#63b8ff" stroke="#63b8ff" points="81.33,-126.91 70.84,-128.4 79.97,-133.78 81.33,-126.91"/>
</a>
</g>
</g>
<!-- Node7&#45;&gt;Node4 -->
<g id="edge13_Node000007_Node000004" class="edge">
<title>Node7&#45;&gt;Node4</title>
<g id="a_edge13_Node000007_Node000004"><a xlink:title=" ">
<path fill="none" stroke="#63b8ff" d="M275.35,-166.17C242.53,-156.97 189.16,-142.01 153.01,-131.88"/>
<polygon fill="#63b8ff" stroke="#63b8ff" points="154.41,-128.64 143.84,-129.31 152.52,-135.38 154.41,-128.64"/>
</a>
</g>
</g>
<!-- Node8 -->
<g id="Node000008" class="node">
<title>Node8</title>
<g id="a_Node000008"><a xlink:href="coord_8h.html" target="_top" xlink:title="Header for routines related to lattice sites.">
<polygon fill="white" stroke="#666666" points="246.38,-129.75 198.88,-129.75 198.88,-110.5 246.38,-110.5 246.38,-129.75"/>
<text text-anchor="middle" x="222.62" y="-116.25" font-family="IBMPlexSans-Regular" font-size="10.00">coord.h</text>
</a>
</g>
</g>
<!-- Node7&#45;&gt;Node8 -->
<g id="edge7_Node000007_Node000008" class="edge">
<title>Node7&#45;&gt;Node8</title>
<g id="a_edge7_Node000007_Node000008"><a xlink:title=" ">
<path fill="none" stroke="#63b8ff" d="M290.71,-165.34C278.46,-157.39 260.37,-145.64 245.91,-136.25"/>
<polygon fill="#63b8ff" stroke="#63b8ff" points="248.17,-133.54 237.87,-131.03 244.35,-139.41 248.17,-133.54"/>
</a>
</g>
</g>
<!-- Node7&#45;&gt;Node9 -->
<g id="edge12_Node000007_Node000009" class="edge">
<title>Node7&#45;&gt;Node9</title>
<g id="a_edge12_Node000007_Node000009"><a xlink:title=" ">
<path fill="none" stroke="#63b8ff" d="M310.68,-165.5C322.77,-147.77 350.1,-107.69 366.18,-84.13"/>
<polygon fill="#63b8ff" stroke="#63b8ff" points="368.89,-86.36 371.63,-76.13 363.11,-82.42 368.89,-86.36"/>
</a>
</g>
</g>
<!-- Node7&#45;&gt;Node11 -->
<g id="edge14_Node000007_Node000011" class="edge">
<title>Node7&#45;&gt;Node11</title>
<g id="a_edge14_Node000007_Node000011"><a xlink:title=" ">
<path fill="none" stroke="#63b8ff" d="M325.66,-165.34C345.26,-156.93 374.73,-144.27 397.13,-134.65"/>
<polygon fill="#63b8ff" stroke="#63b8ff" points="398.29,-137.96 406.1,-130.8 395.53,-131.53 398.29,-137.96"/>
</a>
</g>
</g>
<!-- Node7&#45;&gt;Node12 -->
<g id="edge15_Node000007_Node000012" class="edge">
<title>Node7&#45;&gt;Node12</title>
<g id="a_edge15_Node000007_Node000012"><a xlink:title=" ">
<path fill="none" stroke="#63b8ff" d="M334.04,-167.41C375.48,-157.61 450.91,-139.75 495,-129.32"/>
<polygon fill="#63b8ff" stroke="#63b8ff" points="495.63,-132.77 504.55,-127.06 494.02,-125.96 495.63,-132.77"/>
</a>
</g>
</g>
<!-- Node13 -->
<g id="Node000013" class="node">
<title>Node13</title>
<g id="a_Node000013"><a xlink:title=" ">
<polygon fill="#e0e0e0" stroke="#999999" points="312.38,-129.75 264.88,-129.75 264.88,-110.5 312.38,-110.5 312.38,-129.75"/>
<text text-anchor="middle" x="288.62" y="-116.25" font-family="IBMPlexSans-Regular" font-size="10.00">string.h</text>
</a>
</g>
</g>
<!-- Node7&#45;&gt;Node13 -->
<g id="edge16_Node000007_Node000013" class="edge">
<title>Node7&#45;&gt;Node13</title>
<g id="a_edge16_Node000007_Node000013"><a xlink:title=" ">
<path fill="none" stroke="#63b8ff" d="M301.98,-165.58C299.98,-158.92 297.15,-149.49 294.61,-141.03"/>
<polygon fill="#63b8ff" stroke="#63b8ff" points="297.99,-140.13 291.76,-131.56 291.29,-142.14 297.99,-140.13"/>
</a>
</g>
</g>
<!-- Node8&#45;&gt;Node6 -->
<g id="edge8_Node000008_Node000006" class="edge">
<title>Node8&#45;&gt;Node6</title>
<g id="a_edge8_Node000008_Node000006"><a xlink:title=" ">
<path fill="none" stroke="#63b8ff" d="M218.33,-110.33C215,-103.51 210.26,-93.81 206.06,-85.2"/>
<polygon fill="#63b8ff" stroke="#63b8ff" points="209.21,-83.67 201.68,-76.22 202.92,-86.74 209.21,-83.67"/>
</a>
</g>
</g>
<!-- Node8&#45;&gt;Node9 -->
<g id="edge9_Node000008_Node000009" class="edge">
<title>Node8&#45;&gt;Node9</title>
<g id="a_edge9_Node000008_Node000009"><a xlink:title=" ">
<path fill="none" stroke="#63b8ff" d="M246.66,-110.92C272.88,-101.97 315.06,-87.57 344.66,-77.47"/>
<polygon fill="#63b8ff" stroke="#63b8ff" points="345.56,-80.86 353.9,-74.32 343.3,-74.23 345.56,-80.86"/>
</a>
</g>
</g>
<!-- Node10 -->
<g id="Node000010" class="node">
<title>Node10</title>
<g id="a_Node000010"><a xlink:title=" ">
<polygon fill="#e0e0e0" stroke="#999999" points="408.38,-19.25 348.88,-19.25 348.88,0 408.38,0 408.38,-19.25"/>
<text text-anchor="middle" x="378.62" y="-5.75" font-family="IBMPlexSans-Regular" font-size="10.00">complex.h</text>
</a>
</g>
</g>
<!-- Node9&#45;&gt;Node10 -->
<g id="edge10_Node000009_Node000010" class="edge">
<title>Node9&#45;&gt;Node10</title>
<g id="a_edge10_Node000009_Node000010"><a xlink:title=" ">
<path fill="none" stroke="#63b8ff" d="M378.62,-55.08C378.62,-48.57 378.62,-39.42 378.62,-31.12"/>
<polygon fill="#63b8ff" stroke="#63b8ff" points="382.13,-31.12 378.63,-21.12 375.13,-31.12 382.13,-31.12"/>
</a>
</g>
</g>
</g>
</svg>
