<?xml version="1.0" encoding="UTF-8" standalone="no"?>
<!DOCTYPE svg PUBLIC "-//W3C//DTD SVG 1.1//EN"
 "http://www.w3.org/Graphics/SVG/1.1/DTD/svg11.dtd">
<!-- Generated by graphviz version 12.1.2 (20240928.0832)
 -->
<!-- Title: Force Pages: 1 -->
<svg width="417pt" height="267pt"
 viewBox="0.00 0.00 417.00 267.25" xmlns="http://www.w3.org/2000/svg" xmlns:xlink="http://www.w3.org/1999/xlink">
<g id="graph0" class="graph" transform="scale(1 1) rotate(0) translate(4 263.25)">
<title>Force</title>
<!-- Node1 -->
<g id="Node000001" class="node">
<title>Node1</title>
<g id="a_Node000001"><a xlink:title="Calculates the force &#160;at each intermediate time.">
<polygon fill="#999999" stroke="#666666" points="40.75,-93.25 0,-93.25 0,-74 40.75,-74 40.75,-93.25"/>
<text text-anchor="middle" x="20.38" y="-79.75" font-family="IBMPlexSans-Regular" font-size="10.00">Force</text>
</a>
</g>
</g>
<!-- Node2 -->
<g id="Node000002" class="node">
<title>Node2</title>
<g id="a_Node000002"><a xlink:href="congrad_8c.html#aa32f0774e38a36310209b44a2abae8e6" target="_top" xlink:title="Matrix Inversion via Conjugate Gradient (up/down flavour partitioning). Solves &#160;Implements up/down pa...">
<polygon fill="white" stroke="#666666" points="148.62,-185.25 91.38,-185.25 91.38,-166 148.62,-166 148.62,-185.25"/>
<text text-anchor="middle" x="120" y="-171.75" font-family="IBMPlexSans-Regular" font-size="10.00">Congradq</text>
</a>
</g>
</g>
<!-- Node1&#45;&gt;Node2 -->
<g id="edge1_Node000001_Node000002" class="edge">
<title>Node1&#45;&gt;Node2</title>
<g id="a_edge1_Node000001_Node000002"><a xlink:title=" ">
<path fill="none" stroke="#63b8ff" d="M30.54,-93.39C41.33,-104.76 59.92,-124 76.75,-139.62 83.55,-145.94 91.21,-152.59 98.12,-158.44"/>
<polygon fill="#63b8ff" stroke="#63b8ff" points="95.85,-161.1 105.77,-164.83 100.34,-155.73 95.85,-161.1"/>
</a>
</g>
</g>
<!-- Node8 -->
<g id="Node000008" class="node">
<title>Node8</title>
<g id="a_Node000008"><a xlink:href="su2hmc_8c.html#ad4816b4c3599a65d212f34e10c83055f" target="_top" xlink:title=" ">
<polygon fill="white" stroke="#666666" points="159.12,-130.25 80.88,-130.25 80.88,-111 159.12,-111 159.12,-130.25"/>
<text text-anchor="middle" x="120" y="-116.75" font-family="IBMPlexSans-Regular" font-size="10.00">Fill_Small_Phi</text>
</a>
</g>
</g>
<!-- Node1&#45;&gt;Node8 -->
<g id="edge8_Node000001_Node000008" class="edge">
<title>Node1&#45;&gt;Node8</title>
<g id="a_edge8_Node000001_Node000008"><a xlink:title=" ">
<path fill="none" stroke="#63b8ff" d="M41.13,-91.11C52.83,-95.54 68.02,-101.3 81.87,-106.55"/>
<polygon fill="#63b8ff" stroke="#63b8ff" points="80.6,-109.82 91.19,-110.09 83.08,-103.27 80.6,-109.82"/>
</a>
</g>
</g>
<!-- Node9 -->
<g id="Node000009" class="node">
<title>Node9</title>
<g id="a_Node000009"><a xlink:href="force_8c.html#a45c04d32a0a22833e0ed90db2baf454d" target="_top" xlink:title="Calculates the gauge force due to the Wilson Action at each intermediate time.">
<polygon fill="white" stroke="#666666" points="155.75,-93.25 84.25,-93.25 84.25,-74 155.75,-74 155.75,-93.25"/>
<text text-anchor="middle" x="120" y="-79.75" font-family="IBMPlexSans-Regular" font-size="10.00">Gauge_force</text>
</a>
</g>
</g>
<!-- Node1&#45;&gt;Node9 -->
<g id="edge9_Node000001_Node000009" class="edge">
<title>Node1&#45;&gt;Node9</title>
<g id="a_edge9_Node000001_Node000009"><a xlink:title=" ">
<path fill="none" stroke="#63b8ff" d="M41.13,-83.62C50.23,-83.62 61.44,-83.62 72.5,-83.62"/>
<polygon fill="#63b8ff" stroke="#63b8ff" points="72.35,-87.13 82.35,-83.63 72.35,-80.13 72.35,-87.13"/>
</a>
</g>
</g>
<!-- Node12 -->
<g id="Node000012" class="node">
<title>Node12</title>
<g id="a_Node000012"><a xlink:href="matrices_8c.html#aa9c3d535a95a3dd48438717eb8d71893" target="_top" xlink:title="Evaluates &#160;in double precision.">
<polygon fill="white" stroke="#666666" points="146,-56.25 94,-56.25 94,-37 146,-37 146,-56.25"/>
<text text-anchor="middle" x="120" y="-42.75" font-family="IBMPlexSans-Regular" font-size="10.00">Hdslash</text>
</a>
</g>
</g>
<!-- Node1&#45;&gt;Node12 -->
<g id="edge12_Node000001_Node000012" class="edge">
<title>Node1&#45;&gt;Node12</title>
<g id="a_edge12_Node000001_Node000012"><a xlink:title=" ">
<path fill="none" stroke="#63b8ff" d="M41.13,-76.14C53.21,-71.56 69.01,-65.57 83.23,-60.18"/>
<polygon fill="#63b8ff" stroke="#63b8ff" points="84.17,-63.57 92.29,-56.75 81.69,-57.02 84.17,-63.57"/>
</a>
</g>
</g>
<!-- Node14 -->
<g id="Node000014" class="node">
<title>Node14</title>
<g id="a_Node000014"><a xlink:href="par__mpi_8h.html#a893a7c85fb77e355d4cec6bc35711b98" target="_top" xlink:title="Swaps the halos along the axis given by idir in the direction given by layer.">
<polygon fill="white" stroke="#666666" points="163.25,-19.25 76.75,-19.25 76.75,0 163.25,0 163.25,-19.25"/>
<text text-anchor="middle" x="120" y="-5.75" font-family="IBMPlexSans-Regular" font-size="10.00">ZHalo_swap_dir</text>
</a>
</g>
</g>
<!-- Node1&#45;&gt;Node14 -->
<g id="edge14_Node000001_Node000014" class="edge">
<title>Node1&#45;&gt;Node14</title>
<g id="a_edge14_Node000001_Node000014"><a xlink:title=" ">
<path fill="none" stroke="#63b8ff" d="M29.07,-73.76C38.99,-61.58 57.3,-40.84 76.75,-27.62 78.29,-26.58 79.9,-25.57 81.56,-24.61"/>
<polygon fill="#63b8ff" stroke="#63b8ff" points="82.73,-27.94 90.02,-20.25 79.53,-21.72 82.73,-27.94"/>
</a>
</g>
</g>
<!-- Node3 -->
<g id="Node000003" class="node">
<title>Node3</title>
<g id="a_Node000003"><a xlink:href="matrices_8c.html#a17eb50d07c881fc5d1585ddf14aa1ff0" target="_top" xlink:title="Evaluates &#160;in single precision.">
<polygon fill="white" stroke="#666666" points="273,-259.25 212.75,-259.25 212.75,-240 273,-240 273,-259.25"/>
<text text-anchor="middle" x="242.88" y="-245.75" font-family="IBMPlexSans-Regular" font-size="10.00">Hdslash_f</text>
</a>
</g>
</g>
<!-- Node2&#45;&gt;Node3 -->
<g id="edge2_Node000002_Node000003" class="edge">
<title>Node2&#45;&gt;Node3</title>
<g id="a_edge2_Node000002_Node000003"><a xlink:title=" ">
<path fill="none" stroke="#63b8ff" d="M133.17,-185.64C148.09,-197.61 174.47,-217.75 199.25,-231.62 201.28,-232.76 203.39,-233.87 205.54,-234.94"/>
<polygon fill="#63b8ff" stroke="#63b8ff" points="203.82,-238 214.37,-239.03 206.77,-231.65 203.82,-238"/>
</a>
</g>
</g>
<!-- Node5 -->
<g id="Node000005" class="node">
<title>Node5</title>
<g id="a_Node000005"><a xlink:href="matrices_8c.html#a87e3179e3c6947eacfa74ada59aaeb0c" target="_top" xlink:title="Evaluates &#160;in single precision.">
<polygon fill="white" stroke="#666666" points="275.62,-222.25 210.12,-222.25 210.12,-203 275.62,-203 275.62,-222.25"/>
<text text-anchor="middle" x="242.88" y="-208.75" font-family="IBMPlexSans-Regular" font-size="10.00">Hdslashd_f</text>
</a>
</g>
</g>
<!-- Node2&#45;&gt;Node5 -->
<g id="edge4_Node000002_Node000005" class="edge">
<title>Node2&#45;&gt;Node5</title>
<g id="a_edge4_Node000002_Node000005"><a xlink:title=" ">
<path fill="none" stroke="#63b8ff" d="M149.03,-184.21C163.91,-188.76 182.5,-194.45 199.13,-199.54"/>
<polygon fill="#63b8ff" stroke="#63b8ff" points="197.69,-202.76 208.27,-202.34 199.74,-196.07 197.69,-202.76"/>
</a>
</g>
</g>
<!-- Node6 -->
<g id="Node000006" class="node">
<title>Node6</title>
<g id="a_Node000006"><a xlink:href="par__mpi_8h.html#aecfe9840e5f8dfd693b813b750d81a0c" target="_top" xlink:title="Performs a reduction on a double dval to get a sum which is then distributed to all ranks.">
<polygon fill="white" stroke="#666666" points="273,-185.25 212.75,-185.25 212.75,-166 273,-166 273,-185.25"/>
<text text-anchor="middle" x="242.88" y="-171.75" font-family="IBMPlexSans-Regular" font-size="10.00">Par_dsum</text>
</a>
</g>
</g>
<!-- Node2&#45;&gt;Node6 -->
<g id="edge6_Node000002_Node000006" class="edge">
<title>Node2&#45;&gt;Node6</title>
<g id="a_edge6_Node000002_Node000006"><a xlink:title=" ">
<path fill="none" stroke="#63b8ff" d="M149.03,-175.62C164.45,-175.62 183.85,-175.62 200.93,-175.62"/>
<polygon fill="#63b8ff" stroke="#63b8ff" points="200.79,-179.13 210.79,-175.63 200.79,-172.13 200.79,-179.13"/>
</a>
</g>
</g>
<!-- Node7 -->
<g id="Node000007" class="node">
<title>Node7</title>
<g id="a_Node000007"><a xlink:href="par__mpi_8h.html#a4e2e85b06c5b05c5181729cc5ebdd05b" target="_top" xlink:title="Performs a reduction on a float dval to get a sum which is then distributed to all ranks.">
<polygon fill="white" stroke="#666666" points="271.88,-148.25 213.88,-148.25 213.88,-129 271.88,-129 271.88,-148.25"/>
<text text-anchor="middle" x="242.88" y="-134.75" font-family="IBMPlexSans-Regular" font-size="10.00">Par_fsum</text>
</a>
</g>
</g>
<!-- Node2&#45;&gt;Node7 -->
<g id="edge7_Node000002_Node000007" class="edge">
<title>Node2&#45;&gt;Node7</title>
<g id="a_edge7_Node000002_Node000007"><a xlink:title=" ">
<path fill="none" stroke="#63b8ff" d="M149.03,-167.04C165.09,-162.13 185.48,-155.89 203.06,-150.51"/>
<polygon fill="#63b8ff" stroke="#63b8ff" points="203.59,-154 212.13,-147.73 201.54,-147.31 203.59,-154"/>
</a>
</g>
</g>
<!-- Node4 -->
<g id="Node000004" class="node">
<title>Node4</title>
<g id="a_Node000004"><a xlink:href="par__mpi_8h.html#a14b1a550ef4f44a9e4d7dd06c9427993" target="_top" xlink:title="Calls the functions to send data to both the up and down halos.">
<polygon fill="white" stroke="#666666" points="409,-240.25 322.5,-240.25 322.5,-221 409,-221 409,-240.25"/>
<text text-anchor="middle" x="365.75" y="-226.75" font-family="IBMPlexSans-Regular" font-size="10.00">CHalo_swap_all</text>
</a>
</g>
</g>
<!-- Node3&#45;&gt;Node4 -->
<g id="edge3_Node000003_Node000004" class="edge">
<title>Node3&#45;&gt;Node4</title>
<g id="a_edge3_Node000003_Node000004"><a xlink:title=" ">
<path fill="none" stroke="#63b8ff" d="M273.44,-244.98C284.8,-243.19 298.13,-241.1 311.06,-239.06"/>
<polygon fill="#63b8ff" stroke="#63b8ff" points="311.41,-242.55 320.75,-237.54 310.33,-235.64 311.41,-242.55"/>
</a>
</g>
</g>
<!-- Node5&#45;&gt;Node4 -->
<g id="edge5_Node000005_Node000004" class="edge">
<title>Node5&#45;&gt;Node4</title>
<g id="a_edge5_Node000005_Node000004"><a xlink:title=" ">
<path fill="none" stroke="#63b8ff" d="M275.95,-217.4C286.66,-219 298.9,-220.82 310.8,-222.59"/>
<polygon fill="#63b8ff" stroke="#63b8ff" points="310.14,-226.03 320.55,-224.04 311.18,-219.11 310.14,-226.03"/>
</a>
</g>
</g>
<!-- Node10 -->
<g id="Node000010" class="node">
<title>Node10</title>
<g id="a_Node000010"><a xlink:href="su2hmc_8c.html#af64f1450e29df479f82290bc4f7bdc1f" target="_top" xlink:title="Extracts all the single precision gauge links in the &#160;direction only.">
<polygon fill="white" stroke="#666666" points="270.38,-111.25 215.38,-111.25 215.38,-92 270.38,-92 270.38,-111.25"/>
<text text-anchor="middle" x="242.88" y="-97.75" font-family="IBMPlexSans-Regular" font-size="10.00">C_gather</text>
</a>
</g>
</g>
<!-- Node9&#45;&gt;Node10 -->
<g id="edge10_Node000009_Node000010" class="edge">
<title>Node9&#45;&gt;Node10</title>
<g id="a_edge10_Node000009_Node000010"><a xlink:title=" ">
<path fill="none" stroke="#63b8ff" d="M155.96,-88.83C170.96,-91.07 188.53,-93.68 203.85,-95.96"/>
<polygon fill="#63b8ff" stroke="#63b8ff" points="203.15,-99.4 213.56,-97.41 204.18,-92.47 203.15,-99.4"/>
</a>
</g>
</g>
<!-- Node11 -->
<g id="Node000011" class="node">
<title>Node11</title>
<g id="a_Node000011"><a xlink:href="par__mpi_8h.html#ab73329ce6f65730ba4783a8031edd518" target="_top" xlink:title="Swaps the halos along the axis given by idir in the direction given by layer.">
<polygon fill="white" stroke="#666666" points="286.5,-74.25 199.25,-74.25 199.25,-55 286.5,-55 286.5,-74.25"/>
<text text-anchor="middle" x="242.88" y="-60.75" font-family="IBMPlexSans-Regular" font-size="10.00">CHalo_swap_dir</text>
</a>
</g>
</g>
<!-- Node9&#45;&gt;Node11 -->
<g id="edge11_Node000009_Node000011" class="edge">
<title>Node9&#45;&gt;Node11</title>
<g id="a_edge11_Node000009_Node000011"><a xlink:title=" ">
<path fill="none" stroke="#63b8ff" d="M155.96,-78.13C165.9,-76.57 176.96,-74.83 187.75,-73.13"/>
<polygon fill="#63b8ff" stroke="#63b8ff" points="188,-76.64 197.34,-71.63 186.92,-69.72 188,-76.64"/>
</a>
</g>
</g>
<!-- Node13 -->
<g id="Node000013" class="node">
<title>Node13</title>
<g id="a_Node000013"><a xlink:href="par__mpi_8h.html#a35d208a5a65e71101e71d3f0248aef03" target="_top" xlink:title="Calls the functions to send data to both the up and down halos.">
<polygon fill="white" stroke="#666666" points="285.75,-37.25 200,-37.25 200,-18 285.75,-18 285.75,-37.25"/>
<text text-anchor="middle" x="242.88" y="-23.75" font-family="IBMPlexSans-Regular" font-size="10.00">ZHalo_swap_all</text>
</a>
</g>
</g>
<!-- Node12&#45;&gt;Node13 -->
<g id="edge13_Node000012_Node000013" class="edge">
<title>Node12&#45;&gt;Node13</title>
<g id="a_edge13_Node000012_Node000013"><a xlink:title=" ">
<path fill="none" stroke="#63b8ff" d="M146.34,-42.64C158.7,-40.7 174.05,-38.29 188.81,-35.97"/>
<polygon fill="#63b8ff" stroke="#63b8ff" points="189.09,-39.47 198.42,-34.46 188,-32.55 189.09,-39.47"/>
</a>
</g>
</g>
</g>
</svg>
