<?xml version="1.0" encoding="UTF-8" standalone="no"?>
<!DOCTYPE svg PUBLIC "-//W3C//DTD SVG 1.1//EN"
 "http://www.w3.org/Graphics/SVG/1.1/DTD/svg11.dtd">
<!-- Generated by graphviz version 12.2.1 (20241206.2353)
 -->
<!-- Title: Average_Plaquette Pages: 1 -->
<svg width="203pt" height="64pt"
 viewBox="0.00 0.00 202.75 64.25" xmlns="http://www.w3.org/2000/svg" xmlns:xlink="http://www.w3.org/1999/xlink">
<g id="graph0" class="graph" transform="scale(1 1) rotate(0) translate(4 60.25)">
<title>Average_Plaquette</title>
<!-- Node1 -->
<g id="Node000001" class="node">
<title>Node1</title>
<g id="a_Node000001"><a xlink:title="Calculates the gauge action using new (how new?) lookup table.">
<polygon fill="#999999" stroke="#666666" points="98.5,-37.25 0,-37.25 0,-18 98.5,-18 98.5,-37.25"/>
<text text-anchor="middle" x="49.25" y="-23.75" font-family="IBMPlexSans-Regular" font-size="10.00">Average_Plaquette</text>
</a>
</g>
</g>
<!-- Node2 -->
<g id="Node000002" class="node">
<title>Node2</title>
<g id="a_Node000002"><a xlink:href="par__mpi_8h.html#aecfe9840e5f8dfd693b813b750d81a0c" target="_top" xlink:title="Performs a reduction on a double dval to get a sum which is then distributed to all ranks.">
<polygon fill="white" stroke="#666666" points="194.75,-56.25 134.5,-56.25 134.5,-37 194.75,-37 194.75,-56.25"/>
<text text-anchor="middle" x="164.62" y="-42.75" font-family="IBMPlexSans-Regular" font-size="10.00">Par_dsum</text>
</a>
</g>
</g>
<!-- Node1&#45;&gt;Node2 -->
<g id="edge1_Node000001_Node000002" class="edge">
<title>Node1&#45;&gt;Node2</title>
<g id="a_edge1_Node000001_Node000002"><a xlink:title=" ">
<path fill="none" stroke="#63b8ff" d="M98.99,-35.79C106.96,-37.13 115.14,-38.5 122.9,-39.8"/>
<polygon fill="#63b8ff" stroke="#63b8ff" points="122.31,-43.25 132.75,-41.45 123.47,-36.35 122.31,-43.25"/>
</a>
</g>
</g>
<!-- Node3 -->
<g id="Node000003" class="node">
<title>Node3</title>
<g id="a_Node000003"><a xlink:href="bosonic_8c.html#a264e9888253e3d2751452205323c8697" target="_top" xlink:title="Calculates the plaquette at site i in the &#160;direction.">
<polygon fill="white" stroke="#666666" points="191.38,-19.25 137.88,-19.25 137.88,0 191.38,0 191.38,-19.25"/>
<text text-anchor="middle" x="164.62" y="-5.75" font-family="IBMPlexSans-Regular" font-size="10.00">SU2plaq</text>
</a>
</g>
</g>
<!-- Node1&#45;&gt;Node3 -->
<g id="edge2_Node000001_Node000003" class="edge">
<title>Node1&#45;&gt;Node3</title>
<g id="a_edge2_Node000001_Node000003"><a xlink:title=" ">
<path fill="none" stroke="#63b8ff" d="M98.99,-19.89C108.07,-18.45 117.42,-16.96 126.1,-15.58"/>
<polygon fill="#63b8ff" stroke="#63b8ff" points="126.6,-19.05 135.92,-14.02 125.5,-12.13 126.6,-19.05"/>
</a>
</g>
</g>
</g>
</svg>
