<?xml version="1.0" encoding="UTF-8" standalone="no"?>
<!DOCTYPE svg PUBLIC "-//W3C//DTD SVG 1.1//EN"
 "http://www.w3.org/Graphics/SVG/1.1/DTD/svg11.dtd">
<!-- Generated by graphviz version 12.2.1 (20241206.2353)
 -->
<!-- Title: Hamilton Pages: 1 -->
<svg width="422pt" height="175pt"
 viewBox="0.00 0.00 421.50 175.25" xmlns="http://www.w3.org/2000/svg" xmlns:xlink="http://www.w3.org/1999/xlink">
<g id="graph0" class="graph" transform="scale(1 1) rotate(0) translate(4 171.25)">
<title>Hamilton</title>
<!-- Node1 -->
<g id="Node000001" class="node">
<title>Node1</title>
<g id="a_Node000001"><a xlink:title="Calculate the Hamiltonian.">
<polygon fill="#999999" stroke="#666666" points="55,-110.25 0,-110.25 0,-91 55,-91 55,-110.25"/>
<text text-anchor="middle" x="27.5" y="-96.75" font-family="IBMPlexSans-Regular" font-size="10.00">Hamilton</text>
</a>
</g>
</g>
<!-- Node2 -->
<g id="Node000002" class="node">
<title>Node2</title>
<g id="a_Node000002"><a xlink:href="bosonic_8c.html#a2c38affebb6d51c6132aedeb69e2c46e" target="_top" xlink:title="Calculates the gauge action using new (how new?) lookup table.">
<polygon fill="white" stroke="#666666" points="189.5,-167.25 91,-167.25 91,-148 189.5,-148 189.5,-167.25"/>
<text text-anchor="middle" x="140.25" y="-153.75" font-family="IBMPlexSans-Regular" font-size="10.00">Average_Plaquette</text>
</a>
</g>
</g>
<!-- Node1&#45;&gt;Node2 -->
<g id="edge1_Node000001_Node000002" class="edge">
<title>Node1&#45;&gt;Node2</title>
<g id="a_edge1_Node000001_Node000002"><a xlink:title=" ">
<path fill="none" stroke="#63b8ff" d="M47.31,-110.71C59.68,-117.3 76.26,-126.07 91,-133.62 96.72,-136.56 102.85,-139.65 108.76,-142.6"/>
<polygon fill="#63b8ff" stroke="#63b8ff" points="107.14,-145.7 117.65,-147.02 110.25,-139.43 107.14,-145.7"/>
</a>
</g>
</g>
<!-- Node3 -->
<g id="Node000003" class="node">
<title>Node3</title>
<g id="a_Node000003"><a xlink:href="par__mpi_8h.html#aecfe9840e5f8dfd693b813b750d81a0c" target="_top" xlink:title="Performs a reduction on a double dval to get a sum which is then distributed to all ranks.">
<polygon fill="white" stroke="#666666" points="288.38,-130.25 228.12,-130.25 228.12,-111 288.38,-111 288.38,-130.25"/>
<text text-anchor="middle" x="258.25" y="-116.75" font-family="IBMPlexSans-Regular" font-size="10.00">Par_dsum</text>
</a>
</g>
</g>
<!-- Node1&#45;&gt;Node3 -->
<g id="edge12_Node000001_Node000003" class="edge">
<title>Node1&#45;&gt;Node3</title>
<g id="a_edge12_Node000001_Node000003"><a xlink:title=" ">
<path fill="none" stroke="#63b8ff" d="M55.19,-102.96C94.95,-106.44 170.06,-113 216.66,-117.08"/>
<polygon fill="#63b8ff" stroke="#63b8ff" points="216.08,-120.54 226.34,-117.92 216.69,-113.57 216.08,-120.54"/>
</a>
</g>
</g>
<!-- Node5 -->
<g id="Node000005" class="node">
<title>Node5</title>
<g id="a_Node000005"><a xlink:href="congrad_8c.html#a4b97a088fd74bb3b25ce4f965dc26281" target="_top" xlink:title="Matrix Inversion via Conjugate Gradient (up/down flavour partitioning). Solves &#160;Implements up/down pa...">
<polygon fill="white" stroke="#666666" points="168.88,-91.25 111.62,-91.25 111.62,-72 168.88,-72 168.88,-91.25"/>
<text text-anchor="middle" x="140.25" y="-77.75" font-family="IBMPlexSans-Regular" font-size="10.00">Congradq</text>
</a>
</g>
</g>
<!-- Node1&#45;&gt;Node5 -->
<g id="edge4_Node000001_Node000005" class="edge">
<title>Node1&#45;&gt;Node5</title>
<g id="a_edge4_Node000001_Node000005"><a xlink:title=" ">
<path fill="none" stroke="#63b8ff" d="M55.31,-96.03C68.78,-93.72 85.35,-90.87 100.2,-88.32"/>
<polygon fill="#63b8ff" stroke="#63b8ff" points="100.39,-91.84 109.65,-86.7 99.2,-84.94 100.39,-91.84"/>
</a>
</g>
</g>
<!-- Node10 -->
<g id="Node000010" class="node">
<title>Node10</title>
<g id="a_Node000010"><a xlink:href="su2hmc_8c.html#ad4816b4c3599a65d212f34e10c83055f" target="_top" xlink:title=" ">
<polygon fill="white" stroke="#666666" points="179.38,-54.25 101.12,-54.25 101.12,-35 179.38,-35 179.38,-54.25"/>
<text text-anchor="middle" x="140.25" y="-40.75" font-family="IBMPlexSans-Regular" font-size="10.00">Fill_Small_Phi</text>
</a>
</g>
</g>
<!-- Node1&#45;&gt;Node10 -->
<g id="edge11_Node000001_Node000010" class="edge">
<title>Node1&#45;&gt;Node10</title>
<g id="a_edge11_Node000001_Node000010"><a xlink:title=" ">
<path fill="none" stroke="#63b8ff" d="M42.96,-90.75C55.35,-82.56 73.86,-70.94 91,-62.62 93.57,-61.38 96.25,-60.16 98.97,-58.99"/>
<polygon fill="#63b8ff" stroke="#63b8ff" points="100.18,-62.28 108.13,-55.27 97.55,-55.79 100.18,-62.28"/>
</a>
</g>
</g>
<!-- Node2&#45;&gt;Node3 -->
<g id="edge2_Node000002_Node000003" class="edge">
<title>Node2&#45;&gt;Node3</title>
<g id="a_edge2_Node000002_Node000003"><a xlink:title=" ">
<path fill="none" stroke="#63b8ff" d="M172.95,-147.51C186.63,-143.15 202.79,-137.99 217.29,-133.37"/>
<polygon fill="#63b8ff" stroke="#63b8ff" points="218.07,-136.79 226.54,-130.42 215.95,-130.13 218.07,-136.79"/>
</a>
</g>
</g>
<!-- Node4 -->
<g id="Node000004" class="node">
<title>Node4</title>
<g id="a_Node000004"><a xlink:href="bosonic_8c.html#a264e9888253e3d2751452205323c8697" target="_top" xlink:title="Calculates the plaquette at site i in the &#160;direction.">
<polygon fill="white" stroke="#666666" points="285,-167.25 231.5,-167.25 231.5,-148 285,-148 285,-167.25"/>
<text text-anchor="middle" x="258.25" y="-153.75" font-family="IBMPlexSans-Regular" font-size="10.00">SU2plaq</text>
</a>
</g>
</g>
<!-- Node2&#45;&gt;Node4 -->
<g id="edge3_Node000002_Node000004" class="edge">
<title>Node2&#45;&gt;Node4</title>
<g id="a_edge3_Node000002_Node000004"><a xlink:title=" ">
<path fill="none" stroke="#63b8ff" d="M189.77,-157.62C199.73,-157.62 210.06,-157.62 219.56,-157.62"/>
<polygon fill="#63b8ff" stroke="#63b8ff" points="219.55,-161.13 229.55,-157.63 219.55,-154.13 219.55,-161.13"/>
</a>
</g>
</g>
<!-- Node5&#45;&gt;Node3 -->
<g id="edge9_Node000005_Node000003" class="edge">
<title>Node5&#45;&gt;Node3</title>
<g id="a_edge9_Node000005_Node000003"><a xlink:title=" ">
<path fill="none" stroke="#63b8ff" d="M169.33,-91.07C183.71,-95.9 201.48,-101.87 217.26,-107.18"/>
<polygon fill="#63b8ff" stroke="#63b8ff" points="215.78,-110.38 226.37,-110.24 218.01,-103.74 215.78,-110.38"/>
</a>
</g>
</g>
<!-- Node6 -->
<g id="Node000006" class="node">
<title>Node6</title>
<g id="a_Node000006"><a xlink:href="matrices_8c.html#a68e018d0a9d3c7ae5e175f87da75d881" target="_top" xlink:title="Evaluates &#160;in single precision.">
<polygon fill="white" stroke="#666666" points="288.38,-19.25 228.12,-19.25 228.12,0 288.38,0 288.38,-19.25"/>
<text text-anchor="middle" x="258.25" y="-5.75" font-family="IBMPlexSans-Regular" font-size="10.00">Hdslash_f</text>
</a>
</g>
</g>
<!-- Node5&#45;&gt;Node6 -->
<g id="edge5_Node000005_Node000006" class="edge">
<title>Node5&#45;&gt;Node6</title>
<g id="a_edge5_Node000005_Node000006"><a xlink:title=" ">
<path fill="none" stroke="#63b8ff" d="M169.27,-73.48C176.17,-70.86 183.33,-67.59 189.5,-63.62 208.53,-51.39 207.49,-41.33 225.5,-27.62 226.32,-27 227.16,-26.39 228.01,-25.78"/>
<polygon fill="#63b8ff" stroke="#63b8ff" points="229.76,-28.82 236.31,-20.49 225.99,-22.92 229.76,-28.82"/>
</a>
</g>
</g>
<!-- Node8 -->
<g id="Node000008" class="node">
<title>Node8</title>
<g id="a_Node000008"><a xlink:href="matrices_8c.html#a01fdbe29f8890534b19e20de5af344aa" target="_top" xlink:title="Evaluates &#160;in single precision.">
<polygon fill="white" stroke="#666666" points="291,-93.25 225.5,-93.25 225.5,-74 291,-74 291,-93.25"/>
<text text-anchor="middle" x="258.25" y="-79.75" font-family="IBMPlexSans-Regular" font-size="10.00">Hdslashd_f</text>
</a>
</g>
</g>
<!-- Node5&#45;&gt;Node8 -->
<g id="edge7_Node000005_Node000008" class="edge">
<title>Node5&#45;&gt;Node8</title>
<g id="a_edge7_Node000005_Node000008"><a xlink:title=" ">
<path fill="none" stroke="#63b8ff" d="M169.33,-82.11C182.8,-82.34 199.22,-82.62 214.22,-82.88"/>
<polygon fill="#63b8ff" stroke="#63b8ff" points="213.76,-86.38 223.82,-83.05 213.88,-79.38 213.76,-86.38"/>
</a>
</g>
</g>
<!-- Node9 -->
<g id="Node000009" class="node">
<title>Node9</title>
<g id="a_Node000009"><a xlink:href="par__mpi_8h.html#a4e2e85b06c5b05c5181729cc5ebdd05b" target="_top" xlink:title="Performs a reduction on a float dval to get a sum which is then distributed to all ranks.">
<polygon fill="white" stroke="#666666" points="287.25,-56.25 229.25,-56.25 229.25,-37 287.25,-37 287.25,-56.25"/>
<text text-anchor="middle" x="258.25" y="-42.75" font-family="IBMPlexSans-Regular" font-size="10.00">Par_fsum</text>
</a>
</g>
</g>
<!-- Node5&#45;&gt;Node9 -->
<g id="edge10_Node000005_Node000009" class="edge">
<title>Node5&#45;&gt;Node9</title>
<g id="a_edge10_Node000005_Node000009"><a xlink:title=" ">
<path fill="none" stroke="#63b8ff" d="M169.33,-73.15C184.04,-68.71 202.28,-63.21 218.34,-58.37"/>
<polygon fill="#63b8ff" stroke="#63b8ff" points="219.01,-61.82 227.58,-55.58 216.99,-55.12 219.01,-61.82"/>
</a>
</g>
</g>
<!-- Node7 -->
<g id="Node000007" class="node">
<title>Node7</title>
<g id="a_Node000007"><a xlink:href="par__mpi_8h.html#a14b1a550ef4f44a9e4d7dd06c9427993" target="_top" xlink:title="Calls the functions to send data to both the up and down halos.">
<polygon fill="white" stroke="#666666" points="413.5,-56.25 327,-56.25 327,-37 413.5,-37 413.5,-56.25"/>
<text text-anchor="middle" x="370.25" y="-42.75" font-family="IBMPlexSans-Regular" font-size="10.00">CHalo_swap_all</text>
</a>
</g>
</g>
<!-- Node6&#45;&gt;Node7 -->
<g id="edge6_Node000006_Node000007" class="edge">
<title>Node6&#45;&gt;Node7</title>
<g id="a_edge6_Node000006_Node000007"><a xlink:title=" ">
<path fill="none" stroke="#63b8ff" d="M288.73,-19.54C300.96,-23.65 315.35,-28.5 328.56,-32.94"/>
<polygon fill="#63b8ff" stroke="#63b8ff" points="327.28,-36.2 337.87,-36.07 329.51,-29.57 327.28,-36.2"/>
</a>
</g>
</g>
<!-- Node8&#45;&gt;Node7 -->
<g id="edge8_Node000008_Node000007" class="edge">
<title>Node8&#45;&gt;Node7</title>
<g id="a_edge8_Node000008_Node000007"><a xlink:title=" ">
<path fill="none" stroke="#63b8ff" d="M289.31,-73.51C301.43,-69.44 315.61,-64.67 328.63,-60.29"/>
<polygon fill="#63b8ff" stroke="#63b8ff" points="329.43,-63.71 337.79,-57.21 327.2,-57.08 329.43,-63.71"/>
</a>
</g>
</g>
</g>
</svg>
